G04 #@! TF.FileFunction,Legend,Bot*
%FSLAX46Y46*%
G04 Gerber Fmt 4.6, Leading zero omitted, Abs format (unit mm)*
G04 Created by KiCad (PCBNEW 4.0.5) date Saturday, July 08, 2017 'AMt' 10:16:17 AM*
%MOMM*%
%LPD*%
G01*
G04 APERTURE LIST*
%ADD10C,0.100000*%
%ADD11C,0.010000*%
G04 APERTURE END LIST*
D10*
D11*
G36*
X180884734Y-144758247D02*
X180927938Y-144757092D01*
X180959333Y-144754058D01*
X180977085Y-144749337D01*
X180978687Y-144748325D01*
X180994921Y-144730963D01*
X181005418Y-144710493D01*
X181009330Y-144690992D01*
X181005810Y-144676536D01*
X180994724Y-144671187D01*
X180979934Y-144676712D01*
X180975129Y-144683093D01*
X180964532Y-144692249D01*
X180951019Y-144695000D01*
X180934794Y-144690478D01*
X180928942Y-144677140D01*
X180926419Y-144668080D01*
X180919747Y-144662518D01*
X180905519Y-144659382D01*
X180880326Y-144657597D01*
X180864890Y-144656962D01*
X180803375Y-144654644D01*
X180803375Y-144758500D01*
X180884734Y-144758247D01*
X180884734Y-144758247D01*
G37*
X180884734Y-144758247D02*
X180927938Y-144757092D01*
X180959333Y-144754058D01*
X180977085Y-144749337D01*
X180978687Y-144748325D01*
X180994921Y-144730963D01*
X181005418Y-144710493D01*
X181009330Y-144690992D01*
X181005810Y-144676536D01*
X180994724Y-144671187D01*
X180979934Y-144676712D01*
X180975129Y-144683093D01*
X180964532Y-144692249D01*
X180951019Y-144695000D01*
X180934794Y-144690478D01*
X180928942Y-144677140D01*
X180926419Y-144668080D01*
X180919747Y-144662518D01*
X180905519Y-144659382D01*
X180880326Y-144657597D01*
X180864890Y-144656962D01*
X180803375Y-144654644D01*
X180803375Y-144758500D01*
X180884734Y-144758247D01*
G36*
X180874844Y-147949375D02*
X180924463Y-147947276D01*
X180960725Y-147940565D01*
X180985634Y-147928622D01*
X181001198Y-147910824D01*
X181001577Y-147910127D01*
X181009305Y-147887877D01*
X181007811Y-147870601D01*
X180997653Y-147862296D01*
X180994846Y-147862062D01*
X180977309Y-147867827D01*
X180970062Y-147873968D01*
X180955452Y-147884221D01*
X180940622Y-147884915D01*
X180931290Y-147876483D01*
X180930375Y-147870971D01*
X180925803Y-147853928D01*
X180910893Y-147843720D01*
X180883854Y-147839579D01*
X180857646Y-147839837D01*
X180807343Y-147842218D01*
X180804996Y-147895796D01*
X180802649Y-147949375D01*
X180874844Y-147949375D01*
X180874844Y-147949375D01*
G37*
X180874844Y-147949375D02*
X180924463Y-147947276D01*
X180960725Y-147940565D01*
X180985634Y-147928622D01*
X181001198Y-147910824D01*
X181001577Y-147910127D01*
X181009305Y-147887877D01*
X181007811Y-147870601D01*
X180997653Y-147862296D01*
X180994846Y-147862062D01*
X180977309Y-147867827D01*
X180970062Y-147873968D01*
X180955452Y-147884221D01*
X180940622Y-147884915D01*
X180931290Y-147876483D01*
X180930375Y-147870971D01*
X180925803Y-147853928D01*
X180910893Y-147843720D01*
X180883854Y-147839579D01*
X180857646Y-147839837D01*
X180807343Y-147842218D01*
X180804996Y-147895796D01*
X180802649Y-147949375D01*
X180874844Y-147949375D01*
G36*
X179945330Y-135120670D02*
X179945956Y-135133448D01*
X179946125Y-135141696D01*
X179946125Y-135177937D01*
X180819971Y-135177937D01*
X180839454Y-135197420D01*
X180855819Y-135222904D01*
X180856600Y-135249934D01*
X180843767Y-135274292D01*
X180828597Y-135293031D01*
X179946125Y-135297389D01*
X179946125Y-135400187D01*
X180864527Y-135400187D01*
X180891068Y-135382301D01*
X180917519Y-135359900D01*
X180935279Y-135332602D01*
X180945865Y-135296975D01*
X180950796Y-135249590D01*
X180950910Y-135247107D01*
X180951337Y-135212983D01*
X180949863Y-135181933D01*
X180946799Y-135159778D01*
X180946061Y-135157047D01*
X180935608Y-135137203D01*
X180917638Y-135114518D01*
X180906555Y-135103469D01*
X180874766Y-135074750D01*
X180418662Y-135074750D01*
X180319933Y-135074689D01*
X180235903Y-135074616D01*
X180165394Y-135074697D01*
X180107232Y-135075099D01*
X180060240Y-135075989D01*
X180023242Y-135077534D01*
X179995064Y-135079900D01*
X179974527Y-135083254D01*
X179960458Y-135087762D01*
X179951679Y-135093591D01*
X179947016Y-135100908D01*
X179945291Y-135109879D01*
X179945330Y-135120670D01*
X179945330Y-135120670D01*
G37*
X179945330Y-135120670D02*
X179945956Y-135133448D01*
X179946125Y-135141696D01*
X179946125Y-135177937D01*
X180819971Y-135177937D01*
X180839454Y-135197420D01*
X180855819Y-135222904D01*
X180856600Y-135249934D01*
X180843767Y-135274292D01*
X180828597Y-135293031D01*
X179946125Y-135297389D01*
X179946125Y-135400187D01*
X180864527Y-135400187D01*
X180891068Y-135382301D01*
X180917519Y-135359900D01*
X180935279Y-135332602D01*
X180945865Y-135296975D01*
X180950796Y-135249590D01*
X180950910Y-135247107D01*
X180951337Y-135212983D01*
X180949863Y-135181933D01*
X180946799Y-135159778D01*
X180946061Y-135157047D01*
X180935608Y-135137203D01*
X180917638Y-135114518D01*
X180906555Y-135103469D01*
X180874766Y-135074750D01*
X180418662Y-135074750D01*
X180319933Y-135074689D01*
X180235903Y-135074616D01*
X180165394Y-135074697D01*
X180107232Y-135075099D01*
X180060240Y-135075989D01*
X180023242Y-135077534D01*
X179995064Y-135079900D01*
X179974527Y-135083254D01*
X179960458Y-135087762D01*
X179951679Y-135093591D01*
X179947016Y-135100908D01*
X179945291Y-135109879D01*
X179945330Y-135120670D01*
G36*
X179940756Y-136057551D02*
X179946038Y-136077342D01*
X179955643Y-136097818D01*
X179955883Y-136098268D01*
X179983384Y-136133751D01*
X180021029Y-136157703D01*
X180067157Y-136169207D01*
X180085906Y-136170125D01*
X180123271Y-136167780D01*
X180149403Y-136159016D01*
X180168478Y-136141239D01*
X180184669Y-136111856D01*
X180186544Y-136107595D01*
X180205857Y-136062968D01*
X180134793Y-136059000D01*
X180099909Y-136056602D01*
X180077108Y-136053452D01*
X180062598Y-136048543D01*
X180052590Y-136040869D01*
X180048399Y-136036065D01*
X180037792Y-136012327D01*
X180042745Y-135987708D01*
X180054475Y-135971687D01*
X180064378Y-135965798D01*
X180082275Y-135962176D01*
X180110948Y-135960464D01*
X180144131Y-135960235D01*
X180166300Y-135960411D01*
X180185383Y-135961117D01*
X180203131Y-135963046D01*
X180221293Y-135966888D01*
X180241621Y-135973336D01*
X180265865Y-135983081D01*
X180295773Y-135996816D01*
X180333098Y-136015230D01*
X180379588Y-136039017D01*
X180436994Y-136068868D01*
X180492873Y-136098059D01*
X180534060Y-136118664D01*
X180574194Y-136137120D01*
X180609425Y-136151764D01*
X180635905Y-136160937D01*
X180642144Y-136162496D01*
X180667896Y-136165906D01*
X180704237Y-136168208D01*
X180745903Y-136169162D01*
X180779454Y-136168795D01*
X180821404Y-136167251D01*
X180850805Y-136165019D01*
X180870981Y-136161555D01*
X180885257Y-136156316D01*
X180895599Y-136149790D01*
X180920052Y-136129162D01*
X180936232Y-136108140D01*
X180945920Y-136082570D01*
X180950895Y-136048291D01*
X180952529Y-136016765D01*
X180953239Y-135980994D01*
X180952125Y-135956423D01*
X180948409Y-135938410D01*
X180941311Y-135922313D01*
X180934795Y-135911135D01*
X180915524Y-135885356D01*
X180892507Y-135867391D01*
X180862745Y-135856068D01*
X180823239Y-135850216D01*
X180774829Y-135848656D01*
X180731377Y-135849569D01*
X180701928Y-135852448D01*
X180684708Y-135857500D01*
X180681471Y-135859626D01*
X180671335Y-135872499D01*
X180658875Y-135893937D01*
X180647040Y-135918068D01*
X180638774Y-135939018D01*
X180636687Y-135948884D01*
X180644083Y-135951707D01*
X180664112Y-135953999D01*
X180693532Y-135955491D01*
X180722015Y-135955929D01*
X180770041Y-135957045D01*
X180804748Y-135960754D01*
X180828586Y-135967828D01*
X180844007Y-135979036D01*
X180853463Y-135995149D01*
X180854344Y-135997537D01*
X180857628Y-136015022D01*
X180851059Y-136029892D01*
X180843170Y-136039041D01*
X180833042Y-136048536D01*
X180821817Y-136054430D01*
X180805603Y-136057571D01*
X180780504Y-136058809D01*
X180751659Y-136059000D01*
X180713887Y-136057729D01*
X180677283Y-136054348D01*
X180648202Y-136049504D01*
X180641652Y-136047790D01*
X180623366Y-136040667D01*
X180593894Y-136027277D01*
X180555986Y-136008955D01*
X180512390Y-135987036D01*
X180465857Y-135962857D01*
X180455566Y-135957403D01*
X180395988Y-135926004D01*
X180347821Y-135901493D01*
X180308660Y-135882934D01*
X180276101Y-135869392D01*
X180247741Y-135859934D01*
X180221175Y-135853623D01*
X180194000Y-135849525D01*
X180172771Y-135847426D01*
X180106997Y-135845313D01*
X180053384Y-135851536D01*
X180010296Y-135866580D01*
X179976097Y-135890929D01*
X179958761Y-135910748D01*
X179949553Y-135927054D01*
X179943790Y-135948515D01*
X179940519Y-135979474D01*
X179939589Y-135998060D01*
X179938904Y-136032955D01*
X179940756Y-136057551D01*
X179940756Y-136057551D01*
G37*
X179940756Y-136057551D02*
X179946038Y-136077342D01*
X179955643Y-136097818D01*
X179955883Y-136098268D01*
X179983384Y-136133751D01*
X180021029Y-136157703D01*
X180067157Y-136169207D01*
X180085906Y-136170125D01*
X180123271Y-136167780D01*
X180149403Y-136159016D01*
X180168478Y-136141239D01*
X180184669Y-136111856D01*
X180186544Y-136107595D01*
X180205857Y-136062968D01*
X180134793Y-136059000D01*
X180099909Y-136056602D01*
X180077108Y-136053452D01*
X180062598Y-136048543D01*
X180052590Y-136040869D01*
X180048399Y-136036065D01*
X180037792Y-136012327D01*
X180042745Y-135987708D01*
X180054475Y-135971687D01*
X180064378Y-135965798D01*
X180082275Y-135962176D01*
X180110948Y-135960464D01*
X180144131Y-135960235D01*
X180166300Y-135960411D01*
X180185383Y-135961117D01*
X180203131Y-135963046D01*
X180221293Y-135966888D01*
X180241621Y-135973336D01*
X180265865Y-135983081D01*
X180295773Y-135996816D01*
X180333098Y-136015230D01*
X180379588Y-136039017D01*
X180436994Y-136068868D01*
X180492873Y-136098059D01*
X180534060Y-136118664D01*
X180574194Y-136137120D01*
X180609425Y-136151764D01*
X180635905Y-136160937D01*
X180642144Y-136162496D01*
X180667896Y-136165906D01*
X180704237Y-136168208D01*
X180745903Y-136169162D01*
X180779454Y-136168795D01*
X180821404Y-136167251D01*
X180850805Y-136165019D01*
X180870981Y-136161555D01*
X180885257Y-136156316D01*
X180895599Y-136149790D01*
X180920052Y-136129162D01*
X180936232Y-136108140D01*
X180945920Y-136082570D01*
X180950895Y-136048291D01*
X180952529Y-136016765D01*
X180953239Y-135980994D01*
X180952125Y-135956423D01*
X180948409Y-135938410D01*
X180941311Y-135922313D01*
X180934795Y-135911135D01*
X180915524Y-135885356D01*
X180892507Y-135867391D01*
X180862745Y-135856068D01*
X180823239Y-135850216D01*
X180774829Y-135848656D01*
X180731377Y-135849569D01*
X180701928Y-135852448D01*
X180684708Y-135857500D01*
X180681471Y-135859626D01*
X180671335Y-135872499D01*
X180658875Y-135893937D01*
X180647040Y-135918068D01*
X180638774Y-135939018D01*
X180636687Y-135948884D01*
X180644083Y-135951707D01*
X180664112Y-135953999D01*
X180693532Y-135955491D01*
X180722015Y-135955929D01*
X180770041Y-135957045D01*
X180804748Y-135960754D01*
X180828586Y-135967828D01*
X180844007Y-135979036D01*
X180853463Y-135995149D01*
X180854344Y-135997537D01*
X180857628Y-136015022D01*
X180851059Y-136029892D01*
X180843170Y-136039041D01*
X180833042Y-136048536D01*
X180821817Y-136054430D01*
X180805603Y-136057571D01*
X180780504Y-136058809D01*
X180751659Y-136059000D01*
X180713887Y-136057729D01*
X180677283Y-136054348D01*
X180648202Y-136049504D01*
X180641652Y-136047790D01*
X180623366Y-136040667D01*
X180593894Y-136027277D01*
X180555986Y-136008955D01*
X180512390Y-135987036D01*
X180465857Y-135962857D01*
X180455566Y-135957403D01*
X180395988Y-135926004D01*
X180347821Y-135901493D01*
X180308660Y-135882934D01*
X180276101Y-135869392D01*
X180247741Y-135859934D01*
X180221175Y-135853623D01*
X180194000Y-135849525D01*
X180172771Y-135847426D01*
X180106997Y-135845313D01*
X180053384Y-135851536D01*
X180010296Y-135866580D01*
X179976097Y-135890929D01*
X179958761Y-135910748D01*
X179949553Y-135927054D01*
X179943790Y-135948515D01*
X179940519Y-135979474D01*
X179939589Y-135998060D01*
X179938904Y-136032955D01*
X179940756Y-136057551D01*
G36*
X179942380Y-142740126D02*
X179943564Y-142766298D01*
X179946472Y-142784308D01*
X179951869Y-142798013D01*
X179960519Y-142811269D01*
X179965030Y-142817268D01*
X179973594Y-142828451D01*
X179981724Y-142837925D01*
X179990739Y-142845824D01*
X180001954Y-142852283D01*
X180016688Y-142857436D01*
X180036256Y-142861418D01*
X180061977Y-142864363D01*
X180095167Y-142866406D01*
X180137143Y-142867682D01*
X180189222Y-142868325D01*
X180252722Y-142868469D01*
X180328959Y-142868249D01*
X180419250Y-142867799D01*
X180457753Y-142867595D01*
X180549651Y-142867095D01*
X180627009Y-142866607D01*
X180691161Y-142866073D01*
X180743441Y-142865438D01*
X180785183Y-142864644D01*
X180817722Y-142863636D01*
X180842391Y-142862356D01*
X180860526Y-142860748D01*
X180873460Y-142858756D01*
X180882527Y-142856323D01*
X180889063Y-142853392D01*
X180894401Y-142849907D01*
X180895574Y-142849040D01*
X180918883Y-142829668D01*
X180934684Y-142810188D01*
X180944541Y-142786754D01*
X180950014Y-142755520D01*
X180952666Y-142712643D01*
X180952819Y-142708084D01*
X180953707Y-142670545D01*
X180953094Y-142644884D01*
X180950396Y-142627128D01*
X180945030Y-142613307D01*
X180936944Y-142600229D01*
X180918784Y-142577830D01*
X180898587Y-142558525D01*
X180896058Y-142556573D01*
X180890845Y-142552952D01*
X180884914Y-142549900D01*
X180876948Y-142547369D01*
X180865632Y-142545308D01*
X180849651Y-142543670D01*
X180827689Y-142542407D01*
X180798430Y-142541470D01*
X180760559Y-142540810D01*
X180712761Y-142540378D01*
X180653720Y-142540127D01*
X180582120Y-142540007D01*
X180496646Y-142539971D01*
X180446187Y-142539968D01*
X180352945Y-142539982D01*
X180274264Y-142540056D01*
X180208829Y-142540238D01*
X180155326Y-142540575D01*
X180112442Y-142541115D01*
X180078861Y-142541907D01*
X180066339Y-142542440D01*
X180066339Y-142647125D01*
X180446763Y-142647125D01*
X180534331Y-142647143D01*
X180607404Y-142647237D01*
X180667362Y-142647461D01*
X180715585Y-142647870D01*
X180753452Y-142648520D01*
X180782344Y-142649466D01*
X180803641Y-142650763D01*
X180818723Y-142652467D01*
X180828969Y-142654632D01*
X180835760Y-142657314D01*
X180840475Y-142660569D01*
X180843062Y-142663000D01*
X180855011Y-142683023D01*
X180858937Y-142702687D01*
X180853555Y-142725994D01*
X180843062Y-142742375D01*
X180838954Y-142746028D01*
X180833661Y-142749073D01*
X180825802Y-142751566D01*
X180814000Y-142753561D01*
X180796872Y-142755114D01*
X180773040Y-142756281D01*
X180741123Y-142757115D01*
X180699741Y-142757673D01*
X180647515Y-142758011D01*
X180583065Y-142758182D01*
X180505010Y-142758243D01*
X180446763Y-142758250D01*
X180066339Y-142758250D01*
X180049888Y-142737335D01*
X180035930Y-142713109D01*
X180036312Y-142691070D01*
X180049888Y-142668039D01*
X180066339Y-142647125D01*
X180066339Y-142542440D01*
X180053270Y-142542998D01*
X180034355Y-142544436D01*
X180020800Y-142546269D01*
X180011292Y-142548545D01*
X180004517Y-142551311D01*
X179999161Y-142554616D01*
X179996806Y-142556334D01*
X179973933Y-142575103D01*
X179958430Y-142593526D01*
X179948908Y-142615303D01*
X179943980Y-142644129D01*
X179942258Y-142683702D01*
X179942156Y-142701937D01*
X179942380Y-142740126D01*
X179942380Y-142740126D01*
G37*
X179942380Y-142740126D02*
X179943564Y-142766298D01*
X179946472Y-142784308D01*
X179951869Y-142798013D01*
X179960519Y-142811269D01*
X179965030Y-142817268D01*
X179973594Y-142828451D01*
X179981724Y-142837925D01*
X179990739Y-142845824D01*
X180001954Y-142852283D01*
X180016688Y-142857436D01*
X180036256Y-142861418D01*
X180061977Y-142864363D01*
X180095167Y-142866406D01*
X180137143Y-142867682D01*
X180189222Y-142868325D01*
X180252722Y-142868469D01*
X180328959Y-142868249D01*
X180419250Y-142867799D01*
X180457753Y-142867595D01*
X180549651Y-142867095D01*
X180627009Y-142866607D01*
X180691161Y-142866073D01*
X180743441Y-142865438D01*
X180785183Y-142864644D01*
X180817722Y-142863636D01*
X180842391Y-142862356D01*
X180860526Y-142860748D01*
X180873460Y-142858756D01*
X180882527Y-142856323D01*
X180889063Y-142853392D01*
X180894401Y-142849907D01*
X180895574Y-142849040D01*
X180918883Y-142829668D01*
X180934684Y-142810188D01*
X180944541Y-142786754D01*
X180950014Y-142755520D01*
X180952666Y-142712643D01*
X180952819Y-142708084D01*
X180953707Y-142670545D01*
X180953094Y-142644884D01*
X180950396Y-142627128D01*
X180945030Y-142613307D01*
X180936944Y-142600229D01*
X180918784Y-142577830D01*
X180898587Y-142558525D01*
X180896058Y-142556573D01*
X180890845Y-142552952D01*
X180884914Y-142549900D01*
X180876948Y-142547369D01*
X180865632Y-142545308D01*
X180849651Y-142543670D01*
X180827689Y-142542407D01*
X180798430Y-142541470D01*
X180760559Y-142540810D01*
X180712761Y-142540378D01*
X180653720Y-142540127D01*
X180582120Y-142540007D01*
X180496646Y-142539971D01*
X180446187Y-142539968D01*
X180352945Y-142539982D01*
X180274264Y-142540056D01*
X180208829Y-142540238D01*
X180155326Y-142540575D01*
X180112442Y-142541115D01*
X180078861Y-142541907D01*
X180066339Y-142542440D01*
X180066339Y-142647125D01*
X180446763Y-142647125D01*
X180534331Y-142647143D01*
X180607404Y-142647237D01*
X180667362Y-142647461D01*
X180715585Y-142647870D01*
X180753452Y-142648520D01*
X180782344Y-142649466D01*
X180803641Y-142650763D01*
X180818723Y-142652467D01*
X180828969Y-142654632D01*
X180835760Y-142657314D01*
X180840475Y-142660569D01*
X180843062Y-142663000D01*
X180855011Y-142683023D01*
X180858937Y-142702687D01*
X180853555Y-142725994D01*
X180843062Y-142742375D01*
X180838954Y-142746028D01*
X180833661Y-142749073D01*
X180825802Y-142751566D01*
X180814000Y-142753561D01*
X180796872Y-142755114D01*
X180773040Y-142756281D01*
X180741123Y-142757115D01*
X180699741Y-142757673D01*
X180647515Y-142758011D01*
X180583065Y-142758182D01*
X180505010Y-142758243D01*
X180446763Y-142758250D01*
X180066339Y-142758250D01*
X180049888Y-142737335D01*
X180035930Y-142713109D01*
X180036312Y-142691070D01*
X180049888Y-142668039D01*
X180066339Y-142647125D01*
X180066339Y-142542440D01*
X180053270Y-142542998D01*
X180034355Y-142544436D01*
X180020800Y-142546269D01*
X180011292Y-142548545D01*
X180004517Y-142551311D01*
X179999161Y-142554616D01*
X179996806Y-142556334D01*
X179973933Y-142575103D01*
X179958430Y-142593526D01*
X179948908Y-142615303D01*
X179943980Y-142644129D01*
X179942258Y-142683702D01*
X179942156Y-142701937D01*
X179942380Y-142740126D01*
G36*
X180812868Y-135623736D02*
X180816886Y-135644474D01*
X180820837Y-135652600D01*
X180834066Y-135657785D01*
X180859422Y-135661126D01*
X180888306Y-135662125D01*
X180946250Y-135662125D01*
X180946250Y-135616087D01*
X180944693Y-135589388D01*
X180940676Y-135568650D01*
X180936725Y-135560525D01*
X180923495Y-135555339D01*
X180898139Y-135551998D01*
X180869256Y-135551000D01*
X180811312Y-135551000D01*
X180811312Y-135597037D01*
X180812868Y-135623736D01*
X180812868Y-135623736D01*
G37*
X180812868Y-135623736D02*
X180816886Y-135644474D01*
X180820837Y-135652600D01*
X180834066Y-135657785D01*
X180859422Y-135661126D01*
X180888306Y-135662125D01*
X180946250Y-135662125D01*
X180946250Y-135616087D01*
X180944693Y-135589388D01*
X180940676Y-135568650D01*
X180936725Y-135560525D01*
X180923495Y-135555339D01*
X180898139Y-135551998D01*
X180869256Y-135551000D01*
X180811312Y-135551000D01*
X180811312Y-135597037D01*
X180812868Y-135623736D01*
G36*
X180815281Y-136396343D02*
X180880765Y-136398649D01*
X180946250Y-136400954D01*
X180946250Y-136357544D01*
X180943295Y-136322662D01*
X180934455Y-136302372D01*
X180933776Y-136301660D01*
X180919885Y-136294081D01*
X180895447Y-136290112D01*
X180865945Y-136289187D01*
X180810587Y-136289187D01*
X180815281Y-136396343D01*
X180815281Y-136396343D01*
G37*
X180815281Y-136396343D02*
X180880765Y-136398649D01*
X180946250Y-136400954D01*
X180946250Y-136357544D01*
X180943295Y-136322662D01*
X180934455Y-136302372D01*
X180933776Y-136301660D01*
X180919885Y-136294081D01*
X180895447Y-136290112D01*
X180865945Y-136289187D01*
X180810587Y-136289187D01*
X180815281Y-136396343D01*
G36*
X179946169Y-137239703D02*
X179946851Y-137279631D01*
X179948668Y-137316433D01*
X179951329Y-137345634D01*
X179954029Y-137361102D01*
X179968287Y-137389945D01*
X179992418Y-137418213D01*
X180021206Y-137440400D01*
X180035938Y-137447575D01*
X180054349Y-137451226D01*
X180085416Y-137453885D01*
X180125952Y-137455583D01*
X180172769Y-137456347D01*
X180222682Y-137456207D01*
X180272503Y-137455190D01*
X180319046Y-137453325D01*
X180359123Y-137450641D01*
X180389548Y-137447167D01*
X180403395Y-137444280D01*
X180444750Y-137425850D01*
X180474414Y-137398058D01*
X180493024Y-137359911D01*
X180501221Y-137310416D01*
X180501750Y-137291349D01*
X180501750Y-137249625D01*
X180946250Y-137249625D01*
X180946250Y-137203322D01*
X180945406Y-137177478D01*
X180943224Y-137158484D01*
X180940958Y-137151729D01*
X180932295Y-137150797D01*
X180909122Y-137149918D01*
X180872805Y-137149105D01*
X180824709Y-137148374D01*
X180766199Y-137147738D01*
X180698640Y-137147212D01*
X180623397Y-137146811D01*
X180541837Y-137146548D01*
X180455323Y-137146439D01*
X180440895Y-137146437D01*
X180049312Y-137146437D01*
X180049312Y-137249625D01*
X180398562Y-137249625D01*
X180398562Y-137284767D01*
X180396464Y-137309910D01*
X180388313Y-137326395D01*
X180377648Y-137336361D01*
X180368822Y-137342424D01*
X180358419Y-137346789D01*
X180343839Y-137349732D01*
X180322482Y-137351528D01*
X180291745Y-137352453D01*
X180249029Y-137352784D01*
X180222506Y-137352812D01*
X180173399Y-137352737D01*
X180137607Y-137352297D01*
X180112567Y-137351167D01*
X180095719Y-137349022D01*
X180084503Y-137345538D01*
X180076356Y-137340389D01*
X180068795Y-137333329D01*
X180053886Y-137311473D01*
X180049318Y-137283091D01*
X180049312Y-137281735D01*
X180049312Y-137249625D01*
X180049312Y-137146437D01*
X179946125Y-137146437D01*
X179946169Y-137239703D01*
X179946169Y-137239703D01*
G37*
X179946169Y-137239703D02*
X179946851Y-137279631D01*
X179948668Y-137316433D01*
X179951329Y-137345634D01*
X179954029Y-137361102D01*
X179968287Y-137389945D01*
X179992418Y-137418213D01*
X180021206Y-137440400D01*
X180035938Y-137447575D01*
X180054349Y-137451226D01*
X180085416Y-137453885D01*
X180125952Y-137455583D01*
X180172769Y-137456347D01*
X180222682Y-137456207D01*
X180272503Y-137455190D01*
X180319046Y-137453325D01*
X180359123Y-137450641D01*
X180389548Y-137447167D01*
X180403395Y-137444280D01*
X180444750Y-137425850D01*
X180474414Y-137398058D01*
X180493024Y-137359911D01*
X180501221Y-137310416D01*
X180501750Y-137291349D01*
X180501750Y-137249625D01*
X180946250Y-137249625D01*
X180946250Y-137203322D01*
X180945406Y-137177478D01*
X180943224Y-137158484D01*
X180940958Y-137151729D01*
X180932295Y-137150797D01*
X180909122Y-137149918D01*
X180872805Y-137149105D01*
X180824709Y-137148374D01*
X180766199Y-137147738D01*
X180698640Y-137147212D01*
X180623397Y-137146811D01*
X180541837Y-137146548D01*
X180455323Y-137146439D01*
X180440895Y-137146437D01*
X180049312Y-137146437D01*
X180049312Y-137249625D01*
X180398562Y-137249625D01*
X180398562Y-137284767D01*
X180396464Y-137309910D01*
X180388313Y-137326395D01*
X180377648Y-137336361D01*
X180368822Y-137342424D01*
X180358419Y-137346789D01*
X180343839Y-137349732D01*
X180322482Y-137351528D01*
X180291745Y-137352453D01*
X180249029Y-137352784D01*
X180222506Y-137352812D01*
X180173399Y-137352737D01*
X180137607Y-137352297D01*
X180112567Y-137351167D01*
X180095719Y-137349022D01*
X180084503Y-137345538D01*
X180076356Y-137340389D01*
X180068795Y-137333329D01*
X180053886Y-137311473D01*
X180049318Y-137283091D01*
X180049312Y-137281735D01*
X180049312Y-137249625D01*
X180049312Y-137146437D01*
X179946125Y-137146437D01*
X179946169Y-137239703D01*
G36*
X179954237Y-137990453D02*
X179967132Y-138008900D01*
X179972350Y-138012055D01*
X179982228Y-138014210D01*
X180006131Y-138018479D01*
X180042388Y-138024602D01*
X180089327Y-138032318D01*
X180145276Y-138041367D01*
X180208565Y-138051489D01*
X180277521Y-138062424D01*
X180350474Y-138073911D01*
X180425751Y-138085691D01*
X180501682Y-138097502D01*
X180576595Y-138109085D01*
X180648817Y-138120179D01*
X180716679Y-138130524D01*
X180778509Y-138139860D01*
X180832634Y-138147926D01*
X180877384Y-138154463D01*
X180911087Y-138159210D01*
X180932072Y-138161907D01*
X180938148Y-138162437D01*
X180942760Y-138155335D01*
X180945555Y-138137147D01*
X180946605Y-138112549D01*
X180945981Y-138086217D01*
X180943754Y-138062827D01*
X180939996Y-138047055D01*
X180936328Y-138043039D01*
X180926518Y-138041961D01*
X180902701Y-138039028D01*
X180866607Y-138034460D01*
X180819968Y-138028482D01*
X180764514Y-138021314D01*
X180701977Y-138013180D01*
X180634087Y-138004301D01*
X180609773Y-138001109D01*
X180293140Y-137959516D01*
X180613742Y-137917929D01*
X180683334Y-137908924D01*
X180748015Y-137900598D01*
X180806093Y-137893166D01*
X180855875Y-137886841D01*
X180895668Y-137881839D01*
X180923782Y-137878374D01*
X180938523Y-137876661D01*
X180940296Y-137876514D01*
X180943141Y-137869312D01*
X180945246Y-137850103D01*
X180946223Y-137822751D01*
X180946250Y-137817156D01*
X180945952Y-137786851D01*
X180944396Y-137769117D01*
X180940580Y-137760651D01*
X180933507Y-137758153D01*
X180928390Y-137758110D01*
X180917524Y-137759365D01*
X180892375Y-137762812D01*
X180854354Y-137768245D01*
X180804871Y-137775456D01*
X180745336Y-137784235D01*
X180677160Y-137794376D01*
X180601751Y-137805670D01*
X180520521Y-137817910D01*
X180434880Y-137830886D01*
X180430312Y-137831580D01*
X179950093Y-137904565D01*
X179947461Y-137927598D01*
X179947288Y-137962022D01*
X179954237Y-137990453D01*
X179954237Y-137990453D01*
G37*
X179954237Y-137990453D02*
X179967132Y-138008900D01*
X179972350Y-138012055D01*
X179982228Y-138014210D01*
X180006131Y-138018479D01*
X180042388Y-138024602D01*
X180089327Y-138032318D01*
X180145276Y-138041367D01*
X180208565Y-138051489D01*
X180277521Y-138062424D01*
X180350474Y-138073911D01*
X180425751Y-138085691D01*
X180501682Y-138097502D01*
X180576595Y-138109085D01*
X180648817Y-138120179D01*
X180716679Y-138130524D01*
X180778509Y-138139860D01*
X180832634Y-138147926D01*
X180877384Y-138154463D01*
X180911087Y-138159210D01*
X180932072Y-138161907D01*
X180938148Y-138162437D01*
X180942760Y-138155335D01*
X180945555Y-138137147D01*
X180946605Y-138112549D01*
X180945981Y-138086217D01*
X180943754Y-138062827D01*
X180939996Y-138047055D01*
X180936328Y-138043039D01*
X180926518Y-138041961D01*
X180902701Y-138039028D01*
X180866607Y-138034460D01*
X180819968Y-138028482D01*
X180764514Y-138021314D01*
X180701977Y-138013180D01*
X180634087Y-138004301D01*
X180609773Y-138001109D01*
X180293140Y-137959516D01*
X180613742Y-137917929D01*
X180683334Y-137908924D01*
X180748015Y-137900598D01*
X180806093Y-137893166D01*
X180855875Y-137886841D01*
X180895668Y-137881839D01*
X180923782Y-137878374D01*
X180938523Y-137876661D01*
X180940296Y-137876514D01*
X180943141Y-137869312D01*
X180945246Y-137850103D01*
X180946223Y-137822751D01*
X180946250Y-137817156D01*
X180945952Y-137786851D01*
X180944396Y-137769117D01*
X180940580Y-137760651D01*
X180933507Y-137758153D01*
X180928390Y-137758110D01*
X180917524Y-137759365D01*
X180892375Y-137762812D01*
X180854354Y-137768245D01*
X180804871Y-137775456D01*
X180745336Y-137784235D01*
X180677160Y-137794376D01*
X180601751Y-137805670D01*
X180520521Y-137817910D01*
X180434880Y-137830886D01*
X180430312Y-137831580D01*
X179950093Y-137904565D01*
X179947461Y-137927598D01*
X179947288Y-137962022D01*
X179954237Y-137990453D01*
G36*
X179946076Y-138732067D02*
X179946674Y-138779197D01*
X179947718Y-138821265D01*
X179949207Y-138855759D01*
X179951141Y-138880167D01*
X179953521Y-138891976D01*
X179954326Y-138892687D01*
X179969971Y-138888412D01*
X179992628Y-138877671D01*
X180016919Y-138863589D01*
X180037467Y-138849290D01*
X180048893Y-138837900D01*
X180049027Y-138837657D01*
X180053384Y-138821789D01*
X180056365Y-138796151D01*
X180057250Y-138771765D01*
X180058708Y-138742751D01*
X180062563Y-138720806D01*
X180066775Y-138711712D01*
X180073027Y-138709513D01*
X180087659Y-138707646D01*
X180111599Y-138706090D01*
X180145775Y-138704827D01*
X180191113Y-138703835D01*
X180248541Y-138703095D01*
X180318986Y-138702587D01*
X180403376Y-138702291D01*
X180502639Y-138702188D01*
X180511275Y-138702187D01*
X180946250Y-138702187D01*
X180946250Y-138654841D01*
X180945277Y-138626775D01*
X180941584Y-138610288D01*
X180934003Y-138601160D01*
X180930896Y-138599279D01*
X180918917Y-138597233D01*
X180891318Y-138595470D01*
X180848355Y-138593997D01*
X180790281Y-138592817D01*
X180717349Y-138591935D01*
X180629815Y-138591356D01*
X180527930Y-138591084D01*
X180486396Y-138591062D01*
X180057250Y-138591062D01*
X180057250Y-138456125D01*
X180009904Y-138456125D01*
X179981838Y-138457097D01*
X179965350Y-138460790D01*
X179956222Y-138468371D01*
X179954341Y-138471478D01*
X179951827Y-138483692D01*
X179949756Y-138508431D01*
X179948131Y-138543182D01*
X179946950Y-138585434D01*
X179946213Y-138632674D01*
X179945922Y-138682389D01*
X179946076Y-138732067D01*
X179946076Y-138732067D01*
G37*
X179946076Y-138732067D02*
X179946674Y-138779197D01*
X179947718Y-138821265D01*
X179949207Y-138855759D01*
X179951141Y-138880167D01*
X179953521Y-138891976D01*
X179954326Y-138892687D01*
X179969971Y-138888412D01*
X179992628Y-138877671D01*
X180016919Y-138863589D01*
X180037467Y-138849290D01*
X180048893Y-138837900D01*
X180049027Y-138837657D01*
X180053384Y-138821789D01*
X180056365Y-138796151D01*
X180057250Y-138771765D01*
X180058708Y-138742751D01*
X180062563Y-138720806D01*
X180066775Y-138711712D01*
X180073027Y-138709513D01*
X180087659Y-138707646D01*
X180111599Y-138706090D01*
X180145775Y-138704827D01*
X180191113Y-138703835D01*
X180248541Y-138703095D01*
X180318986Y-138702587D01*
X180403376Y-138702291D01*
X180502639Y-138702188D01*
X180511275Y-138702187D01*
X180946250Y-138702187D01*
X180946250Y-138654841D01*
X180945277Y-138626775D01*
X180941584Y-138610288D01*
X180934003Y-138601160D01*
X180930896Y-138599279D01*
X180918917Y-138597233D01*
X180891318Y-138595470D01*
X180848355Y-138593997D01*
X180790281Y-138592817D01*
X180717349Y-138591935D01*
X180629815Y-138591356D01*
X180527930Y-138591084D01*
X180486396Y-138591062D01*
X180057250Y-138591062D01*
X180057250Y-138456125D01*
X180009904Y-138456125D01*
X179981838Y-138457097D01*
X179965350Y-138460790D01*
X179956222Y-138468371D01*
X179954341Y-138471478D01*
X179951827Y-138483692D01*
X179949756Y-138508431D01*
X179948131Y-138543182D01*
X179946950Y-138585434D01*
X179946213Y-138632674D01*
X179945922Y-138682389D01*
X179946076Y-138732067D01*
G36*
X179946589Y-139501030D02*
X179947962Y-139543044D01*
X179950212Y-139570419D01*
X179953307Y-139582624D01*
X179954326Y-139583250D01*
X179967664Y-139579404D01*
X179988956Y-139569764D01*
X180012838Y-139557173D01*
X180033945Y-139544473D01*
X180046911Y-139534509D01*
X180047463Y-139533883D01*
X180052040Y-139521121D01*
X180055981Y-139497171D01*
X180058565Y-139466722D01*
X180058871Y-139459842D01*
X180061218Y-139396718D01*
X180214015Y-139394562D01*
X180366812Y-139392407D01*
X180366812Y-139468519D01*
X180366999Y-139505635D01*
X180369059Y-139528625D01*
X180375243Y-139539230D01*
X180387801Y-139539197D01*
X180408984Y-139530267D01*
X180431758Y-139518844D01*
X180453226Y-139506645D01*
X180466083Y-139493805D01*
X180473142Y-139475538D01*
X180477212Y-139447060D01*
X180477853Y-139440375D01*
X180481906Y-139396718D01*
X180658290Y-139394583D01*
X180834675Y-139392447D01*
X180836884Y-139499753D01*
X180839093Y-139607058D01*
X180887507Y-139584150D01*
X180912960Y-139570552D01*
X180932314Y-139557328D01*
X180941085Y-139547784D01*
X180942853Y-139535508D01*
X180944360Y-139510413D01*
X180945494Y-139475553D01*
X180946141Y-139433983D01*
X180946250Y-139407975D01*
X180946250Y-139281625D01*
X180458660Y-139281625D01*
X180357569Y-139281659D01*
X180271182Y-139281782D01*
X180198327Y-139282023D01*
X180137835Y-139282410D01*
X180088533Y-139282974D01*
X180049251Y-139283742D01*
X180018818Y-139284746D01*
X179996062Y-139286013D01*
X179979814Y-139287573D01*
X179968901Y-139289455D01*
X179962153Y-139291689D01*
X179958598Y-139294098D01*
X179953955Y-139301131D01*
X179950589Y-139313059D01*
X179948312Y-139332154D01*
X179946934Y-139360688D01*
X179946270Y-139400933D01*
X179946124Y-139444910D01*
X179946589Y-139501030D01*
X179946589Y-139501030D01*
G37*
X179946589Y-139501030D02*
X179947962Y-139543044D01*
X179950212Y-139570419D01*
X179953307Y-139582624D01*
X179954326Y-139583250D01*
X179967664Y-139579404D01*
X179988956Y-139569764D01*
X180012838Y-139557173D01*
X180033945Y-139544473D01*
X180046911Y-139534509D01*
X180047463Y-139533883D01*
X180052040Y-139521121D01*
X180055981Y-139497171D01*
X180058565Y-139466722D01*
X180058871Y-139459842D01*
X180061218Y-139396718D01*
X180214015Y-139394562D01*
X180366812Y-139392407D01*
X180366812Y-139468519D01*
X180366999Y-139505635D01*
X180369059Y-139528625D01*
X180375243Y-139539230D01*
X180387801Y-139539197D01*
X180408984Y-139530267D01*
X180431758Y-139518844D01*
X180453226Y-139506645D01*
X180466083Y-139493805D01*
X180473142Y-139475538D01*
X180477212Y-139447060D01*
X180477853Y-139440375D01*
X180481906Y-139396718D01*
X180658290Y-139394583D01*
X180834675Y-139392447D01*
X180836884Y-139499753D01*
X180839093Y-139607058D01*
X180887507Y-139584150D01*
X180912960Y-139570552D01*
X180932314Y-139557328D01*
X180941085Y-139547784D01*
X180942853Y-139535508D01*
X180944360Y-139510413D01*
X180945494Y-139475553D01*
X180946141Y-139433983D01*
X180946250Y-139407975D01*
X180946250Y-139281625D01*
X180458660Y-139281625D01*
X180357569Y-139281659D01*
X180271182Y-139281782D01*
X180198327Y-139282023D01*
X180137835Y-139282410D01*
X180088533Y-139282974D01*
X180049251Y-139283742D01*
X180018818Y-139284746D01*
X179996062Y-139286013D01*
X179979814Y-139287573D01*
X179968901Y-139289455D01*
X179962153Y-139291689D01*
X179958598Y-139294098D01*
X179953955Y-139301131D01*
X179950589Y-139313059D01*
X179948312Y-139332154D01*
X179946934Y-139360688D01*
X179946270Y-139400933D01*
X179946124Y-139444910D01*
X179946589Y-139501030D01*
G36*
X179949572Y-140009958D02*
X179959648Y-140040380D01*
X179973021Y-140055509D01*
X179984867Y-140059823D01*
X180010175Y-140066740D01*
X180046838Y-140075764D01*
X180092749Y-140086397D01*
X180145801Y-140098141D01*
X180203886Y-140110497D01*
X180219968Y-140113835D01*
X180450156Y-140161352D01*
X180198140Y-140162020D01*
X179946125Y-140162687D01*
X179946125Y-140273812D01*
X180948215Y-140273812D01*
X180944562Y-140229753D01*
X180940465Y-140203018D01*
X180933877Y-140181768D01*
X180929049Y-140173834D01*
X180918358Y-140169030D01*
X180893923Y-140161376D01*
X180857522Y-140151339D01*
X180810934Y-140139387D01*
X180755941Y-140125987D01*
X180694320Y-140111605D01*
X180675735Y-140107378D01*
X180434281Y-140052780D01*
X180690265Y-140052171D01*
X180946250Y-140051562D01*
X180946250Y-139940437D01*
X179946125Y-139940437D01*
X179946124Y-139967226D01*
X179949572Y-140009958D01*
X179949572Y-140009958D01*
G37*
X179949572Y-140009958D02*
X179959648Y-140040380D01*
X179973021Y-140055509D01*
X179984867Y-140059823D01*
X180010175Y-140066740D01*
X180046838Y-140075764D01*
X180092749Y-140086397D01*
X180145801Y-140098141D01*
X180203886Y-140110497D01*
X180219968Y-140113835D01*
X180450156Y-140161352D01*
X180198140Y-140162020D01*
X179946125Y-140162687D01*
X179946125Y-140273812D01*
X180948215Y-140273812D01*
X180944562Y-140229753D01*
X180940465Y-140203018D01*
X180933877Y-140181768D01*
X180929049Y-140173834D01*
X180918358Y-140169030D01*
X180893923Y-140161376D01*
X180857522Y-140151339D01*
X180810934Y-140139387D01*
X180755941Y-140125987D01*
X180694320Y-140111605D01*
X180675735Y-140107378D01*
X180434281Y-140052780D01*
X180690265Y-140052171D01*
X180946250Y-140051562D01*
X180946250Y-139940437D01*
X179946125Y-139940437D01*
X179946124Y-139967226D01*
X179949572Y-140009958D01*
G36*
X179946437Y-140884747D02*
X179947371Y-140941886D01*
X179948923Y-140983508D01*
X179951088Y-141009504D01*
X179953862Y-141019762D01*
X179954326Y-141019937D01*
X179967786Y-141016083D01*
X179989057Y-141006442D01*
X180012756Y-140993895D01*
X180033497Y-140981322D01*
X180045898Y-140971604D01*
X180046766Y-140970479D01*
X180050312Y-140958166D01*
X180053857Y-140934579D01*
X180056748Y-140904307D01*
X180057250Y-140896906D01*
X180061218Y-140833406D01*
X180946250Y-140829304D01*
X180946250Y-140783333D01*
X180944691Y-140756652D01*
X180940669Y-140735932D01*
X180936725Y-140727837D01*
X180930472Y-140725638D01*
X180915840Y-140723771D01*
X180891900Y-140722215D01*
X180857724Y-140720952D01*
X180812386Y-140719960D01*
X180754958Y-140719220D01*
X180684513Y-140718712D01*
X180600123Y-140718416D01*
X180500860Y-140718313D01*
X180492225Y-140718312D01*
X180057250Y-140718312D01*
X180057250Y-140575437D01*
X180014823Y-140575437D01*
X179995254Y-140575557D01*
X179979805Y-140577034D01*
X179967988Y-140581545D01*
X179959317Y-140590768D01*
X179953306Y-140606379D01*
X179949469Y-140630057D01*
X179947317Y-140663476D01*
X179946366Y-140708316D01*
X179946127Y-140766253D01*
X179946124Y-140812203D01*
X179946437Y-140884747D01*
X179946437Y-140884747D01*
G37*
X179946437Y-140884747D02*
X179947371Y-140941886D01*
X179948923Y-140983508D01*
X179951088Y-141009504D01*
X179953862Y-141019762D01*
X179954326Y-141019937D01*
X179967786Y-141016083D01*
X179989057Y-141006442D01*
X180012756Y-140993895D01*
X180033497Y-140981322D01*
X180045898Y-140971604D01*
X180046766Y-140970479D01*
X180050312Y-140958166D01*
X180053857Y-140934579D01*
X180056748Y-140904307D01*
X180057250Y-140896906D01*
X180061218Y-140833406D01*
X180946250Y-140829304D01*
X180946250Y-140783333D01*
X180944691Y-140756652D01*
X180940669Y-140735932D01*
X180936725Y-140727837D01*
X180930472Y-140725638D01*
X180915840Y-140723771D01*
X180891900Y-140722215D01*
X180857724Y-140720952D01*
X180812386Y-140719960D01*
X180754958Y-140719220D01*
X180684513Y-140718712D01*
X180600123Y-140718416D01*
X180500860Y-140718313D01*
X180492225Y-140718312D01*
X180057250Y-140718312D01*
X180057250Y-140575437D01*
X180014823Y-140575437D01*
X179995254Y-140575557D01*
X179979805Y-140577034D01*
X179967988Y-140581545D01*
X179959317Y-140590768D01*
X179953306Y-140606379D01*
X179949469Y-140630057D01*
X179947317Y-140663476D01*
X179946366Y-140708316D01*
X179946127Y-140766253D01*
X179946124Y-140812203D01*
X179946437Y-140884747D01*
G36*
X179949108Y-141922140D02*
X179956385Y-141949764D01*
X179957335Y-141952152D01*
X179960142Y-141959360D01*
X179962893Y-141965342D01*
X179967060Y-141970521D01*
X179974115Y-141975318D01*
X179985530Y-141980153D01*
X180002779Y-141985450D01*
X180027333Y-141991629D01*
X180060665Y-141999112D01*
X180104247Y-142008320D01*
X180159552Y-142019675D01*
X180228051Y-142033599D01*
X180275531Y-142043246D01*
X180466031Y-142081991D01*
X180206078Y-142082777D01*
X179946125Y-142083562D01*
X179946125Y-142194687D01*
X180946250Y-142194687D01*
X180946250Y-142156766D01*
X180941586Y-142119731D01*
X180926902Y-142094112D01*
X180901162Y-142078235D01*
X180896616Y-142076694D01*
X180882116Y-142072864D01*
X180854437Y-142066205D01*
X180815916Y-142057256D01*
X180768889Y-142046552D01*
X180715691Y-142034630D01*
X180660848Y-142022508D01*
X180450853Y-141976406D01*
X180698551Y-141974308D01*
X180946250Y-141972211D01*
X180946250Y-141861312D01*
X179946125Y-141861312D01*
X179946124Y-141893317D01*
X179949108Y-141922140D01*
X179949108Y-141922140D01*
G37*
X179949108Y-141922140D02*
X179956385Y-141949764D01*
X179957335Y-141952152D01*
X179960142Y-141959360D01*
X179962893Y-141965342D01*
X179967060Y-141970521D01*
X179974115Y-141975318D01*
X179985530Y-141980153D01*
X180002779Y-141985450D01*
X180027333Y-141991629D01*
X180060665Y-141999112D01*
X180104247Y-142008320D01*
X180159552Y-142019675D01*
X180228051Y-142033599D01*
X180275531Y-142043246D01*
X180466031Y-142081991D01*
X180206078Y-142082777D01*
X179946125Y-142083562D01*
X179946125Y-142194687D01*
X180946250Y-142194687D01*
X180946250Y-142156766D01*
X180941586Y-142119731D01*
X180926902Y-142094112D01*
X180901162Y-142078235D01*
X180896616Y-142076694D01*
X180882116Y-142072864D01*
X180854437Y-142066205D01*
X180815916Y-142057256D01*
X180768889Y-142046552D01*
X180715691Y-142034630D01*
X180660848Y-142022508D01*
X180450853Y-141976406D01*
X180698551Y-141974308D01*
X180946250Y-141972211D01*
X180946250Y-141861312D01*
X179946125Y-141861312D01*
X179946124Y-141893317D01*
X179949108Y-141922140D01*
G36*
X180811892Y-143074432D02*
X180815557Y-143091945D01*
X180825192Y-143101835D01*
X180843683Y-143106280D01*
X180873916Y-143107456D01*
X180891336Y-143107500D01*
X180946250Y-143107500D01*
X180946250Y-143061462D01*
X180944693Y-143034763D01*
X180940676Y-143014025D01*
X180936725Y-143005900D01*
X180923495Y-143000714D01*
X180898139Y-142997373D01*
X180869256Y-142996375D01*
X180811312Y-142996375D01*
X180811312Y-143047119D01*
X180811892Y-143074432D01*
X180811892Y-143074432D01*
G37*
X180811892Y-143074432D02*
X180815557Y-143091945D01*
X180825192Y-143101835D01*
X180843683Y-143106280D01*
X180873916Y-143107456D01*
X180891336Y-143107500D01*
X180946250Y-143107500D01*
X180946250Y-143061462D01*
X180944693Y-143034763D01*
X180940676Y-143014025D01*
X180936725Y-143005900D01*
X180923495Y-143000714D01*
X180898139Y-142997373D01*
X180869256Y-142996375D01*
X180811312Y-142996375D01*
X180811312Y-143047119D01*
X180811892Y-143074432D01*
G36*
X179932373Y-145587229D02*
X179939501Y-145622738D01*
X179952999Y-145649312D01*
X179974205Y-145670201D01*
X179987724Y-145679292D01*
X179997037Y-145684331D01*
X180007754Y-145688171D01*
X180022042Y-145690973D01*
X180042070Y-145692899D01*
X180070008Y-145694110D01*
X180108022Y-145694766D01*
X180158282Y-145695029D01*
X180200125Y-145695065D01*
X180260256Y-145694956D01*
X180306647Y-145694529D01*
X180341429Y-145693638D01*
X180366735Y-145692136D01*
X180384699Y-145689875D01*
X180397453Y-145686710D01*
X180407130Y-145682492D01*
X180410468Y-145680568D01*
X180427430Y-145671393D01*
X180439626Y-145670884D01*
X180455591Y-145679039D01*
X180458093Y-145680556D01*
X180467145Y-145685203D01*
X180478467Y-145688748D01*
X180494186Y-145691337D01*
X180516429Y-145693117D01*
X180547323Y-145694233D01*
X180588994Y-145694833D01*
X180643568Y-145695062D01*
X180669248Y-145695083D01*
X180728665Y-145695039D01*
X180774374Y-145694759D01*
X180808539Y-145694060D01*
X180833328Y-145692763D01*
X180850906Y-145690687D01*
X180863439Y-145687650D01*
X180873093Y-145683473D01*
X180882035Y-145677974D01*
X180883131Y-145677238D01*
X180913046Y-145650305D01*
X180932135Y-145615893D01*
X180941722Y-145571267D01*
X180943038Y-145553592D01*
X180943077Y-145520755D01*
X180940616Y-145489562D01*
X180937158Y-145470819D01*
X180919622Y-145435990D01*
X180890483Y-145408001D01*
X180853072Y-145388307D01*
X180810720Y-145378365D01*
X180766758Y-145379629D01*
X180742594Y-145385803D01*
X180724729Y-145396657D01*
X180708415Y-145417752D01*
X180697753Y-145437573D01*
X180686493Y-145461105D01*
X180678748Y-145478386D01*
X180676375Y-145484957D01*
X180683704Y-145486671D01*
X180703263Y-145487982D01*
X180731406Y-145488684D01*
X180743843Y-145488750D01*
X180787410Y-145490917D01*
X180817276Y-145497968D01*
X180835091Y-145510727D01*
X180842500Y-145530021D01*
X180842940Y-145538359D01*
X180841102Y-145555792D01*
X180834625Y-145569054D01*
X180821668Y-145578690D01*
X180800387Y-145585250D01*
X180768940Y-145589278D01*
X180725485Y-145591324D01*
X180668178Y-145591934D01*
X180662538Y-145591937D01*
X180609932Y-145591751D01*
X180570754Y-145590749D01*
X180542562Y-145588264D01*
X180522910Y-145583630D01*
X180509354Y-145576181D01*
X180499448Y-145565251D01*
X180490749Y-145550173D01*
X180487796Y-145544312D01*
X180478732Y-145528363D01*
X180468505Y-145519755D01*
X180451939Y-145515822D01*
X180429280Y-145514179D01*
X180384592Y-145511827D01*
X180379354Y-145539747D01*
X180374949Y-145557341D01*
X180367831Y-145570490D01*
X180355873Y-145579832D01*
X180336948Y-145586007D01*
X180308929Y-145589655D01*
X180269690Y-145591416D01*
X180217102Y-145591928D01*
X180205774Y-145591937D01*
X180147231Y-145591423D01*
X180102697Y-145589516D01*
X180070329Y-145585667D01*
X180048282Y-145579329D01*
X180034714Y-145569952D01*
X180027782Y-145556989D01*
X180025640Y-145539892D01*
X180025621Y-145538359D01*
X180029817Y-145516616D01*
X180043848Y-145501691D01*
X180069362Y-145492760D01*
X180108007Y-145488998D01*
X180124718Y-145488750D01*
X180155209Y-145488294D01*
X180178527Y-145487078D01*
X180191030Y-145485328D01*
X180192187Y-145484554D01*
X180188872Y-145475841D01*
X180180204Y-145457158D01*
X180168781Y-145433993D01*
X180153057Y-145406110D01*
X180137429Y-145389305D01*
X180117209Y-145380831D01*
X180087712Y-145377940D01*
X180072822Y-145377733D01*
X180031953Y-145383921D01*
X179992501Y-145400848D01*
X179960067Y-145425703D01*
X179948173Y-145440314D01*
X179939314Y-145455934D01*
X179933915Y-145473079D01*
X179931177Y-145496177D01*
X179930301Y-145529654D01*
X179930279Y-145539533D01*
X179932373Y-145587229D01*
X179932373Y-145587229D01*
G37*
X179932373Y-145587229D02*
X179939501Y-145622738D01*
X179952999Y-145649312D01*
X179974205Y-145670201D01*
X179987724Y-145679292D01*
X179997037Y-145684331D01*
X180007754Y-145688171D01*
X180022042Y-145690973D01*
X180042070Y-145692899D01*
X180070008Y-145694110D01*
X180108022Y-145694766D01*
X180158282Y-145695029D01*
X180200125Y-145695065D01*
X180260256Y-145694956D01*
X180306647Y-145694529D01*
X180341429Y-145693638D01*
X180366735Y-145692136D01*
X180384699Y-145689875D01*
X180397453Y-145686710D01*
X180407130Y-145682492D01*
X180410468Y-145680568D01*
X180427430Y-145671393D01*
X180439626Y-145670884D01*
X180455591Y-145679039D01*
X180458093Y-145680556D01*
X180467145Y-145685203D01*
X180478467Y-145688748D01*
X180494186Y-145691337D01*
X180516429Y-145693117D01*
X180547323Y-145694233D01*
X180588994Y-145694833D01*
X180643568Y-145695062D01*
X180669248Y-145695083D01*
X180728665Y-145695039D01*
X180774374Y-145694759D01*
X180808539Y-145694060D01*
X180833328Y-145692763D01*
X180850906Y-145690687D01*
X180863439Y-145687650D01*
X180873093Y-145683473D01*
X180882035Y-145677974D01*
X180883131Y-145677238D01*
X180913046Y-145650305D01*
X180932135Y-145615893D01*
X180941722Y-145571267D01*
X180943038Y-145553592D01*
X180943077Y-145520755D01*
X180940616Y-145489562D01*
X180937158Y-145470819D01*
X180919622Y-145435990D01*
X180890483Y-145408001D01*
X180853072Y-145388307D01*
X180810720Y-145378365D01*
X180766758Y-145379629D01*
X180742594Y-145385803D01*
X180724729Y-145396657D01*
X180708415Y-145417752D01*
X180697753Y-145437573D01*
X180686493Y-145461105D01*
X180678748Y-145478386D01*
X180676375Y-145484957D01*
X180683704Y-145486671D01*
X180703263Y-145487982D01*
X180731406Y-145488684D01*
X180743843Y-145488750D01*
X180787410Y-145490917D01*
X180817276Y-145497968D01*
X180835091Y-145510727D01*
X180842500Y-145530021D01*
X180842940Y-145538359D01*
X180841102Y-145555792D01*
X180834625Y-145569054D01*
X180821668Y-145578690D01*
X180800387Y-145585250D01*
X180768940Y-145589278D01*
X180725485Y-145591324D01*
X180668178Y-145591934D01*
X180662538Y-145591937D01*
X180609932Y-145591751D01*
X180570754Y-145590749D01*
X180542562Y-145588264D01*
X180522910Y-145583630D01*
X180509354Y-145576181D01*
X180499448Y-145565251D01*
X180490749Y-145550173D01*
X180487796Y-145544312D01*
X180478732Y-145528363D01*
X180468505Y-145519755D01*
X180451939Y-145515822D01*
X180429280Y-145514179D01*
X180384592Y-145511827D01*
X180379354Y-145539747D01*
X180374949Y-145557341D01*
X180367831Y-145570490D01*
X180355873Y-145579832D01*
X180336948Y-145586007D01*
X180308929Y-145589655D01*
X180269690Y-145591416D01*
X180217102Y-145591928D01*
X180205774Y-145591937D01*
X180147231Y-145591423D01*
X180102697Y-145589516D01*
X180070329Y-145585667D01*
X180048282Y-145579329D01*
X180034714Y-145569952D01*
X180027782Y-145556989D01*
X180025640Y-145539892D01*
X180025621Y-145538359D01*
X180029817Y-145516616D01*
X180043848Y-145501691D01*
X180069362Y-145492760D01*
X180108007Y-145488998D01*
X180124718Y-145488750D01*
X180155209Y-145488294D01*
X180178527Y-145487078D01*
X180191030Y-145485328D01*
X180192187Y-145484554D01*
X180188872Y-145475841D01*
X180180204Y-145457158D01*
X180168781Y-145433993D01*
X180153057Y-145406110D01*
X180137429Y-145389305D01*
X180117209Y-145380831D01*
X180087712Y-145377940D01*
X180072822Y-145377733D01*
X180031953Y-145383921D01*
X179992501Y-145400848D01*
X179960067Y-145425703D01*
X179948173Y-145440314D01*
X179939314Y-145455934D01*
X179933915Y-145473079D01*
X179931177Y-145496177D01*
X179930301Y-145529654D01*
X179930279Y-145539533D01*
X179932373Y-145587229D01*
G36*
X179932390Y-147235637D02*
X179939702Y-147271928D01*
X179953525Y-147298789D01*
X179975196Y-147319207D01*
X179994631Y-147330699D01*
X180001963Y-147334187D01*
X180010032Y-147337110D01*
X180020198Y-147339512D01*
X180033818Y-147341432D01*
X180052252Y-147342912D01*
X180076858Y-147343993D01*
X180108994Y-147344717D01*
X180150018Y-147345125D01*
X180201290Y-147345257D01*
X180264167Y-147345156D01*
X180340008Y-147344862D01*
X180430171Y-147344417D01*
X180444285Y-147344343D01*
X180862906Y-147342156D01*
X180888822Y-147323671D01*
X180909459Y-147305029D01*
X180925684Y-147283863D01*
X180927037Y-147281403D01*
X180934758Y-147257780D01*
X180940289Y-147224401D01*
X180943147Y-147187293D01*
X180942848Y-147152482D01*
X180939372Y-147127677D01*
X180921730Y-147087126D01*
X180892236Y-147056964D01*
X180871648Y-147044889D01*
X180863629Y-147041244D01*
X180854991Y-147038187D01*
X180844338Y-147035668D01*
X180830276Y-147033635D01*
X180811409Y-147032036D01*
X180786341Y-147030818D01*
X180753676Y-147029931D01*
X180712020Y-147029321D01*
X180659975Y-147028937D01*
X180596148Y-147028728D01*
X180519142Y-147028641D01*
X180437406Y-147028626D01*
X180437406Y-147139750D01*
X180525202Y-147139791D01*
X180598486Y-147139948D01*
X180658619Y-147140265D01*
X180706964Y-147140787D01*
X180744882Y-147141562D01*
X180773737Y-147142634D01*
X180794891Y-147144049D01*
X180809705Y-147145853D01*
X180819542Y-147148092D01*
X180825764Y-147150811D01*
X180828546Y-147152886D01*
X180840840Y-147173598D01*
X180841213Y-147198441D01*
X180829926Y-147220484D01*
X180826160Y-147223828D01*
X180820542Y-147226617D01*
X180811706Y-147228901D01*
X180798287Y-147230729D01*
X180778922Y-147232152D01*
X180752246Y-147233220D01*
X180716894Y-147233984D01*
X180671502Y-147234493D01*
X180614705Y-147234798D01*
X180545138Y-147234950D01*
X180461438Y-147234998D01*
X180435660Y-147235000D01*
X180344532Y-147234995D01*
X180268005Y-147234882D01*
X180204805Y-147234509D01*
X180153658Y-147233727D01*
X180113289Y-147232385D01*
X180082425Y-147230332D01*
X180059791Y-147227419D01*
X180044114Y-147223495D01*
X180034119Y-147218409D01*
X180028533Y-147212011D01*
X180026081Y-147204151D01*
X180025489Y-147194679D01*
X180025500Y-147186594D01*
X180025667Y-147176209D01*
X180027016Y-147167485D01*
X180030821Y-147160277D01*
X180038353Y-147154440D01*
X180050884Y-147149830D01*
X180069686Y-147146302D01*
X180096033Y-147143711D01*
X180131195Y-147141913D01*
X180176446Y-147140763D01*
X180233057Y-147140115D01*
X180302302Y-147139827D01*
X180385451Y-147139752D01*
X180437406Y-147139750D01*
X180437406Y-147028626D01*
X180434281Y-147028625D01*
X180343653Y-147028647D01*
X180267509Y-147028749D01*
X180204457Y-147028980D01*
X180153107Y-147029391D01*
X180112067Y-147030032D01*
X180079947Y-147030953D01*
X180055354Y-147032205D01*
X180036898Y-147033837D01*
X180023188Y-147035901D01*
X180012833Y-147038445D01*
X180004440Y-147041521D01*
X179998240Y-147044382D01*
X179969092Y-147062048D01*
X179949206Y-147083640D01*
X179937109Y-147112245D01*
X179931328Y-147150950D01*
X179930250Y-147186929D01*
X179932390Y-147235637D01*
X179932390Y-147235637D01*
G37*
X179932390Y-147235637D02*
X179939702Y-147271928D01*
X179953525Y-147298789D01*
X179975196Y-147319207D01*
X179994631Y-147330699D01*
X180001963Y-147334187D01*
X180010032Y-147337110D01*
X180020198Y-147339512D01*
X180033818Y-147341432D01*
X180052252Y-147342912D01*
X180076858Y-147343993D01*
X180108994Y-147344717D01*
X180150018Y-147345125D01*
X180201290Y-147345257D01*
X180264167Y-147345156D01*
X180340008Y-147344862D01*
X180430171Y-147344417D01*
X180444285Y-147344343D01*
X180862906Y-147342156D01*
X180888822Y-147323671D01*
X180909459Y-147305029D01*
X180925684Y-147283863D01*
X180927037Y-147281403D01*
X180934758Y-147257780D01*
X180940289Y-147224401D01*
X180943147Y-147187293D01*
X180942848Y-147152482D01*
X180939372Y-147127677D01*
X180921730Y-147087126D01*
X180892236Y-147056964D01*
X180871648Y-147044889D01*
X180863629Y-147041244D01*
X180854991Y-147038187D01*
X180844338Y-147035668D01*
X180830276Y-147033635D01*
X180811409Y-147032036D01*
X180786341Y-147030818D01*
X180753676Y-147029931D01*
X180712020Y-147029321D01*
X180659975Y-147028937D01*
X180596148Y-147028728D01*
X180519142Y-147028641D01*
X180437406Y-147028626D01*
X180437406Y-147139750D01*
X180525202Y-147139791D01*
X180598486Y-147139948D01*
X180658619Y-147140265D01*
X180706964Y-147140787D01*
X180744882Y-147141562D01*
X180773737Y-147142634D01*
X180794891Y-147144049D01*
X180809705Y-147145853D01*
X180819542Y-147148092D01*
X180825764Y-147150811D01*
X180828546Y-147152886D01*
X180840840Y-147173598D01*
X180841213Y-147198441D01*
X180829926Y-147220484D01*
X180826160Y-147223828D01*
X180820542Y-147226617D01*
X180811706Y-147228901D01*
X180798287Y-147230729D01*
X180778922Y-147232152D01*
X180752246Y-147233220D01*
X180716894Y-147233984D01*
X180671502Y-147234493D01*
X180614705Y-147234798D01*
X180545138Y-147234950D01*
X180461438Y-147234998D01*
X180435660Y-147235000D01*
X180344532Y-147234995D01*
X180268005Y-147234882D01*
X180204805Y-147234509D01*
X180153658Y-147233727D01*
X180113289Y-147232385D01*
X180082425Y-147230332D01*
X180059791Y-147227419D01*
X180044114Y-147223495D01*
X180034119Y-147218409D01*
X180028533Y-147212011D01*
X180026081Y-147204151D01*
X180025489Y-147194679D01*
X180025500Y-147186594D01*
X180025667Y-147176209D01*
X180027016Y-147167485D01*
X180030821Y-147160277D01*
X180038353Y-147154440D01*
X180050884Y-147149830D01*
X180069686Y-147146302D01*
X180096033Y-147143711D01*
X180131195Y-147141913D01*
X180176446Y-147140763D01*
X180233057Y-147140115D01*
X180302302Y-147139827D01*
X180385451Y-147139752D01*
X180437406Y-147139750D01*
X180437406Y-147028626D01*
X180434281Y-147028625D01*
X180343653Y-147028647D01*
X180267509Y-147028749D01*
X180204457Y-147028980D01*
X180153107Y-147029391D01*
X180112067Y-147030032D01*
X180079947Y-147030953D01*
X180055354Y-147032205D01*
X180036898Y-147033837D01*
X180023188Y-147035901D01*
X180012833Y-147038445D01*
X180004440Y-147041521D01*
X179998240Y-147044382D01*
X179969092Y-147062048D01*
X179949206Y-147083640D01*
X179937109Y-147112245D01*
X179931328Y-147150950D01*
X179930250Y-147186929D01*
X179932390Y-147235637D01*
G36*
X179932373Y-150405291D02*
X179939501Y-150440801D01*
X179952999Y-150467374D01*
X179974205Y-150488263D01*
X179987724Y-150497355D01*
X179993921Y-150500821D01*
X180001085Y-150503739D01*
X180010551Y-150506156D01*
X180023656Y-150508119D01*
X180041738Y-150509676D01*
X180066133Y-150510873D01*
X180098178Y-150511758D01*
X180139209Y-150512379D01*
X180190564Y-150512781D01*
X180253580Y-150513014D01*
X180329592Y-150513123D01*
X180419939Y-150513156D01*
X180435091Y-150513157D01*
X180856589Y-150513187D01*
X180883131Y-150495301D01*
X180905264Y-150476106D01*
X180923754Y-150453213D01*
X180925098Y-150451002D01*
X180936399Y-150421084D01*
X180942776Y-150382205D01*
X180943858Y-150340609D01*
X180939277Y-150302544D01*
X180934813Y-150286968D01*
X180912634Y-150248650D01*
X180879024Y-150219676D01*
X180836353Y-150201545D01*
X180790668Y-150195731D01*
X180754879Y-150199465D01*
X180728525Y-150212550D01*
X180707578Y-150237584D01*
X180697753Y-150255635D01*
X180686493Y-150279168D01*
X180678748Y-150296449D01*
X180676375Y-150303019D01*
X180683704Y-150304733D01*
X180703263Y-150306044D01*
X180731406Y-150306747D01*
X180743843Y-150306812D01*
X180787410Y-150308979D01*
X180817276Y-150316030D01*
X180835091Y-150328790D01*
X180842500Y-150348083D01*
X180842940Y-150356421D01*
X180841058Y-150373970D01*
X180834448Y-150387293D01*
X180821259Y-150396945D01*
X180799641Y-150403485D01*
X180767744Y-150407469D01*
X180723717Y-150409455D01*
X180665710Y-150409999D01*
X180664990Y-150410000D01*
X180533500Y-150410000D01*
X180533500Y-150354954D01*
X180531420Y-150310892D01*
X180524268Y-150277818D01*
X180510670Y-150251284D01*
X180496095Y-150233708D01*
X180482709Y-150222202D01*
X180465773Y-150213144D01*
X180443474Y-150206307D01*
X180413996Y-150201460D01*
X180375526Y-150198376D01*
X180326248Y-150196825D01*
X180264349Y-150196578D01*
X180230108Y-150196910D01*
X180230108Y-150306812D01*
X180292882Y-150306950D01*
X180341570Y-150307731D01*
X180377961Y-150309704D01*
X180403844Y-150313420D01*
X180421008Y-150319427D01*
X180431240Y-150328275D01*
X180436332Y-150340513D01*
X180438070Y-150356693D01*
X180438250Y-150370762D01*
X180438250Y-150410000D01*
X180255165Y-150410000D01*
X180191530Y-150409780D01*
X180141843Y-150408967D01*
X180104179Y-150407328D01*
X180076616Y-150404631D01*
X180057228Y-150400645D01*
X180044094Y-150395135D01*
X180035289Y-150387872D01*
X180031574Y-150383014D01*
X180025717Y-150361494D01*
X180031175Y-150337435D01*
X180041375Y-150322687D01*
X180047480Y-150317467D01*
X180055383Y-150313533D01*
X180067234Y-150310705D01*
X180085181Y-150308802D01*
X180111377Y-150307643D01*
X180147969Y-150307046D01*
X180197109Y-150306832D01*
X180230108Y-150306812D01*
X180230108Y-150196910D01*
X180206239Y-150197142D01*
X180146717Y-150198049D01*
X180100865Y-150199072D01*
X180066480Y-150200407D01*
X180041357Y-150202250D01*
X180023292Y-150204795D01*
X180010080Y-150208238D01*
X179999518Y-150212774D01*
X179993776Y-150215960D01*
X179965666Y-150236103D01*
X179946817Y-150259723D01*
X179935716Y-150290196D01*
X179930849Y-150330897D01*
X179930279Y-150357595D01*
X179932373Y-150405291D01*
X179932373Y-150405291D01*
G37*
X179932373Y-150405291D02*
X179939501Y-150440801D01*
X179952999Y-150467374D01*
X179974205Y-150488263D01*
X179987724Y-150497355D01*
X179993921Y-150500821D01*
X180001085Y-150503739D01*
X180010551Y-150506156D01*
X180023656Y-150508119D01*
X180041738Y-150509676D01*
X180066133Y-150510873D01*
X180098178Y-150511758D01*
X180139209Y-150512379D01*
X180190564Y-150512781D01*
X180253580Y-150513014D01*
X180329592Y-150513123D01*
X180419939Y-150513156D01*
X180435091Y-150513157D01*
X180856589Y-150513187D01*
X180883131Y-150495301D01*
X180905264Y-150476106D01*
X180923754Y-150453213D01*
X180925098Y-150451002D01*
X180936399Y-150421084D01*
X180942776Y-150382205D01*
X180943858Y-150340609D01*
X180939277Y-150302544D01*
X180934813Y-150286968D01*
X180912634Y-150248650D01*
X180879024Y-150219676D01*
X180836353Y-150201545D01*
X180790668Y-150195731D01*
X180754879Y-150199465D01*
X180728525Y-150212550D01*
X180707578Y-150237584D01*
X180697753Y-150255635D01*
X180686493Y-150279168D01*
X180678748Y-150296449D01*
X180676375Y-150303019D01*
X180683704Y-150304733D01*
X180703263Y-150306044D01*
X180731406Y-150306747D01*
X180743843Y-150306812D01*
X180787410Y-150308979D01*
X180817276Y-150316030D01*
X180835091Y-150328790D01*
X180842500Y-150348083D01*
X180842940Y-150356421D01*
X180841058Y-150373970D01*
X180834448Y-150387293D01*
X180821259Y-150396945D01*
X180799641Y-150403485D01*
X180767744Y-150407469D01*
X180723717Y-150409455D01*
X180665710Y-150409999D01*
X180664990Y-150410000D01*
X180533500Y-150410000D01*
X180533500Y-150354954D01*
X180531420Y-150310892D01*
X180524268Y-150277818D01*
X180510670Y-150251284D01*
X180496095Y-150233708D01*
X180482709Y-150222202D01*
X180465773Y-150213144D01*
X180443474Y-150206307D01*
X180413996Y-150201460D01*
X180375526Y-150198376D01*
X180326248Y-150196825D01*
X180264349Y-150196578D01*
X180230108Y-150196910D01*
X180230108Y-150306812D01*
X180292882Y-150306950D01*
X180341570Y-150307731D01*
X180377961Y-150309704D01*
X180403844Y-150313420D01*
X180421008Y-150319427D01*
X180431240Y-150328275D01*
X180436332Y-150340513D01*
X180438070Y-150356693D01*
X180438250Y-150370762D01*
X180438250Y-150410000D01*
X180255165Y-150410000D01*
X180191530Y-150409780D01*
X180141843Y-150408967D01*
X180104179Y-150407328D01*
X180076616Y-150404631D01*
X180057228Y-150400645D01*
X180044094Y-150395135D01*
X180035289Y-150387872D01*
X180031574Y-150383014D01*
X180025717Y-150361494D01*
X180031175Y-150337435D01*
X180041375Y-150322687D01*
X180047480Y-150317467D01*
X180055383Y-150313533D01*
X180067234Y-150310705D01*
X180085181Y-150308802D01*
X180111377Y-150307643D01*
X180147969Y-150307046D01*
X180197109Y-150306832D01*
X180230108Y-150306812D01*
X180230108Y-150196910D01*
X180206239Y-150197142D01*
X180146717Y-150198049D01*
X180100865Y-150199072D01*
X180066480Y-150200407D01*
X180041357Y-150202250D01*
X180023292Y-150204795D01*
X180010080Y-150208238D01*
X179999518Y-150212774D01*
X179993776Y-150215960D01*
X179965666Y-150236103D01*
X179946817Y-150259723D01*
X179935716Y-150290196D01*
X179930849Y-150330897D01*
X179930279Y-150357595D01*
X179932373Y-150405291D01*
G36*
X179938309Y-143974041D02*
X179938956Y-144007404D01*
X179940590Y-144035020D01*
X179942920Y-144052843D01*
X179944262Y-144056827D01*
X179948527Y-144062333D01*
X179954205Y-144067036D01*
X179962497Y-144070999D01*
X179974606Y-144074284D01*
X179991732Y-144076956D01*
X180015076Y-144079077D01*
X180045841Y-144080711D01*
X180085228Y-144081920D01*
X180134438Y-144082768D01*
X180194672Y-144083319D01*
X180267132Y-144083634D01*
X180353020Y-144083777D01*
X180453537Y-144083812D01*
X180930375Y-144083812D01*
X180930375Y-144037775D01*
X180928818Y-144011076D01*
X180924801Y-143990337D01*
X180920850Y-143982212D01*
X180914578Y-143980002D01*
X180899909Y-143978128D01*
X180875912Y-143976568D01*
X180841655Y-143975302D01*
X180796207Y-143974311D01*
X180738638Y-143973574D01*
X180668015Y-143973071D01*
X180583408Y-143972782D01*
X180483885Y-143972687D01*
X180050178Y-143972687D01*
X180039751Y-143950931D01*
X180022701Y-143929267D01*
X179994203Y-143913778D01*
X179963984Y-143905402D01*
X179938187Y-143899988D01*
X179938309Y-143974041D01*
X179938309Y-143974041D01*
G37*
X179938309Y-143974041D02*
X179938956Y-144007404D01*
X179940590Y-144035020D01*
X179942920Y-144052843D01*
X179944262Y-144056827D01*
X179948527Y-144062333D01*
X179954205Y-144067036D01*
X179962497Y-144070999D01*
X179974606Y-144074284D01*
X179991732Y-144076956D01*
X180015076Y-144079077D01*
X180045841Y-144080711D01*
X180085228Y-144081920D01*
X180134438Y-144082768D01*
X180194672Y-144083319D01*
X180267132Y-144083634D01*
X180353020Y-144083777D01*
X180453537Y-144083812D01*
X180930375Y-144083812D01*
X180930375Y-144037775D01*
X180928818Y-144011076D01*
X180924801Y-143990337D01*
X180920850Y-143982212D01*
X180914578Y-143980002D01*
X180899909Y-143978128D01*
X180875912Y-143976568D01*
X180841655Y-143975302D01*
X180796207Y-143974311D01*
X180738638Y-143973574D01*
X180668015Y-143973071D01*
X180583408Y-143972782D01*
X180483885Y-143972687D01*
X180050178Y-143972687D01*
X180039751Y-143950931D01*
X180022701Y-143929267D01*
X179994203Y-143913778D01*
X179963984Y-143905402D01*
X179938187Y-143899988D01*
X179938309Y-143974041D01*
G36*
X179938309Y-146312786D02*
X179938934Y-146346770D01*
X179940514Y-146375036D01*
X179942774Y-146393631D01*
X179944262Y-146398389D01*
X179948527Y-146403896D01*
X179954205Y-146408598D01*
X179962497Y-146412561D01*
X179974606Y-146415847D01*
X179991732Y-146418519D01*
X180015076Y-146420640D01*
X180045841Y-146422274D01*
X180085228Y-146423483D01*
X180134438Y-146424331D01*
X180194672Y-146424881D01*
X180267132Y-146425196D01*
X180353020Y-146425340D01*
X180453537Y-146425374D01*
X180457571Y-146425375D01*
X180930375Y-146425375D01*
X180930375Y-146379337D01*
X180928818Y-146352638D01*
X180924801Y-146331900D01*
X180920850Y-146323775D01*
X180914582Y-146321567D01*
X180899920Y-146319694D01*
X180875933Y-146318135D01*
X180841692Y-146316869D01*
X180796266Y-146315878D01*
X180738724Y-146315141D01*
X180668136Y-146314637D01*
X180583570Y-146314346D01*
X180484098Y-146314250D01*
X180048486Y-146314250D01*
X180040369Y-146290966D01*
X180032709Y-146276466D01*
X180019011Y-146265540D01*
X179995147Y-146255254D01*
X179985220Y-146251799D01*
X179938187Y-146235915D01*
X179938309Y-146312786D01*
X179938309Y-146312786D01*
G37*
X179938309Y-146312786D02*
X179938934Y-146346770D01*
X179940514Y-146375036D01*
X179942774Y-146393631D01*
X179944262Y-146398389D01*
X179948527Y-146403896D01*
X179954205Y-146408598D01*
X179962497Y-146412561D01*
X179974606Y-146415847D01*
X179991732Y-146418519D01*
X180015076Y-146420640D01*
X180045841Y-146422274D01*
X180085228Y-146423483D01*
X180134438Y-146424331D01*
X180194672Y-146424881D01*
X180267132Y-146425196D01*
X180353020Y-146425340D01*
X180453537Y-146425374D01*
X180457571Y-146425375D01*
X180930375Y-146425375D01*
X180930375Y-146379337D01*
X180928818Y-146352638D01*
X180924801Y-146331900D01*
X180920850Y-146323775D01*
X180914582Y-146321567D01*
X180899920Y-146319694D01*
X180875933Y-146318135D01*
X180841692Y-146316869D01*
X180796266Y-146315878D01*
X180738724Y-146315141D01*
X180668136Y-146314637D01*
X180583570Y-146314346D01*
X180484098Y-146314250D01*
X180048486Y-146314250D01*
X180040369Y-146290966D01*
X180032709Y-146276466D01*
X180019011Y-146265540D01*
X179995147Y-146255254D01*
X179985220Y-146251799D01*
X179938187Y-146235915D01*
X179938309Y-146312786D01*
G36*
X179938306Y-148780657D02*
X179938639Y-148828000D01*
X179939154Y-148867474D01*
X179939815Y-148896905D01*
X179940589Y-148914124D01*
X179941168Y-148917750D01*
X179949439Y-148914802D01*
X179967820Y-148907165D01*
X179986809Y-148898915D01*
X180082714Y-148861772D01*
X180192286Y-148828711D01*
X180313758Y-148800085D01*
X180445365Y-148776248D01*
X180585343Y-148757555D01*
X180731925Y-148744359D01*
X180769640Y-148741946D01*
X180930375Y-148732496D01*
X180930375Y-148686496D01*
X180929179Y-148658137D01*
X180924923Y-148641659D01*
X180916601Y-148633199D01*
X180916484Y-148633137D01*
X180903239Y-148630810D01*
X180876771Y-148629861D01*
X180839659Y-148630163D01*
X180794485Y-148631589D01*
X180743829Y-148634012D01*
X180690270Y-148637305D01*
X180636389Y-148641341D01*
X180584766Y-148645992D01*
X180537981Y-148651133D01*
X180529685Y-148652176D01*
X180375782Y-148676780D01*
X180221691Y-148711296D01*
X180064153Y-148756292D01*
X180058169Y-148756289D01*
X180054065Y-148750094D01*
X180051292Y-148735121D01*
X180049299Y-148708783D01*
X180047998Y-148680305D01*
X180045896Y-148640138D01*
X180042081Y-148612266D01*
X180034559Y-148593110D01*
X180021338Y-148579090D01*
X180000426Y-148566630D01*
X179979011Y-148556394D01*
X179938187Y-148537480D01*
X179938187Y-148727615D01*
X179938306Y-148780657D01*
X179938306Y-148780657D01*
G37*
X179938306Y-148780657D02*
X179938639Y-148828000D01*
X179939154Y-148867474D01*
X179939815Y-148896905D01*
X179940589Y-148914124D01*
X179941168Y-148917750D01*
X179949439Y-148914802D01*
X179967820Y-148907165D01*
X179986809Y-148898915D01*
X180082714Y-148861772D01*
X180192286Y-148828711D01*
X180313758Y-148800085D01*
X180445365Y-148776248D01*
X180585343Y-148757555D01*
X180731925Y-148744359D01*
X180769640Y-148741946D01*
X180930375Y-148732496D01*
X180930375Y-148686496D01*
X180929179Y-148658137D01*
X180924923Y-148641659D01*
X180916601Y-148633199D01*
X180916484Y-148633137D01*
X180903239Y-148630810D01*
X180876771Y-148629861D01*
X180839659Y-148630163D01*
X180794485Y-148631589D01*
X180743829Y-148634012D01*
X180690270Y-148637305D01*
X180636389Y-148641341D01*
X180584766Y-148645992D01*
X180537981Y-148651133D01*
X180529685Y-148652176D01*
X180375782Y-148676780D01*
X180221691Y-148711296D01*
X180064153Y-148756292D01*
X180058169Y-148756289D01*
X180054065Y-148750094D01*
X180051292Y-148735121D01*
X180049299Y-148708783D01*
X180047998Y-148680305D01*
X180045896Y-148640138D01*
X180042081Y-148612266D01*
X180034559Y-148593110D01*
X180021338Y-148579090D01*
X180000426Y-148566630D01*
X179979011Y-148556394D01*
X179938187Y-148537480D01*
X179938187Y-148727615D01*
X179938306Y-148780657D01*
G36*
X179938469Y-149525275D02*
X179939754Y-149549272D01*
X179942696Y-149564184D01*
X179947952Y-149573404D01*
X179955828Y-149580081D01*
X179961003Y-149582671D01*
X179969352Y-149584879D01*
X179982066Y-149586734D01*
X180000335Y-149588265D01*
X180025352Y-149589502D01*
X180058308Y-149590476D01*
X180100394Y-149591215D01*
X180152802Y-149591749D01*
X180216723Y-149592109D01*
X180293348Y-149592323D01*
X180383869Y-149592421D01*
X180451922Y-149592437D01*
X180930375Y-149592437D01*
X180930375Y-149545091D01*
X180929402Y-149517025D01*
X180925709Y-149500538D01*
X180918128Y-149491410D01*
X180915021Y-149489529D01*
X180903028Y-149487476D01*
X180875424Y-149485708D01*
X180832469Y-149484232D01*
X180774424Y-149483051D01*
X180701552Y-149482170D01*
X180614112Y-149481595D01*
X180512366Y-149481331D01*
X180474294Y-149481312D01*
X180048919Y-149481312D01*
X180042005Y-149463126D01*
X180032244Y-149445403D01*
X180024342Y-149436735D01*
X180011158Y-149430163D01*
X179989393Y-149422057D01*
X179965877Y-149414678D01*
X179947444Y-149410288D01*
X179943219Y-149409875D01*
X179941101Y-149417250D01*
X179939423Y-149437129D01*
X179938400Y-149466142D01*
X179938187Y-149488799D01*
X179938469Y-149525275D01*
X179938469Y-149525275D01*
G37*
X179938469Y-149525275D02*
X179939754Y-149549272D01*
X179942696Y-149564184D01*
X179947952Y-149573404D01*
X179955828Y-149580081D01*
X179961003Y-149582671D01*
X179969352Y-149584879D01*
X179982066Y-149586734D01*
X180000335Y-149588265D01*
X180025352Y-149589502D01*
X180058308Y-149590476D01*
X180100394Y-149591215D01*
X180152802Y-149591749D01*
X180216723Y-149592109D01*
X180293348Y-149592323D01*
X180383869Y-149592421D01*
X180451922Y-149592437D01*
X180930375Y-149592437D01*
X180930375Y-149545091D01*
X180929402Y-149517025D01*
X180925709Y-149500538D01*
X180918128Y-149491410D01*
X180915021Y-149489529D01*
X180903028Y-149487476D01*
X180875424Y-149485708D01*
X180832469Y-149484232D01*
X180774424Y-149483051D01*
X180701552Y-149482170D01*
X180614112Y-149481595D01*
X180512366Y-149481331D01*
X180474294Y-149481312D01*
X180048919Y-149481312D01*
X180042005Y-149463126D01*
X180032244Y-149445403D01*
X180024342Y-149436735D01*
X180011158Y-149430163D01*
X179989393Y-149422057D01*
X179965877Y-149414678D01*
X179947444Y-149410288D01*
X179943219Y-149409875D01*
X179941101Y-149417250D01*
X179939423Y-149437129D01*
X179938400Y-149466142D01*
X179938187Y-149488799D01*
X179938469Y-149525275D01*
M02*
