G04 #@! TF.FileFunction,Copper,L2,Bot,Signal*
%FSLAX46Y46*%
G04 Gerber Fmt 4.6, Leading zero omitted, Abs format (unit mm)*
G04 Created by KiCad (PCBNEW 4.0.5) date Saturday, July 08, 2017 'AMt' 10:16:17 AM*
%MOMM*%
%LPD*%
G01*
G04 APERTURE LIST*
%ADD10C,0.100000*%
%ADD11C,0.010000*%
%ADD12C,4.000000*%
G04 APERTURE END LIST*
D10*
D11*
G36*
X177641875Y-57353351D02*
X177848250Y-57373250D01*
X177865042Y-59325875D01*
X177881835Y-61278500D01*
X177435500Y-61278500D01*
X177435500Y-57333454D01*
X177641875Y-57353351D01*
X177641875Y-57353351D01*
G37*
X177641875Y-57353351D02*
X177848250Y-57373250D01*
X177865042Y-59325875D01*
X177881835Y-61278500D01*
X177435500Y-61278500D01*
X177435500Y-57333454D01*
X177641875Y-57353351D01*
G36*
X180674000Y-61278500D02*
X180229500Y-61278500D01*
X180229500Y-57341500D01*
X180674000Y-57341500D01*
X180674000Y-61278500D01*
X180674000Y-61278500D01*
G37*
X180674000Y-61278500D02*
X180229500Y-61278500D01*
X180229500Y-57341500D01*
X180674000Y-57341500D01*
X180674000Y-61278500D01*
G36*
X183468000Y-61278500D02*
X183023500Y-61278500D01*
X183023500Y-57341500D01*
X183468000Y-57341500D01*
X183468000Y-61278500D01*
X183468000Y-61278500D01*
G37*
X183468000Y-61278500D02*
X183023500Y-61278500D01*
X183023500Y-57341500D01*
X183468000Y-57341500D01*
X183468000Y-61278500D01*
G36*
X166015037Y-72167878D02*
X166055917Y-72172925D01*
X166087773Y-72182821D01*
X166114475Y-72198782D01*
X166139890Y-72222024D01*
X166140668Y-72222841D01*
X166149779Y-72232365D01*
X166157689Y-72241216D01*
X166164483Y-72250597D01*
X166170245Y-72261710D01*
X166175060Y-72275760D01*
X166179014Y-72293950D01*
X166182190Y-72317482D01*
X166184675Y-72347561D01*
X166186552Y-72385390D01*
X166187906Y-72432172D01*
X166188822Y-72489110D01*
X166189385Y-72557408D01*
X166189680Y-72638268D01*
X166189792Y-72732896D01*
X166189805Y-72842492D01*
X166189800Y-72920000D01*
X166189806Y-73039640D01*
X166189768Y-73143551D01*
X166189600Y-73232938D01*
X166189218Y-73309005D01*
X166188536Y-73372958D01*
X166187471Y-73426001D01*
X166185937Y-73469337D01*
X166183849Y-73504173D01*
X166181123Y-73531712D01*
X166177673Y-73553160D01*
X166173415Y-73569720D01*
X166168264Y-73582597D01*
X166162135Y-73592997D01*
X166154943Y-73602123D01*
X166146604Y-73611180D01*
X166140668Y-73617451D01*
X166114786Y-73640792D01*
X166085962Y-73656931D01*
X166050618Y-73666951D01*
X166005177Y-73671933D01*
X165956967Y-73673016D01*
X165902131Y-73671633D01*
X165862247Y-73667554D01*
X165835519Y-73660589D01*
X165834200Y-73660035D01*
X165790276Y-73632454D01*
X165753903Y-73592674D01*
X165740291Y-73570154D01*
X165736116Y-73561096D01*
X165732726Y-73550617D01*
X165730040Y-73536961D01*
X165727977Y-73518371D01*
X165726456Y-73493089D01*
X165725395Y-73459359D01*
X165724714Y-73415423D01*
X165724331Y-73359526D01*
X165724165Y-73289909D01*
X165724134Y-73220519D01*
X165724134Y-72902297D01*
X165744915Y-72881515D01*
X165754080Y-72873140D01*
X165763999Y-72867382D01*
X165777846Y-72863751D01*
X165798796Y-72861758D01*
X165830023Y-72860916D01*
X165874702Y-72860734D01*
X165879851Y-72860733D01*
X165994005Y-72860733D01*
X165968424Y-72917151D01*
X165948762Y-72958790D01*
X165933076Y-72987200D01*
X165919474Y-73005036D01*
X165906061Y-73014953D01*
X165896171Y-73018507D01*
X165875552Y-73023682D01*
X165878160Y-73255296D01*
X165880767Y-73486910D01*
X165903819Y-73509948D01*
X165932928Y-73529194D01*
X165964205Y-73533570D01*
X165993681Y-73523086D01*
X166008864Y-73509654D01*
X166028934Y-73486322D01*
X166028934Y-72353677D01*
X166009884Y-72332030D01*
X165988310Y-72315046D01*
X165964394Y-72305315D01*
X165944238Y-72304397D01*
X165926013Y-72312365D01*
X165909360Y-72325781D01*
X165880767Y-72351314D01*
X165878066Y-72537495D01*
X165875366Y-72723675D01*
X165818800Y-72698553D01*
X165788290Y-72684773D01*
X165765159Y-72672442D01*
X165748386Y-72659053D01*
X165736948Y-72642101D01*
X165729825Y-72619080D01*
X165725996Y-72587483D01*
X165724439Y-72544804D01*
X165724134Y-72488537D01*
X165724134Y-72466224D01*
X165724471Y-72402285D01*
X165725881Y-72352629D01*
X165728957Y-72314612D01*
X165734294Y-72285590D01*
X165742487Y-72262921D01*
X165754130Y-72243959D01*
X165769819Y-72226062D01*
X165780508Y-72215599D01*
X165805917Y-72195014D01*
X165833792Y-72180810D01*
X165867815Y-72171988D01*
X165911668Y-72167546D01*
X165961266Y-72166467D01*
X166015037Y-72167878D01*
X166015037Y-72167878D01*
G37*
X166015037Y-72167878D02*
X166055917Y-72172925D01*
X166087773Y-72182821D01*
X166114475Y-72198782D01*
X166139890Y-72222024D01*
X166140668Y-72222841D01*
X166149779Y-72232365D01*
X166157689Y-72241216D01*
X166164483Y-72250597D01*
X166170245Y-72261710D01*
X166175060Y-72275760D01*
X166179014Y-72293950D01*
X166182190Y-72317482D01*
X166184675Y-72347561D01*
X166186552Y-72385390D01*
X166187906Y-72432172D01*
X166188822Y-72489110D01*
X166189385Y-72557408D01*
X166189680Y-72638268D01*
X166189792Y-72732896D01*
X166189805Y-72842492D01*
X166189800Y-72920000D01*
X166189806Y-73039640D01*
X166189768Y-73143551D01*
X166189600Y-73232938D01*
X166189218Y-73309005D01*
X166188536Y-73372958D01*
X166187471Y-73426001D01*
X166185937Y-73469337D01*
X166183849Y-73504173D01*
X166181123Y-73531712D01*
X166177673Y-73553160D01*
X166173415Y-73569720D01*
X166168264Y-73582597D01*
X166162135Y-73592997D01*
X166154943Y-73602123D01*
X166146604Y-73611180D01*
X166140668Y-73617451D01*
X166114786Y-73640792D01*
X166085962Y-73656931D01*
X166050618Y-73666951D01*
X166005177Y-73671933D01*
X165956967Y-73673016D01*
X165902131Y-73671633D01*
X165862247Y-73667554D01*
X165835519Y-73660589D01*
X165834200Y-73660035D01*
X165790276Y-73632454D01*
X165753903Y-73592674D01*
X165740291Y-73570154D01*
X165736116Y-73561096D01*
X165732726Y-73550617D01*
X165730040Y-73536961D01*
X165727977Y-73518371D01*
X165726456Y-73493089D01*
X165725395Y-73459359D01*
X165724714Y-73415423D01*
X165724331Y-73359526D01*
X165724165Y-73289909D01*
X165724134Y-73220519D01*
X165724134Y-72902297D01*
X165744915Y-72881515D01*
X165754080Y-72873140D01*
X165763999Y-72867382D01*
X165777846Y-72863751D01*
X165798796Y-72861758D01*
X165830023Y-72860916D01*
X165874702Y-72860734D01*
X165879851Y-72860733D01*
X165994005Y-72860733D01*
X165968424Y-72917151D01*
X165948762Y-72958790D01*
X165933076Y-72987200D01*
X165919474Y-73005036D01*
X165906061Y-73014953D01*
X165896171Y-73018507D01*
X165875552Y-73023682D01*
X165878160Y-73255296D01*
X165880767Y-73486910D01*
X165903819Y-73509948D01*
X165932928Y-73529194D01*
X165964205Y-73533570D01*
X165993681Y-73523086D01*
X166008864Y-73509654D01*
X166028934Y-73486322D01*
X166028934Y-72353677D01*
X166009884Y-72332030D01*
X165988310Y-72315046D01*
X165964394Y-72305315D01*
X165944238Y-72304397D01*
X165926013Y-72312365D01*
X165909360Y-72325781D01*
X165880767Y-72351314D01*
X165878066Y-72537495D01*
X165875366Y-72723675D01*
X165818800Y-72698553D01*
X165788290Y-72684773D01*
X165765159Y-72672442D01*
X165748386Y-72659053D01*
X165736948Y-72642101D01*
X165729825Y-72619080D01*
X165725996Y-72587483D01*
X165724439Y-72544804D01*
X165724134Y-72488537D01*
X165724134Y-72466224D01*
X165724471Y-72402285D01*
X165725881Y-72352629D01*
X165728957Y-72314612D01*
X165734294Y-72285590D01*
X165742487Y-72262921D01*
X165754130Y-72243959D01*
X165769819Y-72226062D01*
X165780508Y-72215599D01*
X165805917Y-72195014D01*
X165833792Y-72180810D01*
X165867815Y-72171988D01*
X165911668Y-72167546D01*
X165961266Y-72166467D01*
X166015037Y-72167878D01*
G36*
X168513909Y-72166321D02*
X168560071Y-72169374D01*
X168598773Y-72174885D01*
X168624039Y-72182257D01*
X168661536Y-72206445D01*
X168694188Y-72240497D01*
X168716939Y-72278754D01*
X168721375Y-72291209D01*
X168723355Y-72305067D01*
X168725017Y-72332215D01*
X168726364Y-72373108D01*
X168727403Y-72428199D01*
X168728138Y-72497939D01*
X168728573Y-72582782D01*
X168728713Y-72683182D01*
X168728563Y-72799590D01*
X168728128Y-72932460D01*
X168728107Y-72937556D01*
X168725567Y-73552013D01*
X168702211Y-73587301D01*
X168679746Y-73614600D01*
X168652058Y-73639843D01*
X168643604Y-73645944D01*
X168628489Y-73655383D01*
X168614231Y-73661943D01*
X168597293Y-73666223D01*
X168574139Y-73668823D01*
X168541232Y-73670343D01*
X168495036Y-73671381D01*
X168493393Y-73671411D01*
X168441733Y-73671853D01*
X168403827Y-73670830D01*
X168376538Y-73668104D01*
X168356731Y-73663434D01*
X168348800Y-73660361D01*
X168304244Y-73631949D01*
X168267676Y-73591474D01*
X168254891Y-73570154D01*
X168251827Y-73563608D01*
X168249176Y-73555926D01*
X168246909Y-73545906D01*
X168244995Y-73532346D01*
X168243405Y-73514044D01*
X168242109Y-73489797D01*
X168241077Y-73458403D01*
X168240278Y-73418661D01*
X168239685Y-73369368D01*
X168239265Y-73309322D01*
X168238990Y-73237320D01*
X168238830Y-73152162D01*
X168238754Y-73052644D01*
X168238734Y-72937564D01*
X168238734Y-72920000D01*
X168238734Y-72919258D01*
X168399600Y-72919258D01*
X168399632Y-73031835D01*
X168399748Y-73128696D01*
X168399975Y-73211056D01*
X168400343Y-73280131D01*
X168400879Y-73337139D01*
X168401612Y-73383296D01*
X168402570Y-73419818D01*
X168403781Y-73447921D01*
X168405275Y-73468821D01*
X168407079Y-73483736D01*
X168409221Y-73493881D01*
X168411730Y-73500473D01*
X168413206Y-73502924D01*
X168439253Y-73526584D01*
X168472548Y-73536700D01*
X168509236Y-73532514D01*
X168526770Y-73525279D01*
X168546986Y-73511296D01*
X168560216Y-73496202D01*
X168562200Y-73483829D01*
X168563933Y-73454708D01*
X168565415Y-73409027D01*
X168566640Y-73346968D01*
X168567607Y-73268718D01*
X168568313Y-73174462D01*
X168568755Y-73064383D01*
X168568930Y-72938668D01*
X168568934Y-72918207D01*
X168568949Y-72804356D01*
X168568928Y-72706229D01*
X168568772Y-72622615D01*
X168568379Y-72552307D01*
X168567649Y-72494093D01*
X168566483Y-72446765D01*
X168564780Y-72409113D01*
X168562440Y-72379928D01*
X168559363Y-72357999D01*
X168555449Y-72342118D01*
X168550597Y-72331075D01*
X168544708Y-72323660D01*
X168537680Y-72318664D01*
X168529415Y-72314877D01*
X168519811Y-72311090D01*
X168518612Y-72310598D01*
X168484055Y-72303903D01*
X168449763Y-72309982D01*
X168421811Y-72327496D01*
X168416900Y-72333023D01*
X168413482Y-72337706D01*
X168410546Y-72343247D01*
X168408056Y-72350891D01*
X168405976Y-72361883D01*
X168404268Y-72377469D01*
X168402896Y-72398892D01*
X168401823Y-72427399D01*
X168401012Y-72464234D01*
X168400427Y-72510641D01*
X168400031Y-72567867D01*
X168399787Y-72637155D01*
X168399658Y-72719752D01*
X168399608Y-72816901D01*
X168399600Y-72919258D01*
X168238734Y-72919258D01*
X168238749Y-72802627D01*
X168238815Y-72700986D01*
X168238961Y-72613873D01*
X168239218Y-72540088D01*
X168239616Y-72478427D01*
X168240183Y-72427689D01*
X168240950Y-72386672D01*
X168241948Y-72354173D01*
X168243205Y-72328990D01*
X168244752Y-72309921D01*
X168246618Y-72295765D01*
X168248834Y-72285318D01*
X168251429Y-72277379D01*
X168254433Y-72270746D01*
X168254891Y-72269846D01*
X168286575Y-72224940D01*
X168328491Y-72190852D01*
X168350645Y-72179616D01*
X168378654Y-72172373D01*
X168418401Y-72167773D01*
X168465086Y-72165772D01*
X168513909Y-72166321D01*
X168513909Y-72166321D01*
G37*
X168513909Y-72166321D02*
X168560071Y-72169374D01*
X168598773Y-72174885D01*
X168624039Y-72182257D01*
X168661536Y-72206445D01*
X168694188Y-72240497D01*
X168716939Y-72278754D01*
X168721375Y-72291209D01*
X168723355Y-72305067D01*
X168725017Y-72332215D01*
X168726364Y-72373108D01*
X168727403Y-72428199D01*
X168728138Y-72497939D01*
X168728573Y-72582782D01*
X168728713Y-72683182D01*
X168728563Y-72799590D01*
X168728128Y-72932460D01*
X168728107Y-72937556D01*
X168725567Y-73552013D01*
X168702211Y-73587301D01*
X168679746Y-73614600D01*
X168652058Y-73639843D01*
X168643604Y-73645944D01*
X168628489Y-73655383D01*
X168614231Y-73661943D01*
X168597293Y-73666223D01*
X168574139Y-73668823D01*
X168541232Y-73670343D01*
X168495036Y-73671381D01*
X168493393Y-73671411D01*
X168441733Y-73671853D01*
X168403827Y-73670830D01*
X168376538Y-73668104D01*
X168356731Y-73663434D01*
X168348800Y-73660361D01*
X168304244Y-73631949D01*
X168267676Y-73591474D01*
X168254891Y-73570154D01*
X168251827Y-73563608D01*
X168249176Y-73555926D01*
X168246909Y-73545906D01*
X168244995Y-73532346D01*
X168243405Y-73514044D01*
X168242109Y-73489797D01*
X168241077Y-73458403D01*
X168240278Y-73418661D01*
X168239685Y-73369368D01*
X168239265Y-73309322D01*
X168238990Y-73237320D01*
X168238830Y-73152162D01*
X168238754Y-73052644D01*
X168238734Y-72937564D01*
X168238734Y-72920000D01*
X168238734Y-72919258D01*
X168399600Y-72919258D01*
X168399632Y-73031835D01*
X168399748Y-73128696D01*
X168399975Y-73211056D01*
X168400343Y-73280131D01*
X168400879Y-73337139D01*
X168401612Y-73383296D01*
X168402570Y-73419818D01*
X168403781Y-73447921D01*
X168405275Y-73468821D01*
X168407079Y-73483736D01*
X168409221Y-73493881D01*
X168411730Y-73500473D01*
X168413206Y-73502924D01*
X168439253Y-73526584D01*
X168472548Y-73536700D01*
X168509236Y-73532514D01*
X168526770Y-73525279D01*
X168546986Y-73511296D01*
X168560216Y-73496202D01*
X168562200Y-73483829D01*
X168563933Y-73454708D01*
X168565415Y-73409027D01*
X168566640Y-73346968D01*
X168567607Y-73268718D01*
X168568313Y-73174462D01*
X168568755Y-73064383D01*
X168568930Y-72938668D01*
X168568934Y-72918207D01*
X168568949Y-72804356D01*
X168568928Y-72706229D01*
X168568772Y-72622615D01*
X168568379Y-72552307D01*
X168567649Y-72494093D01*
X168566483Y-72446765D01*
X168564780Y-72409113D01*
X168562440Y-72379928D01*
X168559363Y-72357999D01*
X168555449Y-72342118D01*
X168550597Y-72331075D01*
X168544708Y-72323660D01*
X168537680Y-72318664D01*
X168529415Y-72314877D01*
X168519811Y-72311090D01*
X168518612Y-72310598D01*
X168484055Y-72303903D01*
X168449763Y-72309982D01*
X168421811Y-72327496D01*
X168416900Y-72333023D01*
X168413482Y-72337706D01*
X168410546Y-72343247D01*
X168408056Y-72350891D01*
X168405976Y-72361883D01*
X168404268Y-72377469D01*
X168402896Y-72398892D01*
X168401823Y-72427399D01*
X168401012Y-72464234D01*
X168400427Y-72510641D01*
X168400031Y-72567867D01*
X168399787Y-72637155D01*
X168399658Y-72719752D01*
X168399608Y-72816901D01*
X168399600Y-72919258D01*
X168238734Y-72919258D01*
X168238749Y-72802627D01*
X168238815Y-72700986D01*
X168238961Y-72613873D01*
X168239218Y-72540088D01*
X168239616Y-72478427D01*
X168240183Y-72427689D01*
X168240950Y-72386672D01*
X168241948Y-72354173D01*
X168243205Y-72328990D01*
X168244752Y-72309921D01*
X168246618Y-72295765D01*
X168248834Y-72285318D01*
X168251429Y-72277379D01*
X168254433Y-72270746D01*
X168254891Y-72269846D01*
X168286575Y-72224940D01*
X168328491Y-72190852D01*
X168350645Y-72179616D01*
X168378654Y-72172373D01*
X168418401Y-72167773D01*
X168465086Y-72165772D01*
X168513909Y-72166321D01*
G36*
X172219350Y-72197299D02*
X172249605Y-72225455D01*
X172274605Y-72259790D01*
X172277333Y-72264797D01*
X172298500Y-72305697D01*
X172300839Y-72902018D01*
X172301308Y-73022901D01*
X172301641Y-73128055D01*
X172301748Y-73218687D01*
X172301536Y-73296003D01*
X172300913Y-73361207D01*
X172299790Y-73415506D01*
X172298073Y-73460104D01*
X172295672Y-73496208D01*
X172292495Y-73525022D01*
X172288450Y-73547754D01*
X172283446Y-73565607D01*
X172277393Y-73579787D01*
X172270197Y-73591500D01*
X172261768Y-73601952D01*
X172252014Y-73612348D01*
X172246509Y-73618007D01*
X172222525Y-73639352D01*
X172197447Y-73656681D01*
X172187313Y-73661847D01*
X172165831Y-73666910D01*
X172132250Y-73670495D01*
X172091315Y-73672556D01*
X172047767Y-73673048D01*
X172006350Y-73671927D01*
X171971808Y-73669148D01*
X171948882Y-73664666D01*
X171947387Y-73664113D01*
X171903389Y-73637947D01*
X171866983Y-73599140D01*
X171848444Y-73567189D01*
X171828000Y-73522534D01*
X171830417Y-73207812D01*
X171832834Y-72893089D01*
X171852821Y-72876911D01*
X171863001Y-72870235D01*
X171876229Y-72865666D01*
X171895666Y-72862821D01*
X171924471Y-72861317D01*
X171965802Y-72860770D01*
X171986171Y-72860733D01*
X172027769Y-72860963D01*
X172062505Y-72861594D01*
X172087284Y-72862536D01*
X172099006Y-72863699D01*
X172099534Y-72864016D01*
X172096254Y-72872728D01*
X172087581Y-72892770D01*
X172075265Y-72920121D01*
X172072846Y-72925399D01*
X172049264Y-72971586D01*
X172027792Y-73003207D01*
X172009021Y-73019472D01*
X172000691Y-73021600D01*
X171996925Y-73029628D01*
X171993841Y-73051983D01*
X171991432Y-73086073D01*
X171989691Y-73129307D01*
X171988613Y-73179092D01*
X171988191Y-73232837D01*
X171988420Y-73287949D01*
X171989293Y-73341837D01*
X171990804Y-73391907D01*
X171992947Y-73435570D01*
X171995715Y-73470232D01*
X171999103Y-73493301D01*
X172001830Y-73501149D01*
X172026721Y-73523814D01*
X172057989Y-73534037D01*
X172089970Y-73530032D01*
X172091466Y-73529434D01*
X172101228Y-73525415D01*
X172109641Y-73521222D01*
X172116805Y-73515644D01*
X172122821Y-73507470D01*
X172127790Y-73495488D01*
X172131810Y-73478488D01*
X172134983Y-73455258D01*
X172137408Y-73424587D01*
X172139186Y-73385263D01*
X172140416Y-73336076D01*
X172141200Y-73275814D01*
X172141637Y-73203265D01*
X172141827Y-73117219D01*
X172141870Y-73016464D01*
X172141867Y-72920000D01*
X172141869Y-72806010D01*
X172141808Y-72707742D01*
X172141585Y-72623985D01*
X172141098Y-72553528D01*
X172140248Y-72495159D01*
X172138935Y-72447666D01*
X172137058Y-72409840D01*
X172134518Y-72380468D01*
X172131213Y-72358339D01*
X172127045Y-72342242D01*
X172121912Y-72330966D01*
X172115715Y-72323299D01*
X172108353Y-72318030D01*
X172099727Y-72313948D01*
X172091466Y-72310565D01*
X172067490Y-72304179D01*
X172044786Y-72308602D01*
X172040548Y-72310284D01*
X172026048Y-72316757D01*
X172014873Y-72324098D01*
X172006532Y-72334478D01*
X172000532Y-72350068D01*
X171996380Y-72373038D01*
X171993585Y-72405558D01*
X171991654Y-72449800D01*
X171990096Y-72507934D01*
X171989467Y-72535540D01*
X171985234Y-72724259D01*
X171917412Y-72692366D01*
X171878652Y-72672520D01*
X171853758Y-72655582D01*
X171840300Y-72639849D01*
X171839096Y-72637438D01*
X171834481Y-72618174D01*
X171831211Y-72583338D01*
X171829259Y-72532496D01*
X171828600Y-72465211D01*
X171828600Y-72463920D01*
X171828689Y-72409836D01*
X171829196Y-72369631D01*
X171830484Y-72340250D01*
X171832915Y-72318640D01*
X171836851Y-72301745D01*
X171842654Y-72286512D01*
X171850686Y-72269885D01*
X171851884Y-72267520D01*
X171883005Y-72221735D01*
X171911880Y-72196152D01*
X171926974Y-72186030D01*
X171940317Y-72179025D01*
X171955374Y-72174565D01*
X171975613Y-72172075D01*
X172004498Y-72170980D01*
X172045495Y-72170707D01*
X172065563Y-72170700D01*
X172182534Y-72170700D01*
X172219350Y-72197299D01*
X172219350Y-72197299D01*
G37*
X172219350Y-72197299D02*
X172249605Y-72225455D01*
X172274605Y-72259790D01*
X172277333Y-72264797D01*
X172298500Y-72305697D01*
X172300839Y-72902018D01*
X172301308Y-73022901D01*
X172301641Y-73128055D01*
X172301748Y-73218687D01*
X172301536Y-73296003D01*
X172300913Y-73361207D01*
X172299790Y-73415506D01*
X172298073Y-73460104D01*
X172295672Y-73496208D01*
X172292495Y-73525022D01*
X172288450Y-73547754D01*
X172283446Y-73565607D01*
X172277393Y-73579787D01*
X172270197Y-73591500D01*
X172261768Y-73601952D01*
X172252014Y-73612348D01*
X172246509Y-73618007D01*
X172222525Y-73639352D01*
X172197447Y-73656681D01*
X172187313Y-73661847D01*
X172165831Y-73666910D01*
X172132250Y-73670495D01*
X172091315Y-73672556D01*
X172047767Y-73673048D01*
X172006350Y-73671927D01*
X171971808Y-73669148D01*
X171948882Y-73664666D01*
X171947387Y-73664113D01*
X171903389Y-73637947D01*
X171866983Y-73599140D01*
X171848444Y-73567189D01*
X171828000Y-73522534D01*
X171830417Y-73207812D01*
X171832834Y-72893089D01*
X171852821Y-72876911D01*
X171863001Y-72870235D01*
X171876229Y-72865666D01*
X171895666Y-72862821D01*
X171924471Y-72861317D01*
X171965802Y-72860770D01*
X171986171Y-72860733D01*
X172027769Y-72860963D01*
X172062505Y-72861594D01*
X172087284Y-72862536D01*
X172099006Y-72863699D01*
X172099534Y-72864016D01*
X172096254Y-72872728D01*
X172087581Y-72892770D01*
X172075265Y-72920121D01*
X172072846Y-72925399D01*
X172049264Y-72971586D01*
X172027792Y-73003207D01*
X172009021Y-73019472D01*
X172000691Y-73021600D01*
X171996925Y-73029628D01*
X171993841Y-73051983D01*
X171991432Y-73086073D01*
X171989691Y-73129307D01*
X171988613Y-73179092D01*
X171988191Y-73232837D01*
X171988420Y-73287949D01*
X171989293Y-73341837D01*
X171990804Y-73391907D01*
X171992947Y-73435570D01*
X171995715Y-73470232D01*
X171999103Y-73493301D01*
X172001830Y-73501149D01*
X172026721Y-73523814D01*
X172057989Y-73534037D01*
X172089970Y-73530032D01*
X172091466Y-73529434D01*
X172101228Y-73525415D01*
X172109641Y-73521222D01*
X172116805Y-73515644D01*
X172122821Y-73507470D01*
X172127790Y-73495488D01*
X172131810Y-73478488D01*
X172134983Y-73455258D01*
X172137408Y-73424587D01*
X172139186Y-73385263D01*
X172140416Y-73336076D01*
X172141200Y-73275814D01*
X172141637Y-73203265D01*
X172141827Y-73117219D01*
X172141870Y-73016464D01*
X172141867Y-72920000D01*
X172141869Y-72806010D01*
X172141808Y-72707742D01*
X172141585Y-72623985D01*
X172141098Y-72553528D01*
X172140248Y-72495159D01*
X172138935Y-72447666D01*
X172137058Y-72409840D01*
X172134518Y-72380468D01*
X172131213Y-72358339D01*
X172127045Y-72342242D01*
X172121912Y-72330966D01*
X172115715Y-72323299D01*
X172108353Y-72318030D01*
X172099727Y-72313948D01*
X172091466Y-72310565D01*
X172067490Y-72304179D01*
X172044786Y-72308602D01*
X172040548Y-72310284D01*
X172026048Y-72316757D01*
X172014873Y-72324098D01*
X172006532Y-72334478D01*
X172000532Y-72350068D01*
X171996380Y-72373038D01*
X171993585Y-72405558D01*
X171991654Y-72449800D01*
X171990096Y-72507934D01*
X171989467Y-72535540D01*
X171985234Y-72724259D01*
X171917412Y-72692366D01*
X171878652Y-72672520D01*
X171853758Y-72655582D01*
X171840300Y-72639849D01*
X171839096Y-72637438D01*
X171834481Y-72618174D01*
X171831211Y-72583338D01*
X171829259Y-72532496D01*
X171828600Y-72465211D01*
X171828600Y-72463920D01*
X171828689Y-72409836D01*
X171829196Y-72369631D01*
X171830484Y-72340250D01*
X171832915Y-72318640D01*
X171836851Y-72301745D01*
X171842654Y-72286512D01*
X171850686Y-72269885D01*
X171851884Y-72267520D01*
X171883005Y-72221735D01*
X171911880Y-72196152D01*
X171926974Y-72186030D01*
X171940317Y-72179025D01*
X171955374Y-72174565D01*
X171975613Y-72172075D01*
X172004498Y-72170980D01*
X172045495Y-72170707D01*
X172065563Y-72170700D01*
X172182534Y-72170700D01*
X172219350Y-72197299D01*
G36*
X179119696Y-72167795D02*
X179127061Y-72167959D01*
X179173905Y-72169194D01*
X179207309Y-72170762D01*
X179230767Y-72173302D01*
X179247769Y-72177457D01*
X179261808Y-72183867D01*
X179276376Y-72193172D01*
X179280691Y-72196152D01*
X179318162Y-72232001D01*
X179340650Y-72267520D01*
X179363933Y-72313436D01*
X179363933Y-73527666D01*
X179340283Y-73572938D01*
X179312498Y-73613855D01*
X179280324Y-73643755D01*
X179265444Y-73653832D01*
X179252034Y-73660898D01*
X179236686Y-73665564D01*
X179215995Y-73668435D01*
X179186554Y-73670122D01*
X179144957Y-73671230D01*
X179124058Y-73671650D01*
X179076394Y-73672441D01*
X179042183Y-73672349D01*
X179017951Y-73670943D01*
X179000224Y-73667789D01*
X178985527Y-73662455D01*
X178970386Y-73654511D01*
X178966000Y-73651995D01*
X178924808Y-73622708D01*
X178896620Y-73588236D01*
X178877510Y-73543754D01*
X178877240Y-73542880D01*
X178874680Y-73532565D01*
X178872474Y-73518667D01*
X178870598Y-73499969D01*
X178869026Y-73475251D01*
X178867734Y-73443296D01*
X178866696Y-73402885D01*
X178865887Y-73352798D01*
X178865282Y-73291819D01*
X178864856Y-73218727D01*
X178864584Y-73132305D01*
X178864440Y-73031334D01*
X178864400Y-72920000D01*
X178864413Y-72800812D01*
X178864515Y-72697339D01*
X178864795Y-72608363D01*
X178865348Y-72532666D01*
X178866264Y-72469028D01*
X178867635Y-72416233D01*
X178869553Y-72373061D01*
X178871150Y-72351344D01*
X179029500Y-72351344D01*
X179029500Y-72918416D01*
X179029512Y-73030242D01*
X179029570Y-73126369D01*
X179029711Y-73208032D01*
X179029970Y-73276466D01*
X179030382Y-73332906D01*
X179030985Y-73378585D01*
X179031812Y-73414740D01*
X179032901Y-73442604D01*
X179034286Y-73463413D01*
X179036003Y-73478400D01*
X179038088Y-73488801D01*
X179040577Y-73495851D01*
X179043505Y-73500784D01*
X179046433Y-73504310D01*
X179078277Y-73528690D01*
X179114318Y-73537255D01*
X179152034Y-73529521D01*
X179159506Y-73526001D01*
X179180065Y-73509803D01*
X179192952Y-73491736D01*
X179195139Y-73482202D01*
X179197023Y-73463300D01*
X179198620Y-73434153D01*
X179199945Y-73393883D01*
X179201013Y-73341610D01*
X179201841Y-73276458D01*
X179202443Y-73197546D01*
X179202836Y-73103997D01*
X179203034Y-72994933D01*
X179203067Y-72920000D01*
X179202980Y-72800987D01*
X179202708Y-72698028D01*
X179202236Y-72610245D01*
X179201548Y-72536759D01*
X179200629Y-72476692D01*
X179199463Y-72429166D01*
X179198035Y-72393302D01*
X179196329Y-72368222D01*
X179194330Y-72353047D01*
X179192952Y-72348263D01*
X179172494Y-72321598D01*
X179143349Y-72306429D01*
X179109869Y-72303448D01*
X179076405Y-72313349D01*
X179057150Y-72326639D01*
X179029500Y-72351344D01*
X178871150Y-72351344D01*
X178872110Y-72338295D01*
X178875397Y-72310716D01*
X178879508Y-72289105D01*
X178884532Y-72272245D01*
X178890563Y-72258918D01*
X178897693Y-72247904D01*
X178906012Y-72237986D01*
X178915613Y-72227946D01*
X178916654Y-72226881D01*
X178941269Y-72203678D01*
X178964935Y-72187117D01*
X178991131Y-72176222D01*
X179023338Y-72170020D01*
X179065033Y-72167536D01*
X179119696Y-72167795D01*
X179119696Y-72167795D01*
G37*
X179119696Y-72167795D02*
X179127061Y-72167959D01*
X179173905Y-72169194D01*
X179207309Y-72170762D01*
X179230767Y-72173302D01*
X179247769Y-72177457D01*
X179261808Y-72183867D01*
X179276376Y-72193172D01*
X179280691Y-72196152D01*
X179318162Y-72232001D01*
X179340650Y-72267520D01*
X179363933Y-72313436D01*
X179363933Y-73527666D01*
X179340283Y-73572938D01*
X179312498Y-73613855D01*
X179280324Y-73643755D01*
X179265444Y-73653832D01*
X179252034Y-73660898D01*
X179236686Y-73665564D01*
X179215995Y-73668435D01*
X179186554Y-73670122D01*
X179144957Y-73671230D01*
X179124058Y-73671650D01*
X179076394Y-73672441D01*
X179042183Y-73672349D01*
X179017951Y-73670943D01*
X179000224Y-73667789D01*
X178985527Y-73662455D01*
X178970386Y-73654511D01*
X178966000Y-73651995D01*
X178924808Y-73622708D01*
X178896620Y-73588236D01*
X178877510Y-73543754D01*
X178877240Y-73542880D01*
X178874680Y-73532565D01*
X178872474Y-73518667D01*
X178870598Y-73499969D01*
X178869026Y-73475251D01*
X178867734Y-73443296D01*
X178866696Y-73402885D01*
X178865887Y-73352798D01*
X178865282Y-73291819D01*
X178864856Y-73218727D01*
X178864584Y-73132305D01*
X178864440Y-73031334D01*
X178864400Y-72920000D01*
X178864413Y-72800812D01*
X178864515Y-72697339D01*
X178864795Y-72608363D01*
X178865348Y-72532666D01*
X178866264Y-72469028D01*
X178867635Y-72416233D01*
X178869553Y-72373061D01*
X178871150Y-72351344D01*
X179029500Y-72351344D01*
X179029500Y-72918416D01*
X179029512Y-73030242D01*
X179029570Y-73126369D01*
X179029711Y-73208032D01*
X179029970Y-73276466D01*
X179030382Y-73332906D01*
X179030985Y-73378585D01*
X179031812Y-73414740D01*
X179032901Y-73442604D01*
X179034286Y-73463413D01*
X179036003Y-73478400D01*
X179038088Y-73488801D01*
X179040577Y-73495851D01*
X179043505Y-73500784D01*
X179046433Y-73504310D01*
X179078277Y-73528690D01*
X179114318Y-73537255D01*
X179152034Y-73529521D01*
X179159506Y-73526001D01*
X179180065Y-73509803D01*
X179192952Y-73491736D01*
X179195139Y-73482202D01*
X179197023Y-73463300D01*
X179198620Y-73434153D01*
X179199945Y-73393883D01*
X179201013Y-73341610D01*
X179201841Y-73276458D01*
X179202443Y-73197546D01*
X179202836Y-73103997D01*
X179203034Y-72994933D01*
X179203067Y-72920000D01*
X179202980Y-72800987D01*
X179202708Y-72698028D01*
X179202236Y-72610245D01*
X179201548Y-72536759D01*
X179200629Y-72476692D01*
X179199463Y-72429166D01*
X179198035Y-72393302D01*
X179196329Y-72368222D01*
X179194330Y-72353047D01*
X179192952Y-72348263D01*
X179172494Y-72321598D01*
X179143349Y-72306429D01*
X179109869Y-72303448D01*
X179076405Y-72313349D01*
X179057150Y-72326639D01*
X179029500Y-72351344D01*
X178871150Y-72351344D01*
X178872110Y-72338295D01*
X178875397Y-72310716D01*
X178879508Y-72289105D01*
X178884532Y-72272245D01*
X178890563Y-72258918D01*
X178897693Y-72247904D01*
X178906012Y-72237986D01*
X178915613Y-72227946D01*
X178916654Y-72226881D01*
X178941269Y-72203678D01*
X178964935Y-72187117D01*
X178991131Y-72176222D01*
X179023338Y-72170020D01*
X179065033Y-72167536D01*
X179119696Y-72167795D01*
G36*
X185269995Y-72167374D02*
X185308375Y-72170841D01*
X185337828Y-72177986D01*
X185362326Y-72189928D01*
X185385843Y-72207785D01*
X185395092Y-72216116D01*
X185415445Y-72239271D01*
X185433521Y-72266499D01*
X185435309Y-72269846D01*
X185438373Y-72276392D01*
X185441024Y-72284073D01*
X185443292Y-72294093D01*
X185445205Y-72307653D01*
X185446795Y-72325956D01*
X185448092Y-72350203D01*
X185449124Y-72381596D01*
X185449922Y-72421339D01*
X185450516Y-72470632D01*
X185450935Y-72530678D01*
X185451210Y-72602679D01*
X185451370Y-72687838D01*
X185451446Y-72787356D01*
X185451467Y-72902436D01*
X185451467Y-72920000D01*
X185451451Y-73037372D01*
X185451385Y-73139014D01*
X185451239Y-73226126D01*
X185450982Y-73299912D01*
X185450585Y-73361572D01*
X185450017Y-73412310D01*
X185449250Y-73453328D01*
X185448253Y-73485827D01*
X185446995Y-73511010D01*
X185445449Y-73530078D01*
X185443582Y-73544235D01*
X185441367Y-73554681D01*
X185438772Y-73562620D01*
X185435768Y-73569254D01*
X185435309Y-73570154D01*
X185403888Y-73614325D01*
X185361185Y-73650026D01*
X185343937Y-73659867D01*
X185318221Y-73667576D01*
X185280695Y-73672386D01*
X185236228Y-73674342D01*
X185189684Y-73673491D01*
X185145932Y-73669877D01*
X185109837Y-73663549D01*
X185091634Y-73657482D01*
X185063927Y-73641286D01*
X185038806Y-73621343D01*
X185034933Y-73617451D01*
X185020415Y-73600938D01*
X185009064Y-73584492D01*
X185000494Y-73565824D01*
X184994318Y-73542650D01*
X184990150Y-73512682D01*
X184987604Y-73473634D01*
X184986294Y-73423220D01*
X184985833Y-73359153D01*
X184985800Y-73326558D01*
X184985800Y-73122973D01*
X185013317Y-73134606D01*
X185065062Y-73157678D01*
X185101003Y-73176506D01*
X185121655Y-73191377D01*
X185126648Y-73197901D01*
X185129195Y-73210893D01*
X185131888Y-73237601D01*
X185134487Y-73274811D01*
X185136754Y-73319310D01*
X185137900Y-73349513D01*
X185139672Y-73400660D01*
X185141411Y-73437723D01*
X185143605Y-73463541D01*
X185146743Y-73480954D01*
X185151313Y-73492804D01*
X185157804Y-73501929D01*
X185165486Y-73509956D01*
X185195279Y-73529412D01*
X185227541Y-73532989D01*
X185258863Y-73520687D01*
X185271781Y-73509934D01*
X185294834Y-73486882D01*
X185294834Y-72353118D01*
X185271781Y-72330066D01*
X185241999Y-72310597D01*
X185209740Y-72307007D01*
X185178411Y-72319296D01*
X185165486Y-72330045D01*
X185142434Y-72353077D01*
X185138200Y-72534282D01*
X185133967Y-72715487D01*
X185073841Y-72687621D01*
X185044890Y-72673905D01*
X185023103Y-72661514D01*
X185007461Y-72647871D01*
X184996947Y-72630399D01*
X184990542Y-72606523D01*
X184987228Y-72573665D01*
X184985987Y-72529250D01*
X184985800Y-72470701D01*
X184985800Y-72464877D01*
X184986222Y-72401401D01*
X184987854Y-72352142D01*
X184991245Y-72314397D01*
X184996943Y-72285463D01*
X185005497Y-72262638D01*
X185017456Y-72243217D01*
X185033368Y-72224499D01*
X185034933Y-72222841D01*
X185059621Y-72199893D01*
X185085263Y-72183939D01*
X185115613Y-72173826D01*
X185154426Y-72168404D01*
X185205455Y-72166520D01*
X185218717Y-72166467D01*
X185269995Y-72167374D01*
X185269995Y-72167374D01*
G37*
X185269995Y-72167374D02*
X185308375Y-72170841D01*
X185337828Y-72177986D01*
X185362326Y-72189928D01*
X185385843Y-72207785D01*
X185395092Y-72216116D01*
X185415445Y-72239271D01*
X185433521Y-72266499D01*
X185435309Y-72269846D01*
X185438373Y-72276392D01*
X185441024Y-72284073D01*
X185443292Y-72294093D01*
X185445205Y-72307653D01*
X185446795Y-72325956D01*
X185448092Y-72350203D01*
X185449124Y-72381596D01*
X185449922Y-72421339D01*
X185450516Y-72470632D01*
X185450935Y-72530678D01*
X185451210Y-72602679D01*
X185451370Y-72687838D01*
X185451446Y-72787356D01*
X185451467Y-72902436D01*
X185451467Y-72920000D01*
X185451451Y-73037372D01*
X185451385Y-73139014D01*
X185451239Y-73226126D01*
X185450982Y-73299912D01*
X185450585Y-73361572D01*
X185450017Y-73412310D01*
X185449250Y-73453328D01*
X185448253Y-73485827D01*
X185446995Y-73511010D01*
X185445449Y-73530078D01*
X185443582Y-73544235D01*
X185441367Y-73554681D01*
X185438772Y-73562620D01*
X185435768Y-73569254D01*
X185435309Y-73570154D01*
X185403888Y-73614325D01*
X185361185Y-73650026D01*
X185343937Y-73659867D01*
X185318221Y-73667576D01*
X185280695Y-73672386D01*
X185236228Y-73674342D01*
X185189684Y-73673491D01*
X185145932Y-73669877D01*
X185109837Y-73663549D01*
X185091634Y-73657482D01*
X185063927Y-73641286D01*
X185038806Y-73621343D01*
X185034933Y-73617451D01*
X185020415Y-73600938D01*
X185009064Y-73584492D01*
X185000494Y-73565824D01*
X184994318Y-73542650D01*
X184990150Y-73512682D01*
X184987604Y-73473634D01*
X184986294Y-73423220D01*
X184985833Y-73359153D01*
X184985800Y-73326558D01*
X184985800Y-73122973D01*
X185013317Y-73134606D01*
X185065062Y-73157678D01*
X185101003Y-73176506D01*
X185121655Y-73191377D01*
X185126648Y-73197901D01*
X185129195Y-73210893D01*
X185131888Y-73237601D01*
X185134487Y-73274811D01*
X185136754Y-73319310D01*
X185137900Y-73349513D01*
X185139672Y-73400660D01*
X185141411Y-73437723D01*
X185143605Y-73463541D01*
X185146743Y-73480954D01*
X185151313Y-73492804D01*
X185157804Y-73501929D01*
X185165486Y-73509956D01*
X185195279Y-73529412D01*
X185227541Y-73532989D01*
X185258863Y-73520687D01*
X185271781Y-73509934D01*
X185294834Y-73486882D01*
X185294834Y-72353118D01*
X185271781Y-72330066D01*
X185241999Y-72310597D01*
X185209740Y-72307007D01*
X185178411Y-72319296D01*
X185165486Y-72330045D01*
X185142434Y-72353077D01*
X185138200Y-72534282D01*
X185133967Y-72715487D01*
X185073841Y-72687621D01*
X185044890Y-72673905D01*
X185023103Y-72661514D01*
X185007461Y-72647871D01*
X184996947Y-72630399D01*
X184990542Y-72606523D01*
X184987228Y-72573665D01*
X184985987Y-72529250D01*
X184985800Y-72470701D01*
X184985800Y-72464877D01*
X184986222Y-72401401D01*
X184987854Y-72352142D01*
X184991245Y-72314397D01*
X184996943Y-72285463D01*
X185005497Y-72262638D01*
X185017456Y-72243217D01*
X185033368Y-72224499D01*
X185034933Y-72222841D01*
X185059621Y-72199893D01*
X185085263Y-72183939D01*
X185115613Y-72173826D01*
X185154426Y-72168404D01*
X185205455Y-72166520D01*
X185218717Y-72166467D01*
X185269995Y-72167374D01*
G36*
X187595042Y-72167615D02*
X187635164Y-72171885D01*
X187666298Y-72180508D01*
X187692361Y-72194717D01*
X187717273Y-72215748D01*
X187725832Y-72224315D01*
X187735882Y-72234791D01*
X187744599Y-72244901D01*
X187752080Y-72255865D01*
X187758417Y-72268905D01*
X187763707Y-72285240D01*
X187768044Y-72306092D01*
X187771522Y-72332682D01*
X187774236Y-72366230D01*
X187776280Y-72407957D01*
X187777751Y-72459084D01*
X187778741Y-72520832D01*
X187779347Y-72594421D01*
X187779662Y-72681072D01*
X187779782Y-72782007D01*
X187779800Y-72898445D01*
X187779800Y-72920000D01*
X187779789Y-73039212D01*
X187779694Y-73142711D01*
X187779419Y-73231719D01*
X187778870Y-73307455D01*
X187777952Y-73371141D01*
X187776570Y-73423998D01*
X187774630Y-73467247D01*
X187772037Y-73502107D01*
X187768697Y-73529800D01*
X187764514Y-73551547D01*
X187759394Y-73568569D01*
X187753242Y-73582085D01*
X187745964Y-73593318D01*
X187737464Y-73603487D01*
X187727649Y-73613814D01*
X187725832Y-73615685D01*
X187700532Y-73639151D01*
X187675380Y-73655432D01*
X187646474Y-73665751D01*
X187609911Y-73671334D01*
X187561788Y-73673405D01*
X187541454Y-73673526D01*
X187496543Y-73673023D01*
X187464295Y-73671137D01*
X187440462Y-73667291D01*
X187420792Y-73660912D01*
X187409193Y-73655614D01*
X187367430Y-73626772D01*
X187334376Y-73587782D01*
X187315331Y-73547191D01*
X187312250Y-73527687D01*
X187309762Y-73491668D01*
X187307864Y-73439047D01*
X187306553Y-73369738D01*
X187305828Y-73283657D01*
X187305667Y-73208616D01*
X187305667Y-72902297D01*
X187326449Y-72881515D01*
X187335591Y-72873157D01*
X187345483Y-72867404D01*
X187359289Y-72863771D01*
X187380173Y-72861771D01*
X187411299Y-72860921D01*
X187455833Y-72860734D01*
X187461915Y-72860733D01*
X187503739Y-72861173D01*
X187538691Y-72862380D01*
X187563700Y-72864183D01*
X187575699Y-72866412D01*
X187576310Y-72867083D01*
X187571512Y-72882448D01*
X187559677Y-72906876D01*
X187543351Y-72936156D01*
X187525077Y-72966076D01*
X187507400Y-72992424D01*
X187492865Y-73010988D01*
X187485584Y-73017258D01*
X187466534Y-73025615D01*
X187466534Y-73252764D01*
X187466864Y-73324746D01*
X187467823Y-73386072D01*
X187469360Y-73435334D01*
X187471424Y-73471122D01*
X187473965Y-73492025D01*
X187475251Y-73496202D01*
X187490928Y-73513150D01*
X187515211Y-73528415D01*
X187540042Y-73537318D01*
X187547393Y-73538067D01*
X187561341Y-73532409D01*
X187580677Y-73518079D01*
X187590147Y-73509280D01*
X187618934Y-73480493D01*
X187618934Y-72359506D01*
X187589124Y-72329697D01*
X187569148Y-72311649D01*
X187553505Y-72304173D01*
X187535959Y-72304612D01*
X187532003Y-72305349D01*
X187506989Y-72314563D01*
X187487730Y-72327755D01*
X187482186Y-72334369D01*
X187477903Y-72343226D01*
X187474651Y-72356576D01*
X187472198Y-72376668D01*
X187470313Y-72405755D01*
X187468767Y-72446086D01*
X187467327Y-72499911D01*
X187466534Y-72534478D01*
X187462300Y-72724259D01*
X187394479Y-72692366D01*
X187355719Y-72672520D01*
X187330824Y-72655582D01*
X187317367Y-72639849D01*
X187316162Y-72637438D01*
X187312167Y-72619792D01*
X187309101Y-72588791D01*
X187306973Y-72547990D01*
X187305793Y-72500940D01*
X187305569Y-72451197D01*
X187306309Y-72402314D01*
X187308022Y-72357845D01*
X187310716Y-72321342D01*
X187314400Y-72296361D01*
X187315331Y-72292809D01*
X187336591Y-72248851D01*
X187370440Y-72210565D01*
X187409930Y-72184160D01*
X187429624Y-72176010D01*
X187451134Y-72170749D01*
X187478749Y-72167803D01*
X187516759Y-72166597D01*
X187542010Y-72166467D01*
X187595042Y-72167615D01*
X187595042Y-72167615D01*
G37*
X187595042Y-72167615D02*
X187635164Y-72171885D01*
X187666298Y-72180508D01*
X187692361Y-72194717D01*
X187717273Y-72215748D01*
X187725832Y-72224315D01*
X187735882Y-72234791D01*
X187744599Y-72244901D01*
X187752080Y-72255865D01*
X187758417Y-72268905D01*
X187763707Y-72285240D01*
X187768044Y-72306092D01*
X187771522Y-72332682D01*
X187774236Y-72366230D01*
X187776280Y-72407957D01*
X187777751Y-72459084D01*
X187778741Y-72520832D01*
X187779347Y-72594421D01*
X187779662Y-72681072D01*
X187779782Y-72782007D01*
X187779800Y-72898445D01*
X187779800Y-72920000D01*
X187779789Y-73039212D01*
X187779694Y-73142711D01*
X187779419Y-73231719D01*
X187778870Y-73307455D01*
X187777952Y-73371141D01*
X187776570Y-73423998D01*
X187774630Y-73467247D01*
X187772037Y-73502107D01*
X187768697Y-73529800D01*
X187764514Y-73551547D01*
X187759394Y-73568569D01*
X187753242Y-73582085D01*
X187745964Y-73593318D01*
X187737464Y-73603487D01*
X187727649Y-73613814D01*
X187725832Y-73615685D01*
X187700532Y-73639151D01*
X187675380Y-73655432D01*
X187646474Y-73665751D01*
X187609911Y-73671334D01*
X187561788Y-73673405D01*
X187541454Y-73673526D01*
X187496543Y-73673023D01*
X187464295Y-73671137D01*
X187440462Y-73667291D01*
X187420792Y-73660912D01*
X187409193Y-73655614D01*
X187367430Y-73626772D01*
X187334376Y-73587782D01*
X187315331Y-73547191D01*
X187312250Y-73527687D01*
X187309762Y-73491668D01*
X187307864Y-73439047D01*
X187306553Y-73369738D01*
X187305828Y-73283657D01*
X187305667Y-73208616D01*
X187305667Y-72902297D01*
X187326449Y-72881515D01*
X187335591Y-72873157D01*
X187345483Y-72867404D01*
X187359289Y-72863771D01*
X187380173Y-72861771D01*
X187411299Y-72860921D01*
X187455833Y-72860734D01*
X187461915Y-72860733D01*
X187503739Y-72861173D01*
X187538691Y-72862380D01*
X187563700Y-72864183D01*
X187575699Y-72866412D01*
X187576310Y-72867083D01*
X187571512Y-72882448D01*
X187559677Y-72906876D01*
X187543351Y-72936156D01*
X187525077Y-72966076D01*
X187507400Y-72992424D01*
X187492865Y-73010988D01*
X187485584Y-73017258D01*
X187466534Y-73025615D01*
X187466534Y-73252764D01*
X187466864Y-73324746D01*
X187467823Y-73386072D01*
X187469360Y-73435334D01*
X187471424Y-73471122D01*
X187473965Y-73492025D01*
X187475251Y-73496202D01*
X187490928Y-73513150D01*
X187515211Y-73528415D01*
X187540042Y-73537318D01*
X187547393Y-73538067D01*
X187561341Y-73532409D01*
X187580677Y-73518079D01*
X187590147Y-73509280D01*
X187618934Y-73480493D01*
X187618934Y-72359506D01*
X187589124Y-72329697D01*
X187569148Y-72311649D01*
X187553505Y-72304173D01*
X187535959Y-72304612D01*
X187532003Y-72305349D01*
X187506989Y-72314563D01*
X187487730Y-72327755D01*
X187482186Y-72334369D01*
X187477903Y-72343226D01*
X187474651Y-72356576D01*
X187472198Y-72376668D01*
X187470313Y-72405755D01*
X187468767Y-72446086D01*
X187467327Y-72499911D01*
X187466534Y-72534478D01*
X187462300Y-72724259D01*
X187394479Y-72692366D01*
X187355719Y-72672520D01*
X187330824Y-72655582D01*
X187317367Y-72639849D01*
X187316162Y-72637438D01*
X187312167Y-72619792D01*
X187309101Y-72588791D01*
X187306973Y-72547990D01*
X187305793Y-72500940D01*
X187305569Y-72451197D01*
X187306309Y-72402314D01*
X187308022Y-72357845D01*
X187310716Y-72321342D01*
X187314400Y-72296361D01*
X187315331Y-72292809D01*
X187336591Y-72248851D01*
X187370440Y-72210565D01*
X187409930Y-72184160D01*
X187429624Y-72176010D01*
X187451134Y-72170749D01*
X187478749Y-72167803D01*
X187516759Y-72166597D01*
X187542010Y-72166467D01*
X187595042Y-72167615D01*
G36*
X189016052Y-72174067D02*
X189025375Y-72178110D01*
X189033083Y-72186030D01*
X189039335Y-72198915D01*
X189044289Y-72217851D01*
X189048103Y-72243927D01*
X189050937Y-72278228D01*
X189052950Y-72321842D01*
X189054299Y-72375857D01*
X189055144Y-72441358D01*
X189055643Y-72519433D01*
X189055955Y-72611170D01*
X189056239Y-72717655D01*
X189056653Y-72839975D01*
X189056657Y-72840999D01*
X189057116Y-72980442D01*
X189057280Y-73103288D01*
X189057147Y-73209869D01*
X189056714Y-73300518D01*
X189055977Y-73375569D01*
X189054934Y-73435355D01*
X189053580Y-73480208D01*
X189051913Y-73510462D01*
X189050066Y-73525846D01*
X189031233Y-73574817D01*
X188998659Y-73617211D01*
X188955312Y-73649202D01*
X188953731Y-73650037D01*
X188932252Y-73659315D01*
X188907596Y-73665296D01*
X188875068Y-73668781D01*
X188833900Y-73670477D01*
X188793165Y-73670637D01*
X188754662Y-73669320D01*
X188724257Y-73666785D01*
X188713897Y-73665137D01*
X188662085Y-73648522D01*
X188621737Y-73621594D01*
X188589281Y-73581667D01*
X188578774Y-73563467D01*
X188575900Y-73557416D01*
X188573389Y-73549996D01*
X188571211Y-73540069D01*
X188569337Y-73526497D01*
X188567738Y-73508142D01*
X188566385Y-73483866D01*
X188565249Y-73452532D01*
X188564300Y-73413002D01*
X188563509Y-73364138D01*
X188562848Y-73304803D01*
X188562287Y-73233858D01*
X188561797Y-73150165D01*
X188561348Y-73052587D01*
X188560912Y-72939987D01*
X188560609Y-72854383D01*
X188558250Y-72174933D01*
X188719294Y-72174933D01*
X188723834Y-73486887D01*
X188746604Y-73509654D01*
X188776269Y-73528330D01*
X188811102Y-73533917D01*
X188845527Y-73526415D01*
X188870397Y-73509654D01*
X188893167Y-73486887D01*
X188895436Y-72830910D01*
X188897706Y-72174933D01*
X188959435Y-72174933D01*
X188976805Y-72174336D01*
X188991926Y-72173267D01*
X189004955Y-72172816D01*
X189016052Y-72174067D01*
X189016052Y-72174067D01*
G37*
X189016052Y-72174067D02*
X189025375Y-72178110D01*
X189033083Y-72186030D01*
X189039335Y-72198915D01*
X189044289Y-72217851D01*
X189048103Y-72243927D01*
X189050937Y-72278228D01*
X189052950Y-72321842D01*
X189054299Y-72375857D01*
X189055144Y-72441358D01*
X189055643Y-72519433D01*
X189055955Y-72611170D01*
X189056239Y-72717655D01*
X189056653Y-72839975D01*
X189056657Y-72840999D01*
X189057116Y-72980442D01*
X189057280Y-73103288D01*
X189057147Y-73209869D01*
X189056714Y-73300518D01*
X189055977Y-73375569D01*
X189054934Y-73435355D01*
X189053580Y-73480208D01*
X189051913Y-73510462D01*
X189050066Y-73525846D01*
X189031233Y-73574817D01*
X188998659Y-73617211D01*
X188955312Y-73649202D01*
X188953731Y-73650037D01*
X188932252Y-73659315D01*
X188907596Y-73665296D01*
X188875068Y-73668781D01*
X188833900Y-73670477D01*
X188793165Y-73670637D01*
X188754662Y-73669320D01*
X188724257Y-73666785D01*
X188713897Y-73665137D01*
X188662085Y-73648522D01*
X188621737Y-73621594D01*
X188589281Y-73581667D01*
X188578774Y-73563467D01*
X188575900Y-73557416D01*
X188573389Y-73549996D01*
X188571211Y-73540069D01*
X188569337Y-73526497D01*
X188567738Y-73508142D01*
X188566385Y-73483866D01*
X188565249Y-73452532D01*
X188564300Y-73413002D01*
X188563509Y-73364138D01*
X188562848Y-73304803D01*
X188562287Y-73233858D01*
X188561797Y-73150165D01*
X188561348Y-73052587D01*
X188560912Y-72939987D01*
X188560609Y-72854383D01*
X188558250Y-72174933D01*
X188719294Y-72174933D01*
X188723834Y-73486887D01*
X188746604Y-73509654D01*
X188776269Y-73528330D01*
X188811102Y-73533917D01*
X188845527Y-73526415D01*
X188870397Y-73509654D01*
X188893167Y-73486887D01*
X188895436Y-72830910D01*
X188897706Y-72174933D01*
X188959435Y-72174933D01*
X188976805Y-72174336D01*
X188991926Y-72173267D01*
X189004955Y-72172816D01*
X189016052Y-72174067D01*
G36*
X193927880Y-72198047D02*
X193967129Y-72234557D01*
X193987146Y-72265781D01*
X194007033Y-72306167D01*
X194009692Y-72894600D01*
X194010172Y-73026745D01*
X194010337Y-73142414D01*
X194010184Y-73242060D01*
X194009708Y-73326137D01*
X194008904Y-73395099D01*
X194007766Y-73449399D01*
X194006290Y-73489492D01*
X194004472Y-73515832D01*
X194002982Y-73526380D01*
X193985376Y-73572076D01*
X193955043Y-73614324D01*
X193916094Y-73647883D01*
X193900628Y-73656892D01*
X193883924Y-73664079D01*
X193864739Y-73668902D01*
X193839395Y-73671794D01*
X193804212Y-73673190D01*
X193759721Y-73673526D01*
X193712652Y-73673159D01*
X193678674Y-73671744D01*
X193653954Y-73668804D01*
X193634658Y-73663863D01*
X193616954Y-73656443D01*
X193615058Y-73655514D01*
X193587769Y-73638304D01*
X193563750Y-73617161D01*
X193558170Y-73610615D01*
X193549481Y-73599323D01*
X193541949Y-73588998D01*
X193535490Y-73578408D01*
X193530022Y-73566322D01*
X193525464Y-73551508D01*
X193521731Y-73532736D01*
X193518743Y-73508772D01*
X193516417Y-73478386D01*
X193514669Y-73440347D01*
X193513419Y-73393423D01*
X193512582Y-73336382D01*
X193512077Y-73267994D01*
X193511822Y-73187026D01*
X193511734Y-73092247D01*
X193511730Y-72982425D01*
X193511731Y-72950332D01*
X193671580Y-72950332D01*
X193671779Y-73036367D01*
X193672260Y-73120037D01*
X193673023Y-73199589D01*
X193674069Y-73273274D01*
X193675399Y-73339339D01*
X193677013Y-73396035D01*
X193678912Y-73441611D01*
X193681097Y-73474315D01*
X193683568Y-73492397D01*
X193684415Y-73494801D01*
X193707098Y-73519987D01*
X193737851Y-73533440D01*
X193772108Y-73534702D01*
X193805302Y-73523312D01*
X193824175Y-73508876D01*
X193846167Y-73486888D01*
X193850751Y-72362916D01*
X193828899Y-72336946D01*
X193800923Y-72314596D01*
X193768075Y-72304602D01*
X193734753Y-72306716D01*
X193705353Y-72320692D01*
X193684901Y-72345039D01*
X193682327Y-72358436D01*
X193680027Y-72386976D01*
X193678001Y-72428908D01*
X193676252Y-72482481D01*
X193674778Y-72545945D01*
X193673581Y-72617547D01*
X193672663Y-72695538D01*
X193672022Y-72778166D01*
X193671661Y-72863681D01*
X193671580Y-72950332D01*
X193511731Y-72950332D01*
X193511733Y-72917005D01*
X193511733Y-72312333D01*
X193535384Y-72267061D01*
X193563307Y-72225983D01*
X193595380Y-72196244D01*
X193631726Y-72170700D01*
X193888500Y-72170700D01*
X193927880Y-72198047D01*
X193927880Y-72198047D01*
G37*
X193927880Y-72198047D02*
X193967129Y-72234557D01*
X193987146Y-72265781D01*
X194007033Y-72306167D01*
X194009692Y-72894600D01*
X194010172Y-73026745D01*
X194010337Y-73142414D01*
X194010184Y-73242060D01*
X194009708Y-73326137D01*
X194008904Y-73395099D01*
X194007766Y-73449399D01*
X194006290Y-73489492D01*
X194004472Y-73515832D01*
X194002982Y-73526380D01*
X193985376Y-73572076D01*
X193955043Y-73614324D01*
X193916094Y-73647883D01*
X193900628Y-73656892D01*
X193883924Y-73664079D01*
X193864739Y-73668902D01*
X193839395Y-73671794D01*
X193804212Y-73673190D01*
X193759721Y-73673526D01*
X193712652Y-73673159D01*
X193678674Y-73671744D01*
X193653954Y-73668804D01*
X193634658Y-73663863D01*
X193616954Y-73656443D01*
X193615058Y-73655514D01*
X193587769Y-73638304D01*
X193563750Y-73617161D01*
X193558170Y-73610615D01*
X193549481Y-73599323D01*
X193541949Y-73588998D01*
X193535490Y-73578408D01*
X193530022Y-73566322D01*
X193525464Y-73551508D01*
X193521731Y-73532736D01*
X193518743Y-73508772D01*
X193516417Y-73478386D01*
X193514669Y-73440347D01*
X193513419Y-73393423D01*
X193512582Y-73336382D01*
X193512077Y-73267994D01*
X193511822Y-73187026D01*
X193511734Y-73092247D01*
X193511730Y-72982425D01*
X193511731Y-72950332D01*
X193671580Y-72950332D01*
X193671779Y-73036367D01*
X193672260Y-73120037D01*
X193673023Y-73199589D01*
X193674069Y-73273274D01*
X193675399Y-73339339D01*
X193677013Y-73396035D01*
X193678912Y-73441611D01*
X193681097Y-73474315D01*
X193683568Y-73492397D01*
X193684415Y-73494801D01*
X193707098Y-73519987D01*
X193737851Y-73533440D01*
X193772108Y-73534702D01*
X193805302Y-73523312D01*
X193824175Y-73508876D01*
X193846167Y-73486888D01*
X193850751Y-72362916D01*
X193828899Y-72336946D01*
X193800923Y-72314596D01*
X193768075Y-72304602D01*
X193734753Y-72306716D01*
X193705353Y-72320692D01*
X193684901Y-72345039D01*
X193682327Y-72358436D01*
X193680027Y-72386976D01*
X193678001Y-72428908D01*
X193676252Y-72482481D01*
X193674778Y-72545945D01*
X193673581Y-72617547D01*
X193672663Y-72695538D01*
X193672022Y-72778166D01*
X193671661Y-72863681D01*
X193671580Y-72950332D01*
X193511731Y-72950332D01*
X193511733Y-72917005D01*
X193511733Y-72312333D01*
X193535384Y-72267061D01*
X193563307Y-72225983D01*
X193595380Y-72196244D01*
X193631726Y-72170700D01*
X193888500Y-72170700D01*
X193927880Y-72198047D01*
G36*
X195097107Y-72168764D02*
X195131614Y-72174396D01*
X195148337Y-72180133D01*
X195193813Y-72211463D01*
X195229946Y-72253167D01*
X195239709Y-72269846D01*
X195242773Y-72276392D01*
X195245424Y-72284073D01*
X195247692Y-72294093D01*
X195249605Y-72307653D01*
X195251195Y-72325956D01*
X195252492Y-72350203D01*
X195253524Y-72381596D01*
X195254322Y-72421339D01*
X195254916Y-72470632D01*
X195255335Y-72530678D01*
X195255610Y-72602679D01*
X195255770Y-72687838D01*
X195255846Y-72787356D01*
X195255867Y-72902436D01*
X195255867Y-72920000D01*
X195255851Y-73037372D01*
X195255785Y-73139014D01*
X195255639Y-73226126D01*
X195255382Y-73299912D01*
X195254985Y-73361572D01*
X195254417Y-73412310D01*
X195253650Y-73453328D01*
X195252653Y-73485827D01*
X195251395Y-73511010D01*
X195249849Y-73530078D01*
X195247982Y-73544235D01*
X195245767Y-73554681D01*
X195243172Y-73562620D01*
X195240168Y-73569254D01*
X195239709Y-73570154D01*
X195222602Y-73597045D01*
X195202050Y-73621424D01*
X195199492Y-73623883D01*
X195174971Y-73644456D01*
X195150888Y-73658545D01*
X195123188Y-73667305D01*
X195087820Y-73671894D01*
X195040730Y-73673468D01*
X195025571Y-73673526D01*
X194980678Y-73673013D01*
X194948443Y-73671096D01*
X194924608Y-73667200D01*
X194904917Y-73660749D01*
X194893931Y-73655715D01*
X194849735Y-73624988D01*
X194814879Y-73582955D01*
X194801617Y-73557388D01*
X194798479Y-73546174D01*
X194795930Y-73527999D01*
X194793919Y-73501383D01*
X194792397Y-73464842D01*
X194791315Y-73416896D01*
X194790623Y-73356061D01*
X194790271Y-73280856D01*
X194790200Y-73216220D01*
X194790200Y-72902297D01*
X194810982Y-72881515D01*
X194820124Y-72873157D01*
X194830016Y-72867404D01*
X194843822Y-72863771D01*
X194864706Y-72861771D01*
X194895833Y-72860921D01*
X194940366Y-72860734D01*
X194946449Y-72860733D01*
X194988273Y-72861173D01*
X195023224Y-72862380D01*
X195048234Y-72864183D01*
X195060233Y-72866412D01*
X195060843Y-72867083D01*
X195056045Y-72882448D01*
X195044211Y-72906876D01*
X195027884Y-72936156D01*
X195009610Y-72966076D01*
X194991934Y-72992424D01*
X194977399Y-73010988D01*
X194970117Y-73017258D01*
X194951067Y-73025615D01*
X194951067Y-73255969D01*
X194951095Y-73324341D01*
X194951287Y-73377845D01*
X194951808Y-73418544D01*
X194952820Y-73448504D01*
X194954486Y-73469787D01*
X194956970Y-73484460D01*
X194960436Y-73494585D01*
X194965046Y-73502229D01*
X194970964Y-73509454D01*
X194971136Y-73509654D01*
X194997625Y-73529057D01*
X195028293Y-73533606D01*
X195059175Y-73523288D01*
X195076181Y-73509934D01*
X195099233Y-73486882D01*
X195099233Y-72351344D01*
X195070640Y-72325796D01*
X195049451Y-72309500D01*
X195031690Y-72303984D01*
X195015636Y-72305529D01*
X194990793Y-72314865D01*
X194972263Y-72327755D01*
X194966729Y-72334355D01*
X194962452Y-72343192D01*
X194959202Y-72356510D01*
X194956750Y-72376555D01*
X194954866Y-72405573D01*
X194953320Y-72445808D01*
X194951885Y-72499506D01*
X194951067Y-72535212D01*
X194946833Y-72725727D01*
X194877605Y-72692235D01*
X194845644Y-72675433D01*
X194819234Y-72659075D01*
X194802476Y-72645804D01*
X194799289Y-72641762D01*
X194795526Y-72625930D01*
X194792725Y-72596577D01*
X194790864Y-72557089D01*
X194789922Y-72510849D01*
X194789876Y-72461242D01*
X194790705Y-72411653D01*
X194792386Y-72365466D01*
X194794897Y-72326064D01*
X194798217Y-72296834D01*
X194801617Y-72282611D01*
X194826178Y-72240814D01*
X194860335Y-72205066D01*
X194895683Y-72182381D01*
X194923653Y-72174231D01*
X194962630Y-72168751D01*
X195007765Y-72165986D01*
X195054208Y-72165976D01*
X195097107Y-72168764D01*
X195097107Y-72168764D01*
G37*
X195097107Y-72168764D02*
X195131614Y-72174396D01*
X195148337Y-72180133D01*
X195193813Y-72211463D01*
X195229946Y-72253167D01*
X195239709Y-72269846D01*
X195242773Y-72276392D01*
X195245424Y-72284073D01*
X195247692Y-72294093D01*
X195249605Y-72307653D01*
X195251195Y-72325956D01*
X195252492Y-72350203D01*
X195253524Y-72381596D01*
X195254322Y-72421339D01*
X195254916Y-72470632D01*
X195255335Y-72530678D01*
X195255610Y-72602679D01*
X195255770Y-72687838D01*
X195255846Y-72787356D01*
X195255867Y-72902436D01*
X195255867Y-72920000D01*
X195255851Y-73037372D01*
X195255785Y-73139014D01*
X195255639Y-73226126D01*
X195255382Y-73299912D01*
X195254985Y-73361572D01*
X195254417Y-73412310D01*
X195253650Y-73453328D01*
X195252653Y-73485827D01*
X195251395Y-73511010D01*
X195249849Y-73530078D01*
X195247982Y-73544235D01*
X195245767Y-73554681D01*
X195243172Y-73562620D01*
X195240168Y-73569254D01*
X195239709Y-73570154D01*
X195222602Y-73597045D01*
X195202050Y-73621424D01*
X195199492Y-73623883D01*
X195174971Y-73644456D01*
X195150888Y-73658545D01*
X195123188Y-73667305D01*
X195087820Y-73671894D01*
X195040730Y-73673468D01*
X195025571Y-73673526D01*
X194980678Y-73673013D01*
X194948443Y-73671096D01*
X194924608Y-73667200D01*
X194904917Y-73660749D01*
X194893931Y-73655715D01*
X194849735Y-73624988D01*
X194814879Y-73582955D01*
X194801617Y-73557388D01*
X194798479Y-73546174D01*
X194795930Y-73527999D01*
X194793919Y-73501383D01*
X194792397Y-73464842D01*
X194791315Y-73416896D01*
X194790623Y-73356061D01*
X194790271Y-73280856D01*
X194790200Y-73216220D01*
X194790200Y-72902297D01*
X194810982Y-72881515D01*
X194820124Y-72873157D01*
X194830016Y-72867404D01*
X194843822Y-72863771D01*
X194864706Y-72861771D01*
X194895833Y-72860921D01*
X194940366Y-72860734D01*
X194946449Y-72860733D01*
X194988273Y-72861173D01*
X195023224Y-72862380D01*
X195048234Y-72864183D01*
X195060233Y-72866412D01*
X195060843Y-72867083D01*
X195056045Y-72882448D01*
X195044211Y-72906876D01*
X195027884Y-72936156D01*
X195009610Y-72966076D01*
X194991934Y-72992424D01*
X194977399Y-73010988D01*
X194970117Y-73017258D01*
X194951067Y-73025615D01*
X194951067Y-73255969D01*
X194951095Y-73324341D01*
X194951287Y-73377845D01*
X194951808Y-73418544D01*
X194952820Y-73448504D01*
X194954486Y-73469787D01*
X194956970Y-73484460D01*
X194960436Y-73494585D01*
X194965046Y-73502229D01*
X194970964Y-73509454D01*
X194971136Y-73509654D01*
X194997625Y-73529057D01*
X195028293Y-73533606D01*
X195059175Y-73523288D01*
X195076181Y-73509934D01*
X195099233Y-73486882D01*
X195099233Y-72351344D01*
X195070640Y-72325796D01*
X195049451Y-72309500D01*
X195031690Y-72303984D01*
X195015636Y-72305529D01*
X194990793Y-72314865D01*
X194972263Y-72327755D01*
X194966729Y-72334355D01*
X194962452Y-72343192D01*
X194959202Y-72356510D01*
X194956750Y-72376555D01*
X194954866Y-72405573D01*
X194953320Y-72445808D01*
X194951885Y-72499506D01*
X194951067Y-72535212D01*
X194946833Y-72725727D01*
X194877605Y-72692235D01*
X194845644Y-72675433D01*
X194819234Y-72659075D01*
X194802476Y-72645804D01*
X194799289Y-72641762D01*
X194795526Y-72625930D01*
X194792725Y-72596577D01*
X194790864Y-72557089D01*
X194789922Y-72510849D01*
X194789876Y-72461242D01*
X194790705Y-72411653D01*
X194792386Y-72365466D01*
X194794897Y-72326064D01*
X194798217Y-72296834D01*
X194801617Y-72282611D01*
X194826178Y-72240814D01*
X194860335Y-72205066D01*
X194895683Y-72182381D01*
X194923653Y-72174231D01*
X194962630Y-72168751D01*
X195007765Y-72165986D01*
X195054208Y-72165976D01*
X195097107Y-72168764D01*
G36*
X167459800Y-73665067D02*
X167298934Y-73665067D01*
X167298934Y-73030066D01*
X167245376Y-73030066D01*
X167214310Y-73030992D01*
X167194433Y-73034886D01*
X167180051Y-73043429D01*
X167171293Y-73051905D01*
X167150767Y-73073744D01*
X167148338Y-73369405D01*
X167145908Y-73665067D01*
X166984732Y-73665067D01*
X166987316Y-73345450D01*
X166988013Y-73263282D01*
X166988712Y-73196263D01*
X166989520Y-73142611D01*
X166990541Y-73100543D01*
X166991881Y-73068274D01*
X166993646Y-73044022D01*
X166995942Y-73026003D01*
X166998873Y-73012434D01*
X167002545Y-73001532D01*
X167007064Y-72991514D01*
X167008415Y-72988784D01*
X167026931Y-72951734D01*
X167008415Y-72926695D01*
X167003481Y-72919598D01*
X166999512Y-72911848D01*
X166996403Y-72901641D01*
X166994048Y-72887170D01*
X166992344Y-72866631D01*
X166991185Y-72838218D01*
X166990466Y-72800125D01*
X166990082Y-72750549D01*
X166989928Y-72687682D01*
X166989901Y-72612064D01*
X167146236Y-72612064D01*
X167146832Y-72667830D01*
X167148034Y-72720122D01*
X167149835Y-72766045D01*
X167152226Y-72802700D01*
X167155196Y-72827192D01*
X167157409Y-72835166D01*
X167177384Y-72858952D01*
X167209004Y-72872863D01*
X167253733Y-72877539D01*
X167254484Y-72877542D01*
X167298934Y-72877667D01*
X167298934Y-72327333D01*
X167252765Y-72327333D01*
X167208450Y-72330860D01*
X167177730Y-72341962D01*
X167158687Y-72361418D01*
X167155934Y-72366765D01*
X167152692Y-72382533D01*
X167150113Y-72412209D01*
X167148187Y-72452898D01*
X167146905Y-72501701D01*
X167146258Y-72555722D01*
X167146236Y-72612064D01*
X166989901Y-72612064D01*
X166989900Y-72609721D01*
X166989900Y-72608145D01*
X166989935Y-72529746D01*
X166990109Y-72466420D01*
X166990525Y-72416309D01*
X166991287Y-72377551D01*
X166992498Y-72348288D01*
X166994262Y-72326660D01*
X166996683Y-72310806D01*
X166999864Y-72298868D01*
X167003908Y-72288984D01*
X167008126Y-72280766D01*
X167036768Y-72239263D01*
X167074481Y-72207459D01*
X167095734Y-72194974D01*
X167108257Y-72189376D01*
X167123718Y-72185136D01*
X167144704Y-72182009D01*
X167173807Y-72179752D01*
X167213615Y-72178120D01*
X167266718Y-72176868D01*
X167292584Y-72176414D01*
X167459800Y-72173662D01*
X167459800Y-73665067D01*
X167459800Y-73665067D01*
G37*
X167459800Y-73665067D02*
X167298934Y-73665067D01*
X167298934Y-73030066D01*
X167245376Y-73030066D01*
X167214310Y-73030992D01*
X167194433Y-73034886D01*
X167180051Y-73043429D01*
X167171293Y-73051905D01*
X167150767Y-73073744D01*
X167148338Y-73369405D01*
X167145908Y-73665067D01*
X166984732Y-73665067D01*
X166987316Y-73345450D01*
X166988013Y-73263282D01*
X166988712Y-73196263D01*
X166989520Y-73142611D01*
X166990541Y-73100543D01*
X166991881Y-73068274D01*
X166993646Y-73044022D01*
X166995942Y-73026003D01*
X166998873Y-73012434D01*
X167002545Y-73001532D01*
X167007064Y-72991514D01*
X167008415Y-72988784D01*
X167026931Y-72951734D01*
X167008415Y-72926695D01*
X167003481Y-72919598D01*
X166999512Y-72911848D01*
X166996403Y-72901641D01*
X166994048Y-72887170D01*
X166992344Y-72866631D01*
X166991185Y-72838218D01*
X166990466Y-72800125D01*
X166990082Y-72750549D01*
X166989928Y-72687682D01*
X166989901Y-72612064D01*
X167146236Y-72612064D01*
X167146832Y-72667830D01*
X167148034Y-72720122D01*
X167149835Y-72766045D01*
X167152226Y-72802700D01*
X167155196Y-72827192D01*
X167157409Y-72835166D01*
X167177384Y-72858952D01*
X167209004Y-72872863D01*
X167253733Y-72877539D01*
X167254484Y-72877542D01*
X167298934Y-72877667D01*
X167298934Y-72327333D01*
X167252765Y-72327333D01*
X167208450Y-72330860D01*
X167177730Y-72341962D01*
X167158687Y-72361418D01*
X167155934Y-72366765D01*
X167152692Y-72382533D01*
X167150113Y-72412209D01*
X167148187Y-72452898D01*
X167146905Y-72501701D01*
X167146258Y-72555722D01*
X167146236Y-72612064D01*
X166989901Y-72612064D01*
X166989900Y-72609721D01*
X166989900Y-72608145D01*
X166989935Y-72529746D01*
X166990109Y-72466420D01*
X166990525Y-72416309D01*
X166991287Y-72377551D01*
X166992498Y-72348288D01*
X166994262Y-72326660D01*
X166996683Y-72310806D01*
X166999864Y-72298868D01*
X167003908Y-72288984D01*
X167008126Y-72280766D01*
X167036768Y-72239263D01*
X167074481Y-72207459D01*
X167095734Y-72194974D01*
X167108257Y-72189376D01*
X167123718Y-72185136D01*
X167144704Y-72182009D01*
X167173807Y-72179752D01*
X167213615Y-72178120D01*
X167266718Y-72176868D01*
X167292584Y-72176414D01*
X167459800Y-72173662D01*
X167459800Y-73665067D01*
G36*
X169830467Y-73550449D02*
X169829464Y-73596499D01*
X169824969Y-73628281D01*
X169814752Y-73648410D01*
X169796585Y-73659505D01*
X169768236Y-73664182D01*
X169732823Y-73665067D01*
X169669046Y-73665067D01*
X169671440Y-73569817D01*
X169673833Y-73474567D01*
X169752150Y-73472132D01*
X169830467Y-73469698D01*
X169830467Y-73550449D01*
X169830467Y-73550449D01*
G37*
X169830467Y-73550449D02*
X169829464Y-73596499D01*
X169824969Y-73628281D01*
X169814752Y-73648410D01*
X169796585Y-73659505D01*
X169768236Y-73664182D01*
X169732823Y-73665067D01*
X169669046Y-73665067D01*
X169671440Y-73569817D01*
X169673833Y-73474567D01*
X169752150Y-73472132D01*
X169830467Y-73469698D01*
X169830467Y-73550449D01*
G36*
X170796613Y-72175086D02*
X170848083Y-72175625D01*
X170886764Y-72176673D01*
X170914727Y-72178351D01*
X170934045Y-72180780D01*
X170946787Y-72184083D01*
X170954650Y-72188113D01*
X170973467Y-72201293D01*
X170973467Y-73665067D01*
X170793550Y-73664735D01*
X170727863Y-73664316D01*
X170677042Y-73663247D01*
X170639027Y-73661405D01*
X170611759Y-73658667D01*
X170593178Y-73654909D01*
X170585667Y-73652255D01*
X170569327Y-73642530D01*
X170555152Y-73626813D01*
X170540288Y-73601345D01*
X170528517Y-73576941D01*
X170515042Y-73547231D01*
X170504860Y-73523746D01*
X170499666Y-73510429D01*
X170499334Y-73508988D01*
X170507361Y-73507478D01*
X170529686Y-73506164D01*
X170563673Y-73505126D01*
X170606687Y-73504444D01*
X170655967Y-73504200D01*
X170812600Y-73504200D01*
X170812600Y-73243427D01*
X170812402Y-73163435D01*
X170811777Y-73099174D01*
X170810680Y-73049445D01*
X170809066Y-73013049D01*
X170806891Y-72988789D01*
X170804109Y-72975465D01*
X170802440Y-72972493D01*
X170788502Y-72966951D01*
X170762361Y-72963347D01*
X170735179Y-72962333D01*
X170698051Y-72960167D01*
X170670326Y-72951934D01*
X170648665Y-72935031D01*
X170629728Y-72906857D01*
X170610243Y-72864967D01*
X170585300Y-72805700D01*
X170698950Y-72803344D01*
X170812600Y-72800989D01*
X170812600Y-72578554D01*
X170812352Y-72504593D01*
X170811573Y-72446328D01*
X170810208Y-72402530D01*
X170808204Y-72371969D01*
X170805507Y-72353413D01*
X170802440Y-72345960D01*
X170787915Y-72340585D01*
X170757755Y-72337161D01*
X170713163Y-72335816D01*
X170706957Y-72335800D01*
X170662232Y-72334961D01*
X170631327Y-72332187D01*
X170611199Y-72327095D01*
X170602868Y-72322656D01*
X170593182Y-72311158D01*
X170578969Y-72288945D01*
X170562681Y-72260558D01*
X170546771Y-72230536D01*
X170533690Y-72203419D01*
X170525889Y-72183747D01*
X170524734Y-72177974D01*
X170532817Y-72177131D01*
X170555533Y-72176378D01*
X170590581Y-72175748D01*
X170635661Y-72175277D01*
X170688472Y-72174997D01*
X170730283Y-72174933D01*
X170796613Y-72175086D01*
X170796613Y-72175086D01*
G37*
X170796613Y-72175086D02*
X170848083Y-72175625D01*
X170886764Y-72176673D01*
X170914727Y-72178351D01*
X170934045Y-72180780D01*
X170946787Y-72184083D01*
X170954650Y-72188113D01*
X170973467Y-72201293D01*
X170973467Y-73665067D01*
X170793550Y-73664735D01*
X170727863Y-73664316D01*
X170677042Y-73663247D01*
X170639027Y-73661405D01*
X170611759Y-73658667D01*
X170593178Y-73654909D01*
X170585667Y-73652255D01*
X170569327Y-73642530D01*
X170555152Y-73626813D01*
X170540288Y-73601345D01*
X170528517Y-73576941D01*
X170515042Y-73547231D01*
X170504860Y-73523746D01*
X170499666Y-73510429D01*
X170499334Y-73508988D01*
X170507361Y-73507478D01*
X170529686Y-73506164D01*
X170563673Y-73505126D01*
X170606687Y-73504444D01*
X170655967Y-73504200D01*
X170812600Y-73504200D01*
X170812600Y-73243427D01*
X170812402Y-73163435D01*
X170811777Y-73099174D01*
X170810680Y-73049445D01*
X170809066Y-73013049D01*
X170806891Y-72988789D01*
X170804109Y-72975465D01*
X170802440Y-72972493D01*
X170788502Y-72966951D01*
X170762361Y-72963347D01*
X170735179Y-72962333D01*
X170698051Y-72960167D01*
X170670326Y-72951934D01*
X170648665Y-72935031D01*
X170629728Y-72906857D01*
X170610243Y-72864967D01*
X170585300Y-72805700D01*
X170698950Y-72803344D01*
X170812600Y-72800989D01*
X170812600Y-72578554D01*
X170812352Y-72504593D01*
X170811573Y-72446328D01*
X170810208Y-72402530D01*
X170808204Y-72371969D01*
X170805507Y-72353413D01*
X170802440Y-72345960D01*
X170787915Y-72340585D01*
X170757755Y-72337161D01*
X170713163Y-72335816D01*
X170706957Y-72335800D01*
X170662232Y-72334961D01*
X170631327Y-72332187D01*
X170611199Y-72327095D01*
X170602868Y-72322656D01*
X170593182Y-72311158D01*
X170578969Y-72288945D01*
X170562681Y-72260558D01*
X170546771Y-72230536D01*
X170533690Y-72203419D01*
X170525889Y-72183747D01*
X170524734Y-72177974D01*
X170532817Y-72177131D01*
X170555533Y-72176378D01*
X170590581Y-72175748D01*
X170635661Y-72175277D01*
X170688472Y-72174997D01*
X170730283Y-72174933D01*
X170796613Y-72175086D01*
G36*
X173346650Y-72176051D02*
X173364331Y-72178788D01*
X173369533Y-72182407D01*
X173370773Y-72191715D01*
X173374369Y-72216545D01*
X173380140Y-72255680D01*
X173387902Y-72307898D01*
X173397474Y-72371982D01*
X173408671Y-72446713D01*
X173421313Y-72530871D01*
X173435216Y-72623236D01*
X173450198Y-72722591D01*
X173466075Y-72827716D01*
X173479563Y-72916890D01*
X173496044Y-73025912D01*
X173511779Y-73130225D01*
X173526583Y-73228604D01*
X173540275Y-73319821D01*
X173552671Y-73402651D01*
X173563588Y-73475866D01*
X173572843Y-73538240D01*
X173580253Y-73588546D01*
X173585635Y-73625558D01*
X173588807Y-73648049D01*
X173589629Y-73654779D01*
X173585494Y-73659831D01*
X173571503Y-73662785D01*
X173545347Y-73663864D01*
X173504715Y-73663296D01*
X173502883Y-73663246D01*
X173416100Y-73660833D01*
X173351350Y-73169766D01*
X173339619Y-73081079D01*
X173328542Y-72997892D01*
X173318316Y-72921634D01*
X173309135Y-72853733D01*
X173301194Y-72795616D01*
X173294688Y-72748710D01*
X173289811Y-72714444D01*
X173286760Y-72694245D01*
X173285733Y-72689287D01*
X173284357Y-72701157D01*
X173281014Y-72727923D01*
X173275951Y-72767693D01*
X173269415Y-72818575D01*
X173261654Y-72878676D01*
X173252915Y-72946106D01*
X173243445Y-73018971D01*
X173233490Y-73095380D01*
X173223300Y-73173440D01*
X173213119Y-73251260D01*
X173203197Y-73326947D01*
X173193779Y-73398610D01*
X173185113Y-73464357D01*
X173177447Y-73522294D01*
X173171027Y-73570532D01*
X173166100Y-73607176D01*
X173162915Y-73630336D01*
X173161847Y-73637550D01*
X173157100Y-73665067D01*
X173072817Y-73665067D01*
X173034464Y-73664876D01*
X173009953Y-73663853D01*
X172996193Y-73661316D01*
X172990094Y-73656586D01*
X172988564Y-73648983D01*
X172988533Y-73646530D01*
X172989825Y-73631293D01*
X172993541Y-73601269D01*
X172999448Y-73557962D01*
X173007307Y-73502875D01*
X173016885Y-73437512D01*
X173027944Y-73363374D01*
X173040249Y-73281965D01*
X173053564Y-73194789D01*
X173067653Y-73103349D01*
X173082281Y-73009147D01*
X173097211Y-72913688D01*
X173112207Y-72818473D01*
X173127033Y-72725006D01*
X173141455Y-72634791D01*
X173155235Y-72549330D01*
X173168138Y-72470126D01*
X173179928Y-72398683D01*
X173190369Y-72336504D01*
X173199225Y-72285092D01*
X173206260Y-72245950D01*
X173211239Y-72220581D01*
X173213890Y-72210539D01*
X173231643Y-72192397D01*
X173247761Y-72183022D01*
X173266770Y-72178641D01*
X173292900Y-72176002D01*
X173321184Y-72175130D01*
X173346650Y-72176051D01*
X173346650Y-72176051D01*
G37*
X173346650Y-72176051D02*
X173364331Y-72178788D01*
X173369533Y-72182407D01*
X173370773Y-72191715D01*
X173374369Y-72216545D01*
X173380140Y-72255680D01*
X173387902Y-72307898D01*
X173397474Y-72371982D01*
X173408671Y-72446713D01*
X173421313Y-72530871D01*
X173435216Y-72623236D01*
X173450198Y-72722591D01*
X173466075Y-72827716D01*
X173479563Y-72916890D01*
X173496044Y-73025912D01*
X173511779Y-73130225D01*
X173526583Y-73228604D01*
X173540275Y-73319821D01*
X173552671Y-73402651D01*
X173563588Y-73475866D01*
X173572843Y-73538240D01*
X173580253Y-73588546D01*
X173585635Y-73625558D01*
X173588807Y-73648049D01*
X173589629Y-73654779D01*
X173585494Y-73659831D01*
X173571503Y-73662785D01*
X173545347Y-73663864D01*
X173504715Y-73663296D01*
X173502883Y-73663246D01*
X173416100Y-73660833D01*
X173351350Y-73169766D01*
X173339619Y-73081079D01*
X173328542Y-72997892D01*
X173318316Y-72921634D01*
X173309135Y-72853733D01*
X173301194Y-72795616D01*
X173294688Y-72748710D01*
X173289811Y-72714444D01*
X173286760Y-72694245D01*
X173285733Y-72689287D01*
X173284357Y-72701157D01*
X173281014Y-72727923D01*
X173275951Y-72767693D01*
X173269415Y-72818575D01*
X173261654Y-72878676D01*
X173252915Y-72946106D01*
X173243445Y-73018971D01*
X173233490Y-73095380D01*
X173223300Y-73173440D01*
X173213119Y-73251260D01*
X173203197Y-73326947D01*
X173193779Y-73398610D01*
X173185113Y-73464357D01*
X173177447Y-73522294D01*
X173171027Y-73570532D01*
X173166100Y-73607176D01*
X173162915Y-73630336D01*
X173161847Y-73637550D01*
X173157100Y-73665067D01*
X173072817Y-73665067D01*
X173034464Y-73664876D01*
X173009953Y-73663853D01*
X172996193Y-73661316D01*
X172990094Y-73656586D01*
X172988564Y-73648983D01*
X172988533Y-73646530D01*
X172989825Y-73631293D01*
X172993541Y-73601269D01*
X172999448Y-73557962D01*
X173007307Y-73502875D01*
X173016885Y-73437512D01*
X173027944Y-73363374D01*
X173040249Y-73281965D01*
X173053564Y-73194789D01*
X173067653Y-73103349D01*
X173082281Y-73009147D01*
X173097211Y-72913688D01*
X173112207Y-72818473D01*
X173127033Y-72725006D01*
X173141455Y-72634791D01*
X173155235Y-72549330D01*
X173168138Y-72470126D01*
X173179928Y-72398683D01*
X173190369Y-72336504D01*
X173199225Y-72285092D01*
X173206260Y-72245950D01*
X173211239Y-72220581D01*
X173213890Y-72210539D01*
X173231643Y-72192397D01*
X173247761Y-72183022D01*
X173266770Y-72178641D01*
X173292900Y-72176002D01*
X173321184Y-72175130D01*
X173346650Y-72176051D01*
G36*
X174498745Y-72173274D02*
X174513902Y-72174239D01*
X174531304Y-72174921D01*
X174533700Y-72174933D01*
X174597200Y-72174933D01*
X174597200Y-73665067D01*
X174404584Y-73664084D01*
X174348270Y-73663625D01*
X174296940Y-73662880D01*
X174253255Y-73661914D01*
X174219880Y-73660793D01*
X174199476Y-73659581D01*
X174195034Y-73658977D01*
X174171733Y-73648119D01*
X174151230Y-73626192D01*
X174131148Y-73590534D01*
X174128136Y-73584079D01*
X174115328Y-73556985D01*
X174106319Y-73536770D01*
X174102832Y-73522436D01*
X174106594Y-73512987D01*
X174119330Y-73507427D01*
X174142766Y-73504758D01*
X174178628Y-73503984D01*
X174228640Y-73504109D01*
X174266430Y-73504200D01*
X174436334Y-73504200D01*
X174436334Y-72856500D01*
X174436252Y-72732595D01*
X174436111Y-72624546D01*
X174436063Y-72531278D01*
X174436263Y-72451713D01*
X174436864Y-72384777D01*
X174438019Y-72329394D01*
X174439883Y-72284486D01*
X174442610Y-72248980D01*
X174446352Y-72221798D01*
X174451263Y-72201865D01*
X174457498Y-72188105D01*
X174465210Y-72179441D01*
X174474553Y-72174799D01*
X174485680Y-72173102D01*
X174498745Y-72173274D01*
X174498745Y-72173274D01*
G37*
X174498745Y-72173274D02*
X174513902Y-72174239D01*
X174531304Y-72174921D01*
X174533700Y-72174933D01*
X174597200Y-72174933D01*
X174597200Y-73665067D01*
X174404584Y-73664084D01*
X174348270Y-73663625D01*
X174296940Y-73662880D01*
X174253255Y-73661914D01*
X174219880Y-73660793D01*
X174199476Y-73659581D01*
X174195034Y-73658977D01*
X174171733Y-73648119D01*
X174151230Y-73626192D01*
X174131148Y-73590534D01*
X174128136Y-73584079D01*
X174115328Y-73556985D01*
X174106319Y-73536770D01*
X174102832Y-73522436D01*
X174106594Y-73512987D01*
X174119330Y-73507427D01*
X174142766Y-73504758D01*
X174178628Y-73503984D01*
X174228640Y-73504109D01*
X174266430Y-73504200D01*
X174436334Y-73504200D01*
X174436334Y-72856500D01*
X174436252Y-72732595D01*
X174436111Y-72624546D01*
X174436063Y-72531278D01*
X174436263Y-72451713D01*
X174436864Y-72384777D01*
X174438019Y-72329394D01*
X174439883Y-72284486D01*
X174442610Y-72248980D01*
X174446352Y-72221798D01*
X174451263Y-72201865D01*
X174457498Y-72188105D01*
X174465210Y-72179441D01*
X174474553Y-72174799D01*
X174485680Y-72173102D01*
X174498745Y-72173274D01*
G36*
X175757134Y-73665067D02*
X175564517Y-73664735D01*
X175496923Y-73664357D01*
X175444248Y-73663407D01*
X175404480Y-73661771D01*
X175375610Y-73659336D01*
X175355628Y-73655988D01*
X175343934Y-73652255D01*
X175327594Y-73642530D01*
X175313418Y-73626813D01*
X175298554Y-73601345D01*
X175286784Y-73576941D01*
X175273309Y-73547231D01*
X175263127Y-73523746D01*
X175257933Y-73510429D01*
X175257600Y-73508988D01*
X175265644Y-73507533D01*
X175288087Y-73506256D01*
X175322393Y-73505228D01*
X175366029Y-73504522D01*
X175416459Y-73504209D01*
X175426934Y-73504200D01*
X175596267Y-73504200D01*
X175596396Y-72858617D01*
X175596497Y-72755443D01*
X175596747Y-72657123D01*
X175597135Y-72564979D01*
X175597647Y-72480334D01*
X175598271Y-72404512D01*
X175598994Y-72338836D01*
X175599802Y-72284629D01*
X175600684Y-72243215D01*
X175601626Y-72215916D01*
X175602616Y-72204055D01*
X175602746Y-72203717D01*
X175623201Y-72187131D01*
X175658027Y-72177610D01*
X175701544Y-72174933D01*
X175757134Y-72174933D01*
X175757134Y-73665067D01*
X175757134Y-73665067D01*
G37*
X175757134Y-73665067D02*
X175564517Y-73664735D01*
X175496923Y-73664357D01*
X175444248Y-73663407D01*
X175404480Y-73661771D01*
X175375610Y-73659336D01*
X175355628Y-73655988D01*
X175343934Y-73652255D01*
X175327594Y-73642530D01*
X175313418Y-73626813D01*
X175298554Y-73601345D01*
X175286784Y-73576941D01*
X175273309Y-73547231D01*
X175263127Y-73523746D01*
X175257933Y-73510429D01*
X175257600Y-73508988D01*
X175265644Y-73507533D01*
X175288087Y-73506256D01*
X175322393Y-73505228D01*
X175366029Y-73504522D01*
X175416459Y-73504209D01*
X175426934Y-73504200D01*
X175596267Y-73504200D01*
X175596396Y-72858617D01*
X175596497Y-72755443D01*
X175596747Y-72657123D01*
X175597135Y-72564979D01*
X175597647Y-72480334D01*
X175598271Y-72404512D01*
X175598994Y-72338836D01*
X175599802Y-72284629D01*
X175600684Y-72243215D01*
X175601626Y-72215916D01*
X175602616Y-72204055D01*
X175602746Y-72203717D01*
X175623201Y-72187131D01*
X175658027Y-72177610D01*
X175701544Y-72174933D01*
X175757134Y-72174933D01*
X175757134Y-73665067D01*
G36*
X176806871Y-72905183D02*
X176806755Y-73034029D01*
X176806462Y-73152778D01*
X176805999Y-73260672D01*
X176805374Y-73356950D01*
X176804597Y-73440853D01*
X176803676Y-73511620D01*
X176802618Y-73568492D01*
X176801432Y-73610709D01*
X176800127Y-73637511D01*
X176798714Y-73648133D01*
X176788574Y-73655243D01*
X176767147Y-73660098D01*
X176731993Y-73663172D01*
X176718410Y-73663819D01*
X176646134Y-73666804D01*
X176646134Y-72216497D01*
X176666915Y-72195715D01*
X176680314Y-72184499D01*
X176695742Y-72178197D01*
X176718414Y-72175461D01*
X176747349Y-72174933D01*
X176807000Y-72174933D01*
X176806871Y-72905183D01*
X176806871Y-72905183D01*
G37*
X176806871Y-72905183D02*
X176806755Y-73034029D01*
X176806462Y-73152778D01*
X176805999Y-73260672D01*
X176805374Y-73356950D01*
X176804597Y-73440853D01*
X176803676Y-73511620D01*
X176802618Y-73568492D01*
X176801432Y-73610709D01*
X176800127Y-73637511D01*
X176798714Y-73648133D01*
X176788574Y-73655243D01*
X176767147Y-73660098D01*
X176731993Y-73663172D01*
X176718410Y-73663819D01*
X176646134Y-73666804D01*
X176646134Y-72216497D01*
X176666915Y-72195715D01*
X176680314Y-72184499D01*
X176695742Y-72178197D01*
X176718414Y-72175461D01*
X176747349Y-72174933D01*
X176807000Y-72174933D01*
X176806871Y-72905183D01*
G36*
X177677681Y-72175163D02*
X177701621Y-72176348D01*
X177715277Y-72179234D01*
X177721971Y-72184563D01*
X177725028Y-72193080D01*
X177725229Y-72193983D01*
X177727253Y-72205784D01*
X177731548Y-72232718D01*
X177737866Y-72273175D01*
X177745961Y-72325543D01*
X177755584Y-72388212D01*
X177766487Y-72459570D01*
X177778422Y-72538006D01*
X177791143Y-72621909D01*
X177797765Y-72665702D01*
X177810696Y-72751094D01*
X177822905Y-72831304D01*
X177834153Y-72904798D01*
X177844203Y-72970043D01*
X177852816Y-73025505D01*
X177859755Y-73069649D01*
X177864783Y-73100942D01*
X177867661Y-73117851D01*
X177868238Y-73120460D01*
X177869859Y-73112753D01*
X177873744Y-73089839D01*
X177879652Y-73053259D01*
X177887341Y-73004554D01*
X177896571Y-72945264D01*
X177907101Y-72876929D01*
X177918691Y-72801090D01*
X177931101Y-72719287D01*
X177936318Y-72684724D01*
X177949204Y-72599758D01*
X177961578Y-72519180D01*
X177973170Y-72444674D01*
X177983711Y-72377924D01*
X177992933Y-72320613D01*
X178000565Y-72274425D01*
X178006340Y-72241043D01*
X178009988Y-72222152D01*
X178010699Y-72219318D01*
X178019836Y-72198517D01*
X178034258Y-72185224D01*
X178057348Y-72177932D01*
X178092491Y-72175133D01*
X178110310Y-72174933D01*
X178141612Y-72175371D01*
X178159602Y-72177378D01*
X178167894Y-72181990D01*
X178170103Y-72190246D01*
X178170134Y-72192110D01*
X178168831Y-72206797D01*
X178165083Y-72236362D01*
X178159130Y-72279286D01*
X178151210Y-72334052D01*
X178141563Y-72399142D01*
X178130429Y-72473039D01*
X178118047Y-72554225D01*
X178104657Y-72641182D01*
X178090498Y-72732393D01*
X178075809Y-72826341D01*
X178060831Y-72921507D01*
X178045803Y-73016374D01*
X178030964Y-73109425D01*
X178016553Y-73199141D01*
X178002811Y-73284005D01*
X177989977Y-73362501D01*
X177978289Y-73433109D01*
X177967989Y-73494312D01*
X177959314Y-73544594D01*
X177952506Y-73582435D01*
X177947802Y-73606319D01*
X177945662Y-73614468D01*
X177922059Y-73642558D01*
X177886025Y-73659395D01*
X177837373Y-73665066D01*
X177836793Y-73665067D01*
X177810026Y-73664447D01*
X177795563Y-73661183D01*
X177788783Y-73653166D01*
X177785760Y-73641783D01*
X177783788Y-73629992D01*
X177779478Y-73602741D01*
X177773026Y-73561312D01*
X177764628Y-73506986D01*
X177754482Y-73441046D01*
X177742784Y-73364774D01*
X177729730Y-73279452D01*
X177715519Y-73186361D01*
X177700346Y-73086784D01*
X177684408Y-72982004D01*
X177674989Y-72920000D01*
X177658699Y-72812811D01*
X177643058Y-72710089D01*
X177628262Y-72613119D01*
X177614508Y-72523180D01*
X177601994Y-72441555D01*
X177590916Y-72369527D01*
X177581472Y-72308378D01*
X177573859Y-72259389D01*
X177568273Y-72223842D01*
X177564911Y-72203020D01*
X177564063Y-72198216D01*
X177559188Y-72174933D01*
X177640133Y-72174933D01*
X177677681Y-72175163D01*
X177677681Y-72175163D01*
G37*
X177677681Y-72175163D02*
X177701621Y-72176348D01*
X177715277Y-72179234D01*
X177721971Y-72184563D01*
X177725028Y-72193080D01*
X177725229Y-72193983D01*
X177727253Y-72205784D01*
X177731548Y-72232718D01*
X177737866Y-72273175D01*
X177745961Y-72325543D01*
X177755584Y-72388212D01*
X177766487Y-72459570D01*
X177778422Y-72538006D01*
X177791143Y-72621909D01*
X177797765Y-72665702D01*
X177810696Y-72751094D01*
X177822905Y-72831304D01*
X177834153Y-72904798D01*
X177844203Y-72970043D01*
X177852816Y-73025505D01*
X177859755Y-73069649D01*
X177864783Y-73100942D01*
X177867661Y-73117851D01*
X177868238Y-73120460D01*
X177869859Y-73112753D01*
X177873744Y-73089839D01*
X177879652Y-73053259D01*
X177887341Y-73004554D01*
X177896571Y-72945264D01*
X177907101Y-72876929D01*
X177918691Y-72801090D01*
X177931101Y-72719287D01*
X177936318Y-72684724D01*
X177949204Y-72599758D01*
X177961578Y-72519180D01*
X177973170Y-72444674D01*
X177983711Y-72377924D01*
X177992933Y-72320613D01*
X178000565Y-72274425D01*
X178006340Y-72241043D01*
X178009988Y-72222152D01*
X178010699Y-72219318D01*
X178019836Y-72198517D01*
X178034258Y-72185224D01*
X178057348Y-72177932D01*
X178092491Y-72175133D01*
X178110310Y-72174933D01*
X178141612Y-72175371D01*
X178159602Y-72177378D01*
X178167894Y-72181990D01*
X178170103Y-72190246D01*
X178170134Y-72192110D01*
X178168831Y-72206797D01*
X178165083Y-72236362D01*
X178159130Y-72279286D01*
X178151210Y-72334052D01*
X178141563Y-72399142D01*
X178130429Y-72473039D01*
X178118047Y-72554225D01*
X178104657Y-72641182D01*
X178090498Y-72732393D01*
X178075809Y-72826341D01*
X178060831Y-72921507D01*
X178045803Y-73016374D01*
X178030964Y-73109425D01*
X178016553Y-73199141D01*
X178002811Y-73284005D01*
X177989977Y-73362501D01*
X177978289Y-73433109D01*
X177967989Y-73494312D01*
X177959314Y-73544594D01*
X177952506Y-73582435D01*
X177947802Y-73606319D01*
X177945662Y-73614468D01*
X177922059Y-73642558D01*
X177886025Y-73659395D01*
X177837373Y-73665066D01*
X177836793Y-73665067D01*
X177810026Y-73664447D01*
X177795563Y-73661183D01*
X177788783Y-73653166D01*
X177785760Y-73641783D01*
X177783788Y-73629992D01*
X177779478Y-73602741D01*
X177773026Y-73561312D01*
X177764628Y-73506986D01*
X177754482Y-73441046D01*
X177742784Y-73364774D01*
X177729730Y-73279452D01*
X177715519Y-73186361D01*
X177700346Y-73086784D01*
X177684408Y-72982004D01*
X177674989Y-72920000D01*
X177658699Y-72812811D01*
X177643058Y-72710089D01*
X177628262Y-72613119D01*
X177614508Y-72523180D01*
X177601994Y-72441555D01*
X177590916Y-72369527D01*
X177581472Y-72308378D01*
X177573859Y-72259389D01*
X177568273Y-72223842D01*
X177564911Y-72203020D01*
X177564063Y-72198216D01*
X177559188Y-72174933D01*
X177640133Y-72174933D01*
X177677681Y-72175163D01*
G36*
X180443142Y-72174924D02*
X180499711Y-72175551D01*
X180543901Y-72177167D01*
X180577232Y-72180197D01*
X180601221Y-72185067D01*
X180617384Y-72192203D01*
X180627240Y-72202030D01*
X180632308Y-72214975D01*
X180634103Y-72231462D01*
X180634144Y-72251918D01*
X180633933Y-72272300D01*
X180633933Y-72335800D01*
X180422267Y-72335800D01*
X180422267Y-73638706D01*
X180403450Y-73651886D01*
X180381225Y-73660518D01*
X180344860Y-73664626D01*
X180323016Y-73665067D01*
X180261400Y-73665067D01*
X180261400Y-73010593D01*
X180261337Y-72882589D01*
X180261139Y-72770664D01*
X180260794Y-72673962D01*
X180260287Y-72591630D01*
X180259607Y-72522813D01*
X180258740Y-72466656D01*
X180257672Y-72422305D01*
X180256392Y-72388905D01*
X180254885Y-72365602D01*
X180253139Y-72351542D01*
X180251240Y-72345960D01*
X180236807Y-72340558D01*
X180207233Y-72337070D01*
X180164226Y-72335689D01*
X180160224Y-72335675D01*
X180119439Y-72334479D01*
X180085292Y-72331330D01*
X180062254Y-72326692D01*
X180058200Y-72325092D01*
X180041540Y-72310098D01*
X180021785Y-72280993D01*
X180005823Y-72251133D01*
X179991428Y-72221255D01*
X179980403Y-72197251D01*
X179974557Y-72183103D01*
X179974073Y-72181283D01*
X179982104Y-72179845D01*
X180005209Y-72178522D01*
X180041528Y-72177350D01*
X180089203Y-72176367D01*
X180146375Y-72175612D01*
X180211183Y-72175121D01*
X180281770Y-72174934D01*
X180286800Y-72174933D01*
X180372678Y-72174860D01*
X180443142Y-72174924D01*
X180443142Y-72174924D01*
G37*
X180443142Y-72174924D02*
X180499711Y-72175551D01*
X180543901Y-72177167D01*
X180577232Y-72180197D01*
X180601221Y-72185067D01*
X180617384Y-72192203D01*
X180627240Y-72202030D01*
X180632308Y-72214975D01*
X180634103Y-72231462D01*
X180634144Y-72251918D01*
X180633933Y-72272300D01*
X180633933Y-72335800D01*
X180422267Y-72335800D01*
X180422267Y-73638706D01*
X180403450Y-73651886D01*
X180381225Y-73660518D01*
X180344860Y-73664626D01*
X180323016Y-73665067D01*
X180261400Y-73665067D01*
X180261400Y-73010593D01*
X180261337Y-72882589D01*
X180261139Y-72770664D01*
X180260794Y-72673962D01*
X180260287Y-72591630D01*
X180259607Y-72522813D01*
X180258740Y-72466656D01*
X180257672Y-72422305D01*
X180256392Y-72388905D01*
X180254885Y-72365602D01*
X180253139Y-72351542D01*
X180251240Y-72345960D01*
X180236807Y-72340558D01*
X180207233Y-72337070D01*
X180164226Y-72335689D01*
X180160224Y-72335675D01*
X180119439Y-72334479D01*
X180085292Y-72331330D01*
X180062254Y-72326692D01*
X180058200Y-72325092D01*
X180041540Y-72310098D01*
X180021785Y-72280993D01*
X180005823Y-72251133D01*
X179991428Y-72221255D01*
X179980403Y-72197251D01*
X179974557Y-72183103D01*
X179974073Y-72181283D01*
X179982104Y-72179845D01*
X180005209Y-72178522D01*
X180041528Y-72177350D01*
X180089203Y-72176367D01*
X180146375Y-72175612D01*
X180211183Y-72175121D01*
X180281770Y-72174934D01*
X180286800Y-72174933D01*
X180372678Y-72174860D01*
X180443142Y-72174924D01*
G36*
X181734600Y-72911235D02*
X181734687Y-73042162D01*
X181734859Y-73157175D01*
X181734986Y-73257296D01*
X181734936Y-73343543D01*
X181734580Y-73416936D01*
X181733785Y-73478493D01*
X181732422Y-73529235D01*
X181730359Y-73570181D01*
X181727465Y-73602351D01*
X181723609Y-73626763D01*
X181718661Y-73644437D01*
X181712489Y-73656392D01*
X181704963Y-73663648D01*
X181695951Y-73667225D01*
X181685324Y-73668141D01*
X181672949Y-73667417D01*
X181658696Y-73666070D01*
X181642433Y-73665122D01*
X181637790Y-73665067D01*
X181573733Y-73665067D01*
X181573733Y-72996200D01*
X181501495Y-72996200D01*
X181446205Y-72993438D01*
X181403059Y-72984330D01*
X181368058Y-72967642D01*
X181342241Y-72947067D01*
X181322538Y-72925953D01*
X181306588Y-72902509D01*
X181294022Y-72874790D01*
X181284473Y-72840848D01*
X181277571Y-72798737D01*
X181272947Y-72746510D01*
X181270232Y-72682219D01*
X181269847Y-72656527D01*
X181430025Y-72656527D01*
X181430187Y-72707771D01*
X181430725Y-72746262D01*
X181431806Y-72774092D01*
X181433598Y-72793350D01*
X181436268Y-72806128D01*
X181439985Y-72814515D01*
X181444917Y-72820602D01*
X181448850Y-72824313D01*
X181467649Y-72839212D01*
X181486654Y-72847379D01*
X181512274Y-72850878D01*
X181533517Y-72851598D01*
X181573733Y-72852267D01*
X181573733Y-72327333D01*
X181530844Y-72327333D01*
X181486858Y-72331901D01*
X181455240Y-72346106D01*
X181440653Y-72360466D01*
X181437162Y-72370604D01*
X181434438Y-72391709D01*
X181432423Y-72425035D01*
X181431060Y-72471833D01*
X181430291Y-72533357D01*
X181430069Y-72590441D01*
X181430025Y-72656527D01*
X181269847Y-72656527D01*
X181269058Y-72603919D01*
X181268933Y-72560148D01*
X181269236Y-72484669D01*
X181270414Y-72423926D01*
X181272873Y-72375727D01*
X181277021Y-72337880D01*
X181283264Y-72308194D01*
X181292008Y-72284478D01*
X181303659Y-72264540D01*
X181318624Y-72246190D01*
X181329196Y-72235196D01*
X181351346Y-72215377D01*
X181374772Y-72200317D01*
X181402149Y-72189402D01*
X181436153Y-72182022D01*
X181479458Y-72177561D01*
X181534740Y-72175407D01*
X181592204Y-72174933D01*
X181734600Y-72174933D01*
X181734600Y-72911235D01*
X181734600Y-72911235D01*
G37*
X181734600Y-72911235D02*
X181734687Y-73042162D01*
X181734859Y-73157175D01*
X181734986Y-73257296D01*
X181734936Y-73343543D01*
X181734580Y-73416936D01*
X181733785Y-73478493D01*
X181732422Y-73529235D01*
X181730359Y-73570181D01*
X181727465Y-73602351D01*
X181723609Y-73626763D01*
X181718661Y-73644437D01*
X181712489Y-73656392D01*
X181704963Y-73663648D01*
X181695951Y-73667225D01*
X181685324Y-73668141D01*
X181672949Y-73667417D01*
X181658696Y-73666070D01*
X181642433Y-73665122D01*
X181637790Y-73665067D01*
X181573733Y-73665067D01*
X181573733Y-72996200D01*
X181501495Y-72996200D01*
X181446205Y-72993438D01*
X181403059Y-72984330D01*
X181368058Y-72967642D01*
X181342241Y-72947067D01*
X181322538Y-72925953D01*
X181306588Y-72902509D01*
X181294022Y-72874790D01*
X181284473Y-72840848D01*
X181277571Y-72798737D01*
X181272947Y-72746510D01*
X181270232Y-72682219D01*
X181269847Y-72656527D01*
X181430025Y-72656527D01*
X181430187Y-72707771D01*
X181430725Y-72746262D01*
X181431806Y-72774092D01*
X181433598Y-72793350D01*
X181436268Y-72806128D01*
X181439985Y-72814515D01*
X181444917Y-72820602D01*
X181448850Y-72824313D01*
X181467649Y-72839212D01*
X181486654Y-72847379D01*
X181512274Y-72850878D01*
X181533517Y-72851598D01*
X181573733Y-72852267D01*
X181573733Y-72327333D01*
X181530844Y-72327333D01*
X181486858Y-72331901D01*
X181455240Y-72346106D01*
X181440653Y-72360466D01*
X181437162Y-72370604D01*
X181434438Y-72391709D01*
X181432423Y-72425035D01*
X181431060Y-72471833D01*
X181430291Y-72533357D01*
X181430069Y-72590441D01*
X181430025Y-72656527D01*
X181269847Y-72656527D01*
X181269058Y-72603919D01*
X181268933Y-72560148D01*
X181269236Y-72484669D01*
X181270414Y-72423926D01*
X181272873Y-72375727D01*
X181277021Y-72337880D01*
X181283264Y-72308194D01*
X181292008Y-72284478D01*
X181303659Y-72264540D01*
X181318624Y-72246190D01*
X181329196Y-72235196D01*
X181351346Y-72215377D01*
X181374772Y-72200317D01*
X181402149Y-72189402D01*
X181436153Y-72182022D01*
X181479458Y-72177561D01*
X181534740Y-72175407D01*
X181592204Y-72174933D01*
X181734600Y-72174933D01*
X181734600Y-72911235D01*
G36*
X182596951Y-72175792D02*
X182613392Y-72179238D01*
X182626832Y-72186805D01*
X182638036Y-72200074D01*
X182647768Y-72220628D01*
X182656790Y-72250047D01*
X182665867Y-72289915D01*
X182675762Y-72341813D01*
X182687238Y-72407323D01*
X182699915Y-72481364D01*
X182711151Y-72546212D01*
X182721597Y-72605214D01*
X182730892Y-72656431D01*
X182738676Y-72697923D01*
X182744587Y-72727751D01*
X182748265Y-72743975D01*
X182749246Y-72746376D01*
X182751266Y-72737789D01*
X182755737Y-72714949D01*
X182762227Y-72680292D01*
X182770305Y-72636252D01*
X182779537Y-72585263D01*
X182789491Y-72529759D01*
X182799736Y-72472174D01*
X182809839Y-72414943D01*
X182819368Y-72360501D01*
X182827891Y-72311280D01*
X182834975Y-72269715D01*
X182840189Y-72238242D01*
X182843100Y-72219293D01*
X182843561Y-72215150D01*
X182849089Y-72205108D01*
X182860667Y-72191867D01*
X182872291Y-72183066D01*
X182888261Y-72177891D01*
X182912927Y-72175472D01*
X182945495Y-72174933D01*
X182979065Y-72175159D01*
X182998908Y-72176479D01*
X183008227Y-72179859D01*
X183010227Y-72186262D01*
X183008766Y-72193983D01*
X183006163Y-72205804D01*
X183000433Y-72232548D01*
X182991926Y-72272568D01*
X182980990Y-72324214D01*
X182967974Y-72385837D01*
X182953226Y-72455788D01*
X182937095Y-72532419D01*
X182919929Y-72614080D01*
X182915472Y-72635305D01*
X182826800Y-73057576D01*
X182826800Y-73638706D01*
X182807983Y-73651886D01*
X182785759Y-73660518D01*
X182749394Y-73664626D01*
X182727550Y-73665067D01*
X182665934Y-73665067D01*
X182665934Y-73032862D01*
X182577034Y-72610363D01*
X182559769Y-72528190D01*
X182543610Y-72451042D01*
X182528886Y-72380503D01*
X182515924Y-72318159D01*
X182505054Y-72265594D01*
X182496602Y-72224393D01*
X182490899Y-72196142D01*
X182488273Y-72182424D01*
X182488133Y-72181398D01*
X182495911Y-72178316D01*
X182516492Y-72176032D01*
X182545752Y-72174964D01*
X182552018Y-72174933D01*
X182576748Y-72174884D01*
X182596951Y-72175792D01*
X182596951Y-72175792D01*
G37*
X182596951Y-72175792D02*
X182613392Y-72179238D01*
X182626832Y-72186805D01*
X182638036Y-72200074D01*
X182647768Y-72220628D01*
X182656790Y-72250047D01*
X182665867Y-72289915D01*
X182675762Y-72341813D01*
X182687238Y-72407323D01*
X182699915Y-72481364D01*
X182711151Y-72546212D01*
X182721597Y-72605214D01*
X182730892Y-72656431D01*
X182738676Y-72697923D01*
X182744587Y-72727751D01*
X182748265Y-72743975D01*
X182749246Y-72746376D01*
X182751266Y-72737789D01*
X182755737Y-72714949D01*
X182762227Y-72680292D01*
X182770305Y-72636252D01*
X182779537Y-72585263D01*
X182789491Y-72529759D01*
X182799736Y-72472174D01*
X182809839Y-72414943D01*
X182819368Y-72360501D01*
X182827891Y-72311280D01*
X182834975Y-72269715D01*
X182840189Y-72238242D01*
X182843100Y-72219293D01*
X182843561Y-72215150D01*
X182849089Y-72205108D01*
X182860667Y-72191867D01*
X182872291Y-72183066D01*
X182888261Y-72177891D01*
X182912927Y-72175472D01*
X182945495Y-72174933D01*
X182979065Y-72175159D01*
X182998908Y-72176479D01*
X183008227Y-72179859D01*
X183010227Y-72186262D01*
X183008766Y-72193983D01*
X183006163Y-72205804D01*
X183000433Y-72232548D01*
X182991926Y-72272568D01*
X182980990Y-72324214D01*
X182967974Y-72385837D01*
X182953226Y-72455788D01*
X182937095Y-72532419D01*
X182919929Y-72614080D01*
X182915472Y-72635305D01*
X182826800Y-73057576D01*
X182826800Y-73638706D01*
X182807983Y-73651886D01*
X182785759Y-73660518D01*
X182749394Y-73664626D01*
X182727550Y-73665067D01*
X182665934Y-73665067D01*
X182665934Y-73032862D01*
X182577034Y-72610363D01*
X182559769Y-72528190D01*
X182543610Y-72451042D01*
X182528886Y-72380503D01*
X182515924Y-72318159D01*
X182505054Y-72265594D01*
X182496602Y-72224393D01*
X182490899Y-72196142D01*
X182488273Y-72182424D01*
X182488133Y-72181398D01*
X182495911Y-72178316D01*
X182516492Y-72176032D01*
X182545752Y-72174964D01*
X182552018Y-72174933D01*
X182576748Y-72174884D01*
X182596951Y-72175792D01*
G36*
X184198400Y-73665067D02*
X184037534Y-73665067D01*
X184037534Y-73030066D01*
X183988617Y-73030067D01*
X183947870Y-73033512D01*
X183919960Y-73045012D01*
X183902011Y-73066311D01*
X183893976Y-73087466D01*
X183891570Y-73104794D01*
X183889471Y-73137273D01*
X183887732Y-73183121D01*
X183886404Y-73240560D01*
X183885538Y-73307807D01*
X183885186Y-73383082D01*
X183885181Y-73392017D01*
X183885134Y-73665067D01*
X183723010Y-73665067D01*
X183725755Y-73345450D01*
X183726482Y-73263443D01*
X183727189Y-73196591D01*
X183727988Y-73143116D01*
X183728989Y-73101241D01*
X183730306Y-73069187D01*
X183732048Y-73045176D01*
X183734329Y-73027430D01*
X183737259Y-73014173D01*
X183740951Y-73003625D01*
X183745515Y-72994009D01*
X183748133Y-72989044D01*
X183759423Y-72966313D01*
X183762702Y-72952642D01*
X183758656Y-72942561D01*
X183754554Y-72937656D01*
X183745456Y-72921169D01*
X183736730Y-72895086D01*
X183732804Y-72878039D01*
X183730224Y-72855333D01*
X183728139Y-72818934D01*
X183726547Y-72771678D01*
X183725445Y-72716396D01*
X183724830Y-72655922D01*
X183724698Y-72593090D01*
X183725048Y-72530732D01*
X183725877Y-72471682D01*
X183727180Y-72418773D01*
X183728957Y-72374839D01*
X183729420Y-72368210D01*
X183889367Y-72368210D01*
X183889367Y-72600476D01*
X183889445Y-72672418D01*
X183889879Y-72729342D01*
X183890968Y-72773164D01*
X183893011Y-72805799D01*
X183896307Y-72829163D01*
X183901156Y-72845171D01*
X183907856Y-72855739D01*
X183916708Y-72862782D01*
X183928009Y-72868216D01*
X183931406Y-72869610D01*
X183949728Y-72873766D01*
X183977125Y-72876541D01*
X183993084Y-72877130D01*
X184037534Y-72877667D01*
X184037534Y-72327333D01*
X183987206Y-72327333D01*
X183955131Y-72328796D01*
X183933351Y-72334376D01*
X183915390Y-72345859D01*
X183913122Y-72347772D01*
X183889367Y-72368210D01*
X183729420Y-72368210D01*
X183731203Y-72342713D01*
X183733356Y-72327333D01*
X183753672Y-72273752D01*
X183787614Y-72229920D01*
X183823561Y-72202918D01*
X183837810Y-72194796D01*
X183850854Y-72188733D01*
X183865432Y-72184378D01*
X183884285Y-72181381D01*
X183910152Y-72179393D01*
X183945772Y-72178064D01*
X183993885Y-72177044D01*
X184031184Y-72176414D01*
X184198400Y-72173662D01*
X184198400Y-73665067D01*
X184198400Y-73665067D01*
G37*
X184198400Y-73665067D02*
X184037534Y-73665067D01*
X184037534Y-73030066D01*
X183988617Y-73030067D01*
X183947870Y-73033512D01*
X183919960Y-73045012D01*
X183902011Y-73066311D01*
X183893976Y-73087466D01*
X183891570Y-73104794D01*
X183889471Y-73137273D01*
X183887732Y-73183121D01*
X183886404Y-73240560D01*
X183885538Y-73307807D01*
X183885186Y-73383082D01*
X183885181Y-73392017D01*
X183885134Y-73665067D01*
X183723010Y-73665067D01*
X183725755Y-73345450D01*
X183726482Y-73263443D01*
X183727189Y-73196591D01*
X183727988Y-73143116D01*
X183728989Y-73101241D01*
X183730306Y-73069187D01*
X183732048Y-73045176D01*
X183734329Y-73027430D01*
X183737259Y-73014173D01*
X183740951Y-73003625D01*
X183745515Y-72994009D01*
X183748133Y-72989044D01*
X183759423Y-72966313D01*
X183762702Y-72952642D01*
X183758656Y-72942561D01*
X183754554Y-72937656D01*
X183745456Y-72921169D01*
X183736730Y-72895086D01*
X183732804Y-72878039D01*
X183730224Y-72855333D01*
X183728139Y-72818934D01*
X183726547Y-72771678D01*
X183725445Y-72716396D01*
X183724830Y-72655922D01*
X183724698Y-72593090D01*
X183725048Y-72530732D01*
X183725877Y-72471682D01*
X183727180Y-72418773D01*
X183728957Y-72374839D01*
X183729420Y-72368210D01*
X183889367Y-72368210D01*
X183889367Y-72600476D01*
X183889445Y-72672418D01*
X183889879Y-72729342D01*
X183890968Y-72773164D01*
X183893011Y-72805799D01*
X183896307Y-72829163D01*
X183901156Y-72845171D01*
X183907856Y-72855739D01*
X183916708Y-72862782D01*
X183928009Y-72868216D01*
X183931406Y-72869610D01*
X183949728Y-72873766D01*
X183977125Y-72876541D01*
X183993084Y-72877130D01*
X184037534Y-72877667D01*
X184037534Y-72327333D01*
X183987206Y-72327333D01*
X183955131Y-72328796D01*
X183933351Y-72334376D01*
X183915390Y-72345859D01*
X183913122Y-72347772D01*
X183889367Y-72368210D01*
X183729420Y-72368210D01*
X183731203Y-72342713D01*
X183733356Y-72327333D01*
X183753672Y-72273752D01*
X183787614Y-72229920D01*
X183823561Y-72202918D01*
X183837810Y-72194796D01*
X183850854Y-72188733D01*
X183865432Y-72184378D01*
X183884285Y-72181381D01*
X183910152Y-72179393D01*
X183945772Y-72178064D01*
X183993885Y-72177044D01*
X184031184Y-72176414D01*
X184198400Y-72173662D01*
X184198400Y-73665067D01*
G36*
X186569067Y-73550449D02*
X186568064Y-73596499D01*
X186563569Y-73628281D01*
X186553352Y-73648410D01*
X186535185Y-73659505D01*
X186506836Y-73664182D01*
X186471423Y-73665067D01*
X186407646Y-73665067D01*
X186412434Y-73474567D01*
X186490750Y-73472132D01*
X186569067Y-73469698D01*
X186569067Y-73550449D01*
X186569067Y-73550449D01*
G37*
X186569067Y-73550449D02*
X186568064Y-73596499D01*
X186563569Y-73628281D01*
X186553352Y-73648410D01*
X186535185Y-73659505D01*
X186506836Y-73664182D01*
X186471423Y-73665067D01*
X186407646Y-73665067D01*
X186412434Y-73474567D01*
X186490750Y-73472132D01*
X186569067Y-73469698D01*
X186569067Y-73550449D01*
G36*
X190311334Y-73665067D02*
X190156817Y-73664695D01*
X190091144Y-73664015D01*
X190040594Y-73662252D01*
X190003382Y-73659290D01*
X189977727Y-73655013D01*
X189968923Y-73652433D01*
X189917621Y-73625898D01*
X189877966Y-73587562D01*
X189851170Y-73538708D01*
X189845803Y-73522129D01*
X189843498Y-73505376D01*
X189841458Y-73474075D01*
X189839757Y-73430612D01*
X189838470Y-73377371D01*
X189837672Y-73316737D01*
X189837628Y-73305062D01*
X189999084Y-73305062D01*
X189999242Y-73361218D01*
X190000482Y-73404349D01*
X190003066Y-73436402D01*
X190007255Y-73459328D01*
X190013310Y-73475076D01*
X190021493Y-73485594D01*
X190032065Y-73492831D01*
X190034653Y-73494135D01*
X190053290Y-73499211D01*
X190081420Y-73502700D01*
X190101784Y-73503627D01*
X190150467Y-73504200D01*
X190150467Y-72996200D01*
X190096371Y-72996200D01*
X190060747Y-72997894D01*
X190036802Y-73003700D01*
X190022288Y-73012372D01*
X190016045Y-73017799D01*
X190011231Y-73024133D01*
X190007629Y-73033515D01*
X190005020Y-73048088D01*
X190003186Y-73069995D01*
X190001910Y-73101377D01*
X190000974Y-73144377D01*
X190000159Y-73201138D01*
X189999746Y-73233930D01*
X189999084Y-73305062D01*
X189837628Y-73305062D01*
X189837433Y-73254433D01*
X189837567Y-73183732D01*
X189837961Y-73127832D01*
X189838739Y-73084601D01*
X189840027Y-73051909D01*
X189841951Y-73027623D01*
X189844634Y-73009612D01*
X189848203Y-72995745D01*
X189852782Y-72983889D01*
X189853403Y-72982505D01*
X189867617Y-72957655D01*
X189883856Y-72938004D01*
X189888575Y-72934097D01*
X189907916Y-72920550D01*
X189885924Y-72903250D01*
X189872545Y-72891538D01*
X189861800Y-72878413D01*
X189853432Y-72862007D01*
X189847179Y-72840451D01*
X189842783Y-72811877D01*
X189839985Y-72774417D01*
X189838525Y-72726202D01*
X189838143Y-72665364D01*
X189838581Y-72590034D01*
X189838836Y-72564037D01*
X189839642Y-72492136D01*
X189840493Y-72435108D01*
X189841542Y-72390893D01*
X189841775Y-72385297D01*
X189998067Y-72385297D01*
X189998067Y-72585336D01*
X189998270Y-72652366D01*
X189998958Y-72704530D01*
X190000245Y-72743889D01*
X190002246Y-72772507D01*
X190005076Y-72792447D01*
X190008851Y-72805771D01*
X190010589Y-72809589D01*
X190020245Y-72825767D01*
X190031482Y-72835573D01*
X190048603Y-72840664D01*
X190075909Y-72842702D01*
X190097550Y-72843131D01*
X190150467Y-72843800D01*
X190150467Y-72335800D01*
X190099016Y-72335800D01*
X190068632Y-72336789D01*
X190048796Y-72341130D01*
X190033171Y-72350880D01*
X190022816Y-72360549D01*
X189998067Y-72385297D01*
X189841775Y-72385297D01*
X189842939Y-72357431D01*
X189844836Y-72332661D01*
X189847384Y-72314523D01*
X189850736Y-72300957D01*
X189855041Y-72289903D01*
X189859660Y-72280766D01*
X189888301Y-72239263D01*
X189926015Y-72207459D01*
X189947267Y-72194974D01*
X189959791Y-72189376D01*
X189975251Y-72185136D01*
X189996238Y-72182009D01*
X190025340Y-72179752D01*
X190065148Y-72178120D01*
X190118251Y-72176868D01*
X190144117Y-72176414D01*
X190311334Y-72173662D01*
X190311334Y-73665067D01*
X190311334Y-73665067D01*
G37*
X190311334Y-73665067D02*
X190156817Y-73664695D01*
X190091144Y-73664015D01*
X190040594Y-73662252D01*
X190003382Y-73659290D01*
X189977727Y-73655013D01*
X189968923Y-73652433D01*
X189917621Y-73625898D01*
X189877966Y-73587562D01*
X189851170Y-73538708D01*
X189845803Y-73522129D01*
X189843498Y-73505376D01*
X189841458Y-73474075D01*
X189839757Y-73430612D01*
X189838470Y-73377371D01*
X189837672Y-73316737D01*
X189837628Y-73305062D01*
X189999084Y-73305062D01*
X189999242Y-73361218D01*
X190000482Y-73404349D01*
X190003066Y-73436402D01*
X190007255Y-73459328D01*
X190013310Y-73475076D01*
X190021493Y-73485594D01*
X190032065Y-73492831D01*
X190034653Y-73494135D01*
X190053290Y-73499211D01*
X190081420Y-73502700D01*
X190101784Y-73503627D01*
X190150467Y-73504200D01*
X190150467Y-72996200D01*
X190096371Y-72996200D01*
X190060747Y-72997894D01*
X190036802Y-73003700D01*
X190022288Y-73012372D01*
X190016045Y-73017799D01*
X190011231Y-73024133D01*
X190007629Y-73033515D01*
X190005020Y-73048088D01*
X190003186Y-73069995D01*
X190001910Y-73101377D01*
X190000974Y-73144377D01*
X190000159Y-73201138D01*
X189999746Y-73233930D01*
X189999084Y-73305062D01*
X189837628Y-73305062D01*
X189837433Y-73254433D01*
X189837567Y-73183732D01*
X189837961Y-73127832D01*
X189838739Y-73084601D01*
X189840027Y-73051909D01*
X189841951Y-73027623D01*
X189844634Y-73009612D01*
X189848203Y-72995745D01*
X189852782Y-72983889D01*
X189853403Y-72982505D01*
X189867617Y-72957655D01*
X189883856Y-72938004D01*
X189888575Y-72934097D01*
X189907916Y-72920550D01*
X189885924Y-72903250D01*
X189872545Y-72891538D01*
X189861800Y-72878413D01*
X189853432Y-72862007D01*
X189847179Y-72840451D01*
X189842783Y-72811877D01*
X189839985Y-72774417D01*
X189838525Y-72726202D01*
X189838143Y-72665364D01*
X189838581Y-72590034D01*
X189838836Y-72564037D01*
X189839642Y-72492136D01*
X189840493Y-72435108D01*
X189841542Y-72390893D01*
X189841775Y-72385297D01*
X189998067Y-72385297D01*
X189998067Y-72585336D01*
X189998270Y-72652366D01*
X189998958Y-72704530D01*
X190000245Y-72743889D01*
X190002246Y-72772507D01*
X190005076Y-72792447D01*
X190008851Y-72805771D01*
X190010589Y-72809589D01*
X190020245Y-72825767D01*
X190031482Y-72835573D01*
X190048603Y-72840664D01*
X190075909Y-72842702D01*
X190097550Y-72843131D01*
X190150467Y-72843800D01*
X190150467Y-72335800D01*
X190099016Y-72335800D01*
X190068632Y-72336789D01*
X190048796Y-72341130D01*
X190033171Y-72350880D01*
X190022816Y-72360549D01*
X189998067Y-72385297D01*
X189841775Y-72385297D01*
X189842939Y-72357431D01*
X189844836Y-72332661D01*
X189847384Y-72314523D01*
X189850736Y-72300957D01*
X189855041Y-72289903D01*
X189859660Y-72280766D01*
X189888301Y-72239263D01*
X189926015Y-72207459D01*
X189947267Y-72194974D01*
X189959791Y-72189376D01*
X189975251Y-72185136D01*
X189996238Y-72182009D01*
X190025340Y-72179752D01*
X190065148Y-72178120D01*
X190118251Y-72176868D01*
X190144117Y-72176414D01*
X190311334Y-72173662D01*
X190311334Y-73665067D01*
G36*
X191581334Y-73665067D02*
X191418350Y-73664695D01*
X191351853Y-73664084D01*
X191300424Y-73662513D01*
X191262222Y-73659869D01*
X191235404Y-73656036D01*
X191221990Y-73652433D01*
X191170628Y-73625887D01*
X191131054Y-73587537D01*
X191104305Y-73538495D01*
X191098492Y-73520236D01*
X191096610Y-73504286D01*
X191095028Y-73471730D01*
X191093748Y-73422892D01*
X191092773Y-73358095D01*
X191092107Y-73277665D01*
X191091754Y-73181924D01*
X191091716Y-73071198D01*
X191091997Y-72945810D01*
X191092072Y-72925310D01*
X191251134Y-72925310D01*
X191251134Y-73462636D01*
X191271915Y-73483418D01*
X191284711Y-73494268D01*
X191299296Y-73500544D01*
X191320589Y-73503451D01*
X191353506Y-73504197D01*
X191356582Y-73504200D01*
X191420467Y-73504200D01*
X191420467Y-72335800D01*
X191365013Y-72335800D01*
X191319021Y-72339369D01*
X191283767Y-72349541D01*
X191261519Y-72365513D01*
X191256393Y-72374279D01*
X191255473Y-72384951D01*
X191254605Y-72411084D01*
X191253802Y-72451207D01*
X191253078Y-72503848D01*
X191252448Y-72567536D01*
X191251924Y-72640799D01*
X191251522Y-72722166D01*
X191251255Y-72810163D01*
X191251138Y-72903321D01*
X191251134Y-72925310D01*
X191092072Y-72925310D01*
X191092160Y-72901331D01*
X191092622Y-72787486D01*
X191093062Y-72689331D01*
X191093521Y-72605623D01*
X191094039Y-72535120D01*
X191094660Y-72476578D01*
X191095422Y-72428755D01*
X191096368Y-72390407D01*
X191097539Y-72360292D01*
X191098976Y-72337167D01*
X191100721Y-72319788D01*
X191102814Y-72306913D01*
X191105296Y-72297299D01*
X191108209Y-72289703D01*
X191111594Y-72282882D01*
X191112726Y-72280766D01*
X191141368Y-72239263D01*
X191179081Y-72207459D01*
X191200334Y-72194974D01*
X191212490Y-72189514D01*
X191227449Y-72185351D01*
X191247721Y-72182256D01*
X191275813Y-72180005D01*
X191314236Y-72178370D01*
X191365497Y-72177125D01*
X191405650Y-72176437D01*
X191581334Y-72173707D01*
X191581334Y-73665067D01*
X191581334Y-73665067D01*
G37*
X191581334Y-73665067D02*
X191418350Y-73664695D01*
X191351853Y-73664084D01*
X191300424Y-73662513D01*
X191262222Y-73659869D01*
X191235404Y-73656036D01*
X191221990Y-73652433D01*
X191170628Y-73625887D01*
X191131054Y-73587537D01*
X191104305Y-73538495D01*
X191098492Y-73520236D01*
X191096610Y-73504286D01*
X191095028Y-73471730D01*
X191093748Y-73422892D01*
X191092773Y-73358095D01*
X191092107Y-73277665D01*
X191091754Y-73181924D01*
X191091716Y-73071198D01*
X191091997Y-72945810D01*
X191092072Y-72925310D01*
X191251134Y-72925310D01*
X191251134Y-73462636D01*
X191271915Y-73483418D01*
X191284711Y-73494268D01*
X191299296Y-73500544D01*
X191320589Y-73503451D01*
X191353506Y-73504197D01*
X191356582Y-73504200D01*
X191420467Y-73504200D01*
X191420467Y-72335800D01*
X191365013Y-72335800D01*
X191319021Y-72339369D01*
X191283767Y-72349541D01*
X191261519Y-72365513D01*
X191256393Y-72374279D01*
X191255473Y-72384951D01*
X191254605Y-72411084D01*
X191253802Y-72451207D01*
X191253078Y-72503848D01*
X191252448Y-72567536D01*
X191251924Y-72640799D01*
X191251522Y-72722166D01*
X191251255Y-72810163D01*
X191251138Y-72903321D01*
X191251134Y-72925310D01*
X191092072Y-72925310D01*
X191092160Y-72901331D01*
X191092622Y-72787486D01*
X191093062Y-72689331D01*
X191093521Y-72605623D01*
X191094039Y-72535120D01*
X191094660Y-72476578D01*
X191095422Y-72428755D01*
X191096368Y-72390407D01*
X191097539Y-72360292D01*
X191098976Y-72337167D01*
X191100721Y-72319788D01*
X191102814Y-72306913D01*
X191105296Y-72297299D01*
X191108209Y-72289703D01*
X191111594Y-72282882D01*
X191112726Y-72280766D01*
X191141368Y-72239263D01*
X191179081Y-72207459D01*
X191200334Y-72194974D01*
X191212490Y-72189514D01*
X191227449Y-72185351D01*
X191247721Y-72182256D01*
X191275813Y-72180005D01*
X191314236Y-72178370D01*
X191365497Y-72177125D01*
X191405650Y-72176437D01*
X191581334Y-72173707D01*
X191581334Y-73665067D01*
G36*
X192690467Y-73665067D02*
X192493617Y-73664735D01*
X192423056Y-73664309D01*
X192367780Y-73663239D01*
X192326150Y-73661439D01*
X192296524Y-73658823D01*
X192277265Y-73655308D01*
X192270871Y-73653125D01*
X192254704Y-73642776D01*
X192240155Y-73624858D01*
X192224522Y-73595708D01*
X192217955Y-73581416D01*
X192205127Y-73551715D01*
X192195596Y-73527718D01*
X192191083Y-73513808D01*
X192190933Y-73512592D01*
X192199207Y-73509548D01*
X192223273Y-73507134D01*
X192262000Y-73505406D01*
X192314259Y-73504419D01*
X192360267Y-73504200D01*
X192529600Y-73504200D01*
X192529600Y-72201293D01*
X192548417Y-72188113D01*
X192570642Y-72179482D01*
X192607007Y-72175374D01*
X192628851Y-72174933D01*
X192690467Y-72174933D01*
X192690467Y-73665067D01*
X192690467Y-73665067D01*
G37*
X192690467Y-73665067D02*
X192493617Y-73664735D01*
X192423056Y-73664309D01*
X192367780Y-73663239D01*
X192326150Y-73661439D01*
X192296524Y-73658823D01*
X192277265Y-73655308D01*
X192270871Y-73653125D01*
X192254704Y-73642776D01*
X192240155Y-73624858D01*
X192224522Y-73595708D01*
X192217955Y-73581416D01*
X192205127Y-73551715D01*
X192195596Y-73527718D01*
X192191083Y-73513808D01*
X192190933Y-73512592D01*
X192199207Y-73509548D01*
X192223273Y-73507134D01*
X192262000Y-73505406D01*
X192314259Y-73504419D01*
X192360267Y-73504200D01*
X192529600Y-73504200D01*
X192529600Y-72201293D01*
X192548417Y-72188113D01*
X192570642Y-72179482D01*
X192607007Y-72175374D01*
X192628851Y-72174933D01*
X192690467Y-72174933D01*
X192690467Y-73665067D01*
D12*
X180410000Y-50430000D03*
M02*
