G04 #@! TF.FileFunction,Profile,NP*
%FSLAX46Y46*%
G04 Gerber Fmt 4.6, Leading zero omitted, Abs format (unit mm)*
G04 Created by KiCad (PCBNEW 4.0.5) date Saturday, July 08, 2017 'AMt' 10:16:17 AM*
%MOMM*%
%LPD*%
G01*
G04 APERTURE LIST*
%ADD10C,0.100000*%
%ADD11C,0.150000*%
G04 APERTURE END LIST*
D10*
D11*
X177350000Y-86280000D02*
X177390000Y-87070000D01*
X176490000Y-85170000D02*
X177350000Y-86280000D01*
X175650000Y-84210000D02*
X176490000Y-85170000D01*
X174730000Y-83440000D02*
X175650000Y-84210000D01*
X173210000Y-82040000D02*
X174730000Y-83440000D01*
X172250000Y-81180000D02*
X173210000Y-82040000D01*
X171290000Y-80270000D02*
X172250000Y-81180000D01*
X170520000Y-79450000D02*
X171290000Y-80270000D01*
X169700000Y-78470000D02*
X170520000Y-79450000D01*
X168970000Y-77320000D02*
X169700000Y-78470000D01*
X177250000Y-152980000D02*
X177390000Y-87070000D01*
X183510000Y-153010000D02*
X177250000Y-152980000D01*
X183550000Y-148240000D02*
X183510000Y-153010000D01*
X186560000Y-148240000D02*
X183550000Y-148240000D01*
X186490000Y-153080000D02*
X186560000Y-148240000D01*
X191870000Y-153080000D02*
X186490000Y-153080000D01*
X191900000Y-144470000D02*
X191870000Y-153080000D01*
X189930000Y-144470000D02*
X191900000Y-144470000D01*
X189890000Y-151060000D02*
X189930000Y-144470000D01*
X188560000Y-151060000D02*
X189890000Y-151060000D01*
X188510000Y-136400000D02*
X188560000Y-151060000D01*
X189890000Y-136380000D02*
X188510000Y-136400000D01*
X189890000Y-143070000D02*
X189890000Y-136380000D01*
X191930000Y-143070000D02*
X189890000Y-143070000D01*
X191930000Y-134180000D02*
X191930000Y-143070000D01*
X186440000Y-134200000D02*
X191930000Y-134180000D01*
X186440000Y-139000000D02*
X186440000Y-134210000D01*
X183780000Y-138990000D02*
X186440000Y-139000000D01*
X183800000Y-86610000D02*
X183780000Y-138990000D01*
X184070000Y-86230000D02*
X183800000Y-86610000D01*
X185330000Y-84730000D02*
X184070000Y-86230000D01*
X186760000Y-83340000D02*
X185330000Y-84730000D01*
X188670000Y-81570000D02*
X186760000Y-83340000D01*
X190270000Y-79870000D02*
X188670000Y-81570000D01*
X191120000Y-78840000D02*
X190270000Y-79870000D01*
X191560000Y-78200000D02*
X191120000Y-78840000D01*
X191870000Y-77350000D02*
X191560000Y-78200000D01*
X192110000Y-76530000D02*
X191870000Y-77350000D01*
X192170000Y-76090000D02*
X192110000Y-76530000D01*
X192370000Y-76070000D02*
X192170000Y-76090000D01*
X192900000Y-76010000D02*
X192370000Y-76070000D01*
X193480000Y-75910000D02*
X192900000Y-76010000D01*
X194110000Y-75590000D02*
X193480000Y-75910000D01*
X194560000Y-75200000D02*
X194110000Y-75590000D01*
X195300000Y-74460000D02*
X194560000Y-75200000D01*
X195800000Y-73830000D02*
X195300000Y-74460000D01*
X196140000Y-73330000D02*
X195800000Y-73830000D01*
X196270000Y-72900000D02*
X196140000Y-73330000D01*
X196270000Y-72460000D02*
X196270000Y-72900000D01*
X196170000Y-72110000D02*
X196270000Y-72460000D01*
X195880000Y-71720000D02*
X196170000Y-72110000D01*
X195510000Y-71370000D02*
X195880000Y-71720000D01*
X195160000Y-71030000D02*
X195510000Y-71370000D01*
X194900000Y-70690000D02*
X195160000Y-71030000D01*
X194820000Y-70290000D02*
X194900000Y-70690000D01*
X195140000Y-69130000D02*
X194820000Y-70290000D01*
X195380000Y-67870000D02*
X195140000Y-69130000D01*
X195450000Y-66710000D02*
X195380000Y-67870000D01*
X195480000Y-65550000D02*
X195450000Y-66710000D01*
X195560000Y-64520000D02*
X195480000Y-65550000D01*
X195690000Y-63520000D02*
X195560000Y-64520000D01*
X196030000Y-61780000D02*
X195690000Y-63520000D01*
X196170000Y-60040000D02*
X196030000Y-61780000D01*
X196110000Y-58960000D02*
X196170000Y-60040000D01*
X195930000Y-58400000D02*
X196110000Y-58960000D01*
X195820000Y-58090000D02*
X195930000Y-58400000D01*
X195590000Y-57800000D02*
X195820000Y-58090000D01*
X195350000Y-57510000D02*
X195590000Y-57800000D01*
X195380000Y-57430000D02*
X195350000Y-57510000D01*
X195480000Y-56820000D02*
X195380000Y-57430000D01*
X195530000Y-56240000D02*
X195480000Y-56820000D01*
X195380000Y-55550000D02*
X195530000Y-56240000D01*
X195110000Y-55000000D02*
X195380000Y-55550000D01*
X194770000Y-54500000D02*
X195110000Y-55000000D01*
X194370000Y-54100000D02*
X194770000Y-54500000D01*
X194060000Y-53660000D02*
X194370000Y-54100000D01*
X193950000Y-53210000D02*
X194060000Y-53660000D01*
X193790000Y-52570000D02*
X193950000Y-53210000D01*
X193560000Y-52100000D02*
X193790000Y-52570000D01*
X193270000Y-51650000D02*
X193560000Y-52100000D01*
X192610000Y-51150000D02*
X193270000Y-51650000D01*
X192110000Y-50890000D02*
X192610000Y-51150000D01*
X191580000Y-50810000D02*
X192110000Y-50890000D01*
X190970000Y-50760000D02*
X191580000Y-50810000D01*
X190600000Y-50620000D02*
X190970000Y-50760000D01*
X190420000Y-50470000D02*
X190600000Y-50620000D01*
X190100000Y-49940000D02*
X190420000Y-50470000D01*
X189500000Y-49230000D02*
X190100000Y-49940000D01*
X188650000Y-48620000D02*
X189500000Y-49230000D01*
X187810000Y-48250000D02*
X188650000Y-48620000D01*
X186830000Y-47990000D02*
X187810000Y-48250000D01*
X186090000Y-47860000D02*
X186830000Y-47990000D01*
X185800000Y-47700000D02*
X186090000Y-47860000D01*
X184930000Y-47220000D02*
X185800000Y-47700000D01*
X183270000Y-46560000D02*
X184930000Y-47220000D01*
X181690000Y-46110000D02*
X183270000Y-46560000D01*
X180610000Y-46010000D02*
X181690000Y-46110000D01*
X179530000Y-46010000D02*
X180610000Y-46010000D01*
X178050000Y-46380000D02*
X179530000Y-46010000D01*
X176130000Y-47040000D02*
X178050000Y-46380000D01*
X174680000Y-47800000D02*
X176130000Y-47040000D01*
X173570000Y-48070000D02*
X174680000Y-47800000D01*
X172570000Y-48510000D02*
X173570000Y-48070000D01*
X171650000Y-49150000D02*
X172570000Y-48510000D01*
X171010000Y-49780000D02*
X171650000Y-49150000D01*
X170450000Y-50530000D02*
X171010000Y-49780000D01*
X169510000Y-50680000D02*
X170450000Y-50530000D01*
X168500000Y-50920000D02*
X169510000Y-50680000D01*
X167790000Y-51390000D02*
X168500000Y-50920000D01*
X167400000Y-52010000D02*
X167790000Y-51390000D01*
X167090000Y-53110000D02*
X167400000Y-52010000D01*
X166770000Y-54290000D02*
X167090000Y-53110000D01*
X166460000Y-55150000D02*
X166770000Y-54290000D01*
X166220000Y-55770000D02*
X166460000Y-55150000D01*
X166070000Y-56400000D02*
X166220000Y-55770000D01*
X165990000Y-57180000D02*
X166070000Y-56400000D01*
X165600000Y-57580000D02*
X165990000Y-57180000D01*
X165130000Y-58120000D02*
X165600000Y-57580000D01*
X164970000Y-58910000D02*
X165130000Y-58120000D01*
X164890000Y-59850000D02*
X164970000Y-58910000D01*
X165050000Y-61490000D02*
X164890000Y-59850000D01*
X165600000Y-63530000D02*
X165050000Y-61490000D01*
X166070000Y-65020000D02*
X165600000Y-63530000D01*
X166070000Y-66430000D02*
X166070000Y-65020000D01*
X166150000Y-68070000D02*
X166070000Y-66430000D01*
X166380000Y-69090000D02*
X166150000Y-68070000D01*
X166460000Y-69950000D02*
X166380000Y-69090000D01*
X166150000Y-70270000D02*
X166460000Y-69950000D01*
X165600000Y-70740000D02*
X166150000Y-70270000D01*
X165130000Y-71280000D02*
X165600000Y-70740000D01*
X164810000Y-71600000D02*
X165130000Y-71280000D01*
X164740000Y-72070000D02*
X164810000Y-71600000D01*
X165050000Y-73400000D02*
X164740000Y-72070000D01*
X165600000Y-74420000D02*
X165050000Y-73400000D01*
X166380000Y-75200000D02*
X165600000Y-74420000D01*
X167090000Y-75750000D02*
X166380000Y-75200000D01*
X167870000Y-76140000D02*
X167090000Y-75750000D01*
X168730000Y-76380000D02*
X167870000Y-76140000D01*
X168970000Y-77320000D02*
X168730000Y-76380000D01*
M02*
