G04 #@! TF.FileFunction,Soldermask,Top*
%FSLAX46Y46*%
G04 Gerber Fmt 4.6, Leading zero omitted, Abs format (unit mm)*
G04 Created by KiCad (PCBNEW 4.0.5) date Saturday, July 08, 2017 'AMt' 10:12:31 AM*
%MOMM*%
%LPD*%
G01*
G04 APERTURE LIST*
%ADD10C,0.100000*%
%ADD11C,0.010000*%
%ADD12C,4.400000*%
G04 APERTURE END LIST*
D10*
D11*
G36*
X132118926Y-67411577D02*
X132254715Y-67536346D01*
X132465603Y-67736197D01*
X132744127Y-68003884D01*
X133082823Y-68332157D01*
X133474227Y-68713770D01*
X133910876Y-69141473D01*
X134385307Y-69608020D01*
X134890056Y-70106163D01*
X135197589Y-70410499D01*
X138274529Y-73458499D01*
X142584267Y-73458499D01*
X143466800Y-73458970D01*
X144229789Y-73460470D01*
X144880685Y-73463137D01*
X145426939Y-73467105D01*
X145876004Y-73472511D01*
X146235332Y-73479489D01*
X146512374Y-73488176D01*
X146714582Y-73498708D01*
X146849408Y-73511219D01*
X146924304Y-73525846D01*
X146945377Y-73537875D01*
X146954251Y-73613268D01*
X146963102Y-73805137D01*
X146971770Y-74102961D01*
X146980094Y-74496215D01*
X146987913Y-74974376D01*
X146995069Y-75526920D01*
X147001399Y-76143326D01*
X147006745Y-76813069D01*
X147010945Y-77525627D01*
X147012841Y-77967000D01*
X147028932Y-82316750D01*
X152457750Y-87690170D01*
X151479278Y-87654585D01*
X151140541Y-87644778D01*
X150705094Y-87636006D01*
X150203228Y-87628660D01*
X149665232Y-87623130D01*
X149121395Y-87619807D01*
X148722765Y-87618999D01*
X146944723Y-87618999D01*
X147031807Y-83618499D01*
X146468883Y-83618500D01*
X145905960Y-83618500D01*
X145864097Y-85475875D01*
X145852725Y-86022342D01*
X145842518Y-86593178D01*
X145833917Y-87157182D01*
X145827361Y-87683150D01*
X145823292Y-88139882D01*
X145822117Y-88450334D01*
X145819385Y-88900664D01*
X145811948Y-89388211D01*
X145800811Y-89865144D01*
X145786979Y-90283632D01*
X145780405Y-90434709D01*
X145738811Y-91302000D01*
X143819843Y-91302000D01*
X143328995Y-91303288D01*
X142871261Y-91306935D01*
X142464309Y-91312607D01*
X142125809Y-91319973D01*
X141873431Y-91328704D01*
X141724843Y-91338467D01*
X141702437Y-91341687D01*
X141504000Y-91381375D01*
X141504000Y-97334500D01*
X144615500Y-97334500D01*
X144615500Y-100108669D01*
X142567625Y-100151224D01*
X141960826Y-100165072D01*
X141297793Y-100182340D01*
X140615419Y-100201925D01*
X139950602Y-100222721D01*
X139340234Y-100243626D01*
X138837000Y-100262883D01*
X138330519Y-100284057D01*
X137934905Y-100302261D01*
X137634116Y-100319402D01*
X137412112Y-100337387D01*
X137252852Y-100358123D01*
X137140296Y-100383518D01*
X137058404Y-100415479D01*
X136991134Y-100455913D01*
X136947830Y-100487509D01*
X136864188Y-100564533D01*
X136704016Y-100725363D01*
X136476615Y-100960199D01*
X136191285Y-101259240D01*
X135857325Y-101612685D01*
X135484035Y-102010733D01*
X135080715Y-102443583D01*
X134656664Y-102901434D01*
X134632485Y-102927623D01*
X132523559Y-105212215D01*
X132104238Y-104781732D01*
X131950625Y-104624424D01*
X131723699Y-104392569D01*
X131439171Y-104102193D01*
X131112753Y-103769325D01*
X130760157Y-103409990D01*
X130397095Y-103040216D01*
X130327129Y-102968984D01*
X128969341Y-101586718D01*
X129614123Y-100922250D01*
X129691741Y-93365750D01*
X125433946Y-93383361D01*
X121176152Y-93400972D01*
X119100451Y-91377700D01*
X118639145Y-90928686D01*
X118176141Y-90479206D01*
X117725635Y-90042961D01*
X117301825Y-89633651D01*
X116918907Y-89264977D01*
X116591076Y-88950640D01*
X116332530Y-88704339D01*
X116231000Y-88608470D01*
X115969691Y-88361342D01*
X115742685Y-88143702D01*
X115565437Y-87970606D01*
X115453401Y-87857114D01*
X115421154Y-87819468D01*
X115458938Y-87763361D01*
X115573717Y-87632755D01*
X115751900Y-87442165D01*
X115979899Y-87206108D01*
X116244124Y-86939100D01*
X116262529Y-86920720D01*
X117120000Y-86065014D01*
X117120000Y-87800355D01*
X119144333Y-89750737D01*
X119569125Y-90159028D01*
X119968589Y-90541086D01*
X120332878Y-90887630D01*
X120652145Y-91189379D01*
X120916544Y-91437053D01*
X121116230Y-91621370D01*
X121241355Y-91733050D01*
X121279145Y-91762947D01*
X121375881Y-91788641D01*
X121441720Y-91730339D01*
X121481141Y-91575821D01*
X121498627Y-91312866D01*
X121500527Y-91159125D01*
X121501500Y-90667000D01*
X122581000Y-90667000D01*
X122581972Y-91254375D01*
X122588024Y-91522570D01*
X122603414Y-91747126D01*
X122625373Y-91894388D01*
X122637337Y-91927585D01*
X122720853Y-91971820D01*
X122898057Y-92019450D01*
X123135989Y-92064452D01*
X123401687Y-92100804D01*
X123662189Y-92122484D01*
X123716294Y-92124711D01*
X123743397Y-92115744D01*
X123763024Y-92078435D01*
X123774968Y-92000117D01*
X123779028Y-91868120D01*
X123774998Y-91669775D01*
X123762675Y-91392413D01*
X123741855Y-91023366D01*
X123712333Y-90549965D01*
X123683872Y-90111375D01*
X123645397Y-89523999D01*
X120306251Y-89523999D01*
X119919625Y-89102066D01*
X119748466Y-88910624D01*
X119616123Y-88753743D01*
X119542098Y-88654963D01*
X119532999Y-88635393D01*
X119594621Y-88606766D01*
X119772002Y-88580759D01*
X120053921Y-88557906D01*
X120429157Y-88538739D01*
X120886485Y-88523793D01*
X121414684Y-88513601D01*
X122002531Y-88508695D01*
X122206687Y-88508328D01*
X123642124Y-88508000D01*
X123685342Y-84015375D01*
X123693024Y-83264334D01*
X123701261Y-82545324D01*
X123709873Y-81869248D01*
X123718681Y-81247008D01*
X123727504Y-80689508D01*
X123736162Y-80207651D01*
X123744475Y-79812339D01*
X123752262Y-79514475D01*
X123759345Y-79324964D01*
X123763847Y-79262164D01*
X123799134Y-79001578D01*
X125936442Y-78960890D01*
X126419666Y-78952246D01*
X127008543Y-78942628D01*
X127681731Y-78932337D01*
X128417888Y-78921672D01*
X129195672Y-78910932D01*
X129993744Y-78900415D01*
X130790760Y-78890423D01*
X131565380Y-78881254D01*
X131813495Y-78878448D01*
X135553240Y-78836694D01*
X135506583Y-81504252D01*
X135459925Y-84171810D01*
X135650043Y-84209833D01*
X135763994Y-84221842D01*
X135985565Y-84235813D01*
X136295405Y-84250881D01*
X136674164Y-84266180D01*
X137102495Y-84280843D01*
X137487591Y-84292067D01*
X139135021Y-84336278D01*
X139176510Y-85575100D01*
X139183952Y-85863453D01*
X139190967Y-86263437D01*
X139197433Y-86759684D01*
X139203231Y-87336825D01*
X139208240Y-87979492D01*
X139212342Y-88672317D01*
X139215416Y-89399931D01*
X139217342Y-90146965D01*
X139218000Y-90889258D01*
X139218000Y-94964594D01*
X137493183Y-95006547D01*
X136934405Y-95018671D01*
X136323434Y-95029421D01*
X135700258Y-95038262D01*
X135104863Y-95044658D01*
X134577239Y-95048075D01*
X134359874Y-95048500D01*
X132951383Y-95048500D01*
X132909903Y-94048375D01*
X132894231Y-93603590D01*
X132881236Y-93107477D01*
X132872168Y-92617058D01*
X132868272Y-92189355D01*
X132868211Y-92143375D01*
X132868000Y-91238500D01*
X132248875Y-91237561D01*
X131581927Y-91198245D01*
X131006395Y-91077816D01*
X130510575Y-90869291D01*
X130082762Y-90565691D01*
X129711255Y-90160033D01*
X129384349Y-89645336D01*
X129297304Y-89476877D01*
X129026250Y-88929407D01*
X129026250Y-87450675D01*
X129295079Y-86908154D01*
X129616571Y-86370552D01*
X130003402Y-85913304D01*
X130439427Y-85553740D01*
X130698914Y-85401590D01*
X131160540Y-85225461D01*
X131680629Y-85122184D01*
X132224206Y-85092265D01*
X132756298Y-85136212D01*
X133241928Y-85254532D01*
X133495723Y-85361062D01*
X133803405Y-85558402D01*
X134131104Y-85838611D01*
X134445175Y-86169455D01*
X134711971Y-86518697D01*
X134725719Y-86539500D01*
X134862167Y-86773892D01*
X134988110Y-87035897D01*
X135093415Y-87297644D01*
X135167948Y-87531264D01*
X135201576Y-87708886D01*
X135184772Y-87802068D01*
X135095011Y-87833195D01*
X134914002Y-87860836D01*
X134677486Y-87879863D01*
X134626275Y-87882198D01*
X134130301Y-87901866D01*
X133984336Y-87542729D01*
X133752682Y-87096139D01*
X133457328Y-86750574D01*
X133110795Y-86504518D01*
X132906105Y-86402128D01*
X132722642Y-86345170D01*
X132506302Y-86321213D01*
X132296500Y-86317419D01*
X132001565Y-86328022D01*
X131778448Y-86366853D01*
X131573159Y-86444775D01*
X131510575Y-86475561D01*
X131118180Y-86743114D01*
X130818392Y-87092588D01*
X130618239Y-87512069D01*
X130524747Y-87989642D01*
X130518500Y-88157593D01*
X130577897Y-88608361D01*
X130752977Y-89011949D01*
X131039068Y-89361731D01*
X131431503Y-89651077D01*
X131650233Y-89763795D01*
X131886904Y-89857738D01*
X132095952Y-89896601D01*
X132348597Y-89892567D01*
X132386250Y-89889697D01*
X132666561Y-89852139D01*
X132905897Y-89778342D01*
X133136697Y-89651577D01*
X133391395Y-89455120D01*
X133611009Y-89258129D01*
X134021413Y-88876332D01*
X135344454Y-88898541D01*
X135742331Y-88907253D01*
X136096642Y-88918881D01*
X136387911Y-88932469D01*
X136596662Y-88947060D01*
X136703418Y-88961698D01*
X136712431Y-88965725D01*
X136724991Y-89038388D01*
X136738477Y-89221751D01*
X136752216Y-89499523D01*
X136765535Y-89855413D01*
X136777762Y-90273131D01*
X136788224Y-90736387D01*
X136790439Y-90854850D01*
X136823511Y-92699000D01*
X135598500Y-92699000D01*
X135598500Y-90095500D01*
X135160933Y-90095500D01*
X134910818Y-90102433D01*
X134733876Y-90133402D01*
X134576586Y-90203655D01*
X134414808Y-90308096D01*
X134106250Y-90520692D01*
X134072286Y-93730692D01*
X136014199Y-93704154D01*
X136576807Y-93695586D01*
X137025028Y-93686435D01*
X137371473Y-93675951D01*
X137628755Y-93663386D01*
X137809487Y-93647987D01*
X137926281Y-93629006D01*
X137991749Y-93605692D01*
X138014584Y-93585183D01*
X138028454Y-93500985D01*
X138040464Y-93305942D01*
X138050608Y-93016194D01*
X138058881Y-92647881D01*
X138065279Y-92217146D01*
X138069796Y-91740128D01*
X138072427Y-91232969D01*
X138073168Y-90711809D01*
X138072014Y-90192790D01*
X138068959Y-89692051D01*
X138063998Y-89225734D01*
X138057127Y-88809980D01*
X138048340Y-88460929D01*
X138037633Y-88194722D01*
X138025000Y-88027501D01*
X138016317Y-87980921D01*
X137983171Y-87911936D01*
X137930054Y-87865761D01*
X137832403Y-87836199D01*
X137665651Y-87817057D01*
X137405234Y-87802138D01*
X137285896Y-87796700D01*
X137006837Y-87781495D01*
X136777859Y-87763756D01*
X136626810Y-87745964D01*
X136581273Y-87733940D01*
X136570600Y-87659040D01*
X136573255Y-87492541D01*
X136588578Y-87269075D01*
X136590562Y-87247277D01*
X136632737Y-86793500D01*
X138011500Y-86793500D01*
X138011500Y-85794699D01*
X137201875Y-85752467D01*
X136831774Y-85732217D01*
X136449025Y-85709691D01*
X136102658Y-85687857D01*
X135874579Y-85672139D01*
X135356908Y-85634041D01*
X134864555Y-85138783D01*
X134372202Y-84643526D01*
X134386527Y-83400763D01*
X134400852Y-82157999D01*
X133856676Y-82157999D01*
X133312500Y-82158000D01*
X133312500Y-83809000D01*
X132218550Y-83809000D01*
X132264750Y-82126250D01*
X131782469Y-82107881D01*
X131515770Y-82104093D01*
X131347052Y-82120194D01*
X131248287Y-82160236D01*
X131217071Y-82189663D01*
X131173923Y-82308590D01*
X131137651Y-82551473D01*
X131108613Y-82915437D01*
X131096101Y-83160532D01*
X131058250Y-84031250D01*
X130502625Y-84049597D01*
X130234623Y-84055914D01*
X130069166Y-84050488D01*
X129982025Y-84029181D01*
X129948971Y-83987852D01*
X129945055Y-83954347D01*
X129937101Y-83751925D01*
X129920538Y-83489938D01*
X129897923Y-83196374D01*
X129871812Y-82899221D01*
X129844763Y-82626466D01*
X129819333Y-82406098D01*
X129798079Y-82266104D01*
X129787635Y-82231384D01*
X129714023Y-82217392D01*
X129533665Y-82203121D01*
X129266807Y-82189585D01*
X128933696Y-82177793D01*
X128554579Y-82168758D01*
X128521940Y-82168168D01*
X127297796Y-82146586D01*
X127258015Y-82295168D01*
X127219347Y-82563524D01*
X127237322Y-82823139D01*
X127307870Y-83021644D01*
X127315350Y-83032870D01*
X127380452Y-83105505D01*
X127470855Y-83148164D01*
X127618777Y-83168638D01*
X127856438Y-83174714D01*
X127902725Y-83174867D01*
X128226823Y-83177249D01*
X128444919Y-83193476D01*
X128578000Y-83239217D01*
X128647052Y-83330137D01*
X128673061Y-83481904D01*
X128677012Y-83710186D01*
X128677000Y-83752906D01*
X128677000Y-84253500D01*
X128073750Y-84253500D01*
X127781618Y-84257060D01*
X127587306Y-84271110D01*
X127461748Y-84300705D01*
X127375882Y-84350899D01*
X127343500Y-84380500D01*
X127253780Y-84552925D01*
X127215070Y-84836419D01*
X127227788Y-85225562D01*
X127257946Y-85490662D01*
X127299393Y-85793051D01*
X127697646Y-85752248D01*
X128095899Y-85711446D01*
X128065032Y-86204848D01*
X128043880Y-86524297D01*
X128020768Y-86739455D01*
X127985076Y-86872734D01*
X127926181Y-86946546D01*
X127833461Y-86983304D01*
X127696294Y-87005421D01*
X127684877Y-87006983D01*
X127494609Y-87024127D01*
X127220173Y-87037679D01*
X126904387Y-87045876D01*
X126699637Y-87047500D01*
X126010000Y-87047500D01*
X126010000Y-81098758D01*
X127449012Y-81056879D01*
X127836189Y-81047623D01*
X128327041Y-81039077D01*
X128898241Y-81031471D01*
X129526465Y-81025036D01*
X130188387Y-81020002D01*
X130860681Y-81016602D01*
X131520024Y-81015065D01*
X131679168Y-81015000D01*
X134470312Y-81015000D01*
X134432023Y-80872125D01*
X134411531Y-80733616D01*
X134397298Y-80519491D01*
X134392867Y-80323376D01*
X134392000Y-79917503D01*
X129628413Y-79948754D01*
X128862397Y-79954108D01*
X128133873Y-79959836D01*
X127452724Y-79965822D01*
X126828830Y-79971950D01*
X126272074Y-79978102D01*
X125792336Y-79984161D01*
X125399499Y-79990011D01*
X125103443Y-79995535D01*
X124914051Y-80000615D01*
X124841203Y-80005136D01*
X124840763Y-80005378D01*
X124836203Y-80071614D01*
X124831209Y-80254069D01*
X124825906Y-80541964D01*
X124820418Y-80924519D01*
X124814873Y-81390954D01*
X124809396Y-81930489D01*
X124804111Y-82532344D01*
X124799146Y-83185741D01*
X124794626Y-83879899D01*
X124793645Y-84047125D01*
X124770592Y-88063500D01*
X127978500Y-88063500D01*
X127978500Y-89460500D01*
X126883125Y-89460951D01*
X126484240Y-89463566D01*
X126093889Y-89470496D01*
X125744904Y-89480849D01*
X125470114Y-89493735D01*
X125353233Y-89502434D01*
X124918716Y-89543465D01*
X124940483Y-90698815D01*
X124951186Y-91140181D01*
X124965302Y-91470153D01*
X124984227Y-91704322D01*
X125009358Y-91858279D01*
X125042091Y-91947615D01*
X125053848Y-91964443D01*
X125101160Y-92006277D01*
X125175245Y-92035146D01*
X125296083Y-92052679D01*
X125483657Y-92060511D01*
X125757946Y-92060271D01*
X126138933Y-92053593D01*
X126144052Y-92053485D01*
X126488737Y-92043206D01*
X126788382Y-92028696D01*
X127020108Y-92011501D01*
X127161038Y-91993169D01*
X127192201Y-91982584D01*
X127215982Y-91902580D01*
X127242676Y-91723479D01*
X127268789Y-91473027D01*
X127288192Y-91220584D01*
X127307083Y-90935194D01*
X127323101Y-90701331D01*
X127334423Y-90545058D01*
X127339068Y-90492375D01*
X127399969Y-90485548D01*
X127560014Y-90480192D01*
X127791353Y-90477036D01*
X127946750Y-90476500D01*
X128550000Y-90476500D01*
X128550000Y-91136215D01*
X128555359Y-91497306D01*
X128582481Y-91752165D01*
X128647934Y-91921455D01*
X128768285Y-92025837D01*
X128960103Y-92085974D01*
X129239954Y-92122526D01*
X129348817Y-92132443D01*
X129691498Y-92156521D01*
X130086146Y-92175440D01*
X130457738Y-92185751D01*
X130523982Y-92186487D01*
X131132715Y-92191000D01*
X131174794Y-95667625D01*
X131183010Y-96371040D01*
X131190699Y-97076773D01*
X131197702Y-97766960D01*
X131203860Y-98423737D01*
X131209016Y-99029239D01*
X131213011Y-99565604D01*
X131215687Y-100014967D01*
X131216886Y-100359463D01*
X131216936Y-100424150D01*
X131217000Y-101704050D01*
X132637456Y-103055604D01*
X133296402Y-102401677D01*
X133569990Y-102126370D01*
X133881036Y-101807009D01*
X134215836Y-101458286D01*
X134560685Y-101094888D01*
X134901877Y-100731507D01*
X135225708Y-100382832D01*
X135518474Y-100063553D01*
X135766469Y-99788359D01*
X135955989Y-99571941D01*
X136073329Y-99428988D01*
X136086656Y-99410890D01*
X136198152Y-99198300D01*
X136272005Y-98956683D01*
X136278962Y-98913224D01*
X136318800Y-98666872D01*
X136380203Y-98518446D01*
X136491995Y-98443305D01*
X136683002Y-98416809D01*
X136862958Y-98414000D01*
X137136212Y-98424767D01*
X137310164Y-98469994D01*
X137411619Y-98569071D01*
X137467376Y-98741386D01*
X137487093Y-98865506D01*
X137522769Y-99131493D01*
X140417657Y-99085556D01*
X141010626Y-99075913D01*
X141563075Y-99066474D01*
X142062369Y-99057490D01*
X142495872Y-99049210D01*
X142850949Y-99041880D01*
X143114964Y-99035752D01*
X143275282Y-99031072D01*
X143320574Y-99028435D01*
X143331441Y-98964738D01*
X143349850Y-98815961D01*
X143360073Y-98723852D01*
X143372537Y-98544585D01*
X143354253Y-98462150D01*
X143297972Y-98448573D01*
X143289147Y-98450082D01*
X143198240Y-98457231D01*
X142999864Y-98466458D01*
X142713517Y-98477070D01*
X142358701Y-98488374D01*
X141954914Y-98499678D01*
X141737046Y-98505204D01*
X140287343Y-98540698D01*
X140332105Y-97909315D01*
X140376868Y-97277932D01*
X139368809Y-97306739D01*
X139060860Y-97314728D01*
X138649285Y-97324184D01*
X138157445Y-97334638D01*
X137608698Y-97345617D01*
X137026404Y-97356650D01*
X136433923Y-97367266D01*
X136027125Y-97374172D01*
X133693500Y-97412797D01*
X133693500Y-98933826D01*
X134001601Y-98675868D01*
X134177835Y-98523747D01*
X134321833Y-98391325D01*
X134390376Y-98320705D01*
X134482446Y-98239804D01*
X134526775Y-98223500D01*
X134548243Y-98282853D01*
X134565315Y-98444387D01*
X134576247Y-98683306D01*
X134579315Y-98969625D01*
X134576131Y-99715750D01*
X133907455Y-100319000D01*
X133623318Y-100574039D01*
X133332492Y-100832869D01*
X133067586Y-101066599D01*
X132861209Y-101246339D01*
X132847014Y-101258542D01*
X132455250Y-101594835D01*
X132412331Y-101322042D01*
X132402591Y-101198154D01*
X132393381Y-100963016D01*
X132384975Y-100632377D01*
X132377648Y-100221987D01*
X132371674Y-99747594D01*
X132367328Y-99224950D01*
X132364884Y-98669802D01*
X132364706Y-98588625D01*
X132360000Y-96128000D01*
X132756875Y-96126654D01*
X133094690Y-96124316D01*
X133512639Y-96119497D01*
X133997084Y-96112500D01*
X134534389Y-96103631D01*
X135110918Y-96093196D01*
X135713035Y-96081499D01*
X136327103Y-96068847D01*
X136939487Y-96055545D01*
X137536550Y-96041897D01*
X138104656Y-96028209D01*
X138630169Y-96014787D01*
X139099452Y-96001935D01*
X139498870Y-95989960D01*
X139814786Y-95979166D01*
X140033564Y-95969859D01*
X140141567Y-95962343D01*
X140148405Y-95961152D01*
X140311774Y-95920149D01*
X140273886Y-95150949D01*
X140263382Y-94896728D01*
X140251421Y-94537753D01*
X140238597Y-94096251D01*
X140225504Y-93594453D01*
X140212736Y-93054586D01*
X140200888Y-92498879D01*
X140195209Y-92206875D01*
X140154420Y-90032000D01*
X142273835Y-90031027D01*
X142782047Y-90029441D01*
X143250673Y-90025387D01*
X143664345Y-90019198D01*
X144007694Y-90011209D01*
X144265354Y-90001755D01*
X144421956Y-89991168D01*
X144463021Y-89983402D01*
X144495906Y-89904024D01*
X144529397Y-89726717D01*
X144558889Y-89480447D01*
X144574839Y-89280176D01*
X144616884Y-88623603D01*
X144378067Y-88658734D01*
X144255070Y-88668990D01*
X144023216Y-88680931D01*
X143700623Y-88693908D01*
X143305413Y-88707273D01*
X142855705Y-88720379D01*
X142369619Y-88732576D01*
X142218375Y-88735984D01*
X140297500Y-88778102D01*
X140297500Y-87504528D01*
X141011875Y-87467678D01*
X141299584Y-87454438D01*
X141681443Y-87439202D01*
X142124639Y-87423153D01*
X142596359Y-87407471D01*
X143063794Y-87393339D01*
X143123250Y-87391657D01*
X143529533Y-87379857D01*
X143889974Y-87368607D01*
X144186336Y-87358542D01*
X144400382Y-87350295D01*
X144513874Y-87344500D01*
X144527276Y-87342868D01*
X144534331Y-87279754D01*
X144547464Y-87118290D01*
X144564446Y-86886856D01*
X144574479Y-86742072D01*
X144614655Y-86150894D01*
X143360952Y-86187118D01*
X142889640Y-86201149D01*
X142382296Y-86216952D01*
X141882784Y-86233114D01*
X141434971Y-86248225D01*
X141170625Y-86257608D01*
X140234000Y-86291873D01*
X140234000Y-83130489D01*
X139138625Y-83088939D01*
X138716334Y-83074460D01*
X138279963Y-83062151D01*
X137869811Y-83052976D01*
X137526173Y-83047896D01*
X137392375Y-83047194D01*
X136741500Y-83047000D01*
X136742367Y-80332375D01*
X136743426Y-79752513D01*
X136746098Y-79208376D01*
X136750191Y-78713891D01*
X136755515Y-78282991D01*
X136761879Y-77929605D01*
X136769092Y-77667663D01*
X136776963Y-77511096D01*
X136781523Y-77474875D01*
X136807390Y-77407793D01*
X136858374Y-77365816D01*
X136960141Y-77343092D01*
X137138356Y-77333770D01*
X137408249Y-77332000D01*
X137704202Y-77328351D01*
X137895903Y-77306204D01*
X138006088Y-77248755D01*
X138057494Y-77139199D01*
X138072859Y-76960733D01*
X138074132Y-76839875D01*
X138075000Y-76633500D01*
X137066937Y-76633499D01*
X136706544Y-76635865D01*
X136377582Y-76642388D01*
X136107116Y-76652206D01*
X135922209Y-76664458D01*
X135868077Y-76671659D01*
X135772594Y-76695993D01*
X135712988Y-76740654D01*
X135677102Y-76833619D01*
X135652779Y-77002862D01*
X135633526Y-77211409D01*
X135589772Y-77712999D01*
X135022636Y-77712999D01*
X134455500Y-77713000D01*
X134455500Y-77270734D01*
X134444305Y-77005053D01*
X134396044Y-76835030D01*
X134288702Y-76741736D01*
X134100264Y-76706242D01*
X133808714Y-76709620D01*
X133803206Y-76709881D01*
X133407750Y-76728750D01*
X133421649Y-77250484D01*
X133435548Y-77772219D01*
X132913649Y-77738555D01*
X132581774Y-77716153D01*
X132356112Y-77693271D01*
X132216182Y-77660576D01*
X132141507Y-77608736D01*
X132111607Y-77528417D01*
X132106004Y-77410285D01*
X132106000Y-77370477D01*
X132096431Y-77143004D01*
X132072775Y-76931443D01*
X132066312Y-76895437D01*
X132026625Y-76697000D01*
X130836000Y-76697000D01*
X130836000Y-77840000D01*
X130009152Y-77839999D01*
X129182304Y-77839999D01*
X129224162Y-76776374D01*
X129239638Y-76422076D01*
X129256007Y-76113948D01*
X129271889Y-75873576D01*
X129285901Y-75722551D01*
X129294262Y-75681000D01*
X129365245Y-75670120D01*
X129551699Y-75658764D01*
X129842099Y-75647135D01*
X130224919Y-75635439D01*
X130688631Y-75623880D01*
X131221710Y-75612662D01*
X131812630Y-75601991D01*
X132449863Y-75592071D01*
X133121885Y-75583106D01*
X133817168Y-75575302D01*
X134524187Y-75568864D01*
X135231415Y-75563995D01*
X135927325Y-75560901D01*
X136081102Y-75560470D01*
X138690954Y-75554000D01*
X139026662Y-75939972D01*
X139362371Y-76325945D01*
X139288796Y-77252765D01*
X139258049Y-77587797D01*
X139223371Y-77880884D01*
X139188303Y-78107074D01*
X139156384Y-78241414D01*
X139145335Y-78263792D01*
X139036119Y-78314793D01*
X138809870Y-78342323D01*
X138575224Y-78347999D01*
X138075000Y-78348000D01*
X138075000Y-79300500D01*
X139154500Y-79300500D01*
X139154518Y-80602250D01*
X138614759Y-80579858D01*
X138075000Y-80557467D01*
X138075000Y-81713500D01*
X140161362Y-81713500D01*
X140124236Y-79586250D01*
X140114684Y-79000840D01*
X140108804Y-78530534D01*
X140106885Y-78163482D01*
X140109219Y-77887833D01*
X140116097Y-77691736D01*
X140127810Y-77563340D01*
X140144649Y-77490795D01*
X140166904Y-77462249D01*
X140176430Y-77460464D01*
X140256282Y-77502500D01*
X140404652Y-77615387D01*
X140599268Y-77781171D01*
X140786884Y-77952589D01*
X141308018Y-78443250D01*
X141350807Y-81634125D01*
X141393595Y-84825000D01*
X144615500Y-84825000D01*
X144615500Y-84314960D01*
X144595719Y-83922925D01*
X144526885Y-83614458D01*
X144394762Y-83350995D01*
X144185112Y-83093968D01*
X144152119Y-83059731D01*
X143885250Y-82786712D01*
X143821750Y-83967750D01*
X143180606Y-83985738D01*
X142539463Y-84003727D01*
X142494238Y-81916206D01*
X142481658Y-81282748D01*
X142474316Y-80765443D01*
X142472634Y-80353534D01*
X142477036Y-80036266D01*
X142487942Y-79802884D01*
X142505774Y-79642630D01*
X142530955Y-79544750D01*
X142563906Y-79498487D01*
X142589382Y-79491000D01*
X142622333Y-79499989D01*
X142673141Y-79532781D01*
X142750592Y-79598114D01*
X142863472Y-79704725D01*
X143020569Y-79861353D01*
X143230667Y-80076735D01*
X143502554Y-80359609D01*
X143845015Y-80718712D01*
X144205767Y-81098427D01*
X145399875Y-82356604D01*
X146170402Y-81586077D01*
X142621861Y-78037111D01*
X141851308Y-77266466D01*
X143638027Y-77266466D01*
X144203562Y-77854858D01*
X144431789Y-78089447D01*
X144687841Y-78347945D01*
X144955985Y-78615008D01*
X145220488Y-78875293D01*
X145465617Y-79113457D01*
X145675640Y-79314157D01*
X145834824Y-79462049D01*
X145927436Y-79541789D01*
X145943108Y-79551340D01*
X145948192Y-79491089D01*
X145950742Y-79318599D01*
X145950842Y-79048605D01*
X145948573Y-78695842D01*
X145944018Y-78275045D01*
X145937259Y-77800948D01*
X145931354Y-77450420D01*
X145920683Y-76944806D01*
X145907729Y-76479428D01*
X145893164Y-76069592D01*
X145877657Y-75730604D01*
X145861877Y-75477767D01*
X145846495Y-75326388D01*
X145836768Y-75289368D01*
X145774326Y-75311908D01*
X145636172Y-75409449D01*
X145437684Y-75568501D01*
X145194243Y-75775571D01*
X144921229Y-76017167D01*
X144634020Y-76279799D01*
X144347998Y-76549974D01*
X144078542Y-76814201D01*
X143952138Y-76942643D01*
X143638027Y-77266466D01*
X141851308Y-77266466D01*
X139218406Y-74633250D01*
X141043081Y-74633250D01*
X141774047Y-75391588D01*
X142505012Y-76149926D01*
X142687131Y-76032258D01*
X142805446Y-75948860D01*
X142997750Y-75805616D01*
X143238640Y-75621736D01*
X143502711Y-75416433D01*
X143536000Y-75390288D01*
X143807173Y-75175387D01*
X144062852Y-74969801D01*
X144275516Y-74795844D01*
X144417645Y-74675836D01*
X144425000Y-74669362D01*
X144647250Y-74472741D01*
X143155000Y-74514606D01*
X142712227Y-74528290D01*
X142294122Y-74543556D01*
X141923407Y-74559393D01*
X141622807Y-74574789D01*
X141415045Y-74588730D01*
X141352915Y-74594860D01*
X141043081Y-74633250D01*
X139218406Y-74633250D01*
X139073319Y-74488146D01*
X138717034Y-74511615D01*
X138579314Y-74517168D01*
X138329520Y-74523559D01*
X137982570Y-74530543D01*
X137553386Y-74537877D01*
X137056888Y-74545318D01*
X136507997Y-74552623D01*
X135921633Y-74559547D01*
X135519125Y-74563813D01*
X132677500Y-74592541D01*
X132677500Y-73523712D01*
X134776326Y-73506981D01*
X136875153Y-73490250D01*
X134760451Y-71448009D01*
X134188636Y-70896577D01*
X133700912Y-70428143D01*
X133290758Y-70036722D01*
X132951651Y-69716328D01*
X132677068Y-69460976D01*
X132460489Y-69264678D01*
X132295391Y-69121451D01*
X132175251Y-69025308D01*
X132093547Y-68970263D01*
X132043758Y-68950331D01*
X132038560Y-68950000D01*
X131977092Y-68993715D01*
X131845708Y-69113632D01*
X131660926Y-69292905D01*
X131439266Y-69514686D01*
X131197247Y-69762132D01*
X130951389Y-70018395D01*
X130718212Y-70266631D01*
X130514234Y-70489993D01*
X130392306Y-70628774D01*
X130250487Y-70797856D01*
X130183465Y-70896683D01*
X130182241Y-70950433D01*
X130237815Y-70984283D01*
X130261934Y-70993478D01*
X130362539Y-71009514D01*
X130570698Y-71027047D01*
X130866989Y-71044997D01*
X131231992Y-71062283D01*
X131646286Y-71077826D01*
X131935766Y-71086563D01*
X133471250Y-71128469D01*
X133778273Y-71536669D01*
X133917120Y-71729561D01*
X134014975Y-71881695D01*
X134055580Y-71967201D01*
X134054306Y-71975860D01*
X133986071Y-71983619D01*
X133804654Y-71992564D01*
X133523862Y-72002321D01*
X133157504Y-72012515D01*
X132719389Y-72022770D01*
X132223323Y-72032711D01*
X131683115Y-72041965D01*
X131535829Y-72044232D01*
X129048343Y-72081613D01*
X128499081Y-72676575D01*
X128286621Y-72909309D01*
X128104265Y-73113926D01*
X127970329Y-73269533D01*
X127903128Y-73355238D01*
X127900914Y-73358925D01*
X127933200Y-73407164D01*
X128080661Y-73447230D01*
X128331697Y-73478506D01*
X128674706Y-73500376D01*
X129098089Y-73512223D01*
X129590244Y-73513429D01*
X130139572Y-73503379D01*
X130436622Y-73493771D01*
X131661500Y-73448549D01*
X131661500Y-73698661D01*
X131652102Y-73928585D01*
X131628823Y-74183343D01*
X131621924Y-74237511D01*
X131582348Y-74526248D01*
X125535662Y-74547999D01*
X124510628Y-74551881D01*
X123605222Y-74555797D01*
X122812070Y-74559889D01*
X122123798Y-74564296D01*
X121533035Y-74569157D01*
X121032406Y-74574614D01*
X120614539Y-74580805D01*
X120272061Y-74587871D01*
X119997599Y-74595952D01*
X119783779Y-74605188D01*
X119623229Y-74615719D01*
X119508576Y-74627685D01*
X119432447Y-74641225D01*
X119387468Y-74656481D01*
X119374108Y-74665000D01*
X119346039Y-74694107D01*
X119323251Y-74738125D01*
X119305420Y-74808758D01*
X119292222Y-74917711D01*
X119283331Y-75076692D01*
X119278424Y-75297406D01*
X119277174Y-75591559D01*
X119279259Y-75970857D01*
X119284353Y-76447005D01*
X119292131Y-77031710D01*
X119297682Y-77420886D01*
X119310374Y-78186735D01*
X119324498Y-78826098D01*
X119340076Y-79339481D01*
X119357127Y-79727389D01*
X119375671Y-79990329D01*
X119395728Y-80128807D01*
X119405111Y-80150511D01*
X119459465Y-80145624D01*
X119570211Y-80070411D01*
X119743898Y-79919071D01*
X119987072Y-79685798D01*
X120306282Y-79364790D01*
X120400947Y-79267874D01*
X120701360Y-78957390D01*
X120991452Y-78653856D01*
X121252065Y-78377599D01*
X121464042Y-78148940D01*
X121608226Y-77988204D01*
X121619266Y-77975378D01*
X121910736Y-77634506D01*
X121596130Y-77372128D01*
X121197272Y-77033214D01*
X120842335Y-76719298D01*
X120542853Y-76441363D01*
X120310360Y-76210390D01*
X120156391Y-76037363D01*
X120095637Y-75943441D01*
X120062431Y-75760706D01*
X120071962Y-75567613D01*
X120154927Y-75375651D01*
X120319894Y-75270943D01*
X120574233Y-75249932D01*
X120700930Y-75263908D01*
X120831726Y-75294641D01*
X120976891Y-75354541D01*
X121149988Y-75452802D01*
X121364581Y-75598617D01*
X121634232Y-75801181D01*
X121972507Y-76069688D01*
X122376055Y-76399391D01*
X122837860Y-76779950D01*
X122980684Y-76645774D01*
X123084098Y-76539530D01*
X123243272Y-76365602D01*
X123431785Y-76153132D01*
X123534879Y-76034489D01*
X123946250Y-75557380D01*
X125597250Y-75556141D01*
X126069613Y-75557377D01*
X126524059Y-75561507D01*
X126937627Y-75568097D01*
X127287359Y-75576714D01*
X127550298Y-75586926D01*
X127676875Y-75595383D01*
X128105500Y-75635864D01*
X128105500Y-77903500D01*
X126835500Y-77903500D01*
X126835500Y-76760500D01*
X125930625Y-76764285D01*
X125465907Y-76767237D01*
X125098754Y-76778882D01*
X124805773Y-76809946D01*
X124563574Y-76871152D01*
X124348765Y-76973226D01*
X124137956Y-77126894D01*
X123907754Y-77342880D01*
X123634770Y-77631909D01*
X123345786Y-77949456D01*
X122698852Y-78662163D01*
X122702993Y-80902206D01*
X122705529Y-81559139D01*
X122710619Y-82295167D01*
X122717839Y-83070036D01*
X122726764Y-83843489D01*
X122736968Y-84575271D01*
X122748027Y-85225126D01*
X122749387Y-85295497D01*
X122791640Y-87448745D01*
X122352945Y-87407324D01*
X122073122Y-87385225D01*
X121793326Y-87370021D01*
X121612625Y-87365451D01*
X121311000Y-87365000D01*
X121311000Y-83730816D01*
X121310999Y-80096632D01*
X120669718Y-80730441D01*
X120394562Y-81007075D01*
X120112494Y-81298626D01*
X119855710Y-81571356D01*
X119656406Y-81791523D01*
X119647821Y-81801357D01*
X119455738Y-82031424D01*
X119356523Y-82186172D01*
X119353503Y-82280347D01*
X119450010Y-82328698D01*
X119649372Y-82345971D01*
X119771125Y-82347527D01*
X120104500Y-82348500D01*
X120104500Y-83745500D01*
X119763025Y-83745500D01*
X119527505Y-83758564D01*
X119380068Y-83812255D01*
X119304818Y-83928321D01*
X119285858Y-84128509D01*
X119301714Y-84376626D01*
X119331031Y-84665323D01*
X119366071Y-84850547D01*
X119424519Y-84955260D01*
X119524063Y-85002425D01*
X119682387Y-85015004D01*
X119793793Y-85015500D01*
X120168000Y-85015500D01*
X120168000Y-86349000D01*
X119342500Y-86349000D01*
X119342500Y-87555500D01*
X118781069Y-87555500D01*
X118219638Y-87555499D01*
X118175330Y-85510428D01*
X118163554Y-85013402D01*
X118150827Y-84557869D01*
X118137729Y-84159146D01*
X118124840Y-83832545D01*
X118112738Y-83593382D01*
X118102005Y-83456971D01*
X118096618Y-83430951D01*
X118074885Y-83433652D01*
X118026914Y-83467144D01*
X117946653Y-83537626D01*
X117828052Y-83651295D01*
X117665061Y-83814349D01*
X117451630Y-84032986D01*
X117181709Y-84313403D01*
X116849247Y-84661798D01*
X116448195Y-85084370D01*
X115972502Y-85587315D01*
X115416430Y-86176499D01*
X115059649Y-86556632D01*
X114733119Y-86908061D01*
X114446536Y-87220076D01*
X114209595Y-87481970D01*
X114031992Y-87683036D01*
X113923422Y-87812566D01*
X113892791Y-87859249D01*
X113939791Y-87909171D01*
X114071229Y-88042504D01*
X114281216Y-88253388D01*
X114563860Y-88535963D01*
X114913268Y-88884369D01*
X115323550Y-89292746D01*
X115788813Y-89755234D01*
X116303168Y-90265973D01*
X116860721Y-90819103D01*
X117455582Y-91408763D01*
X118081859Y-92029095D01*
X118725233Y-92665899D01*
X119376316Y-93310937D01*
X120001135Y-93931585D01*
X120593848Y-94521951D01*
X121148612Y-95076142D01*
X121659585Y-95588268D01*
X122120924Y-96052437D01*
X122526786Y-96462757D01*
X122871328Y-96813336D01*
X123148709Y-97098283D01*
X123353084Y-97311707D01*
X123478613Y-97447715D01*
X123519483Y-97500308D01*
X123467966Y-97558514D01*
X123333014Y-97684438D01*
X123129344Y-97865705D01*
X122871670Y-98089943D01*
X122574708Y-98344775D01*
X122253173Y-98617829D01*
X121921782Y-98896730D01*
X121595249Y-99169104D01*
X121288291Y-99422577D01*
X121015622Y-99644774D01*
X120791958Y-99823321D01*
X120632014Y-99945844D01*
X120550507Y-99999969D01*
X120545049Y-100001500D01*
X120495986Y-99948511D01*
X120485500Y-99879686D01*
X120482685Y-99783030D01*
X120474799Y-99579320D01*
X120462675Y-99288362D01*
X120447149Y-98929964D01*
X120429056Y-98523935D01*
X120419254Y-98308061D01*
X120398112Y-97836538D01*
X120379315Y-97471268D01*
X120356946Y-97191773D01*
X120325092Y-96977575D01*
X120277838Y-96808196D01*
X120209269Y-96663157D01*
X120113471Y-96521981D01*
X119984529Y-96364189D01*
X119816529Y-96169303D01*
X119793936Y-96143003D01*
X119635374Y-95967735D01*
X119534325Y-95883824D01*
X119474178Y-95879501D01*
X119454700Y-95902700D01*
X119443309Y-95983450D01*
X119431093Y-96178366D01*
X119418434Y-96474619D01*
X119405714Y-96859379D01*
X119393314Y-97319819D01*
X119381615Y-97843109D01*
X119371000Y-98416422D01*
X119361903Y-99022877D01*
X119321679Y-102049111D01*
X119470264Y-101969591D01*
X119580337Y-101905373D01*
X119770716Y-101789026D01*
X120014807Y-101636980D01*
X120286011Y-101465670D01*
X120290299Y-101462942D01*
X120567973Y-101288254D01*
X120825316Y-101129852D01*
X121033359Y-101005351D01*
X121161707Y-100933095D01*
X121243011Y-100893007D01*
X121313354Y-100874381D01*
X121390271Y-100886922D01*
X121491295Y-100940337D01*
X121633963Y-101044330D01*
X121835806Y-101208607D01*
X122114362Y-101442873D01*
X122174625Y-101493750D01*
X122475538Y-101747750D01*
X123010984Y-101738109D01*
X123262972Y-101727227D01*
X123466429Y-101706671D01*
X123587728Y-101680256D01*
X123604091Y-101670808D01*
X123583395Y-101605062D01*
X123481277Y-101461288D01*
X123306735Y-101250636D01*
X123068768Y-100984260D01*
X122927761Y-100832543D01*
X122686508Y-100571827D01*
X122480875Y-100341666D01*
X122324782Y-100158294D01*
X122232150Y-100037948D01*
X122212760Y-99998625D01*
X122266149Y-99944954D01*
X122404534Y-99825342D01*
X122612942Y-99652179D01*
X122876402Y-99437856D01*
X123179944Y-99194761D01*
X123279500Y-99115767D01*
X124327250Y-98286224D01*
X124741526Y-98715237D01*
X124953652Y-98936865D01*
X125216935Y-99214826D01*
X125496427Y-99512094D01*
X125734968Y-99767723D01*
X126314134Y-100391196D01*
X126761236Y-100006388D01*
X126962085Y-99830322D01*
X127125954Y-99680712D01*
X127228746Y-99579837D01*
X127249540Y-99554912D01*
X127219954Y-99491274D01*
X127113921Y-99351012D01*
X126943631Y-99148460D01*
X126721273Y-98897947D01*
X126459036Y-98613806D01*
X126359257Y-98508190D01*
X125427772Y-97528135D01*
X125607761Y-97370431D01*
X125754155Y-97244762D01*
X125951257Y-97078813D01*
X126118041Y-96940239D01*
X126284439Y-96798679D01*
X126403299Y-96689393D01*
X126448915Y-96636018D01*
X126448916Y-96636000D01*
X126409156Y-96578387D01*
X126301926Y-96449870D01*
X126146106Y-96272669D01*
X126046415Y-96162374D01*
X125643331Y-95720498D01*
X125282727Y-96003624D01*
X124975134Y-96244665D01*
X124750921Y-96416699D01*
X124593390Y-96528908D01*
X124485845Y-96590478D01*
X124411591Y-96610591D01*
X124353931Y-96598432D01*
X124296169Y-96563184D01*
X124282557Y-96553773D01*
X124194561Y-96480602D01*
X124031523Y-96333338D01*
X123809204Y-96126675D01*
X123543364Y-95875313D01*
X123249763Y-95593947D01*
X123152500Y-95499952D01*
X122168250Y-94546806D01*
X123025500Y-94543750D01*
X123299560Y-94544260D01*
X123677971Y-94547128D01*
X124138111Y-94552071D01*
X124657357Y-94558804D01*
X125213087Y-94567042D01*
X125782680Y-94576502D01*
X126121125Y-94582636D01*
X128359500Y-94624578D01*
X128359500Y-100411597D01*
X127335616Y-101440827D01*
X127891412Y-102038788D01*
X128082514Y-102242916D01*
X128336779Y-102512290D01*
X128643235Y-102835456D01*
X128990908Y-103200964D01*
X129368826Y-103597358D01*
X129766016Y-104013188D01*
X130171505Y-104437000D01*
X130574321Y-104857341D01*
X130963489Y-105262759D01*
X131328039Y-105641801D01*
X131656996Y-105983014D01*
X131939388Y-106274946D01*
X132164241Y-106506143D01*
X132320584Y-106665154D01*
X132385287Y-106729201D01*
X132537077Y-106853780D01*
X132641715Y-106898015D01*
X132667806Y-106887951D01*
X132930584Y-106593593D01*
X133257092Y-106229440D01*
X133632545Y-105811849D01*
X134042162Y-105357176D01*
X134471159Y-104881779D01*
X134904754Y-104402012D01*
X135328165Y-103934233D01*
X135726607Y-103494798D01*
X136085298Y-103100063D01*
X136389456Y-102766385D01*
X136624298Y-102510120D01*
X136633432Y-102500200D01*
X137578028Y-101474651D01*
X138477389Y-101437627D01*
X138743790Y-101428522D01*
X139117261Y-101418456D01*
X139577882Y-101407831D01*
X140105730Y-101397049D01*
X140680882Y-101386514D01*
X141283419Y-101376627D01*
X141893416Y-101367791D01*
X142012000Y-101366219D01*
X142603874Y-101357722D01*
X143177474Y-101348028D01*
X143715556Y-101337534D01*
X144200874Y-101326636D01*
X144616186Y-101315728D01*
X144944245Y-101305209D01*
X145167809Y-101295473D01*
X145212513Y-101292723D01*
X145777776Y-101253611D01*
X145732309Y-98739643D01*
X145721525Y-98187061D01*
X145710008Y-97674857D01*
X145698181Y-97216778D01*
X145686467Y-96826568D01*
X145675289Y-96517974D01*
X145665070Y-96304743D01*
X145656234Y-96200621D01*
X145653913Y-96192712D01*
X145583958Y-96182829D01*
X145404473Y-96172332D01*
X145132921Y-96161817D01*
X144786765Y-96151881D01*
X144383469Y-96143118D01*
X144031492Y-96137354D01*
X142441999Y-96114958D01*
X142480300Y-95883354D01*
X142502652Y-95682350D01*
X142516806Y-95429069D01*
X142519301Y-95294972D01*
X142520000Y-94938195D01*
X144075011Y-94909419D01*
X144506482Y-94900188D01*
X144894605Y-94889500D01*
X145221724Y-94878037D01*
X145470178Y-94866480D01*
X145622312Y-94855510D01*
X145662465Y-94848201D01*
X145679309Y-94775289D01*
X145699812Y-94602980D01*
X145721133Y-94358712D01*
X145736962Y-94128430D01*
X145779017Y-93441101D01*
X144109159Y-93486664D01*
X142439302Y-93532227D01*
X142470186Y-93050995D01*
X142490763Y-92814124D01*
X142516888Y-92628474D01*
X142543441Y-92528982D01*
X142547521Y-92523256D01*
X142619807Y-92511720D01*
X142804187Y-92499984D01*
X143085756Y-92488502D01*
X143449611Y-92477729D01*
X143880847Y-92468118D01*
X144364560Y-92460125D01*
X144779486Y-92455199D01*
X146965000Y-92433649D01*
X146965000Y-88508000D01*
X149536750Y-88508000D01*
X150094221Y-88509134D01*
X150610056Y-88512373D01*
X151070906Y-88517468D01*
X151463422Y-88524174D01*
X151774256Y-88532241D01*
X151990057Y-88541423D01*
X152097478Y-88551473D01*
X152107113Y-88555625D01*
X152063761Y-88608597D01*
X151939475Y-88744137D01*
X151742126Y-88954021D01*
X151479583Y-89230029D01*
X151159718Y-89563938D01*
X150790403Y-89947526D01*
X150379507Y-90372572D01*
X149934903Y-90830854D01*
X149569139Y-91206750D01*
X147032551Y-93810250D01*
X147046400Y-98234057D01*
X147048041Y-98972443D01*
X147048297Y-99673581D01*
X147047247Y-100327140D01*
X147044969Y-100922787D01*
X147041541Y-101450190D01*
X147037042Y-101899016D01*
X147031551Y-102258933D01*
X147025145Y-102519608D01*
X147017903Y-102670710D01*
X147012489Y-102705651D01*
X146942473Y-102714175D01*
X146755962Y-102723077D01*
X146463461Y-102732169D01*
X146075474Y-102741264D01*
X145602505Y-102750174D01*
X145055059Y-102758711D01*
X144443639Y-102766687D01*
X143778750Y-102773915D01*
X143070896Y-102780206D01*
X142680439Y-102783106D01*
X138396149Y-102812775D01*
X136881042Y-104344012D01*
X136432732Y-104798332D01*
X135934785Y-105305070D01*
X135414861Y-105835939D01*
X134900617Y-106362652D01*
X134419714Y-106856922D01*
X133999810Y-107290464D01*
X133986742Y-107304000D01*
X133644200Y-107656771D01*
X133327394Y-107979072D01*
X133047654Y-108259686D01*
X132816306Y-108487399D01*
X132644681Y-108650995D01*
X132544105Y-108739260D01*
X132524565Y-108751540D01*
X132466738Y-108710695D01*
X132327918Y-108586518D01*
X132115809Y-108386570D01*
X131838116Y-108118411D01*
X131502544Y-107789603D01*
X131116795Y-107407707D01*
X130688576Y-106980285D01*
X130225590Y-106514897D01*
X129735542Y-106019106D01*
X129596789Y-105878165D01*
X126751999Y-102986000D01*
X118009000Y-102986000D01*
X118009000Y-93936737D01*
X115056249Y-90984500D01*
X114549817Y-90477290D01*
X114070825Y-89995884D01*
X113626711Y-89547865D01*
X113224915Y-89140818D01*
X112872873Y-88782327D01*
X112578026Y-88479976D01*
X112347811Y-88241348D01*
X112189666Y-88074030D01*
X112111031Y-87985603D01*
X112103500Y-87973899D01*
X112107957Y-87954553D01*
X112125177Y-87923949D01*
X112160930Y-87875986D01*
X112220984Y-87804564D01*
X112311111Y-87703584D01*
X112437080Y-87566946D01*
X112604660Y-87388549D01*
X112819623Y-87162295D01*
X113087737Y-86882083D01*
X113414773Y-86541813D01*
X113806501Y-86135385D01*
X114268690Y-85656701D01*
X114807112Y-85099659D01*
X115427534Y-84458160D01*
X115498148Y-84385161D01*
X118104250Y-81691073D01*
X118136000Y-77622411D01*
X118167750Y-73553750D01*
X126041750Y-73511398D01*
X129026250Y-70443587D01*
X129532793Y-69923625D01*
X130013869Y-69431203D01*
X130462098Y-68973784D01*
X130870103Y-68558832D01*
X131230505Y-68193810D01*
X131535925Y-67886181D01*
X131778986Y-67643410D01*
X131952309Y-67472958D01*
X132048515Y-67382290D01*
X132065699Y-67369138D01*
X132118926Y-67411577D01*
X132118926Y-67411577D01*
G37*
X132118926Y-67411577D02*
X132254715Y-67536346D01*
X132465603Y-67736197D01*
X132744127Y-68003884D01*
X133082823Y-68332157D01*
X133474227Y-68713770D01*
X133910876Y-69141473D01*
X134385307Y-69608020D01*
X134890056Y-70106163D01*
X135197589Y-70410499D01*
X138274529Y-73458499D01*
X142584267Y-73458499D01*
X143466800Y-73458970D01*
X144229789Y-73460470D01*
X144880685Y-73463137D01*
X145426939Y-73467105D01*
X145876004Y-73472511D01*
X146235332Y-73479489D01*
X146512374Y-73488176D01*
X146714582Y-73498708D01*
X146849408Y-73511219D01*
X146924304Y-73525846D01*
X146945377Y-73537875D01*
X146954251Y-73613268D01*
X146963102Y-73805137D01*
X146971770Y-74102961D01*
X146980094Y-74496215D01*
X146987913Y-74974376D01*
X146995069Y-75526920D01*
X147001399Y-76143326D01*
X147006745Y-76813069D01*
X147010945Y-77525627D01*
X147012841Y-77967000D01*
X147028932Y-82316750D01*
X152457750Y-87690170D01*
X151479278Y-87654585D01*
X151140541Y-87644778D01*
X150705094Y-87636006D01*
X150203228Y-87628660D01*
X149665232Y-87623130D01*
X149121395Y-87619807D01*
X148722765Y-87618999D01*
X146944723Y-87618999D01*
X147031807Y-83618499D01*
X146468883Y-83618500D01*
X145905960Y-83618500D01*
X145864097Y-85475875D01*
X145852725Y-86022342D01*
X145842518Y-86593178D01*
X145833917Y-87157182D01*
X145827361Y-87683150D01*
X145823292Y-88139882D01*
X145822117Y-88450334D01*
X145819385Y-88900664D01*
X145811948Y-89388211D01*
X145800811Y-89865144D01*
X145786979Y-90283632D01*
X145780405Y-90434709D01*
X145738811Y-91302000D01*
X143819843Y-91302000D01*
X143328995Y-91303288D01*
X142871261Y-91306935D01*
X142464309Y-91312607D01*
X142125809Y-91319973D01*
X141873431Y-91328704D01*
X141724843Y-91338467D01*
X141702437Y-91341687D01*
X141504000Y-91381375D01*
X141504000Y-97334500D01*
X144615500Y-97334500D01*
X144615500Y-100108669D01*
X142567625Y-100151224D01*
X141960826Y-100165072D01*
X141297793Y-100182340D01*
X140615419Y-100201925D01*
X139950602Y-100222721D01*
X139340234Y-100243626D01*
X138837000Y-100262883D01*
X138330519Y-100284057D01*
X137934905Y-100302261D01*
X137634116Y-100319402D01*
X137412112Y-100337387D01*
X137252852Y-100358123D01*
X137140296Y-100383518D01*
X137058404Y-100415479D01*
X136991134Y-100455913D01*
X136947830Y-100487509D01*
X136864188Y-100564533D01*
X136704016Y-100725363D01*
X136476615Y-100960199D01*
X136191285Y-101259240D01*
X135857325Y-101612685D01*
X135484035Y-102010733D01*
X135080715Y-102443583D01*
X134656664Y-102901434D01*
X134632485Y-102927623D01*
X132523559Y-105212215D01*
X132104238Y-104781732D01*
X131950625Y-104624424D01*
X131723699Y-104392569D01*
X131439171Y-104102193D01*
X131112753Y-103769325D01*
X130760157Y-103409990D01*
X130397095Y-103040216D01*
X130327129Y-102968984D01*
X128969341Y-101586718D01*
X129614123Y-100922250D01*
X129691741Y-93365750D01*
X125433946Y-93383361D01*
X121176152Y-93400972D01*
X119100451Y-91377700D01*
X118639145Y-90928686D01*
X118176141Y-90479206D01*
X117725635Y-90042961D01*
X117301825Y-89633651D01*
X116918907Y-89264977D01*
X116591076Y-88950640D01*
X116332530Y-88704339D01*
X116231000Y-88608470D01*
X115969691Y-88361342D01*
X115742685Y-88143702D01*
X115565437Y-87970606D01*
X115453401Y-87857114D01*
X115421154Y-87819468D01*
X115458938Y-87763361D01*
X115573717Y-87632755D01*
X115751900Y-87442165D01*
X115979899Y-87206108D01*
X116244124Y-86939100D01*
X116262529Y-86920720D01*
X117120000Y-86065014D01*
X117120000Y-87800355D01*
X119144333Y-89750737D01*
X119569125Y-90159028D01*
X119968589Y-90541086D01*
X120332878Y-90887630D01*
X120652145Y-91189379D01*
X120916544Y-91437053D01*
X121116230Y-91621370D01*
X121241355Y-91733050D01*
X121279145Y-91762947D01*
X121375881Y-91788641D01*
X121441720Y-91730339D01*
X121481141Y-91575821D01*
X121498627Y-91312866D01*
X121500527Y-91159125D01*
X121501500Y-90667000D01*
X122581000Y-90667000D01*
X122581972Y-91254375D01*
X122588024Y-91522570D01*
X122603414Y-91747126D01*
X122625373Y-91894388D01*
X122637337Y-91927585D01*
X122720853Y-91971820D01*
X122898057Y-92019450D01*
X123135989Y-92064452D01*
X123401687Y-92100804D01*
X123662189Y-92122484D01*
X123716294Y-92124711D01*
X123743397Y-92115744D01*
X123763024Y-92078435D01*
X123774968Y-92000117D01*
X123779028Y-91868120D01*
X123774998Y-91669775D01*
X123762675Y-91392413D01*
X123741855Y-91023366D01*
X123712333Y-90549965D01*
X123683872Y-90111375D01*
X123645397Y-89523999D01*
X120306251Y-89523999D01*
X119919625Y-89102066D01*
X119748466Y-88910624D01*
X119616123Y-88753743D01*
X119542098Y-88654963D01*
X119532999Y-88635393D01*
X119594621Y-88606766D01*
X119772002Y-88580759D01*
X120053921Y-88557906D01*
X120429157Y-88538739D01*
X120886485Y-88523793D01*
X121414684Y-88513601D01*
X122002531Y-88508695D01*
X122206687Y-88508328D01*
X123642124Y-88508000D01*
X123685342Y-84015375D01*
X123693024Y-83264334D01*
X123701261Y-82545324D01*
X123709873Y-81869248D01*
X123718681Y-81247008D01*
X123727504Y-80689508D01*
X123736162Y-80207651D01*
X123744475Y-79812339D01*
X123752262Y-79514475D01*
X123759345Y-79324964D01*
X123763847Y-79262164D01*
X123799134Y-79001578D01*
X125936442Y-78960890D01*
X126419666Y-78952246D01*
X127008543Y-78942628D01*
X127681731Y-78932337D01*
X128417888Y-78921672D01*
X129195672Y-78910932D01*
X129993744Y-78900415D01*
X130790760Y-78890423D01*
X131565380Y-78881254D01*
X131813495Y-78878448D01*
X135553240Y-78836694D01*
X135506583Y-81504252D01*
X135459925Y-84171810D01*
X135650043Y-84209833D01*
X135763994Y-84221842D01*
X135985565Y-84235813D01*
X136295405Y-84250881D01*
X136674164Y-84266180D01*
X137102495Y-84280843D01*
X137487591Y-84292067D01*
X139135021Y-84336278D01*
X139176510Y-85575100D01*
X139183952Y-85863453D01*
X139190967Y-86263437D01*
X139197433Y-86759684D01*
X139203231Y-87336825D01*
X139208240Y-87979492D01*
X139212342Y-88672317D01*
X139215416Y-89399931D01*
X139217342Y-90146965D01*
X139218000Y-90889258D01*
X139218000Y-94964594D01*
X137493183Y-95006547D01*
X136934405Y-95018671D01*
X136323434Y-95029421D01*
X135700258Y-95038262D01*
X135104863Y-95044658D01*
X134577239Y-95048075D01*
X134359874Y-95048500D01*
X132951383Y-95048500D01*
X132909903Y-94048375D01*
X132894231Y-93603590D01*
X132881236Y-93107477D01*
X132872168Y-92617058D01*
X132868272Y-92189355D01*
X132868211Y-92143375D01*
X132868000Y-91238500D01*
X132248875Y-91237561D01*
X131581927Y-91198245D01*
X131006395Y-91077816D01*
X130510575Y-90869291D01*
X130082762Y-90565691D01*
X129711255Y-90160033D01*
X129384349Y-89645336D01*
X129297304Y-89476877D01*
X129026250Y-88929407D01*
X129026250Y-87450675D01*
X129295079Y-86908154D01*
X129616571Y-86370552D01*
X130003402Y-85913304D01*
X130439427Y-85553740D01*
X130698914Y-85401590D01*
X131160540Y-85225461D01*
X131680629Y-85122184D01*
X132224206Y-85092265D01*
X132756298Y-85136212D01*
X133241928Y-85254532D01*
X133495723Y-85361062D01*
X133803405Y-85558402D01*
X134131104Y-85838611D01*
X134445175Y-86169455D01*
X134711971Y-86518697D01*
X134725719Y-86539500D01*
X134862167Y-86773892D01*
X134988110Y-87035897D01*
X135093415Y-87297644D01*
X135167948Y-87531264D01*
X135201576Y-87708886D01*
X135184772Y-87802068D01*
X135095011Y-87833195D01*
X134914002Y-87860836D01*
X134677486Y-87879863D01*
X134626275Y-87882198D01*
X134130301Y-87901866D01*
X133984336Y-87542729D01*
X133752682Y-87096139D01*
X133457328Y-86750574D01*
X133110795Y-86504518D01*
X132906105Y-86402128D01*
X132722642Y-86345170D01*
X132506302Y-86321213D01*
X132296500Y-86317419D01*
X132001565Y-86328022D01*
X131778448Y-86366853D01*
X131573159Y-86444775D01*
X131510575Y-86475561D01*
X131118180Y-86743114D01*
X130818392Y-87092588D01*
X130618239Y-87512069D01*
X130524747Y-87989642D01*
X130518500Y-88157593D01*
X130577897Y-88608361D01*
X130752977Y-89011949D01*
X131039068Y-89361731D01*
X131431503Y-89651077D01*
X131650233Y-89763795D01*
X131886904Y-89857738D01*
X132095952Y-89896601D01*
X132348597Y-89892567D01*
X132386250Y-89889697D01*
X132666561Y-89852139D01*
X132905897Y-89778342D01*
X133136697Y-89651577D01*
X133391395Y-89455120D01*
X133611009Y-89258129D01*
X134021413Y-88876332D01*
X135344454Y-88898541D01*
X135742331Y-88907253D01*
X136096642Y-88918881D01*
X136387911Y-88932469D01*
X136596662Y-88947060D01*
X136703418Y-88961698D01*
X136712431Y-88965725D01*
X136724991Y-89038388D01*
X136738477Y-89221751D01*
X136752216Y-89499523D01*
X136765535Y-89855413D01*
X136777762Y-90273131D01*
X136788224Y-90736387D01*
X136790439Y-90854850D01*
X136823511Y-92699000D01*
X135598500Y-92699000D01*
X135598500Y-90095500D01*
X135160933Y-90095500D01*
X134910818Y-90102433D01*
X134733876Y-90133402D01*
X134576586Y-90203655D01*
X134414808Y-90308096D01*
X134106250Y-90520692D01*
X134072286Y-93730692D01*
X136014199Y-93704154D01*
X136576807Y-93695586D01*
X137025028Y-93686435D01*
X137371473Y-93675951D01*
X137628755Y-93663386D01*
X137809487Y-93647987D01*
X137926281Y-93629006D01*
X137991749Y-93605692D01*
X138014584Y-93585183D01*
X138028454Y-93500985D01*
X138040464Y-93305942D01*
X138050608Y-93016194D01*
X138058881Y-92647881D01*
X138065279Y-92217146D01*
X138069796Y-91740128D01*
X138072427Y-91232969D01*
X138073168Y-90711809D01*
X138072014Y-90192790D01*
X138068959Y-89692051D01*
X138063998Y-89225734D01*
X138057127Y-88809980D01*
X138048340Y-88460929D01*
X138037633Y-88194722D01*
X138025000Y-88027501D01*
X138016317Y-87980921D01*
X137983171Y-87911936D01*
X137930054Y-87865761D01*
X137832403Y-87836199D01*
X137665651Y-87817057D01*
X137405234Y-87802138D01*
X137285896Y-87796700D01*
X137006837Y-87781495D01*
X136777859Y-87763756D01*
X136626810Y-87745964D01*
X136581273Y-87733940D01*
X136570600Y-87659040D01*
X136573255Y-87492541D01*
X136588578Y-87269075D01*
X136590562Y-87247277D01*
X136632737Y-86793500D01*
X138011500Y-86793500D01*
X138011500Y-85794699D01*
X137201875Y-85752467D01*
X136831774Y-85732217D01*
X136449025Y-85709691D01*
X136102658Y-85687857D01*
X135874579Y-85672139D01*
X135356908Y-85634041D01*
X134864555Y-85138783D01*
X134372202Y-84643526D01*
X134386527Y-83400763D01*
X134400852Y-82157999D01*
X133856676Y-82157999D01*
X133312500Y-82158000D01*
X133312500Y-83809000D01*
X132218550Y-83809000D01*
X132264750Y-82126250D01*
X131782469Y-82107881D01*
X131515770Y-82104093D01*
X131347052Y-82120194D01*
X131248287Y-82160236D01*
X131217071Y-82189663D01*
X131173923Y-82308590D01*
X131137651Y-82551473D01*
X131108613Y-82915437D01*
X131096101Y-83160532D01*
X131058250Y-84031250D01*
X130502625Y-84049597D01*
X130234623Y-84055914D01*
X130069166Y-84050488D01*
X129982025Y-84029181D01*
X129948971Y-83987852D01*
X129945055Y-83954347D01*
X129937101Y-83751925D01*
X129920538Y-83489938D01*
X129897923Y-83196374D01*
X129871812Y-82899221D01*
X129844763Y-82626466D01*
X129819333Y-82406098D01*
X129798079Y-82266104D01*
X129787635Y-82231384D01*
X129714023Y-82217392D01*
X129533665Y-82203121D01*
X129266807Y-82189585D01*
X128933696Y-82177793D01*
X128554579Y-82168758D01*
X128521940Y-82168168D01*
X127297796Y-82146586D01*
X127258015Y-82295168D01*
X127219347Y-82563524D01*
X127237322Y-82823139D01*
X127307870Y-83021644D01*
X127315350Y-83032870D01*
X127380452Y-83105505D01*
X127470855Y-83148164D01*
X127618777Y-83168638D01*
X127856438Y-83174714D01*
X127902725Y-83174867D01*
X128226823Y-83177249D01*
X128444919Y-83193476D01*
X128578000Y-83239217D01*
X128647052Y-83330137D01*
X128673061Y-83481904D01*
X128677012Y-83710186D01*
X128677000Y-83752906D01*
X128677000Y-84253500D01*
X128073750Y-84253500D01*
X127781618Y-84257060D01*
X127587306Y-84271110D01*
X127461748Y-84300705D01*
X127375882Y-84350899D01*
X127343500Y-84380500D01*
X127253780Y-84552925D01*
X127215070Y-84836419D01*
X127227788Y-85225562D01*
X127257946Y-85490662D01*
X127299393Y-85793051D01*
X127697646Y-85752248D01*
X128095899Y-85711446D01*
X128065032Y-86204848D01*
X128043880Y-86524297D01*
X128020768Y-86739455D01*
X127985076Y-86872734D01*
X127926181Y-86946546D01*
X127833461Y-86983304D01*
X127696294Y-87005421D01*
X127684877Y-87006983D01*
X127494609Y-87024127D01*
X127220173Y-87037679D01*
X126904387Y-87045876D01*
X126699637Y-87047500D01*
X126010000Y-87047500D01*
X126010000Y-81098758D01*
X127449012Y-81056879D01*
X127836189Y-81047623D01*
X128327041Y-81039077D01*
X128898241Y-81031471D01*
X129526465Y-81025036D01*
X130188387Y-81020002D01*
X130860681Y-81016602D01*
X131520024Y-81015065D01*
X131679168Y-81015000D01*
X134470312Y-81015000D01*
X134432023Y-80872125D01*
X134411531Y-80733616D01*
X134397298Y-80519491D01*
X134392867Y-80323376D01*
X134392000Y-79917503D01*
X129628413Y-79948754D01*
X128862397Y-79954108D01*
X128133873Y-79959836D01*
X127452724Y-79965822D01*
X126828830Y-79971950D01*
X126272074Y-79978102D01*
X125792336Y-79984161D01*
X125399499Y-79990011D01*
X125103443Y-79995535D01*
X124914051Y-80000615D01*
X124841203Y-80005136D01*
X124840763Y-80005378D01*
X124836203Y-80071614D01*
X124831209Y-80254069D01*
X124825906Y-80541964D01*
X124820418Y-80924519D01*
X124814873Y-81390954D01*
X124809396Y-81930489D01*
X124804111Y-82532344D01*
X124799146Y-83185741D01*
X124794626Y-83879899D01*
X124793645Y-84047125D01*
X124770592Y-88063500D01*
X127978500Y-88063500D01*
X127978500Y-89460500D01*
X126883125Y-89460951D01*
X126484240Y-89463566D01*
X126093889Y-89470496D01*
X125744904Y-89480849D01*
X125470114Y-89493735D01*
X125353233Y-89502434D01*
X124918716Y-89543465D01*
X124940483Y-90698815D01*
X124951186Y-91140181D01*
X124965302Y-91470153D01*
X124984227Y-91704322D01*
X125009358Y-91858279D01*
X125042091Y-91947615D01*
X125053848Y-91964443D01*
X125101160Y-92006277D01*
X125175245Y-92035146D01*
X125296083Y-92052679D01*
X125483657Y-92060511D01*
X125757946Y-92060271D01*
X126138933Y-92053593D01*
X126144052Y-92053485D01*
X126488737Y-92043206D01*
X126788382Y-92028696D01*
X127020108Y-92011501D01*
X127161038Y-91993169D01*
X127192201Y-91982584D01*
X127215982Y-91902580D01*
X127242676Y-91723479D01*
X127268789Y-91473027D01*
X127288192Y-91220584D01*
X127307083Y-90935194D01*
X127323101Y-90701331D01*
X127334423Y-90545058D01*
X127339068Y-90492375D01*
X127399969Y-90485548D01*
X127560014Y-90480192D01*
X127791353Y-90477036D01*
X127946750Y-90476500D01*
X128550000Y-90476500D01*
X128550000Y-91136215D01*
X128555359Y-91497306D01*
X128582481Y-91752165D01*
X128647934Y-91921455D01*
X128768285Y-92025837D01*
X128960103Y-92085974D01*
X129239954Y-92122526D01*
X129348817Y-92132443D01*
X129691498Y-92156521D01*
X130086146Y-92175440D01*
X130457738Y-92185751D01*
X130523982Y-92186487D01*
X131132715Y-92191000D01*
X131174794Y-95667625D01*
X131183010Y-96371040D01*
X131190699Y-97076773D01*
X131197702Y-97766960D01*
X131203860Y-98423737D01*
X131209016Y-99029239D01*
X131213011Y-99565604D01*
X131215687Y-100014967D01*
X131216886Y-100359463D01*
X131216936Y-100424150D01*
X131217000Y-101704050D01*
X132637456Y-103055604D01*
X133296402Y-102401677D01*
X133569990Y-102126370D01*
X133881036Y-101807009D01*
X134215836Y-101458286D01*
X134560685Y-101094888D01*
X134901877Y-100731507D01*
X135225708Y-100382832D01*
X135518474Y-100063553D01*
X135766469Y-99788359D01*
X135955989Y-99571941D01*
X136073329Y-99428988D01*
X136086656Y-99410890D01*
X136198152Y-99198300D01*
X136272005Y-98956683D01*
X136278962Y-98913224D01*
X136318800Y-98666872D01*
X136380203Y-98518446D01*
X136491995Y-98443305D01*
X136683002Y-98416809D01*
X136862958Y-98414000D01*
X137136212Y-98424767D01*
X137310164Y-98469994D01*
X137411619Y-98569071D01*
X137467376Y-98741386D01*
X137487093Y-98865506D01*
X137522769Y-99131493D01*
X140417657Y-99085556D01*
X141010626Y-99075913D01*
X141563075Y-99066474D01*
X142062369Y-99057490D01*
X142495872Y-99049210D01*
X142850949Y-99041880D01*
X143114964Y-99035752D01*
X143275282Y-99031072D01*
X143320574Y-99028435D01*
X143331441Y-98964738D01*
X143349850Y-98815961D01*
X143360073Y-98723852D01*
X143372537Y-98544585D01*
X143354253Y-98462150D01*
X143297972Y-98448573D01*
X143289147Y-98450082D01*
X143198240Y-98457231D01*
X142999864Y-98466458D01*
X142713517Y-98477070D01*
X142358701Y-98488374D01*
X141954914Y-98499678D01*
X141737046Y-98505204D01*
X140287343Y-98540698D01*
X140332105Y-97909315D01*
X140376868Y-97277932D01*
X139368809Y-97306739D01*
X139060860Y-97314728D01*
X138649285Y-97324184D01*
X138157445Y-97334638D01*
X137608698Y-97345617D01*
X137026404Y-97356650D01*
X136433923Y-97367266D01*
X136027125Y-97374172D01*
X133693500Y-97412797D01*
X133693500Y-98933826D01*
X134001601Y-98675868D01*
X134177835Y-98523747D01*
X134321833Y-98391325D01*
X134390376Y-98320705D01*
X134482446Y-98239804D01*
X134526775Y-98223500D01*
X134548243Y-98282853D01*
X134565315Y-98444387D01*
X134576247Y-98683306D01*
X134579315Y-98969625D01*
X134576131Y-99715750D01*
X133907455Y-100319000D01*
X133623318Y-100574039D01*
X133332492Y-100832869D01*
X133067586Y-101066599D01*
X132861209Y-101246339D01*
X132847014Y-101258542D01*
X132455250Y-101594835D01*
X132412331Y-101322042D01*
X132402591Y-101198154D01*
X132393381Y-100963016D01*
X132384975Y-100632377D01*
X132377648Y-100221987D01*
X132371674Y-99747594D01*
X132367328Y-99224950D01*
X132364884Y-98669802D01*
X132364706Y-98588625D01*
X132360000Y-96128000D01*
X132756875Y-96126654D01*
X133094690Y-96124316D01*
X133512639Y-96119497D01*
X133997084Y-96112500D01*
X134534389Y-96103631D01*
X135110918Y-96093196D01*
X135713035Y-96081499D01*
X136327103Y-96068847D01*
X136939487Y-96055545D01*
X137536550Y-96041897D01*
X138104656Y-96028209D01*
X138630169Y-96014787D01*
X139099452Y-96001935D01*
X139498870Y-95989960D01*
X139814786Y-95979166D01*
X140033564Y-95969859D01*
X140141567Y-95962343D01*
X140148405Y-95961152D01*
X140311774Y-95920149D01*
X140273886Y-95150949D01*
X140263382Y-94896728D01*
X140251421Y-94537753D01*
X140238597Y-94096251D01*
X140225504Y-93594453D01*
X140212736Y-93054586D01*
X140200888Y-92498879D01*
X140195209Y-92206875D01*
X140154420Y-90032000D01*
X142273835Y-90031027D01*
X142782047Y-90029441D01*
X143250673Y-90025387D01*
X143664345Y-90019198D01*
X144007694Y-90011209D01*
X144265354Y-90001755D01*
X144421956Y-89991168D01*
X144463021Y-89983402D01*
X144495906Y-89904024D01*
X144529397Y-89726717D01*
X144558889Y-89480447D01*
X144574839Y-89280176D01*
X144616884Y-88623603D01*
X144378067Y-88658734D01*
X144255070Y-88668990D01*
X144023216Y-88680931D01*
X143700623Y-88693908D01*
X143305413Y-88707273D01*
X142855705Y-88720379D01*
X142369619Y-88732576D01*
X142218375Y-88735984D01*
X140297500Y-88778102D01*
X140297500Y-87504528D01*
X141011875Y-87467678D01*
X141299584Y-87454438D01*
X141681443Y-87439202D01*
X142124639Y-87423153D01*
X142596359Y-87407471D01*
X143063794Y-87393339D01*
X143123250Y-87391657D01*
X143529533Y-87379857D01*
X143889974Y-87368607D01*
X144186336Y-87358542D01*
X144400382Y-87350295D01*
X144513874Y-87344500D01*
X144527276Y-87342868D01*
X144534331Y-87279754D01*
X144547464Y-87118290D01*
X144564446Y-86886856D01*
X144574479Y-86742072D01*
X144614655Y-86150894D01*
X143360952Y-86187118D01*
X142889640Y-86201149D01*
X142382296Y-86216952D01*
X141882784Y-86233114D01*
X141434971Y-86248225D01*
X141170625Y-86257608D01*
X140234000Y-86291873D01*
X140234000Y-83130489D01*
X139138625Y-83088939D01*
X138716334Y-83074460D01*
X138279963Y-83062151D01*
X137869811Y-83052976D01*
X137526173Y-83047896D01*
X137392375Y-83047194D01*
X136741500Y-83047000D01*
X136742367Y-80332375D01*
X136743426Y-79752513D01*
X136746098Y-79208376D01*
X136750191Y-78713891D01*
X136755515Y-78282991D01*
X136761879Y-77929605D01*
X136769092Y-77667663D01*
X136776963Y-77511096D01*
X136781523Y-77474875D01*
X136807390Y-77407793D01*
X136858374Y-77365816D01*
X136960141Y-77343092D01*
X137138356Y-77333770D01*
X137408249Y-77332000D01*
X137704202Y-77328351D01*
X137895903Y-77306204D01*
X138006088Y-77248755D01*
X138057494Y-77139199D01*
X138072859Y-76960733D01*
X138074132Y-76839875D01*
X138075000Y-76633500D01*
X137066937Y-76633499D01*
X136706544Y-76635865D01*
X136377582Y-76642388D01*
X136107116Y-76652206D01*
X135922209Y-76664458D01*
X135868077Y-76671659D01*
X135772594Y-76695993D01*
X135712988Y-76740654D01*
X135677102Y-76833619D01*
X135652779Y-77002862D01*
X135633526Y-77211409D01*
X135589772Y-77712999D01*
X135022636Y-77712999D01*
X134455500Y-77713000D01*
X134455500Y-77270734D01*
X134444305Y-77005053D01*
X134396044Y-76835030D01*
X134288702Y-76741736D01*
X134100264Y-76706242D01*
X133808714Y-76709620D01*
X133803206Y-76709881D01*
X133407750Y-76728750D01*
X133421649Y-77250484D01*
X133435548Y-77772219D01*
X132913649Y-77738555D01*
X132581774Y-77716153D01*
X132356112Y-77693271D01*
X132216182Y-77660576D01*
X132141507Y-77608736D01*
X132111607Y-77528417D01*
X132106004Y-77410285D01*
X132106000Y-77370477D01*
X132096431Y-77143004D01*
X132072775Y-76931443D01*
X132066312Y-76895437D01*
X132026625Y-76697000D01*
X130836000Y-76697000D01*
X130836000Y-77840000D01*
X130009152Y-77839999D01*
X129182304Y-77839999D01*
X129224162Y-76776374D01*
X129239638Y-76422076D01*
X129256007Y-76113948D01*
X129271889Y-75873576D01*
X129285901Y-75722551D01*
X129294262Y-75681000D01*
X129365245Y-75670120D01*
X129551699Y-75658764D01*
X129842099Y-75647135D01*
X130224919Y-75635439D01*
X130688631Y-75623880D01*
X131221710Y-75612662D01*
X131812630Y-75601991D01*
X132449863Y-75592071D01*
X133121885Y-75583106D01*
X133817168Y-75575302D01*
X134524187Y-75568864D01*
X135231415Y-75563995D01*
X135927325Y-75560901D01*
X136081102Y-75560470D01*
X138690954Y-75554000D01*
X139026662Y-75939972D01*
X139362371Y-76325945D01*
X139288796Y-77252765D01*
X139258049Y-77587797D01*
X139223371Y-77880884D01*
X139188303Y-78107074D01*
X139156384Y-78241414D01*
X139145335Y-78263792D01*
X139036119Y-78314793D01*
X138809870Y-78342323D01*
X138575224Y-78347999D01*
X138075000Y-78348000D01*
X138075000Y-79300500D01*
X139154500Y-79300500D01*
X139154518Y-80602250D01*
X138614759Y-80579858D01*
X138075000Y-80557467D01*
X138075000Y-81713500D01*
X140161362Y-81713500D01*
X140124236Y-79586250D01*
X140114684Y-79000840D01*
X140108804Y-78530534D01*
X140106885Y-78163482D01*
X140109219Y-77887833D01*
X140116097Y-77691736D01*
X140127810Y-77563340D01*
X140144649Y-77490795D01*
X140166904Y-77462249D01*
X140176430Y-77460464D01*
X140256282Y-77502500D01*
X140404652Y-77615387D01*
X140599268Y-77781171D01*
X140786884Y-77952589D01*
X141308018Y-78443250D01*
X141350807Y-81634125D01*
X141393595Y-84825000D01*
X144615500Y-84825000D01*
X144615500Y-84314960D01*
X144595719Y-83922925D01*
X144526885Y-83614458D01*
X144394762Y-83350995D01*
X144185112Y-83093968D01*
X144152119Y-83059731D01*
X143885250Y-82786712D01*
X143821750Y-83967750D01*
X143180606Y-83985738D01*
X142539463Y-84003727D01*
X142494238Y-81916206D01*
X142481658Y-81282748D01*
X142474316Y-80765443D01*
X142472634Y-80353534D01*
X142477036Y-80036266D01*
X142487942Y-79802884D01*
X142505774Y-79642630D01*
X142530955Y-79544750D01*
X142563906Y-79498487D01*
X142589382Y-79491000D01*
X142622333Y-79499989D01*
X142673141Y-79532781D01*
X142750592Y-79598114D01*
X142863472Y-79704725D01*
X143020569Y-79861353D01*
X143230667Y-80076735D01*
X143502554Y-80359609D01*
X143845015Y-80718712D01*
X144205767Y-81098427D01*
X145399875Y-82356604D01*
X146170402Y-81586077D01*
X142621861Y-78037111D01*
X141851308Y-77266466D01*
X143638027Y-77266466D01*
X144203562Y-77854858D01*
X144431789Y-78089447D01*
X144687841Y-78347945D01*
X144955985Y-78615008D01*
X145220488Y-78875293D01*
X145465617Y-79113457D01*
X145675640Y-79314157D01*
X145834824Y-79462049D01*
X145927436Y-79541789D01*
X145943108Y-79551340D01*
X145948192Y-79491089D01*
X145950742Y-79318599D01*
X145950842Y-79048605D01*
X145948573Y-78695842D01*
X145944018Y-78275045D01*
X145937259Y-77800948D01*
X145931354Y-77450420D01*
X145920683Y-76944806D01*
X145907729Y-76479428D01*
X145893164Y-76069592D01*
X145877657Y-75730604D01*
X145861877Y-75477767D01*
X145846495Y-75326388D01*
X145836768Y-75289368D01*
X145774326Y-75311908D01*
X145636172Y-75409449D01*
X145437684Y-75568501D01*
X145194243Y-75775571D01*
X144921229Y-76017167D01*
X144634020Y-76279799D01*
X144347998Y-76549974D01*
X144078542Y-76814201D01*
X143952138Y-76942643D01*
X143638027Y-77266466D01*
X141851308Y-77266466D01*
X139218406Y-74633250D01*
X141043081Y-74633250D01*
X141774047Y-75391588D01*
X142505012Y-76149926D01*
X142687131Y-76032258D01*
X142805446Y-75948860D01*
X142997750Y-75805616D01*
X143238640Y-75621736D01*
X143502711Y-75416433D01*
X143536000Y-75390288D01*
X143807173Y-75175387D01*
X144062852Y-74969801D01*
X144275516Y-74795844D01*
X144417645Y-74675836D01*
X144425000Y-74669362D01*
X144647250Y-74472741D01*
X143155000Y-74514606D01*
X142712227Y-74528290D01*
X142294122Y-74543556D01*
X141923407Y-74559393D01*
X141622807Y-74574789D01*
X141415045Y-74588730D01*
X141352915Y-74594860D01*
X141043081Y-74633250D01*
X139218406Y-74633250D01*
X139073319Y-74488146D01*
X138717034Y-74511615D01*
X138579314Y-74517168D01*
X138329520Y-74523559D01*
X137982570Y-74530543D01*
X137553386Y-74537877D01*
X137056888Y-74545318D01*
X136507997Y-74552623D01*
X135921633Y-74559547D01*
X135519125Y-74563813D01*
X132677500Y-74592541D01*
X132677500Y-73523712D01*
X134776326Y-73506981D01*
X136875153Y-73490250D01*
X134760451Y-71448009D01*
X134188636Y-70896577D01*
X133700912Y-70428143D01*
X133290758Y-70036722D01*
X132951651Y-69716328D01*
X132677068Y-69460976D01*
X132460489Y-69264678D01*
X132295391Y-69121451D01*
X132175251Y-69025308D01*
X132093547Y-68970263D01*
X132043758Y-68950331D01*
X132038560Y-68950000D01*
X131977092Y-68993715D01*
X131845708Y-69113632D01*
X131660926Y-69292905D01*
X131439266Y-69514686D01*
X131197247Y-69762132D01*
X130951389Y-70018395D01*
X130718212Y-70266631D01*
X130514234Y-70489993D01*
X130392306Y-70628774D01*
X130250487Y-70797856D01*
X130183465Y-70896683D01*
X130182241Y-70950433D01*
X130237815Y-70984283D01*
X130261934Y-70993478D01*
X130362539Y-71009514D01*
X130570698Y-71027047D01*
X130866989Y-71044997D01*
X131231992Y-71062283D01*
X131646286Y-71077826D01*
X131935766Y-71086563D01*
X133471250Y-71128469D01*
X133778273Y-71536669D01*
X133917120Y-71729561D01*
X134014975Y-71881695D01*
X134055580Y-71967201D01*
X134054306Y-71975860D01*
X133986071Y-71983619D01*
X133804654Y-71992564D01*
X133523862Y-72002321D01*
X133157504Y-72012515D01*
X132719389Y-72022770D01*
X132223323Y-72032711D01*
X131683115Y-72041965D01*
X131535829Y-72044232D01*
X129048343Y-72081613D01*
X128499081Y-72676575D01*
X128286621Y-72909309D01*
X128104265Y-73113926D01*
X127970329Y-73269533D01*
X127903128Y-73355238D01*
X127900914Y-73358925D01*
X127933200Y-73407164D01*
X128080661Y-73447230D01*
X128331697Y-73478506D01*
X128674706Y-73500376D01*
X129098089Y-73512223D01*
X129590244Y-73513429D01*
X130139572Y-73503379D01*
X130436622Y-73493771D01*
X131661500Y-73448549D01*
X131661500Y-73698661D01*
X131652102Y-73928585D01*
X131628823Y-74183343D01*
X131621924Y-74237511D01*
X131582348Y-74526248D01*
X125535662Y-74547999D01*
X124510628Y-74551881D01*
X123605222Y-74555797D01*
X122812070Y-74559889D01*
X122123798Y-74564296D01*
X121533035Y-74569157D01*
X121032406Y-74574614D01*
X120614539Y-74580805D01*
X120272061Y-74587871D01*
X119997599Y-74595952D01*
X119783779Y-74605188D01*
X119623229Y-74615719D01*
X119508576Y-74627685D01*
X119432447Y-74641225D01*
X119387468Y-74656481D01*
X119374108Y-74665000D01*
X119346039Y-74694107D01*
X119323251Y-74738125D01*
X119305420Y-74808758D01*
X119292222Y-74917711D01*
X119283331Y-75076692D01*
X119278424Y-75297406D01*
X119277174Y-75591559D01*
X119279259Y-75970857D01*
X119284353Y-76447005D01*
X119292131Y-77031710D01*
X119297682Y-77420886D01*
X119310374Y-78186735D01*
X119324498Y-78826098D01*
X119340076Y-79339481D01*
X119357127Y-79727389D01*
X119375671Y-79990329D01*
X119395728Y-80128807D01*
X119405111Y-80150511D01*
X119459465Y-80145624D01*
X119570211Y-80070411D01*
X119743898Y-79919071D01*
X119987072Y-79685798D01*
X120306282Y-79364790D01*
X120400947Y-79267874D01*
X120701360Y-78957390D01*
X120991452Y-78653856D01*
X121252065Y-78377599D01*
X121464042Y-78148940D01*
X121608226Y-77988204D01*
X121619266Y-77975378D01*
X121910736Y-77634506D01*
X121596130Y-77372128D01*
X121197272Y-77033214D01*
X120842335Y-76719298D01*
X120542853Y-76441363D01*
X120310360Y-76210390D01*
X120156391Y-76037363D01*
X120095637Y-75943441D01*
X120062431Y-75760706D01*
X120071962Y-75567613D01*
X120154927Y-75375651D01*
X120319894Y-75270943D01*
X120574233Y-75249932D01*
X120700930Y-75263908D01*
X120831726Y-75294641D01*
X120976891Y-75354541D01*
X121149988Y-75452802D01*
X121364581Y-75598617D01*
X121634232Y-75801181D01*
X121972507Y-76069688D01*
X122376055Y-76399391D01*
X122837860Y-76779950D01*
X122980684Y-76645774D01*
X123084098Y-76539530D01*
X123243272Y-76365602D01*
X123431785Y-76153132D01*
X123534879Y-76034489D01*
X123946250Y-75557380D01*
X125597250Y-75556141D01*
X126069613Y-75557377D01*
X126524059Y-75561507D01*
X126937627Y-75568097D01*
X127287359Y-75576714D01*
X127550298Y-75586926D01*
X127676875Y-75595383D01*
X128105500Y-75635864D01*
X128105500Y-77903500D01*
X126835500Y-77903500D01*
X126835500Y-76760500D01*
X125930625Y-76764285D01*
X125465907Y-76767237D01*
X125098754Y-76778882D01*
X124805773Y-76809946D01*
X124563574Y-76871152D01*
X124348765Y-76973226D01*
X124137956Y-77126894D01*
X123907754Y-77342880D01*
X123634770Y-77631909D01*
X123345786Y-77949456D01*
X122698852Y-78662163D01*
X122702993Y-80902206D01*
X122705529Y-81559139D01*
X122710619Y-82295167D01*
X122717839Y-83070036D01*
X122726764Y-83843489D01*
X122736968Y-84575271D01*
X122748027Y-85225126D01*
X122749387Y-85295497D01*
X122791640Y-87448745D01*
X122352945Y-87407324D01*
X122073122Y-87385225D01*
X121793326Y-87370021D01*
X121612625Y-87365451D01*
X121311000Y-87365000D01*
X121311000Y-83730816D01*
X121310999Y-80096632D01*
X120669718Y-80730441D01*
X120394562Y-81007075D01*
X120112494Y-81298626D01*
X119855710Y-81571356D01*
X119656406Y-81791523D01*
X119647821Y-81801357D01*
X119455738Y-82031424D01*
X119356523Y-82186172D01*
X119353503Y-82280347D01*
X119450010Y-82328698D01*
X119649372Y-82345971D01*
X119771125Y-82347527D01*
X120104500Y-82348500D01*
X120104500Y-83745500D01*
X119763025Y-83745500D01*
X119527505Y-83758564D01*
X119380068Y-83812255D01*
X119304818Y-83928321D01*
X119285858Y-84128509D01*
X119301714Y-84376626D01*
X119331031Y-84665323D01*
X119366071Y-84850547D01*
X119424519Y-84955260D01*
X119524063Y-85002425D01*
X119682387Y-85015004D01*
X119793793Y-85015500D01*
X120168000Y-85015500D01*
X120168000Y-86349000D01*
X119342500Y-86349000D01*
X119342500Y-87555500D01*
X118781069Y-87555500D01*
X118219638Y-87555499D01*
X118175330Y-85510428D01*
X118163554Y-85013402D01*
X118150827Y-84557869D01*
X118137729Y-84159146D01*
X118124840Y-83832545D01*
X118112738Y-83593382D01*
X118102005Y-83456971D01*
X118096618Y-83430951D01*
X118074885Y-83433652D01*
X118026914Y-83467144D01*
X117946653Y-83537626D01*
X117828052Y-83651295D01*
X117665061Y-83814349D01*
X117451630Y-84032986D01*
X117181709Y-84313403D01*
X116849247Y-84661798D01*
X116448195Y-85084370D01*
X115972502Y-85587315D01*
X115416430Y-86176499D01*
X115059649Y-86556632D01*
X114733119Y-86908061D01*
X114446536Y-87220076D01*
X114209595Y-87481970D01*
X114031992Y-87683036D01*
X113923422Y-87812566D01*
X113892791Y-87859249D01*
X113939791Y-87909171D01*
X114071229Y-88042504D01*
X114281216Y-88253388D01*
X114563860Y-88535963D01*
X114913268Y-88884369D01*
X115323550Y-89292746D01*
X115788813Y-89755234D01*
X116303168Y-90265973D01*
X116860721Y-90819103D01*
X117455582Y-91408763D01*
X118081859Y-92029095D01*
X118725233Y-92665899D01*
X119376316Y-93310937D01*
X120001135Y-93931585D01*
X120593848Y-94521951D01*
X121148612Y-95076142D01*
X121659585Y-95588268D01*
X122120924Y-96052437D01*
X122526786Y-96462757D01*
X122871328Y-96813336D01*
X123148709Y-97098283D01*
X123353084Y-97311707D01*
X123478613Y-97447715D01*
X123519483Y-97500308D01*
X123467966Y-97558514D01*
X123333014Y-97684438D01*
X123129344Y-97865705D01*
X122871670Y-98089943D01*
X122574708Y-98344775D01*
X122253173Y-98617829D01*
X121921782Y-98896730D01*
X121595249Y-99169104D01*
X121288291Y-99422577D01*
X121015622Y-99644774D01*
X120791958Y-99823321D01*
X120632014Y-99945844D01*
X120550507Y-99999969D01*
X120545049Y-100001500D01*
X120495986Y-99948511D01*
X120485500Y-99879686D01*
X120482685Y-99783030D01*
X120474799Y-99579320D01*
X120462675Y-99288362D01*
X120447149Y-98929964D01*
X120429056Y-98523935D01*
X120419254Y-98308061D01*
X120398112Y-97836538D01*
X120379315Y-97471268D01*
X120356946Y-97191773D01*
X120325092Y-96977575D01*
X120277838Y-96808196D01*
X120209269Y-96663157D01*
X120113471Y-96521981D01*
X119984529Y-96364189D01*
X119816529Y-96169303D01*
X119793936Y-96143003D01*
X119635374Y-95967735D01*
X119534325Y-95883824D01*
X119474178Y-95879501D01*
X119454700Y-95902700D01*
X119443309Y-95983450D01*
X119431093Y-96178366D01*
X119418434Y-96474619D01*
X119405714Y-96859379D01*
X119393314Y-97319819D01*
X119381615Y-97843109D01*
X119371000Y-98416422D01*
X119361903Y-99022877D01*
X119321679Y-102049111D01*
X119470264Y-101969591D01*
X119580337Y-101905373D01*
X119770716Y-101789026D01*
X120014807Y-101636980D01*
X120286011Y-101465670D01*
X120290299Y-101462942D01*
X120567973Y-101288254D01*
X120825316Y-101129852D01*
X121033359Y-101005351D01*
X121161707Y-100933095D01*
X121243011Y-100893007D01*
X121313354Y-100874381D01*
X121390271Y-100886922D01*
X121491295Y-100940337D01*
X121633963Y-101044330D01*
X121835806Y-101208607D01*
X122114362Y-101442873D01*
X122174625Y-101493750D01*
X122475538Y-101747750D01*
X123010984Y-101738109D01*
X123262972Y-101727227D01*
X123466429Y-101706671D01*
X123587728Y-101680256D01*
X123604091Y-101670808D01*
X123583395Y-101605062D01*
X123481277Y-101461288D01*
X123306735Y-101250636D01*
X123068768Y-100984260D01*
X122927761Y-100832543D01*
X122686508Y-100571827D01*
X122480875Y-100341666D01*
X122324782Y-100158294D01*
X122232150Y-100037948D01*
X122212760Y-99998625D01*
X122266149Y-99944954D01*
X122404534Y-99825342D01*
X122612942Y-99652179D01*
X122876402Y-99437856D01*
X123179944Y-99194761D01*
X123279500Y-99115767D01*
X124327250Y-98286224D01*
X124741526Y-98715237D01*
X124953652Y-98936865D01*
X125216935Y-99214826D01*
X125496427Y-99512094D01*
X125734968Y-99767723D01*
X126314134Y-100391196D01*
X126761236Y-100006388D01*
X126962085Y-99830322D01*
X127125954Y-99680712D01*
X127228746Y-99579837D01*
X127249540Y-99554912D01*
X127219954Y-99491274D01*
X127113921Y-99351012D01*
X126943631Y-99148460D01*
X126721273Y-98897947D01*
X126459036Y-98613806D01*
X126359257Y-98508190D01*
X125427772Y-97528135D01*
X125607761Y-97370431D01*
X125754155Y-97244762D01*
X125951257Y-97078813D01*
X126118041Y-96940239D01*
X126284439Y-96798679D01*
X126403299Y-96689393D01*
X126448915Y-96636018D01*
X126448916Y-96636000D01*
X126409156Y-96578387D01*
X126301926Y-96449870D01*
X126146106Y-96272669D01*
X126046415Y-96162374D01*
X125643331Y-95720498D01*
X125282727Y-96003624D01*
X124975134Y-96244665D01*
X124750921Y-96416699D01*
X124593390Y-96528908D01*
X124485845Y-96590478D01*
X124411591Y-96610591D01*
X124353931Y-96598432D01*
X124296169Y-96563184D01*
X124282557Y-96553773D01*
X124194561Y-96480602D01*
X124031523Y-96333338D01*
X123809204Y-96126675D01*
X123543364Y-95875313D01*
X123249763Y-95593947D01*
X123152500Y-95499952D01*
X122168250Y-94546806D01*
X123025500Y-94543750D01*
X123299560Y-94544260D01*
X123677971Y-94547128D01*
X124138111Y-94552071D01*
X124657357Y-94558804D01*
X125213087Y-94567042D01*
X125782680Y-94576502D01*
X126121125Y-94582636D01*
X128359500Y-94624578D01*
X128359500Y-100411597D01*
X127335616Y-101440827D01*
X127891412Y-102038788D01*
X128082514Y-102242916D01*
X128336779Y-102512290D01*
X128643235Y-102835456D01*
X128990908Y-103200964D01*
X129368826Y-103597358D01*
X129766016Y-104013188D01*
X130171505Y-104437000D01*
X130574321Y-104857341D01*
X130963489Y-105262759D01*
X131328039Y-105641801D01*
X131656996Y-105983014D01*
X131939388Y-106274946D01*
X132164241Y-106506143D01*
X132320584Y-106665154D01*
X132385287Y-106729201D01*
X132537077Y-106853780D01*
X132641715Y-106898015D01*
X132667806Y-106887951D01*
X132930584Y-106593593D01*
X133257092Y-106229440D01*
X133632545Y-105811849D01*
X134042162Y-105357176D01*
X134471159Y-104881779D01*
X134904754Y-104402012D01*
X135328165Y-103934233D01*
X135726607Y-103494798D01*
X136085298Y-103100063D01*
X136389456Y-102766385D01*
X136624298Y-102510120D01*
X136633432Y-102500200D01*
X137578028Y-101474651D01*
X138477389Y-101437627D01*
X138743790Y-101428522D01*
X139117261Y-101418456D01*
X139577882Y-101407831D01*
X140105730Y-101397049D01*
X140680882Y-101386514D01*
X141283419Y-101376627D01*
X141893416Y-101367791D01*
X142012000Y-101366219D01*
X142603874Y-101357722D01*
X143177474Y-101348028D01*
X143715556Y-101337534D01*
X144200874Y-101326636D01*
X144616186Y-101315728D01*
X144944245Y-101305209D01*
X145167809Y-101295473D01*
X145212513Y-101292723D01*
X145777776Y-101253611D01*
X145732309Y-98739643D01*
X145721525Y-98187061D01*
X145710008Y-97674857D01*
X145698181Y-97216778D01*
X145686467Y-96826568D01*
X145675289Y-96517974D01*
X145665070Y-96304743D01*
X145656234Y-96200621D01*
X145653913Y-96192712D01*
X145583958Y-96182829D01*
X145404473Y-96172332D01*
X145132921Y-96161817D01*
X144786765Y-96151881D01*
X144383469Y-96143118D01*
X144031492Y-96137354D01*
X142441999Y-96114958D01*
X142480300Y-95883354D01*
X142502652Y-95682350D01*
X142516806Y-95429069D01*
X142519301Y-95294972D01*
X142520000Y-94938195D01*
X144075011Y-94909419D01*
X144506482Y-94900188D01*
X144894605Y-94889500D01*
X145221724Y-94878037D01*
X145470178Y-94866480D01*
X145622312Y-94855510D01*
X145662465Y-94848201D01*
X145679309Y-94775289D01*
X145699812Y-94602980D01*
X145721133Y-94358712D01*
X145736962Y-94128430D01*
X145779017Y-93441101D01*
X144109159Y-93486664D01*
X142439302Y-93532227D01*
X142470186Y-93050995D01*
X142490763Y-92814124D01*
X142516888Y-92628474D01*
X142543441Y-92528982D01*
X142547521Y-92523256D01*
X142619807Y-92511720D01*
X142804187Y-92499984D01*
X143085756Y-92488502D01*
X143449611Y-92477729D01*
X143880847Y-92468118D01*
X144364560Y-92460125D01*
X144779486Y-92455199D01*
X146965000Y-92433649D01*
X146965000Y-88508000D01*
X149536750Y-88508000D01*
X150094221Y-88509134D01*
X150610056Y-88512373D01*
X151070906Y-88517468D01*
X151463422Y-88524174D01*
X151774256Y-88532241D01*
X151990057Y-88541423D01*
X152097478Y-88551473D01*
X152107113Y-88555625D01*
X152063761Y-88608597D01*
X151939475Y-88744137D01*
X151742126Y-88954021D01*
X151479583Y-89230029D01*
X151159718Y-89563938D01*
X150790403Y-89947526D01*
X150379507Y-90372572D01*
X149934903Y-90830854D01*
X149569139Y-91206750D01*
X147032551Y-93810250D01*
X147046400Y-98234057D01*
X147048041Y-98972443D01*
X147048297Y-99673581D01*
X147047247Y-100327140D01*
X147044969Y-100922787D01*
X147041541Y-101450190D01*
X147037042Y-101899016D01*
X147031551Y-102258933D01*
X147025145Y-102519608D01*
X147017903Y-102670710D01*
X147012489Y-102705651D01*
X146942473Y-102714175D01*
X146755962Y-102723077D01*
X146463461Y-102732169D01*
X146075474Y-102741264D01*
X145602505Y-102750174D01*
X145055059Y-102758711D01*
X144443639Y-102766687D01*
X143778750Y-102773915D01*
X143070896Y-102780206D01*
X142680439Y-102783106D01*
X138396149Y-102812775D01*
X136881042Y-104344012D01*
X136432732Y-104798332D01*
X135934785Y-105305070D01*
X135414861Y-105835939D01*
X134900617Y-106362652D01*
X134419714Y-106856922D01*
X133999810Y-107290464D01*
X133986742Y-107304000D01*
X133644200Y-107656771D01*
X133327394Y-107979072D01*
X133047654Y-108259686D01*
X132816306Y-108487399D01*
X132644681Y-108650995D01*
X132544105Y-108739260D01*
X132524565Y-108751540D01*
X132466738Y-108710695D01*
X132327918Y-108586518D01*
X132115809Y-108386570D01*
X131838116Y-108118411D01*
X131502544Y-107789603D01*
X131116795Y-107407707D01*
X130688576Y-106980285D01*
X130225590Y-106514897D01*
X129735542Y-106019106D01*
X129596789Y-105878165D01*
X126751999Y-102986000D01*
X118009000Y-102986000D01*
X118009000Y-93936737D01*
X115056249Y-90984500D01*
X114549817Y-90477290D01*
X114070825Y-89995884D01*
X113626711Y-89547865D01*
X113224915Y-89140818D01*
X112872873Y-88782327D01*
X112578026Y-88479976D01*
X112347811Y-88241348D01*
X112189666Y-88074030D01*
X112111031Y-87985603D01*
X112103500Y-87973899D01*
X112107957Y-87954553D01*
X112125177Y-87923949D01*
X112160930Y-87875986D01*
X112220984Y-87804564D01*
X112311111Y-87703584D01*
X112437080Y-87566946D01*
X112604660Y-87388549D01*
X112819623Y-87162295D01*
X113087737Y-86882083D01*
X113414773Y-86541813D01*
X113806501Y-86135385D01*
X114268690Y-85656701D01*
X114807112Y-85099659D01*
X115427534Y-84458160D01*
X115498148Y-84385161D01*
X118104250Y-81691073D01*
X118136000Y-77622411D01*
X118167750Y-73553750D01*
X126041750Y-73511398D01*
X129026250Y-70443587D01*
X129532793Y-69923625D01*
X130013869Y-69431203D01*
X130462098Y-68973784D01*
X130870103Y-68558832D01*
X131230505Y-68193810D01*
X131535925Y-67886181D01*
X131778986Y-67643410D01*
X131952309Y-67472958D01*
X132048515Y-67382290D01*
X132065699Y-67369138D01*
X132118926Y-67411577D01*
G36*
X149531000Y-168154000D02*
X147880000Y-168154000D01*
X147880000Y-171710000D01*
X149531000Y-171710000D01*
X149531000Y-173234000D01*
X144578000Y-173234000D01*
X144578000Y-168154000D01*
X139307500Y-168154000D01*
X139307500Y-173234000D01*
X136069000Y-173234000D01*
X136069000Y-166630000D01*
X149531000Y-166630000D01*
X149531000Y-168154000D01*
X149531000Y-168154000D01*
G37*
X149531000Y-168154000D02*
X147880000Y-168154000D01*
X147880000Y-171710000D01*
X149531000Y-171710000D01*
X149531000Y-173234000D01*
X144578000Y-173234000D01*
X144578000Y-168154000D01*
X139307500Y-168154000D01*
X139307500Y-173234000D01*
X136069000Y-173234000D01*
X136069000Y-166630000D01*
X149531000Y-166630000D01*
X149531000Y-168154000D01*
G36*
X139307500Y-162629500D02*
X144578000Y-162629500D01*
X144578000Y-157549500D01*
X149531000Y-157549500D01*
X149531000Y-159073500D01*
X147880000Y-159073500D01*
X147880000Y-162629500D01*
X149531000Y-162629500D01*
X149531000Y-164153500D01*
X136069000Y-164153500D01*
X136069000Y-157549500D01*
X139307500Y-157549500D01*
X139307500Y-162629500D01*
X139307500Y-162629500D01*
G37*
X139307500Y-162629500D02*
X144578000Y-162629500D01*
X144578000Y-157549500D01*
X149531000Y-157549500D01*
X149531000Y-159073500D01*
X147880000Y-159073500D01*
X147880000Y-162629500D01*
X149531000Y-162629500D01*
X149531000Y-164153500D01*
X136069000Y-164153500D01*
X136069000Y-157549500D01*
X139307500Y-157549500D01*
X139307500Y-162629500D01*
G36*
X133196279Y-170478445D02*
X133589625Y-170480537D01*
X133887606Y-170485412D01*
X134106037Y-170494206D01*
X134260735Y-170508054D01*
X134367516Y-170528093D01*
X134442197Y-170555456D01*
X134500594Y-170591281D01*
X134524686Y-170609608D01*
X134620698Y-170701050D01*
X134671125Y-170809504D01*
X134689991Y-170977553D01*
X134692000Y-171117608D01*
X134668735Y-171410869D01*
X134588194Y-171601671D01*
X134434251Y-171707707D01*
X134190785Y-171746665D01*
X134117434Y-171748000D01*
X133924011Y-171741612D01*
X133815128Y-171708162D01*
X133748448Y-171626221D01*
X133709716Y-171541625D01*
X133622563Y-171335250D01*
X133898222Y-171316102D01*
X134087988Y-171282491D01*
X134229340Y-171221567D01*
X134255918Y-171198105D01*
X134295392Y-171088648D01*
X134215014Y-171005108D01*
X134019669Y-170949541D01*
X133714243Y-170924000D01*
X133600363Y-170922500D01*
X133104500Y-170922500D01*
X133104500Y-171167936D01*
X133056819Y-171428277D01*
X132972891Y-171580686D01*
X132841282Y-171748000D01*
X131893391Y-171748000D01*
X131523159Y-171746635D01*
X131258282Y-171740837D01*
X131077129Y-171728049D01*
X130958068Y-171705717D01*
X130879468Y-171671285D01*
X130819699Y-171622196D01*
X130818500Y-171621000D01*
X130740339Y-171508192D01*
X130701335Y-171345630D01*
X130691500Y-171117608D01*
X130692013Y-171101513D01*
X131082526Y-171101513D01*
X131130297Y-171201378D01*
X131191776Y-171247426D01*
X131300227Y-171277743D01*
X131478275Y-171295191D01*
X131748546Y-171302634D01*
X131937525Y-171303500D01*
X132660000Y-171303500D01*
X132660000Y-170922500D01*
X131973636Y-170922500D01*
X131574955Y-170932883D01*
X131296787Y-170965108D01*
X131134266Y-171020781D01*
X131082526Y-171101513D01*
X130692013Y-171101513D01*
X130698575Y-170896051D01*
X130729153Y-170758558D01*
X130797258Y-170662545D01*
X130858813Y-170609608D01*
X130915070Y-170569788D01*
X130980795Y-170538918D01*
X131071807Y-170515863D01*
X131203920Y-170499487D01*
X131392952Y-170488654D01*
X131654719Y-170482230D01*
X132005037Y-170479078D01*
X132459724Y-170478062D01*
X132691749Y-170478000D01*
X133196279Y-170478445D01*
X133196279Y-170478445D01*
G37*
X133196279Y-170478445D02*
X133589625Y-170480537D01*
X133887606Y-170485412D01*
X134106037Y-170494206D01*
X134260735Y-170508054D01*
X134367516Y-170528093D01*
X134442197Y-170555456D01*
X134500594Y-170591281D01*
X134524686Y-170609608D01*
X134620698Y-170701050D01*
X134671125Y-170809504D01*
X134689991Y-170977553D01*
X134692000Y-171117608D01*
X134668735Y-171410869D01*
X134588194Y-171601671D01*
X134434251Y-171707707D01*
X134190785Y-171746665D01*
X134117434Y-171748000D01*
X133924011Y-171741612D01*
X133815128Y-171708162D01*
X133748448Y-171626221D01*
X133709716Y-171541625D01*
X133622563Y-171335250D01*
X133898222Y-171316102D01*
X134087988Y-171282491D01*
X134229340Y-171221567D01*
X134255918Y-171198105D01*
X134295392Y-171088648D01*
X134215014Y-171005108D01*
X134019669Y-170949541D01*
X133714243Y-170924000D01*
X133600363Y-170922500D01*
X133104500Y-170922500D01*
X133104500Y-171167936D01*
X133056819Y-171428277D01*
X132972891Y-171580686D01*
X132841282Y-171748000D01*
X131893391Y-171748000D01*
X131523159Y-171746635D01*
X131258282Y-171740837D01*
X131077129Y-171728049D01*
X130958068Y-171705717D01*
X130879468Y-171671285D01*
X130819699Y-171622196D01*
X130818500Y-171621000D01*
X130740339Y-171508192D01*
X130701335Y-171345630D01*
X130691500Y-171117608D01*
X130692013Y-171101513D01*
X131082526Y-171101513D01*
X131130297Y-171201378D01*
X131191776Y-171247426D01*
X131300227Y-171277743D01*
X131478275Y-171295191D01*
X131748546Y-171302634D01*
X131937525Y-171303500D01*
X132660000Y-171303500D01*
X132660000Y-170922500D01*
X131973636Y-170922500D01*
X131574955Y-170932883D01*
X131296787Y-170965108D01*
X131134266Y-171020781D01*
X131082526Y-171101513D01*
X130692013Y-171101513D01*
X130698575Y-170896051D01*
X130729153Y-170758558D01*
X130797258Y-170662545D01*
X130858813Y-170609608D01*
X130915070Y-170569788D01*
X130980795Y-170538918D01*
X131071807Y-170515863D01*
X131203920Y-170499487D01*
X131392952Y-170488654D01*
X131654719Y-170482230D01*
X132005037Y-170479078D01*
X132459724Y-170478062D01*
X132691749Y-170478000D01*
X133196279Y-170478445D01*
G36*
X134390375Y-163655242D02*
X134524527Y-163706035D01*
X134611810Y-163776787D01*
X134662168Y-163893041D01*
X134685549Y-164080341D01*
X134691898Y-164364230D01*
X134692000Y-164429875D01*
X134692000Y-165033701D01*
X134231625Y-165000375D01*
X134016534Y-164977313D01*
X133810871Y-164935022D01*
X133583942Y-164863889D01*
X133305059Y-164754302D01*
X132945750Y-164597643D01*
X132591014Y-164442635D01*
X132319787Y-164335224D01*
X132102035Y-164266113D01*
X131907724Y-164226003D01*
X131706819Y-164205597D01*
X131672865Y-164203584D01*
X131418854Y-164196332D01*
X131260351Y-164211849D01*
X131167208Y-164254495D01*
X131141215Y-164280465D01*
X131095826Y-164401234D01*
X131165331Y-164499661D01*
X131338205Y-164565542D01*
X131485277Y-164585102D01*
X131760936Y-164604250D01*
X131673783Y-164810625D01*
X131612008Y-164933410D01*
X131534288Y-164994414D01*
X131398287Y-165015064D01*
X131266065Y-165017000D01*
X131026124Y-164997697D01*
X130868208Y-164932203D01*
X130818500Y-164890000D01*
X130740339Y-164777192D01*
X130701335Y-164614630D01*
X130691500Y-164386608D01*
X130698575Y-164165051D01*
X130729153Y-164027558D01*
X130797258Y-163931545D01*
X130858813Y-163878608D01*
X130961778Y-163813183D01*
X131088623Y-163773343D01*
X131272007Y-163753255D01*
X131544591Y-163747085D01*
X131595590Y-163747000D01*
X131811028Y-163748601D01*
X131984746Y-163758288D01*
X132143689Y-163783386D01*
X132314802Y-163831219D01*
X132525033Y-163909111D01*
X132801325Y-164024387D01*
X133114022Y-164159750D01*
X133439872Y-164299109D01*
X133729116Y-164418370D01*
X133959975Y-164508901D01*
X134110670Y-164562067D01*
X134155245Y-164572500D01*
X134204069Y-164545206D01*
X134232796Y-164448662D01*
X134245649Y-164260868D01*
X134247500Y-164091970D01*
X134249290Y-163849152D01*
X134259923Y-163709213D01*
X134287288Y-163648034D01*
X134339276Y-163641499D01*
X134390375Y-163655242D01*
X134390375Y-163655242D01*
G37*
X134390375Y-163655242D02*
X134524527Y-163706035D01*
X134611810Y-163776787D01*
X134662168Y-163893041D01*
X134685549Y-164080341D01*
X134691898Y-164364230D01*
X134692000Y-164429875D01*
X134692000Y-165033701D01*
X134231625Y-165000375D01*
X134016534Y-164977313D01*
X133810871Y-164935022D01*
X133583942Y-164863889D01*
X133305059Y-164754302D01*
X132945750Y-164597643D01*
X132591014Y-164442635D01*
X132319787Y-164335224D01*
X132102035Y-164266113D01*
X131907724Y-164226003D01*
X131706819Y-164205597D01*
X131672865Y-164203584D01*
X131418854Y-164196332D01*
X131260351Y-164211849D01*
X131167208Y-164254495D01*
X131141215Y-164280465D01*
X131095826Y-164401234D01*
X131165331Y-164499661D01*
X131338205Y-164565542D01*
X131485277Y-164585102D01*
X131760936Y-164604250D01*
X131673783Y-164810625D01*
X131612008Y-164933410D01*
X131534288Y-164994414D01*
X131398287Y-165015064D01*
X131266065Y-165017000D01*
X131026124Y-164997697D01*
X130868208Y-164932203D01*
X130818500Y-164890000D01*
X130740339Y-164777192D01*
X130701335Y-164614630D01*
X130691500Y-164386608D01*
X130698575Y-164165051D01*
X130729153Y-164027558D01*
X130797258Y-163931545D01*
X130858813Y-163878608D01*
X130961778Y-163813183D01*
X131088623Y-163773343D01*
X131272007Y-163753255D01*
X131544591Y-163747085D01*
X131595590Y-163747000D01*
X131811028Y-163748601D01*
X131984746Y-163758288D01*
X132143689Y-163783386D01*
X132314802Y-163831219D01*
X132525033Y-163909111D01*
X132801325Y-164024387D01*
X133114022Y-164159750D01*
X133439872Y-164299109D01*
X133729116Y-164418370D01*
X133959975Y-164508901D01*
X134110670Y-164562067D01*
X134155245Y-164572500D01*
X134204069Y-164545206D01*
X134232796Y-164448662D01*
X134245649Y-164260868D01*
X134247500Y-164091970D01*
X134249290Y-163849152D01*
X134259923Y-163709213D01*
X134287288Y-163648034D01*
X134339276Y-163641499D01*
X134390375Y-163655242D01*
G36*
X133847655Y-156896100D02*
X134130011Y-156916170D01*
X134332767Y-156949113D01*
X134366364Y-156959179D01*
X134533831Y-157044280D01*
X134634456Y-157174997D01*
X134682292Y-157379439D01*
X134692000Y-157610466D01*
X134667090Y-157873887D01*
X134581293Y-158053411D01*
X134418001Y-158162256D01*
X134160608Y-158213638D01*
X133923067Y-158222500D01*
X133691479Y-158219241D01*
X133552173Y-158201307D01*
X133470453Y-158156461D01*
X133411625Y-158072467D01*
X133391880Y-158035153D01*
X133325584Y-157897442D01*
X133295204Y-157815572D01*
X133295000Y-157812903D01*
X133353088Y-157795563D01*
X133505747Y-157783069D01*
X133720567Y-157778011D01*
X133731724Y-157778000D01*
X134030179Y-157760937D01*
X134213296Y-157707223D01*
X134288412Y-157613068D01*
X134272845Y-157498457D01*
X134241413Y-157454712D01*
X134173030Y-157426057D01*
X134046678Y-157410311D01*
X133841340Y-157405294D01*
X133536000Y-157408824D01*
X133430374Y-157411033D01*
X132628250Y-157428750D01*
X132608313Y-157744637D01*
X132583774Y-157945322D01*
X132543954Y-158098324D01*
X132521163Y-158141512D01*
X132429856Y-158176683D01*
X132242150Y-158202573D01*
X131988310Y-158219099D01*
X131698604Y-158226179D01*
X131403297Y-158223730D01*
X131132657Y-158211670D01*
X130916949Y-158189915D01*
X130786441Y-158158384D01*
X130767700Y-158146300D01*
X130739517Y-158062246D01*
X130716358Y-157892548D01*
X130699295Y-157669893D01*
X130689404Y-157426967D01*
X130687757Y-157196458D01*
X130695426Y-157011050D01*
X130713487Y-156903432D01*
X130726403Y-156889000D01*
X130801468Y-156915376D01*
X130935974Y-156979347D01*
X130945331Y-156984163D01*
X131056062Y-157056488D01*
X131114900Y-157153516D01*
X131142017Y-157317786D01*
X131148553Y-157412788D01*
X131167750Y-157746250D01*
X131628125Y-157764906D01*
X131865294Y-157772455D01*
X132002771Y-157765858D01*
X132067708Y-157737248D01*
X132087257Y-157678757D01*
X132088500Y-157631507D01*
X132134553Y-157337598D01*
X132263556Y-157108855D01*
X132444303Y-156977419D01*
X132609333Y-156938019D01*
X132866538Y-156909861D01*
X133181563Y-156893271D01*
X133520054Y-156888575D01*
X133847655Y-156896100D01*
X133847655Y-156896100D01*
G37*
X133847655Y-156896100D02*
X134130011Y-156916170D01*
X134332767Y-156949113D01*
X134366364Y-156959179D01*
X134533831Y-157044280D01*
X134634456Y-157174997D01*
X134682292Y-157379439D01*
X134692000Y-157610466D01*
X134667090Y-157873887D01*
X134581293Y-158053411D01*
X134418001Y-158162256D01*
X134160608Y-158213638D01*
X133923067Y-158222500D01*
X133691479Y-158219241D01*
X133552173Y-158201307D01*
X133470453Y-158156461D01*
X133411625Y-158072467D01*
X133391880Y-158035153D01*
X133325584Y-157897442D01*
X133295204Y-157815572D01*
X133295000Y-157812903D01*
X133353088Y-157795563D01*
X133505747Y-157783069D01*
X133720567Y-157778011D01*
X133731724Y-157778000D01*
X134030179Y-157760937D01*
X134213296Y-157707223D01*
X134288412Y-157613068D01*
X134272845Y-157498457D01*
X134241413Y-157454712D01*
X134173030Y-157426057D01*
X134046678Y-157410311D01*
X133841340Y-157405294D01*
X133536000Y-157408824D01*
X133430374Y-157411033D01*
X132628250Y-157428750D01*
X132608313Y-157744637D01*
X132583774Y-157945322D01*
X132543954Y-158098324D01*
X132521163Y-158141512D01*
X132429856Y-158176683D01*
X132242150Y-158202573D01*
X131988310Y-158219099D01*
X131698604Y-158226179D01*
X131403297Y-158223730D01*
X131132657Y-158211670D01*
X130916949Y-158189915D01*
X130786441Y-158158384D01*
X130767700Y-158146300D01*
X130739517Y-158062246D01*
X130716358Y-157892548D01*
X130699295Y-157669893D01*
X130689404Y-157426967D01*
X130687757Y-157196458D01*
X130695426Y-157011050D01*
X130713487Y-156903432D01*
X130726403Y-156889000D01*
X130801468Y-156915376D01*
X130935974Y-156979347D01*
X130945331Y-156984163D01*
X131056062Y-157056488D01*
X131114900Y-157153516D01*
X131142017Y-157317786D01*
X131148553Y-157412788D01*
X131167750Y-157746250D01*
X131628125Y-157764906D01*
X131865294Y-157772455D01*
X132002771Y-157765858D01*
X132067708Y-157737248D01*
X132087257Y-157678757D01*
X132088500Y-157631507D01*
X132134553Y-157337598D01*
X132263556Y-157108855D01*
X132444303Y-156977419D01*
X132609333Y-156938019D01*
X132866538Y-156909861D01*
X133181563Y-156893271D01*
X133520054Y-156888575D01*
X133847655Y-156896100D01*
G36*
X130801468Y-150120876D02*
X130935974Y-150184847D01*
X130945331Y-150189663D01*
X131056062Y-150261988D01*
X131114900Y-150359016D01*
X131142017Y-150523286D01*
X131148553Y-150618288D01*
X131167750Y-150951750D01*
X131628125Y-150970406D01*
X131865294Y-150977955D01*
X132002771Y-150971358D01*
X132067708Y-150942748D01*
X132087257Y-150884257D01*
X132088500Y-150837007D01*
X132118973Y-150614788D01*
X132196888Y-150403561D01*
X132301988Y-150252038D01*
X132345004Y-150220159D01*
X132446916Y-150198508D01*
X132650564Y-150180139D01*
X132930702Y-150166488D01*
X133262078Y-150158991D01*
X133437601Y-150158000D01*
X133813892Y-150159272D01*
X134084707Y-150164755D01*
X134271560Y-150176944D01*
X134395963Y-150198338D01*
X134479429Y-150231433D01*
X134543471Y-150278727D01*
X134553026Y-150287473D01*
X134635683Y-150390669D01*
X134678134Y-150529409D01*
X134691738Y-150745211D01*
X134691999Y-150795473D01*
X134675733Y-151069796D01*
X134613648Y-151252908D01*
X134485816Y-151362111D01*
X134272307Y-151414705D01*
X133963380Y-151428000D01*
X133719734Y-151425475D01*
X133570535Y-151410789D01*
X133483239Y-151373273D01*
X133425303Y-151302260D01*
X133391880Y-151240653D01*
X133325584Y-151102942D01*
X133295204Y-151021072D01*
X133295000Y-151018403D01*
X133353088Y-151001063D01*
X133505747Y-150988569D01*
X133720567Y-150983511D01*
X133731724Y-150983500D01*
X134034458Y-150965045D01*
X134224575Y-150911004D01*
X134298497Y-150823357D01*
X134252649Y-150704086D01*
X134247500Y-150697750D01*
X134180058Y-150652874D01*
X134052604Y-150623823D01*
X133843812Y-150607939D01*
X133532357Y-150602565D01*
X133482918Y-150602500D01*
X133191859Y-150605935D01*
X132941909Y-150615222D01*
X132764238Y-150628832D01*
X132696943Y-150641043D01*
X132628376Y-150715149D01*
X132598835Y-150882626D01*
X132596500Y-150977593D01*
X132581136Y-151171869D01*
X132542331Y-151316993D01*
X132520299Y-151351800D01*
X132419772Y-151388684D01*
X132202023Y-151413319D01*
X131863477Y-151426002D01*
X131606343Y-151428000D01*
X131257675Y-151425841D01*
X131016018Y-151417841D01*
X130861435Y-151401716D01*
X130773988Y-151375179D01*
X130733739Y-151335945D01*
X130730043Y-151327556D01*
X130712704Y-151224896D01*
X130700593Y-151042787D01*
X130693806Y-150814300D01*
X130692441Y-150572508D01*
X130696597Y-150350483D01*
X130706370Y-150181299D01*
X130721858Y-150098027D01*
X130726403Y-150094500D01*
X130801468Y-150120876D01*
X130801468Y-150120876D01*
G37*
X130801468Y-150120876D02*
X130935974Y-150184847D01*
X130945331Y-150189663D01*
X131056062Y-150261988D01*
X131114900Y-150359016D01*
X131142017Y-150523286D01*
X131148553Y-150618288D01*
X131167750Y-150951750D01*
X131628125Y-150970406D01*
X131865294Y-150977955D01*
X132002771Y-150971358D01*
X132067708Y-150942748D01*
X132087257Y-150884257D01*
X132088500Y-150837007D01*
X132118973Y-150614788D01*
X132196888Y-150403561D01*
X132301988Y-150252038D01*
X132345004Y-150220159D01*
X132446916Y-150198508D01*
X132650564Y-150180139D01*
X132930702Y-150166488D01*
X133262078Y-150158991D01*
X133437601Y-150158000D01*
X133813892Y-150159272D01*
X134084707Y-150164755D01*
X134271560Y-150176944D01*
X134395963Y-150198338D01*
X134479429Y-150231433D01*
X134543471Y-150278727D01*
X134553026Y-150287473D01*
X134635683Y-150390669D01*
X134678134Y-150529409D01*
X134691738Y-150745211D01*
X134691999Y-150795473D01*
X134675733Y-151069796D01*
X134613648Y-151252908D01*
X134485816Y-151362111D01*
X134272307Y-151414705D01*
X133963380Y-151428000D01*
X133719734Y-151425475D01*
X133570535Y-151410789D01*
X133483239Y-151373273D01*
X133425303Y-151302260D01*
X133391880Y-151240653D01*
X133325584Y-151102942D01*
X133295204Y-151021072D01*
X133295000Y-151018403D01*
X133353088Y-151001063D01*
X133505747Y-150988569D01*
X133720567Y-150983511D01*
X133731724Y-150983500D01*
X134034458Y-150965045D01*
X134224575Y-150911004D01*
X134298497Y-150823357D01*
X134252649Y-150704086D01*
X134247500Y-150697750D01*
X134180058Y-150652874D01*
X134052604Y-150623823D01*
X133843812Y-150607939D01*
X133532357Y-150602565D01*
X133482918Y-150602500D01*
X133191859Y-150605935D01*
X132941909Y-150615222D01*
X132764238Y-150628832D01*
X132696943Y-150641043D01*
X132628376Y-150715149D01*
X132598835Y-150882626D01*
X132596500Y-150977593D01*
X132581136Y-151171869D01*
X132542331Y-151316993D01*
X132520299Y-151351800D01*
X132419772Y-151388684D01*
X132202023Y-151413319D01*
X131863477Y-151426002D01*
X131606343Y-151428000D01*
X131257675Y-151425841D01*
X131016018Y-151417841D01*
X130861435Y-151401716D01*
X130773988Y-151375179D01*
X130733739Y-151335945D01*
X130730043Y-151327556D01*
X130712704Y-151224896D01*
X130700593Y-151042787D01*
X130693806Y-150814300D01*
X130692441Y-150572508D01*
X130696597Y-150350483D01*
X130706370Y-150181299D01*
X130721858Y-150098027D01*
X130726403Y-150094500D01*
X130801468Y-150120876D01*
G36*
X134652604Y-143322960D02*
X134685046Y-143397132D01*
X134692000Y-143548511D01*
X134693949Y-143640476D01*
X134689507Y-143710623D01*
X134663239Y-143764162D01*
X134599708Y-143806304D01*
X134483479Y-143842257D01*
X134299117Y-143877232D01*
X134031187Y-143916440D01*
X133664252Y-143965089D01*
X133326750Y-144009329D01*
X132247250Y-144151750D01*
X133469625Y-144311098D01*
X134692000Y-144470445D01*
X134692000Y-144710722D01*
X134684129Y-144867270D01*
X134639069Y-144933319D01*
X134524643Y-144945271D01*
X134485625Y-144944212D01*
X134369740Y-144932723D01*
X134146975Y-144903737D01*
X133835837Y-144859926D01*
X133454835Y-144803959D01*
X133022475Y-144738509D01*
X132557267Y-144666245D01*
X132533000Y-144662426D01*
X132076638Y-144590681D01*
X131661379Y-144525631D01*
X131303723Y-144469844D01*
X131020166Y-144425883D01*
X130827209Y-144396316D01*
X130741349Y-144383707D01*
X130739125Y-144383463D01*
X130699478Y-144326820D01*
X130692534Y-144202131D01*
X130714336Y-144062943D01*
X130760929Y-143962805D01*
X130770875Y-143953635D01*
X130852074Y-143929045D01*
X131042375Y-143889347D01*
X131325164Y-143837450D01*
X131683828Y-143776262D01*
X132101751Y-143708690D01*
X132562321Y-143637643D01*
X132660000Y-143622987D01*
X133129050Y-143552474D01*
X133560638Y-143486689D01*
X133937786Y-143428292D01*
X134243516Y-143379943D01*
X134460849Y-143344300D01*
X134572808Y-143324023D01*
X134580875Y-143322098D01*
X134652604Y-143322960D01*
X134652604Y-143322960D01*
G37*
X134652604Y-143322960D02*
X134685046Y-143397132D01*
X134692000Y-143548511D01*
X134693949Y-143640476D01*
X134689507Y-143710623D01*
X134663239Y-143764162D01*
X134599708Y-143806304D01*
X134483479Y-143842257D01*
X134299117Y-143877232D01*
X134031187Y-143916440D01*
X133664252Y-143965089D01*
X133326750Y-144009329D01*
X132247250Y-144151750D01*
X133469625Y-144311098D01*
X134692000Y-144470445D01*
X134692000Y-144710722D01*
X134684129Y-144867270D01*
X134639069Y-144933319D01*
X134524643Y-144945271D01*
X134485625Y-144944212D01*
X134369740Y-144932723D01*
X134146975Y-144903737D01*
X133835837Y-144859926D01*
X133454835Y-144803959D01*
X133022475Y-144738509D01*
X132557267Y-144666245D01*
X132533000Y-144662426D01*
X132076638Y-144590681D01*
X131661379Y-144525631D01*
X131303723Y-144469844D01*
X131020166Y-144425883D01*
X130827209Y-144396316D01*
X130741349Y-144383707D01*
X130739125Y-144383463D01*
X130699478Y-144326820D01*
X130692534Y-144202131D01*
X130714336Y-144062943D01*
X130760929Y-143962805D01*
X130770875Y-143953635D01*
X130852074Y-143929045D01*
X131042375Y-143889347D01*
X131325164Y-143837450D01*
X131683828Y-143776262D01*
X132101751Y-143708690D01*
X132562321Y-143637643D01*
X132660000Y-143622987D01*
X133129050Y-143552474D01*
X133560638Y-143486689D01*
X133937786Y-143428292D01*
X134243516Y-143379943D01*
X134460849Y-143344300D01*
X134572808Y-143324023D01*
X134580875Y-143322098D01*
X134652604Y-143322960D01*
G36*
X130897874Y-136851998D02*
X131019984Y-136914660D01*
X131086863Y-136998139D01*
X131121322Y-137143199D01*
X131136000Y-137277558D01*
X131167750Y-137616750D01*
X132071078Y-137653712D01*
X132106334Y-137390864D01*
X132165364Y-137178825D01*
X132265372Y-136998234D01*
X132284863Y-136975508D01*
X132343912Y-136917884D01*
X132409508Y-136876970D01*
X132502962Y-136849907D01*
X132645584Y-136833839D01*
X132858687Y-136825906D01*
X133163580Y-136823250D01*
X133421999Y-136823000D01*
X133798710Y-136823840D01*
X134069659Y-136828199D01*
X134256083Y-136838835D01*
X134379217Y-136858504D01*
X134460298Y-136889964D01*
X134520562Y-136935972D01*
X134553931Y-136969967D01*
X134640247Y-137095143D01*
X134682163Y-137260894D01*
X134691999Y-137477967D01*
X134674567Y-137746119D01*
X134609125Y-137924901D01*
X134475962Y-138031097D01*
X134255363Y-138081489D01*
X133969525Y-138093000D01*
X133699144Y-138085570D01*
X133526042Y-138054065D01*
X133420913Y-137984656D01*
X133354448Y-137863515D01*
X133330242Y-137791375D01*
X133313911Y-137716590D01*
X133339031Y-137673863D01*
X133430508Y-137654233D01*
X133613248Y-137648744D01*
X133727445Y-137648500D01*
X134032288Y-137630190D01*
X134223758Y-137576470D01*
X134298562Y-137489148D01*
X134253403Y-137370035D01*
X134247500Y-137362750D01*
X134149972Y-137320370D01*
X133958524Y-137289150D01*
X133705780Y-137269485D01*
X133424364Y-137261768D01*
X133146897Y-137266396D01*
X132906005Y-137283761D01*
X132734309Y-137314260D01*
X132672700Y-137343699D01*
X132622071Y-137454351D01*
X132597065Y-137626711D01*
X132596500Y-137656006D01*
X132594459Y-137824061D01*
X132575697Y-137942353D01*
X132521254Y-138019614D01*
X132412170Y-138064579D01*
X132229485Y-138085980D01*
X131954239Y-138092552D01*
X131647789Y-138093000D01*
X131327110Y-138090071D01*
X131053178Y-138082039D01*
X130850446Y-138070038D01*
X130743368Y-138055200D01*
X130733833Y-138050666D01*
X130715760Y-137972759D01*
X130701534Y-137797562D01*
X130693048Y-137554772D01*
X130691500Y-137386982D01*
X130691500Y-136765630D01*
X130897874Y-136851998D01*
X130897874Y-136851998D01*
G37*
X130897874Y-136851998D02*
X131019984Y-136914660D01*
X131086863Y-136998139D01*
X131121322Y-137143199D01*
X131136000Y-137277558D01*
X131167750Y-137616750D01*
X132071078Y-137653712D01*
X132106334Y-137390864D01*
X132165364Y-137178825D01*
X132265372Y-136998234D01*
X132284863Y-136975508D01*
X132343912Y-136917884D01*
X132409508Y-136876970D01*
X132502962Y-136849907D01*
X132645584Y-136833839D01*
X132858687Y-136825906D01*
X133163580Y-136823250D01*
X133421999Y-136823000D01*
X133798710Y-136823840D01*
X134069659Y-136828199D01*
X134256083Y-136838835D01*
X134379217Y-136858504D01*
X134460298Y-136889964D01*
X134520562Y-136935972D01*
X134553931Y-136969967D01*
X134640247Y-137095143D01*
X134682163Y-137260894D01*
X134691999Y-137477967D01*
X134674567Y-137746119D01*
X134609125Y-137924901D01*
X134475962Y-138031097D01*
X134255363Y-138081489D01*
X133969525Y-138093000D01*
X133699144Y-138085570D01*
X133526042Y-138054065D01*
X133420913Y-137984656D01*
X133354448Y-137863515D01*
X133330242Y-137791375D01*
X133313911Y-137716590D01*
X133339031Y-137673863D01*
X133430508Y-137654233D01*
X133613248Y-137648744D01*
X133727445Y-137648500D01*
X134032288Y-137630190D01*
X134223758Y-137576470D01*
X134298562Y-137489148D01*
X134253403Y-137370035D01*
X134247500Y-137362750D01*
X134149972Y-137320370D01*
X133958524Y-137289150D01*
X133705780Y-137269485D01*
X133424364Y-137261768D01*
X133146897Y-137266396D01*
X132906005Y-137283761D01*
X132734309Y-137314260D01*
X132672700Y-137343699D01*
X132622071Y-137454351D01*
X132597065Y-137626711D01*
X132596500Y-137656006D01*
X132594459Y-137824061D01*
X132575697Y-137942353D01*
X132521254Y-138019614D01*
X132412170Y-138064579D01*
X132229485Y-138085980D01*
X131954239Y-138092552D01*
X131647789Y-138093000D01*
X131327110Y-138090071D01*
X131053178Y-138082039D01*
X130850446Y-138070038D01*
X130743368Y-138055200D01*
X130733833Y-138050666D01*
X130715760Y-137972759D01*
X130701534Y-137797562D01*
X130693048Y-137554772D01*
X130691500Y-137386982D01*
X130691500Y-136765630D01*
X130897874Y-136851998D01*
G36*
X134660250Y-131012750D02*
X132945750Y-131029504D01*
X132432812Y-131035009D01*
X132032001Y-131041069D01*
X131728443Y-131048826D01*
X131507266Y-131059423D01*
X131353597Y-131074001D01*
X131252563Y-131093705D01*
X131189292Y-131119675D01*
X131148912Y-131153055D01*
X131136000Y-131168529D01*
X131001928Y-131276539D01*
X130866125Y-131333284D01*
X130762144Y-131352309D01*
X130710706Y-131324005D01*
X130693319Y-131219864D01*
X130691500Y-131064083D01*
X130706193Y-130865951D01*
X130743488Y-130716634D01*
X130767700Y-130676200D01*
X130829580Y-130652717D01*
X130969248Y-130634025D01*
X131195721Y-130619781D01*
X131518014Y-130609641D01*
X131945145Y-130603264D01*
X132486129Y-130600306D01*
X132771973Y-130600000D01*
X134700046Y-130600000D01*
X134660250Y-131012750D01*
X134660250Y-131012750D01*
G37*
X134660250Y-131012750D02*
X132945750Y-131029504D01*
X132432812Y-131035009D01*
X132032001Y-131041069D01*
X131728443Y-131048826D01*
X131507266Y-131059423D01*
X131353597Y-131074001D01*
X131252563Y-131093705D01*
X131189292Y-131119675D01*
X131148912Y-131153055D01*
X131136000Y-131168529D01*
X131001928Y-131276539D01*
X130866125Y-131333284D01*
X130762144Y-131352309D01*
X130710706Y-131324005D01*
X130693319Y-131219864D01*
X130691500Y-131064083D01*
X130706193Y-130865951D01*
X130743488Y-130716634D01*
X130767700Y-130676200D01*
X130829580Y-130652717D01*
X130969248Y-130634025D01*
X131195721Y-130619781D01*
X131518014Y-130609641D01*
X131945145Y-130603264D01*
X132486129Y-130600306D01*
X132771973Y-130600000D01*
X134700046Y-130600000D01*
X134660250Y-131012750D01*
G36*
X134390375Y-123459742D02*
X134525250Y-123510936D01*
X134612712Y-123582374D01*
X134662894Y-123699796D01*
X134685925Y-123888941D01*
X134691939Y-124175547D01*
X134692000Y-124226025D01*
X134692000Y-124821500D01*
X134304529Y-124821500D01*
X134136533Y-124815159D01*
X133973344Y-124790884D01*
X133789047Y-124740791D01*
X133557731Y-124656997D01*
X133253483Y-124531620D01*
X133018654Y-124430327D01*
X132642227Y-124270090D01*
X132351994Y-124156988D01*
X132120083Y-124082315D01*
X131918625Y-124037361D01*
X131719748Y-124013418D01*
X131673837Y-124010123D01*
X131422594Y-124000109D01*
X131266040Y-124013102D01*
X131173253Y-124053387D01*
X131142186Y-124083795D01*
X131096023Y-124205266D01*
X131164974Y-124304009D01*
X131337791Y-124369997D01*
X131485277Y-124389602D01*
X131760936Y-124408750D01*
X131673783Y-124615125D01*
X131612008Y-124737910D01*
X131534288Y-124798914D01*
X131398287Y-124819564D01*
X131266065Y-124821500D01*
X131026124Y-124802197D01*
X130868208Y-124736703D01*
X130818500Y-124694500D01*
X130740339Y-124581692D01*
X130701335Y-124419130D01*
X130691500Y-124191108D01*
X130698575Y-123969551D01*
X130729153Y-123832058D01*
X130797258Y-123736045D01*
X130858813Y-123683108D01*
X130961778Y-123617683D01*
X131088623Y-123577843D01*
X131272007Y-123557755D01*
X131544591Y-123551585D01*
X131595590Y-123551500D01*
X131811028Y-123553101D01*
X131984746Y-123562788D01*
X132143689Y-123587886D01*
X132314802Y-123635719D01*
X132525033Y-123713611D01*
X132801325Y-123828887D01*
X133114022Y-123964250D01*
X133439872Y-124103609D01*
X133729116Y-124222870D01*
X133959975Y-124313401D01*
X134110670Y-124366567D01*
X134155245Y-124377000D01*
X134204069Y-124349706D01*
X134232796Y-124253162D01*
X134245649Y-124065368D01*
X134247500Y-123896470D01*
X134249290Y-123653652D01*
X134259923Y-123513713D01*
X134287288Y-123452534D01*
X134339276Y-123445999D01*
X134390375Y-123459742D01*
X134390375Y-123459742D01*
G37*
X134390375Y-123459742D02*
X134525250Y-123510936D01*
X134612712Y-123582374D01*
X134662894Y-123699796D01*
X134685925Y-123888941D01*
X134691939Y-124175547D01*
X134692000Y-124226025D01*
X134692000Y-124821500D01*
X134304529Y-124821500D01*
X134136533Y-124815159D01*
X133973344Y-124790884D01*
X133789047Y-124740791D01*
X133557731Y-124656997D01*
X133253483Y-124531620D01*
X133018654Y-124430327D01*
X132642227Y-124270090D01*
X132351994Y-124156988D01*
X132120083Y-124082315D01*
X131918625Y-124037361D01*
X131719748Y-124013418D01*
X131673837Y-124010123D01*
X131422594Y-124000109D01*
X131266040Y-124013102D01*
X131173253Y-124053387D01*
X131142186Y-124083795D01*
X131096023Y-124205266D01*
X131164974Y-124304009D01*
X131337791Y-124369997D01*
X131485277Y-124389602D01*
X131760936Y-124408750D01*
X131673783Y-124615125D01*
X131612008Y-124737910D01*
X131534288Y-124798914D01*
X131398287Y-124819564D01*
X131266065Y-124821500D01*
X131026124Y-124802197D01*
X130868208Y-124736703D01*
X130818500Y-124694500D01*
X130740339Y-124581692D01*
X130701335Y-124419130D01*
X130691500Y-124191108D01*
X130698575Y-123969551D01*
X130729153Y-123832058D01*
X130797258Y-123736045D01*
X130858813Y-123683108D01*
X130961778Y-123617683D01*
X131088623Y-123577843D01*
X131272007Y-123557755D01*
X131544591Y-123551585D01*
X131595590Y-123551500D01*
X131811028Y-123553101D01*
X131984746Y-123562788D01*
X132143689Y-123587886D01*
X132314802Y-123635719D01*
X132525033Y-123713611D01*
X132801325Y-123828887D01*
X133114022Y-123964250D01*
X133439872Y-124103609D01*
X133729116Y-124222870D01*
X133959975Y-124313401D01*
X134110670Y-124366567D01*
X134155245Y-124377000D01*
X134204069Y-124349706D01*
X134232796Y-124253162D01*
X134245649Y-124065368D01*
X134247500Y-123896470D01*
X134249290Y-123653652D01*
X134259923Y-123513713D01*
X134287288Y-123452534D01*
X134339276Y-123445999D01*
X134390375Y-123459742D01*
G36*
X134420832Y-116635544D02*
X134543999Y-116692618D01*
X134622726Y-116768832D01*
X134666891Y-116891258D01*
X134686370Y-117086966D01*
X134691027Y-117376125D01*
X134692000Y-117900000D01*
X132734083Y-117900000D01*
X132247577Y-117898675D01*
X131802424Y-117894926D01*
X131414379Y-117889084D01*
X131099196Y-117881483D01*
X130872630Y-117872456D01*
X130750435Y-117862338D01*
X130733833Y-117857666D01*
X130715869Y-117782173D01*
X130702791Y-117618553D01*
X130694800Y-117400074D01*
X130692096Y-117160006D01*
X130694882Y-116931620D01*
X130703358Y-116748185D01*
X130717726Y-116642971D01*
X130726403Y-116630000D01*
X130801482Y-116656374D01*
X130935932Y-116720323D01*
X130944989Y-116724985D01*
X131068517Y-116812084D01*
X131128169Y-116936395D01*
X131148210Y-117090110D01*
X131167750Y-117360250D01*
X131755125Y-117378507D01*
X132342500Y-117396765D01*
X132342500Y-117108632D01*
X132355803Y-116915713D01*
X132408192Y-116833456D01*
X132518386Y-116847167D01*
X132616549Y-116893506D01*
X132778984Y-117012627D01*
X132844130Y-117167369D01*
X132849527Y-117249125D01*
X132855233Y-117311526D01*
X132886079Y-117352468D01*
X132964185Y-117376467D01*
X133111670Y-117388043D01*
X133350651Y-117391713D01*
X133549000Y-117392000D01*
X134247500Y-117392000D01*
X134247500Y-116980821D01*
X134247499Y-116569643D01*
X134420832Y-116635544D01*
X134420832Y-116635544D01*
G37*
X134420832Y-116635544D02*
X134543999Y-116692618D01*
X134622726Y-116768832D01*
X134666891Y-116891258D01*
X134686370Y-117086966D01*
X134691027Y-117376125D01*
X134692000Y-117900000D01*
X132734083Y-117900000D01*
X132247577Y-117898675D01*
X131802424Y-117894926D01*
X131414379Y-117889084D01*
X131099196Y-117881483D01*
X130872630Y-117872456D01*
X130750435Y-117862338D01*
X130733833Y-117857666D01*
X130715869Y-117782173D01*
X130702791Y-117618553D01*
X130694800Y-117400074D01*
X130692096Y-117160006D01*
X130694882Y-116931620D01*
X130703358Y-116748185D01*
X130717726Y-116642971D01*
X130726403Y-116630000D01*
X130801482Y-116656374D01*
X130935932Y-116720323D01*
X130944989Y-116724985D01*
X131068517Y-116812084D01*
X131128169Y-116936395D01*
X131148210Y-117090110D01*
X131167750Y-117360250D01*
X131755125Y-117378507D01*
X132342500Y-117396765D01*
X132342500Y-117108632D01*
X132355803Y-116915713D01*
X132408192Y-116833456D01*
X132518386Y-116847167D01*
X132616549Y-116893506D01*
X132778984Y-117012627D01*
X132844130Y-117167369D01*
X132849527Y-117249125D01*
X132855233Y-117311526D01*
X132886079Y-117352468D01*
X132964185Y-117376467D01*
X133111670Y-117388043D01*
X133350651Y-117391713D01*
X133549000Y-117392000D01*
X134247500Y-117392000D01*
X134247500Y-116980821D01*
X134247499Y-116569643D01*
X134420832Y-116635544D01*
G36*
X134494009Y-109896182D02*
X134550870Y-109934350D01*
X134620525Y-109995608D01*
X134662695Y-110079580D01*
X134684103Y-110216516D01*
X134691472Y-110436666D01*
X134692000Y-110569350D01*
X134692000Y-111105500D01*
X132734083Y-111105500D01*
X132247577Y-111104175D01*
X131802424Y-111100426D01*
X131414379Y-111094584D01*
X131099196Y-111086983D01*
X130872630Y-111077956D01*
X130750435Y-111067838D01*
X130733833Y-111063166D01*
X130710801Y-110981492D01*
X130696932Y-110814816D01*
X130691693Y-110597286D01*
X130694550Y-110363051D01*
X130704971Y-110146260D01*
X130722421Y-109981060D01*
X130746368Y-109901599D01*
X130752012Y-109899000D01*
X130850649Y-109923348D01*
X130971141Y-109971270D01*
X131074394Y-110041755D01*
X131127254Y-110158202D01*
X131148753Y-110336395D01*
X131167750Y-110629250D01*
X131755125Y-110647507D01*
X132342500Y-110665765D01*
X132342500Y-110345882D01*
X132351008Y-110164009D01*
X132372778Y-110048242D01*
X132390125Y-110026237D01*
X132470801Y-110056724D01*
X132609857Y-110131795D01*
X132644125Y-110152304D01*
X132792320Y-110271498D01*
X132847455Y-110410755D01*
X132850500Y-110469566D01*
X132850500Y-110661000D01*
X134247500Y-110661000D01*
X134247500Y-110248250D01*
X134256951Y-110001866D01*
X134293245Y-109869276D01*
X134368294Y-109838157D01*
X134494009Y-109896182D01*
X134494009Y-109896182D01*
G37*
X134494009Y-109896182D02*
X134550870Y-109934350D01*
X134620525Y-109995608D01*
X134662695Y-110079580D01*
X134684103Y-110216516D01*
X134691472Y-110436666D01*
X134692000Y-110569350D01*
X134692000Y-111105500D01*
X132734083Y-111105500D01*
X132247577Y-111104175D01*
X131802424Y-111100426D01*
X131414379Y-111094584D01*
X131099196Y-111086983D01*
X130872630Y-111077956D01*
X130750435Y-111067838D01*
X130733833Y-111063166D01*
X130710801Y-110981492D01*
X130696932Y-110814816D01*
X130691693Y-110597286D01*
X130694550Y-110363051D01*
X130704971Y-110146260D01*
X130722421Y-109981060D01*
X130746368Y-109901599D01*
X130752012Y-109899000D01*
X130850649Y-109923348D01*
X130971141Y-109971270D01*
X131074394Y-110041755D01*
X131127254Y-110158202D01*
X131148753Y-110336395D01*
X131167750Y-110629250D01*
X131755125Y-110647507D01*
X132342500Y-110665765D01*
X132342500Y-110345882D01*
X132351008Y-110164009D01*
X132372778Y-110048242D01*
X132390125Y-110026237D01*
X132470801Y-110056724D01*
X132609857Y-110131795D01*
X132644125Y-110152304D01*
X132792320Y-110271498D01*
X132847455Y-110410755D01*
X132850500Y-110469566D01*
X132850500Y-110661000D01*
X134247500Y-110661000D01*
X134247500Y-110248250D01*
X134256951Y-110001866D01*
X134293245Y-109869276D01*
X134368294Y-109838157D01*
X134494009Y-109896182D01*
D12*
X132180000Y-71400000D03*
M02*
