G04 #@! TF.FileFunction,Soldermask,Bot*
%FSLAX46Y46*%
G04 Gerber Fmt 4.6, Leading zero omitted, Abs format (unit mm)*
G04 Created by KiCad (PCBNEW 4.0.5) date Saturday, July 08, 2017 'AMt' 10:12:31 AM*
%MOMM*%
%LPD*%
G01*
G04 APERTURE LIST*
%ADD10C,0.100000*%
%ADD11C,0.010000*%
%ADD12C,4.400000*%
G04 APERTURE END LIST*
D10*
D11*
G36*
X130888875Y-81523351D02*
X131095250Y-81543250D01*
X131112042Y-83495875D01*
X131128835Y-85448500D01*
X130682500Y-85448500D01*
X130682500Y-81503454D01*
X130888875Y-81523351D01*
X130888875Y-81523351D01*
G37*
X130888875Y-81523351D02*
X131095250Y-81543250D01*
X131112042Y-83495875D01*
X131128835Y-85448500D01*
X130682500Y-85448500D01*
X130682500Y-81503454D01*
X130888875Y-81523351D01*
G36*
X133921000Y-85448500D02*
X133476500Y-85448500D01*
X133476500Y-81511500D01*
X133921000Y-81511500D01*
X133921000Y-85448500D01*
X133921000Y-85448500D01*
G37*
X133921000Y-85448500D02*
X133476500Y-85448500D01*
X133476500Y-81511500D01*
X133921000Y-81511500D01*
X133921000Y-85448500D01*
G36*
X118025037Y-88497878D02*
X118065917Y-88502925D01*
X118097773Y-88512821D01*
X118124475Y-88528782D01*
X118149890Y-88552024D01*
X118150668Y-88552841D01*
X118159779Y-88562365D01*
X118167689Y-88571216D01*
X118174483Y-88580597D01*
X118180245Y-88591710D01*
X118185060Y-88605760D01*
X118189014Y-88623950D01*
X118192190Y-88647482D01*
X118194675Y-88677561D01*
X118196552Y-88715390D01*
X118197906Y-88762172D01*
X118198822Y-88819110D01*
X118199385Y-88887408D01*
X118199680Y-88968268D01*
X118199792Y-89062896D01*
X118199805Y-89172492D01*
X118199800Y-89250000D01*
X118199806Y-89369640D01*
X118199768Y-89473551D01*
X118199600Y-89562938D01*
X118199218Y-89639005D01*
X118198536Y-89702958D01*
X118197471Y-89756001D01*
X118195937Y-89799337D01*
X118193849Y-89834173D01*
X118191123Y-89861712D01*
X118187673Y-89883160D01*
X118183415Y-89899720D01*
X118178264Y-89912597D01*
X118172135Y-89922997D01*
X118164943Y-89932123D01*
X118156604Y-89941180D01*
X118150668Y-89947451D01*
X118124786Y-89970792D01*
X118095962Y-89986931D01*
X118060618Y-89996951D01*
X118015177Y-90001933D01*
X117966967Y-90003016D01*
X117912131Y-90001633D01*
X117872247Y-89997554D01*
X117845519Y-89990589D01*
X117844200Y-89990035D01*
X117800276Y-89962454D01*
X117763903Y-89922674D01*
X117750291Y-89900154D01*
X117746116Y-89891096D01*
X117742726Y-89880617D01*
X117740040Y-89866961D01*
X117737977Y-89848371D01*
X117736456Y-89823089D01*
X117735395Y-89789359D01*
X117734714Y-89745423D01*
X117734331Y-89689526D01*
X117734165Y-89619909D01*
X117734134Y-89550519D01*
X117734134Y-89232297D01*
X117754915Y-89211515D01*
X117764080Y-89203140D01*
X117773999Y-89197382D01*
X117787846Y-89193751D01*
X117808796Y-89191758D01*
X117840023Y-89190916D01*
X117884702Y-89190734D01*
X117889851Y-89190733D01*
X118004005Y-89190733D01*
X117978424Y-89247151D01*
X117958762Y-89288790D01*
X117943076Y-89317200D01*
X117929474Y-89335036D01*
X117916061Y-89344953D01*
X117906171Y-89348507D01*
X117885552Y-89353682D01*
X117888160Y-89585296D01*
X117890767Y-89816910D01*
X117913819Y-89839948D01*
X117942928Y-89859194D01*
X117974205Y-89863570D01*
X118003681Y-89853086D01*
X118018864Y-89839654D01*
X118038934Y-89816322D01*
X118038934Y-88683677D01*
X118019884Y-88662030D01*
X117998310Y-88645046D01*
X117974394Y-88635315D01*
X117954238Y-88634397D01*
X117936013Y-88642365D01*
X117919360Y-88655781D01*
X117890767Y-88681314D01*
X117888066Y-88867495D01*
X117885366Y-89053675D01*
X117828800Y-89028553D01*
X117798290Y-89014773D01*
X117775159Y-89002442D01*
X117758386Y-88989053D01*
X117746948Y-88972101D01*
X117739825Y-88949080D01*
X117735996Y-88917483D01*
X117734439Y-88874804D01*
X117734134Y-88818537D01*
X117734134Y-88796224D01*
X117734471Y-88732285D01*
X117735881Y-88682629D01*
X117738957Y-88644612D01*
X117744294Y-88615590D01*
X117752487Y-88592921D01*
X117764130Y-88573959D01*
X117779819Y-88556062D01*
X117790508Y-88545599D01*
X117815917Y-88525014D01*
X117843792Y-88510810D01*
X117877815Y-88501988D01*
X117921668Y-88497546D01*
X117971266Y-88496467D01*
X118025037Y-88497878D01*
X118025037Y-88497878D01*
G37*
X118025037Y-88497878D02*
X118065917Y-88502925D01*
X118097773Y-88512821D01*
X118124475Y-88528782D01*
X118149890Y-88552024D01*
X118150668Y-88552841D01*
X118159779Y-88562365D01*
X118167689Y-88571216D01*
X118174483Y-88580597D01*
X118180245Y-88591710D01*
X118185060Y-88605760D01*
X118189014Y-88623950D01*
X118192190Y-88647482D01*
X118194675Y-88677561D01*
X118196552Y-88715390D01*
X118197906Y-88762172D01*
X118198822Y-88819110D01*
X118199385Y-88887408D01*
X118199680Y-88968268D01*
X118199792Y-89062896D01*
X118199805Y-89172492D01*
X118199800Y-89250000D01*
X118199806Y-89369640D01*
X118199768Y-89473551D01*
X118199600Y-89562938D01*
X118199218Y-89639005D01*
X118198536Y-89702958D01*
X118197471Y-89756001D01*
X118195937Y-89799337D01*
X118193849Y-89834173D01*
X118191123Y-89861712D01*
X118187673Y-89883160D01*
X118183415Y-89899720D01*
X118178264Y-89912597D01*
X118172135Y-89922997D01*
X118164943Y-89932123D01*
X118156604Y-89941180D01*
X118150668Y-89947451D01*
X118124786Y-89970792D01*
X118095962Y-89986931D01*
X118060618Y-89996951D01*
X118015177Y-90001933D01*
X117966967Y-90003016D01*
X117912131Y-90001633D01*
X117872247Y-89997554D01*
X117845519Y-89990589D01*
X117844200Y-89990035D01*
X117800276Y-89962454D01*
X117763903Y-89922674D01*
X117750291Y-89900154D01*
X117746116Y-89891096D01*
X117742726Y-89880617D01*
X117740040Y-89866961D01*
X117737977Y-89848371D01*
X117736456Y-89823089D01*
X117735395Y-89789359D01*
X117734714Y-89745423D01*
X117734331Y-89689526D01*
X117734165Y-89619909D01*
X117734134Y-89550519D01*
X117734134Y-89232297D01*
X117754915Y-89211515D01*
X117764080Y-89203140D01*
X117773999Y-89197382D01*
X117787846Y-89193751D01*
X117808796Y-89191758D01*
X117840023Y-89190916D01*
X117884702Y-89190734D01*
X117889851Y-89190733D01*
X118004005Y-89190733D01*
X117978424Y-89247151D01*
X117958762Y-89288790D01*
X117943076Y-89317200D01*
X117929474Y-89335036D01*
X117916061Y-89344953D01*
X117906171Y-89348507D01*
X117885552Y-89353682D01*
X117888160Y-89585296D01*
X117890767Y-89816910D01*
X117913819Y-89839948D01*
X117942928Y-89859194D01*
X117974205Y-89863570D01*
X118003681Y-89853086D01*
X118018864Y-89839654D01*
X118038934Y-89816322D01*
X118038934Y-88683677D01*
X118019884Y-88662030D01*
X117998310Y-88645046D01*
X117974394Y-88635315D01*
X117954238Y-88634397D01*
X117936013Y-88642365D01*
X117919360Y-88655781D01*
X117890767Y-88681314D01*
X117888066Y-88867495D01*
X117885366Y-89053675D01*
X117828800Y-89028553D01*
X117798290Y-89014773D01*
X117775159Y-89002442D01*
X117758386Y-88989053D01*
X117746948Y-88972101D01*
X117739825Y-88949080D01*
X117735996Y-88917483D01*
X117734439Y-88874804D01*
X117734134Y-88818537D01*
X117734134Y-88796224D01*
X117734471Y-88732285D01*
X117735881Y-88682629D01*
X117738957Y-88644612D01*
X117744294Y-88615590D01*
X117752487Y-88592921D01*
X117764130Y-88573959D01*
X117779819Y-88556062D01*
X117790508Y-88545599D01*
X117815917Y-88525014D01*
X117843792Y-88510810D01*
X117877815Y-88501988D01*
X117921668Y-88497546D01*
X117971266Y-88496467D01*
X118025037Y-88497878D01*
G36*
X120523909Y-88496321D02*
X120570071Y-88499374D01*
X120608773Y-88504885D01*
X120634039Y-88512257D01*
X120671536Y-88536445D01*
X120704188Y-88570497D01*
X120726939Y-88608754D01*
X120731375Y-88621209D01*
X120733355Y-88635067D01*
X120735017Y-88662215D01*
X120736364Y-88703108D01*
X120737403Y-88758199D01*
X120738138Y-88827939D01*
X120738573Y-88912782D01*
X120738713Y-89013182D01*
X120738563Y-89129590D01*
X120738128Y-89262460D01*
X120738107Y-89267556D01*
X120735567Y-89882013D01*
X120712211Y-89917301D01*
X120689746Y-89944600D01*
X120662058Y-89969843D01*
X120653604Y-89975944D01*
X120638489Y-89985383D01*
X120624231Y-89991943D01*
X120607293Y-89996223D01*
X120584139Y-89998823D01*
X120551232Y-90000343D01*
X120505036Y-90001381D01*
X120503393Y-90001411D01*
X120451733Y-90001853D01*
X120413827Y-90000830D01*
X120386538Y-89998104D01*
X120366731Y-89993434D01*
X120358800Y-89990361D01*
X120314244Y-89961949D01*
X120277676Y-89921474D01*
X120264891Y-89900154D01*
X120261827Y-89893608D01*
X120259176Y-89885926D01*
X120256909Y-89875906D01*
X120254995Y-89862346D01*
X120253405Y-89844044D01*
X120252109Y-89819797D01*
X120251077Y-89788403D01*
X120250278Y-89748661D01*
X120249685Y-89699368D01*
X120249265Y-89639322D01*
X120248990Y-89567320D01*
X120248830Y-89482162D01*
X120248754Y-89382644D01*
X120248734Y-89267564D01*
X120248734Y-89250000D01*
X120248734Y-89249258D01*
X120409600Y-89249258D01*
X120409632Y-89361835D01*
X120409748Y-89458696D01*
X120409975Y-89541056D01*
X120410343Y-89610131D01*
X120410879Y-89667139D01*
X120411612Y-89713296D01*
X120412570Y-89749818D01*
X120413781Y-89777921D01*
X120415275Y-89798821D01*
X120417079Y-89813736D01*
X120419221Y-89823881D01*
X120421730Y-89830473D01*
X120423206Y-89832924D01*
X120449253Y-89856584D01*
X120482548Y-89866700D01*
X120519236Y-89862514D01*
X120536770Y-89855279D01*
X120556986Y-89841296D01*
X120570216Y-89826202D01*
X120572200Y-89813829D01*
X120573933Y-89784708D01*
X120575415Y-89739027D01*
X120576640Y-89676968D01*
X120577607Y-89598718D01*
X120578313Y-89504462D01*
X120578755Y-89394383D01*
X120578930Y-89268668D01*
X120578934Y-89248207D01*
X120578949Y-89134356D01*
X120578928Y-89036229D01*
X120578772Y-88952615D01*
X120578379Y-88882307D01*
X120577649Y-88824093D01*
X120576483Y-88776765D01*
X120574780Y-88739113D01*
X120572440Y-88709928D01*
X120569363Y-88687999D01*
X120565449Y-88672118D01*
X120560597Y-88661075D01*
X120554708Y-88653660D01*
X120547680Y-88648664D01*
X120539415Y-88644877D01*
X120529811Y-88641090D01*
X120528612Y-88640598D01*
X120494055Y-88633903D01*
X120459763Y-88639982D01*
X120431811Y-88657496D01*
X120426900Y-88663023D01*
X120423482Y-88667706D01*
X120420546Y-88673247D01*
X120418056Y-88680891D01*
X120415976Y-88691883D01*
X120414268Y-88707469D01*
X120412896Y-88728892D01*
X120411823Y-88757399D01*
X120411012Y-88794234D01*
X120410427Y-88840641D01*
X120410031Y-88897867D01*
X120409787Y-88967155D01*
X120409658Y-89049752D01*
X120409608Y-89146901D01*
X120409600Y-89249258D01*
X120248734Y-89249258D01*
X120248749Y-89132627D01*
X120248815Y-89030986D01*
X120248961Y-88943873D01*
X120249218Y-88870088D01*
X120249616Y-88808427D01*
X120250183Y-88757689D01*
X120250950Y-88716672D01*
X120251948Y-88684173D01*
X120253205Y-88658990D01*
X120254752Y-88639921D01*
X120256618Y-88625765D01*
X120258834Y-88615318D01*
X120261429Y-88607379D01*
X120264433Y-88600746D01*
X120264891Y-88599846D01*
X120296575Y-88554940D01*
X120338491Y-88520852D01*
X120360645Y-88509616D01*
X120388654Y-88502373D01*
X120428401Y-88497773D01*
X120475086Y-88495772D01*
X120523909Y-88496321D01*
X120523909Y-88496321D01*
G37*
X120523909Y-88496321D02*
X120570071Y-88499374D01*
X120608773Y-88504885D01*
X120634039Y-88512257D01*
X120671536Y-88536445D01*
X120704188Y-88570497D01*
X120726939Y-88608754D01*
X120731375Y-88621209D01*
X120733355Y-88635067D01*
X120735017Y-88662215D01*
X120736364Y-88703108D01*
X120737403Y-88758199D01*
X120738138Y-88827939D01*
X120738573Y-88912782D01*
X120738713Y-89013182D01*
X120738563Y-89129590D01*
X120738128Y-89262460D01*
X120738107Y-89267556D01*
X120735567Y-89882013D01*
X120712211Y-89917301D01*
X120689746Y-89944600D01*
X120662058Y-89969843D01*
X120653604Y-89975944D01*
X120638489Y-89985383D01*
X120624231Y-89991943D01*
X120607293Y-89996223D01*
X120584139Y-89998823D01*
X120551232Y-90000343D01*
X120505036Y-90001381D01*
X120503393Y-90001411D01*
X120451733Y-90001853D01*
X120413827Y-90000830D01*
X120386538Y-89998104D01*
X120366731Y-89993434D01*
X120358800Y-89990361D01*
X120314244Y-89961949D01*
X120277676Y-89921474D01*
X120264891Y-89900154D01*
X120261827Y-89893608D01*
X120259176Y-89885926D01*
X120256909Y-89875906D01*
X120254995Y-89862346D01*
X120253405Y-89844044D01*
X120252109Y-89819797D01*
X120251077Y-89788403D01*
X120250278Y-89748661D01*
X120249685Y-89699368D01*
X120249265Y-89639322D01*
X120248990Y-89567320D01*
X120248830Y-89482162D01*
X120248754Y-89382644D01*
X120248734Y-89267564D01*
X120248734Y-89250000D01*
X120248734Y-89249258D01*
X120409600Y-89249258D01*
X120409632Y-89361835D01*
X120409748Y-89458696D01*
X120409975Y-89541056D01*
X120410343Y-89610131D01*
X120410879Y-89667139D01*
X120411612Y-89713296D01*
X120412570Y-89749818D01*
X120413781Y-89777921D01*
X120415275Y-89798821D01*
X120417079Y-89813736D01*
X120419221Y-89823881D01*
X120421730Y-89830473D01*
X120423206Y-89832924D01*
X120449253Y-89856584D01*
X120482548Y-89866700D01*
X120519236Y-89862514D01*
X120536770Y-89855279D01*
X120556986Y-89841296D01*
X120570216Y-89826202D01*
X120572200Y-89813829D01*
X120573933Y-89784708D01*
X120575415Y-89739027D01*
X120576640Y-89676968D01*
X120577607Y-89598718D01*
X120578313Y-89504462D01*
X120578755Y-89394383D01*
X120578930Y-89268668D01*
X120578934Y-89248207D01*
X120578949Y-89134356D01*
X120578928Y-89036229D01*
X120578772Y-88952615D01*
X120578379Y-88882307D01*
X120577649Y-88824093D01*
X120576483Y-88776765D01*
X120574780Y-88739113D01*
X120572440Y-88709928D01*
X120569363Y-88687999D01*
X120565449Y-88672118D01*
X120560597Y-88661075D01*
X120554708Y-88653660D01*
X120547680Y-88648664D01*
X120539415Y-88644877D01*
X120529811Y-88641090D01*
X120528612Y-88640598D01*
X120494055Y-88633903D01*
X120459763Y-88639982D01*
X120431811Y-88657496D01*
X120426900Y-88663023D01*
X120423482Y-88667706D01*
X120420546Y-88673247D01*
X120418056Y-88680891D01*
X120415976Y-88691883D01*
X120414268Y-88707469D01*
X120412896Y-88728892D01*
X120411823Y-88757399D01*
X120411012Y-88794234D01*
X120410427Y-88840641D01*
X120410031Y-88897867D01*
X120409787Y-88967155D01*
X120409658Y-89049752D01*
X120409608Y-89146901D01*
X120409600Y-89249258D01*
X120248734Y-89249258D01*
X120248749Y-89132627D01*
X120248815Y-89030986D01*
X120248961Y-88943873D01*
X120249218Y-88870088D01*
X120249616Y-88808427D01*
X120250183Y-88757689D01*
X120250950Y-88716672D01*
X120251948Y-88684173D01*
X120253205Y-88658990D01*
X120254752Y-88639921D01*
X120256618Y-88625765D01*
X120258834Y-88615318D01*
X120261429Y-88607379D01*
X120264433Y-88600746D01*
X120264891Y-88599846D01*
X120296575Y-88554940D01*
X120338491Y-88520852D01*
X120360645Y-88509616D01*
X120388654Y-88502373D01*
X120428401Y-88497773D01*
X120475086Y-88495772D01*
X120523909Y-88496321D01*
G36*
X124229350Y-88527299D02*
X124259605Y-88555455D01*
X124284605Y-88589790D01*
X124287333Y-88594797D01*
X124308500Y-88635697D01*
X124310839Y-89232018D01*
X124311308Y-89352901D01*
X124311641Y-89458055D01*
X124311748Y-89548687D01*
X124311536Y-89626003D01*
X124310913Y-89691207D01*
X124309790Y-89745506D01*
X124308073Y-89790104D01*
X124305672Y-89826208D01*
X124302495Y-89855022D01*
X124298450Y-89877754D01*
X124293446Y-89895607D01*
X124287393Y-89909787D01*
X124280197Y-89921500D01*
X124271768Y-89931952D01*
X124262014Y-89942348D01*
X124256509Y-89948007D01*
X124232525Y-89969352D01*
X124207447Y-89986681D01*
X124197313Y-89991847D01*
X124175831Y-89996910D01*
X124142250Y-90000495D01*
X124101315Y-90002556D01*
X124057767Y-90003048D01*
X124016350Y-90001927D01*
X123981808Y-89999148D01*
X123958882Y-89994666D01*
X123957387Y-89994113D01*
X123913389Y-89967947D01*
X123876983Y-89929140D01*
X123858444Y-89897189D01*
X123838000Y-89852534D01*
X123840417Y-89537812D01*
X123842834Y-89223089D01*
X123862821Y-89206911D01*
X123873001Y-89200235D01*
X123886229Y-89195666D01*
X123905666Y-89192821D01*
X123934471Y-89191317D01*
X123975802Y-89190770D01*
X123996171Y-89190733D01*
X124037769Y-89190963D01*
X124072505Y-89191594D01*
X124097284Y-89192536D01*
X124109006Y-89193699D01*
X124109534Y-89194016D01*
X124106254Y-89202728D01*
X124097581Y-89222770D01*
X124085265Y-89250121D01*
X124082846Y-89255399D01*
X124059264Y-89301586D01*
X124037792Y-89333207D01*
X124019021Y-89349472D01*
X124010691Y-89351600D01*
X124006925Y-89359628D01*
X124003841Y-89381983D01*
X124001432Y-89416073D01*
X123999691Y-89459307D01*
X123998613Y-89509092D01*
X123998191Y-89562837D01*
X123998420Y-89617949D01*
X123999293Y-89671837D01*
X124000804Y-89721907D01*
X124002947Y-89765570D01*
X124005715Y-89800232D01*
X124009103Y-89823301D01*
X124011830Y-89831149D01*
X124036721Y-89853814D01*
X124067989Y-89864037D01*
X124099970Y-89860032D01*
X124101466Y-89859434D01*
X124111228Y-89855415D01*
X124119641Y-89851222D01*
X124126805Y-89845644D01*
X124132821Y-89837470D01*
X124137790Y-89825488D01*
X124141810Y-89808488D01*
X124144983Y-89785258D01*
X124147408Y-89754587D01*
X124149186Y-89715263D01*
X124150416Y-89666076D01*
X124151200Y-89605814D01*
X124151637Y-89533265D01*
X124151827Y-89447219D01*
X124151870Y-89346464D01*
X124151867Y-89250000D01*
X124151869Y-89136010D01*
X124151808Y-89037742D01*
X124151585Y-88953985D01*
X124151098Y-88883528D01*
X124150248Y-88825159D01*
X124148935Y-88777666D01*
X124147058Y-88739840D01*
X124144518Y-88710468D01*
X124141213Y-88688339D01*
X124137045Y-88672242D01*
X124131912Y-88660966D01*
X124125715Y-88653299D01*
X124118353Y-88648030D01*
X124109727Y-88643948D01*
X124101466Y-88640565D01*
X124077490Y-88634179D01*
X124054786Y-88638602D01*
X124050548Y-88640284D01*
X124036048Y-88646757D01*
X124024873Y-88654098D01*
X124016532Y-88664478D01*
X124010532Y-88680068D01*
X124006380Y-88703038D01*
X124003585Y-88735558D01*
X124001654Y-88779800D01*
X124000096Y-88837934D01*
X123999467Y-88865540D01*
X123995234Y-89054259D01*
X123927412Y-89022366D01*
X123888652Y-89002520D01*
X123863758Y-88985582D01*
X123850300Y-88969849D01*
X123849096Y-88967438D01*
X123844481Y-88948174D01*
X123841211Y-88913338D01*
X123839259Y-88862496D01*
X123838600Y-88795211D01*
X123838600Y-88793920D01*
X123838689Y-88739836D01*
X123839196Y-88699631D01*
X123840484Y-88670250D01*
X123842915Y-88648640D01*
X123846851Y-88631745D01*
X123852654Y-88616512D01*
X123860686Y-88599885D01*
X123861884Y-88597520D01*
X123893005Y-88551735D01*
X123921880Y-88526152D01*
X123936974Y-88516030D01*
X123950317Y-88509025D01*
X123965374Y-88504565D01*
X123985613Y-88502075D01*
X124014498Y-88500980D01*
X124055495Y-88500707D01*
X124075563Y-88500700D01*
X124192534Y-88500700D01*
X124229350Y-88527299D01*
X124229350Y-88527299D01*
G37*
X124229350Y-88527299D02*
X124259605Y-88555455D01*
X124284605Y-88589790D01*
X124287333Y-88594797D01*
X124308500Y-88635697D01*
X124310839Y-89232018D01*
X124311308Y-89352901D01*
X124311641Y-89458055D01*
X124311748Y-89548687D01*
X124311536Y-89626003D01*
X124310913Y-89691207D01*
X124309790Y-89745506D01*
X124308073Y-89790104D01*
X124305672Y-89826208D01*
X124302495Y-89855022D01*
X124298450Y-89877754D01*
X124293446Y-89895607D01*
X124287393Y-89909787D01*
X124280197Y-89921500D01*
X124271768Y-89931952D01*
X124262014Y-89942348D01*
X124256509Y-89948007D01*
X124232525Y-89969352D01*
X124207447Y-89986681D01*
X124197313Y-89991847D01*
X124175831Y-89996910D01*
X124142250Y-90000495D01*
X124101315Y-90002556D01*
X124057767Y-90003048D01*
X124016350Y-90001927D01*
X123981808Y-89999148D01*
X123958882Y-89994666D01*
X123957387Y-89994113D01*
X123913389Y-89967947D01*
X123876983Y-89929140D01*
X123858444Y-89897189D01*
X123838000Y-89852534D01*
X123840417Y-89537812D01*
X123842834Y-89223089D01*
X123862821Y-89206911D01*
X123873001Y-89200235D01*
X123886229Y-89195666D01*
X123905666Y-89192821D01*
X123934471Y-89191317D01*
X123975802Y-89190770D01*
X123996171Y-89190733D01*
X124037769Y-89190963D01*
X124072505Y-89191594D01*
X124097284Y-89192536D01*
X124109006Y-89193699D01*
X124109534Y-89194016D01*
X124106254Y-89202728D01*
X124097581Y-89222770D01*
X124085265Y-89250121D01*
X124082846Y-89255399D01*
X124059264Y-89301586D01*
X124037792Y-89333207D01*
X124019021Y-89349472D01*
X124010691Y-89351600D01*
X124006925Y-89359628D01*
X124003841Y-89381983D01*
X124001432Y-89416073D01*
X123999691Y-89459307D01*
X123998613Y-89509092D01*
X123998191Y-89562837D01*
X123998420Y-89617949D01*
X123999293Y-89671837D01*
X124000804Y-89721907D01*
X124002947Y-89765570D01*
X124005715Y-89800232D01*
X124009103Y-89823301D01*
X124011830Y-89831149D01*
X124036721Y-89853814D01*
X124067989Y-89864037D01*
X124099970Y-89860032D01*
X124101466Y-89859434D01*
X124111228Y-89855415D01*
X124119641Y-89851222D01*
X124126805Y-89845644D01*
X124132821Y-89837470D01*
X124137790Y-89825488D01*
X124141810Y-89808488D01*
X124144983Y-89785258D01*
X124147408Y-89754587D01*
X124149186Y-89715263D01*
X124150416Y-89666076D01*
X124151200Y-89605814D01*
X124151637Y-89533265D01*
X124151827Y-89447219D01*
X124151870Y-89346464D01*
X124151867Y-89250000D01*
X124151869Y-89136010D01*
X124151808Y-89037742D01*
X124151585Y-88953985D01*
X124151098Y-88883528D01*
X124150248Y-88825159D01*
X124148935Y-88777666D01*
X124147058Y-88739840D01*
X124144518Y-88710468D01*
X124141213Y-88688339D01*
X124137045Y-88672242D01*
X124131912Y-88660966D01*
X124125715Y-88653299D01*
X124118353Y-88648030D01*
X124109727Y-88643948D01*
X124101466Y-88640565D01*
X124077490Y-88634179D01*
X124054786Y-88638602D01*
X124050548Y-88640284D01*
X124036048Y-88646757D01*
X124024873Y-88654098D01*
X124016532Y-88664478D01*
X124010532Y-88680068D01*
X124006380Y-88703038D01*
X124003585Y-88735558D01*
X124001654Y-88779800D01*
X124000096Y-88837934D01*
X123999467Y-88865540D01*
X123995234Y-89054259D01*
X123927412Y-89022366D01*
X123888652Y-89002520D01*
X123863758Y-88985582D01*
X123850300Y-88969849D01*
X123849096Y-88967438D01*
X123844481Y-88948174D01*
X123841211Y-88913338D01*
X123839259Y-88862496D01*
X123838600Y-88795211D01*
X123838600Y-88793920D01*
X123838689Y-88739836D01*
X123839196Y-88699631D01*
X123840484Y-88670250D01*
X123842915Y-88648640D01*
X123846851Y-88631745D01*
X123852654Y-88616512D01*
X123860686Y-88599885D01*
X123861884Y-88597520D01*
X123893005Y-88551735D01*
X123921880Y-88526152D01*
X123936974Y-88516030D01*
X123950317Y-88509025D01*
X123965374Y-88504565D01*
X123985613Y-88502075D01*
X124014498Y-88500980D01*
X124055495Y-88500707D01*
X124075563Y-88500700D01*
X124192534Y-88500700D01*
X124229350Y-88527299D01*
G36*
X131129696Y-88497795D02*
X131137061Y-88497959D01*
X131183905Y-88499194D01*
X131217309Y-88500762D01*
X131240767Y-88503302D01*
X131257769Y-88507457D01*
X131271808Y-88513867D01*
X131286376Y-88523172D01*
X131290691Y-88526152D01*
X131328162Y-88562001D01*
X131350650Y-88597520D01*
X131373933Y-88643436D01*
X131373933Y-89857666D01*
X131350283Y-89902938D01*
X131322498Y-89943855D01*
X131290324Y-89973755D01*
X131275444Y-89983832D01*
X131262034Y-89990898D01*
X131246686Y-89995564D01*
X131225995Y-89998435D01*
X131196554Y-90000122D01*
X131154957Y-90001230D01*
X131134058Y-90001650D01*
X131086394Y-90002441D01*
X131052183Y-90002349D01*
X131027951Y-90000943D01*
X131010224Y-89997789D01*
X130995527Y-89992455D01*
X130980386Y-89984511D01*
X130976000Y-89981995D01*
X130934808Y-89952708D01*
X130906620Y-89918236D01*
X130887510Y-89873754D01*
X130887240Y-89872880D01*
X130884680Y-89862565D01*
X130882474Y-89848667D01*
X130880598Y-89829969D01*
X130879026Y-89805251D01*
X130877734Y-89773296D01*
X130876696Y-89732885D01*
X130875887Y-89682798D01*
X130875282Y-89621819D01*
X130874856Y-89548727D01*
X130874584Y-89462305D01*
X130874440Y-89361334D01*
X130874400Y-89250000D01*
X130874413Y-89130812D01*
X130874515Y-89027339D01*
X130874795Y-88938363D01*
X130875348Y-88862666D01*
X130876264Y-88799028D01*
X130877635Y-88746233D01*
X130879553Y-88703061D01*
X130881150Y-88681344D01*
X131039500Y-88681344D01*
X131039500Y-89248416D01*
X131039512Y-89360242D01*
X131039570Y-89456369D01*
X131039711Y-89538032D01*
X131039970Y-89606466D01*
X131040382Y-89662906D01*
X131040985Y-89708585D01*
X131041812Y-89744740D01*
X131042901Y-89772604D01*
X131044286Y-89793413D01*
X131046003Y-89808400D01*
X131048088Y-89818801D01*
X131050577Y-89825851D01*
X131053505Y-89830784D01*
X131056433Y-89834310D01*
X131088277Y-89858690D01*
X131124318Y-89867255D01*
X131162034Y-89859521D01*
X131169506Y-89856001D01*
X131190065Y-89839803D01*
X131202952Y-89821736D01*
X131205139Y-89812202D01*
X131207023Y-89793300D01*
X131208620Y-89764153D01*
X131209945Y-89723883D01*
X131211013Y-89671610D01*
X131211841Y-89606458D01*
X131212443Y-89527546D01*
X131212836Y-89433997D01*
X131213034Y-89324933D01*
X131213067Y-89250000D01*
X131212980Y-89130987D01*
X131212708Y-89028028D01*
X131212236Y-88940245D01*
X131211548Y-88866759D01*
X131210629Y-88806692D01*
X131209463Y-88759166D01*
X131208035Y-88723302D01*
X131206329Y-88698222D01*
X131204330Y-88683047D01*
X131202952Y-88678263D01*
X131182494Y-88651598D01*
X131153349Y-88636429D01*
X131119869Y-88633448D01*
X131086405Y-88643349D01*
X131067150Y-88656639D01*
X131039500Y-88681344D01*
X130881150Y-88681344D01*
X130882110Y-88668295D01*
X130885397Y-88640716D01*
X130889508Y-88619105D01*
X130894532Y-88602245D01*
X130900563Y-88588918D01*
X130907693Y-88577904D01*
X130916012Y-88567986D01*
X130925613Y-88557946D01*
X130926654Y-88556881D01*
X130951269Y-88533678D01*
X130974935Y-88517117D01*
X131001131Y-88506222D01*
X131033338Y-88500020D01*
X131075033Y-88497536D01*
X131129696Y-88497795D01*
X131129696Y-88497795D01*
G37*
X131129696Y-88497795D02*
X131137061Y-88497959D01*
X131183905Y-88499194D01*
X131217309Y-88500762D01*
X131240767Y-88503302D01*
X131257769Y-88507457D01*
X131271808Y-88513867D01*
X131286376Y-88523172D01*
X131290691Y-88526152D01*
X131328162Y-88562001D01*
X131350650Y-88597520D01*
X131373933Y-88643436D01*
X131373933Y-89857666D01*
X131350283Y-89902938D01*
X131322498Y-89943855D01*
X131290324Y-89973755D01*
X131275444Y-89983832D01*
X131262034Y-89990898D01*
X131246686Y-89995564D01*
X131225995Y-89998435D01*
X131196554Y-90000122D01*
X131154957Y-90001230D01*
X131134058Y-90001650D01*
X131086394Y-90002441D01*
X131052183Y-90002349D01*
X131027951Y-90000943D01*
X131010224Y-89997789D01*
X130995527Y-89992455D01*
X130980386Y-89984511D01*
X130976000Y-89981995D01*
X130934808Y-89952708D01*
X130906620Y-89918236D01*
X130887510Y-89873754D01*
X130887240Y-89872880D01*
X130884680Y-89862565D01*
X130882474Y-89848667D01*
X130880598Y-89829969D01*
X130879026Y-89805251D01*
X130877734Y-89773296D01*
X130876696Y-89732885D01*
X130875887Y-89682798D01*
X130875282Y-89621819D01*
X130874856Y-89548727D01*
X130874584Y-89462305D01*
X130874440Y-89361334D01*
X130874400Y-89250000D01*
X130874413Y-89130812D01*
X130874515Y-89027339D01*
X130874795Y-88938363D01*
X130875348Y-88862666D01*
X130876264Y-88799028D01*
X130877635Y-88746233D01*
X130879553Y-88703061D01*
X130881150Y-88681344D01*
X131039500Y-88681344D01*
X131039500Y-89248416D01*
X131039512Y-89360242D01*
X131039570Y-89456369D01*
X131039711Y-89538032D01*
X131039970Y-89606466D01*
X131040382Y-89662906D01*
X131040985Y-89708585D01*
X131041812Y-89744740D01*
X131042901Y-89772604D01*
X131044286Y-89793413D01*
X131046003Y-89808400D01*
X131048088Y-89818801D01*
X131050577Y-89825851D01*
X131053505Y-89830784D01*
X131056433Y-89834310D01*
X131088277Y-89858690D01*
X131124318Y-89867255D01*
X131162034Y-89859521D01*
X131169506Y-89856001D01*
X131190065Y-89839803D01*
X131202952Y-89821736D01*
X131205139Y-89812202D01*
X131207023Y-89793300D01*
X131208620Y-89764153D01*
X131209945Y-89723883D01*
X131211013Y-89671610D01*
X131211841Y-89606458D01*
X131212443Y-89527546D01*
X131212836Y-89433997D01*
X131213034Y-89324933D01*
X131213067Y-89250000D01*
X131212980Y-89130987D01*
X131212708Y-89028028D01*
X131212236Y-88940245D01*
X131211548Y-88866759D01*
X131210629Y-88806692D01*
X131209463Y-88759166D01*
X131208035Y-88723302D01*
X131206329Y-88698222D01*
X131204330Y-88683047D01*
X131202952Y-88678263D01*
X131182494Y-88651598D01*
X131153349Y-88636429D01*
X131119869Y-88633448D01*
X131086405Y-88643349D01*
X131067150Y-88656639D01*
X131039500Y-88681344D01*
X130881150Y-88681344D01*
X130882110Y-88668295D01*
X130885397Y-88640716D01*
X130889508Y-88619105D01*
X130894532Y-88602245D01*
X130900563Y-88588918D01*
X130907693Y-88577904D01*
X130916012Y-88567986D01*
X130925613Y-88557946D01*
X130926654Y-88556881D01*
X130951269Y-88533678D01*
X130974935Y-88517117D01*
X131001131Y-88506222D01*
X131033338Y-88500020D01*
X131075033Y-88497536D01*
X131129696Y-88497795D01*
G36*
X137279995Y-88497374D02*
X137318375Y-88500841D01*
X137347828Y-88507986D01*
X137372326Y-88519928D01*
X137395843Y-88537785D01*
X137405092Y-88546116D01*
X137425445Y-88569271D01*
X137443521Y-88596499D01*
X137445309Y-88599846D01*
X137448373Y-88606392D01*
X137451024Y-88614073D01*
X137453292Y-88624093D01*
X137455205Y-88637653D01*
X137456795Y-88655956D01*
X137458092Y-88680203D01*
X137459124Y-88711596D01*
X137459922Y-88751339D01*
X137460516Y-88800632D01*
X137460935Y-88860678D01*
X137461210Y-88932679D01*
X137461370Y-89017838D01*
X137461446Y-89117356D01*
X137461467Y-89232436D01*
X137461467Y-89250000D01*
X137461451Y-89367372D01*
X137461385Y-89469014D01*
X137461239Y-89556126D01*
X137460982Y-89629912D01*
X137460585Y-89691572D01*
X137460017Y-89742310D01*
X137459250Y-89783328D01*
X137458253Y-89815827D01*
X137456995Y-89841010D01*
X137455449Y-89860078D01*
X137453582Y-89874235D01*
X137451367Y-89884681D01*
X137448772Y-89892620D01*
X137445768Y-89899254D01*
X137445309Y-89900154D01*
X137413888Y-89944325D01*
X137371185Y-89980026D01*
X137353937Y-89989867D01*
X137328221Y-89997576D01*
X137290695Y-90002386D01*
X137246228Y-90004342D01*
X137199684Y-90003491D01*
X137155932Y-89999877D01*
X137119837Y-89993549D01*
X137101634Y-89987482D01*
X137073927Y-89971286D01*
X137048806Y-89951343D01*
X137044933Y-89947451D01*
X137030415Y-89930938D01*
X137019064Y-89914492D01*
X137010494Y-89895824D01*
X137004318Y-89872650D01*
X137000150Y-89842682D01*
X136997604Y-89803634D01*
X136996294Y-89753220D01*
X136995833Y-89689153D01*
X136995800Y-89656558D01*
X136995800Y-89452973D01*
X137023317Y-89464606D01*
X137075062Y-89487678D01*
X137111003Y-89506506D01*
X137131655Y-89521377D01*
X137136648Y-89527901D01*
X137139195Y-89540893D01*
X137141888Y-89567601D01*
X137144487Y-89604811D01*
X137146754Y-89649310D01*
X137147900Y-89679513D01*
X137149672Y-89730660D01*
X137151411Y-89767723D01*
X137153605Y-89793541D01*
X137156743Y-89810954D01*
X137161313Y-89822804D01*
X137167804Y-89831929D01*
X137175486Y-89839956D01*
X137205279Y-89859412D01*
X137237541Y-89862989D01*
X137268863Y-89850687D01*
X137281781Y-89839934D01*
X137304834Y-89816882D01*
X137304834Y-88683118D01*
X137281781Y-88660066D01*
X137251999Y-88640597D01*
X137219740Y-88637007D01*
X137188411Y-88649296D01*
X137175486Y-88660045D01*
X137152434Y-88683077D01*
X137148200Y-88864282D01*
X137143967Y-89045487D01*
X137083841Y-89017621D01*
X137054890Y-89003905D01*
X137033103Y-88991514D01*
X137017461Y-88977871D01*
X137006947Y-88960399D01*
X137000542Y-88936523D01*
X136997228Y-88903665D01*
X136995987Y-88859250D01*
X136995800Y-88800701D01*
X136995800Y-88794877D01*
X136996222Y-88731401D01*
X136997854Y-88682142D01*
X137001245Y-88644397D01*
X137006943Y-88615463D01*
X137015497Y-88592638D01*
X137027456Y-88573217D01*
X137043368Y-88554499D01*
X137044933Y-88552841D01*
X137069621Y-88529893D01*
X137095263Y-88513939D01*
X137125613Y-88503826D01*
X137164426Y-88498404D01*
X137215455Y-88496520D01*
X137228717Y-88496467D01*
X137279995Y-88497374D01*
X137279995Y-88497374D01*
G37*
X137279995Y-88497374D02*
X137318375Y-88500841D01*
X137347828Y-88507986D01*
X137372326Y-88519928D01*
X137395843Y-88537785D01*
X137405092Y-88546116D01*
X137425445Y-88569271D01*
X137443521Y-88596499D01*
X137445309Y-88599846D01*
X137448373Y-88606392D01*
X137451024Y-88614073D01*
X137453292Y-88624093D01*
X137455205Y-88637653D01*
X137456795Y-88655956D01*
X137458092Y-88680203D01*
X137459124Y-88711596D01*
X137459922Y-88751339D01*
X137460516Y-88800632D01*
X137460935Y-88860678D01*
X137461210Y-88932679D01*
X137461370Y-89017838D01*
X137461446Y-89117356D01*
X137461467Y-89232436D01*
X137461467Y-89250000D01*
X137461451Y-89367372D01*
X137461385Y-89469014D01*
X137461239Y-89556126D01*
X137460982Y-89629912D01*
X137460585Y-89691572D01*
X137460017Y-89742310D01*
X137459250Y-89783328D01*
X137458253Y-89815827D01*
X137456995Y-89841010D01*
X137455449Y-89860078D01*
X137453582Y-89874235D01*
X137451367Y-89884681D01*
X137448772Y-89892620D01*
X137445768Y-89899254D01*
X137445309Y-89900154D01*
X137413888Y-89944325D01*
X137371185Y-89980026D01*
X137353937Y-89989867D01*
X137328221Y-89997576D01*
X137290695Y-90002386D01*
X137246228Y-90004342D01*
X137199684Y-90003491D01*
X137155932Y-89999877D01*
X137119837Y-89993549D01*
X137101634Y-89987482D01*
X137073927Y-89971286D01*
X137048806Y-89951343D01*
X137044933Y-89947451D01*
X137030415Y-89930938D01*
X137019064Y-89914492D01*
X137010494Y-89895824D01*
X137004318Y-89872650D01*
X137000150Y-89842682D01*
X136997604Y-89803634D01*
X136996294Y-89753220D01*
X136995833Y-89689153D01*
X136995800Y-89656558D01*
X136995800Y-89452973D01*
X137023317Y-89464606D01*
X137075062Y-89487678D01*
X137111003Y-89506506D01*
X137131655Y-89521377D01*
X137136648Y-89527901D01*
X137139195Y-89540893D01*
X137141888Y-89567601D01*
X137144487Y-89604811D01*
X137146754Y-89649310D01*
X137147900Y-89679513D01*
X137149672Y-89730660D01*
X137151411Y-89767723D01*
X137153605Y-89793541D01*
X137156743Y-89810954D01*
X137161313Y-89822804D01*
X137167804Y-89831929D01*
X137175486Y-89839956D01*
X137205279Y-89859412D01*
X137237541Y-89862989D01*
X137268863Y-89850687D01*
X137281781Y-89839934D01*
X137304834Y-89816882D01*
X137304834Y-88683118D01*
X137281781Y-88660066D01*
X137251999Y-88640597D01*
X137219740Y-88637007D01*
X137188411Y-88649296D01*
X137175486Y-88660045D01*
X137152434Y-88683077D01*
X137148200Y-88864282D01*
X137143967Y-89045487D01*
X137083841Y-89017621D01*
X137054890Y-89003905D01*
X137033103Y-88991514D01*
X137017461Y-88977871D01*
X137006947Y-88960399D01*
X137000542Y-88936523D01*
X136997228Y-88903665D01*
X136995987Y-88859250D01*
X136995800Y-88800701D01*
X136995800Y-88794877D01*
X136996222Y-88731401D01*
X136997854Y-88682142D01*
X137001245Y-88644397D01*
X137006943Y-88615463D01*
X137015497Y-88592638D01*
X137027456Y-88573217D01*
X137043368Y-88554499D01*
X137044933Y-88552841D01*
X137069621Y-88529893D01*
X137095263Y-88513939D01*
X137125613Y-88503826D01*
X137164426Y-88498404D01*
X137215455Y-88496520D01*
X137228717Y-88496467D01*
X137279995Y-88497374D01*
G36*
X139605042Y-88497615D02*
X139645164Y-88501885D01*
X139676298Y-88510508D01*
X139702361Y-88524717D01*
X139727273Y-88545748D01*
X139735832Y-88554315D01*
X139745882Y-88564791D01*
X139754599Y-88574901D01*
X139762080Y-88585865D01*
X139768417Y-88598905D01*
X139773707Y-88615240D01*
X139778044Y-88636092D01*
X139781522Y-88662682D01*
X139784236Y-88696230D01*
X139786280Y-88737957D01*
X139787751Y-88789084D01*
X139788741Y-88850832D01*
X139789347Y-88924421D01*
X139789662Y-89011072D01*
X139789782Y-89112007D01*
X139789800Y-89228445D01*
X139789800Y-89250000D01*
X139789789Y-89369212D01*
X139789694Y-89472711D01*
X139789419Y-89561719D01*
X139788870Y-89637455D01*
X139787952Y-89701141D01*
X139786570Y-89753998D01*
X139784630Y-89797247D01*
X139782037Y-89832107D01*
X139778697Y-89859800D01*
X139774514Y-89881547D01*
X139769394Y-89898569D01*
X139763242Y-89912085D01*
X139755964Y-89923318D01*
X139747464Y-89933487D01*
X139737649Y-89943814D01*
X139735832Y-89945685D01*
X139710532Y-89969151D01*
X139685380Y-89985432D01*
X139656474Y-89995751D01*
X139619911Y-90001334D01*
X139571788Y-90003405D01*
X139551454Y-90003526D01*
X139506543Y-90003023D01*
X139474295Y-90001137D01*
X139450462Y-89997291D01*
X139430792Y-89990912D01*
X139419193Y-89985614D01*
X139377430Y-89956772D01*
X139344376Y-89917782D01*
X139325331Y-89877191D01*
X139322250Y-89857687D01*
X139319762Y-89821668D01*
X139317864Y-89769047D01*
X139316553Y-89699738D01*
X139315828Y-89613657D01*
X139315667Y-89538616D01*
X139315667Y-89232297D01*
X139336449Y-89211515D01*
X139345591Y-89203157D01*
X139355483Y-89197404D01*
X139369289Y-89193771D01*
X139390173Y-89191771D01*
X139421299Y-89190921D01*
X139465833Y-89190734D01*
X139471915Y-89190733D01*
X139513739Y-89191173D01*
X139548691Y-89192380D01*
X139573700Y-89194183D01*
X139585699Y-89196412D01*
X139586310Y-89197083D01*
X139581512Y-89212448D01*
X139569677Y-89236876D01*
X139553351Y-89266156D01*
X139535077Y-89296076D01*
X139517400Y-89322424D01*
X139502865Y-89340988D01*
X139495584Y-89347258D01*
X139476534Y-89355615D01*
X139476534Y-89582764D01*
X139476864Y-89654746D01*
X139477823Y-89716072D01*
X139479360Y-89765334D01*
X139481424Y-89801122D01*
X139483965Y-89822025D01*
X139485251Y-89826202D01*
X139500928Y-89843150D01*
X139525211Y-89858415D01*
X139550042Y-89867318D01*
X139557393Y-89868067D01*
X139571341Y-89862409D01*
X139590677Y-89848079D01*
X139600147Y-89839280D01*
X139628934Y-89810493D01*
X139628934Y-88689506D01*
X139599124Y-88659697D01*
X139579148Y-88641649D01*
X139563505Y-88634173D01*
X139545959Y-88634612D01*
X139542003Y-88635349D01*
X139516989Y-88644563D01*
X139497730Y-88657755D01*
X139492186Y-88664369D01*
X139487903Y-88673226D01*
X139484651Y-88686576D01*
X139482198Y-88706668D01*
X139480313Y-88735755D01*
X139478767Y-88776086D01*
X139477327Y-88829911D01*
X139476534Y-88864478D01*
X139472300Y-89054259D01*
X139404479Y-89022366D01*
X139365719Y-89002520D01*
X139340824Y-88985582D01*
X139327367Y-88969849D01*
X139326162Y-88967438D01*
X139322167Y-88949792D01*
X139319101Y-88918791D01*
X139316973Y-88877990D01*
X139315793Y-88830940D01*
X139315569Y-88781197D01*
X139316309Y-88732314D01*
X139318022Y-88687845D01*
X139320716Y-88651342D01*
X139324400Y-88626361D01*
X139325331Y-88622809D01*
X139346591Y-88578851D01*
X139380440Y-88540565D01*
X139419930Y-88514160D01*
X139439624Y-88506010D01*
X139461134Y-88500749D01*
X139488749Y-88497803D01*
X139526759Y-88496597D01*
X139552010Y-88496467D01*
X139605042Y-88497615D01*
X139605042Y-88497615D01*
G37*
X139605042Y-88497615D02*
X139645164Y-88501885D01*
X139676298Y-88510508D01*
X139702361Y-88524717D01*
X139727273Y-88545748D01*
X139735832Y-88554315D01*
X139745882Y-88564791D01*
X139754599Y-88574901D01*
X139762080Y-88585865D01*
X139768417Y-88598905D01*
X139773707Y-88615240D01*
X139778044Y-88636092D01*
X139781522Y-88662682D01*
X139784236Y-88696230D01*
X139786280Y-88737957D01*
X139787751Y-88789084D01*
X139788741Y-88850832D01*
X139789347Y-88924421D01*
X139789662Y-89011072D01*
X139789782Y-89112007D01*
X139789800Y-89228445D01*
X139789800Y-89250000D01*
X139789789Y-89369212D01*
X139789694Y-89472711D01*
X139789419Y-89561719D01*
X139788870Y-89637455D01*
X139787952Y-89701141D01*
X139786570Y-89753998D01*
X139784630Y-89797247D01*
X139782037Y-89832107D01*
X139778697Y-89859800D01*
X139774514Y-89881547D01*
X139769394Y-89898569D01*
X139763242Y-89912085D01*
X139755964Y-89923318D01*
X139747464Y-89933487D01*
X139737649Y-89943814D01*
X139735832Y-89945685D01*
X139710532Y-89969151D01*
X139685380Y-89985432D01*
X139656474Y-89995751D01*
X139619911Y-90001334D01*
X139571788Y-90003405D01*
X139551454Y-90003526D01*
X139506543Y-90003023D01*
X139474295Y-90001137D01*
X139450462Y-89997291D01*
X139430792Y-89990912D01*
X139419193Y-89985614D01*
X139377430Y-89956772D01*
X139344376Y-89917782D01*
X139325331Y-89877191D01*
X139322250Y-89857687D01*
X139319762Y-89821668D01*
X139317864Y-89769047D01*
X139316553Y-89699738D01*
X139315828Y-89613657D01*
X139315667Y-89538616D01*
X139315667Y-89232297D01*
X139336449Y-89211515D01*
X139345591Y-89203157D01*
X139355483Y-89197404D01*
X139369289Y-89193771D01*
X139390173Y-89191771D01*
X139421299Y-89190921D01*
X139465833Y-89190734D01*
X139471915Y-89190733D01*
X139513739Y-89191173D01*
X139548691Y-89192380D01*
X139573700Y-89194183D01*
X139585699Y-89196412D01*
X139586310Y-89197083D01*
X139581512Y-89212448D01*
X139569677Y-89236876D01*
X139553351Y-89266156D01*
X139535077Y-89296076D01*
X139517400Y-89322424D01*
X139502865Y-89340988D01*
X139495584Y-89347258D01*
X139476534Y-89355615D01*
X139476534Y-89582764D01*
X139476864Y-89654746D01*
X139477823Y-89716072D01*
X139479360Y-89765334D01*
X139481424Y-89801122D01*
X139483965Y-89822025D01*
X139485251Y-89826202D01*
X139500928Y-89843150D01*
X139525211Y-89858415D01*
X139550042Y-89867318D01*
X139557393Y-89868067D01*
X139571341Y-89862409D01*
X139590677Y-89848079D01*
X139600147Y-89839280D01*
X139628934Y-89810493D01*
X139628934Y-88689506D01*
X139599124Y-88659697D01*
X139579148Y-88641649D01*
X139563505Y-88634173D01*
X139545959Y-88634612D01*
X139542003Y-88635349D01*
X139516989Y-88644563D01*
X139497730Y-88657755D01*
X139492186Y-88664369D01*
X139487903Y-88673226D01*
X139484651Y-88686576D01*
X139482198Y-88706668D01*
X139480313Y-88735755D01*
X139478767Y-88776086D01*
X139477327Y-88829911D01*
X139476534Y-88864478D01*
X139472300Y-89054259D01*
X139404479Y-89022366D01*
X139365719Y-89002520D01*
X139340824Y-88985582D01*
X139327367Y-88969849D01*
X139326162Y-88967438D01*
X139322167Y-88949792D01*
X139319101Y-88918791D01*
X139316973Y-88877990D01*
X139315793Y-88830940D01*
X139315569Y-88781197D01*
X139316309Y-88732314D01*
X139318022Y-88687845D01*
X139320716Y-88651342D01*
X139324400Y-88626361D01*
X139325331Y-88622809D01*
X139346591Y-88578851D01*
X139380440Y-88540565D01*
X139419930Y-88514160D01*
X139439624Y-88506010D01*
X139461134Y-88500749D01*
X139488749Y-88497803D01*
X139526759Y-88496597D01*
X139552010Y-88496467D01*
X139605042Y-88497615D01*
G36*
X141026052Y-88504067D02*
X141035375Y-88508110D01*
X141043083Y-88516030D01*
X141049335Y-88528915D01*
X141054289Y-88547851D01*
X141058103Y-88573927D01*
X141060937Y-88608228D01*
X141062950Y-88651842D01*
X141064299Y-88705857D01*
X141065144Y-88771358D01*
X141065643Y-88849433D01*
X141065955Y-88941170D01*
X141066239Y-89047655D01*
X141066653Y-89169975D01*
X141066657Y-89170999D01*
X141067116Y-89310442D01*
X141067280Y-89433288D01*
X141067147Y-89539869D01*
X141066714Y-89630518D01*
X141065977Y-89705569D01*
X141064934Y-89765355D01*
X141063580Y-89810208D01*
X141061913Y-89840462D01*
X141060066Y-89855846D01*
X141041233Y-89904817D01*
X141008659Y-89947211D01*
X140965312Y-89979202D01*
X140963731Y-89980037D01*
X140942252Y-89989315D01*
X140917596Y-89995296D01*
X140885068Y-89998781D01*
X140843900Y-90000477D01*
X140803165Y-90000637D01*
X140764662Y-89999320D01*
X140734257Y-89996785D01*
X140723897Y-89995137D01*
X140672085Y-89978522D01*
X140631737Y-89951594D01*
X140599281Y-89911667D01*
X140588774Y-89893467D01*
X140585900Y-89887416D01*
X140583389Y-89879996D01*
X140581211Y-89870069D01*
X140579337Y-89856497D01*
X140577738Y-89838142D01*
X140576385Y-89813866D01*
X140575249Y-89782532D01*
X140574300Y-89743002D01*
X140573509Y-89694138D01*
X140572848Y-89634803D01*
X140572287Y-89563858D01*
X140571797Y-89480165D01*
X140571348Y-89382587D01*
X140570912Y-89269987D01*
X140570609Y-89184383D01*
X140568250Y-88504933D01*
X140729294Y-88504933D01*
X140733834Y-89816887D01*
X140756604Y-89839654D01*
X140786269Y-89858330D01*
X140821102Y-89863917D01*
X140855527Y-89856415D01*
X140880397Y-89839654D01*
X140903167Y-89816887D01*
X140905436Y-89160910D01*
X140907706Y-88504933D01*
X140969435Y-88504933D01*
X140986805Y-88504336D01*
X141001926Y-88503267D01*
X141014955Y-88502816D01*
X141026052Y-88504067D01*
X141026052Y-88504067D01*
G37*
X141026052Y-88504067D02*
X141035375Y-88508110D01*
X141043083Y-88516030D01*
X141049335Y-88528915D01*
X141054289Y-88547851D01*
X141058103Y-88573927D01*
X141060937Y-88608228D01*
X141062950Y-88651842D01*
X141064299Y-88705857D01*
X141065144Y-88771358D01*
X141065643Y-88849433D01*
X141065955Y-88941170D01*
X141066239Y-89047655D01*
X141066653Y-89169975D01*
X141066657Y-89170999D01*
X141067116Y-89310442D01*
X141067280Y-89433288D01*
X141067147Y-89539869D01*
X141066714Y-89630518D01*
X141065977Y-89705569D01*
X141064934Y-89765355D01*
X141063580Y-89810208D01*
X141061913Y-89840462D01*
X141060066Y-89855846D01*
X141041233Y-89904817D01*
X141008659Y-89947211D01*
X140965312Y-89979202D01*
X140963731Y-89980037D01*
X140942252Y-89989315D01*
X140917596Y-89995296D01*
X140885068Y-89998781D01*
X140843900Y-90000477D01*
X140803165Y-90000637D01*
X140764662Y-89999320D01*
X140734257Y-89996785D01*
X140723897Y-89995137D01*
X140672085Y-89978522D01*
X140631737Y-89951594D01*
X140599281Y-89911667D01*
X140588774Y-89893467D01*
X140585900Y-89887416D01*
X140583389Y-89879996D01*
X140581211Y-89870069D01*
X140579337Y-89856497D01*
X140577738Y-89838142D01*
X140576385Y-89813866D01*
X140575249Y-89782532D01*
X140574300Y-89743002D01*
X140573509Y-89694138D01*
X140572848Y-89634803D01*
X140572287Y-89563858D01*
X140571797Y-89480165D01*
X140571348Y-89382587D01*
X140570912Y-89269987D01*
X140570609Y-89184383D01*
X140568250Y-88504933D01*
X140729294Y-88504933D01*
X140733834Y-89816887D01*
X140756604Y-89839654D01*
X140786269Y-89858330D01*
X140821102Y-89863917D01*
X140855527Y-89856415D01*
X140880397Y-89839654D01*
X140903167Y-89816887D01*
X140905436Y-89160910D01*
X140907706Y-88504933D01*
X140969435Y-88504933D01*
X140986805Y-88504336D01*
X141001926Y-88503267D01*
X141014955Y-88502816D01*
X141026052Y-88504067D01*
G36*
X145937880Y-88528047D02*
X145977129Y-88564557D01*
X145997146Y-88595781D01*
X146017033Y-88636167D01*
X146019692Y-89224600D01*
X146020172Y-89356745D01*
X146020337Y-89472414D01*
X146020184Y-89572060D01*
X146019708Y-89656137D01*
X146018904Y-89725099D01*
X146017766Y-89779399D01*
X146016290Y-89819492D01*
X146014472Y-89845832D01*
X146012982Y-89856380D01*
X145995376Y-89902076D01*
X145965043Y-89944324D01*
X145926094Y-89977883D01*
X145910628Y-89986892D01*
X145893924Y-89994079D01*
X145874739Y-89998902D01*
X145849395Y-90001794D01*
X145814212Y-90003190D01*
X145769721Y-90003526D01*
X145722652Y-90003159D01*
X145688674Y-90001744D01*
X145663954Y-89998804D01*
X145644658Y-89993863D01*
X145626954Y-89986443D01*
X145625058Y-89985514D01*
X145597769Y-89968304D01*
X145573750Y-89947161D01*
X145568170Y-89940615D01*
X145559481Y-89929323D01*
X145551949Y-89918998D01*
X145545490Y-89908408D01*
X145540022Y-89896322D01*
X145535464Y-89881508D01*
X145531731Y-89862736D01*
X145528743Y-89838772D01*
X145526417Y-89808386D01*
X145524669Y-89770347D01*
X145523419Y-89723423D01*
X145522582Y-89666382D01*
X145522077Y-89597994D01*
X145521822Y-89517026D01*
X145521734Y-89422247D01*
X145521730Y-89312425D01*
X145521731Y-89280332D01*
X145681580Y-89280332D01*
X145681779Y-89366367D01*
X145682260Y-89450037D01*
X145683023Y-89529589D01*
X145684069Y-89603274D01*
X145685399Y-89669339D01*
X145687013Y-89726035D01*
X145688912Y-89771611D01*
X145691097Y-89804315D01*
X145693568Y-89822397D01*
X145694415Y-89824801D01*
X145717098Y-89849987D01*
X145747851Y-89863440D01*
X145782108Y-89864702D01*
X145815302Y-89853312D01*
X145834175Y-89838876D01*
X145856167Y-89816888D01*
X145860751Y-88692916D01*
X145838899Y-88666946D01*
X145810923Y-88644596D01*
X145778075Y-88634602D01*
X145744753Y-88636716D01*
X145715353Y-88650692D01*
X145694901Y-88675039D01*
X145692327Y-88688436D01*
X145690027Y-88716976D01*
X145688001Y-88758908D01*
X145686252Y-88812481D01*
X145684778Y-88875945D01*
X145683581Y-88947547D01*
X145682663Y-89025538D01*
X145682022Y-89108166D01*
X145681661Y-89193681D01*
X145681580Y-89280332D01*
X145521731Y-89280332D01*
X145521733Y-89247005D01*
X145521733Y-88642333D01*
X145545384Y-88597061D01*
X145573307Y-88555983D01*
X145605380Y-88526244D01*
X145641726Y-88500700D01*
X145898500Y-88500700D01*
X145937880Y-88528047D01*
X145937880Y-88528047D01*
G37*
X145937880Y-88528047D02*
X145977129Y-88564557D01*
X145997146Y-88595781D01*
X146017033Y-88636167D01*
X146019692Y-89224600D01*
X146020172Y-89356745D01*
X146020337Y-89472414D01*
X146020184Y-89572060D01*
X146019708Y-89656137D01*
X146018904Y-89725099D01*
X146017766Y-89779399D01*
X146016290Y-89819492D01*
X146014472Y-89845832D01*
X146012982Y-89856380D01*
X145995376Y-89902076D01*
X145965043Y-89944324D01*
X145926094Y-89977883D01*
X145910628Y-89986892D01*
X145893924Y-89994079D01*
X145874739Y-89998902D01*
X145849395Y-90001794D01*
X145814212Y-90003190D01*
X145769721Y-90003526D01*
X145722652Y-90003159D01*
X145688674Y-90001744D01*
X145663954Y-89998804D01*
X145644658Y-89993863D01*
X145626954Y-89986443D01*
X145625058Y-89985514D01*
X145597769Y-89968304D01*
X145573750Y-89947161D01*
X145568170Y-89940615D01*
X145559481Y-89929323D01*
X145551949Y-89918998D01*
X145545490Y-89908408D01*
X145540022Y-89896322D01*
X145535464Y-89881508D01*
X145531731Y-89862736D01*
X145528743Y-89838772D01*
X145526417Y-89808386D01*
X145524669Y-89770347D01*
X145523419Y-89723423D01*
X145522582Y-89666382D01*
X145522077Y-89597994D01*
X145521822Y-89517026D01*
X145521734Y-89422247D01*
X145521730Y-89312425D01*
X145521731Y-89280332D01*
X145681580Y-89280332D01*
X145681779Y-89366367D01*
X145682260Y-89450037D01*
X145683023Y-89529589D01*
X145684069Y-89603274D01*
X145685399Y-89669339D01*
X145687013Y-89726035D01*
X145688912Y-89771611D01*
X145691097Y-89804315D01*
X145693568Y-89822397D01*
X145694415Y-89824801D01*
X145717098Y-89849987D01*
X145747851Y-89863440D01*
X145782108Y-89864702D01*
X145815302Y-89853312D01*
X145834175Y-89838876D01*
X145856167Y-89816888D01*
X145860751Y-88692916D01*
X145838899Y-88666946D01*
X145810923Y-88644596D01*
X145778075Y-88634602D01*
X145744753Y-88636716D01*
X145715353Y-88650692D01*
X145694901Y-88675039D01*
X145692327Y-88688436D01*
X145690027Y-88716976D01*
X145688001Y-88758908D01*
X145686252Y-88812481D01*
X145684778Y-88875945D01*
X145683581Y-88947547D01*
X145682663Y-89025538D01*
X145682022Y-89108166D01*
X145681661Y-89193681D01*
X145681580Y-89280332D01*
X145521731Y-89280332D01*
X145521733Y-89247005D01*
X145521733Y-88642333D01*
X145545384Y-88597061D01*
X145573307Y-88555983D01*
X145605380Y-88526244D01*
X145641726Y-88500700D01*
X145898500Y-88500700D01*
X145937880Y-88528047D01*
G36*
X147107107Y-88498764D02*
X147141614Y-88504396D01*
X147158337Y-88510133D01*
X147203813Y-88541463D01*
X147239946Y-88583167D01*
X147249709Y-88599846D01*
X147252773Y-88606392D01*
X147255424Y-88614073D01*
X147257692Y-88624093D01*
X147259605Y-88637653D01*
X147261195Y-88655956D01*
X147262492Y-88680203D01*
X147263524Y-88711596D01*
X147264322Y-88751339D01*
X147264916Y-88800632D01*
X147265335Y-88860678D01*
X147265610Y-88932679D01*
X147265770Y-89017838D01*
X147265846Y-89117356D01*
X147265867Y-89232436D01*
X147265867Y-89250000D01*
X147265851Y-89367372D01*
X147265785Y-89469014D01*
X147265639Y-89556126D01*
X147265382Y-89629912D01*
X147264985Y-89691572D01*
X147264417Y-89742310D01*
X147263650Y-89783328D01*
X147262653Y-89815827D01*
X147261395Y-89841010D01*
X147259849Y-89860078D01*
X147257982Y-89874235D01*
X147255767Y-89884681D01*
X147253172Y-89892620D01*
X147250168Y-89899254D01*
X147249709Y-89900154D01*
X147232602Y-89927045D01*
X147212050Y-89951424D01*
X147209492Y-89953883D01*
X147184971Y-89974456D01*
X147160888Y-89988545D01*
X147133188Y-89997305D01*
X147097820Y-90001894D01*
X147050730Y-90003468D01*
X147035571Y-90003526D01*
X146990678Y-90003013D01*
X146958443Y-90001096D01*
X146934608Y-89997200D01*
X146914917Y-89990749D01*
X146903931Y-89985715D01*
X146859735Y-89954988D01*
X146824879Y-89912955D01*
X146811617Y-89887388D01*
X146808479Y-89876174D01*
X146805930Y-89857999D01*
X146803919Y-89831383D01*
X146802397Y-89794842D01*
X146801315Y-89746896D01*
X146800623Y-89686061D01*
X146800271Y-89610856D01*
X146800200Y-89546220D01*
X146800200Y-89232297D01*
X146820982Y-89211515D01*
X146830124Y-89203157D01*
X146840016Y-89197404D01*
X146853822Y-89193771D01*
X146874706Y-89191771D01*
X146905833Y-89190921D01*
X146950366Y-89190734D01*
X146956449Y-89190733D01*
X146998273Y-89191173D01*
X147033224Y-89192380D01*
X147058234Y-89194183D01*
X147070233Y-89196412D01*
X147070843Y-89197083D01*
X147066045Y-89212448D01*
X147054211Y-89236876D01*
X147037884Y-89266156D01*
X147019610Y-89296076D01*
X147001934Y-89322424D01*
X146987399Y-89340988D01*
X146980117Y-89347258D01*
X146961067Y-89355615D01*
X146961067Y-89585969D01*
X146961095Y-89654341D01*
X146961287Y-89707845D01*
X146961808Y-89748544D01*
X146962820Y-89778504D01*
X146964486Y-89799787D01*
X146966970Y-89814460D01*
X146970436Y-89824585D01*
X146975046Y-89832229D01*
X146980964Y-89839454D01*
X146981136Y-89839654D01*
X147007625Y-89859057D01*
X147038293Y-89863606D01*
X147069175Y-89853288D01*
X147086181Y-89839934D01*
X147109233Y-89816882D01*
X147109233Y-88681344D01*
X147080640Y-88655796D01*
X147059451Y-88639500D01*
X147041690Y-88633984D01*
X147025636Y-88635529D01*
X147000793Y-88644865D01*
X146982263Y-88657755D01*
X146976729Y-88664355D01*
X146972452Y-88673192D01*
X146969202Y-88686510D01*
X146966750Y-88706555D01*
X146964866Y-88735573D01*
X146963320Y-88775808D01*
X146961885Y-88829506D01*
X146961067Y-88865212D01*
X146956833Y-89055727D01*
X146887605Y-89022235D01*
X146855644Y-89005433D01*
X146829234Y-88989075D01*
X146812476Y-88975804D01*
X146809289Y-88971762D01*
X146805526Y-88955930D01*
X146802725Y-88926577D01*
X146800864Y-88887089D01*
X146799922Y-88840849D01*
X146799876Y-88791242D01*
X146800705Y-88741653D01*
X146802386Y-88695466D01*
X146804897Y-88656064D01*
X146808217Y-88626834D01*
X146811617Y-88612611D01*
X146836178Y-88570814D01*
X146870335Y-88535066D01*
X146905683Y-88512381D01*
X146933653Y-88504231D01*
X146972630Y-88498751D01*
X147017765Y-88495986D01*
X147064208Y-88495976D01*
X147107107Y-88498764D01*
X147107107Y-88498764D01*
G37*
X147107107Y-88498764D02*
X147141614Y-88504396D01*
X147158337Y-88510133D01*
X147203813Y-88541463D01*
X147239946Y-88583167D01*
X147249709Y-88599846D01*
X147252773Y-88606392D01*
X147255424Y-88614073D01*
X147257692Y-88624093D01*
X147259605Y-88637653D01*
X147261195Y-88655956D01*
X147262492Y-88680203D01*
X147263524Y-88711596D01*
X147264322Y-88751339D01*
X147264916Y-88800632D01*
X147265335Y-88860678D01*
X147265610Y-88932679D01*
X147265770Y-89017838D01*
X147265846Y-89117356D01*
X147265867Y-89232436D01*
X147265867Y-89250000D01*
X147265851Y-89367372D01*
X147265785Y-89469014D01*
X147265639Y-89556126D01*
X147265382Y-89629912D01*
X147264985Y-89691572D01*
X147264417Y-89742310D01*
X147263650Y-89783328D01*
X147262653Y-89815827D01*
X147261395Y-89841010D01*
X147259849Y-89860078D01*
X147257982Y-89874235D01*
X147255767Y-89884681D01*
X147253172Y-89892620D01*
X147250168Y-89899254D01*
X147249709Y-89900154D01*
X147232602Y-89927045D01*
X147212050Y-89951424D01*
X147209492Y-89953883D01*
X147184971Y-89974456D01*
X147160888Y-89988545D01*
X147133188Y-89997305D01*
X147097820Y-90001894D01*
X147050730Y-90003468D01*
X147035571Y-90003526D01*
X146990678Y-90003013D01*
X146958443Y-90001096D01*
X146934608Y-89997200D01*
X146914917Y-89990749D01*
X146903931Y-89985715D01*
X146859735Y-89954988D01*
X146824879Y-89912955D01*
X146811617Y-89887388D01*
X146808479Y-89876174D01*
X146805930Y-89857999D01*
X146803919Y-89831383D01*
X146802397Y-89794842D01*
X146801315Y-89746896D01*
X146800623Y-89686061D01*
X146800271Y-89610856D01*
X146800200Y-89546220D01*
X146800200Y-89232297D01*
X146820982Y-89211515D01*
X146830124Y-89203157D01*
X146840016Y-89197404D01*
X146853822Y-89193771D01*
X146874706Y-89191771D01*
X146905833Y-89190921D01*
X146950366Y-89190734D01*
X146956449Y-89190733D01*
X146998273Y-89191173D01*
X147033224Y-89192380D01*
X147058234Y-89194183D01*
X147070233Y-89196412D01*
X147070843Y-89197083D01*
X147066045Y-89212448D01*
X147054211Y-89236876D01*
X147037884Y-89266156D01*
X147019610Y-89296076D01*
X147001934Y-89322424D01*
X146987399Y-89340988D01*
X146980117Y-89347258D01*
X146961067Y-89355615D01*
X146961067Y-89585969D01*
X146961095Y-89654341D01*
X146961287Y-89707845D01*
X146961808Y-89748544D01*
X146962820Y-89778504D01*
X146964486Y-89799787D01*
X146966970Y-89814460D01*
X146970436Y-89824585D01*
X146975046Y-89832229D01*
X146980964Y-89839454D01*
X146981136Y-89839654D01*
X147007625Y-89859057D01*
X147038293Y-89863606D01*
X147069175Y-89853288D01*
X147086181Y-89839934D01*
X147109233Y-89816882D01*
X147109233Y-88681344D01*
X147080640Y-88655796D01*
X147059451Y-88639500D01*
X147041690Y-88633984D01*
X147025636Y-88635529D01*
X147000793Y-88644865D01*
X146982263Y-88657755D01*
X146976729Y-88664355D01*
X146972452Y-88673192D01*
X146969202Y-88686510D01*
X146966750Y-88706555D01*
X146964866Y-88735573D01*
X146963320Y-88775808D01*
X146961885Y-88829506D01*
X146961067Y-88865212D01*
X146956833Y-89055727D01*
X146887605Y-89022235D01*
X146855644Y-89005433D01*
X146829234Y-88989075D01*
X146812476Y-88975804D01*
X146809289Y-88971762D01*
X146805526Y-88955930D01*
X146802725Y-88926577D01*
X146800864Y-88887089D01*
X146799922Y-88840849D01*
X146799876Y-88791242D01*
X146800705Y-88741653D01*
X146802386Y-88695466D01*
X146804897Y-88656064D01*
X146808217Y-88626834D01*
X146811617Y-88612611D01*
X146836178Y-88570814D01*
X146870335Y-88535066D01*
X146905683Y-88512381D01*
X146933653Y-88504231D01*
X146972630Y-88498751D01*
X147017765Y-88495986D01*
X147064208Y-88495976D01*
X147107107Y-88498764D01*
G36*
X119469800Y-89995067D02*
X119308934Y-89995067D01*
X119308934Y-89360066D01*
X119255376Y-89360066D01*
X119224310Y-89360992D01*
X119204433Y-89364886D01*
X119190051Y-89373429D01*
X119181293Y-89381905D01*
X119160767Y-89403744D01*
X119158338Y-89699405D01*
X119155908Y-89995067D01*
X118994732Y-89995067D01*
X118997316Y-89675450D01*
X118998013Y-89593282D01*
X118998712Y-89526263D01*
X118999520Y-89472611D01*
X119000541Y-89430543D01*
X119001881Y-89398274D01*
X119003646Y-89374022D01*
X119005942Y-89356003D01*
X119008873Y-89342434D01*
X119012545Y-89331532D01*
X119017064Y-89321514D01*
X119018415Y-89318784D01*
X119036931Y-89281734D01*
X119018415Y-89256695D01*
X119013481Y-89249598D01*
X119009512Y-89241848D01*
X119006403Y-89231641D01*
X119004048Y-89217170D01*
X119002344Y-89196631D01*
X119001185Y-89168218D01*
X119000466Y-89130125D01*
X119000082Y-89080549D01*
X118999928Y-89017682D01*
X118999901Y-88942064D01*
X119156236Y-88942064D01*
X119156832Y-88997830D01*
X119158034Y-89050122D01*
X119159835Y-89096045D01*
X119162226Y-89132700D01*
X119165196Y-89157192D01*
X119167409Y-89165166D01*
X119187384Y-89188952D01*
X119219004Y-89202863D01*
X119263733Y-89207539D01*
X119264484Y-89207542D01*
X119308934Y-89207667D01*
X119308934Y-88657333D01*
X119262765Y-88657333D01*
X119218450Y-88660860D01*
X119187730Y-88671962D01*
X119168687Y-88691418D01*
X119165934Y-88696765D01*
X119162692Y-88712533D01*
X119160113Y-88742209D01*
X119158187Y-88782898D01*
X119156905Y-88831701D01*
X119156258Y-88885722D01*
X119156236Y-88942064D01*
X118999901Y-88942064D01*
X118999900Y-88939721D01*
X118999900Y-88938145D01*
X118999935Y-88859746D01*
X119000109Y-88796420D01*
X119000525Y-88746309D01*
X119001287Y-88707551D01*
X119002498Y-88678288D01*
X119004262Y-88656660D01*
X119006683Y-88640806D01*
X119009864Y-88628868D01*
X119013908Y-88618984D01*
X119018126Y-88610766D01*
X119046768Y-88569263D01*
X119084481Y-88537459D01*
X119105734Y-88524974D01*
X119118257Y-88519376D01*
X119133718Y-88515136D01*
X119154704Y-88512009D01*
X119183807Y-88509752D01*
X119223615Y-88508120D01*
X119276718Y-88506868D01*
X119302584Y-88506414D01*
X119469800Y-88503662D01*
X119469800Y-89995067D01*
X119469800Y-89995067D01*
G37*
X119469800Y-89995067D02*
X119308934Y-89995067D01*
X119308934Y-89360066D01*
X119255376Y-89360066D01*
X119224310Y-89360992D01*
X119204433Y-89364886D01*
X119190051Y-89373429D01*
X119181293Y-89381905D01*
X119160767Y-89403744D01*
X119158338Y-89699405D01*
X119155908Y-89995067D01*
X118994732Y-89995067D01*
X118997316Y-89675450D01*
X118998013Y-89593282D01*
X118998712Y-89526263D01*
X118999520Y-89472611D01*
X119000541Y-89430543D01*
X119001881Y-89398274D01*
X119003646Y-89374022D01*
X119005942Y-89356003D01*
X119008873Y-89342434D01*
X119012545Y-89331532D01*
X119017064Y-89321514D01*
X119018415Y-89318784D01*
X119036931Y-89281734D01*
X119018415Y-89256695D01*
X119013481Y-89249598D01*
X119009512Y-89241848D01*
X119006403Y-89231641D01*
X119004048Y-89217170D01*
X119002344Y-89196631D01*
X119001185Y-89168218D01*
X119000466Y-89130125D01*
X119000082Y-89080549D01*
X118999928Y-89017682D01*
X118999901Y-88942064D01*
X119156236Y-88942064D01*
X119156832Y-88997830D01*
X119158034Y-89050122D01*
X119159835Y-89096045D01*
X119162226Y-89132700D01*
X119165196Y-89157192D01*
X119167409Y-89165166D01*
X119187384Y-89188952D01*
X119219004Y-89202863D01*
X119263733Y-89207539D01*
X119264484Y-89207542D01*
X119308934Y-89207667D01*
X119308934Y-88657333D01*
X119262765Y-88657333D01*
X119218450Y-88660860D01*
X119187730Y-88671962D01*
X119168687Y-88691418D01*
X119165934Y-88696765D01*
X119162692Y-88712533D01*
X119160113Y-88742209D01*
X119158187Y-88782898D01*
X119156905Y-88831701D01*
X119156258Y-88885722D01*
X119156236Y-88942064D01*
X118999901Y-88942064D01*
X118999900Y-88939721D01*
X118999900Y-88938145D01*
X118999935Y-88859746D01*
X119000109Y-88796420D01*
X119000525Y-88746309D01*
X119001287Y-88707551D01*
X119002498Y-88678288D01*
X119004262Y-88656660D01*
X119006683Y-88640806D01*
X119009864Y-88628868D01*
X119013908Y-88618984D01*
X119018126Y-88610766D01*
X119046768Y-88569263D01*
X119084481Y-88537459D01*
X119105734Y-88524974D01*
X119118257Y-88519376D01*
X119133718Y-88515136D01*
X119154704Y-88512009D01*
X119183807Y-88509752D01*
X119223615Y-88508120D01*
X119276718Y-88506868D01*
X119302584Y-88506414D01*
X119469800Y-88503662D01*
X119469800Y-89995067D01*
G36*
X121840467Y-89880449D02*
X121839464Y-89926499D01*
X121834969Y-89958281D01*
X121824752Y-89978410D01*
X121806585Y-89989505D01*
X121778236Y-89994182D01*
X121742823Y-89995067D01*
X121679046Y-89995067D01*
X121681440Y-89899817D01*
X121683833Y-89804567D01*
X121762150Y-89802132D01*
X121840467Y-89799698D01*
X121840467Y-89880449D01*
X121840467Y-89880449D01*
G37*
X121840467Y-89880449D02*
X121839464Y-89926499D01*
X121834969Y-89958281D01*
X121824752Y-89978410D01*
X121806585Y-89989505D01*
X121778236Y-89994182D01*
X121742823Y-89995067D01*
X121679046Y-89995067D01*
X121681440Y-89899817D01*
X121683833Y-89804567D01*
X121762150Y-89802132D01*
X121840467Y-89799698D01*
X121840467Y-89880449D01*
G36*
X122806613Y-88505086D02*
X122858083Y-88505625D01*
X122896764Y-88506673D01*
X122924727Y-88508351D01*
X122944045Y-88510780D01*
X122956787Y-88514083D01*
X122964650Y-88518113D01*
X122983467Y-88531293D01*
X122983467Y-89995067D01*
X122803550Y-89994735D01*
X122737863Y-89994316D01*
X122687042Y-89993247D01*
X122649027Y-89991405D01*
X122621759Y-89988667D01*
X122603178Y-89984909D01*
X122595667Y-89982255D01*
X122579327Y-89972530D01*
X122565152Y-89956813D01*
X122550288Y-89931345D01*
X122538517Y-89906941D01*
X122525042Y-89877231D01*
X122514860Y-89853746D01*
X122509666Y-89840429D01*
X122509334Y-89838988D01*
X122517361Y-89837478D01*
X122539686Y-89836164D01*
X122573673Y-89835126D01*
X122616687Y-89834444D01*
X122665967Y-89834200D01*
X122822600Y-89834200D01*
X122822600Y-89573427D01*
X122822402Y-89493435D01*
X122821777Y-89429174D01*
X122820680Y-89379445D01*
X122819066Y-89343049D01*
X122816891Y-89318789D01*
X122814109Y-89305465D01*
X122812440Y-89302493D01*
X122798502Y-89296951D01*
X122772361Y-89293347D01*
X122745179Y-89292333D01*
X122708051Y-89290167D01*
X122680326Y-89281934D01*
X122658665Y-89265031D01*
X122639728Y-89236857D01*
X122620243Y-89194967D01*
X122595300Y-89135700D01*
X122708950Y-89133344D01*
X122822600Y-89130989D01*
X122822600Y-88908554D01*
X122822352Y-88834593D01*
X122821573Y-88776328D01*
X122820208Y-88732530D01*
X122818204Y-88701969D01*
X122815507Y-88683413D01*
X122812440Y-88675960D01*
X122797915Y-88670585D01*
X122767755Y-88667161D01*
X122723163Y-88665816D01*
X122716957Y-88665800D01*
X122672232Y-88664961D01*
X122641327Y-88662187D01*
X122621199Y-88657095D01*
X122612868Y-88652656D01*
X122603182Y-88641158D01*
X122588969Y-88618945D01*
X122572681Y-88590558D01*
X122556771Y-88560536D01*
X122543690Y-88533419D01*
X122535889Y-88513747D01*
X122534734Y-88507974D01*
X122542817Y-88507131D01*
X122565533Y-88506378D01*
X122600581Y-88505748D01*
X122645661Y-88505277D01*
X122698472Y-88504997D01*
X122740283Y-88504933D01*
X122806613Y-88505086D01*
X122806613Y-88505086D01*
G37*
X122806613Y-88505086D02*
X122858083Y-88505625D01*
X122896764Y-88506673D01*
X122924727Y-88508351D01*
X122944045Y-88510780D01*
X122956787Y-88514083D01*
X122964650Y-88518113D01*
X122983467Y-88531293D01*
X122983467Y-89995067D01*
X122803550Y-89994735D01*
X122737863Y-89994316D01*
X122687042Y-89993247D01*
X122649027Y-89991405D01*
X122621759Y-89988667D01*
X122603178Y-89984909D01*
X122595667Y-89982255D01*
X122579327Y-89972530D01*
X122565152Y-89956813D01*
X122550288Y-89931345D01*
X122538517Y-89906941D01*
X122525042Y-89877231D01*
X122514860Y-89853746D01*
X122509666Y-89840429D01*
X122509334Y-89838988D01*
X122517361Y-89837478D01*
X122539686Y-89836164D01*
X122573673Y-89835126D01*
X122616687Y-89834444D01*
X122665967Y-89834200D01*
X122822600Y-89834200D01*
X122822600Y-89573427D01*
X122822402Y-89493435D01*
X122821777Y-89429174D01*
X122820680Y-89379445D01*
X122819066Y-89343049D01*
X122816891Y-89318789D01*
X122814109Y-89305465D01*
X122812440Y-89302493D01*
X122798502Y-89296951D01*
X122772361Y-89293347D01*
X122745179Y-89292333D01*
X122708051Y-89290167D01*
X122680326Y-89281934D01*
X122658665Y-89265031D01*
X122639728Y-89236857D01*
X122620243Y-89194967D01*
X122595300Y-89135700D01*
X122708950Y-89133344D01*
X122822600Y-89130989D01*
X122822600Y-88908554D01*
X122822352Y-88834593D01*
X122821573Y-88776328D01*
X122820208Y-88732530D01*
X122818204Y-88701969D01*
X122815507Y-88683413D01*
X122812440Y-88675960D01*
X122797915Y-88670585D01*
X122767755Y-88667161D01*
X122723163Y-88665816D01*
X122716957Y-88665800D01*
X122672232Y-88664961D01*
X122641327Y-88662187D01*
X122621199Y-88657095D01*
X122612868Y-88652656D01*
X122603182Y-88641158D01*
X122588969Y-88618945D01*
X122572681Y-88590558D01*
X122556771Y-88560536D01*
X122543690Y-88533419D01*
X122535889Y-88513747D01*
X122534734Y-88507974D01*
X122542817Y-88507131D01*
X122565533Y-88506378D01*
X122600581Y-88505748D01*
X122645661Y-88505277D01*
X122698472Y-88504997D01*
X122740283Y-88504933D01*
X122806613Y-88505086D01*
G36*
X125356650Y-88506051D02*
X125374331Y-88508788D01*
X125379533Y-88512407D01*
X125380773Y-88521715D01*
X125384369Y-88546545D01*
X125390140Y-88585680D01*
X125397902Y-88637898D01*
X125407474Y-88701982D01*
X125418671Y-88776713D01*
X125431313Y-88860871D01*
X125445216Y-88953236D01*
X125460198Y-89052591D01*
X125476075Y-89157716D01*
X125489563Y-89246890D01*
X125506044Y-89355912D01*
X125521779Y-89460225D01*
X125536583Y-89558604D01*
X125550275Y-89649821D01*
X125562671Y-89732651D01*
X125573588Y-89805866D01*
X125582843Y-89868240D01*
X125590253Y-89918546D01*
X125595635Y-89955558D01*
X125598807Y-89978049D01*
X125599629Y-89984779D01*
X125595494Y-89989831D01*
X125581503Y-89992785D01*
X125555347Y-89993864D01*
X125514715Y-89993296D01*
X125512883Y-89993246D01*
X125426100Y-89990833D01*
X125361350Y-89499766D01*
X125349619Y-89411079D01*
X125338542Y-89327892D01*
X125328316Y-89251634D01*
X125319135Y-89183733D01*
X125311194Y-89125616D01*
X125304688Y-89078710D01*
X125299811Y-89044444D01*
X125296760Y-89024245D01*
X125295733Y-89019287D01*
X125294357Y-89031157D01*
X125291014Y-89057923D01*
X125285951Y-89097693D01*
X125279415Y-89148575D01*
X125271654Y-89208676D01*
X125262915Y-89276106D01*
X125253445Y-89348971D01*
X125243490Y-89425380D01*
X125233300Y-89503440D01*
X125223119Y-89581260D01*
X125213197Y-89656947D01*
X125203779Y-89728610D01*
X125195113Y-89794357D01*
X125187447Y-89852294D01*
X125181027Y-89900532D01*
X125176100Y-89937176D01*
X125172915Y-89960336D01*
X125171847Y-89967550D01*
X125167100Y-89995067D01*
X125082817Y-89995067D01*
X125044464Y-89994876D01*
X125019953Y-89993853D01*
X125006193Y-89991316D01*
X125000094Y-89986586D01*
X124998564Y-89978983D01*
X124998533Y-89976530D01*
X124999825Y-89961293D01*
X125003541Y-89931269D01*
X125009448Y-89887962D01*
X125017307Y-89832875D01*
X125026885Y-89767512D01*
X125037944Y-89693374D01*
X125050249Y-89611965D01*
X125063564Y-89524789D01*
X125077653Y-89433349D01*
X125092281Y-89339147D01*
X125107211Y-89243688D01*
X125122207Y-89148473D01*
X125137033Y-89055006D01*
X125151455Y-88964791D01*
X125165235Y-88879330D01*
X125178138Y-88800126D01*
X125189928Y-88728683D01*
X125200369Y-88666504D01*
X125209225Y-88615092D01*
X125216260Y-88575950D01*
X125221239Y-88550581D01*
X125223890Y-88540539D01*
X125241643Y-88522397D01*
X125257761Y-88513022D01*
X125276770Y-88508641D01*
X125302900Y-88506002D01*
X125331184Y-88505130D01*
X125356650Y-88506051D01*
X125356650Y-88506051D01*
G37*
X125356650Y-88506051D02*
X125374331Y-88508788D01*
X125379533Y-88512407D01*
X125380773Y-88521715D01*
X125384369Y-88546545D01*
X125390140Y-88585680D01*
X125397902Y-88637898D01*
X125407474Y-88701982D01*
X125418671Y-88776713D01*
X125431313Y-88860871D01*
X125445216Y-88953236D01*
X125460198Y-89052591D01*
X125476075Y-89157716D01*
X125489563Y-89246890D01*
X125506044Y-89355912D01*
X125521779Y-89460225D01*
X125536583Y-89558604D01*
X125550275Y-89649821D01*
X125562671Y-89732651D01*
X125573588Y-89805866D01*
X125582843Y-89868240D01*
X125590253Y-89918546D01*
X125595635Y-89955558D01*
X125598807Y-89978049D01*
X125599629Y-89984779D01*
X125595494Y-89989831D01*
X125581503Y-89992785D01*
X125555347Y-89993864D01*
X125514715Y-89993296D01*
X125512883Y-89993246D01*
X125426100Y-89990833D01*
X125361350Y-89499766D01*
X125349619Y-89411079D01*
X125338542Y-89327892D01*
X125328316Y-89251634D01*
X125319135Y-89183733D01*
X125311194Y-89125616D01*
X125304688Y-89078710D01*
X125299811Y-89044444D01*
X125296760Y-89024245D01*
X125295733Y-89019287D01*
X125294357Y-89031157D01*
X125291014Y-89057923D01*
X125285951Y-89097693D01*
X125279415Y-89148575D01*
X125271654Y-89208676D01*
X125262915Y-89276106D01*
X125253445Y-89348971D01*
X125243490Y-89425380D01*
X125233300Y-89503440D01*
X125223119Y-89581260D01*
X125213197Y-89656947D01*
X125203779Y-89728610D01*
X125195113Y-89794357D01*
X125187447Y-89852294D01*
X125181027Y-89900532D01*
X125176100Y-89937176D01*
X125172915Y-89960336D01*
X125171847Y-89967550D01*
X125167100Y-89995067D01*
X125082817Y-89995067D01*
X125044464Y-89994876D01*
X125019953Y-89993853D01*
X125006193Y-89991316D01*
X125000094Y-89986586D01*
X124998564Y-89978983D01*
X124998533Y-89976530D01*
X124999825Y-89961293D01*
X125003541Y-89931269D01*
X125009448Y-89887962D01*
X125017307Y-89832875D01*
X125026885Y-89767512D01*
X125037944Y-89693374D01*
X125050249Y-89611965D01*
X125063564Y-89524789D01*
X125077653Y-89433349D01*
X125092281Y-89339147D01*
X125107211Y-89243688D01*
X125122207Y-89148473D01*
X125137033Y-89055006D01*
X125151455Y-88964791D01*
X125165235Y-88879330D01*
X125178138Y-88800126D01*
X125189928Y-88728683D01*
X125200369Y-88666504D01*
X125209225Y-88615092D01*
X125216260Y-88575950D01*
X125221239Y-88550581D01*
X125223890Y-88540539D01*
X125241643Y-88522397D01*
X125257761Y-88513022D01*
X125276770Y-88508641D01*
X125302900Y-88506002D01*
X125331184Y-88505130D01*
X125356650Y-88506051D01*
G36*
X126508745Y-88503274D02*
X126523902Y-88504239D01*
X126541304Y-88504921D01*
X126543700Y-88504933D01*
X126607200Y-88504933D01*
X126607200Y-89995067D01*
X126414584Y-89994084D01*
X126358270Y-89993625D01*
X126306940Y-89992880D01*
X126263255Y-89991914D01*
X126229880Y-89990793D01*
X126209476Y-89989581D01*
X126205034Y-89988977D01*
X126181733Y-89978119D01*
X126161230Y-89956192D01*
X126141148Y-89920534D01*
X126138136Y-89914079D01*
X126125328Y-89886985D01*
X126116319Y-89866770D01*
X126112832Y-89852436D01*
X126116594Y-89842987D01*
X126129330Y-89837427D01*
X126152766Y-89834758D01*
X126188628Y-89833984D01*
X126238640Y-89834109D01*
X126276430Y-89834200D01*
X126446334Y-89834200D01*
X126446334Y-89186500D01*
X126446252Y-89062595D01*
X126446111Y-88954546D01*
X126446063Y-88861278D01*
X126446263Y-88781713D01*
X126446864Y-88714777D01*
X126448019Y-88659394D01*
X126449883Y-88614486D01*
X126452610Y-88578980D01*
X126456352Y-88551798D01*
X126461263Y-88531865D01*
X126467498Y-88518105D01*
X126475210Y-88509441D01*
X126484553Y-88504799D01*
X126495680Y-88503102D01*
X126508745Y-88503274D01*
X126508745Y-88503274D01*
G37*
X126508745Y-88503274D02*
X126523902Y-88504239D01*
X126541304Y-88504921D01*
X126543700Y-88504933D01*
X126607200Y-88504933D01*
X126607200Y-89995067D01*
X126414584Y-89994084D01*
X126358270Y-89993625D01*
X126306940Y-89992880D01*
X126263255Y-89991914D01*
X126229880Y-89990793D01*
X126209476Y-89989581D01*
X126205034Y-89988977D01*
X126181733Y-89978119D01*
X126161230Y-89956192D01*
X126141148Y-89920534D01*
X126138136Y-89914079D01*
X126125328Y-89886985D01*
X126116319Y-89866770D01*
X126112832Y-89852436D01*
X126116594Y-89842987D01*
X126129330Y-89837427D01*
X126152766Y-89834758D01*
X126188628Y-89833984D01*
X126238640Y-89834109D01*
X126276430Y-89834200D01*
X126446334Y-89834200D01*
X126446334Y-89186500D01*
X126446252Y-89062595D01*
X126446111Y-88954546D01*
X126446063Y-88861278D01*
X126446263Y-88781713D01*
X126446864Y-88714777D01*
X126448019Y-88659394D01*
X126449883Y-88614486D01*
X126452610Y-88578980D01*
X126456352Y-88551798D01*
X126461263Y-88531865D01*
X126467498Y-88518105D01*
X126475210Y-88509441D01*
X126484553Y-88504799D01*
X126495680Y-88503102D01*
X126508745Y-88503274D01*
G36*
X127767134Y-89995067D02*
X127574517Y-89994735D01*
X127506923Y-89994357D01*
X127454248Y-89993407D01*
X127414480Y-89991771D01*
X127385610Y-89989336D01*
X127365628Y-89985988D01*
X127353934Y-89982255D01*
X127337594Y-89972530D01*
X127323418Y-89956813D01*
X127308554Y-89931345D01*
X127296784Y-89906941D01*
X127283309Y-89877231D01*
X127273127Y-89853746D01*
X127267933Y-89840429D01*
X127267600Y-89838988D01*
X127275644Y-89837533D01*
X127298087Y-89836256D01*
X127332393Y-89835228D01*
X127376029Y-89834522D01*
X127426459Y-89834209D01*
X127436934Y-89834200D01*
X127606267Y-89834200D01*
X127606396Y-89188617D01*
X127606497Y-89085443D01*
X127606747Y-88987123D01*
X127607135Y-88894979D01*
X127607647Y-88810334D01*
X127608271Y-88734512D01*
X127608994Y-88668836D01*
X127609802Y-88614629D01*
X127610684Y-88573215D01*
X127611626Y-88545916D01*
X127612616Y-88534055D01*
X127612746Y-88533717D01*
X127633201Y-88517131D01*
X127668027Y-88507610D01*
X127711544Y-88504933D01*
X127767134Y-88504933D01*
X127767134Y-89995067D01*
X127767134Y-89995067D01*
G37*
X127767134Y-89995067D02*
X127574517Y-89994735D01*
X127506923Y-89994357D01*
X127454248Y-89993407D01*
X127414480Y-89991771D01*
X127385610Y-89989336D01*
X127365628Y-89985988D01*
X127353934Y-89982255D01*
X127337594Y-89972530D01*
X127323418Y-89956813D01*
X127308554Y-89931345D01*
X127296784Y-89906941D01*
X127283309Y-89877231D01*
X127273127Y-89853746D01*
X127267933Y-89840429D01*
X127267600Y-89838988D01*
X127275644Y-89837533D01*
X127298087Y-89836256D01*
X127332393Y-89835228D01*
X127376029Y-89834522D01*
X127426459Y-89834209D01*
X127436934Y-89834200D01*
X127606267Y-89834200D01*
X127606396Y-89188617D01*
X127606497Y-89085443D01*
X127606747Y-88987123D01*
X127607135Y-88894979D01*
X127607647Y-88810334D01*
X127608271Y-88734512D01*
X127608994Y-88668836D01*
X127609802Y-88614629D01*
X127610684Y-88573215D01*
X127611626Y-88545916D01*
X127612616Y-88534055D01*
X127612746Y-88533717D01*
X127633201Y-88517131D01*
X127668027Y-88507610D01*
X127711544Y-88504933D01*
X127767134Y-88504933D01*
X127767134Y-89995067D01*
G36*
X128816871Y-89235183D02*
X128816755Y-89364029D01*
X128816462Y-89482778D01*
X128815999Y-89590672D01*
X128815374Y-89686950D01*
X128814597Y-89770853D01*
X128813676Y-89841620D01*
X128812618Y-89898492D01*
X128811432Y-89940709D01*
X128810127Y-89967511D01*
X128808714Y-89978133D01*
X128798574Y-89985243D01*
X128777147Y-89990098D01*
X128741993Y-89993172D01*
X128728410Y-89993819D01*
X128656134Y-89996804D01*
X128656134Y-88546497D01*
X128676915Y-88525715D01*
X128690314Y-88514499D01*
X128705742Y-88508197D01*
X128728414Y-88505461D01*
X128757349Y-88504933D01*
X128817000Y-88504933D01*
X128816871Y-89235183D01*
X128816871Y-89235183D01*
G37*
X128816871Y-89235183D02*
X128816755Y-89364029D01*
X128816462Y-89482778D01*
X128815999Y-89590672D01*
X128815374Y-89686950D01*
X128814597Y-89770853D01*
X128813676Y-89841620D01*
X128812618Y-89898492D01*
X128811432Y-89940709D01*
X128810127Y-89967511D01*
X128808714Y-89978133D01*
X128798574Y-89985243D01*
X128777147Y-89990098D01*
X128741993Y-89993172D01*
X128728410Y-89993819D01*
X128656134Y-89996804D01*
X128656134Y-88546497D01*
X128676915Y-88525715D01*
X128690314Y-88514499D01*
X128705742Y-88508197D01*
X128728414Y-88505461D01*
X128757349Y-88504933D01*
X128817000Y-88504933D01*
X128816871Y-89235183D01*
G36*
X129687681Y-88505163D02*
X129711621Y-88506348D01*
X129725277Y-88509234D01*
X129731971Y-88514563D01*
X129735028Y-88523080D01*
X129735229Y-88523983D01*
X129737253Y-88535784D01*
X129741548Y-88562718D01*
X129747866Y-88603175D01*
X129755961Y-88655543D01*
X129765584Y-88718212D01*
X129776487Y-88789570D01*
X129788422Y-88868006D01*
X129801143Y-88951909D01*
X129807765Y-88995702D01*
X129820696Y-89081094D01*
X129832905Y-89161304D01*
X129844153Y-89234798D01*
X129854203Y-89300043D01*
X129862816Y-89355505D01*
X129869755Y-89399649D01*
X129874783Y-89430942D01*
X129877661Y-89447851D01*
X129878238Y-89450460D01*
X129879859Y-89442753D01*
X129883744Y-89419839D01*
X129889652Y-89383259D01*
X129897341Y-89334554D01*
X129906571Y-89275264D01*
X129917101Y-89206929D01*
X129928691Y-89131090D01*
X129941101Y-89049287D01*
X129946318Y-89014724D01*
X129959204Y-88929758D01*
X129971578Y-88849180D01*
X129983170Y-88774674D01*
X129993711Y-88707924D01*
X130002933Y-88650613D01*
X130010565Y-88604425D01*
X130016340Y-88571043D01*
X130019988Y-88552152D01*
X130020699Y-88549318D01*
X130029836Y-88528517D01*
X130044258Y-88515224D01*
X130067348Y-88507932D01*
X130102491Y-88505133D01*
X130120310Y-88504933D01*
X130151612Y-88505371D01*
X130169602Y-88507378D01*
X130177894Y-88511990D01*
X130180103Y-88520246D01*
X130180134Y-88522110D01*
X130178831Y-88536797D01*
X130175083Y-88566362D01*
X130169130Y-88609286D01*
X130161210Y-88664052D01*
X130151563Y-88729142D01*
X130140429Y-88803039D01*
X130128047Y-88884225D01*
X130114657Y-88971182D01*
X130100498Y-89062393D01*
X130085809Y-89156341D01*
X130070831Y-89251507D01*
X130055803Y-89346374D01*
X130040964Y-89439425D01*
X130026553Y-89529141D01*
X130012811Y-89614005D01*
X129999977Y-89692501D01*
X129988289Y-89763109D01*
X129977989Y-89824312D01*
X129969314Y-89874594D01*
X129962506Y-89912435D01*
X129957802Y-89936319D01*
X129955662Y-89944468D01*
X129932059Y-89972558D01*
X129896025Y-89989395D01*
X129847373Y-89995066D01*
X129846793Y-89995067D01*
X129820026Y-89994447D01*
X129805563Y-89991183D01*
X129798783Y-89983166D01*
X129795760Y-89971783D01*
X129793788Y-89959992D01*
X129789478Y-89932741D01*
X129783026Y-89891312D01*
X129774628Y-89836986D01*
X129764482Y-89771046D01*
X129752784Y-89694774D01*
X129739730Y-89609452D01*
X129725519Y-89516361D01*
X129710346Y-89416784D01*
X129694408Y-89312004D01*
X129684989Y-89250000D01*
X129668699Y-89142811D01*
X129653058Y-89040089D01*
X129638262Y-88943119D01*
X129624508Y-88853180D01*
X129611994Y-88771555D01*
X129600916Y-88699527D01*
X129591472Y-88638378D01*
X129583859Y-88589389D01*
X129578273Y-88553842D01*
X129574911Y-88533020D01*
X129574063Y-88528216D01*
X129569188Y-88504933D01*
X129650133Y-88504933D01*
X129687681Y-88505163D01*
X129687681Y-88505163D01*
G37*
X129687681Y-88505163D02*
X129711621Y-88506348D01*
X129725277Y-88509234D01*
X129731971Y-88514563D01*
X129735028Y-88523080D01*
X129735229Y-88523983D01*
X129737253Y-88535784D01*
X129741548Y-88562718D01*
X129747866Y-88603175D01*
X129755961Y-88655543D01*
X129765584Y-88718212D01*
X129776487Y-88789570D01*
X129788422Y-88868006D01*
X129801143Y-88951909D01*
X129807765Y-88995702D01*
X129820696Y-89081094D01*
X129832905Y-89161304D01*
X129844153Y-89234798D01*
X129854203Y-89300043D01*
X129862816Y-89355505D01*
X129869755Y-89399649D01*
X129874783Y-89430942D01*
X129877661Y-89447851D01*
X129878238Y-89450460D01*
X129879859Y-89442753D01*
X129883744Y-89419839D01*
X129889652Y-89383259D01*
X129897341Y-89334554D01*
X129906571Y-89275264D01*
X129917101Y-89206929D01*
X129928691Y-89131090D01*
X129941101Y-89049287D01*
X129946318Y-89014724D01*
X129959204Y-88929758D01*
X129971578Y-88849180D01*
X129983170Y-88774674D01*
X129993711Y-88707924D01*
X130002933Y-88650613D01*
X130010565Y-88604425D01*
X130016340Y-88571043D01*
X130019988Y-88552152D01*
X130020699Y-88549318D01*
X130029836Y-88528517D01*
X130044258Y-88515224D01*
X130067348Y-88507932D01*
X130102491Y-88505133D01*
X130120310Y-88504933D01*
X130151612Y-88505371D01*
X130169602Y-88507378D01*
X130177894Y-88511990D01*
X130180103Y-88520246D01*
X130180134Y-88522110D01*
X130178831Y-88536797D01*
X130175083Y-88566362D01*
X130169130Y-88609286D01*
X130161210Y-88664052D01*
X130151563Y-88729142D01*
X130140429Y-88803039D01*
X130128047Y-88884225D01*
X130114657Y-88971182D01*
X130100498Y-89062393D01*
X130085809Y-89156341D01*
X130070831Y-89251507D01*
X130055803Y-89346374D01*
X130040964Y-89439425D01*
X130026553Y-89529141D01*
X130012811Y-89614005D01*
X129999977Y-89692501D01*
X129988289Y-89763109D01*
X129977989Y-89824312D01*
X129969314Y-89874594D01*
X129962506Y-89912435D01*
X129957802Y-89936319D01*
X129955662Y-89944468D01*
X129932059Y-89972558D01*
X129896025Y-89989395D01*
X129847373Y-89995066D01*
X129846793Y-89995067D01*
X129820026Y-89994447D01*
X129805563Y-89991183D01*
X129798783Y-89983166D01*
X129795760Y-89971783D01*
X129793788Y-89959992D01*
X129789478Y-89932741D01*
X129783026Y-89891312D01*
X129774628Y-89836986D01*
X129764482Y-89771046D01*
X129752784Y-89694774D01*
X129739730Y-89609452D01*
X129725519Y-89516361D01*
X129710346Y-89416784D01*
X129694408Y-89312004D01*
X129684989Y-89250000D01*
X129668699Y-89142811D01*
X129653058Y-89040089D01*
X129638262Y-88943119D01*
X129624508Y-88853180D01*
X129611994Y-88771555D01*
X129600916Y-88699527D01*
X129591472Y-88638378D01*
X129583859Y-88589389D01*
X129578273Y-88553842D01*
X129574911Y-88533020D01*
X129574063Y-88528216D01*
X129569188Y-88504933D01*
X129650133Y-88504933D01*
X129687681Y-88505163D01*
G36*
X132453142Y-88504924D02*
X132509711Y-88505551D01*
X132553901Y-88507167D01*
X132587232Y-88510197D01*
X132611221Y-88515067D01*
X132627384Y-88522203D01*
X132637240Y-88532030D01*
X132642308Y-88544975D01*
X132644103Y-88561462D01*
X132644144Y-88581918D01*
X132643933Y-88602300D01*
X132643933Y-88665800D01*
X132432267Y-88665800D01*
X132432267Y-89968706D01*
X132413450Y-89981886D01*
X132391225Y-89990518D01*
X132354860Y-89994626D01*
X132333016Y-89995067D01*
X132271400Y-89995067D01*
X132271400Y-89340593D01*
X132271337Y-89212589D01*
X132271139Y-89100664D01*
X132270794Y-89003962D01*
X132270287Y-88921630D01*
X132269607Y-88852813D01*
X132268740Y-88796656D01*
X132267672Y-88752305D01*
X132266392Y-88718905D01*
X132264885Y-88695602D01*
X132263139Y-88681542D01*
X132261240Y-88675960D01*
X132246807Y-88670558D01*
X132217233Y-88667070D01*
X132174226Y-88665689D01*
X132170224Y-88665675D01*
X132129439Y-88664479D01*
X132095292Y-88661330D01*
X132072254Y-88656692D01*
X132068200Y-88655092D01*
X132051540Y-88640098D01*
X132031785Y-88610993D01*
X132015823Y-88581133D01*
X132001428Y-88551255D01*
X131990403Y-88527251D01*
X131984557Y-88513103D01*
X131984073Y-88511283D01*
X131992104Y-88509845D01*
X132015209Y-88508522D01*
X132051528Y-88507350D01*
X132099203Y-88506367D01*
X132156375Y-88505612D01*
X132221183Y-88505121D01*
X132291770Y-88504934D01*
X132296800Y-88504933D01*
X132382678Y-88504860D01*
X132453142Y-88504924D01*
X132453142Y-88504924D01*
G37*
X132453142Y-88504924D02*
X132509711Y-88505551D01*
X132553901Y-88507167D01*
X132587232Y-88510197D01*
X132611221Y-88515067D01*
X132627384Y-88522203D01*
X132637240Y-88532030D01*
X132642308Y-88544975D01*
X132644103Y-88561462D01*
X132644144Y-88581918D01*
X132643933Y-88602300D01*
X132643933Y-88665800D01*
X132432267Y-88665800D01*
X132432267Y-89968706D01*
X132413450Y-89981886D01*
X132391225Y-89990518D01*
X132354860Y-89994626D01*
X132333016Y-89995067D01*
X132271400Y-89995067D01*
X132271400Y-89340593D01*
X132271337Y-89212589D01*
X132271139Y-89100664D01*
X132270794Y-89003962D01*
X132270287Y-88921630D01*
X132269607Y-88852813D01*
X132268740Y-88796656D01*
X132267672Y-88752305D01*
X132266392Y-88718905D01*
X132264885Y-88695602D01*
X132263139Y-88681542D01*
X132261240Y-88675960D01*
X132246807Y-88670558D01*
X132217233Y-88667070D01*
X132174226Y-88665689D01*
X132170224Y-88665675D01*
X132129439Y-88664479D01*
X132095292Y-88661330D01*
X132072254Y-88656692D01*
X132068200Y-88655092D01*
X132051540Y-88640098D01*
X132031785Y-88610993D01*
X132015823Y-88581133D01*
X132001428Y-88551255D01*
X131990403Y-88527251D01*
X131984557Y-88513103D01*
X131984073Y-88511283D01*
X131992104Y-88509845D01*
X132015209Y-88508522D01*
X132051528Y-88507350D01*
X132099203Y-88506367D01*
X132156375Y-88505612D01*
X132221183Y-88505121D01*
X132291770Y-88504934D01*
X132296800Y-88504933D01*
X132382678Y-88504860D01*
X132453142Y-88504924D01*
G36*
X133744600Y-89241235D02*
X133744687Y-89372162D01*
X133744859Y-89487175D01*
X133744986Y-89587296D01*
X133744936Y-89673543D01*
X133744580Y-89746936D01*
X133743785Y-89808493D01*
X133742422Y-89859235D01*
X133740359Y-89900181D01*
X133737465Y-89932351D01*
X133733609Y-89956763D01*
X133728661Y-89974437D01*
X133722489Y-89986392D01*
X133714963Y-89993648D01*
X133705951Y-89997225D01*
X133695324Y-89998141D01*
X133682949Y-89997417D01*
X133668696Y-89996070D01*
X133652433Y-89995122D01*
X133647790Y-89995067D01*
X133583733Y-89995067D01*
X133583733Y-89326200D01*
X133511495Y-89326200D01*
X133456205Y-89323438D01*
X133413059Y-89314330D01*
X133378058Y-89297642D01*
X133352241Y-89277067D01*
X133332538Y-89255953D01*
X133316588Y-89232509D01*
X133304022Y-89204790D01*
X133294473Y-89170848D01*
X133287571Y-89128737D01*
X133282947Y-89076510D01*
X133280232Y-89012219D01*
X133279847Y-88986527D01*
X133440025Y-88986527D01*
X133440187Y-89037771D01*
X133440725Y-89076262D01*
X133441806Y-89104092D01*
X133443598Y-89123350D01*
X133446268Y-89136128D01*
X133449985Y-89144515D01*
X133454917Y-89150602D01*
X133458850Y-89154313D01*
X133477649Y-89169212D01*
X133496654Y-89177379D01*
X133522274Y-89180878D01*
X133543517Y-89181598D01*
X133583733Y-89182267D01*
X133583733Y-88657333D01*
X133540844Y-88657333D01*
X133496858Y-88661901D01*
X133465240Y-88676106D01*
X133450653Y-88690466D01*
X133447162Y-88700604D01*
X133444438Y-88721709D01*
X133442423Y-88755035D01*
X133441060Y-88801833D01*
X133440291Y-88863357D01*
X133440069Y-88920441D01*
X133440025Y-88986527D01*
X133279847Y-88986527D01*
X133279058Y-88933919D01*
X133278933Y-88890148D01*
X133279236Y-88814669D01*
X133280414Y-88753926D01*
X133282873Y-88705727D01*
X133287021Y-88667880D01*
X133293264Y-88638194D01*
X133302008Y-88614478D01*
X133313659Y-88594540D01*
X133328624Y-88576190D01*
X133339196Y-88565196D01*
X133361346Y-88545377D01*
X133384772Y-88530317D01*
X133412149Y-88519402D01*
X133446153Y-88512022D01*
X133489458Y-88507561D01*
X133544740Y-88505407D01*
X133602204Y-88504933D01*
X133744600Y-88504933D01*
X133744600Y-89241235D01*
X133744600Y-89241235D01*
G37*
X133744600Y-89241235D02*
X133744687Y-89372162D01*
X133744859Y-89487175D01*
X133744986Y-89587296D01*
X133744936Y-89673543D01*
X133744580Y-89746936D01*
X133743785Y-89808493D01*
X133742422Y-89859235D01*
X133740359Y-89900181D01*
X133737465Y-89932351D01*
X133733609Y-89956763D01*
X133728661Y-89974437D01*
X133722489Y-89986392D01*
X133714963Y-89993648D01*
X133705951Y-89997225D01*
X133695324Y-89998141D01*
X133682949Y-89997417D01*
X133668696Y-89996070D01*
X133652433Y-89995122D01*
X133647790Y-89995067D01*
X133583733Y-89995067D01*
X133583733Y-89326200D01*
X133511495Y-89326200D01*
X133456205Y-89323438D01*
X133413059Y-89314330D01*
X133378058Y-89297642D01*
X133352241Y-89277067D01*
X133332538Y-89255953D01*
X133316588Y-89232509D01*
X133304022Y-89204790D01*
X133294473Y-89170848D01*
X133287571Y-89128737D01*
X133282947Y-89076510D01*
X133280232Y-89012219D01*
X133279847Y-88986527D01*
X133440025Y-88986527D01*
X133440187Y-89037771D01*
X133440725Y-89076262D01*
X133441806Y-89104092D01*
X133443598Y-89123350D01*
X133446268Y-89136128D01*
X133449985Y-89144515D01*
X133454917Y-89150602D01*
X133458850Y-89154313D01*
X133477649Y-89169212D01*
X133496654Y-89177379D01*
X133522274Y-89180878D01*
X133543517Y-89181598D01*
X133583733Y-89182267D01*
X133583733Y-88657333D01*
X133540844Y-88657333D01*
X133496858Y-88661901D01*
X133465240Y-88676106D01*
X133450653Y-88690466D01*
X133447162Y-88700604D01*
X133444438Y-88721709D01*
X133442423Y-88755035D01*
X133441060Y-88801833D01*
X133440291Y-88863357D01*
X133440069Y-88920441D01*
X133440025Y-88986527D01*
X133279847Y-88986527D01*
X133279058Y-88933919D01*
X133278933Y-88890148D01*
X133279236Y-88814669D01*
X133280414Y-88753926D01*
X133282873Y-88705727D01*
X133287021Y-88667880D01*
X133293264Y-88638194D01*
X133302008Y-88614478D01*
X133313659Y-88594540D01*
X133328624Y-88576190D01*
X133339196Y-88565196D01*
X133361346Y-88545377D01*
X133384772Y-88530317D01*
X133412149Y-88519402D01*
X133446153Y-88512022D01*
X133489458Y-88507561D01*
X133544740Y-88505407D01*
X133602204Y-88504933D01*
X133744600Y-88504933D01*
X133744600Y-89241235D01*
G36*
X134606951Y-88505792D02*
X134623392Y-88509238D01*
X134636832Y-88516805D01*
X134648036Y-88530074D01*
X134657768Y-88550628D01*
X134666790Y-88580047D01*
X134675867Y-88619915D01*
X134685762Y-88671813D01*
X134697238Y-88737323D01*
X134709915Y-88811364D01*
X134721151Y-88876212D01*
X134731597Y-88935214D01*
X134740892Y-88986431D01*
X134748676Y-89027923D01*
X134754587Y-89057751D01*
X134758265Y-89073975D01*
X134759246Y-89076376D01*
X134761266Y-89067789D01*
X134765737Y-89044949D01*
X134772227Y-89010292D01*
X134780305Y-88966252D01*
X134789537Y-88915263D01*
X134799491Y-88859759D01*
X134809736Y-88802174D01*
X134819839Y-88744943D01*
X134829368Y-88690501D01*
X134837891Y-88641280D01*
X134844975Y-88599715D01*
X134850189Y-88568242D01*
X134853100Y-88549293D01*
X134853561Y-88545150D01*
X134859089Y-88535108D01*
X134870667Y-88521867D01*
X134882291Y-88513066D01*
X134898261Y-88507891D01*
X134922927Y-88505472D01*
X134955495Y-88504933D01*
X134989065Y-88505159D01*
X135008908Y-88506479D01*
X135018227Y-88509859D01*
X135020227Y-88516262D01*
X135018766Y-88523983D01*
X135016163Y-88535804D01*
X135010433Y-88562548D01*
X135001926Y-88602568D01*
X134990990Y-88654214D01*
X134977974Y-88715837D01*
X134963226Y-88785788D01*
X134947095Y-88862419D01*
X134929929Y-88944080D01*
X134925472Y-88965305D01*
X134836800Y-89387576D01*
X134836800Y-89968706D01*
X134817983Y-89981886D01*
X134795759Y-89990518D01*
X134759394Y-89994626D01*
X134737550Y-89995067D01*
X134675934Y-89995067D01*
X134675934Y-89362862D01*
X134587034Y-88940363D01*
X134569769Y-88858190D01*
X134553610Y-88781042D01*
X134538886Y-88710503D01*
X134525924Y-88648159D01*
X134515054Y-88595594D01*
X134506602Y-88554393D01*
X134500899Y-88526142D01*
X134498273Y-88512424D01*
X134498133Y-88511398D01*
X134505911Y-88508316D01*
X134526492Y-88506032D01*
X134555752Y-88504964D01*
X134562018Y-88504933D01*
X134586748Y-88504884D01*
X134606951Y-88505792D01*
X134606951Y-88505792D01*
G37*
X134606951Y-88505792D02*
X134623392Y-88509238D01*
X134636832Y-88516805D01*
X134648036Y-88530074D01*
X134657768Y-88550628D01*
X134666790Y-88580047D01*
X134675867Y-88619915D01*
X134685762Y-88671813D01*
X134697238Y-88737323D01*
X134709915Y-88811364D01*
X134721151Y-88876212D01*
X134731597Y-88935214D01*
X134740892Y-88986431D01*
X134748676Y-89027923D01*
X134754587Y-89057751D01*
X134758265Y-89073975D01*
X134759246Y-89076376D01*
X134761266Y-89067789D01*
X134765737Y-89044949D01*
X134772227Y-89010292D01*
X134780305Y-88966252D01*
X134789537Y-88915263D01*
X134799491Y-88859759D01*
X134809736Y-88802174D01*
X134819839Y-88744943D01*
X134829368Y-88690501D01*
X134837891Y-88641280D01*
X134844975Y-88599715D01*
X134850189Y-88568242D01*
X134853100Y-88549293D01*
X134853561Y-88545150D01*
X134859089Y-88535108D01*
X134870667Y-88521867D01*
X134882291Y-88513066D01*
X134898261Y-88507891D01*
X134922927Y-88505472D01*
X134955495Y-88504933D01*
X134989065Y-88505159D01*
X135008908Y-88506479D01*
X135018227Y-88509859D01*
X135020227Y-88516262D01*
X135018766Y-88523983D01*
X135016163Y-88535804D01*
X135010433Y-88562548D01*
X135001926Y-88602568D01*
X134990990Y-88654214D01*
X134977974Y-88715837D01*
X134963226Y-88785788D01*
X134947095Y-88862419D01*
X134929929Y-88944080D01*
X134925472Y-88965305D01*
X134836800Y-89387576D01*
X134836800Y-89968706D01*
X134817983Y-89981886D01*
X134795759Y-89990518D01*
X134759394Y-89994626D01*
X134737550Y-89995067D01*
X134675934Y-89995067D01*
X134675934Y-89362862D01*
X134587034Y-88940363D01*
X134569769Y-88858190D01*
X134553610Y-88781042D01*
X134538886Y-88710503D01*
X134525924Y-88648159D01*
X134515054Y-88595594D01*
X134506602Y-88554393D01*
X134500899Y-88526142D01*
X134498273Y-88512424D01*
X134498133Y-88511398D01*
X134505911Y-88508316D01*
X134526492Y-88506032D01*
X134555752Y-88504964D01*
X134562018Y-88504933D01*
X134586748Y-88504884D01*
X134606951Y-88505792D01*
G36*
X136208400Y-89995067D02*
X136047534Y-89995067D01*
X136047534Y-89360066D01*
X135998617Y-89360067D01*
X135957870Y-89363512D01*
X135929960Y-89375012D01*
X135912011Y-89396311D01*
X135903976Y-89417466D01*
X135901570Y-89434794D01*
X135899471Y-89467273D01*
X135897732Y-89513121D01*
X135896404Y-89570560D01*
X135895538Y-89637807D01*
X135895186Y-89713082D01*
X135895181Y-89722017D01*
X135895134Y-89995067D01*
X135733010Y-89995067D01*
X135735755Y-89675450D01*
X135736482Y-89593443D01*
X135737189Y-89526591D01*
X135737988Y-89473116D01*
X135738989Y-89431241D01*
X135740306Y-89399187D01*
X135742048Y-89375176D01*
X135744329Y-89357430D01*
X135747259Y-89344173D01*
X135750951Y-89333625D01*
X135755515Y-89324009D01*
X135758133Y-89319044D01*
X135769423Y-89296313D01*
X135772702Y-89282642D01*
X135768656Y-89272561D01*
X135764554Y-89267656D01*
X135755456Y-89251169D01*
X135746730Y-89225086D01*
X135742804Y-89208039D01*
X135740224Y-89185333D01*
X135738139Y-89148934D01*
X135736547Y-89101678D01*
X135735445Y-89046396D01*
X135734830Y-88985922D01*
X135734698Y-88923090D01*
X135735048Y-88860732D01*
X135735877Y-88801682D01*
X135737180Y-88748773D01*
X135738957Y-88704839D01*
X135739420Y-88698210D01*
X135899367Y-88698210D01*
X135899367Y-88930476D01*
X135899445Y-89002418D01*
X135899879Y-89059342D01*
X135900968Y-89103164D01*
X135903011Y-89135799D01*
X135906307Y-89159163D01*
X135911156Y-89175171D01*
X135917856Y-89185739D01*
X135926708Y-89192782D01*
X135938009Y-89198216D01*
X135941406Y-89199610D01*
X135959728Y-89203766D01*
X135987125Y-89206541D01*
X136003084Y-89207130D01*
X136047534Y-89207667D01*
X136047534Y-88657333D01*
X135997206Y-88657333D01*
X135965131Y-88658796D01*
X135943351Y-88664376D01*
X135925390Y-88675859D01*
X135923122Y-88677772D01*
X135899367Y-88698210D01*
X135739420Y-88698210D01*
X135741203Y-88672713D01*
X135743356Y-88657333D01*
X135763672Y-88603752D01*
X135797614Y-88559920D01*
X135833561Y-88532918D01*
X135847810Y-88524796D01*
X135860854Y-88518733D01*
X135875432Y-88514378D01*
X135894285Y-88511381D01*
X135920152Y-88509393D01*
X135955772Y-88508064D01*
X136003885Y-88507044D01*
X136041184Y-88506414D01*
X136208400Y-88503662D01*
X136208400Y-89995067D01*
X136208400Y-89995067D01*
G37*
X136208400Y-89995067D02*
X136047534Y-89995067D01*
X136047534Y-89360066D01*
X135998617Y-89360067D01*
X135957870Y-89363512D01*
X135929960Y-89375012D01*
X135912011Y-89396311D01*
X135903976Y-89417466D01*
X135901570Y-89434794D01*
X135899471Y-89467273D01*
X135897732Y-89513121D01*
X135896404Y-89570560D01*
X135895538Y-89637807D01*
X135895186Y-89713082D01*
X135895181Y-89722017D01*
X135895134Y-89995067D01*
X135733010Y-89995067D01*
X135735755Y-89675450D01*
X135736482Y-89593443D01*
X135737189Y-89526591D01*
X135737988Y-89473116D01*
X135738989Y-89431241D01*
X135740306Y-89399187D01*
X135742048Y-89375176D01*
X135744329Y-89357430D01*
X135747259Y-89344173D01*
X135750951Y-89333625D01*
X135755515Y-89324009D01*
X135758133Y-89319044D01*
X135769423Y-89296313D01*
X135772702Y-89282642D01*
X135768656Y-89272561D01*
X135764554Y-89267656D01*
X135755456Y-89251169D01*
X135746730Y-89225086D01*
X135742804Y-89208039D01*
X135740224Y-89185333D01*
X135738139Y-89148934D01*
X135736547Y-89101678D01*
X135735445Y-89046396D01*
X135734830Y-88985922D01*
X135734698Y-88923090D01*
X135735048Y-88860732D01*
X135735877Y-88801682D01*
X135737180Y-88748773D01*
X135738957Y-88704839D01*
X135739420Y-88698210D01*
X135899367Y-88698210D01*
X135899367Y-88930476D01*
X135899445Y-89002418D01*
X135899879Y-89059342D01*
X135900968Y-89103164D01*
X135903011Y-89135799D01*
X135906307Y-89159163D01*
X135911156Y-89175171D01*
X135917856Y-89185739D01*
X135926708Y-89192782D01*
X135938009Y-89198216D01*
X135941406Y-89199610D01*
X135959728Y-89203766D01*
X135987125Y-89206541D01*
X136003084Y-89207130D01*
X136047534Y-89207667D01*
X136047534Y-88657333D01*
X135997206Y-88657333D01*
X135965131Y-88658796D01*
X135943351Y-88664376D01*
X135925390Y-88675859D01*
X135923122Y-88677772D01*
X135899367Y-88698210D01*
X135739420Y-88698210D01*
X135741203Y-88672713D01*
X135743356Y-88657333D01*
X135763672Y-88603752D01*
X135797614Y-88559920D01*
X135833561Y-88532918D01*
X135847810Y-88524796D01*
X135860854Y-88518733D01*
X135875432Y-88514378D01*
X135894285Y-88511381D01*
X135920152Y-88509393D01*
X135955772Y-88508064D01*
X136003885Y-88507044D01*
X136041184Y-88506414D01*
X136208400Y-88503662D01*
X136208400Y-89995067D01*
G36*
X138579067Y-89880449D02*
X138578064Y-89926499D01*
X138573569Y-89958281D01*
X138563352Y-89978410D01*
X138545185Y-89989505D01*
X138516836Y-89994182D01*
X138481423Y-89995067D01*
X138417646Y-89995067D01*
X138422434Y-89804567D01*
X138500750Y-89802132D01*
X138579067Y-89799698D01*
X138579067Y-89880449D01*
X138579067Y-89880449D01*
G37*
X138579067Y-89880449D02*
X138578064Y-89926499D01*
X138573569Y-89958281D01*
X138563352Y-89978410D01*
X138545185Y-89989505D01*
X138516836Y-89994182D01*
X138481423Y-89995067D01*
X138417646Y-89995067D01*
X138422434Y-89804567D01*
X138500750Y-89802132D01*
X138579067Y-89799698D01*
X138579067Y-89880449D01*
G36*
X142321334Y-89995067D02*
X142166817Y-89994695D01*
X142101144Y-89994015D01*
X142050594Y-89992252D01*
X142013382Y-89989290D01*
X141987727Y-89985013D01*
X141978923Y-89982433D01*
X141927621Y-89955898D01*
X141887966Y-89917562D01*
X141861170Y-89868708D01*
X141855803Y-89852129D01*
X141853498Y-89835376D01*
X141851458Y-89804075D01*
X141849757Y-89760612D01*
X141848470Y-89707371D01*
X141847672Y-89646737D01*
X141847628Y-89635062D01*
X142009084Y-89635062D01*
X142009242Y-89691218D01*
X142010482Y-89734349D01*
X142013066Y-89766402D01*
X142017255Y-89789328D01*
X142023310Y-89805076D01*
X142031493Y-89815594D01*
X142042065Y-89822831D01*
X142044653Y-89824135D01*
X142063290Y-89829211D01*
X142091420Y-89832700D01*
X142111784Y-89833627D01*
X142160467Y-89834200D01*
X142160467Y-89326200D01*
X142106371Y-89326200D01*
X142070747Y-89327894D01*
X142046802Y-89333700D01*
X142032288Y-89342372D01*
X142026045Y-89347799D01*
X142021231Y-89354133D01*
X142017629Y-89363515D01*
X142015020Y-89378088D01*
X142013186Y-89399995D01*
X142011910Y-89431377D01*
X142010974Y-89474377D01*
X142010159Y-89531138D01*
X142009746Y-89563930D01*
X142009084Y-89635062D01*
X141847628Y-89635062D01*
X141847433Y-89584433D01*
X141847567Y-89513732D01*
X141847961Y-89457832D01*
X141848739Y-89414601D01*
X141850027Y-89381909D01*
X141851951Y-89357623D01*
X141854634Y-89339612D01*
X141858203Y-89325745D01*
X141862782Y-89313889D01*
X141863403Y-89312505D01*
X141877617Y-89287655D01*
X141893856Y-89268004D01*
X141898575Y-89264097D01*
X141917916Y-89250550D01*
X141895924Y-89233250D01*
X141882545Y-89221538D01*
X141871800Y-89208413D01*
X141863432Y-89192007D01*
X141857179Y-89170451D01*
X141852783Y-89141877D01*
X141849985Y-89104417D01*
X141848525Y-89056202D01*
X141848143Y-88995364D01*
X141848581Y-88920034D01*
X141848836Y-88894037D01*
X141849642Y-88822136D01*
X141850493Y-88765108D01*
X141851542Y-88720893D01*
X141851775Y-88715297D01*
X142008067Y-88715297D01*
X142008067Y-88915336D01*
X142008270Y-88982366D01*
X142008958Y-89034530D01*
X142010245Y-89073889D01*
X142012246Y-89102507D01*
X142015076Y-89122447D01*
X142018851Y-89135771D01*
X142020589Y-89139589D01*
X142030245Y-89155767D01*
X142041482Y-89165573D01*
X142058603Y-89170664D01*
X142085909Y-89172702D01*
X142107550Y-89173131D01*
X142160467Y-89173800D01*
X142160467Y-88665800D01*
X142109016Y-88665800D01*
X142078632Y-88666789D01*
X142058796Y-88671130D01*
X142043171Y-88680880D01*
X142032816Y-88690549D01*
X142008067Y-88715297D01*
X141851775Y-88715297D01*
X141852939Y-88687431D01*
X141854836Y-88662661D01*
X141857384Y-88644523D01*
X141860736Y-88630957D01*
X141865041Y-88619903D01*
X141869660Y-88610766D01*
X141898301Y-88569263D01*
X141936015Y-88537459D01*
X141957267Y-88524974D01*
X141969791Y-88519376D01*
X141985251Y-88515136D01*
X142006238Y-88512009D01*
X142035340Y-88509752D01*
X142075148Y-88508120D01*
X142128251Y-88506868D01*
X142154117Y-88506414D01*
X142321334Y-88503662D01*
X142321334Y-89995067D01*
X142321334Y-89995067D01*
G37*
X142321334Y-89995067D02*
X142166817Y-89994695D01*
X142101144Y-89994015D01*
X142050594Y-89992252D01*
X142013382Y-89989290D01*
X141987727Y-89985013D01*
X141978923Y-89982433D01*
X141927621Y-89955898D01*
X141887966Y-89917562D01*
X141861170Y-89868708D01*
X141855803Y-89852129D01*
X141853498Y-89835376D01*
X141851458Y-89804075D01*
X141849757Y-89760612D01*
X141848470Y-89707371D01*
X141847672Y-89646737D01*
X141847628Y-89635062D01*
X142009084Y-89635062D01*
X142009242Y-89691218D01*
X142010482Y-89734349D01*
X142013066Y-89766402D01*
X142017255Y-89789328D01*
X142023310Y-89805076D01*
X142031493Y-89815594D01*
X142042065Y-89822831D01*
X142044653Y-89824135D01*
X142063290Y-89829211D01*
X142091420Y-89832700D01*
X142111784Y-89833627D01*
X142160467Y-89834200D01*
X142160467Y-89326200D01*
X142106371Y-89326200D01*
X142070747Y-89327894D01*
X142046802Y-89333700D01*
X142032288Y-89342372D01*
X142026045Y-89347799D01*
X142021231Y-89354133D01*
X142017629Y-89363515D01*
X142015020Y-89378088D01*
X142013186Y-89399995D01*
X142011910Y-89431377D01*
X142010974Y-89474377D01*
X142010159Y-89531138D01*
X142009746Y-89563930D01*
X142009084Y-89635062D01*
X141847628Y-89635062D01*
X141847433Y-89584433D01*
X141847567Y-89513732D01*
X141847961Y-89457832D01*
X141848739Y-89414601D01*
X141850027Y-89381909D01*
X141851951Y-89357623D01*
X141854634Y-89339612D01*
X141858203Y-89325745D01*
X141862782Y-89313889D01*
X141863403Y-89312505D01*
X141877617Y-89287655D01*
X141893856Y-89268004D01*
X141898575Y-89264097D01*
X141917916Y-89250550D01*
X141895924Y-89233250D01*
X141882545Y-89221538D01*
X141871800Y-89208413D01*
X141863432Y-89192007D01*
X141857179Y-89170451D01*
X141852783Y-89141877D01*
X141849985Y-89104417D01*
X141848525Y-89056202D01*
X141848143Y-88995364D01*
X141848581Y-88920034D01*
X141848836Y-88894037D01*
X141849642Y-88822136D01*
X141850493Y-88765108D01*
X141851542Y-88720893D01*
X141851775Y-88715297D01*
X142008067Y-88715297D01*
X142008067Y-88915336D01*
X142008270Y-88982366D01*
X142008958Y-89034530D01*
X142010245Y-89073889D01*
X142012246Y-89102507D01*
X142015076Y-89122447D01*
X142018851Y-89135771D01*
X142020589Y-89139589D01*
X142030245Y-89155767D01*
X142041482Y-89165573D01*
X142058603Y-89170664D01*
X142085909Y-89172702D01*
X142107550Y-89173131D01*
X142160467Y-89173800D01*
X142160467Y-88665800D01*
X142109016Y-88665800D01*
X142078632Y-88666789D01*
X142058796Y-88671130D01*
X142043171Y-88680880D01*
X142032816Y-88690549D01*
X142008067Y-88715297D01*
X141851775Y-88715297D01*
X141852939Y-88687431D01*
X141854836Y-88662661D01*
X141857384Y-88644523D01*
X141860736Y-88630957D01*
X141865041Y-88619903D01*
X141869660Y-88610766D01*
X141898301Y-88569263D01*
X141936015Y-88537459D01*
X141957267Y-88524974D01*
X141969791Y-88519376D01*
X141985251Y-88515136D01*
X142006238Y-88512009D01*
X142035340Y-88509752D01*
X142075148Y-88508120D01*
X142128251Y-88506868D01*
X142154117Y-88506414D01*
X142321334Y-88503662D01*
X142321334Y-89995067D01*
G36*
X143591334Y-89995067D02*
X143428350Y-89994695D01*
X143361853Y-89994084D01*
X143310424Y-89992513D01*
X143272222Y-89989869D01*
X143245404Y-89986036D01*
X143231990Y-89982433D01*
X143180628Y-89955887D01*
X143141054Y-89917537D01*
X143114305Y-89868495D01*
X143108492Y-89850236D01*
X143106610Y-89834286D01*
X143105028Y-89801730D01*
X143103748Y-89752892D01*
X143102773Y-89688095D01*
X143102107Y-89607665D01*
X143101754Y-89511924D01*
X143101716Y-89401198D01*
X143101997Y-89275810D01*
X143102072Y-89255310D01*
X143261134Y-89255310D01*
X143261134Y-89792636D01*
X143281915Y-89813418D01*
X143294711Y-89824268D01*
X143309296Y-89830544D01*
X143330589Y-89833451D01*
X143363506Y-89834197D01*
X143366582Y-89834200D01*
X143430467Y-89834200D01*
X143430467Y-88665800D01*
X143375013Y-88665800D01*
X143329021Y-88669369D01*
X143293767Y-88679541D01*
X143271519Y-88695513D01*
X143266393Y-88704279D01*
X143265473Y-88714951D01*
X143264605Y-88741084D01*
X143263802Y-88781207D01*
X143263078Y-88833848D01*
X143262448Y-88897536D01*
X143261924Y-88970799D01*
X143261522Y-89052166D01*
X143261255Y-89140163D01*
X143261138Y-89233321D01*
X143261134Y-89255310D01*
X143102072Y-89255310D01*
X143102160Y-89231331D01*
X143102622Y-89117486D01*
X143103062Y-89019331D01*
X143103521Y-88935623D01*
X143104039Y-88865120D01*
X143104660Y-88806578D01*
X143105422Y-88758755D01*
X143106368Y-88720407D01*
X143107539Y-88690292D01*
X143108976Y-88667167D01*
X143110721Y-88649788D01*
X143112814Y-88636913D01*
X143115296Y-88627299D01*
X143118209Y-88619703D01*
X143121594Y-88612882D01*
X143122726Y-88610766D01*
X143151368Y-88569263D01*
X143189081Y-88537459D01*
X143210334Y-88524974D01*
X143222490Y-88519514D01*
X143237449Y-88515351D01*
X143257721Y-88512256D01*
X143285813Y-88510005D01*
X143324236Y-88508370D01*
X143375497Y-88507125D01*
X143415650Y-88506437D01*
X143591334Y-88503707D01*
X143591334Y-89995067D01*
X143591334Y-89995067D01*
G37*
X143591334Y-89995067D02*
X143428350Y-89994695D01*
X143361853Y-89994084D01*
X143310424Y-89992513D01*
X143272222Y-89989869D01*
X143245404Y-89986036D01*
X143231990Y-89982433D01*
X143180628Y-89955887D01*
X143141054Y-89917537D01*
X143114305Y-89868495D01*
X143108492Y-89850236D01*
X143106610Y-89834286D01*
X143105028Y-89801730D01*
X143103748Y-89752892D01*
X143102773Y-89688095D01*
X143102107Y-89607665D01*
X143101754Y-89511924D01*
X143101716Y-89401198D01*
X143101997Y-89275810D01*
X143102072Y-89255310D01*
X143261134Y-89255310D01*
X143261134Y-89792636D01*
X143281915Y-89813418D01*
X143294711Y-89824268D01*
X143309296Y-89830544D01*
X143330589Y-89833451D01*
X143363506Y-89834197D01*
X143366582Y-89834200D01*
X143430467Y-89834200D01*
X143430467Y-88665800D01*
X143375013Y-88665800D01*
X143329021Y-88669369D01*
X143293767Y-88679541D01*
X143271519Y-88695513D01*
X143266393Y-88704279D01*
X143265473Y-88714951D01*
X143264605Y-88741084D01*
X143263802Y-88781207D01*
X143263078Y-88833848D01*
X143262448Y-88897536D01*
X143261924Y-88970799D01*
X143261522Y-89052166D01*
X143261255Y-89140163D01*
X143261138Y-89233321D01*
X143261134Y-89255310D01*
X143102072Y-89255310D01*
X143102160Y-89231331D01*
X143102622Y-89117486D01*
X143103062Y-89019331D01*
X143103521Y-88935623D01*
X143104039Y-88865120D01*
X143104660Y-88806578D01*
X143105422Y-88758755D01*
X143106368Y-88720407D01*
X143107539Y-88690292D01*
X143108976Y-88667167D01*
X143110721Y-88649788D01*
X143112814Y-88636913D01*
X143115296Y-88627299D01*
X143118209Y-88619703D01*
X143121594Y-88612882D01*
X143122726Y-88610766D01*
X143151368Y-88569263D01*
X143189081Y-88537459D01*
X143210334Y-88524974D01*
X143222490Y-88519514D01*
X143237449Y-88515351D01*
X143257721Y-88512256D01*
X143285813Y-88510005D01*
X143324236Y-88508370D01*
X143375497Y-88507125D01*
X143415650Y-88506437D01*
X143591334Y-88503707D01*
X143591334Y-89995067D01*
G36*
X144700467Y-89995067D02*
X144503617Y-89994735D01*
X144433056Y-89994309D01*
X144377780Y-89993239D01*
X144336150Y-89991439D01*
X144306524Y-89988823D01*
X144287265Y-89985308D01*
X144280871Y-89983125D01*
X144264704Y-89972776D01*
X144250155Y-89954858D01*
X144234522Y-89925708D01*
X144227955Y-89911416D01*
X144215127Y-89881715D01*
X144205596Y-89857718D01*
X144201083Y-89843808D01*
X144200933Y-89842592D01*
X144209207Y-89839548D01*
X144233273Y-89837134D01*
X144272000Y-89835406D01*
X144324259Y-89834419D01*
X144370267Y-89834200D01*
X144539600Y-89834200D01*
X144539600Y-88531293D01*
X144558417Y-88518113D01*
X144580642Y-88509482D01*
X144617007Y-88505374D01*
X144638851Y-88504933D01*
X144700467Y-88504933D01*
X144700467Y-89995067D01*
X144700467Y-89995067D01*
G37*
X144700467Y-89995067D02*
X144503617Y-89994735D01*
X144433056Y-89994309D01*
X144377780Y-89993239D01*
X144336150Y-89991439D01*
X144306524Y-89988823D01*
X144287265Y-89985308D01*
X144280871Y-89983125D01*
X144264704Y-89972776D01*
X144250155Y-89954858D01*
X144234522Y-89925708D01*
X144227955Y-89911416D01*
X144215127Y-89881715D01*
X144205596Y-89857718D01*
X144201083Y-89843808D01*
X144200933Y-89842592D01*
X144209207Y-89839548D01*
X144233273Y-89837134D01*
X144272000Y-89835406D01*
X144324259Y-89834419D01*
X144370267Y-89834200D01*
X144539600Y-89834200D01*
X144539600Y-88531293D01*
X144558417Y-88518113D01*
X144580642Y-88509482D01*
X144617007Y-88505374D01*
X144638851Y-88504933D01*
X144700467Y-88504933D01*
X144700467Y-89995067D01*
D12*
X132180000Y-71400000D03*
M02*
