G04 #@! TF.FileFunction,Profile,NP*
%FSLAX46Y46*%
G04 Gerber Fmt 4.6, Leading zero omitted, Abs format (unit mm)*
G04 Created by KiCad (PCBNEW 4.0.5) date Saturday, July 08, 2017 'AMt' 10:19:25 AM*
%MOMM*%
%LPD*%
G01*
G04 APERTURE LIST*
%ADD10C,0.100000*%
%ADD11C,0.150000*%
G04 APERTURE END LIST*
D10*
D11*
X138870000Y-136480000D02*
X138980000Y-136460000D01*
X138850000Y-137750000D02*
X138870000Y-136480000D01*
X140250000Y-137790000D02*
X138850000Y-137750000D01*
X140220000Y-139270000D02*
X140240000Y-137780000D01*
X140160000Y-139270000D02*
X140220000Y-139270000D01*
X137460000Y-139290000D02*
X140160000Y-139270000D01*
X137460000Y-140500000D02*
X137460000Y-139290000D01*
X140240000Y-140500000D02*
X137460000Y-140500000D01*
X140220000Y-142090000D02*
X140240000Y-140500000D01*
X138870000Y-142110000D02*
X140220000Y-142090000D01*
X138830000Y-143350000D02*
X138870000Y-142110000D01*
X140240000Y-143330000D02*
X138830000Y-143350000D01*
X140240000Y-146210000D02*
X140240000Y-143330000D01*
X141620000Y-146230000D02*
X140240000Y-146210000D01*
X141660000Y-143350000D02*
X141620000Y-146230000D01*
X143030000Y-143350000D02*
X141660000Y-143350000D01*
X143030000Y-142130000D02*
X143030000Y-143350000D01*
X141620000Y-142130000D02*
X143030000Y-142130000D01*
X141620000Y-140560000D02*
X141620000Y-142130000D01*
X144400000Y-140560000D02*
X141620000Y-140560000D01*
X144400000Y-139310000D02*
X144400000Y-140560000D01*
X141640000Y-139270000D02*
X144400000Y-139310000D01*
X141620000Y-137740000D02*
X141640000Y-139270000D01*
X142950000Y-137740000D02*
X141620000Y-137740000D01*
X142930000Y-136440000D02*
X142950000Y-137740000D01*
X141620000Y-136420000D02*
X142930000Y-136440000D01*
X141540000Y-133660000D02*
X141620000Y-136420000D01*
X140320000Y-133680000D02*
X141540000Y-133660000D01*
X140340000Y-136440000D02*
X140320000Y-133680000D01*
X138970000Y-136480000D02*
X140340000Y-136440000D01*
X126960000Y-80780000D02*
X126380000Y-80520000D01*
X126660000Y-148010000D02*
X126960000Y-80780000D01*
X137620000Y-147920000D02*
X126660000Y-148010000D01*
X137620000Y-145140000D02*
X137620000Y-147920000D01*
X138560000Y-145140000D02*
X137620000Y-145140000D01*
X138520000Y-148010000D02*
X138560000Y-145140000D01*
X138740000Y-148010000D02*
X138520000Y-148010000D01*
X143170000Y-148010000D02*
X138740000Y-148010000D01*
X143220000Y-145230000D02*
X143170000Y-148010000D01*
X144340000Y-145230000D02*
X143220000Y-145230000D01*
X144340000Y-148010000D02*
X144340000Y-145230000D01*
X147520000Y-148010000D02*
X144340000Y-148010000D01*
X147470000Y-131850000D02*
X147520000Y-148010000D01*
X144340000Y-131850000D02*
X147470000Y-131850000D01*
X144340000Y-134760000D02*
X144340000Y-131850000D01*
X143170000Y-134760000D02*
X144340000Y-134760000D01*
X143130000Y-131810000D02*
X143170000Y-134760000D01*
X143040000Y-131810000D02*
X143130000Y-131810000D01*
X138650000Y-131810000D02*
X143040000Y-131810000D01*
X138610000Y-134810000D02*
X138650000Y-131810000D01*
X137710000Y-134810000D02*
X138610000Y-134810000D01*
X137670000Y-131810000D02*
X137710000Y-134810000D01*
X137540000Y-131810000D02*
X137670000Y-131810000D01*
X133640000Y-131810000D02*
X137540000Y-131810000D01*
X133550000Y-80340000D02*
X133640000Y-131810000D01*
X133820000Y-80200000D02*
X133550000Y-80340000D01*
X144740000Y-75500000D02*
X133820000Y-80200000D01*
X150500000Y-60840000D02*
X144740000Y-75500000D01*
X144580000Y-46350000D02*
X150500000Y-60840000D01*
X129920000Y-40340000D02*
X144580000Y-46350000D01*
X115350000Y-46440000D02*
X129920000Y-40340000D01*
X109340000Y-61010000D02*
X115350000Y-46440000D01*
X115430000Y-75750000D02*
X109340000Y-61010000D01*
X126380000Y-80520000D02*
X115430000Y-75750000D01*
M02*
