G04 #@! TF.FileFunction,Copper,L2,Bot,Signal*
%FSLAX46Y46*%
G04 Gerber Fmt 4.6, Leading zero omitted, Abs format (unit mm)*
G04 Created by KiCad (PCBNEW 4.0.5) date Saturday, July 08, 2017 'AMt' 10:19:25 AM*
%MOMM*%
%LPD*%
G01*
G04 APERTURE LIST*
%ADD10C,0.100000*%
%ADD11C,0.010000*%
%ADD12C,4.000000*%
G04 APERTURE END LIST*
D10*
D11*
G36*
X131295625Y-50003351D02*
X131089250Y-50023250D01*
X131072458Y-51975875D01*
X131055665Y-53928500D01*
X131502000Y-53928500D01*
X131502000Y-49983454D01*
X131295625Y-50003351D01*
X131295625Y-50003351D01*
G37*
X131295625Y-50003351D02*
X131089250Y-50023250D01*
X131072458Y-51975875D01*
X131055665Y-53928500D01*
X131502000Y-53928500D01*
X131502000Y-49983454D01*
X131295625Y-50003351D01*
G36*
X127500611Y-50008600D02*
X127441571Y-50069865D01*
X127438000Y-50104118D01*
X127447235Y-50192536D01*
X127472948Y-50386485D01*
X127512157Y-50665996D01*
X127561878Y-51011101D01*
X127619127Y-51401831D01*
X127680919Y-51818219D01*
X127744273Y-52240294D01*
X127806203Y-52648088D01*
X127863726Y-53021634D01*
X127913858Y-53340961D01*
X127953616Y-53586103D01*
X127980015Y-53737089D01*
X127983356Y-53753875D01*
X128037722Y-53884590D01*
X128154012Y-53927178D01*
X128197271Y-53928500D01*
X128350930Y-53902068D01*
X128439708Y-53849125D01*
X128465862Y-53767616D01*
X128507210Y-53577368D01*
X128560689Y-53295322D01*
X128623233Y-52938419D01*
X128691777Y-52523600D01*
X128763255Y-52067805D01*
X128770010Y-52023500D01*
X128840836Y-51560576D01*
X128907060Y-51133089D01*
X128965862Y-50758820D01*
X129014422Y-50455553D01*
X129049922Y-50241070D01*
X129069540Y-50133153D01*
X129070242Y-50130066D01*
X129081578Y-50036046D01*
X129034458Y-49998847D01*
X128898108Y-49999982D01*
X128858841Y-50003066D01*
X128612750Y-50023250D01*
X128501733Y-50721750D01*
X128446864Y-51064186D01*
X128389858Y-51415372D01*
X128339149Y-51723541D01*
X128315509Y-51864750D01*
X128240304Y-52309250D01*
X128125657Y-51579000D01*
X128071362Y-51234745D01*
X128015948Y-50886044D01*
X127967092Y-50581082D01*
X127941018Y-50420125D01*
X127871026Y-49991500D01*
X127654513Y-49991500D01*
X127500611Y-50008600D01*
X127500611Y-50008600D01*
G37*
X127500611Y-50008600D02*
X127441571Y-50069865D01*
X127438000Y-50104118D01*
X127447235Y-50192536D01*
X127472948Y-50386485D01*
X127512157Y-50665996D01*
X127561878Y-51011101D01*
X127619127Y-51401831D01*
X127680919Y-51818219D01*
X127744273Y-52240294D01*
X127806203Y-52648088D01*
X127863726Y-53021634D01*
X127913858Y-53340961D01*
X127953616Y-53586103D01*
X127980015Y-53737089D01*
X127983356Y-53753875D01*
X128037722Y-53884590D01*
X128154012Y-53927178D01*
X128197271Y-53928500D01*
X128350930Y-53902068D01*
X128439708Y-53849125D01*
X128465862Y-53767616D01*
X128507210Y-53577368D01*
X128560689Y-53295322D01*
X128623233Y-52938419D01*
X128691777Y-52523600D01*
X128763255Y-52067805D01*
X128770010Y-52023500D01*
X128840836Y-51560576D01*
X128907060Y-51133089D01*
X128965862Y-50758820D01*
X129014422Y-50455553D01*
X129049922Y-50241070D01*
X129069540Y-50133153D01*
X129070242Y-50130066D01*
X129081578Y-50036046D01*
X129034458Y-49998847D01*
X128898108Y-49999982D01*
X128858841Y-50003066D01*
X128612750Y-50023250D01*
X128501733Y-50721750D01*
X128446864Y-51064186D01*
X128389858Y-51415372D01*
X128339149Y-51723541D01*
X128315509Y-51864750D01*
X128240304Y-52309250D01*
X128125657Y-51579000D01*
X128071362Y-51234745D01*
X128015948Y-50886044D01*
X127967092Y-50581082D01*
X127941018Y-50420125D01*
X127871026Y-49991500D01*
X127654513Y-49991500D01*
X127500611Y-50008600D01*
G36*
X115545037Y-60057878D02*
X115585917Y-60062925D01*
X115617773Y-60072821D01*
X115644475Y-60088782D01*
X115669890Y-60112024D01*
X115670668Y-60112841D01*
X115679779Y-60122365D01*
X115687689Y-60131216D01*
X115694483Y-60140597D01*
X115700245Y-60151710D01*
X115705060Y-60165760D01*
X115709014Y-60183950D01*
X115712190Y-60207482D01*
X115714675Y-60237561D01*
X115716552Y-60275390D01*
X115717906Y-60322172D01*
X115718822Y-60379110D01*
X115719385Y-60447408D01*
X115719680Y-60528268D01*
X115719792Y-60622896D01*
X115719805Y-60732492D01*
X115719800Y-60810000D01*
X115719806Y-60929640D01*
X115719768Y-61033551D01*
X115719600Y-61122938D01*
X115719218Y-61199005D01*
X115718536Y-61262958D01*
X115717471Y-61316001D01*
X115715937Y-61359337D01*
X115713849Y-61394173D01*
X115711123Y-61421712D01*
X115707673Y-61443160D01*
X115703415Y-61459720D01*
X115698264Y-61472597D01*
X115692135Y-61482997D01*
X115684943Y-61492123D01*
X115676604Y-61501180D01*
X115670668Y-61507451D01*
X115644786Y-61530792D01*
X115615962Y-61546931D01*
X115580618Y-61556951D01*
X115535177Y-61561933D01*
X115486967Y-61563016D01*
X115432131Y-61561633D01*
X115392247Y-61557554D01*
X115365519Y-61550589D01*
X115364200Y-61550035D01*
X115320276Y-61522454D01*
X115283903Y-61482674D01*
X115270291Y-61460154D01*
X115266116Y-61451096D01*
X115262726Y-61440617D01*
X115260040Y-61426961D01*
X115257977Y-61408371D01*
X115256456Y-61383089D01*
X115255395Y-61349359D01*
X115254714Y-61305423D01*
X115254331Y-61249526D01*
X115254165Y-61179909D01*
X115254134Y-61110519D01*
X115254134Y-60792297D01*
X115274915Y-60771515D01*
X115284080Y-60763140D01*
X115293999Y-60757382D01*
X115307846Y-60753751D01*
X115328796Y-60751758D01*
X115360023Y-60750916D01*
X115404702Y-60750734D01*
X115409851Y-60750733D01*
X115524005Y-60750733D01*
X115498424Y-60807151D01*
X115478762Y-60848790D01*
X115463076Y-60877200D01*
X115449474Y-60895036D01*
X115436061Y-60904953D01*
X115426171Y-60908507D01*
X115405552Y-60913682D01*
X115408160Y-61145296D01*
X115410767Y-61376910D01*
X115433819Y-61399948D01*
X115462928Y-61419194D01*
X115494205Y-61423570D01*
X115523681Y-61413086D01*
X115538864Y-61399654D01*
X115558934Y-61376322D01*
X115558934Y-60243677D01*
X115539884Y-60222030D01*
X115518310Y-60205046D01*
X115494394Y-60195315D01*
X115474238Y-60194397D01*
X115456013Y-60202365D01*
X115439360Y-60215781D01*
X115410767Y-60241314D01*
X115408066Y-60427495D01*
X115405366Y-60613675D01*
X115348800Y-60588553D01*
X115318290Y-60574773D01*
X115295159Y-60562442D01*
X115278386Y-60549053D01*
X115266948Y-60532101D01*
X115259825Y-60509080D01*
X115255996Y-60477483D01*
X115254439Y-60434804D01*
X115254134Y-60378537D01*
X115254134Y-60356224D01*
X115254471Y-60292285D01*
X115255881Y-60242629D01*
X115258957Y-60204612D01*
X115264294Y-60175590D01*
X115272487Y-60152921D01*
X115284130Y-60133959D01*
X115299819Y-60116062D01*
X115310508Y-60105599D01*
X115335917Y-60085014D01*
X115363792Y-60070810D01*
X115397815Y-60061988D01*
X115441668Y-60057546D01*
X115491266Y-60056467D01*
X115545037Y-60057878D01*
X115545037Y-60057878D01*
G37*
X115545037Y-60057878D02*
X115585917Y-60062925D01*
X115617773Y-60072821D01*
X115644475Y-60088782D01*
X115669890Y-60112024D01*
X115670668Y-60112841D01*
X115679779Y-60122365D01*
X115687689Y-60131216D01*
X115694483Y-60140597D01*
X115700245Y-60151710D01*
X115705060Y-60165760D01*
X115709014Y-60183950D01*
X115712190Y-60207482D01*
X115714675Y-60237561D01*
X115716552Y-60275390D01*
X115717906Y-60322172D01*
X115718822Y-60379110D01*
X115719385Y-60447408D01*
X115719680Y-60528268D01*
X115719792Y-60622896D01*
X115719805Y-60732492D01*
X115719800Y-60810000D01*
X115719806Y-60929640D01*
X115719768Y-61033551D01*
X115719600Y-61122938D01*
X115719218Y-61199005D01*
X115718536Y-61262958D01*
X115717471Y-61316001D01*
X115715937Y-61359337D01*
X115713849Y-61394173D01*
X115711123Y-61421712D01*
X115707673Y-61443160D01*
X115703415Y-61459720D01*
X115698264Y-61472597D01*
X115692135Y-61482997D01*
X115684943Y-61492123D01*
X115676604Y-61501180D01*
X115670668Y-61507451D01*
X115644786Y-61530792D01*
X115615962Y-61546931D01*
X115580618Y-61556951D01*
X115535177Y-61561933D01*
X115486967Y-61563016D01*
X115432131Y-61561633D01*
X115392247Y-61557554D01*
X115365519Y-61550589D01*
X115364200Y-61550035D01*
X115320276Y-61522454D01*
X115283903Y-61482674D01*
X115270291Y-61460154D01*
X115266116Y-61451096D01*
X115262726Y-61440617D01*
X115260040Y-61426961D01*
X115257977Y-61408371D01*
X115256456Y-61383089D01*
X115255395Y-61349359D01*
X115254714Y-61305423D01*
X115254331Y-61249526D01*
X115254165Y-61179909D01*
X115254134Y-61110519D01*
X115254134Y-60792297D01*
X115274915Y-60771515D01*
X115284080Y-60763140D01*
X115293999Y-60757382D01*
X115307846Y-60753751D01*
X115328796Y-60751758D01*
X115360023Y-60750916D01*
X115404702Y-60750734D01*
X115409851Y-60750733D01*
X115524005Y-60750733D01*
X115498424Y-60807151D01*
X115478762Y-60848790D01*
X115463076Y-60877200D01*
X115449474Y-60895036D01*
X115436061Y-60904953D01*
X115426171Y-60908507D01*
X115405552Y-60913682D01*
X115408160Y-61145296D01*
X115410767Y-61376910D01*
X115433819Y-61399948D01*
X115462928Y-61419194D01*
X115494205Y-61423570D01*
X115523681Y-61413086D01*
X115538864Y-61399654D01*
X115558934Y-61376322D01*
X115558934Y-60243677D01*
X115539884Y-60222030D01*
X115518310Y-60205046D01*
X115494394Y-60195315D01*
X115474238Y-60194397D01*
X115456013Y-60202365D01*
X115439360Y-60215781D01*
X115410767Y-60241314D01*
X115408066Y-60427495D01*
X115405366Y-60613675D01*
X115348800Y-60588553D01*
X115318290Y-60574773D01*
X115295159Y-60562442D01*
X115278386Y-60549053D01*
X115266948Y-60532101D01*
X115259825Y-60509080D01*
X115255996Y-60477483D01*
X115254439Y-60434804D01*
X115254134Y-60378537D01*
X115254134Y-60356224D01*
X115254471Y-60292285D01*
X115255881Y-60242629D01*
X115258957Y-60204612D01*
X115264294Y-60175590D01*
X115272487Y-60152921D01*
X115284130Y-60133959D01*
X115299819Y-60116062D01*
X115310508Y-60105599D01*
X115335917Y-60085014D01*
X115363792Y-60070810D01*
X115397815Y-60061988D01*
X115441668Y-60057546D01*
X115491266Y-60056467D01*
X115545037Y-60057878D01*
G36*
X118043909Y-60056321D02*
X118090071Y-60059374D01*
X118128773Y-60064885D01*
X118154039Y-60072257D01*
X118191536Y-60096445D01*
X118224188Y-60130497D01*
X118246939Y-60168754D01*
X118251375Y-60181209D01*
X118253355Y-60195067D01*
X118255017Y-60222215D01*
X118256364Y-60263108D01*
X118257403Y-60318199D01*
X118258138Y-60387939D01*
X118258573Y-60472782D01*
X118258713Y-60573182D01*
X118258563Y-60689590D01*
X118258128Y-60822460D01*
X118258107Y-60827556D01*
X118255567Y-61442013D01*
X118232211Y-61477301D01*
X118209746Y-61504600D01*
X118182058Y-61529843D01*
X118173604Y-61535944D01*
X118158489Y-61545383D01*
X118144231Y-61551943D01*
X118127293Y-61556223D01*
X118104139Y-61558823D01*
X118071232Y-61560343D01*
X118025036Y-61561381D01*
X118023393Y-61561411D01*
X117971733Y-61561853D01*
X117933827Y-61560830D01*
X117906538Y-61558104D01*
X117886731Y-61553434D01*
X117878800Y-61550361D01*
X117834244Y-61521949D01*
X117797676Y-61481474D01*
X117784891Y-61460154D01*
X117781827Y-61453608D01*
X117779176Y-61445926D01*
X117776909Y-61435906D01*
X117774995Y-61422346D01*
X117773405Y-61404044D01*
X117772109Y-61379797D01*
X117771077Y-61348403D01*
X117770278Y-61308661D01*
X117769685Y-61259368D01*
X117769265Y-61199322D01*
X117768990Y-61127320D01*
X117768830Y-61042162D01*
X117768754Y-60942644D01*
X117768734Y-60827564D01*
X117768734Y-60810000D01*
X117768734Y-60809258D01*
X117929600Y-60809258D01*
X117929632Y-60921835D01*
X117929748Y-61018696D01*
X117929975Y-61101056D01*
X117930343Y-61170131D01*
X117930879Y-61227139D01*
X117931612Y-61273296D01*
X117932570Y-61309818D01*
X117933781Y-61337921D01*
X117935275Y-61358821D01*
X117937079Y-61373736D01*
X117939221Y-61383881D01*
X117941730Y-61390473D01*
X117943206Y-61392924D01*
X117969253Y-61416584D01*
X118002548Y-61426700D01*
X118039236Y-61422514D01*
X118056770Y-61415279D01*
X118076986Y-61401296D01*
X118090216Y-61386202D01*
X118092200Y-61373829D01*
X118093933Y-61344708D01*
X118095415Y-61299027D01*
X118096640Y-61236968D01*
X118097607Y-61158718D01*
X118098313Y-61064462D01*
X118098755Y-60954383D01*
X118098930Y-60828668D01*
X118098934Y-60808207D01*
X118098949Y-60694356D01*
X118098928Y-60596229D01*
X118098772Y-60512615D01*
X118098379Y-60442307D01*
X118097649Y-60384093D01*
X118096483Y-60336765D01*
X118094780Y-60299113D01*
X118092440Y-60269928D01*
X118089363Y-60247999D01*
X118085449Y-60232118D01*
X118080597Y-60221075D01*
X118074708Y-60213660D01*
X118067680Y-60208664D01*
X118059415Y-60204877D01*
X118049811Y-60201090D01*
X118048612Y-60200598D01*
X118014055Y-60193903D01*
X117979763Y-60199982D01*
X117951811Y-60217496D01*
X117946900Y-60223023D01*
X117943482Y-60227706D01*
X117940546Y-60233247D01*
X117938056Y-60240891D01*
X117935976Y-60251883D01*
X117934268Y-60267469D01*
X117932896Y-60288892D01*
X117931823Y-60317399D01*
X117931012Y-60354234D01*
X117930427Y-60400641D01*
X117930031Y-60457867D01*
X117929787Y-60527155D01*
X117929658Y-60609752D01*
X117929608Y-60706901D01*
X117929600Y-60809258D01*
X117768734Y-60809258D01*
X117768749Y-60692627D01*
X117768815Y-60590986D01*
X117768961Y-60503873D01*
X117769218Y-60430088D01*
X117769616Y-60368427D01*
X117770183Y-60317689D01*
X117770950Y-60276672D01*
X117771948Y-60244173D01*
X117773205Y-60218990D01*
X117774752Y-60199921D01*
X117776618Y-60185765D01*
X117778834Y-60175318D01*
X117781429Y-60167379D01*
X117784433Y-60160746D01*
X117784891Y-60159846D01*
X117816575Y-60114940D01*
X117858491Y-60080852D01*
X117880645Y-60069616D01*
X117908654Y-60062373D01*
X117948401Y-60057773D01*
X117995086Y-60055772D01*
X118043909Y-60056321D01*
X118043909Y-60056321D01*
G37*
X118043909Y-60056321D02*
X118090071Y-60059374D01*
X118128773Y-60064885D01*
X118154039Y-60072257D01*
X118191536Y-60096445D01*
X118224188Y-60130497D01*
X118246939Y-60168754D01*
X118251375Y-60181209D01*
X118253355Y-60195067D01*
X118255017Y-60222215D01*
X118256364Y-60263108D01*
X118257403Y-60318199D01*
X118258138Y-60387939D01*
X118258573Y-60472782D01*
X118258713Y-60573182D01*
X118258563Y-60689590D01*
X118258128Y-60822460D01*
X118258107Y-60827556D01*
X118255567Y-61442013D01*
X118232211Y-61477301D01*
X118209746Y-61504600D01*
X118182058Y-61529843D01*
X118173604Y-61535944D01*
X118158489Y-61545383D01*
X118144231Y-61551943D01*
X118127293Y-61556223D01*
X118104139Y-61558823D01*
X118071232Y-61560343D01*
X118025036Y-61561381D01*
X118023393Y-61561411D01*
X117971733Y-61561853D01*
X117933827Y-61560830D01*
X117906538Y-61558104D01*
X117886731Y-61553434D01*
X117878800Y-61550361D01*
X117834244Y-61521949D01*
X117797676Y-61481474D01*
X117784891Y-61460154D01*
X117781827Y-61453608D01*
X117779176Y-61445926D01*
X117776909Y-61435906D01*
X117774995Y-61422346D01*
X117773405Y-61404044D01*
X117772109Y-61379797D01*
X117771077Y-61348403D01*
X117770278Y-61308661D01*
X117769685Y-61259368D01*
X117769265Y-61199322D01*
X117768990Y-61127320D01*
X117768830Y-61042162D01*
X117768754Y-60942644D01*
X117768734Y-60827564D01*
X117768734Y-60810000D01*
X117768734Y-60809258D01*
X117929600Y-60809258D01*
X117929632Y-60921835D01*
X117929748Y-61018696D01*
X117929975Y-61101056D01*
X117930343Y-61170131D01*
X117930879Y-61227139D01*
X117931612Y-61273296D01*
X117932570Y-61309818D01*
X117933781Y-61337921D01*
X117935275Y-61358821D01*
X117937079Y-61373736D01*
X117939221Y-61383881D01*
X117941730Y-61390473D01*
X117943206Y-61392924D01*
X117969253Y-61416584D01*
X118002548Y-61426700D01*
X118039236Y-61422514D01*
X118056770Y-61415279D01*
X118076986Y-61401296D01*
X118090216Y-61386202D01*
X118092200Y-61373829D01*
X118093933Y-61344708D01*
X118095415Y-61299027D01*
X118096640Y-61236968D01*
X118097607Y-61158718D01*
X118098313Y-61064462D01*
X118098755Y-60954383D01*
X118098930Y-60828668D01*
X118098934Y-60808207D01*
X118098949Y-60694356D01*
X118098928Y-60596229D01*
X118098772Y-60512615D01*
X118098379Y-60442307D01*
X118097649Y-60384093D01*
X118096483Y-60336765D01*
X118094780Y-60299113D01*
X118092440Y-60269928D01*
X118089363Y-60247999D01*
X118085449Y-60232118D01*
X118080597Y-60221075D01*
X118074708Y-60213660D01*
X118067680Y-60208664D01*
X118059415Y-60204877D01*
X118049811Y-60201090D01*
X118048612Y-60200598D01*
X118014055Y-60193903D01*
X117979763Y-60199982D01*
X117951811Y-60217496D01*
X117946900Y-60223023D01*
X117943482Y-60227706D01*
X117940546Y-60233247D01*
X117938056Y-60240891D01*
X117935976Y-60251883D01*
X117934268Y-60267469D01*
X117932896Y-60288892D01*
X117931823Y-60317399D01*
X117931012Y-60354234D01*
X117930427Y-60400641D01*
X117930031Y-60457867D01*
X117929787Y-60527155D01*
X117929658Y-60609752D01*
X117929608Y-60706901D01*
X117929600Y-60809258D01*
X117768734Y-60809258D01*
X117768749Y-60692627D01*
X117768815Y-60590986D01*
X117768961Y-60503873D01*
X117769218Y-60430088D01*
X117769616Y-60368427D01*
X117770183Y-60317689D01*
X117770950Y-60276672D01*
X117771948Y-60244173D01*
X117773205Y-60218990D01*
X117774752Y-60199921D01*
X117776618Y-60185765D01*
X117778834Y-60175318D01*
X117781429Y-60167379D01*
X117784433Y-60160746D01*
X117784891Y-60159846D01*
X117816575Y-60114940D01*
X117858491Y-60080852D01*
X117880645Y-60069616D01*
X117908654Y-60062373D01*
X117948401Y-60057773D01*
X117995086Y-60055772D01*
X118043909Y-60056321D01*
G36*
X121749350Y-60087299D02*
X121779605Y-60115455D01*
X121804605Y-60149790D01*
X121807333Y-60154797D01*
X121828500Y-60195697D01*
X121830839Y-60792018D01*
X121831308Y-60912901D01*
X121831641Y-61018055D01*
X121831748Y-61108687D01*
X121831536Y-61186003D01*
X121830913Y-61251207D01*
X121829790Y-61305506D01*
X121828073Y-61350104D01*
X121825672Y-61386208D01*
X121822495Y-61415022D01*
X121818450Y-61437754D01*
X121813446Y-61455607D01*
X121807393Y-61469787D01*
X121800197Y-61481500D01*
X121791768Y-61491952D01*
X121782014Y-61502348D01*
X121776509Y-61508007D01*
X121752525Y-61529352D01*
X121727447Y-61546681D01*
X121717313Y-61551847D01*
X121695831Y-61556910D01*
X121662250Y-61560495D01*
X121621315Y-61562556D01*
X121577767Y-61563048D01*
X121536350Y-61561927D01*
X121501808Y-61559148D01*
X121478882Y-61554666D01*
X121477387Y-61554113D01*
X121433389Y-61527947D01*
X121396983Y-61489140D01*
X121378444Y-61457189D01*
X121358000Y-61412534D01*
X121360417Y-61097812D01*
X121362834Y-60783089D01*
X121382821Y-60766911D01*
X121393001Y-60760235D01*
X121406229Y-60755666D01*
X121425666Y-60752821D01*
X121454471Y-60751317D01*
X121495802Y-60750770D01*
X121516171Y-60750733D01*
X121557769Y-60750963D01*
X121592505Y-60751594D01*
X121617284Y-60752536D01*
X121629006Y-60753699D01*
X121629534Y-60754016D01*
X121626254Y-60762728D01*
X121617581Y-60782770D01*
X121605265Y-60810121D01*
X121602846Y-60815399D01*
X121579264Y-60861586D01*
X121557792Y-60893207D01*
X121539021Y-60909472D01*
X121530691Y-60911600D01*
X121526925Y-60919628D01*
X121523841Y-60941983D01*
X121521432Y-60976073D01*
X121519691Y-61019307D01*
X121518613Y-61069092D01*
X121518191Y-61122837D01*
X121518420Y-61177949D01*
X121519293Y-61231837D01*
X121520804Y-61281907D01*
X121522947Y-61325570D01*
X121525715Y-61360232D01*
X121529103Y-61383301D01*
X121531830Y-61391149D01*
X121556721Y-61413814D01*
X121587989Y-61424037D01*
X121619970Y-61420032D01*
X121621466Y-61419434D01*
X121631228Y-61415415D01*
X121639641Y-61411222D01*
X121646805Y-61405644D01*
X121652821Y-61397470D01*
X121657790Y-61385488D01*
X121661810Y-61368488D01*
X121664983Y-61345258D01*
X121667408Y-61314587D01*
X121669186Y-61275263D01*
X121670416Y-61226076D01*
X121671200Y-61165814D01*
X121671637Y-61093265D01*
X121671827Y-61007219D01*
X121671870Y-60906464D01*
X121671867Y-60810000D01*
X121671869Y-60696010D01*
X121671808Y-60597742D01*
X121671585Y-60513985D01*
X121671098Y-60443528D01*
X121670248Y-60385159D01*
X121668935Y-60337666D01*
X121667058Y-60299840D01*
X121664518Y-60270468D01*
X121661213Y-60248339D01*
X121657045Y-60232242D01*
X121651912Y-60220966D01*
X121645715Y-60213299D01*
X121638353Y-60208030D01*
X121629727Y-60203948D01*
X121621466Y-60200565D01*
X121597490Y-60194179D01*
X121574786Y-60198602D01*
X121570548Y-60200284D01*
X121556048Y-60206757D01*
X121544873Y-60214098D01*
X121536532Y-60224478D01*
X121530532Y-60240068D01*
X121526380Y-60263038D01*
X121523585Y-60295558D01*
X121521654Y-60339800D01*
X121520096Y-60397934D01*
X121519467Y-60425540D01*
X121515234Y-60614259D01*
X121447412Y-60582366D01*
X121408652Y-60562520D01*
X121383758Y-60545582D01*
X121370300Y-60529849D01*
X121369096Y-60527438D01*
X121364481Y-60508174D01*
X121361211Y-60473338D01*
X121359259Y-60422496D01*
X121358600Y-60355211D01*
X121358600Y-60353920D01*
X121358689Y-60299836D01*
X121359196Y-60259631D01*
X121360484Y-60230250D01*
X121362915Y-60208640D01*
X121366851Y-60191745D01*
X121372654Y-60176512D01*
X121380686Y-60159885D01*
X121381884Y-60157520D01*
X121413005Y-60111735D01*
X121441880Y-60086152D01*
X121456974Y-60076030D01*
X121470317Y-60069025D01*
X121485374Y-60064565D01*
X121505613Y-60062075D01*
X121534498Y-60060980D01*
X121575495Y-60060707D01*
X121595563Y-60060700D01*
X121712534Y-60060700D01*
X121749350Y-60087299D01*
X121749350Y-60087299D01*
G37*
X121749350Y-60087299D02*
X121779605Y-60115455D01*
X121804605Y-60149790D01*
X121807333Y-60154797D01*
X121828500Y-60195697D01*
X121830839Y-60792018D01*
X121831308Y-60912901D01*
X121831641Y-61018055D01*
X121831748Y-61108687D01*
X121831536Y-61186003D01*
X121830913Y-61251207D01*
X121829790Y-61305506D01*
X121828073Y-61350104D01*
X121825672Y-61386208D01*
X121822495Y-61415022D01*
X121818450Y-61437754D01*
X121813446Y-61455607D01*
X121807393Y-61469787D01*
X121800197Y-61481500D01*
X121791768Y-61491952D01*
X121782014Y-61502348D01*
X121776509Y-61508007D01*
X121752525Y-61529352D01*
X121727447Y-61546681D01*
X121717313Y-61551847D01*
X121695831Y-61556910D01*
X121662250Y-61560495D01*
X121621315Y-61562556D01*
X121577767Y-61563048D01*
X121536350Y-61561927D01*
X121501808Y-61559148D01*
X121478882Y-61554666D01*
X121477387Y-61554113D01*
X121433389Y-61527947D01*
X121396983Y-61489140D01*
X121378444Y-61457189D01*
X121358000Y-61412534D01*
X121360417Y-61097812D01*
X121362834Y-60783089D01*
X121382821Y-60766911D01*
X121393001Y-60760235D01*
X121406229Y-60755666D01*
X121425666Y-60752821D01*
X121454471Y-60751317D01*
X121495802Y-60750770D01*
X121516171Y-60750733D01*
X121557769Y-60750963D01*
X121592505Y-60751594D01*
X121617284Y-60752536D01*
X121629006Y-60753699D01*
X121629534Y-60754016D01*
X121626254Y-60762728D01*
X121617581Y-60782770D01*
X121605265Y-60810121D01*
X121602846Y-60815399D01*
X121579264Y-60861586D01*
X121557792Y-60893207D01*
X121539021Y-60909472D01*
X121530691Y-60911600D01*
X121526925Y-60919628D01*
X121523841Y-60941983D01*
X121521432Y-60976073D01*
X121519691Y-61019307D01*
X121518613Y-61069092D01*
X121518191Y-61122837D01*
X121518420Y-61177949D01*
X121519293Y-61231837D01*
X121520804Y-61281907D01*
X121522947Y-61325570D01*
X121525715Y-61360232D01*
X121529103Y-61383301D01*
X121531830Y-61391149D01*
X121556721Y-61413814D01*
X121587989Y-61424037D01*
X121619970Y-61420032D01*
X121621466Y-61419434D01*
X121631228Y-61415415D01*
X121639641Y-61411222D01*
X121646805Y-61405644D01*
X121652821Y-61397470D01*
X121657790Y-61385488D01*
X121661810Y-61368488D01*
X121664983Y-61345258D01*
X121667408Y-61314587D01*
X121669186Y-61275263D01*
X121670416Y-61226076D01*
X121671200Y-61165814D01*
X121671637Y-61093265D01*
X121671827Y-61007219D01*
X121671870Y-60906464D01*
X121671867Y-60810000D01*
X121671869Y-60696010D01*
X121671808Y-60597742D01*
X121671585Y-60513985D01*
X121671098Y-60443528D01*
X121670248Y-60385159D01*
X121668935Y-60337666D01*
X121667058Y-60299840D01*
X121664518Y-60270468D01*
X121661213Y-60248339D01*
X121657045Y-60232242D01*
X121651912Y-60220966D01*
X121645715Y-60213299D01*
X121638353Y-60208030D01*
X121629727Y-60203948D01*
X121621466Y-60200565D01*
X121597490Y-60194179D01*
X121574786Y-60198602D01*
X121570548Y-60200284D01*
X121556048Y-60206757D01*
X121544873Y-60214098D01*
X121536532Y-60224478D01*
X121530532Y-60240068D01*
X121526380Y-60263038D01*
X121523585Y-60295558D01*
X121521654Y-60339800D01*
X121520096Y-60397934D01*
X121519467Y-60425540D01*
X121515234Y-60614259D01*
X121447412Y-60582366D01*
X121408652Y-60562520D01*
X121383758Y-60545582D01*
X121370300Y-60529849D01*
X121369096Y-60527438D01*
X121364481Y-60508174D01*
X121361211Y-60473338D01*
X121359259Y-60422496D01*
X121358600Y-60355211D01*
X121358600Y-60353920D01*
X121358689Y-60299836D01*
X121359196Y-60259631D01*
X121360484Y-60230250D01*
X121362915Y-60208640D01*
X121366851Y-60191745D01*
X121372654Y-60176512D01*
X121380686Y-60159885D01*
X121381884Y-60157520D01*
X121413005Y-60111735D01*
X121441880Y-60086152D01*
X121456974Y-60076030D01*
X121470317Y-60069025D01*
X121485374Y-60064565D01*
X121505613Y-60062075D01*
X121534498Y-60060980D01*
X121575495Y-60060707D01*
X121595563Y-60060700D01*
X121712534Y-60060700D01*
X121749350Y-60087299D01*
G36*
X128649696Y-60057795D02*
X128657061Y-60057959D01*
X128703905Y-60059194D01*
X128737309Y-60060762D01*
X128760767Y-60063302D01*
X128777769Y-60067457D01*
X128791808Y-60073867D01*
X128806376Y-60083172D01*
X128810691Y-60086152D01*
X128848162Y-60122001D01*
X128870650Y-60157520D01*
X128893933Y-60203436D01*
X128893933Y-61417666D01*
X128870283Y-61462938D01*
X128842498Y-61503855D01*
X128810324Y-61533755D01*
X128795444Y-61543832D01*
X128782034Y-61550898D01*
X128766686Y-61555564D01*
X128745995Y-61558435D01*
X128716554Y-61560122D01*
X128674957Y-61561230D01*
X128654058Y-61561650D01*
X128606394Y-61562441D01*
X128572183Y-61562349D01*
X128547951Y-61560943D01*
X128530224Y-61557789D01*
X128515527Y-61552455D01*
X128500386Y-61544511D01*
X128496000Y-61541995D01*
X128454808Y-61512708D01*
X128426620Y-61478236D01*
X128407510Y-61433754D01*
X128407240Y-61432880D01*
X128404680Y-61422565D01*
X128402474Y-61408667D01*
X128400598Y-61389969D01*
X128399026Y-61365251D01*
X128397734Y-61333296D01*
X128396696Y-61292885D01*
X128395887Y-61242798D01*
X128395282Y-61181819D01*
X128394856Y-61108727D01*
X128394584Y-61022305D01*
X128394440Y-60921334D01*
X128394400Y-60810000D01*
X128394413Y-60690812D01*
X128394515Y-60587339D01*
X128394795Y-60498363D01*
X128395348Y-60422666D01*
X128396264Y-60359028D01*
X128397635Y-60306233D01*
X128399553Y-60263061D01*
X128401150Y-60241344D01*
X128559500Y-60241344D01*
X128559500Y-60808416D01*
X128559512Y-60920242D01*
X128559570Y-61016369D01*
X128559711Y-61098032D01*
X128559970Y-61166466D01*
X128560382Y-61222906D01*
X128560985Y-61268585D01*
X128561812Y-61304740D01*
X128562901Y-61332604D01*
X128564286Y-61353413D01*
X128566003Y-61368400D01*
X128568088Y-61378801D01*
X128570577Y-61385851D01*
X128573505Y-61390784D01*
X128576433Y-61394310D01*
X128608277Y-61418690D01*
X128644318Y-61427255D01*
X128682034Y-61419521D01*
X128689506Y-61416001D01*
X128710065Y-61399803D01*
X128722952Y-61381736D01*
X128725139Y-61372202D01*
X128727023Y-61353300D01*
X128728620Y-61324153D01*
X128729945Y-61283883D01*
X128731013Y-61231610D01*
X128731841Y-61166458D01*
X128732443Y-61087546D01*
X128732836Y-60993997D01*
X128733034Y-60884933D01*
X128733067Y-60810000D01*
X128732980Y-60690987D01*
X128732708Y-60588028D01*
X128732236Y-60500245D01*
X128731548Y-60426759D01*
X128730629Y-60366692D01*
X128729463Y-60319166D01*
X128728035Y-60283302D01*
X128726329Y-60258222D01*
X128724330Y-60243047D01*
X128722952Y-60238263D01*
X128702494Y-60211598D01*
X128673349Y-60196429D01*
X128639869Y-60193448D01*
X128606405Y-60203349D01*
X128587150Y-60216639D01*
X128559500Y-60241344D01*
X128401150Y-60241344D01*
X128402110Y-60228295D01*
X128405397Y-60200716D01*
X128409508Y-60179105D01*
X128414532Y-60162245D01*
X128420563Y-60148918D01*
X128427693Y-60137904D01*
X128436012Y-60127986D01*
X128445613Y-60117946D01*
X128446654Y-60116881D01*
X128471269Y-60093678D01*
X128494935Y-60077117D01*
X128521131Y-60066222D01*
X128553338Y-60060020D01*
X128595033Y-60057536D01*
X128649696Y-60057795D01*
X128649696Y-60057795D01*
G37*
X128649696Y-60057795D02*
X128657061Y-60057959D01*
X128703905Y-60059194D01*
X128737309Y-60060762D01*
X128760767Y-60063302D01*
X128777769Y-60067457D01*
X128791808Y-60073867D01*
X128806376Y-60083172D01*
X128810691Y-60086152D01*
X128848162Y-60122001D01*
X128870650Y-60157520D01*
X128893933Y-60203436D01*
X128893933Y-61417666D01*
X128870283Y-61462938D01*
X128842498Y-61503855D01*
X128810324Y-61533755D01*
X128795444Y-61543832D01*
X128782034Y-61550898D01*
X128766686Y-61555564D01*
X128745995Y-61558435D01*
X128716554Y-61560122D01*
X128674957Y-61561230D01*
X128654058Y-61561650D01*
X128606394Y-61562441D01*
X128572183Y-61562349D01*
X128547951Y-61560943D01*
X128530224Y-61557789D01*
X128515527Y-61552455D01*
X128500386Y-61544511D01*
X128496000Y-61541995D01*
X128454808Y-61512708D01*
X128426620Y-61478236D01*
X128407510Y-61433754D01*
X128407240Y-61432880D01*
X128404680Y-61422565D01*
X128402474Y-61408667D01*
X128400598Y-61389969D01*
X128399026Y-61365251D01*
X128397734Y-61333296D01*
X128396696Y-61292885D01*
X128395887Y-61242798D01*
X128395282Y-61181819D01*
X128394856Y-61108727D01*
X128394584Y-61022305D01*
X128394440Y-60921334D01*
X128394400Y-60810000D01*
X128394413Y-60690812D01*
X128394515Y-60587339D01*
X128394795Y-60498363D01*
X128395348Y-60422666D01*
X128396264Y-60359028D01*
X128397635Y-60306233D01*
X128399553Y-60263061D01*
X128401150Y-60241344D01*
X128559500Y-60241344D01*
X128559500Y-60808416D01*
X128559512Y-60920242D01*
X128559570Y-61016369D01*
X128559711Y-61098032D01*
X128559970Y-61166466D01*
X128560382Y-61222906D01*
X128560985Y-61268585D01*
X128561812Y-61304740D01*
X128562901Y-61332604D01*
X128564286Y-61353413D01*
X128566003Y-61368400D01*
X128568088Y-61378801D01*
X128570577Y-61385851D01*
X128573505Y-61390784D01*
X128576433Y-61394310D01*
X128608277Y-61418690D01*
X128644318Y-61427255D01*
X128682034Y-61419521D01*
X128689506Y-61416001D01*
X128710065Y-61399803D01*
X128722952Y-61381736D01*
X128725139Y-61372202D01*
X128727023Y-61353300D01*
X128728620Y-61324153D01*
X128729945Y-61283883D01*
X128731013Y-61231610D01*
X128731841Y-61166458D01*
X128732443Y-61087546D01*
X128732836Y-60993997D01*
X128733034Y-60884933D01*
X128733067Y-60810000D01*
X128732980Y-60690987D01*
X128732708Y-60588028D01*
X128732236Y-60500245D01*
X128731548Y-60426759D01*
X128730629Y-60366692D01*
X128729463Y-60319166D01*
X128728035Y-60283302D01*
X128726329Y-60258222D01*
X128724330Y-60243047D01*
X128722952Y-60238263D01*
X128702494Y-60211598D01*
X128673349Y-60196429D01*
X128639869Y-60193448D01*
X128606405Y-60203349D01*
X128587150Y-60216639D01*
X128559500Y-60241344D01*
X128401150Y-60241344D01*
X128402110Y-60228295D01*
X128405397Y-60200716D01*
X128409508Y-60179105D01*
X128414532Y-60162245D01*
X128420563Y-60148918D01*
X128427693Y-60137904D01*
X128436012Y-60127986D01*
X128445613Y-60117946D01*
X128446654Y-60116881D01*
X128471269Y-60093678D01*
X128494935Y-60077117D01*
X128521131Y-60066222D01*
X128553338Y-60060020D01*
X128595033Y-60057536D01*
X128649696Y-60057795D01*
G36*
X134799995Y-60057374D02*
X134838375Y-60060841D01*
X134867828Y-60067986D01*
X134892326Y-60079928D01*
X134915843Y-60097785D01*
X134925092Y-60106116D01*
X134945445Y-60129271D01*
X134963521Y-60156499D01*
X134965309Y-60159846D01*
X134968373Y-60166392D01*
X134971024Y-60174073D01*
X134973292Y-60184093D01*
X134975205Y-60197653D01*
X134976795Y-60215956D01*
X134978092Y-60240203D01*
X134979124Y-60271596D01*
X134979922Y-60311339D01*
X134980516Y-60360632D01*
X134980935Y-60420678D01*
X134981210Y-60492679D01*
X134981370Y-60577838D01*
X134981446Y-60677356D01*
X134981467Y-60792436D01*
X134981467Y-60810000D01*
X134981451Y-60927372D01*
X134981385Y-61029014D01*
X134981239Y-61116126D01*
X134980982Y-61189912D01*
X134980585Y-61251572D01*
X134980017Y-61302310D01*
X134979250Y-61343328D01*
X134978253Y-61375827D01*
X134976995Y-61401010D01*
X134975449Y-61420078D01*
X134973582Y-61434235D01*
X134971367Y-61444681D01*
X134968772Y-61452620D01*
X134965768Y-61459254D01*
X134965309Y-61460154D01*
X134933888Y-61504325D01*
X134891185Y-61540026D01*
X134873937Y-61549867D01*
X134848221Y-61557576D01*
X134810695Y-61562386D01*
X134766228Y-61564342D01*
X134719684Y-61563491D01*
X134675932Y-61559877D01*
X134639837Y-61553549D01*
X134621634Y-61547482D01*
X134593927Y-61531286D01*
X134568806Y-61511343D01*
X134564933Y-61507451D01*
X134550415Y-61490938D01*
X134539064Y-61474492D01*
X134530494Y-61455824D01*
X134524318Y-61432650D01*
X134520150Y-61402682D01*
X134517604Y-61363634D01*
X134516294Y-61313220D01*
X134515833Y-61249153D01*
X134515800Y-61216558D01*
X134515800Y-61012973D01*
X134543317Y-61024606D01*
X134595062Y-61047678D01*
X134631003Y-61066506D01*
X134651655Y-61081377D01*
X134656648Y-61087901D01*
X134659195Y-61100893D01*
X134661888Y-61127601D01*
X134664487Y-61164811D01*
X134666754Y-61209310D01*
X134667900Y-61239513D01*
X134669672Y-61290660D01*
X134671411Y-61327723D01*
X134673605Y-61353541D01*
X134676743Y-61370954D01*
X134681313Y-61382804D01*
X134687804Y-61391929D01*
X134695486Y-61399956D01*
X134725279Y-61419412D01*
X134757541Y-61422989D01*
X134788863Y-61410687D01*
X134801781Y-61399934D01*
X134824834Y-61376882D01*
X134824834Y-60243118D01*
X134801781Y-60220066D01*
X134771999Y-60200597D01*
X134739740Y-60197007D01*
X134708411Y-60209296D01*
X134695486Y-60220045D01*
X134672434Y-60243077D01*
X134668200Y-60424282D01*
X134663967Y-60605487D01*
X134603841Y-60577621D01*
X134574890Y-60563905D01*
X134553103Y-60551514D01*
X134537461Y-60537871D01*
X134526947Y-60520399D01*
X134520542Y-60496523D01*
X134517228Y-60463665D01*
X134515987Y-60419250D01*
X134515800Y-60360701D01*
X134515800Y-60354877D01*
X134516222Y-60291401D01*
X134517854Y-60242142D01*
X134521245Y-60204397D01*
X134526943Y-60175463D01*
X134535497Y-60152638D01*
X134547456Y-60133217D01*
X134563368Y-60114499D01*
X134564933Y-60112841D01*
X134589621Y-60089893D01*
X134615263Y-60073939D01*
X134645613Y-60063826D01*
X134684426Y-60058404D01*
X134735455Y-60056520D01*
X134748717Y-60056467D01*
X134799995Y-60057374D01*
X134799995Y-60057374D01*
G37*
X134799995Y-60057374D02*
X134838375Y-60060841D01*
X134867828Y-60067986D01*
X134892326Y-60079928D01*
X134915843Y-60097785D01*
X134925092Y-60106116D01*
X134945445Y-60129271D01*
X134963521Y-60156499D01*
X134965309Y-60159846D01*
X134968373Y-60166392D01*
X134971024Y-60174073D01*
X134973292Y-60184093D01*
X134975205Y-60197653D01*
X134976795Y-60215956D01*
X134978092Y-60240203D01*
X134979124Y-60271596D01*
X134979922Y-60311339D01*
X134980516Y-60360632D01*
X134980935Y-60420678D01*
X134981210Y-60492679D01*
X134981370Y-60577838D01*
X134981446Y-60677356D01*
X134981467Y-60792436D01*
X134981467Y-60810000D01*
X134981451Y-60927372D01*
X134981385Y-61029014D01*
X134981239Y-61116126D01*
X134980982Y-61189912D01*
X134980585Y-61251572D01*
X134980017Y-61302310D01*
X134979250Y-61343328D01*
X134978253Y-61375827D01*
X134976995Y-61401010D01*
X134975449Y-61420078D01*
X134973582Y-61434235D01*
X134971367Y-61444681D01*
X134968772Y-61452620D01*
X134965768Y-61459254D01*
X134965309Y-61460154D01*
X134933888Y-61504325D01*
X134891185Y-61540026D01*
X134873937Y-61549867D01*
X134848221Y-61557576D01*
X134810695Y-61562386D01*
X134766228Y-61564342D01*
X134719684Y-61563491D01*
X134675932Y-61559877D01*
X134639837Y-61553549D01*
X134621634Y-61547482D01*
X134593927Y-61531286D01*
X134568806Y-61511343D01*
X134564933Y-61507451D01*
X134550415Y-61490938D01*
X134539064Y-61474492D01*
X134530494Y-61455824D01*
X134524318Y-61432650D01*
X134520150Y-61402682D01*
X134517604Y-61363634D01*
X134516294Y-61313220D01*
X134515833Y-61249153D01*
X134515800Y-61216558D01*
X134515800Y-61012973D01*
X134543317Y-61024606D01*
X134595062Y-61047678D01*
X134631003Y-61066506D01*
X134651655Y-61081377D01*
X134656648Y-61087901D01*
X134659195Y-61100893D01*
X134661888Y-61127601D01*
X134664487Y-61164811D01*
X134666754Y-61209310D01*
X134667900Y-61239513D01*
X134669672Y-61290660D01*
X134671411Y-61327723D01*
X134673605Y-61353541D01*
X134676743Y-61370954D01*
X134681313Y-61382804D01*
X134687804Y-61391929D01*
X134695486Y-61399956D01*
X134725279Y-61419412D01*
X134757541Y-61422989D01*
X134788863Y-61410687D01*
X134801781Y-61399934D01*
X134824834Y-61376882D01*
X134824834Y-60243118D01*
X134801781Y-60220066D01*
X134771999Y-60200597D01*
X134739740Y-60197007D01*
X134708411Y-60209296D01*
X134695486Y-60220045D01*
X134672434Y-60243077D01*
X134668200Y-60424282D01*
X134663967Y-60605487D01*
X134603841Y-60577621D01*
X134574890Y-60563905D01*
X134553103Y-60551514D01*
X134537461Y-60537871D01*
X134526947Y-60520399D01*
X134520542Y-60496523D01*
X134517228Y-60463665D01*
X134515987Y-60419250D01*
X134515800Y-60360701D01*
X134515800Y-60354877D01*
X134516222Y-60291401D01*
X134517854Y-60242142D01*
X134521245Y-60204397D01*
X134526943Y-60175463D01*
X134535497Y-60152638D01*
X134547456Y-60133217D01*
X134563368Y-60114499D01*
X134564933Y-60112841D01*
X134589621Y-60089893D01*
X134615263Y-60073939D01*
X134645613Y-60063826D01*
X134684426Y-60058404D01*
X134735455Y-60056520D01*
X134748717Y-60056467D01*
X134799995Y-60057374D01*
G36*
X137125042Y-60057615D02*
X137165164Y-60061885D01*
X137196298Y-60070508D01*
X137222361Y-60084717D01*
X137247273Y-60105748D01*
X137255832Y-60114315D01*
X137265882Y-60124791D01*
X137274599Y-60134901D01*
X137282080Y-60145865D01*
X137288417Y-60158905D01*
X137293707Y-60175240D01*
X137298044Y-60196092D01*
X137301522Y-60222682D01*
X137304236Y-60256230D01*
X137306280Y-60297957D01*
X137307751Y-60349084D01*
X137308741Y-60410832D01*
X137309347Y-60484421D01*
X137309662Y-60571072D01*
X137309782Y-60672007D01*
X137309800Y-60788445D01*
X137309800Y-60810000D01*
X137309789Y-60929212D01*
X137309694Y-61032711D01*
X137309419Y-61121719D01*
X137308870Y-61197455D01*
X137307952Y-61261141D01*
X137306570Y-61313998D01*
X137304630Y-61357247D01*
X137302037Y-61392107D01*
X137298697Y-61419800D01*
X137294514Y-61441547D01*
X137289394Y-61458569D01*
X137283242Y-61472085D01*
X137275964Y-61483318D01*
X137267464Y-61493487D01*
X137257649Y-61503814D01*
X137255832Y-61505685D01*
X137230532Y-61529151D01*
X137205380Y-61545432D01*
X137176474Y-61555751D01*
X137139911Y-61561334D01*
X137091788Y-61563405D01*
X137071454Y-61563526D01*
X137026543Y-61563023D01*
X136994295Y-61561137D01*
X136970462Y-61557291D01*
X136950792Y-61550912D01*
X136939193Y-61545614D01*
X136897430Y-61516772D01*
X136864376Y-61477782D01*
X136845331Y-61437191D01*
X136842250Y-61417687D01*
X136839762Y-61381668D01*
X136837864Y-61329047D01*
X136836553Y-61259738D01*
X136835828Y-61173657D01*
X136835667Y-61098616D01*
X136835667Y-60792297D01*
X136856449Y-60771515D01*
X136865591Y-60763157D01*
X136875483Y-60757404D01*
X136889289Y-60753771D01*
X136910173Y-60751771D01*
X136941299Y-60750921D01*
X136985833Y-60750734D01*
X136991915Y-60750733D01*
X137033739Y-60751173D01*
X137068691Y-60752380D01*
X137093700Y-60754183D01*
X137105699Y-60756412D01*
X137106310Y-60757083D01*
X137101512Y-60772448D01*
X137089677Y-60796876D01*
X137073351Y-60826156D01*
X137055077Y-60856076D01*
X137037400Y-60882424D01*
X137022865Y-60900988D01*
X137015584Y-60907258D01*
X136996534Y-60915615D01*
X136996534Y-61142764D01*
X136996864Y-61214746D01*
X136997823Y-61276072D01*
X136999360Y-61325334D01*
X137001424Y-61361122D01*
X137003965Y-61382025D01*
X137005251Y-61386202D01*
X137020928Y-61403150D01*
X137045211Y-61418415D01*
X137070042Y-61427318D01*
X137077393Y-61428067D01*
X137091341Y-61422409D01*
X137110677Y-61408079D01*
X137120147Y-61399280D01*
X137148934Y-61370493D01*
X137148934Y-60249506D01*
X137119124Y-60219697D01*
X137099148Y-60201649D01*
X137083505Y-60194173D01*
X137065959Y-60194612D01*
X137062003Y-60195349D01*
X137036989Y-60204563D01*
X137017730Y-60217755D01*
X137012186Y-60224369D01*
X137007903Y-60233226D01*
X137004651Y-60246576D01*
X137002198Y-60266668D01*
X137000313Y-60295755D01*
X136998767Y-60336086D01*
X136997327Y-60389911D01*
X136996534Y-60424478D01*
X136992300Y-60614259D01*
X136924479Y-60582366D01*
X136885719Y-60562520D01*
X136860824Y-60545582D01*
X136847367Y-60529849D01*
X136846162Y-60527438D01*
X136842167Y-60509792D01*
X136839101Y-60478791D01*
X136836973Y-60437990D01*
X136835793Y-60390940D01*
X136835569Y-60341197D01*
X136836309Y-60292314D01*
X136838022Y-60247845D01*
X136840716Y-60211342D01*
X136844400Y-60186361D01*
X136845331Y-60182809D01*
X136866591Y-60138851D01*
X136900440Y-60100565D01*
X136939930Y-60074160D01*
X136959624Y-60066010D01*
X136981134Y-60060749D01*
X137008749Y-60057803D01*
X137046759Y-60056597D01*
X137072010Y-60056467D01*
X137125042Y-60057615D01*
X137125042Y-60057615D01*
G37*
X137125042Y-60057615D02*
X137165164Y-60061885D01*
X137196298Y-60070508D01*
X137222361Y-60084717D01*
X137247273Y-60105748D01*
X137255832Y-60114315D01*
X137265882Y-60124791D01*
X137274599Y-60134901D01*
X137282080Y-60145865D01*
X137288417Y-60158905D01*
X137293707Y-60175240D01*
X137298044Y-60196092D01*
X137301522Y-60222682D01*
X137304236Y-60256230D01*
X137306280Y-60297957D01*
X137307751Y-60349084D01*
X137308741Y-60410832D01*
X137309347Y-60484421D01*
X137309662Y-60571072D01*
X137309782Y-60672007D01*
X137309800Y-60788445D01*
X137309800Y-60810000D01*
X137309789Y-60929212D01*
X137309694Y-61032711D01*
X137309419Y-61121719D01*
X137308870Y-61197455D01*
X137307952Y-61261141D01*
X137306570Y-61313998D01*
X137304630Y-61357247D01*
X137302037Y-61392107D01*
X137298697Y-61419800D01*
X137294514Y-61441547D01*
X137289394Y-61458569D01*
X137283242Y-61472085D01*
X137275964Y-61483318D01*
X137267464Y-61493487D01*
X137257649Y-61503814D01*
X137255832Y-61505685D01*
X137230532Y-61529151D01*
X137205380Y-61545432D01*
X137176474Y-61555751D01*
X137139911Y-61561334D01*
X137091788Y-61563405D01*
X137071454Y-61563526D01*
X137026543Y-61563023D01*
X136994295Y-61561137D01*
X136970462Y-61557291D01*
X136950792Y-61550912D01*
X136939193Y-61545614D01*
X136897430Y-61516772D01*
X136864376Y-61477782D01*
X136845331Y-61437191D01*
X136842250Y-61417687D01*
X136839762Y-61381668D01*
X136837864Y-61329047D01*
X136836553Y-61259738D01*
X136835828Y-61173657D01*
X136835667Y-61098616D01*
X136835667Y-60792297D01*
X136856449Y-60771515D01*
X136865591Y-60763157D01*
X136875483Y-60757404D01*
X136889289Y-60753771D01*
X136910173Y-60751771D01*
X136941299Y-60750921D01*
X136985833Y-60750734D01*
X136991915Y-60750733D01*
X137033739Y-60751173D01*
X137068691Y-60752380D01*
X137093700Y-60754183D01*
X137105699Y-60756412D01*
X137106310Y-60757083D01*
X137101512Y-60772448D01*
X137089677Y-60796876D01*
X137073351Y-60826156D01*
X137055077Y-60856076D01*
X137037400Y-60882424D01*
X137022865Y-60900988D01*
X137015584Y-60907258D01*
X136996534Y-60915615D01*
X136996534Y-61142764D01*
X136996864Y-61214746D01*
X136997823Y-61276072D01*
X136999360Y-61325334D01*
X137001424Y-61361122D01*
X137003965Y-61382025D01*
X137005251Y-61386202D01*
X137020928Y-61403150D01*
X137045211Y-61418415D01*
X137070042Y-61427318D01*
X137077393Y-61428067D01*
X137091341Y-61422409D01*
X137110677Y-61408079D01*
X137120147Y-61399280D01*
X137148934Y-61370493D01*
X137148934Y-60249506D01*
X137119124Y-60219697D01*
X137099148Y-60201649D01*
X137083505Y-60194173D01*
X137065959Y-60194612D01*
X137062003Y-60195349D01*
X137036989Y-60204563D01*
X137017730Y-60217755D01*
X137012186Y-60224369D01*
X137007903Y-60233226D01*
X137004651Y-60246576D01*
X137002198Y-60266668D01*
X137000313Y-60295755D01*
X136998767Y-60336086D01*
X136997327Y-60389911D01*
X136996534Y-60424478D01*
X136992300Y-60614259D01*
X136924479Y-60582366D01*
X136885719Y-60562520D01*
X136860824Y-60545582D01*
X136847367Y-60529849D01*
X136846162Y-60527438D01*
X136842167Y-60509792D01*
X136839101Y-60478791D01*
X136836973Y-60437990D01*
X136835793Y-60390940D01*
X136835569Y-60341197D01*
X136836309Y-60292314D01*
X136838022Y-60247845D01*
X136840716Y-60211342D01*
X136844400Y-60186361D01*
X136845331Y-60182809D01*
X136866591Y-60138851D01*
X136900440Y-60100565D01*
X136939930Y-60074160D01*
X136959624Y-60066010D01*
X136981134Y-60060749D01*
X137008749Y-60057803D01*
X137046759Y-60056597D01*
X137072010Y-60056467D01*
X137125042Y-60057615D01*
G36*
X138546052Y-60064067D02*
X138555375Y-60068110D01*
X138563083Y-60076030D01*
X138569335Y-60088915D01*
X138574289Y-60107851D01*
X138578103Y-60133927D01*
X138580937Y-60168228D01*
X138582950Y-60211842D01*
X138584299Y-60265857D01*
X138585144Y-60331358D01*
X138585643Y-60409433D01*
X138585955Y-60501170D01*
X138586239Y-60607655D01*
X138586653Y-60729975D01*
X138586657Y-60730999D01*
X138587116Y-60870442D01*
X138587280Y-60993288D01*
X138587147Y-61099869D01*
X138586714Y-61190518D01*
X138585977Y-61265569D01*
X138584934Y-61325355D01*
X138583580Y-61370208D01*
X138581913Y-61400462D01*
X138580066Y-61415846D01*
X138561233Y-61464817D01*
X138528659Y-61507211D01*
X138485312Y-61539202D01*
X138483731Y-61540037D01*
X138462252Y-61549315D01*
X138437596Y-61555296D01*
X138405068Y-61558781D01*
X138363900Y-61560477D01*
X138323165Y-61560637D01*
X138284662Y-61559320D01*
X138254257Y-61556785D01*
X138243897Y-61555137D01*
X138192085Y-61538522D01*
X138151737Y-61511594D01*
X138119281Y-61471667D01*
X138108774Y-61453467D01*
X138105900Y-61447416D01*
X138103389Y-61439996D01*
X138101211Y-61430069D01*
X138099337Y-61416497D01*
X138097738Y-61398142D01*
X138096385Y-61373866D01*
X138095249Y-61342532D01*
X138094300Y-61303002D01*
X138093509Y-61254138D01*
X138092848Y-61194803D01*
X138092287Y-61123858D01*
X138091797Y-61040165D01*
X138091348Y-60942587D01*
X138090912Y-60829987D01*
X138090609Y-60744383D01*
X138088250Y-60064933D01*
X138249294Y-60064933D01*
X138253834Y-61376887D01*
X138276604Y-61399654D01*
X138306269Y-61418330D01*
X138341102Y-61423917D01*
X138375527Y-61416415D01*
X138400397Y-61399654D01*
X138423167Y-61376887D01*
X138425436Y-60720910D01*
X138427706Y-60064933D01*
X138489435Y-60064933D01*
X138506805Y-60064336D01*
X138521926Y-60063267D01*
X138534955Y-60062816D01*
X138546052Y-60064067D01*
X138546052Y-60064067D01*
G37*
X138546052Y-60064067D02*
X138555375Y-60068110D01*
X138563083Y-60076030D01*
X138569335Y-60088915D01*
X138574289Y-60107851D01*
X138578103Y-60133927D01*
X138580937Y-60168228D01*
X138582950Y-60211842D01*
X138584299Y-60265857D01*
X138585144Y-60331358D01*
X138585643Y-60409433D01*
X138585955Y-60501170D01*
X138586239Y-60607655D01*
X138586653Y-60729975D01*
X138586657Y-60730999D01*
X138587116Y-60870442D01*
X138587280Y-60993288D01*
X138587147Y-61099869D01*
X138586714Y-61190518D01*
X138585977Y-61265569D01*
X138584934Y-61325355D01*
X138583580Y-61370208D01*
X138581913Y-61400462D01*
X138580066Y-61415846D01*
X138561233Y-61464817D01*
X138528659Y-61507211D01*
X138485312Y-61539202D01*
X138483731Y-61540037D01*
X138462252Y-61549315D01*
X138437596Y-61555296D01*
X138405068Y-61558781D01*
X138363900Y-61560477D01*
X138323165Y-61560637D01*
X138284662Y-61559320D01*
X138254257Y-61556785D01*
X138243897Y-61555137D01*
X138192085Y-61538522D01*
X138151737Y-61511594D01*
X138119281Y-61471667D01*
X138108774Y-61453467D01*
X138105900Y-61447416D01*
X138103389Y-61439996D01*
X138101211Y-61430069D01*
X138099337Y-61416497D01*
X138097738Y-61398142D01*
X138096385Y-61373866D01*
X138095249Y-61342532D01*
X138094300Y-61303002D01*
X138093509Y-61254138D01*
X138092848Y-61194803D01*
X138092287Y-61123858D01*
X138091797Y-61040165D01*
X138091348Y-60942587D01*
X138090912Y-60829987D01*
X138090609Y-60744383D01*
X138088250Y-60064933D01*
X138249294Y-60064933D01*
X138253834Y-61376887D01*
X138276604Y-61399654D01*
X138306269Y-61418330D01*
X138341102Y-61423917D01*
X138375527Y-61416415D01*
X138400397Y-61399654D01*
X138423167Y-61376887D01*
X138425436Y-60720910D01*
X138427706Y-60064933D01*
X138489435Y-60064933D01*
X138506805Y-60064336D01*
X138521926Y-60063267D01*
X138534955Y-60062816D01*
X138546052Y-60064067D01*
G36*
X143457880Y-60088047D02*
X143497129Y-60124557D01*
X143517146Y-60155781D01*
X143537033Y-60196167D01*
X143539692Y-60784600D01*
X143540172Y-60916745D01*
X143540337Y-61032414D01*
X143540184Y-61132060D01*
X143539708Y-61216137D01*
X143538904Y-61285099D01*
X143537766Y-61339399D01*
X143536290Y-61379492D01*
X143534472Y-61405832D01*
X143532982Y-61416380D01*
X143515376Y-61462076D01*
X143485043Y-61504324D01*
X143446094Y-61537883D01*
X143430628Y-61546892D01*
X143413924Y-61554079D01*
X143394739Y-61558902D01*
X143369395Y-61561794D01*
X143334212Y-61563190D01*
X143289721Y-61563526D01*
X143242652Y-61563159D01*
X143208674Y-61561744D01*
X143183954Y-61558804D01*
X143164658Y-61553863D01*
X143146954Y-61546443D01*
X143145058Y-61545514D01*
X143117769Y-61528304D01*
X143093750Y-61507161D01*
X143088170Y-61500615D01*
X143079481Y-61489323D01*
X143071949Y-61478998D01*
X143065490Y-61468408D01*
X143060022Y-61456322D01*
X143055464Y-61441508D01*
X143051731Y-61422736D01*
X143048743Y-61398772D01*
X143046417Y-61368386D01*
X143044669Y-61330347D01*
X143043419Y-61283423D01*
X143042582Y-61226382D01*
X143042077Y-61157994D01*
X143041822Y-61077026D01*
X143041734Y-60982247D01*
X143041730Y-60872425D01*
X143041731Y-60840332D01*
X143201580Y-60840332D01*
X143201779Y-60926367D01*
X143202260Y-61010037D01*
X143203023Y-61089589D01*
X143204069Y-61163274D01*
X143205399Y-61229339D01*
X143207013Y-61286035D01*
X143208912Y-61331611D01*
X143211097Y-61364315D01*
X143213568Y-61382397D01*
X143214415Y-61384801D01*
X143237098Y-61409987D01*
X143267851Y-61423440D01*
X143302108Y-61424702D01*
X143335302Y-61413312D01*
X143354175Y-61398876D01*
X143376167Y-61376888D01*
X143380751Y-60252916D01*
X143358899Y-60226946D01*
X143330923Y-60204596D01*
X143298075Y-60194602D01*
X143264753Y-60196716D01*
X143235353Y-60210692D01*
X143214901Y-60235039D01*
X143212327Y-60248436D01*
X143210027Y-60276976D01*
X143208001Y-60318908D01*
X143206252Y-60372481D01*
X143204778Y-60435945D01*
X143203581Y-60507547D01*
X143202663Y-60585538D01*
X143202022Y-60668166D01*
X143201661Y-60753681D01*
X143201580Y-60840332D01*
X143041731Y-60840332D01*
X143041733Y-60807005D01*
X143041733Y-60202333D01*
X143065384Y-60157061D01*
X143093307Y-60115983D01*
X143125380Y-60086244D01*
X143161726Y-60060700D01*
X143418500Y-60060700D01*
X143457880Y-60088047D01*
X143457880Y-60088047D01*
G37*
X143457880Y-60088047D02*
X143497129Y-60124557D01*
X143517146Y-60155781D01*
X143537033Y-60196167D01*
X143539692Y-60784600D01*
X143540172Y-60916745D01*
X143540337Y-61032414D01*
X143540184Y-61132060D01*
X143539708Y-61216137D01*
X143538904Y-61285099D01*
X143537766Y-61339399D01*
X143536290Y-61379492D01*
X143534472Y-61405832D01*
X143532982Y-61416380D01*
X143515376Y-61462076D01*
X143485043Y-61504324D01*
X143446094Y-61537883D01*
X143430628Y-61546892D01*
X143413924Y-61554079D01*
X143394739Y-61558902D01*
X143369395Y-61561794D01*
X143334212Y-61563190D01*
X143289721Y-61563526D01*
X143242652Y-61563159D01*
X143208674Y-61561744D01*
X143183954Y-61558804D01*
X143164658Y-61553863D01*
X143146954Y-61546443D01*
X143145058Y-61545514D01*
X143117769Y-61528304D01*
X143093750Y-61507161D01*
X143088170Y-61500615D01*
X143079481Y-61489323D01*
X143071949Y-61478998D01*
X143065490Y-61468408D01*
X143060022Y-61456322D01*
X143055464Y-61441508D01*
X143051731Y-61422736D01*
X143048743Y-61398772D01*
X143046417Y-61368386D01*
X143044669Y-61330347D01*
X143043419Y-61283423D01*
X143042582Y-61226382D01*
X143042077Y-61157994D01*
X143041822Y-61077026D01*
X143041734Y-60982247D01*
X143041730Y-60872425D01*
X143041731Y-60840332D01*
X143201580Y-60840332D01*
X143201779Y-60926367D01*
X143202260Y-61010037D01*
X143203023Y-61089589D01*
X143204069Y-61163274D01*
X143205399Y-61229339D01*
X143207013Y-61286035D01*
X143208912Y-61331611D01*
X143211097Y-61364315D01*
X143213568Y-61382397D01*
X143214415Y-61384801D01*
X143237098Y-61409987D01*
X143267851Y-61423440D01*
X143302108Y-61424702D01*
X143335302Y-61413312D01*
X143354175Y-61398876D01*
X143376167Y-61376888D01*
X143380751Y-60252916D01*
X143358899Y-60226946D01*
X143330923Y-60204596D01*
X143298075Y-60194602D01*
X143264753Y-60196716D01*
X143235353Y-60210692D01*
X143214901Y-60235039D01*
X143212327Y-60248436D01*
X143210027Y-60276976D01*
X143208001Y-60318908D01*
X143206252Y-60372481D01*
X143204778Y-60435945D01*
X143203581Y-60507547D01*
X143202663Y-60585538D01*
X143202022Y-60668166D01*
X143201661Y-60753681D01*
X143201580Y-60840332D01*
X143041731Y-60840332D01*
X143041733Y-60807005D01*
X143041733Y-60202333D01*
X143065384Y-60157061D01*
X143093307Y-60115983D01*
X143125380Y-60086244D01*
X143161726Y-60060700D01*
X143418500Y-60060700D01*
X143457880Y-60088047D01*
G36*
X144627107Y-60058764D02*
X144661614Y-60064396D01*
X144678337Y-60070133D01*
X144723813Y-60101463D01*
X144759946Y-60143167D01*
X144769709Y-60159846D01*
X144772773Y-60166392D01*
X144775424Y-60174073D01*
X144777692Y-60184093D01*
X144779605Y-60197653D01*
X144781195Y-60215956D01*
X144782492Y-60240203D01*
X144783524Y-60271596D01*
X144784322Y-60311339D01*
X144784916Y-60360632D01*
X144785335Y-60420678D01*
X144785610Y-60492679D01*
X144785770Y-60577838D01*
X144785846Y-60677356D01*
X144785867Y-60792436D01*
X144785867Y-60810000D01*
X144785851Y-60927372D01*
X144785785Y-61029014D01*
X144785639Y-61116126D01*
X144785382Y-61189912D01*
X144784985Y-61251572D01*
X144784417Y-61302310D01*
X144783650Y-61343328D01*
X144782653Y-61375827D01*
X144781395Y-61401010D01*
X144779849Y-61420078D01*
X144777982Y-61434235D01*
X144775767Y-61444681D01*
X144773172Y-61452620D01*
X144770168Y-61459254D01*
X144769709Y-61460154D01*
X144752602Y-61487045D01*
X144732050Y-61511424D01*
X144729492Y-61513883D01*
X144704971Y-61534456D01*
X144680888Y-61548545D01*
X144653188Y-61557305D01*
X144617820Y-61561894D01*
X144570730Y-61563468D01*
X144555571Y-61563526D01*
X144510678Y-61563013D01*
X144478443Y-61561096D01*
X144454608Y-61557200D01*
X144434917Y-61550749D01*
X144423931Y-61545715D01*
X144379735Y-61514988D01*
X144344879Y-61472955D01*
X144331617Y-61447388D01*
X144328479Y-61436174D01*
X144325930Y-61417999D01*
X144323919Y-61391383D01*
X144322397Y-61354842D01*
X144321315Y-61306896D01*
X144320623Y-61246061D01*
X144320271Y-61170856D01*
X144320200Y-61106220D01*
X144320200Y-60792297D01*
X144340982Y-60771515D01*
X144350124Y-60763157D01*
X144360016Y-60757404D01*
X144373822Y-60753771D01*
X144394706Y-60751771D01*
X144425833Y-60750921D01*
X144470366Y-60750734D01*
X144476449Y-60750733D01*
X144518273Y-60751173D01*
X144553224Y-60752380D01*
X144578234Y-60754183D01*
X144590233Y-60756412D01*
X144590843Y-60757083D01*
X144586045Y-60772448D01*
X144574211Y-60796876D01*
X144557884Y-60826156D01*
X144539610Y-60856076D01*
X144521934Y-60882424D01*
X144507399Y-60900988D01*
X144500117Y-60907258D01*
X144481067Y-60915615D01*
X144481067Y-61145969D01*
X144481095Y-61214341D01*
X144481287Y-61267845D01*
X144481808Y-61308544D01*
X144482820Y-61338504D01*
X144484486Y-61359787D01*
X144486970Y-61374460D01*
X144490436Y-61384585D01*
X144495046Y-61392229D01*
X144500964Y-61399454D01*
X144501136Y-61399654D01*
X144527625Y-61419057D01*
X144558293Y-61423606D01*
X144589175Y-61413288D01*
X144606181Y-61399934D01*
X144629233Y-61376882D01*
X144629233Y-60241344D01*
X144600640Y-60215796D01*
X144579451Y-60199500D01*
X144561690Y-60193984D01*
X144545636Y-60195529D01*
X144520793Y-60204865D01*
X144502263Y-60217755D01*
X144496729Y-60224355D01*
X144492452Y-60233192D01*
X144489202Y-60246510D01*
X144486750Y-60266555D01*
X144484866Y-60295573D01*
X144483320Y-60335808D01*
X144481885Y-60389506D01*
X144481067Y-60425212D01*
X144476833Y-60615727D01*
X144407605Y-60582235D01*
X144375644Y-60565433D01*
X144349234Y-60549075D01*
X144332476Y-60535804D01*
X144329289Y-60531762D01*
X144325526Y-60515930D01*
X144322725Y-60486577D01*
X144320864Y-60447089D01*
X144319922Y-60400849D01*
X144319876Y-60351242D01*
X144320705Y-60301653D01*
X144322386Y-60255466D01*
X144324897Y-60216064D01*
X144328217Y-60186834D01*
X144331617Y-60172611D01*
X144356178Y-60130814D01*
X144390335Y-60095066D01*
X144425683Y-60072381D01*
X144453653Y-60064231D01*
X144492630Y-60058751D01*
X144537765Y-60055986D01*
X144584208Y-60055976D01*
X144627107Y-60058764D01*
X144627107Y-60058764D01*
G37*
X144627107Y-60058764D02*
X144661614Y-60064396D01*
X144678337Y-60070133D01*
X144723813Y-60101463D01*
X144759946Y-60143167D01*
X144769709Y-60159846D01*
X144772773Y-60166392D01*
X144775424Y-60174073D01*
X144777692Y-60184093D01*
X144779605Y-60197653D01*
X144781195Y-60215956D01*
X144782492Y-60240203D01*
X144783524Y-60271596D01*
X144784322Y-60311339D01*
X144784916Y-60360632D01*
X144785335Y-60420678D01*
X144785610Y-60492679D01*
X144785770Y-60577838D01*
X144785846Y-60677356D01*
X144785867Y-60792436D01*
X144785867Y-60810000D01*
X144785851Y-60927372D01*
X144785785Y-61029014D01*
X144785639Y-61116126D01*
X144785382Y-61189912D01*
X144784985Y-61251572D01*
X144784417Y-61302310D01*
X144783650Y-61343328D01*
X144782653Y-61375827D01*
X144781395Y-61401010D01*
X144779849Y-61420078D01*
X144777982Y-61434235D01*
X144775767Y-61444681D01*
X144773172Y-61452620D01*
X144770168Y-61459254D01*
X144769709Y-61460154D01*
X144752602Y-61487045D01*
X144732050Y-61511424D01*
X144729492Y-61513883D01*
X144704971Y-61534456D01*
X144680888Y-61548545D01*
X144653188Y-61557305D01*
X144617820Y-61561894D01*
X144570730Y-61563468D01*
X144555571Y-61563526D01*
X144510678Y-61563013D01*
X144478443Y-61561096D01*
X144454608Y-61557200D01*
X144434917Y-61550749D01*
X144423931Y-61545715D01*
X144379735Y-61514988D01*
X144344879Y-61472955D01*
X144331617Y-61447388D01*
X144328479Y-61436174D01*
X144325930Y-61417999D01*
X144323919Y-61391383D01*
X144322397Y-61354842D01*
X144321315Y-61306896D01*
X144320623Y-61246061D01*
X144320271Y-61170856D01*
X144320200Y-61106220D01*
X144320200Y-60792297D01*
X144340982Y-60771515D01*
X144350124Y-60763157D01*
X144360016Y-60757404D01*
X144373822Y-60753771D01*
X144394706Y-60751771D01*
X144425833Y-60750921D01*
X144470366Y-60750734D01*
X144476449Y-60750733D01*
X144518273Y-60751173D01*
X144553224Y-60752380D01*
X144578234Y-60754183D01*
X144590233Y-60756412D01*
X144590843Y-60757083D01*
X144586045Y-60772448D01*
X144574211Y-60796876D01*
X144557884Y-60826156D01*
X144539610Y-60856076D01*
X144521934Y-60882424D01*
X144507399Y-60900988D01*
X144500117Y-60907258D01*
X144481067Y-60915615D01*
X144481067Y-61145969D01*
X144481095Y-61214341D01*
X144481287Y-61267845D01*
X144481808Y-61308544D01*
X144482820Y-61338504D01*
X144484486Y-61359787D01*
X144486970Y-61374460D01*
X144490436Y-61384585D01*
X144495046Y-61392229D01*
X144500964Y-61399454D01*
X144501136Y-61399654D01*
X144527625Y-61419057D01*
X144558293Y-61423606D01*
X144589175Y-61413288D01*
X144606181Y-61399934D01*
X144629233Y-61376882D01*
X144629233Y-60241344D01*
X144600640Y-60215796D01*
X144579451Y-60199500D01*
X144561690Y-60193984D01*
X144545636Y-60195529D01*
X144520793Y-60204865D01*
X144502263Y-60217755D01*
X144496729Y-60224355D01*
X144492452Y-60233192D01*
X144489202Y-60246510D01*
X144486750Y-60266555D01*
X144484866Y-60295573D01*
X144483320Y-60335808D01*
X144481885Y-60389506D01*
X144481067Y-60425212D01*
X144476833Y-60615727D01*
X144407605Y-60582235D01*
X144375644Y-60565433D01*
X144349234Y-60549075D01*
X144332476Y-60535804D01*
X144329289Y-60531762D01*
X144325526Y-60515930D01*
X144322725Y-60486577D01*
X144320864Y-60447089D01*
X144319922Y-60400849D01*
X144319876Y-60351242D01*
X144320705Y-60301653D01*
X144322386Y-60255466D01*
X144324897Y-60216064D01*
X144328217Y-60186834D01*
X144331617Y-60172611D01*
X144356178Y-60130814D01*
X144390335Y-60095066D01*
X144425683Y-60072381D01*
X144453653Y-60064231D01*
X144492630Y-60058751D01*
X144537765Y-60055986D01*
X144584208Y-60055976D01*
X144627107Y-60058764D01*
G36*
X116989800Y-61555067D02*
X116828934Y-61555067D01*
X116828934Y-60920066D01*
X116775376Y-60920066D01*
X116744310Y-60920992D01*
X116724433Y-60924886D01*
X116710051Y-60933429D01*
X116701293Y-60941905D01*
X116680767Y-60963744D01*
X116678338Y-61259405D01*
X116675908Y-61555067D01*
X116514732Y-61555067D01*
X116517316Y-61235450D01*
X116518013Y-61153282D01*
X116518712Y-61086263D01*
X116519520Y-61032611D01*
X116520541Y-60990543D01*
X116521881Y-60958274D01*
X116523646Y-60934022D01*
X116525942Y-60916003D01*
X116528873Y-60902434D01*
X116532545Y-60891532D01*
X116537064Y-60881514D01*
X116538415Y-60878784D01*
X116556931Y-60841734D01*
X116538415Y-60816695D01*
X116533481Y-60809598D01*
X116529512Y-60801848D01*
X116526403Y-60791641D01*
X116524048Y-60777170D01*
X116522344Y-60756631D01*
X116521185Y-60728218D01*
X116520466Y-60690125D01*
X116520082Y-60640549D01*
X116519928Y-60577682D01*
X116519901Y-60502064D01*
X116676236Y-60502064D01*
X116676832Y-60557830D01*
X116678034Y-60610122D01*
X116679835Y-60656045D01*
X116682226Y-60692700D01*
X116685196Y-60717192D01*
X116687409Y-60725166D01*
X116707384Y-60748952D01*
X116739004Y-60762863D01*
X116783733Y-60767539D01*
X116784484Y-60767542D01*
X116828934Y-60767667D01*
X116828934Y-60217333D01*
X116782765Y-60217333D01*
X116738450Y-60220860D01*
X116707730Y-60231962D01*
X116688687Y-60251418D01*
X116685934Y-60256765D01*
X116682692Y-60272533D01*
X116680113Y-60302209D01*
X116678187Y-60342898D01*
X116676905Y-60391701D01*
X116676258Y-60445722D01*
X116676236Y-60502064D01*
X116519901Y-60502064D01*
X116519900Y-60499721D01*
X116519900Y-60498145D01*
X116519935Y-60419746D01*
X116520109Y-60356420D01*
X116520525Y-60306309D01*
X116521287Y-60267551D01*
X116522498Y-60238288D01*
X116524262Y-60216660D01*
X116526683Y-60200806D01*
X116529864Y-60188868D01*
X116533908Y-60178984D01*
X116538126Y-60170766D01*
X116566768Y-60129263D01*
X116604481Y-60097459D01*
X116625734Y-60084974D01*
X116638257Y-60079376D01*
X116653718Y-60075136D01*
X116674704Y-60072009D01*
X116703807Y-60069752D01*
X116743615Y-60068120D01*
X116796718Y-60066868D01*
X116822584Y-60066414D01*
X116989800Y-60063662D01*
X116989800Y-61555067D01*
X116989800Y-61555067D01*
G37*
X116989800Y-61555067D02*
X116828934Y-61555067D01*
X116828934Y-60920066D01*
X116775376Y-60920066D01*
X116744310Y-60920992D01*
X116724433Y-60924886D01*
X116710051Y-60933429D01*
X116701293Y-60941905D01*
X116680767Y-60963744D01*
X116678338Y-61259405D01*
X116675908Y-61555067D01*
X116514732Y-61555067D01*
X116517316Y-61235450D01*
X116518013Y-61153282D01*
X116518712Y-61086263D01*
X116519520Y-61032611D01*
X116520541Y-60990543D01*
X116521881Y-60958274D01*
X116523646Y-60934022D01*
X116525942Y-60916003D01*
X116528873Y-60902434D01*
X116532545Y-60891532D01*
X116537064Y-60881514D01*
X116538415Y-60878784D01*
X116556931Y-60841734D01*
X116538415Y-60816695D01*
X116533481Y-60809598D01*
X116529512Y-60801848D01*
X116526403Y-60791641D01*
X116524048Y-60777170D01*
X116522344Y-60756631D01*
X116521185Y-60728218D01*
X116520466Y-60690125D01*
X116520082Y-60640549D01*
X116519928Y-60577682D01*
X116519901Y-60502064D01*
X116676236Y-60502064D01*
X116676832Y-60557830D01*
X116678034Y-60610122D01*
X116679835Y-60656045D01*
X116682226Y-60692700D01*
X116685196Y-60717192D01*
X116687409Y-60725166D01*
X116707384Y-60748952D01*
X116739004Y-60762863D01*
X116783733Y-60767539D01*
X116784484Y-60767542D01*
X116828934Y-60767667D01*
X116828934Y-60217333D01*
X116782765Y-60217333D01*
X116738450Y-60220860D01*
X116707730Y-60231962D01*
X116688687Y-60251418D01*
X116685934Y-60256765D01*
X116682692Y-60272533D01*
X116680113Y-60302209D01*
X116678187Y-60342898D01*
X116676905Y-60391701D01*
X116676258Y-60445722D01*
X116676236Y-60502064D01*
X116519901Y-60502064D01*
X116519900Y-60499721D01*
X116519900Y-60498145D01*
X116519935Y-60419746D01*
X116520109Y-60356420D01*
X116520525Y-60306309D01*
X116521287Y-60267551D01*
X116522498Y-60238288D01*
X116524262Y-60216660D01*
X116526683Y-60200806D01*
X116529864Y-60188868D01*
X116533908Y-60178984D01*
X116538126Y-60170766D01*
X116566768Y-60129263D01*
X116604481Y-60097459D01*
X116625734Y-60084974D01*
X116638257Y-60079376D01*
X116653718Y-60075136D01*
X116674704Y-60072009D01*
X116703807Y-60069752D01*
X116743615Y-60068120D01*
X116796718Y-60066868D01*
X116822584Y-60066414D01*
X116989800Y-60063662D01*
X116989800Y-61555067D01*
G36*
X119360467Y-61440449D02*
X119359464Y-61486499D01*
X119354969Y-61518281D01*
X119344752Y-61538410D01*
X119326585Y-61549505D01*
X119298236Y-61554182D01*
X119262823Y-61555067D01*
X119199046Y-61555067D01*
X119201440Y-61459817D01*
X119203833Y-61364567D01*
X119282150Y-61362132D01*
X119360467Y-61359698D01*
X119360467Y-61440449D01*
X119360467Y-61440449D01*
G37*
X119360467Y-61440449D02*
X119359464Y-61486499D01*
X119354969Y-61518281D01*
X119344752Y-61538410D01*
X119326585Y-61549505D01*
X119298236Y-61554182D01*
X119262823Y-61555067D01*
X119199046Y-61555067D01*
X119201440Y-61459817D01*
X119203833Y-61364567D01*
X119282150Y-61362132D01*
X119360467Y-61359698D01*
X119360467Y-61440449D01*
G36*
X120326613Y-60065086D02*
X120378083Y-60065625D01*
X120416764Y-60066673D01*
X120444727Y-60068351D01*
X120464045Y-60070780D01*
X120476787Y-60074083D01*
X120484650Y-60078113D01*
X120503467Y-60091293D01*
X120503467Y-61555067D01*
X120323550Y-61554735D01*
X120257863Y-61554316D01*
X120207042Y-61553247D01*
X120169027Y-61551405D01*
X120141759Y-61548667D01*
X120123178Y-61544909D01*
X120115667Y-61542255D01*
X120099327Y-61532530D01*
X120085152Y-61516813D01*
X120070288Y-61491345D01*
X120058517Y-61466941D01*
X120045042Y-61437231D01*
X120034860Y-61413746D01*
X120029666Y-61400429D01*
X120029334Y-61398988D01*
X120037361Y-61397478D01*
X120059686Y-61396164D01*
X120093673Y-61395126D01*
X120136687Y-61394444D01*
X120185967Y-61394200D01*
X120342600Y-61394200D01*
X120342600Y-61133427D01*
X120342402Y-61053435D01*
X120341777Y-60989174D01*
X120340680Y-60939445D01*
X120339066Y-60903049D01*
X120336891Y-60878789D01*
X120334109Y-60865465D01*
X120332440Y-60862493D01*
X120318502Y-60856951D01*
X120292361Y-60853347D01*
X120265179Y-60852333D01*
X120228051Y-60850167D01*
X120200326Y-60841934D01*
X120178665Y-60825031D01*
X120159728Y-60796857D01*
X120140243Y-60754967D01*
X120115300Y-60695700D01*
X120228950Y-60693344D01*
X120342600Y-60690989D01*
X120342600Y-60468554D01*
X120342352Y-60394593D01*
X120341573Y-60336328D01*
X120340208Y-60292530D01*
X120338204Y-60261969D01*
X120335507Y-60243413D01*
X120332440Y-60235960D01*
X120317915Y-60230585D01*
X120287755Y-60227161D01*
X120243163Y-60225816D01*
X120236957Y-60225800D01*
X120192232Y-60224961D01*
X120161327Y-60222187D01*
X120141199Y-60217095D01*
X120132868Y-60212656D01*
X120123182Y-60201158D01*
X120108969Y-60178945D01*
X120092681Y-60150558D01*
X120076771Y-60120536D01*
X120063690Y-60093419D01*
X120055889Y-60073747D01*
X120054734Y-60067974D01*
X120062817Y-60067131D01*
X120085533Y-60066378D01*
X120120581Y-60065748D01*
X120165661Y-60065277D01*
X120218472Y-60064997D01*
X120260283Y-60064933D01*
X120326613Y-60065086D01*
X120326613Y-60065086D01*
G37*
X120326613Y-60065086D02*
X120378083Y-60065625D01*
X120416764Y-60066673D01*
X120444727Y-60068351D01*
X120464045Y-60070780D01*
X120476787Y-60074083D01*
X120484650Y-60078113D01*
X120503467Y-60091293D01*
X120503467Y-61555067D01*
X120323550Y-61554735D01*
X120257863Y-61554316D01*
X120207042Y-61553247D01*
X120169027Y-61551405D01*
X120141759Y-61548667D01*
X120123178Y-61544909D01*
X120115667Y-61542255D01*
X120099327Y-61532530D01*
X120085152Y-61516813D01*
X120070288Y-61491345D01*
X120058517Y-61466941D01*
X120045042Y-61437231D01*
X120034860Y-61413746D01*
X120029666Y-61400429D01*
X120029334Y-61398988D01*
X120037361Y-61397478D01*
X120059686Y-61396164D01*
X120093673Y-61395126D01*
X120136687Y-61394444D01*
X120185967Y-61394200D01*
X120342600Y-61394200D01*
X120342600Y-61133427D01*
X120342402Y-61053435D01*
X120341777Y-60989174D01*
X120340680Y-60939445D01*
X120339066Y-60903049D01*
X120336891Y-60878789D01*
X120334109Y-60865465D01*
X120332440Y-60862493D01*
X120318502Y-60856951D01*
X120292361Y-60853347D01*
X120265179Y-60852333D01*
X120228051Y-60850167D01*
X120200326Y-60841934D01*
X120178665Y-60825031D01*
X120159728Y-60796857D01*
X120140243Y-60754967D01*
X120115300Y-60695700D01*
X120228950Y-60693344D01*
X120342600Y-60690989D01*
X120342600Y-60468554D01*
X120342352Y-60394593D01*
X120341573Y-60336328D01*
X120340208Y-60292530D01*
X120338204Y-60261969D01*
X120335507Y-60243413D01*
X120332440Y-60235960D01*
X120317915Y-60230585D01*
X120287755Y-60227161D01*
X120243163Y-60225816D01*
X120236957Y-60225800D01*
X120192232Y-60224961D01*
X120161327Y-60222187D01*
X120141199Y-60217095D01*
X120132868Y-60212656D01*
X120123182Y-60201158D01*
X120108969Y-60178945D01*
X120092681Y-60150558D01*
X120076771Y-60120536D01*
X120063690Y-60093419D01*
X120055889Y-60073747D01*
X120054734Y-60067974D01*
X120062817Y-60067131D01*
X120085533Y-60066378D01*
X120120581Y-60065748D01*
X120165661Y-60065277D01*
X120218472Y-60064997D01*
X120260283Y-60064933D01*
X120326613Y-60065086D01*
G36*
X122876650Y-60066051D02*
X122894331Y-60068788D01*
X122899533Y-60072407D01*
X122900773Y-60081715D01*
X122904369Y-60106545D01*
X122910140Y-60145680D01*
X122917902Y-60197898D01*
X122927474Y-60261982D01*
X122938671Y-60336713D01*
X122951313Y-60420871D01*
X122965216Y-60513236D01*
X122980198Y-60612591D01*
X122996075Y-60717716D01*
X123009563Y-60806890D01*
X123026044Y-60915912D01*
X123041779Y-61020225D01*
X123056583Y-61118604D01*
X123070275Y-61209821D01*
X123082671Y-61292651D01*
X123093588Y-61365866D01*
X123102843Y-61428240D01*
X123110253Y-61478546D01*
X123115635Y-61515558D01*
X123118807Y-61538049D01*
X123119629Y-61544779D01*
X123115494Y-61549831D01*
X123101503Y-61552785D01*
X123075347Y-61553864D01*
X123034715Y-61553296D01*
X123032883Y-61553246D01*
X122946100Y-61550833D01*
X122881350Y-61059766D01*
X122869619Y-60971079D01*
X122858542Y-60887892D01*
X122848316Y-60811634D01*
X122839135Y-60743733D01*
X122831194Y-60685616D01*
X122824688Y-60638710D01*
X122819811Y-60604444D01*
X122816760Y-60584245D01*
X122815733Y-60579287D01*
X122814357Y-60591157D01*
X122811014Y-60617923D01*
X122805951Y-60657693D01*
X122799415Y-60708575D01*
X122791654Y-60768676D01*
X122782915Y-60836106D01*
X122773445Y-60908971D01*
X122763490Y-60985380D01*
X122753300Y-61063440D01*
X122743119Y-61141260D01*
X122733197Y-61216947D01*
X122723779Y-61288610D01*
X122715113Y-61354357D01*
X122707447Y-61412294D01*
X122701027Y-61460532D01*
X122696100Y-61497176D01*
X122692915Y-61520336D01*
X122691847Y-61527550D01*
X122687100Y-61555067D01*
X122602817Y-61555067D01*
X122564464Y-61554876D01*
X122539953Y-61553853D01*
X122526193Y-61551316D01*
X122520094Y-61546586D01*
X122518564Y-61538983D01*
X122518533Y-61536530D01*
X122519825Y-61521293D01*
X122523541Y-61491269D01*
X122529448Y-61447962D01*
X122537307Y-61392875D01*
X122546885Y-61327512D01*
X122557944Y-61253374D01*
X122570249Y-61171965D01*
X122583564Y-61084789D01*
X122597653Y-60993349D01*
X122612281Y-60899147D01*
X122627211Y-60803688D01*
X122642207Y-60708473D01*
X122657033Y-60615006D01*
X122671455Y-60524791D01*
X122685235Y-60439330D01*
X122698138Y-60360126D01*
X122709928Y-60288683D01*
X122720369Y-60226504D01*
X122729225Y-60175092D01*
X122736260Y-60135950D01*
X122741239Y-60110581D01*
X122743890Y-60100539D01*
X122761643Y-60082397D01*
X122777761Y-60073022D01*
X122796770Y-60068641D01*
X122822900Y-60066002D01*
X122851184Y-60065130D01*
X122876650Y-60066051D01*
X122876650Y-60066051D01*
G37*
X122876650Y-60066051D02*
X122894331Y-60068788D01*
X122899533Y-60072407D01*
X122900773Y-60081715D01*
X122904369Y-60106545D01*
X122910140Y-60145680D01*
X122917902Y-60197898D01*
X122927474Y-60261982D01*
X122938671Y-60336713D01*
X122951313Y-60420871D01*
X122965216Y-60513236D01*
X122980198Y-60612591D01*
X122996075Y-60717716D01*
X123009563Y-60806890D01*
X123026044Y-60915912D01*
X123041779Y-61020225D01*
X123056583Y-61118604D01*
X123070275Y-61209821D01*
X123082671Y-61292651D01*
X123093588Y-61365866D01*
X123102843Y-61428240D01*
X123110253Y-61478546D01*
X123115635Y-61515558D01*
X123118807Y-61538049D01*
X123119629Y-61544779D01*
X123115494Y-61549831D01*
X123101503Y-61552785D01*
X123075347Y-61553864D01*
X123034715Y-61553296D01*
X123032883Y-61553246D01*
X122946100Y-61550833D01*
X122881350Y-61059766D01*
X122869619Y-60971079D01*
X122858542Y-60887892D01*
X122848316Y-60811634D01*
X122839135Y-60743733D01*
X122831194Y-60685616D01*
X122824688Y-60638710D01*
X122819811Y-60604444D01*
X122816760Y-60584245D01*
X122815733Y-60579287D01*
X122814357Y-60591157D01*
X122811014Y-60617923D01*
X122805951Y-60657693D01*
X122799415Y-60708575D01*
X122791654Y-60768676D01*
X122782915Y-60836106D01*
X122773445Y-60908971D01*
X122763490Y-60985380D01*
X122753300Y-61063440D01*
X122743119Y-61141260D01*
X122733197Y-61216947D01*
X122723779Y-61288610D01*
X122715113Y-61354357D01*
X122707447Y-61412294D01*
X122701027Y-61460532D01*
X122696100Y-61497176D01*
X122692915Y-61520336D01*
X122691847Y-61527550D01*
X122687100Y-61555067D01*
X122602817Y-61555067D01*
X122564464Y-61554876D01*
X122539953Y-61553853D01*
X122526193Y-61551316D01*
X122520094Y-61546586D01*
X122518564Y-61538983D01*
X122518533Y-61536530D01*
X122519825Y-61521293D01*
X122523541Y-61491269D01*
X122529448Y-61447962D01*
X122537307Y-61392875D01*
X122546885Y-61327512D01*
X122557944Y-61253374D01*
X122570249Y-61171965D01*
X122583564Y-61084789D01*
X122597653Y-60993349D01*
X122612281Y-60899147D01*
X122627211Y-60803688D01*
X122642207Y-60708473D01*
X122657033Y-60615006D01*
X122671455Y-60524791D01*
X122685235Y-60439330D01*
X122698138Y-60360126D01*
X122709928Y-60288683D01*
X122720369Y-60226504D01*
X122729225Y-60175092D01*
X122736260Y-60135950D01*
X122741239Y-60110581D01*
X122743890Y-60100539D01*
X122761643Y-60082397D01*
X122777761Y-60073022D01*
X122796770Y-60068641D01*
X122822900Y-60066002D01*
X122851184Y-60065130D01*
X122876650Y-60066051D01*
G36*
X124028745Y-60063274D02*
X124043902Y-60064239D01*
X124061304Y-60064921D01*
X124063700Y-60064933D01*
X124127200Y-60064933D01*
X124127200Y-61555067D01*
X123934584Y-61554084D01*
X123878270Y-61553625D01*
X123826940Y-61552880D01*
X123783255Y-61551914D01*
X123749880Y-61550793D01*
X123729476Y-61549581D01*
X123725034Y-61548977D01*
X123701733Y-61538119D01*
X123681230Y-61516192D01*
X123661148Y-61480534D01*
X123658136Y-61474079D01*
X123645328Y-61446985D01*
X123636319Y-61426770D01*
X123632832Y-61412436D01*
X123636594Y-61402987D01*
X123649330Y-61397427D01*
X123672766Y-61394758D01*
X123708628Y-61393984D01*
X123758640Y-61394109D01*
X123796430Y-61394200D01*
X123966334Y-61394200D01*
X123966334Y-60746500D01*
X123966252Y-60622595D01*
X123966111Y-60514546D01*
X123966063Y-60421278D01*
X123966263Y-60341713D01*
X123966864Y-60274777D01*
X123968019Y-60219394D01*
X123969883Y-60174486D01*
X123972610Y-60138980D01*
X123976352Y-60111798D01*
X123981263Y-60091865D01*
X123987498Y-60078105D01*
X123995210Y-60069441D01*
X124004553Y-60064799D01*
X124015680Y-60063102D01*
X124028745Y-60063274D01*
X124028745Y-60063274D01*
G37*
X124028745Y-60063274D02*
X124043902Y-60064239D01*
X124061304Y-60064921D01*
X124063700Y-60064933D01*
X124127200Y-60064933D01*
X124127200Y-61555067D01*
X123934584Y-61554084D01*
X123878270Y-61553625D01*
X123826940Y-61552880D01*
X123783255Y-61551914D01*
X123749880Y-61550793D01*
X123729476Y-61549581D01*
X123725034Y-61548977D01*
X123701733Y-61538119D01*
X123681230Y-61516192D01*
X123661148Y-61480534D01*
X123658136Y-61474079D01*
X123645328Y-61446985D01*
X123636319Y-61426770D01*
X123632832Y-61412436D01*
X123636594Y-61402987D01*
X123649330Y-61397427D01*
X123672766Y-61394758D01*
X123708628Y-61393984D01*
X123758640Y-61394109D01*
X123796430Y-61394200D01*
X123966334Y-61394200D01*
X123966334Y-60746500D01*
X123966252Y-60622595D01*
X123966111Y-60514546D01*
X123966063Y-60421278D01*
X123966263Y-60341713D01*
X123966864Y-60274777D01*
X123968019Y-60219394D01*
X123969883Y-60174486D01*
X123972610Y-60138980D01*
X123976352Y-60111798D01*
X123981263Y-60091865D01*
X123987498Y-60078105D01*
X123995210Y-60069441D01*
X124004553Y-60064799D01*
X124015680Y-60063102D01*
X124028745Y-60063274D01*
G36*
X125287134Y-61555067D02*
X125094517Y-61554735D01*
X125026923Y-61554357D01*
X124974248Y-61553407D01*
X124934480Y-61551771D01*
X124905610Y-61549336D01*
X124885628Y-61545988D01*
X124873934Y-61542255D01*
X124857594Y-61532530D01*
X124843418Y-61516813D01*
X124828554Y-61491345D01*
X124816784Y-61466941D01*
X124803309Y-61437231D01*
X124793127Y-61413746D01*
X124787933Y-61400429D01*
X124787600Y-61398988D01*
X124795644Y-61397533D01*
X124818087Y-61396256D01*
X124852393Y-61395228D01*
X124896029Y-61394522D01*
X124946459Y-61394209D01*
X124956934Y-61394200D01*
X125126267Y-61394200D01*
X125126396Y-60748617D01*
X125126497Y-60645443D01*
X125126747Y-60547123D01*
X125127135Y-60454979D01*
X125127647Y-60370334D01*
X125128271Y-60294512D01*
X125128994Y-60228836D01*
X125129802Y-60174629D01*
X125130684Y-60133215D01*
X125131626Y-60105916D01*
X125132616Y-60094055D01*
X125132746Y-60093717D01*
X125153201Y-60077131D01*
X125188027Y-60067610D01*
X125231544Y-60064933D01*
X125287134Y-60064933D01*
X125287134Y-61555067D01*
X125287134Y-61555067D01*
G37*
X125287134Y-61555067D02*
X125094517Y-61554735D01*
X125026923Y-61554357D01*
X124974248Y-61553407D01*
X124934480Y-61551771D01*
X124905610Y-61549336D01*
X124885628Y-61545988D01*
X124873934Y-61542255D01*
X124857594Y-61532530D01*
X124843418Y-61516813D01*
X124828554Y-61491345D01*
X124816784Y-61466941D01*
X124803309Y-61437231D01*
X124793127Y-61413746D01*
X124787933Y-61400429D01*
X124787600Y-61398988D01*
X124795644Y-61397533D01*
X124818087Y-61396256D01*
X124852393Y-61395228D01*
X124896029Y-61394522D01*
X124946459Y-61394209D01*
X124956934Y-61394200D01*
X125126267Y-61394200D01*
X125126396Y-60748617D01*
X125126497Y-60645443D01*
X125126747Y-60547123D01*
X125127135Y-60454979D01*
X125127647Y-60370334D01*
X125128271Y-60294512D01*
X125128994Y-60228836D01*
X125129802Y-60174629D01*
X125130684Y-60133215D01*
X125131626Y-60105916D01*
X125132616Y-60094055D01*
X125132746Y-60093717D01*
X125153201Y-60077131D01*
X125188027Y-60067610D01*
X125231544Y-60064933D01*
X125287134Y-60064933D01*
X125287134Y-61555067D01*
G36*
X126336871Y-60795183D02*
X126336755Y-60924029D01*
X126336462Y-61042778D01*
X126335999Y-61150672D01*
X126335374Y-61246950D01*
X126334597Y-61330853D01*
X126333676Y-61401620D01*
X126332618Y-61458492D01*
X126331432Y-61500709D01*
X126330127Y-61527511D01*
X126328714Y-61538133D01*
X126318574Y-61545243D01*
X126297147Y-61550098D01*
X126261993Y-61553172D01*
X126248410Y-61553819D01*
X126176134Y-61556804D01*
X126176134Y-60106497D01*
X126196915Y-60085715D01*
X126210314Y-60074499D01*
X126225742Y-60068197D01*
X126248414Y-60065461D01*
X126277349Y-60064933D01*
X126337000Y-60064933D01*
X126336871Y-60795183D01*
X126336871Y-60795183D01*
G37*
X126336871Y-60795183D02*
X126336755Y-60924029D01*
X126336462Y-61042778D01*
X126335999Y-61150672D01*
X126335374Y-61246950D01*
X126334597Y-61330853D01*
X126333676Y-61401620D01*
X126332618Y-61458492D01*
X126331432Y-61500709D01*
X126330127Y-61527511D01*
X126328714Y-61538133D01*
X126318574Y-61545243D01*
X126297147Y-61550098D01*
X126261993Y-61553172D01*
X126248410Y-61553819D01*
X126176134Y-61556804D01*
X126176134Y-60106497D01*
X126196915Y-60085715D01*
X126210314Y-60074499D01*
X126225742Y-60068197D01*
X126248414Y-60065461D01*
X126277349Y-60064933D01*
X126337000Y-60064933D01*
X126336871Y-60795183D01*
G36*
X127207681Y-60065163D02*
X127231621Y-60066348D01*
X127245277Y-60069234D01*
X127251971Y-60074563D01*
X127255028Y-60083080D01*
X127255229Y-60083983D01*
X127257253Y-60095784D01*
X127261548Y-60122718D01*
X127267866Y-60163175D01*
X127275961Y-60215543D01*
X127285584Y-60278212D01*
X127296487Y-60349570D01*
X127308422Y-60428006D01*
X127321143Y-60511909D01*
X127327765Y-60555702D01*
X127340696Y-60641094D01*
X127352905Y-60721304D01*
X127364153Y-60794798D01*
X127374203Y-60860043D01*
X127382816Y-60915505D01*
X127389755Y-60959649D01*
X127394783Y-60990942D01*
X127397661Y-61007851D01*
X127398238Y-61010460D01*
X127399859Y-61002753D01*
X127403744Y-60979839D01*
X127409652Y-60943259D01*
X127417341Y-60894554D01*
X127426571Y-60835264D01*
X127437101Y-60766929D01*
X127448691Y-60691090D01*
X127461101Y-60609287D01*
X127466318Y-60574724D01*
X127479204Y-60489758D01*
X127491578Y-60409180D01*
X127503170Y-60334674D01*
X127513711Y-60267924D01*
X127522933Y-60210613D01*
X127530565Y-60164425D01*
X127536340Y-60131043D01*
X127539988Y-60112152D01*
X127540699Y-60109318D01*
X127549836Y-60088517D01*
X127564258Y-60075224D01*
X127587348Y-60067932D01*
X127622491Y-60065133D01*
X127640310Y-60064933D01*
X127671612Y-60065371D01*
X127689602Y-60067378D01*
X127697894Y-60071990D01*
X127700103Y-60080246D01*
X127700134Y-60082110D01*
X127698831Y-60096797D01*
X127695083Y-60126362D01*
X127689130Y-60169286D01*
X127681210Y-60224052D01*
X127671563Y-60289142D01*
X127660429Y-60363039D01*
X127648047Y-60444225D01*
X127634657Y-60531182D01*
X127620498Y-60622393D01*
X127605809Y-60716341D01*
X127590831Y-60811507D01*
X127575803Y-60906374D01*
X127560964Y-60999425D01*
X127546553Y-61089141D01*
X127532811Y-61174005D01*
X127519977Y-61252501D01*
X127508289Y-61323109D01*
X127497989Y-61384312D01*
X127489314Y-61434594D01*
X127482506Y-61472435D01*
X127477802Y-61496319D01*
X127475662Y-61504468D01*
X127452059Y-61532558D01*
X127416025Y-61549395D01*
X127367373Y-61555066D01*
X127366793Y-61555067D01*
X127340026Y-61554447D01*
X127325563Y-61551183D01*
X127318783Y-61543166D01*
X127315760Y-61531783D01*
X127313788Y-61519992D01*
X127309478Y-61492741D01*
X127303026Y-61451312D01*
X127294628Y-61396986D01*
X127284482Y-61331046D01*
X127272784Y-61254774D01*
X127259730Y-61169452D01*
X127245519Y-61076361D01*
X127230346Y-60976784D01*
X127214408Y-60872004D01*
X127204989Y-60810000D01*
X127188699Y-60702811D01*
X127173058Y-60600089D01*
X127158262Y-60503119D01*
X127144508Y-60413180D01*
X127131994Y-60331555D01*
X127120916Y-60259527D01*
X127111472Y-60198378D01*
X127103859Y-60149389D01*
X127098273Y-60113842D01*
X127094911Y-60093020D01*
X127094063Y-60088216D01*
X127089188Y-60064933D01*
X127170133Y-60064933D01*
X127207681Y-60065163D01*
X127207681Y-60065163D01*
G37*
X127207681Y-60065163D02*
X127231621Y-60066348D01*
X127245277Y-60069234D01*
X127251971Y-60074563D01*
X127255028Y-60083080D01*
X127255229Y-60083983D01*
X127257253Y-60095784D01*
X127261548Y-60122718D01*
X127267866Y-60163175D01*
X127275961Y-60215543D01*
X127285584Y-60278212D01*
X127296487Y-60349570D01*
X127308422Y-60428006D01*
X127321143Y-60511909D01*
X127327765Y-60555702D01*
X127340696Y-60641094D01*
X127352905Y-60721304D01*
X127364153Y-60794798D01*
X127374203Y-60860043D01*
X127382816Y-60915505D01*
X127389755Y-60959649D01*
X127394783Y-60990942D01*
X127397661Y-61007851D01*
X127398238Y-61010460D01*
X127399859Y-61002753D01*
X127403744Y-60979839D01*
X127409652Y-60943259D01*
X127417341Y-60894554D01*
X127426571Y-60835264D01*
X127437101Y-60766929D01*
X127448691Y-60691090D01*
X127461101Y-60609287D01*
X127466318Y-60574724D01*
X127479204Y-60489758D01*
X127491578Y-60409180D01*
X127503170Y-60334674D01*
X127513711Y-60267924D01*
X127522933Y-60210613D01*
X127530565Y-60164425D01*
X127536340Y-60131043D01*
X127539988Y-60112152D01*
X127540699Y-60109318D01*
X127549836Y-60088517D01*
X127564258Y-60075224D01*
X127587348Y-60067932D01*
X127622491Y-60065133D01*
X127640310Y-60064933D01*
X127671612Y-60065371D01*
X127689602Y-60067378D01*
X127697894Y-60071990D01*
X127700103Y-60080246D01*
X127700134Y-60082110D01*
X127698831Y-60096797D01*
X127695083Y-60126362D01*
X127689130Y-60169286D01*
X127681210Y-60224052D01*
X127671563Y-60289142D01*
X127660429Y-60363039D01*
X127648047Y-60444225D01*
X127634657Y-60531182D01*
X127620498Y-60622393D01*
X127605809Y-60716341D01*
X127590831Y-60811507D01*
X127575803Y-60906374D01*
X127560964Y-60999425D01*
X127546553Y-61089141D01*
X127532811Y-61174005D01*
X127519977Y-61252501D01*
X127508289Y-61323109D01*
X127497989Y-61384312D01*
X127489314Y-61434594D01*
X127482506Y-61472435D01*
X127477802Y-61496319D01*
X127475662Y-61504468D01*
X127452059Y-61532558D01*
X127416025Y-61549395D01*
X127367373Y-61555066D01*
X127366793Y-61555067D01*
X127340026Y-61554447D01*
X127325563Y-61551183D01*
X127318783Y-61543166D01*
X127315760Y-61531783D01*
X127313788Y-61519992D01*
X127309478Y-61492741D01*
X127303026Y-61451312D01*
X127294628Y-61396986D01*
X127284482Y-61331046D01*
X127272784Y-61254774D01*
X127259730Y-61169452D01*
X127245519Y-61076361D01*
X127230346Y-60976784D01*
X127214408Y-60872004D01*
X127204989Y-60810000D01*
X127188699Y-60702811D01*
X127173058Y-60600089D01*
X127158262Y-60503119D01*
X127144508Y-60413180D01*
X127131994Y-60331555D01*
X127120916Y-60259527D01*
X127111472Y-60198378D01*
X127103859Y-60149389D01*
X127098273Y-60113842D01*
X127094911Y-60093020D01*
X127094063Y-60088216D01*
X127089188Y-60064933D01*
X127170133Y-60064933D01*
X127207681Y-60065163D01*
G36*
X129973142Y-60064924D02*
X130029711Y-60065551D01*
X130073901Y-60067167D01*
X130107232Y-60070197D01*
X130131221Y-60075067D01*
X130147384Y-60082203D01*
X130157240Y-60092030D01*
X130162308Y-60104975D01*
X130164103Y-60121462D01*
X130164144Y-60141918D01*
X130163933Y-60162300D01*
X130163933Y-60225800D01*
X129952267Y-60225800D01*
X129952267Y-61528706D01*
X129933450Y-61541886D01*
X129911225Y-61550518D01*
X129874860Y-61554626D01*
X129853016Y-61555067D01*
X129791400Y-61555067D01*
X129791400Y-60900593D01*
X129791337Y-60772589D01*
X129791139Y-60660664D01*
X129790794Y-60563962D01*
X129790287Y-60481630D01*
X129789607Y-60412813D01*
X129788740Y-60356656D01*
X129787672Y-60312305D01*
X129786392Y-60278905D01*
X129784885Y-60255602D01*
X129783139Y-60241542D01*
X129781240Y-60235960D01*
X129766807Y-60230558D01*
X129737233Y-60227070D01*
X129694226Y-60225689D01*
X129690224Y-60225675D01*
X129649439Y-60224479D01*
X129615292Y-60221330D01*
X129592254Y-60216692D01*
X129588200Y-60215092D01*
X129571540Y-60200098D01*
X129551785Y-60170993D01*
X129535823Y-60141133D01*
X129521428Y-60111255D01*
X129510403Y-60087251D01*
X129504557Y-60073103D01*
X129504073Y-60071283D01*
X129512104Y-60069845D01*
X129535209Y-60068522D01*
X129571528Y-60067350D01*
X129619203Y-60066367D01*
X129676375Y-60065612D01*
X129741183Y-60065121D01*
X129811770Y-60064934D01*
X129816800Y-60064933D01*
X129902678Y-60064860D01*
X129973142Y-60064924D01*
X129973142Y-60064924D01*
G37*
X129973142Y-60064924D02*
X130029711Y-60065551D01*
X130073901Y-60067167D01*
X130107232Y-60070197D01*
X130131221Y-60075067D01*
X130147384Y-60082203D01*
X130157240Y-60092030D01*
X130162308Y-60104975D01*
X130164103Y-60121462D01*
X130164144Y-60141918D01*
X130163933Y-60162300D01*
X130163933Y-60225800D01*
X129952267Y-60225800D01*
X129952267Y-61528706D01*
X129933450Y-61541886D01*
X129911225Y-61550518D01*
X129874860Y-61554626D01*
X129853016Y-61555067D01*
X129791400Y-61555067D01*
X129791400Y-60900593D01*
X129791337Y-60772589D01*
X129791139Y-60660664D01*
X129790794Y-60563962D01*
X129790287Y-60481630D01*
X129789607Y-60412813D01*
X129788740Y-60356656D01*
X129787672Y-60312305D01*
X129786392Y-60278905D01*
X129784885Y-60255602D01*
X129783139Y-60241542D01*
X129781240Y-60235960D01*
X129766807Y-60230558D01*
X129737233Y-60227070D01*
X129694226Y-60225689D01*
X129690224Y-60225675D01*
X129649439Y-60224479D01*
X129615292Y-60221330D01*
X129592254Y-60216692D01*
X129588200Y-60215092D01*
X129571540Y-60200098D01*
X129551785Y-60170993D01*
X129535823Y-60141133D01*
X129521428Y-60111255D01*
X129510403Y-60087251D01*
X129504557Y-60073103D01*
X129504073Y-60071283D01*
X129512104Y-60069845D01*
X129535209Y-60068522D01*
X129571528Y-60067350D01*
X129619203Y-60066367D01*
X129676375Y-60065612D01*
X129741183Y-60065121D01*
X129811770Y-60064934D01*
X129816800Y-60064933D01*
X129902678Y-60064860D01*
X129973142Y-60064924D01*
G36*
X131264600Y-60801235D02*
X131264687Y-60932162D01*
X131264859Y-61047175D01*
X131264986Y-61147296D01*
X131264936Y-61233543D01*
X131264580Y-61306936D01*
X131263785Y-61368493D01*
X131262422Y-61419235D01*
X131260359Y-61460181D01*
X131257465Y-61492351D01*
X131253609Y-61516763D01*
X131248661Y-61534437D01*
X131242489Y-61546392D01*
X131234963Y-61553648D01*
X131225951Y-61557225D01*
X131215324Y-61558141D01*
X131202949Y-61557417D01*
X131188696Y-61556070D01*
X131172433Y-61555122D01*
X131167790Y-61555067D01*
X131103733Y-61555067D01*
X131103733Y-60886200D01*
X131031495Y-60886200D01*
X130976205Y-60883438D01*
X130933059Y-60874330D01*
X130898058Y-60857642D01*
X130872241Y-60837067D01*
X130852538Y-60815953D01*
X130836588Y-60792509D01*
X130824022Y-60764790D01*
X130814473Y-60730848D01*
X130807571Y-60688737D01*
X130802947Y-60636510D01*
X130800232Y-60572219D01*
X130799847Y-60546527D01*
X130960025Y-60546527D01*
X130960187Y-60597771D01*
X130960725Y-60636262D01*
X130961806Y-60664092D01*
X130963598Y-60683350D01*
X130966268Y-60696128D01*
X130969985Y-60704515D01*
X130974917Y-60710602D01*
X130978850Y-60714313D01*
X130997649Y-60729212D01*
X131016654Y-60737379D01*
X131042274Y-60740878D01*
X131063517Y-60741598D01*
X131103733Y-60742267D01*
X131103733Y-60217333D01*
X131060844Y-60217333D01*
X131016858Y-60221901D01*
X130985240Y-60236106D01*
X130970653Y-60250466D01*
X130967162Y-60260604D01*
X130964438Y-60281709D01*
X130962423Y-60315035D01*
X130961060Y-60361833D01*
X130960291Y-60423357D01*
X130960069Y-60480441D01*
X130960025Y-60546527D01*
X130799847Y-60546527D01*
X130799058Y-60493919D01*
X130798933Y-60450148D01*
X130799236Y-60374669D01*
X130800414Y-60313926D01*
X130802873Y-60265727D01*
X130807021Y-60227880D01*
X130813264Y-60198194D01*
X130822008Y-60174478D01*
X130833659Y-60154540D01*
X130848624Y-60136190D01*
X130859196Y-60125196D01*
X130881346Y-60105377D01*
X130904772Y-60090317D01*
X130932149Y-60079402D01*
X130966153Y-60072022D01*
X131009458Y-60067561D01*
X131064740Y-60065407D01*
X131122204Y-60064933D01*
X131264600Y-60064933D01*
X131264600Y-60801235D01*
X131264600Y-60801235D01*
G37*
X131264600Y-60801235D02*
X131264687Y-60932162D01*
X131264859Y-61047175D01*
X131264986Y-61147296D01*
X131264936Y-61233543D01*
X131264580Y-61306936D01*
X131263785Y-61368493D01*
X131262422Y-61419235D01*
X131260359Y-61460181D01*
X131257465Y-61492351D01*
X131253609Y-61516763D01*
X131248661Y-61534437D01*
X131242489Y-61546392D01*
X131234963Y-61553648D01*
X131225951Y-61557225D01*
X131215324Y-61558141D01*
X131202949Y-61557417D01*
X131188696Y-61556070D01*
X131172433Y-61555122D01*
X131167790Y-61555067D01*
X131103733Y-61555067D01*
X131103733Y-60886200D01*
X131031495Y-60886200D01*
X130976205Y-60883438D01*
X130933059Y-60874330D01*
X130898058Y-60857642D01*
X130872241Y-60837067D01*
X130852538Y-60815953D01*
X130836588Y-60792509D01*
X130824022Y-60764790D01*
X130814473Y-60730848D01*
X130807571Y-60688737D01*
X130802947Y-60636510D01*
X130800232Y-60572219D01*
X130799847Y-60546527D01*
X130960025Y-60546527D01*
X130960187Y-60597771D01*
X130960725Y-60636262D01*
X130961806Y-60664092D01*
X130963598Y-60683350D01*
X130966268Y-60696128D01*
X130969985Y-60704515D01*
X130974917Y-60710602D01*
X130978850Y-60714313D01*
X130997649Y-60729212D01*
X131016654Y-60737379D01*
X131042274Y-60740878D01*
X131063517Y-60741598D01*
X131103733Y-60742267D01*
X131103733Y-60217333D01*
X131060844Y-60217333D01*
X131016858Y-60221901D01*
X130985240Y-60236106D01*
X130970653Y-60250466D01*
X130967162Y-60260604D01*
X130964438Y-60281709D01*
X130962423Y-60315035D01*
X130961060Y-60361833D01*
X130960291Y-60423357D01*
X130960069Y-60480441D01*
X130960025Y-60546527D01*
X130799847Y-60546527D01*
X130799058Y-60493919D01*
X130798933Y-60450148D01*
X130799236Y-60374669D01*
X130800414Y-60313926D01*
X130802873Y-60265727D01*
X130807021Y-60227880D01*
X130813264Y-60198194D01*
X130822008Y-60174478D01*
X130833659Y-60154540D01*
X130848624Y-60136190D01*
X130859196Y-60125196D01*
X130881346Y-60105377D01*
X130904772Y-60090317D01*
X130932149Y-60079402D01*
X130966153Y-60072022D01*
X131009458Y-60067561D01*
X131064740Y-60065407D01*
X131122204Y-60064933D01*
X131264600Y-60064933D01*
X131264600Y-60801235D01*
G36*
X132126951Y-60065792D02*
X132143392Y-60069238D01*
X132156832Y-60076805D01*
X132168036Y-60090074D01*
X132177768Y-60110628D01*
X132186790Y-60140047D01*
X132195867Y-60179915D01*
X132205762Y-60231813D01*
X132217238Y-60297323D01*
X132229915Y-60371364D01*
X132241151Y-60436212D01*
X132251597Y-60495214D01*
X132260892Y-60546431D01*
X132268676Y-60587923D01*
X132274587Y-60617751D01*
X132278265Y-60633975D01*
X132279246Y-60636376D01*
X132281266Y-60627789D01*
X132285737Y-60604949D01*
X132292227Y-60570292D01*
X132300305Y-60526252D01*
X132309537Y-60475263D01*
X132319491Y-60419759D01*
X132329736Y-60362174D01*
X132339839Y-60304943D01*
X132349368Y-60250501D01*
X132357891Y-60201280D01*
X132364975Y-60159715D01*
X132370189Y-60128242D01*
X132373100Y-60109293D01*
X132373561Y-60105150D01*
X132379089Y-60095108D01*
X132390667Y-60081867D01*
X132402291Y-60073066D01*
X132418261Y-60067891D01*
X132442927Y-60065472D01*
X132475495Y-60064933D01*
X132509065Y-60065159D01*
X132528908Y-60066479D01*
X132538227Y-60069859D01*
X132540227Y-60076262D01*
X132538766Y-60083983D01*
X132536163Y-60095804D01*
X132530433Y-60122548D01*
X132521926Y-60162568D01*
X132510990Y-60214214D01*
X132497974Y-60275837D01*
X132483226Y-60345788D01*
X132467095Y-60422419D01*
X132449929Y-60504080D01*
X132445472Y-60525305D01*
X132356800Y-60947576D01*
X132356800Y-61528706D01*
X132337983Y-61541886D01*
X132315759Y-61550518D01*
X132279394Y-61554626D01*
X132257550Y-61555067D01*
X132195934Y-61555067D01*
X132195934Y-60922862D01*
X132107034Y-60500363D01*
X132089769Y-60418190D01*
X132073610Y-60341042D01*
X132058886Y-60270503D01*
X132045924Y-60208159D01*
X132035054Y-60155594D01*
X132026602Y-60114393D01*
X132020899Y-60086142D01*
X132018273Y-60072424D01*
X132018133Y-60071398D01*
X132025911Y-60068316D01*
X132046492Y-60066032D01*
X132075752Y-60064964D01*
X132082018Y-60064933D01*
X132106748Y-60064884D01*
X132126951Y-60065792D01*
X132126951Y-60065792D01*
G37*
X132126951Y-60065792D02*
X132143392Y-60069238D01*
X132156832Y-60076805D01*
X132168036Y-60090074D01*
X132177768Y-60110628D01*
X132186790Y-60140047D01*
X132195867Y-60179915D01*
X132205762Y-60231813D01*
X132217238Y-60297323D01*
X132229915Y-60371364D01*
X132241151Y-60436212D01*
X132251597Y-60495214D01*
X132260892Y-60546431D01*
X132268676Y-60587923D01*
X132274587Y-60617751D01*
X132278265Y-60633975D01*
X132279246Y-60636376D01*
X132281266Y-60627789D01*
X132285737Y-60604949D01*
X132292227Y-60570292D01*
X132300305Y-60526252D01*
X132309537Y-60475263D01*
X132319491Y-60419759D01*
X132329736Y-60362174D01*
X132339839Y-60304943D01*
X132349368Y-60250501D01*
X132357891Y-60201280D01*
X132364975Y-60159715D01*
X132370189Y-60128242D01*
X132373100Y-60109293D01*
X132373561Y-60105150D01*
X132379089Y-60095108D01*
X132390667Y-60081867D01*
X132402291Y-60073066D01*
X132418261Y-60067891D01*
X132442927Y-60065472D01*
X132475495Y-60064933D01*
X132509065Y-60065159D01*
X132528908Y-60066479D01*
X132538227Y-60069859D01*
X132540227Y-60076262D01*
X132538766Y-60083983D01*
X132536163Y-60095804D01*
X132530433Y-60122548D01*
X132521926Y-60162568D01*
X132510990Y-60214214D01*
X132497974Y-60275837D01*
X132483226Y-60345788D01*
X132467095Y-60422419D01*
X132449929Y-60504080D01*
X132445472Y-60525305D01*
X132356800Y-60947576D01*
X132356800Y-61528706D01*
X132337983Y-61541886D01*
X132315759Y-61550518D01*
X132279394Y-61554626D01*
X132257550Y-61555067D01*
X132195934Y-61555067D01*
X132195934Y-60922862D01*
X132107034Y-60500363D01*
X132089769Y-60418190D01*
X132073610Y-60341042D01*
X132058886Y-60270503D01*
X132045924Y-60208159D01*
X132035054Y-60155594D01*
X132026602Y-60114393D01*
X132020899Y-60086142D01*
X132018273Y-60072424D01*
X132018133Y-60071398D01*
X132025911Y-60068316D01*
X132046492Y-60066032D01*
X132075752Y-60064964D01*
X132082018Y-60064933D01*
X132106748Y-60064884D01*
X132126951Y-60065792D01*
G36*
X133728400Y-61555067D02*
X133567534Y-61555067D01*
X133567534Y-60920066D01*
X133518617Y-60920067D01*
X133477870Y-60923512D01*
X133449960Y-60935012D01*
X133432011Y-60956311D01*
X133423976Y-60977466D01*
X133421570Y-60994794D01*
X133419471Y-61027273D01*
X133417732Y-61073121D01*
X133416404Y-61130560D01*
X133415538Y-61197807D01*
X133415186Y-61273082D01*
X133415181Y-61282017D01*
X133415134Y-61555067D01*
X133253010Y-61555067D01*
X133255755Y-61235450D01*
X133256482Y-61153443D01*
X133257189Y-61086591D01*
X133257988Y-61033116D01*
X133258989Y-60991241D01*
X133260306Y-60959187D01*
X133262048Y-60935176D01*
X133264329Y-60917430D01*
X133267259Y-60904173D01*
X133270951Y-60893625D01*
X133275515Y-60884009D01*
X133278133Y-60879044D01*
X133289423Y-60856313D01*
X133292702Y-60842642D01*
X133288656Y-60832561D01*
X133284554Y-60827656D01*
X133275456Y-60811169D01*
X133266730Y-60785086D01*
X133262804Y-60768039D01*
X133260224Y-60745333D01*
X133258139Y-60708934D01*
X133256547Y-60661678D01*
X133255445Y-60606396D01*
X133254830Y-60545922D01*
X133254698Y-60483090D01*
X133255048Y-60420732D01*
X133255877Y-60361682D01*
X133257180Y-60308773D01*
X133258957Y-60264839D01*
X133259420Y-60258210D01*
X133419367Y-60258210D01*
X133419367Y-60490476D01*
X133419445Y-60562418D01*
X133419879Y-60619342D01*
X133420968Y-60663164D01*
X133423011Y-60695799D01*
X133426307Y-60719163D01*
X133431156Y-60735171D01*
X133437856Y-60745739D01*
X133446708Y-60752782D01*
X133458009Y-60758216D01*
X133461406Y-60759610D01*
X133479728Y-60763766D01*
X133507125Y-60766541D01*
X133523084Y-60767130D01*
X133567534Y-60767667D01*
X133567534Y-60217333D01*
X133517206Y-60217333D01*
X133485131Y-60218796D01*
X133463351Y-60224376D01*
X133445390Y-60235859D01*
X133443122Y-60237772D01*
X133419367Y-60258210D01*
X133259420Y-60258210D01*
X133261203Y-60232713D01*
X133263356Y-60217333D01*
X133283672Y-60163752D01*
X133317614Y-60119920D01*
X133353561Y-60092918D01*
X133367810Y-60084796D01*
X133380854Y-60078733D01*
X133395432Y-60074378D01*
X133414285Y-60071381D01*
X133440152Y-60069393D01*
X133475772Y-60068064D01*
X133523885Y-60067044D01*
X133561184Y-60066414D01*
X133728400Y-60063662D01*
X133728400Y-61555067D01*
X133728400Y-61555067D01*
G37*
X133728400Y-61555067D02*
X133567534Y-61555067D01*
X133567534Y-60920066D01*
X133518617Y-60920067D01*
X133477870Y-60923512D01*
X133449960Y-60935012D01*
X133432011Y-60956311D01*
X133423976Y-60977466D01*
X133421570Y-60994794D01*
X133419471Y-61027273D01*
X133417732Y-61073121D01*
X133416404Y-61130560D01*
X133415538Y-61197807D01*
X133415186Y-61273082D01*
X133415181Y-61282017D01*
X133415134Y-61555067D01*
X133253010Y-61555067D01*
X133255755Y-61235450D01*
X133256482Y-61153443D01*
X133257189Y-61086591D01*
X133257988Y-61033116D01*
X133258989Y-60991241D01*
X133260306Y-60959187D01*
X133262048Y-60935176D01*
X133264329Y-60917430D01*
X133267259Y-60904173D01*
X133270951Y-60893625D01*
X133275515Y-60884009D01*
X133278133Y-60879044D01*
X133289423Y-60856313D01*
X133292702Y-60842642D01*
X133288656Y-60832561D01*
X133284554Y-60827656D01*
X133275456Y-60811169D01*
X133266730Y-60785086D01*
X133262804Y-60768039D01*
X133260224Y-60745333D01*
X133258139Y-60708934D01*
X133256547Y-60661678D01*
X133255445Y-60606396D01*
X133254830Y-60545922D01*
X133254698Y-60483090D01*
X133255048Y-60420732D01*
X133255877Y-60361682D01*
X133257180Y-60308773D01*
X133258957Y-60264839D01*
X133259420Y-60258210D01*
X133419367Y-60258210D01*
X133419367Y-60490476D01*
X133419445Y-60562418D01*
X133419879Y-60619342D01*
X133420968Y-60663164D01*
X133423011Y-60695799D01*
X133426307Y-60719163D01*
X133431156Y-60735171D01*
X133437856Y-60745739D01*
X133446708Y-60752782D01*
X133458009Y-60758216D01*
X133461406Y-60759610D01*
X133479728Y-60763766D01*
X133507125Y-60766541D01*
X133523084Y-60767130D01*
X133567534Y-60767667D01*
X133567534Y-60217333D01*
X133517206Y-60217333D01*
X133485131Y-60218796D01*
X133463351Y-60224376D01*
X133445390Y-60235859D01*
X133443122Y-60237772D01*
X133419367Y-60258210D01*
X133259420Y-60258210D01*
X133261203Y-60232713D01*
X133263356Y-60217333D01*
X133283672Y-60163752D01*
X133317614Y-60119920D01*
X133353561Y-60092918D01*
X133367810Y-60084796D01*
X133380854Y-60078733D01*
X133395432Y-60074378D01*
X133414285Y-60071381D01*
X133440152Y-60069393D01*
X133475772Y-60068064D01*
X133523885Y-60067044D01*
X133561184Y-60066414D01*
X133728400Y-60063662D01*
X133728400Y-61555067D01*
G36*
X136099067Y-61440449D02*
X136098064Y-61486499D01*
X136093569Y-61518281D01*
X136083352Y-61538410D01*
X136065185Y-61549505D01*
X136036836Y-61554182D01*
X136001423Y-61555067D01*
X135937646Y-61555067D01*
X135942434Y-61364567D01*
X136020750Y-61362132D01*
X136099067Y-61359698D01*
X136099067Y-61440449D01*
X136099067Y-61440449D01*
G37*
X136099067Y-61440449D02*
X136098064Y-61486499D01*
X136093569Y-61518281D01*
X136083352Y-61538410D01*
X136065185Y-61549505D01*
X136036836Y-61554182D01*
X136001423Y-61555067D01*
X135937646Y-61555067D01*
X135942434Y-61364567D01*
X136020750Y-61362132D01*
X136099067Y-61359698D01*
X136099067Y-61440449D01*
G36*
X139841334Y-61555067D02*
X139686817Y-61554695D01*
X139621144Y-61554015D01*
X139570594Y-61552252D01*
X139533382Y-61549290D01*
X139507727Y-61545013D01*
X139498923Y-61542433D01*
X139447621Y-61515898D01*
X139407966Y-61477562D01*
X139381170Y-61428708D01*
X139375803Y-61412129D01*
X139373498Y-61395376D01*
X139371458Y-61364075D01*
X139369757Y-61320612D01*
X139368470Y-61267371D01*
X139367672Y-61206737D01*
X139367628Y-61195062D01*
X139529084Y-61195062D01*
X139529242Y-61251218D01*
X139530482Y-61294349D01*
X139533066Y-61326402D01*
X139537255Y-61349328D01*
X139543310Y-61365076D01*
X139551493Y-61375594D01*
X139562065Y-61382831D01*
X139564653Y-61384135D01*
X139583290Y-61389211D01*
X139611420Y-61392700D01*
X139631784Y-61393627D01*
X139680467Y-61394200D01*
X139680467Y-60886200D01*
X139626371Y-60886200D01*
X139590747Y-60887894D01*
X139566802Y-60893700D01*
X139552288Y-60902372D01*
X139546045Y-60907799D01*
X139541231Y-60914133D01*
X139537629Y-60923515D01*
X139535020Y-60938088D01*
X139533186Y-60959995D01*
X139531910Y-60991377D01*
X139530974Y-61034377D01*
X139530159Y-61091138D01*
X139529746Y-61123930D01*
X139529084Y-61195062D01*
X139367628Y-61195062D01*
X139367433Y-61144433D01*
X139367567Y-61073732D01*
X139367961Y-61017832D01*
X139368739Y-60974601D01*
X139370027Y-60941909D01*
X139371951Y-60917623D01*
X139374634Y-60899612D01*
X139378203Y-60885745D01*
X139382782Y-60873889D01*
X139383403Y-60872505D01*
X139397617Y-60847655D01*
X139413856Y-60828004D01*
X139418575Y-60824097D01*
X139437916Y-60810550D01*
X139415924Y-60793250D01*
X139402545Y-60781538D01*
X139391800Y-60768413D01*
X139383432Y-60752007D01*
X139377179Y-60730451D01*
X139372783Y-60701877D01*
X139369985Y-60664417D01*
X139368525Y-60616202D01*
X139368143Y-60555364D01*
X139368581Y-60480034D01*
X139368836Y-60454037D01*
X139369642Y-60382136D01*
X139370493Y-60325108D01*
X139371542Y-60280893D01*
X139371775Y-60275297D01*
X139528067Y-60275297D01*
X139528067Y-60475336D01*
X139528270Y-60542366D01*
X139528958Y-60594530D01*
X139530245Y-60633889D01*
X139532246Y-60662507D01*
X139535076Y-60682447D01*
X139538851Y-60695771D01*
X139540589Y-60699589D01*
X139550245Y-60715767D01*
X139561482Y-60725573D01*
X139578603Y-60730664D01*
X139605909Y-60732702D01*
X139627550Y-60733131D01*
X139680467Y-60733800D01*
X139680467Y-60225800D01*
X139629016Y-60225800D01*
X139598632Y-60226789D01*
X139578796Y-60231130D01*
X139563171Y-60240880D01*
X139552816Y-60250549D01*
X139528067Y-60275297D01*
X139371775Y-60275297D01*
X139372939Y-60247431D01*
X139374836Y-60222661D01*
X139377384Y-60204523D01*
X139380736Y-60190957D01*
X139385041Y-60179903D01*
X139389660Y-60170766D01*
X139418301Y-60129263D01*
X139456015Y-60097459D01*
X139477267Y-60084974D01*
X139489791Y-60079376D01*
X139505251Y-60075136D01*
X139526238Y-60072009D01*
X139555340Y-60069752D01*
X139595148Y-60068120D01*
X139648251Y-60066868D01*
X139674117Y-60066414D01*
X139841334Y-60063662D01*
X139841334Y-61555067D01*
X139841334Y-61555067D01*
G37*
X139841334Y-61555067D02*
X139686817Y-61554695D01*
X139621144Y-61554015D01*
X139570594Y-61552252D01*
X139533382Y-61549290D01*
X139507727Y-61545013D01*
X139498923Y-61542433D01*
X139447621Y-61515898D01*
X139407966Y-61477562D01*
X139381170Y-61428708D01*
X139375803Y-61412129D01*
X139373498Y-61395376D01*
X139371458Y-61364075D01*
X139369757Y-61320612D01*
X139368470Y-61267371D01*
X139367672Y-61206737D01*
X139367628Y-61195062D01*
X139529084Y-61195062D01*
X139529242Y-61251218D01*
X139530482Y-61294349D01*
X139533066Y-61326402D01*
X139537255Y-61349328D01*
X139543310Y-61365076D01*
X139551493Y-61375594D01*
X139562065Y-61382831D01*
X139564653Y-61384135D01*
X139583290Y-61389211D01*
X139611420Y-61392700D01*
X139631784Y-61393627D01*
X139680467Y-61394200D01*
X139680467Y-60886200D01*
X139626371Y-60886200D01*
X139590747Y-60887894D01*
X139566802Y-60893700D01*
X139552288Y-60902372D01*
X139546045Y-60907799D01*
X139541231Y-60914133D01*
X139537629Y-60923515D01*
X139535020Y-60938088D01*
X139533186Y-60959995D01*
X139531910Y-60991377D01*
X139530974Y-61034377D01*
X139530159Y-61091138D01*
X139529746Y-61123930D01*
X139529084Y-61195062D01*
X139367628Y-61195062D01*
X139367433Y-61144433D01*
X139367567Y-61073732D01*
X139367961Y-61017832D01*
X139368739Y-60974601D01*
X139370027Y-60941909D01*
X139371951Y-60917623D01*
X139374634Y-60899612D01*
X139378203Y-60885745D01*
X139382782Y-60873889D01*
X139383403Y-60872505D01*
X139397617Y-60847655D01*
X139413856Y-60828004D01*
X139418575Y-60824097D01*
X139437916Y-60810550D01*
X139415924Y-60793250D01*
X139402545Y-60781538D01*
X139391800Y-60768413D01*
X139383432Y-60752007D01*
X139377179Y-60730451D01*
X139372783Y-60701877D01*
X139369985Y-60664417D01*
X139368525Y-60616202D01*
X139368143Y-60555364D01*
X139368581Y-60480034D01*
X139368836Y-60454037D01*
X139369642Y-60382136D01*
X139370493Y-60325108D01*
X139371542Y-60280893D01*
X139371775Y-60275297D01*
X139528067Y-60275297D01*
X139528067Y-60475336D01*
X139528270Y-60542366D01*
X139528958Y-60594530D01*
X139530245Y-60633889D01*
X139532246Y-60662507D01*
X139535076Y-60682447D01*
X139538851Y-60695771D01*
X139540589Y-60699589D01*
X139550245Y-60715767D01*
X139561482Y-60725573D01*
X139578603Y-60730664D01*
X139605909Y-60732702D01*
X139627550Y-60733131D01*
X139680467Y-60733800D01*
X139680467Y-60225800D01*
X139629016Y-60225800D01*
X139598632Y-60226789D01*
X139578796Y-60231130D01*
X139563171Y-60240880D01*
X139552816Y-60250549D01*
X139528067Y-60275297D01*
X139371775Y-60275297D01*
X139372939Y-60247431D01*
X139374836Y-60222661D01*
X139377384Y-60204523D01*
X139380736Y-60190957D01*
X139385041Y-60179903D01*
X139389660Y-60170766D01*
X139418301Y-60129263D01*
X139456015Y-60097459D01*
X139477267Y-60084974D01*
X139489791Y-60079376D01*
X139505251Y-60075136D01*
X139526238Y-60072009D01*
X139555340Y-60069752D01*
X139595148Y-60068120D01*
X139648251Y-60066868D01*
X139674117Y-60066414D01*
X139841334Y-60063662D01*
X139841334Y-61555067D01*
G36*
X141111334Y-61555067D02*
X140948350Y-61554695D01*
X140881853Y-61554084D01*
X140830424Y-61552513D01*
X140792222Y-61549869D01*
X140765404Y-61546036D01*
X140751990Y-61542433D01*
X140700628Y-61515887D01*
X140661054Y-61477537D01*
X140634305Y-61428495D01*
X140628492Y-61410236D01*
X140626610Y-61394286D01*
X140625028Y-61361730D01*
X140623748Y-61312892D01*
X140622773Y-61248095D01*
X140622107Y-61167665D01*
X140621754Y-61071924D01*
X140621716Y-60961198D01*
X140621997Y-60835810D01*
X140622072Y-60815310D01*
X140781134Y-60815310D01*
X140781134Y-61352636D01*
X140801915Y-61373418D01*
X140814711Y-61384268D01*
X140829296Y-61390544D01*
X140850589Y-61393451D01*
X140883506Y-61394197D01*
X140886582Y-61394200D01*
X140950467Y-61394200D01*
X140950467Y-60225800D01*
X140895013Y-60225800D01*
X140849021Y-60229369D01*
X140813767Y-60239541D01*
X140791519Y-60255513D01*
X140786393Y-60264279D01*
X140785473Y-60274951D01*
X140784605Y-60301084D01*
X140783802Y-60341207D01*
X140783078Y-60393848D01*
X140782448Y-60457536D01*
X140781924Y-60530799D01*
X140781522Y-60612166D01*
X140781255Y-60700163D01*
X140781138Y-60793321D01*
X140781134Y-60815310D01*
X140622072Y-60815310D01*
X140622160Y-60791331D01*
X140622622Y-60677486D01*
X140623062Y-60579331D01*
X140623521Y-60495623D01*
X140624039Y-60425120D01*
X140624660Y-60366578D01*
X140625422Y-60318755D01*
X140626368Y-60280407D01*
X140627539Y-60250292D01*
X140628976Y-60227167D01*
X140630721Y-60209788D01*
X140632814Y-60196913D01*
X140635296Y-60187299D01*
X140638209Y-60179703D01*
X140641594Y-60172882D01*
X140642726Y-60170766D01*
X140671368Y-60129263D01*
X140709081Y-60097459D01*
X140730334Y-60084974D01*
X140742490Y-60079514D01*
X140757449Y-60075351D01*
X140777721Y-60072256D01*
X140805813Y-60070005D01*
X140844236Y-60068370D01*
X140895497Y-60067125D01*
X140935650Y-60066437D01*
X141111334Y-60063707D01*
X141111334Y-61555067D01*
X141111334Y-61555067D01*
G37*
X141111334Y-61555067D02*
X140948350Y-61554695D01*
X140881853Y-61554084D01*
X140830424Y-61552513D01*
X140792222Y-61549869D01*
X140765404Y-61546036D01*
X140751990Y-61542433D01*
X140700628Y-61515887D01*
X140661054Y-61477537D01*
X140634305Y-61428495D01*
X140628492Y-61410236D01*
X140626610Y-61394286D01*
X140625028Y-61361730D01*
X140623748Y-61312892D01*
X140622773Y-61248095D01*
X140622107Y-61167665D01*
X140621754Y-61071924D01*
X140621716Y-60961198D01*
X140621997Y-60835810D01*
X140622072Y-60815310D01*
X140781134Y-60815310D01*
X140781134Y-61352636D01*
X140801915Y-61373418D01*
X140814711Y-61384268D01*
X140829296Y-61390544D01*
X140850589Y-61393451D01*
X140883506Y-61394197D01*
X140886582Y-61394200D01*
X140950467Y-61394200D01*
X140950467Y-60225800D01*
X140895013Y-60225800D01*
X140849021Y-60229369D01*
X140813767Y-60239541D01*
X140791519Y-60255513D01*
X140786393Y-60264279D01*
X140785473Y-60274951D01*
X140784605Y-60301084D01*
X140783802Y-60341207D01*
X140783078Y-60393848D01*
X140782448Y-60457536D01*
X140781924Y-60530799D01*
X140781522Y-60612166D01*
X140781255Y-60700163D01*
X140781138Y-60793321D01*
X140781134Y-60815310D01*
X140622072Y-60815310D01*
X140622160Y-60791331D01*
X140622622Y-60677486D01*
X140623062Y-60579331D01*
X140623521Y-60495623D01*
X140624039Y-60425120D01*
X140624660Y-60366578D01*
X140625422Y-60318755D01*
X140626368Y-60280407D01*
X140627539Y-60250292D01*
X140628976Y-60227167D01*
X140630721Y-60209788D01*
X140632814Y-60196913D01*
X140635296Y-60187299D01*
X140638209Y-60179703D01*
X140641594Y-60172882D01*
X140642726Y-60170766D01*
X140671368Y-60129263D01*
X140709081Y-60097459D01*
X140730334Y-60084974D01*
X140742490Y-60079514D01*
X140757449Y-60075351D01*
X140777721Y-60072256D01*
X140805813Y-60070005D01*
X140844236Y-60068370D01*
X140895497Y-60067125D01*
X140935650Y-60066437D01*
X141111334Y-60063707D01*
X141111334Y-61555067D01*
G36*
X142220467Y-61555067D02*
X142023617Y-61554735D01*
X141953056Y-61554309D01*
X141897780Y-61553239D01*
X141856150Y-61551439D01*
X141826524Y-61548823D01*
X141807265Y-61545308D01*
X141800871Y-61543125D01*
X141784704Y-61532776D01*
X141770155Y-61514858D01*
X141754522Y-61485708D01*
X141747955Y-61471416D01*
X141735127Y-61441715D01*
X141725596Y-61417718D01*
X141721083Y-61403808D01*
X141720933Y-61402592D01*
X141729207Y-61399548D01*
X141753273Y-61397134D01*
X141792000Y-61395406D01*
X141844259Y-61394419D01*
X141890267Y-61394200D01*
X142059600Y-61394200D01*
X142059600Y-60091293D01*
X142078417Y-60078113D01*
X142100642Y-60069482D01*
X142137007Y-60065374D01*
X142158851Y-60064933D01*
X142220467Y-60064933D01*
X142220467Y-61555067D01*
X142220467Y-61555067D01*
G37*
X142220467Y-61555067D02*
X142023617Y-61554735D01*
X141953056Y-61554309D01*
X141897780Y-61553239D01*
X141856150Y-61551439D01*
X141826524Y-61548823D01*
X141807265Y-61545308D01*
X141800871Y-61543125D01*
X141784704Y-61532776D01*
X141770155Y-61514858D01*
X141754522Y-61485708D01*
X141747955Y-61471416D01*
X141735127Y-61441715D01*
X141725596Y-61417718D01*
X141721083Y-61403808D01*
X141720933Y-61402592D01*
X141729207Y-61399548D01*
X141753273Y-61397134D01*
X141792000Y-61395406D01*
X141844259Y-61394419D01*
X141890267Y-61394200D01*
X142059600Y-61394200D01*
X142059600Y-60091293D01*
X142078417Y-60078113D01*
X142100642Y-60069482D01*
X142137007Y-60065374D01*
X142158851Y-60064933D01*
X142220467Y-60064933D01*
X142220467Y-61555067D01*
D12*
X129840000Y-45260000D03*
M02*
