G04 #@! TF.FileFunction,Legend,Bot*
%FSLAX46Y46*%
G04 Gerber Fmt 4.6, Leading zero omitted, Abs format (unit mm)*
G04 Created by KiCad (PCBNEW 4.0.5) date Saturday, July 08, 2017 'AMt' 10:27:21 AM*
%MOMM*%
%LPD*%
G01*
G04 APERTURE LIST*
%ADD10C,0.100000*%
%ADD11C,0.010000*%
G04 APERTURE END LIST*
D10*
D11*
G36*
X163624734Y-137068247D02*
X163667938Y-137067092D01*
X163699333Y-137064058D01*
X163717085Y-137059337D01*
X163718687Y-137058325D01*
X163734921Y-137040963D01*
X163745418Y-137020493D01*
X163749330Y-137000992D01*
X163745810Y-136986536D01*
X163734724Y-136981187D01*
X163719934Y-136986712D01*
X163715129Y-136993093D01*
X163704532Y-137002249D01*
X163691019Y-137005000D01*
X163674794Y-137000478D01*
X163668942Y-136987140D01*
X163666419Y-136978080D01*
X163659747Y-136972518D01*
X163645519Y-136969382D01*
X163620326Y-136967597D01*
X163604890Y-136966962D01*
X163543375Y-136964644D01*
X163543375Y-137068500D01*
X163624734Y-137068247D01*
X163624734Y-137068247D01*
G37*
X163624734Y-137068247D02*
X163667938Y-137067092D01*
X163699333Y-137064058D01*
X163717085Y-137059337D01*
X163718687Y-137058325D01*
X163734921Y-137040963D01*
X163745418Y-137020493D01*
X163749330Y-137000992D01*
X163745810Y-136986536D01*
X163734724Y-136981187D01*
X163719934Y-136986712D01*
X163715129Y-136993093D01*
X163704532Y-137002249D01*
X163691019Y-137005000D01*
X163674794Y-137000478D01*
X163668942Y-136987140D01*
X163666419Y-136978080D01*
X163659747Y-136972518D01*
X163645519Y-136969382D01*
X163620326Y-136967597D01*
X163604890Y-136966962D01*
X163543375Y-136964644D01*
X163543375Y-137068500D01*
X163624734Y-137068247D01*
G36*
X163614844Y-140259375D02*
X163664463Y-140257276D01*
X163700725Y-140250565D01*
X163725634Y-140238622D01*
X163741198Y-140220824D01*
X163741577Y-140220127D01*
X163749305Y-140197877D01*
X163747811Y-140180601D01*
X163737653Y-140172296D01*
X163734846Y-140172062D01*
X163717309Y-140177827D01*
X163710062Y-140183968D01*
X163695452Y-140194221D01*
X163680622Y-140194915D01*
X163671290Y-140186483D01*
X163670375Y-140180971D01*
X163665803Y-140163928D01*
X163650893Y-140153720D01*
X163623854Y-140149579D01*
X163597646Y-140149837D01*
X163547343Y-140152218D01*
X163544996Y-140205796D01*
X163542649Y-140259375D01*
X163614844Y-140259375D01*
X163614844Y-140259375D01*
G37*
X163614844Y-140259375D02*
X163664463Y-140257276D01*
X163700725Y-140250565D01*
X163725634Y-140238622D01*
X163741198Y-140220824D01*
X163741577Y-140220127D01*
X163749305Y-140197877D01*
X163747811Y-140180601D01*
X163737653Y-140172296D01*
X163734846Y-140172062D01*
X163717309Y-140177827D01*
X163710062Y-140183968D01*
X163695452Y-140194221D01*
X163680622Y-140194915D01*
X163671290Y-140186483D01*
X163670375Y-140180971D01*
X163665803Y-140163928D01*
X163650893Y-140153720D01*
X163623854Y-140149579D01*
X163597646Y-140149837D01*
X163547343Y-140152218D01*
X163544996Y-140205796D01*
X163542649Y-140259375D01*
X163614844Y-140259375D01*
G36*
X162685330Y-127430670D02*
X162685956Y-127443448D01*
X162686125Y-127451696D01*
X162686125Y-127487937D01*
X163559971Y-127487937D01*
X163579454Y-127507420D01*
X163595819Y-127532904D01*
X163596600Y-127559934D01*
X163583767Y-127584292D01*
X163568597Y-127603031D01*
X162686125Y-127607389D01*
X162686125Y-127710187D01*
X163604527Y-127710187D01*
X163631068Y-127692301D01*
X163657519Y-127669900D01*
X163675279Y-127642602D01*
X163685865Y-127606975D01*
X163690796Y-127559590D01*
X163690910Y-127557107D01*
X163691337Y-127522983D01*
X163689863Y-127491933D01*
X163686799Y-127469778D01*
X163686061Y-127467047D01*
X163675608Y-127447203D01*
X163657638Y-127424518D01*
X163646555Y-127413469D01*
X163614766Y-127384750D01*
X163158662Y-127384750D01*
X163059933Y-127384689D01*
X162975903Y-127384616D01*
X162905394Y-127384697D01*
X162847232Y-127385099D01*
X162800240Y-127385989D01*
X162763242Y-127387534D01*
X162735064Y-127389900D01*
X162714527Y-127393254D01*
X162700458Y-127397762D01*
X162691679Y-127403591D01*
X162687016Y-127410908D01*
X162685291Y-127419879D01*
X162685330Y-127430670D01*
X162685330Y-127430670D01*
G37*
X162685330Y-127430670D02*
X162685956Y-127443448D01*
X162686125Y-127451696D01*
X162686125Y-127487937D01*
X163559971Y-127487937D01*
X163579454Y-127507420D01*
X163595819Y-127532904D01*
X163596600Y-127559934D01*
X163583767Y-127584292D01*
X163568597Y-127603031D01*
X162686125Y-127607389D01*
X162686125Y-127710187D01*
X163604527Y-127710187D01*
X163631068Y-127692301D01*
X163657519Y-127669900D01*
X163675279Y-127642602D01*
X163685865Y-127606975D01*
X163690796Y-127559590D01*
X163690910Y-127557107D01*
X163691337Y-127522983D01*
X163689863Y-127491933D01*
X163686799Y-127469778D01*
X163686061Y-127467047D01*
X163675608Y-127447203D01*
X163657638Y-127424518D01*
X163646555Y-127413469D01*
X163614766Y-127384750D01*
X163158662Y-127384750D01*
X163059933Y-127384689D01*
X162975903Y-127384616D01*
X162905394Y-127384697D01*
X162847232Y-127385099D01*
X162800240Y-127385989D01*
X162763242Y-127387534D01*
X162735064Y-127389900D01*
X162714527Y-127393254D01*
X162700458Y-127397762D01*
X162691679Y-127403591D01*
X162687016Y-127410908D01*
X162685291Y-127419879D01*
X162685330Y-127430670D01*
G36*
X162680756Y-128367551D02*
X162686038Y-128387342D01*
X162695643Y-128407818D01*
X162695883Y-128408268D01*
X162723384Y-128443751D01*
X162761029Y-128467703D01*
X162807157Y-128479207D01*
X162825906Y-128480125D01*
X162863271Y-128477780D01*
X162889403Y-128469016D01*
X162908478Y-128451239D01*
X162924669Y-128421856D01*
X162926544Y-128417595D01*
X162945857Y-128372968D01*
X162874793Y-128369000D01*
X162839909Y-128366602D01*
X162817108Y-128363452D01*
X162802598Y-128358543D01*
X162792590Y-128350869D01*
X162788399Y-128346065D01*
X162777792Y-128322327D01*
X162782745Y-128297708D01*
X162794475Y-128281687D01*
X162804378Y-128275798D01*
X162822275Y-128272176D01*
X162850948Y-128270464D01*
X162884131Y-128270235D01*
X162906300Y-128270411D01*
X162925383Y-128271117D01*
X162943131Y-128273046D01*
X162961293Y-128276888D01*
X162981621Y-128283336D01*
X163005865Y-128293081D01*
X163035773Y-128306816D01*
X163073098Y-128325230D01*
X163119588Y-128349017D01*
X163176994Y-128378868D01*
X163232873Y-128408059D01*
X163274060Y-128428664D01*
X163314194Y-128447120D01*
X163349425Y-128461764D01*
X163375905Y-128470937D01*
X163382144Y-128472496D01*
X163407896Y-128475906D01*
X163444237Y-128478208D01*
X163485903Y-128479162D01*
X163519454Y-128478795D01*
X163561404Y-128477251D01*
X163590805Y-128475019D01*
X163610981Y-128471555D01*
X163625257Y-128466316D01*
X163635599Y-128459790D01*
X163660052Y-128439162D01*
X163676232Y-128418140D01*
X163685920Y-128392570D01*
X163690895Y-128358291D01*
X163692529Y-128326765D01*
X163693239Y-128290994D01*
X163692125Y-128266423D01*
X163688409Y-128248410D01*
X163681311Y-128232313D01*
X163674795Y-128221135D01*
X163655524Y-128195356D01*
X163632507Y-128177391D01*
X163602745Y-128166068D01*
X163563239Y-128160216D01*
X163514829Y-128158656D01*
X163471377Y-128159569D01*
X163441928Y-128162448D01*
X163424708Y-128167500D01*
X163421471Y-128169626D01*
X163411335Y-128182499D01*
X163398875Y-128203937D01*
X163387040Y-128228068D01*
X163378774Y-128249018D01*
X163376687Y-128258884D01*
X163384083Y-128261707D01*
X163404112Y-128263999D01*
X163433532Y-128265491D01*
X163462015Y-128265929D01*
X163510041Y-128267045D01*
X163544748Y-128270754D01*
X163568586Y-128277828D01*
X163584007Y-128289036D01*
X163593463Y-128305149D01*
X163594344Y-128307537D01*
X163597628Y-128325022D01*
X163591059Y-128339892D01*
X163583170Y-128349041D01*
X163573042Y-128358536D01*
X163561817Y-128364430D01*
X163545603Y-128367571D01*
X163520504Y-128368809D01*
X163491659Y-128369000D01*
X163453887Y-128367729D01*
X163417283Y-128364348D01*
X163388202Y-128359504D01*
X163381652Y-128357790D01*
X163363366Y-128350667D01*
X163333894Y-128337277D01*
X163295986Y-128318955D01*
X163252390Y-128297036D01*
X163205857Y-128272857D01*
X163195566Y-128267403D01*
X163135988Y-128236004D01*
X163087821Y-128211493D01*
X163048660Y-128192934D01*
X163016101Y-128179392D01*
X162987741Y-128169934D01*
X162961175Y-128163623D01*
X162934000Y-128159525D01*
X162912771Y-128157426D01*
X162846997Y-128155313D01*
X162793384Y-128161536D01*
X162750296Y-128176580D01*
X162716097Y-128200929D01*
X162698761Y-128220748D01*
X162689553Y-128237054D01*
X162683790Y-128258515D01*
X162680519Y-128289474D01*
X162679589Y-128308060D01*
X162678904Y-128342955D01*
X162680756Y-128367551D01*
X162680756Y-128367551D01*
G37*
X162680756Y-128367551D02*
X162686038Y-128387342D01*
X162695643Y-128407818D01*
X162695883Y-128408268D01*
X162723384Y-128443751D01*
X162761029Y-128467703D01*
X162807157Y-128479207D01*
X162825906Y-128480125D01*
X162863271Y-128477780D01*
X162889403Y-128469016D01*
X162908478Y-128451239D01*
X162924669Y-128421856D01*
X162926544Y-128417595D01*
X162945857Y-128372968D01*
X162874793Y-128369000D01*
X162839909Y-128366602D01*
X162817108Y-128363452D01*
X162802598Y-128358543D01*
X162792590Y-128350869D01*
X162788399Y-128346065D01*
X162777792Y-128322327D01*
X162782745Y-128297708D01*
X162794475Y-128281687D01*
X162804378Y-128275798D01*
X162822275Y-128272176D01*
X162850948Y-128270464D01*
X162884131Y-128270235D01*
X162906300Y-128270411D01*
X162925383Y-128271117D01*
X162943131Y-128273046D01*
X162961293Y-128276888D01*
X162981621Y-128283336D01*
X163005865Y-128293081D01*
X163035773Y-128306816D01*
X163073098Y-128325230D01*
X163119588Y-128349017D01*
X163176994Y-128378868D01*
X163232873Y-128408059D01*
X163274060Y-128428664D01*
X163314194Y-128447120D01*
X163349425Y-128461764D01*
X163375905Y-128470937D01*
X163382144Y-128472496D01*
X163407896Y-128475906D01*
X163444237Y-128478208D01*
X163485903Y-128479162D01*
X163519454Y-128478795D01*
X163561404Y-128477251D01*
X163590805Y-128475019D01*
X163610981Y-128471555D01*
X163625257Y-128466316D01*
X163635599Y-128459790D01*
X163660052Y-128439162D01*
X163676232Y-128418140D01*
X163685920Y-128392570D01*
X163690895Y-128358291D01*
X163692529Y-128326765D01*
X163693239Y-128290994D01*
X163692125Y-128266423D01*
X163688409Y-128248410D01*
X163681311Y-128232313D01*
X163674795Y-128221135D01*
X163655524Y-128195356D01*
X163632507Y-128177391D01*
X163602745Y-128166068D01*
X163563239Y-128160216D01*
X163514829Y-128158656D01*
X163471377Y-128159569D01*
X163441928Y-128162448D01*
X163424708Y-128167500D01*
X163421471Y-128169626D01*
X163411335Y-128182499D01*
X163398875Y-128203937D01*
X163387040Y-128228068D01*
X163378774Y-128249018D01*
X163376687Y-128258884D01*
X163384083Y-128261707D01*
X163404112Y-128263999D01*
X163433532Y-128265491D01*
X163462015Y-128265929D01*
X163510041Y-128267045D01*
X163544748Y-128270754D01*
X163568586Y-128277828D01*
X163584007Y-128289036D01*
X163593463Y-128305149D01*
X163594344Y-128307537D01*
X163597628Y-128325022D01*
X163591059Y-128339892D01*
X163583170Y-128349041D01*
X163573042Y-128358536D01*
X163561817Y-128364430D01*
X163545603Y-128367571D01*
X163520504Y-128368809D01*
X163491659Y-128369000D01*
X163453887Y-128367729D01*
X163417283Y-128364348D01*
X163388202Y-128359504D01*
X163381652Y-128357790D01*
X163363366Y-128350667D01*
X163333894Y-128337277D01*
X163295986Y-128318955D01*
X163252390Y-128297036D01*
X163205857Y-128272857D01*
X163195566Y-128267403D01*
X163135988Y-128236004D01*
X163087821Y-128211493D01*
X163048660Y-128192934D01*
X163016101Y-128179392D01*
X162987741Y-128169934D01*
X162961175Y-128163623D01*
X162934000Y-128159525D01*
X162912771Y-128157426D01*
X162846997Y-128155313D01*
X162793384Y-128161536D01*
X162750296Y-128176580D01*
X162716097Y-128200929D01*
X162698761Y-128220748D01*
X162689553Y-128237054D01*
X162683790Y-128258515D01*
X162680519Y-128289474D01*
X162679589Y-128308060D01*
X162678904Y-128342955D01*
X162680756Y-128367551D01*
G36*
X162682380Y-135050126D02*
X162683564Y-135076298D01*
X162686472Y-135094308D01*
X162691869Y-135108013D01*
X162700519Y-135121269D01*
X162705030Y-135127268D01*
X162713594Y-135138451D01*
X162721724Y-135147925D01*
X162730739Y-135155824D01*
X162741954Y-135162283D01*
X162756688Y-135167436D01*
X162776256Y-135171418D01*
X162801977Y-135174363D01*
X162835167Y-135176406D01*
X162877143Y-135177682D01*
X162929222Y-135178325D01*
X162992722Y-135178469D01*
X163068959Y-135178249D01*
X163159250Y-135177799D01*
X163197753Y-135177595D01*
X163289651Y-135177095D01*
X163367009Y-135176607D01*
X163431161Y-135176073D01*
X163483441Y-135175438D01*
X163525183Y-135174644D01*
X163557722Y-135173636D01*
X163582391Y-135172356D01*
X163600526Y-135170748D01*
X163613460Y-135168756D01*
X163622527Y-135166323D01*
X163629063Y-135163392D01*
X163634401Y-135159907D01*
X163635574Y-135159040D01*
X163658883Y-135139668D01*
X163674684Y-135120188D01*
X163684541Y-135096754D01*
X163690014Y-135065520D01*
X163692666Y-135022643D01*
X163692819Y-135018084D01*
X163693707Y-134980545D01*
X163693094Y-134954884D01*
X163690396Y-134937128D01*
X163685030Y-134923307D01*
X163676944Y-134910229D01*
X163658784Y-134887830D01*
X163638587Y-134868525D01*
X163636058Y-134866573D01*
X163630845Y-134862952D01*
X163624914Y-134859900D01*
X163616948Y-134857369D01*
X163605632Y-134855308D01*
X163589651Y-134853670D01*
X163567689Y-134852407D01*
X163538430Y-134851470D01*
X163500559Y-134850810D01*
X163452761Y-134850378D01*
X163393720Y-134850127D01*
X163322120Y-134850007D01*
X163236646Y-134849971D01*
X163186187Y-134849968D01*
X163092945Y-134849982D01*
X163014264Y-134850056D01*
X162948829Y-134850238D01*
X162895326Y-134850575D01*
X162852442Y-134851115D01*
X162818861Y-134851907D01*
X162806339Y-134852440D01*
X162806339Y-134957125D01*
X163186763Y-134957125D01*
X163274331Y-134957143D01*
X163347404Y-134957237D01*
X163407362Y-134957461D01*
X163455585Y-134957870D01*
X163493452Y-134958520D01*
X163522344Y-134959466D01*
X163543641Y-134960763D01*
X163558723Y-134962467D01*
X163568969Y-134964632D01*
X163575760Y-134967314D01*
X163580475Y-134970569D01*
X163583062Y-134973000D01*
X163595011Y-134993023D01*
X163598937Y-135012687D01*
X163593555Y-135035994D01*
X163583062Y-135052375D01*
X163578954Y-135056028D01*
X163573661Y-135059073D01*
X163565802Y-135061566D01*
X163554000Y-135063561D01*
X163536872Y-135065114D01*
X163513040Y-135066281D01*
X163481123Y-135067115D01*
X163439741Y-135067673D01*
X163387515Y-135068011D01*
X163323065Y-135068182D01*
X163245010Y-135068243D01*
X163186763Y-135068250D01*
X162806339Y-135068250D01*
X162789888Y-135047335D01*
X162775930Y-135023109D01*
X162776312Y-135001070D01*
X162789888Y-134978039D01*
X162806339Y-134957125D01*
X162806339Y-134852440D01*
X162793270Y-134852998D01*
X162774355Y-134854436D01*
X162760800Y-134856269D01*
X162751292Y-134858545D01*
X162744517Y-134861311D01*
X162739161Y-134864616D01*
X162736806Y-134866334D01*
X162713933Y-134885103D01*
X162698430Y-134903526D01*
X162688908Y-134925303D01*
X162683980Y-134954129D01*
X162682258Y-134993702D01*
X162682156Y-135011937D01*
X162682380Y-135050126D01*
X162682380Y-135050126D01*
G37*
X162682380Y-135050126D02*
X162683564Y-135076298D01*
X162686472Y-135094308D01*
X162691869Y-135108013D01*
X162700519Y-135121269D01*
X162705030Y-135127268D01*
X162713594Y-135138451D01*
X162721724Y-135147925D01*
X162730739Y-135155824D01*
X162741954Y-135162283D01*
X162756688Y-135167436D01*
X162776256Y-135171418D01*
X162801977Y-135174363D01*
X162835167Y-135176406D01*
X162877143Y-135177682D01*
X162929222Y-135178325D01*
X162992722Y-135178469D01*
X163068959Y-135178249D01*
X163159250Y-135177799D01*
X163197753Y-135177595D01*
X163289651Y-135177095D01*
X163367009Y-135176607D01*
X163431161Y-135176073D01*
X163483441Y-135175438D01*
X163525183Y-135174644D01*
X163557722Y-135173636D01*
X163582391Y-135172356D01*
X163600526Y-135170748D01*
X163613460Y-135168756D01*
X163622527Y-135166323D01*
X163629063Y-135163392D01*
X163634401Y-135159907D01*
X163635574Y-135159040D01*
X163658883Y-135139668D01*
X163674684Y-135120188D01*
X163684541Y-135096754D01*
X163690014Y-135065520D01*
X163692666Y-135022643D01*
X163692819Y-135018084D01*
X163693707Y-134980545D01*
X163693094Y-134954884D01*
X163690396Y-134937128D01*
X163685030Y-134923307D01*
X163676944Y-134910229D01*
X163658784Y-134887830D01*
X163638587Y-134868525D01*
X163636058Y-134866573D01*
X163630845Y-134862952D01*
X163624914Y-134859900D01*
X163616948Y-134857369D01*
X163605632Y-134855308D01*
X163589651Y-134853670D01*
X163567689Y-134852407D01*
X163538430Y-134851470D01*
X163500559Y-134850810D01*
X163452761Y-134850378D01*
X163393720Y-134850127D01*
X163322120Y-134850007D01*
X163236646Y-134849971D01*
X163186187Y-134849968D01*
X163092945Y-134849982D01*
X163014264Y-134850056D01*
X162948829Y-134850238D01*
X162895326Y-134850575D01*
X162852442Y-134851115D01*
X162818861Y-134851907D01*
X162806339Y-134852440D01*
X162806339Y-134957125D01*
X163186763Y-134957125D01*
X163274331Y-134957143D01*
X163347404Y-134957237D01*
X163407362Y-134957461D01*
X163455585Y-134957870D01*
X163493452Y-134958520D01*
X163522344Y-134959466D01*
X163543641Y-134960763D01*
X163558723Y-134962467D01*
X163568969Y-134964632D01*
X163575760Y-134967314D01*
X163580475Y-134970569D01*
X163583062Y-134973000D01*
X163595011Y-134993023D01*
X163598937Y-135012687D01*
X163593555Y-135035994D01*
X163583062Y-135052375D01*
X163578954Y-135056028D01*
X163573661Y-135059073D01*
X163565802Y-135061566D01*
X163554000Y-135063561D01*
X163536872Y-135065114D01*
X163513040Y-135066281D01*
X163481123Y-135067115D01*
X163439741Y-135067673D01*
X163387515Y-135068011D01*
X163323065Y-135068182D01*
X163245010Y-135068243D01*
X163186763Y-135068250D01*
X162806339Y-135068250D01*
X162789888Y-135047335D01*
X162775930Y-135023109D01*
X162776312Y-135001070D01*
X162789888Y-134978039D01*
X162806339Y-134957125D01*
X162806339Y-134852440D01*
X162793270Y-134852998D01*
X162774355Y-134854436D01*
X162760800Y-134856269D01*
X162751292Y-134858545D01*
X162744517Y-134861311D01*
X162739161Y-134864616D01*
X162736806Y-134866334D01*
X162713933Y-134885103D01*
X162698430Y-134903526D01*
X162688908Y-134925303D01*
X162683980Y-134954129D01*
X162682258Y-134993702D01*
X162682156Y-135011937D01*
X162682380Y-135050126D01*
G36*
X163552868Y-127933736D02*
X163556886Y-127954474D01*
X163560837Y-127962600D01*
X163574066Y-127967785D01*
X163599422Y-127971126D01*
X163628306Y-127972125D01*
X163686250Y-127972125D01*
X163686250Y-127926087D01*
X163684693Y-127899388D01*
X163680676Y-127878650D01*
X163676725Y-127870525D01*
X163663495Y-127865339D01*
X163638139Y-127861998D01*
X163609256Y-127861000D01*
X163551312Y-127861000D01*
X163551312Y-127907037D01*
X163552868Y-127933736D01*
X163552868Y-127933736D01*
G37*
X163552868Y-127933736D02*
X163556886Y-127954474D01*
X163560837Y-127962600D01*
X163574066Y-127967785D01*
X163599422Y-127971126D01*
X163628306Y-127972125D01*
X163686250Y-127972125D01*
X163686250Y-127926087D01*
X163684693Y-127899388D01*
X163680676Y-127878650D01*
X163676725Y-127870525D01*
X163663495Y-127865339D01*
X163638139Y-127861998D01*
X163609256Y-127861000D01*
X163551312Y-127861000D01*
X163551312Y-127907037D01*
X163552868Y-127933736D01*
G36*
X163555281Y-128706343D02*
X163620765Y-128708649D01*
X163686250Y-128710954D01*
X163686250Y-128667544D01*
X163683295Y-128632662D01*
X163674455Y-128612372D01*
X163673776Y-128611660D01*
X163659885Y-128604081D01*
X163635447Y-128600112D01*
X163605945Y-128599187D01*
X163550587Y-128599187D01*
X163555281Y-128706343D01*
X163555281Y-128706343D01*
G37*
X163555281Y-128706343D02*
X163620765Y-128708649D01*
X163686250Y-128710954D01*
X163686250Y-128667544D01*
X163683295Y-128632662D01*
X163674455Y-128612372D01*
X163673776Y-128611660D01*
X163659885Y-128604081D01*
X163635447Y-128600112D01*
X163605945Y-128599187D01*
X163550587Y-128599187D01*
X163555281Y-128706343D01*
G36*
X162686169Y-129549703D02*
X162686851Y-129589631D01*
X162688668Y-129626433D01*
X162691329Y-129655634D01*
X162694029Y-129671102D01*
X162708287Y-129699945D01*
X162732418Y-129728213D01*
X162761206Y-129750400D01*
X162775938Y-129757575D01*
X162794349Y-129761226D01*
X162825416Y-129763885D01*
X162865952Y-129765583D01*
X162912769Y-129766347D01*
X162962682Y-129766207D01*
X163012503Y-129765190D01*
X163059046Y-129763325D01*
X163099123Y-129760641D01*
X163129548Y-129757167D01*
X163143395Y-129754280D01*
X163184750Y-129735850D01*
X163214414Y-129708058D01*
X163233024Y-129669911D01*
X163241221Y-129620416D01*
X163241750Y-129601349D01*
X163241750Y-129559625D01*
X163686250Y-129559625D01*
X163686250Y-129513322D01*
X163685406Y-129487478D01*
X163683224Y-129468484D01*
X163680958Y-129461729D01*
X163672295Y-129460797D01*
X163649122Y-129459918D01*
X163612805Y-129459105D01*
X163564709Y-129458374D01*
X163506199Y-129457738D01*
X163438640Y-129457212D01*
X163363397Y-129456811D01*
X163281837Y-129456548D01*
X163195323Y-129456439D01*
X163180895Y-129456437D01*
X162789312Y-129456437D01*
X162789312Y-129559625D01*
X163138562Y-129559625D01*
X163138562Y-129594767D01*
X163136464Y-129619910D01*
X163128313Y-129636395D01*
X163117648Y-129646361D01*
X163108822Y-129652424D01*
X163098419Y-129656789D01*
X163083839Y-129659732D01*
X163062482Y-129661528D01*
X163031745Y-129662453D01*
X162989029Y-129662784D01*
X162962506Y-129662812D01*
X162913399Y-129662737D01*
X162877607Y-129662297D01*
X162852567Y-129661167D01*
X162835719Y-129659022D01*
X162824503Y-129655538D01*
X162816356Y-129650389D01*
X162808795Y-129643329D01*
X162793886Y-129621473D01*
X162789318Y-129593091D01*
X162789312Y-129591735D01*
X162789312Y-129559625D01*
X162789312Y-129456437D01*
X162686125Y-129456437D01*
X162686169Y-129549703D01*
X162686169Y-129549703D01*
G37*
X162686169Y-129549703D02*
X162686851Y-129589631D01*
X162688668Y-129626433D01*
X162691329Y-129655634D01*
X162694029Y-129671102D01*
X162708287Y-129699945D01*
X162732418Y-129728213D01*
X162761206Y-129750400D01*
X162775938Y-129757575D01*
X162794349Y-129761226D01*
X162825416Y-129763885D01*
X162865952Y-129765583D01*
X162912769Y-129766347D01*
X162962682Y-129766207D01*
X163012503Y-129765190D01*
X163059046Y-129763325D01*
X163099123Y-129760641D01*
X163129548Y-129757167D01*
X163143395Y-129754280D01*
X163184750Y-129735850D01*
X163214414Y-129708058D01*
X163233024Y-129669911D01*
X163241221Y-129620416D01*
X163241750Y-129601349D01*
X163241750Y-129559625D01*
X163686250Y-129559625D01*
X163686250Y-129513322D01*
X163685406Y-129487478D01*
X163683224Y-129468484D01*
X163680958Y-129461729D01*
X163672295Y-129460797D01*
X163649122Y-129459918D01*
X163612805Y-129459105D01*
X163564709Y-129458374D01*
X163506199Y-129457738D01*
X163438640Y-129457212D01*
X163363397Y-129456811D01*
X163281837Y-129456548D01*
X163195323Y-129456439D01*
X163180895Y-129456437D01*
X162789312Y-129456437D01*
X162789312Y-129559625D01*
X163138562Y-129559625D01*
X163138562Y-129594767D01*
X163136464Y-129619910D01*
X163128313Y-129636395D01*
X163117648Y-129646361D01*
X163108822Y-129652424D01*
X163098419Y-129656789D01*
X163083839Y-129659732D01*
X163062482Y-129661528D01*
X163031745Y-129662453D01*
X162989029Y-129662784D01*
X162962506Y-129662812D01*
X162913399Y-129662737D01*
X162877607Y-129662297D01*
X162852567Y-129661167D01*
X162835719Y-129659022D01*
X162824503Y-129655538D01*
X162816356Y-129650389D01*
X162808795Y-129643329D01*
X162793886Y-129621473D01*
X162789318Y-129593091D01*
X162789312Y-129591735D01*
X162789312Y-129559625D01*
X162789312Y-129456437D01*
X162686125Y-129456437D01*
X162686169Y-129549703D01*
G36*
X162694237Y-130300453D02*
X162707132Y-130318900D01*
X162712350Y-130322055D01*
X162722228Y-130324210D01*
X162746131Y-130328479D01*
X162782388Y-130334602D01*
X162829327Y-130342318D01*
X162885276Y-130351367D01*
X162948565Y-130361489D01*
X163017521Y-130372424D01*
X163090474Y-130383911D01*
X163165751Y-130395691D01*
X163241682Y-130407502D01*
X163316595Y-130419085D01*
X163388817Y-130430179D01*
X163456679Y-130440524D01*
X163518509Y-130449860D01*
X163572634Y-130457926D01*
X163617384Y-130464463D01*
X163651087Y-130469210D01*
X163672072Y-130471907D01*
X163678148Y-130472437D01*
X163682760Y-130465335D01*
X163685555Y-130447147D01*
X163686605Y-130422549D01*
X163685981Y-130396217D01*
X163683754Y-130372827D01*
X163679996Y-130357055D01*
X163676328Y-130353039D01*
X163666518Y-130351961D01*
X163642701Y-130349028D01*
X163606607Y-130344460D01*
X163559968Y-130338482D01*
X163504514Y-130331314D01*
X163441977Y-130323180D01*
X163374087Y-130314301D01*
X163349773Y-130311109D01*
X163033140Y-130269516D01*
X163353742Y-130227929D01*
X163423334Y-130218924D01*
X163488015Y-130210598D01*
X163546093Y-130203166D01*
X163595875Y-130196841D01*
X163635668Y-130191839D01*
X163663782Y-130188374D01*
X163678523Y-130186661D01*
X163680296Y-130186514D01*
X163683141Y-130179312D01*
X163685246Y-130160103D01*
X163686223Y-130132751D01*
X163686250Y-130127156D01*
X163685952Y-130096851D01*
X163684396Y-130079117D01*
X163680580Y-130070651D01*
X163673507Y-130068153D01*
X163668390Y-130068110D01*
X163657524Y-130069365D01*
X163632375Y-130072812D01*
X163594354Y-130078245D01*
X163544871Y-130085456D01*
X163485336Y-130094235D01*
X163417160Y-130104376D01*
X163341751Y-130115670D01*
X163260521Y-130127910D01*
X163174880Y-130140886D01*
X163170312Y-130141580D01*
X162690093Y-130214565D01*
X162687461Y-130237598D01*
X162687288Y-130272022D01*
X162694237Y-130300453D01*
X162694237Y-130300453D01*
G37*
X162694237Y-130300453D02*
X162707132Y-130318900D01*
X162712350Y-130322055D01*
X162722228Y-130324210D01*
X162746131Y-130328479D01*
X162782388Y-130334602D01*
X162829327Y-130342318D01*
X162885276Y-130351367D01*
X162948565Y-130361489D01*
X163017521Y-130372424D01*
X163090474Y-130383911D01*
X163165751Y-130395691D01*
X163241682Y-130407502D01*
X163316595Y-130419085D01*
X163388817Y-130430179D01*
X163456679Y-130440524D01*
X163518509Y-130449860D01*
X163572634Y-130457926D01*
X163617384Y-130464463D01*
X163651087Y-130469210D01*
X163672072Y-130471907D01*
X163678148Y-130472437D01*
X163682760Y-130465335D01*
X163685555Y-130447147D01*
X163686605Y-130422549D01*
X163685981Y-130396217D01*
X163683754Y-130372827D01*
X163679996Y-130357055D01*
X163676328Y-130353039D01*
X163666518Y-130351961D01*
X163642701Y-130349028D01*
X163606607Y-130344460D01*
X163559968Y-130338482D01*
X163504514Y-130331314D01*
X163441977Y-130323180D01*
X163374087Y-130314301D01*
X163349773Y-130311109D01*
X163033140Y-130269516D01*
X163353742Y-130227929D01*
X163423334Y-130218924D01*
X163488015Y-130210598D01*
X163546093Y-130203166D01*
X163595875Y-130196841D01*
X163635668Y-130191839D01*
X163663782Y-130188374D01*
X163678523Y-130186661D01*
X163680296Y-130186514D01*
X163683141Y-130179312D01*
X163685246Y-130160103D01*
X163686223Y-130132751D01*
X163686250Y-130127156D01*
X163685952Y-130096851D01*
X163684396Y-130079117D01*
X163680580Y-130070651D01*
X163673507Y-130068153D01*
X163668390Y-130068110D01*
X163657524Y-130069365D01*
X163632375Y-130072812D01*
X163594354Y-130078245D01*
X163544871Y-130085456D01*
X163485336Y-130094235D01*
X163417160Y-130104376D01*
X163341751Y-130115670D01*
X163260521Y-130127910D01*
X163174880Y-130140886D01*
X163170312Y-130141580D01*
X162690093Y-130214565D01*
X162687461Y-130237598D01*
X162687288Y-130272022D01*
X162694237Y-130300453D01*
G36*
X162686076Y-131042067D02*
X162686674Y-131089197D01*
X162687718Y-131131265D01*
X162689207Y-131165759D01*
X162691141Y-131190167D01*
X162693521Y-131201976D01*
X162694326Y-131202687D01*
X162709971Y-131198412D01*
X162732628Y-131187671D01*
X162756919Y-131173589D01*
X162777467Y-131159290D01*
X162788893Y-131147900D01*
X162789027Y-131147657D01*
X162793384Y-131131789D01*
X162796365Y-131106151D01*
X162797250Y-131081765D01*
X162798708Y-131052751D01*
X162802563Y-131030806D01*
X162806775Y-131021712D01*
X162813027Y-131019513D01*
X162827659Y-131017646D01*
X162851599Y-131016090D01*
X162885775Y-131014827D01*
X162931113Y-131013835D01*
X162988541Y-131013095D01*
X163058986Y-131012587D01*
X163143376Y-131012291D01*
X163242639Y-131012188D01*
X163251275Y-131012187D01*
X163686250Y-131012187D01*
X163686250Y-130964841D01*
X163685277Y-130936775D01*
X163681584Y-130920288D01*
X163674003Y-130911160D01*
X163670896Y-130909279D01*
X163658917Y-130907233D01*
X163631318Y-130905470D01*
X163588355Y-130903997D01*
X163530281Y-130902817D01*
X163457349Y-130901935D01*
X163369815Y-130901356D01*
X163267930Y-130901084D01*
X163226396Y-130901062D01*
X162797250Y-130901062D01*
X162797250Y-130766125D01*
X162749904Y-130766125D01*
X162721838Y-130767097D01*
X162705350Y-130770790D01*
X162696222Y-130778371D01*
X162694341Y-130781478D01*
X162691827Y-130793692D01*
X162689756Y-130818431D01*
X162688131Y-130853182D01*
X162686950Y-130895434D01*
X162686213Y-130942674D01*
X162685922Y-130992389D01*
X162686076Y-131042067D01*
X162686076Y-131042067D01*
G37*
X162686076Y-131042067D02*
X162686674Y-131089197D01*
X162687718Y-131131265D01*
X162689207Y-131165759D01*
X162691141Y-131190167D01*
X162693521Y-131201976D01*
X162694326Y-131202687D01*
X162709971Y-131198412D01*
X162732628Y-131187671D01*
X162756919Y-131173589D01*
X162777467Y-131159290D01*
X162788893Y-131147900D01*
X162789027Y-131147657D01*
X162793384Y-131131789D01*
X162796365Y-131106151D01*
X162797250Y-131081765D01*
X162798708Y-131052751D01*
X162802563Y-131030806D01*
X162806775Y-131021712D01*
X162813027Y-131019513D01*
X162827659Y-131017646D01*
X162851599Y-131016090D01*
X162885775Y-131014827D01*
X162931113Y-131013835D01*
X162988541Y-131013095D01*
X163058986Y-131012587D01*
X163143376Y-131012291D01*
X163242639Y-131012188D01*
X163251275Y-131012187D01*
X163686250Y-131012187D01*
X163686250Y-130964841D01*
X163685277Y-130936775D01*
X163681584Y-130920288D01*
X163674003Y-130911160D01*
X163670896Y-130909279D01*
X163658917Y-130907233D01*
X163631318Y-130905470D01*
X163588355Y-130903997D01*
X163530281Y-130902817D01*
X163457349Y-130901935D01*
X163369815Y-130901356D01*
X163267930Y-130901084D01*
X163226396Y-130901062D01*
X162797250Y-130901062D01*
X162797250Y-130766125D01*
X162749904Y-130766125D01*
X162721838Y-130767097D01*
X162705350Y-130770790D01*
X162696222Y-130778371D01*
X162694341Y-130781478D01*
X162691827Y-130793692D01*
X162689756Y-130818431D01*
X162688131Y-130853182D01*
X162686950Y-130895434D01*
X162686213Y-130942674D01*
X162685922Y-130992389D01*
X162686076Y-131042067D01*
G36*
X162686589Y-131811030D02*
X162687962Y-131853044D01*
X162690212Y-131880419D01*
X162693307Y-131892624D01*
X162694326Y-131893250D01*
X162707664Y-131889404D01*
X162728956Y-131879764D01*
X162752838Y-131867173D01*
X162773945Y-131854473D01*
X162786911Y-131844509D01*
X162787463Y-131843883D01*
X162792040Y-131831121D01*
X162795981Y-131807171D01*
X162798565Y-131776722D01*
X162798871Y-131769842D01*
X162801218Y-131706718D01*
X162954015Y-131704562D01*
X163106812Y-131702407D01*
X163106812Y-131778519D01*
X163106999Y-131815635D01*
X163109059Y-131838625D01*
X163115243Y-131849230D01*
X163127801Y-131849197D01*
X163148984Y-131840267D01*
X163171758Y-131828844D01*
X163193226Y-131816645D01*
X163206083Y-131803805D01*
X163213142Y-131785538D01*
X163217212Y-131757060D01*
X163217853Y-131750375D01*
X163221906Y-131706718D01*
X163398290Y-131704583D01*
X163574675Y-131702447D01*
X163576884Y-131809753D01*
X163579093Y-131917058D01*
X163627507Y-131894150D01*
X163652960Y-131880552D01*
X163672314Y-131867328D01*
X163681085Y-131857784D01*
X163682853Y-131845508D01*
X163684360Y-131820413D01*
X163685494Y-131785553D01*
X163686141Y-131743983D01*
X163686250Y-131717975D01*
X163686250Y-131591625D01*
X163198660Y-131591625D01*
X163097569Y-131591659D01*
X163011182Y-131591782D01*
X162938327Y-131592023D01*
X162877835Y-131592410D01*
X162828533Y-131592974D01*
X162789251Y-131593742D01*
X162758818Y-131594746D01*
X162736062Y-131596013D01*
X162719814Y-131597573D01*
X162708901Y-131599455D01*
X162702153Y-131601689D01*
X162698598Y-131604098D01*
X162693955Y-131611131D01*
X162690589Y-131623059D01*
X162688312Y-131642154D01*
X162686934Y-131670688D01*
X162686270Y-131710933D01*
X162686124Y-131754910D01*
X162686589Y-131811030D01*
X162686589Y-131811030D01*
G37*
X162686589Y-131811030D02*
X162687962Y-131853044D01*
X162690212Y-131880419D01*
X162693307Y-131892624D01*
X162694326Y-131893250D01*
X162707664Y-131889404D01*
X162728956Y-131879764D01*
X162752838Y-131867173D01*
X162773945Y-131854473D01*
X162786911Y-131844509D01*
X162787463Y-131843883D01*
X162792040Y-131831121D01*
X162795981Y-131807171D01*
X162798565Y-131776722D01*
X162798871Y-131769842D01*
X162801218Y-131706718D01*
X162954015Y-131704562D01*
X163106812Y-131702407D01*
X163106812Y-131778519D01*
X163106999Y-131815635D01*
X163109059Y-131838625D01*
X163115243Y-131849230D01*
X163127801Y-131849197D01*
X163148984Y-131840267D01*
X163171758Y-131828844D01*
X163193226Y-131816645D01*
X163206083Y-131803805D01*
X163213142Y-131785538D01*
X163217212Y-131757060D01*
X163217853Y-131750375D01*
X163221906Y-131706718D01*
X163398290Y-131704583D01*
X163574675Y-131702447D01*
X163576884Y-131809753D01*
X163579093Y-131917058D01*
X163627507Y-131894150D01*
X163652960Y-131880552D01*
X163672314Y-131867328D01*
X163681085Y-131857784D01*
X163682853Y-131845508D01*
X163684360Y-131820413D01*
X163685494Y-131785553D01*
X163686141Y-131743983D01*
X163686250Y-131717975D01*
X163686250Y-131591625D01*
X163198660Y-131591625D01*
X163097569Y-131591659D01*
X163011182Y-131591782D01*
X162938327Y-131592023D01*
X162877835Y-131592410D01*
X162828533Y-131592974D01*
X162789251Y-131593742D01*
X162758818Y-131594746D01*
X162736062Y-131596013D01*
X162719814Y-131597573D01*
X162708901Y-131599455D01*
X162702153Y-131601689D01*
X162698598Y-131604098D01*
X162693955Y-131611131D01*
X162690589Y-131623059D01*
X162688312Y-131642154D01*
X162686934Y-131670688D01*
X162686270Y-131710933D01*
X162686124Y-131754910D01*
X162686589Y-131811030D01*
G36*
X162689572Y-132319958D02*
X162699648Y-132350380D01*
X162713021Y-132365509D01*
X162724867Y-132369823D01*
X162750175Y-132376740D01*
X162786838Y-132385764D01*
X162832749Y-132396397D01*
X162885801Y-132408141D01*
X162943886Y-132420497D01*
X162959968Y-132423835D01*
X163190156Y-132471352D01*
X162938140Y-132472020D01*
X162686125Y-132472687D01*
X162686125Y-132583812D01*
X163688215Y-132583812D01*
X163684562Y-132539753D01*
X163680465Y-132513018D01*
X163673877Y-132491768D01*
X163669049Y-132483834D01*
X163658358Y-132479030D01*
X163633923Y-132471376D01*
X163597522Y-132461339D01*
X163550934Y-132449387D01*
X163495941Y-132435987D01*
X163434320Y-132421605D01*
X163415735Y-132417378D01*
X163174281Y-132362780D01*
X163430265Y-132362171D01*
X163686250Y-132361562D01*
X163686250Y-132250437D01*
X162686125Y-132250437D01*
X162686124Y-132277226D01*
X162689572Y-132319958D01*
X162689572Y-132319958D01*
G37*
X162689572Y-132319958D02*
X162699648Y-132350380D01*
X162713021Y-132365509D01*
X162724867Y-132369823D01*
X162750175Y-132376740D01*
X162786838Y-132385764D01*
X162832749Y-132396397D01*
X162885801Y-132408141D01*
X162943886Y-132420497D01*
X162959968Y-132423835D01*
X163190156Y-132471352D01*
X162938140Y-132472020D01*
X162686125Y-132472687D01*
X162686125Y-132583812D01*
X163688215Y-132583812D01*
X163684562Y-132539753D01*
X163680465Y-132513018D01*
X163673877Y-132491768D01*
X163669049Y-132483834D01*
X163658358Y-132479030D01*
X163633923Y-132471376D01*
X163597522Y-132461339D01*
X163550934Y-132449387D01*
X163495941Y-132435987D01*
X163434320Y-132421605D01*
X163415735Y-132417378D01*
X163174281Y-132362780D01*
X163430265Y-132362171D01*
X163686250Y-132361562D01*
X163686250Y-132250437D01*
X162686125Y-132250437D01*
X162686124Y-132277226D01*
X162689572Y-132319958D01*
G36*
X162686437Y-133194747D02*
X162687371Y-133251886D01*
X162688923Y-133293508D01*
X162691088Y-133319504D01*
X162693862Y-133329762D01*
X162694326Y-133329937D01*
X162707786Y-133326083D01*
X162729057Y-133316442D01*
X162752756Y-133303895D01*
X162773497Y-133291322D01*
X162785898Y-133281604D01*
X162786766Y-133280479D01*
X162790312Y-133268166D01*
X162793857Y-133244579D01*
X162796748Y-133214307D01*
X162797250Y-133206906D01*
X162801218Y-133143406D01*
X163686250Y-133139304D01*
X163686250Y-133093333D01*
X163684691Y-133066652D01*
X163680669Y-133045932D01*
X163676725Y-133037837D01*
X163670472Y-133035638D01*
X163655840Y-133033771D01*
X163631900Y-133032215D01*
X163597724Y-133030952D01*
X163552386Y-133029960D01*
X163494958Y-133029220D01*
X163424513Y-133028712D01*
X163340123Y-133028416D01*
X163240860Y-133028313D01*
X163232225Y-133028312D01*
X162797250Y-133028312D01*
X162797250Y-132885437D01*
X162754823Y-132885437D01*
X162735254Y-132885557D01*
X162719805Y-132887034D01*
X162707988Y-132891545D01*
X162699317Y-132900768D01*
X162693306Y-132916379D01*
X162689469Y-132940057D01*
X162687317Y-132973476D01*
X162686366Y-133018316D01*
X162686127Y-133076253D01*
X162686124Y-133122203D01*
X162686437Y-133194747D01*
X162686437Y-133194747D01*
G37*
X162686437Y-133194747D02*
X162687371Y-133251886D01*
X162688923Y-133293508D01*
X162691088Y-133319504D01*
X162693862Y-133329762D01*
X162694326Y-133329937D01*
X162707786Y-133326083D01*
X162729057Y-133316442D01*
X162752756Y-133303895D01*
X162773497Y-133291322D01*
X162785898Y-133281604D01*
X162786766Y-133280479D01*
X162790312Y-133268166D01*
X162793857Y-133244579D01*
X162796748Y-133214307D01*
X162797250Y-133206906D01*
X162801218Y-133143406D01*
X163686250Y-133139304D01*
X163686250Y-133093333D01*
X163684691Y-133066652D01*
X163680669Y-133045932D01*
X163676725Y-133037837D01*
X163670472Y-133035638D01*
X163655840Y-133033771D01*
X163631900Y-133032215D01*
X163597724Y-133030952D01*
X163552386Y-133029960D01*
X163494958Y-133029220D01*
X163424513Y-133028712D01*
X163340123Y-133028416D01*
X163240860Y-133028313D01*
X163232225Y-133028312D01*
X162797250Y-133028312D01*
X162797250Y-132885437D01*
X162754823Y-132885437D01*
X162735254Y-132885557D01*
X162719805Y-132887034D01*
X162707988Y-132891545D01*
X162699317Y-132900768D01*
X162693306Y-132916379D01*
X162689469Y-132940057D01*
X162687317Y-132973476D01*
X162686366Y-133018316D01*
X162686127Y-133076253D01*
X162686124Y-133122203D01*
X162686437Y-133194747D01*
G36*
X162689108Y-134232140D02*
X162696385Y-134259764D01*
X162697335Y-134262152D01*
X162700142Y-134269360D01*
X162702893Y-134275342D01*
X162707060Y-134280521D01*
X162714115Y-134285318D01*
X162725530Y-134290153D01*
X162742779Y-134295450D01*
X162767333Y-134301629D01*
X162800665Y-134309112D01*
X162844247Y-134318320D01*
X162899552Y-134329675D01*
X162968051Y-134343599D01*
X163015531Y-134353246D01*
X163206031Y-134391991D01*
X162946078Y-134392777D01*
X162686125Y-134393562D01*
X162686125Y-134504687D01*
X163686250Y-134504687D01*
X163686250Y-134466766D01*
X163681586Y-134429731D01*
X163666902Y-134404112D01*
X163641162Y-134388235D01*
X163636616Y-134386694D01*
X163622116Y-134382864D01*
X163594437Y-134376205D01*
X163555916Y-134367256D01*
X163508889Y-134356552D01*
X163455691Y-134344630D01*
X163400848Y-134332508D01*
X163190853Y-134286406D01*
X163438551Y-134284308D01*
X163686250Y-134282211D01*
X163686250Y-134171312D01*
X162686125Y-134171312D01*
X162686124Y-134203317D01*
X162689108Y-134232140D01*
X162689108Y-134232140D01*
G37*
X162689108Y-134232140D02*
X162696385Y-134259764D01*
X162697335Y-134262152D01*
X162700142Y-134269360D01*
X162702893Y-134275342D01*
X162707060Y-134280521D01*
X162714115Y-134285318D01*
X162725530Y-134290153D01*
X162742779Y-134295450D01*
X162767333Y-134301629D01*
X162800665Y-134309112D01*
X162844247Y-134318320D01*
X162899552Y-134329675D01*
X162968051Y-134343599D01*
X163015531Y-134353246D01*
X163206031Y-134391991D01*
X162946078Y-134392777D01*
X162686125Y-134393562D01*
X162686125Y-134504687D01*
X163686250Y-134504687D01*
X163686250Y-134466766D01*
X163681586Y-134429731D01*
X163666902Y-134404112D01*
X163641162Y-134388235D01*
X163636616Y-134386694D01*
X163622116Y-134382864D01*
X163594437Y-134376205D01*
X163555916Y-134367256D01*
X163508889Y-134356552D01*
X163455691Y-134344630D01*
X163400848Y-134332508D01*
X163190853Y-134286406D01*
X163438551Y-134284308D01*
X163686250Y-134282211D01*
X163686250Y-134171312D01*
X162686125Y-134171312D01*
X162686124Y-134203317D01*
X162689108Y-134232140D01*
G36*
X163551892Y-135384432D02*
X163555557Y-135401945D01*
X163565192Y-135411835D01*
X163583683Y-135416280D01*
X163613916Y-135417456D01*
X163631336Y-135417500D01*
X163686250Y-135417500D01*
X163686250Y-135371462D01*
X163684693Y-135344763D01*
X163680676Y-135324025D01*
X163676725Y-135315900D01*
X163663495Y-135310714D01*
X163638139Y-135307373D01*
X163609256Y-135306375D01*
X163551312Y-135306375D01*
X163551312Y-135357119D01*
X163551892Y-135384432D01*
X163551892Y-135384432D01*
G37*
X163551892Y-135384432D02*
X163555557Y-135401945D01*
X163565192Y-135411835D01*
X163583683Y-135416280D01*
X163613916Y-135417456D01*
X163631336Y-135417500D01*
X163686250Y-135417500D01*
X163686250Y-135371462D01*
X163684693Y-135344763D01*
X163680676Y-135324025D01*
X163676725Y-135315900D01*
X163663495Y-135310714D01*
X163638139Y-135307373D01*
X163609256Y-135306375D01*
X163551312Y-135306375D01*
X163551312Y-135357119D01*
X163551892Y-135384432D01*
G36*
X162672373Y-137897229D02*
X162679501Y-137932738D01*
X162692999Y-137959312D01*
X162714205Y-137980201D01*
X162727724Y-137989292D01*
X162737037Y-137994331D01*
X162747754Y-137998171D01*
X162762042Y-138000973D01*
X162782070Y-138002899D01*
X162810008Y-138004110D01*
X162848022Y-138004766D01*
X162898282Y-138005029D01*
X162940125Y-138005065D01*
X163000256Y-138004956D01*
X163046647Y-138004529D01*
X163081429Y-138003638D01*
X163106735Y-138002136D01*
X163124699Y-137999875D01*
X163137453Y-137996710D01*
X163147130Y-137992492D01*
X163150468Y-137990568D01*
X163167430Y-137981393D01*
X163179626Y-137980884D01*
X163195591Y-137989039D01*
X163198093Y-137990556D01*
X163207145Y-137995203D01*
X163218467Y-137998748D01*
X163234186Y-138001337D01*
X163256429Y-138003117D01*
X163287323Y-138004233D01*
X163328994Y-138004833D01*
X163383568Y-138005062D01*
X163409248Y-138005083D01*
X163468665Y-138005039D01*
X163514374Y-138004759D01*
X163548539Y-138004060D01*
X163573328Y-138002763D01*
X163590906Y-138000687D01*
X163603439Y-137997650D01*
X163613093Y-137993473D01*
X163622035Y-137987974D01*
X163623131Y-137987238D01*
X163653046Y-137960305D01*
X163672135Y-137925893D01*
X163681722Y-137881267D01*
X163683038Y-137863592D01*
X163683077Y-137830755D01*
X163680616Y-137799562D01*
X163677158Y-137780819D01*
X163659622Y-137745990D01*
X163630483Y-137718001D01*
X163593072Y-137698307D01*
X163550720Y-137688365D01*
X163506758Y-137689629D01*
X163482594Y-137695803D01*
X163464729Y-137706657D01*
X163448415Y-137727752D01*
X163437753Y-137747573D01*
X163426493Y-137771105D01*
X163418748Y-137788386D01*
X163416375Y-137794957D01*
X163423704Y-137796671D01*
X163443263Y-137797982D01*
X163471406Y-137798684D01*
X163483843Y-137798750D01*
X163527410Y-137800917D01*
X163557276Y-137807968D01*
X163575091Y-137820727D01*
X163582500Y-137840021D01*
X163582940Y-137848359D01*
X163581102Y-137865792D01*
X163574625Y-137879054D01*
X163561668Y-137888690D01*
X163540387Y-137895250D01*
X163508940Y-137899278D01*
X163465485Y-137901324D01*
X163408178Y-137901934D01*
X163402538Y-137901937D01*
X163349932Y-137901751D01*
X163310754Y-137900749D01*
X163282562Y-137898264D01*
X163262910Y-137893630D01*
X163249354Y-137886181D01*
X163239448Y-137875251D01*
X163230749Y-137860173D01*
X163227796Y-137854312D01*
X163218732Y-137838363D01*
X163208505Y-137829755D01*
X163191939Y-137825822D01*
X163169280Y-137824179D01*
X163124592Y-137821827D01*
X163119354Y-137849747D01*
X163114949Y-137867341D01*
X163107831Y-137880490D01*
X163095873Y-137889832D01*
X163076948Y-137896007D01*
X163048929Y-137899655D01*
X163009690Y-137901416D01*
X162957102Y-137901928D01*
X162945774Y-137901937D01*
X162887231Y-137901423D01*
X162842697Y-137899516D01*
X162810329Y-137895667D01*
X162788282Y-137889329D01*
X162774714Y-137879952D01*
X162767782Y-137866989D01*
X162765640Y-137849892D01*
X162765621Y-137848359D01*
X162769817Y-137826616D01*
X162783848Y-137811691D01*
X162809362Y-137802760D01*
X162848007Y-137798998D01*
X162864718Y-137798750D01*
X162895209Y-137798294D01*
X162918527Y-137797078D01*
X162931030Y-137795328D01*
X162932187Y-137794554D01*
X162928872Y-137785841D01*
X162920204Y-137767158D01*
X162908781Y-137743993D01*
X162893057Y-137716110D01*
X162877429Y-137699305D01*
X162857209Y-137690831D01*
X162827712Y-137687940D01*
X162812822Y-137687733D01*
X162771953Y-137693921D01*
X162732501Y-137710848D01*
X162700067Y-137735703D01*
X162688173Y-137750314D01*
X162679314Y-137765934D01*
X162673915Y-137783079D01*
X162671177Y-137806177D01*
X162670301Y-137839654D01*
X162670279Y-137849533D01*
X162672373Y-137897229D01*
X162672373Y-137897229D01*
G37*
X162672373Y-137897229D02*
X162679501Y-137932738D01*
X162692999Y-137959312D01*
X162714205Y-137980201D01*
X162727724Y-137989292D01*
X162737037Y-137994331D01*
X162747754Y-137998171D01*
X162762042Y-138000973D01*
X162782070Y-138002899D01*
X162810008Y-138004110D01*
X162848022Y-138004766D01*
X162898282Y-138005029D01*
X162940125Y-138005065D01*
X163000256Y-138004956D01*
X163046647Y-138004529D01*
X163081429Y-138003638D01*
X163106735Y-138002136D01*
X163124699Y-137999875D01*
X163137453Y-137996710D01*
X163147130Y-137992492D01*
X163150468Y-137990568D01*
X163167430Y-137981393D01*
X163179626Y-137980884D01*
X163195591Y-137989039D01*
X163198093Y-137990556D01*
X163207145Y-137995203D01*
X163218467Y-137998748D01*
X163234186Y-138001337D01*
X163256429Y-138003117D01*
X163287323Y-138004233D01*
X163328994Y-138004833D01*
X163383568Y-138005062D01*
X163409248Y-138005083D01*
X163468665Y-138005039D01*
X163514374Y-138004759D01*
X163548539Y-138004060D01*
X163573328Y-138002763D01*
X163590906Y-138000687D01*
X163603439Y-137997650D01*
X163613093Y-137993473D01*
X163622035Y-137987974D01*
X163623131Y-137987238D01*
X163653046Y-137960305D01*
X163672135Y-137925893D01*
X163681722Y-137881267D01*
X163683038Y-137863592D01*
X163683077Y-137830755D01*
X163680616Y-137799562D01*
X163677158Y-137780819D01*
X163659622Y-137745990D01*
X163630483Y-137718001D01*
X163593072Y-137698307D01*
X163550720Y-137688365D01*
X163506758Y-137689629D01*
X163482594Y-137695803D01*
X163464729Y-137706657D01*
X163448415Y-137727752D01*
X163437753Y-137747573D01*
X163426493Y-137771105D01*
X163418748Y-137788386D01*
X163416375Y-137794957D01*
X163423704Y-137796671D01*
X163443263Y-137797982D01*
X163471406Y-137798684D01*
X163483843Y-137798750D01*
X163527410Y-137800917D01*
X163557276Y-137807968D01*
X163575091Y-137820727D01*
X163582500Y-137840021D01*
X163582940Y-137848359D01*
X163581102Y-137865792D01*
X163574625Y-137879054D01*
X163561668Y-137888690D01*
X163540387Y-137895250D01*
X163508940Y-137899278D01*
X163465485Y-137901324D01*
X163408178Y-137901934D01*
X163402538Y-137901937D01*
X163349932Y-137901751D01*
X163310754Y-137900749D01*
X163282562Y-137898264D01*
X163262910Y-137893630D01*
X163249354Y-137886181D01*
X163239448Y-137875251D01*
X163230749Y-137860173D01*
X163227796Y-137854312D01*
X163218732Y-137838363D01*
X163208505Y-137829755D01*
X163191939Y-137825822D01*
X163169280Y-137824179D01*
X163124592Y-137821827D01*
X163119354Y-137849747D01*
X163114949Y-137867341D01*
X163107831Y-137880490D01*
X163095873Y-137889832D01*
X163076948Y-137896007D01*
X163048929Y-137899655D01*
X163009690Y-137901416D01*
X162957102Y-137901928D01*
X162945774Y-137901937D01*
X162887231Y-137901423D01*
X162842697Y-137899516D01*
X162810329Y-137895667D01*
X162788282Y-137889329D01*
X162774714Y-137879952D01*
X162767782Y-137866989D01*
X162765640Y-137849892D01*
X162765621Y-137848359D01*
X162769817Y-137826616D01*
X162783848Y-137811691D01*
X162809362Y-137802760D01*
X162848007Y-137798998D01*
X162864718Y-137798750D01*
X162895209Y-137798294D01*
X162918527Y-137797078D01*
X162931030Y-137795328D01*
X162932187Y-137794554D01*
X162928872Y-137785841D01*
X162920204Y-137767158D01*
X162908781Y-137743993D01*
X162893057Y-137716110D01*
X162877429Y-137699305D01*
X162857209Y-137690831D01*
X162827712Y-137687940D01*
X162812822Y-137687733D01*
X162771953Y-137693921D01*
X162732501Y-137710848D01*
X162700067Y-137735703D01*
X162688173Y-137750314D01*
X162679314Y-137765934D01*
X162673915Y-137783079D01*
X162671177Y-137806177D01*
X162670301Y-137839654D01*
X162670279Y-137849533D01*
X162672373Y-137897229D01*
G36*
X162672390Y-139545637D02*
X162679702Y-139581928D01*
X162693525Y-139608789D01*
X162715196Y-139629207D01*
X162734631Y-139640699D01*
X162741963Y-139644187D01*
X162750032Y-139647110D01*
X162760198Y-139649512D01*
X162773818Y-139651432D01*
X162792252Y-139652912D01*
X162816858Y-139653993D01*
X162848994Y-139654717D01*
X162890018Y-139655125D01*
X162941290Y-139655257D01*
X163004167Y-139655156D01*
X163080008Y-139654862D01*
X163170171Y-139654417D01*
X163184285Y-139654343D01*
X163602906Y-139652156D01*
X163628822Y-139633671D01*
X163649459Y-139615029D01*
X163665684Y-139593863D01*
X163667037Y-139591403D01*
X163674758Y-139567780D01*
X163680289Y-139534401D01*
X163683147Y-139497293D01*
X163682848Y-139462482D01*
X163679372Y-139437677D01*
X163661730Y-139397126D01*
X163632236Y-139366964D01*
X163611648Y-139354889D01*
X163603629Y-139351244D01*
X163594991Y-139348187D01*
X163584338Y-139345668D01*
X163570276Y-139343635D01*
X163551409Y-139342036D01*
X163526341Y-139340818D01*
X163493676Y-139339931D01*
X163452020Y-139339321D01*
X163399975Y-139338937D01*
X163336148Y-139338728D01*
X163259142Y-139338641D01*
X163177406Y-139338626D01*
X163177406Y-139449750D01*
X163265202Y-139449791D01*
X163338486Y-139449948D01*
X163398619Y-139450265D01*
X163446964Y-139450787D01*
X163484882Y-139451562D01*
X163513737Y-139452634D01*
X163534891Y-139454049D01*
X163549705Y-139455853D01*
X163559542Y-139458092D01*
X163565764Y-139460811D01*
X163568546Y-139462886D01*
X163580840Y-139483598D01*
X163581213Y-139508441D01*
X163569926Y-139530484D01*
X163566160Y-139533828D01*
X163560542Y-139536617D01*
X163551706Y-139538901D01*
X163538287Y-139540729D01*
X163518922Y-139542152D01*
X163492246Y-139543220D01*
X163456894Y-139543984D01*
X163411502Y-139544493D01*
X163354705Y-139544798D01*
X163285138Y-139544950D01*
X163201438Y-139544998D01*
X163175660Y-139545000D01*
X163084532Y-139544995D01*
X163008005Y-139544882D01*
X162944805Y-139544509D01*
X162893658Y-139543727D01*
X162853289Y-139542385D01*
X162822425Y-139540332D01*
X162799791Y-139537419D01*
X162784114Y-139533495D01*
X162774119Y-139528409D01*
X162768533Y-139522011D01*
X162766081Y-139514151D01*
X162765489Y-139504679D01*
X162765500Y-139496594D01*
X162765667Y-139486209D01*
X162767016Y-139477485D01*
X162770821Y-139470277D01*
X162778353Y-139464440D01*
X162790884Y-139459830D01*
X162809686Y-139456302D01*
X162836033Y-139453711D01*
X162871195Y-139451913D01*
X162916446Y-139450763D01*
X162973057Y-139450115D01*
X163042302Y-139449827D01*
X163125451Y-139449752D01*
X163177406Y-139449750D01*
X163177406Y-139338626D01*
X163174281Y-139338625D01*
X163083653Y-139338647D01*
X163007509Y-139338749D01*
X162944457Y-139338980D01*
X162893107Y-139339391D01*
X162852067Y-139340032D01*
X162819947Y-139340953D01*
X162795354Y-139342205D01*
X162776898Y-139343837D01*
X162763188Y-139345901D01*
X162752833Y-139348445D01*
X162744440Y-139351521D01*
X162738240Y-139354382D01*
X162709092Y-139372048D01*
X162689206Y-139393640D01*
X162677109Y-139422245D01*
X162671328Y-139460950D01*
X162670250Y-139496929D01*
X162672390Y-139545637D01*
X162672390Y-139545637D01*
G37*
X162672390Y-139545637D02*
X162679702Y-139581928D01*
X162693525Y-139608789D01*
X162715196Y-139629207D01*
X162734631Y-139640699D01*
X162741963Y-139644187D01*
X162750032Y-139647110D01*
X162760198Y-139649512D01*
X162773818Y-139651432D01*
X162792252Y-139652912D01*
X162816858Y-139653993D01*
X162848994Y-139654717D01*
X162890018Y-139655125D01*
X162941290Y-139655257D01*
X163004167Y-139655156D01*
X163080008Y-139654862D01*
X163170171Y-139654417D01*
X163184285Y-139654343D01*
X163602906Y-139652156D01*
X163628822Y-139633671D01*
X163649459Y-139615029D01*
X163665684Y-139593863D01*
X163667037Y-139591403D01*
X163674758Y-139567780D01*
X163680289Y-139534401D01*
X163683147Y-139497293D01*
X163682848Y-139462482D01*
X163679372Y-139437677D01*
X163661730Y-139397126D01*
X163632236Y-139366964D01*
X163611648Y-139354889D01*
X163603629Y-139351244D01*
X163594991Y-139348187D01*
X163584338Y-139345668D01*
X163570276Y-139343635D01*
X163551409Y-139342036D01*
X163526341Y-139340818D01*
X163493676Y-139339931D01*
X163452020Y-139339321D01*
X163399975Y-139338937D01*
X163336148Y-139338728D01*
X163259142Y-139338641D01*
X163177406Y-139338626D01*
X163177406Y-139449750D01*
X163265202Y-139449791D01*
X163338486Y-139449948D01*
X163398619Y-139450265D01*
X163446964Y-139450787D01*
X163484882Y-139451562D01*
X163513737Y-139452634D01*
X163534891Y-139454049D01*
X163549705Y-139455853D01*
X163559542Y-139458092D01*
X163565764Y-139460811D01*
X163568546Y-139462886D01*
X163580840Y-139483598D01*
X163581213Y-139508441D01*
X163569926Y-139530484D01*
X163566160Y-139533828D01*
X163560542Y-139536617D01*
X163551706Y-139538901D01*
X163538287Y-139540729D01*
X163518922Y-139542152D01*
X163492246Y-139543220D01*
X163456894Y-139543984D01*
X163411502Y-139544493D01*
X163354705Y-139544798D01*
X163285138Y-139544950D01*
X163201438Y-139544998D01*
X163175660Y-139545000D01*
X163084532Y-139544995D01*
X163008005Y-139544882D01*
X162944805Y-139544509D01*
X162893658Y-139543727D01*
X162853289Y-139542385D01*
X162822425Y-139540332D01*
X162799791Y-139537419D01*
X162784114Y-139533495D01*
X162774119Y-139528409D01*
X162768533Y-139522011D01*
X162766081Y-139514151D01*
X162765489Y-139504679D01*
X162765500Y-139496594D01*
X162765667Y-139486209D01*
X162767016Y-139477485D01*
X162770821Y-139470277D01*
X162778353Y-139464440D01*
X162790884Y-139459830D01*
X162809686Y-139456302D01*
X162836033Y-139453711D01*
X162871195Y-139451913D01*
X162916446Y-139450763D01*
X162973057Y-139450115D01*
X163042302Y-139449827D01*
X163125451Y-139449752D01*
X163177406Y-139449750D01*
X163177406Y-139338626D01*
X163174281Y-139338625D01*
X163083653Y-139338647D01*
X163007509Y-139338749D01*
X162944457Y-139338980D01*
X162893107Y-139339391D01*
X162852067Y-139340032D01*
X162819947Y-139340953D01*
X162795354Y-139342205D01*
X162776898Y-139343837D01*
X162763188Y-139345901D01*
X162752833Y-139348445D01*
X162744440Y-139351521D01*
X162738240Y-139354382D01*
X162709092Y-139372048D01*
X162689206Y-139393640D01*
X162677109Y-139422245D01*
X162671328Y-139460950D01*
X162670250Y-139496929D01*
X162672390Y-139545637D01*
G36*
X162672373Y-142715291D02*
X162679501Y-142750801D01*
X162692999Y-142777374D01*
X162714205Y-142798263D01*
X162727724Y-142807355D01*
X162733921Y-142810821D01*
X162741085Y-142813739D01*
X162750551Y-142816156D01*
X162763656Y-142818119D01*
X162781738Y-142819676D01*
X162806133Y-142820873D01*
X162838178Y-142821758D01*
X162879209Y-142822379D01*
X162930564Y-142822781D01*
X162993580Y-142823014D01*
X163069592Y-142823123D01*
X163159939Y-142823156D01*
X163175091Y-142823157D01*
X163596589Y-142823187D01*
X163623131Y-142805301D01*
X163645264Y-142786106D01*
X163663754Y-142763213D01*
X163665098Y-142761002D01*
X163676399Y-142731084D01*
X163682776Y-142692205D01*
X163683858Y-142650609D01*
X163679277Y-142612544D01*
X163674813Y-142596968D01*
X163652634Y-142558650D01*
X163619024Y-142529676D01*
X163576353Y-142511545D01*
X163530668Y-142505731D01*
X163494879Y-142509465D01*
X163468525Y-142522550D01*
X163447578Y-142547584D01*
X163437753Y-142565635D01*
X163426493Y-142589168D01*
X163418748Y-142606449D01*
X163416375Y-142613019D01*
X163423704Y-142614733D01*
X163443263Y-142616044D01*
X163471406Y-142616747D01*
X163483843Y-142616812D01*
X163527410Y-142618979D01*
X163557276Y-142626030D01*
X163575091Y-142638790D01*
X163582500Y-142658083D01*
X163582940Y-142666421D01*
X163581058Y-142683970D01*
X163574448Y-142697293D01*
X163561259Y-142706945D01*
X163539641Y-142713485D01*
X163507744Y-142717469D01*
X163463717Y-142719455D01*
X163405710Y-142719999D01*
X163404990Y-142720000D01*
X163273500Y-142720000D01*
X163273500Y-142664954D01*
X163271420Y-142620892D01*
X163264268Y-142587818D01*
X163250670Y-142561284D01*
X163236095Y-142543708D01*
X163222709Y-142532202D01*
X163205773Y-142523144D01*
X163183474Y-142516307D01*
X163153996Y-142511460D01*
X163115526Y-142508376D01*
X163066248Y-142506825D01*
X163004349Y-142506578D01*
X162970108Y-142506910D01*
X162970108Y-142616812D01*
X163032882Y-142616950D01*
X163081570Y-142617731D01*
X163117961Y-142619704D01*
X163143844Y-142623420D01*
X163161008Y-142629427D01*
X163171240Y-142638275D01*
X163176332Y-142650513D01*
X163178070Y-142666693D01*
X163178250Y-142680762D01*
X163178250Y-142720000D01*
X162995165Y-142720000D01*
X162931530Y-142719780D01*
X162881843Y-142718967D01*
X162844179Y-142717328D01*
X162816616Y-142714631D01*
X162797228Y-142710645D01*
X162784094Y-142705135D01*
X162775289Y-142697872D01*
X162771574Y-142693014D01*
X162765717Y-142671494D01*
X162771175Y-142647435D01*
X162781375Y-142632687D01*
X162787480Y-142627467D01*
X162795383Y-142623533D01*
X162807234Y-142620705D01*
X162825181Y-142618802D01*
X162851377Y-142617643D01*
X162887969Y-142617046D01*
X162937109Y-142616832D01*
X162970108Y-142616812D01*
X162970108Y-142506910D01*
X162946239Y-142507142D01*
X162886717Y-142508049D01*
X162840865Y-142509072D01*
X162806480Y-142510407D01*
X162781357Y-142512250D01*
X162763292Y-142514795D01*
X162750080Y-142518238D01*
X162739518Y-142522774D01*
X162733776Y-142525960D01*
X162705666Y-142546103D01*
X162686817Y-142569723D01*
X162675716Y-142600196D01*
X162670849Y-142640897D01*
X162670279Y-142667595D01*
X162672373Y-142715291D01*
X162672373Y-142715291D01*
G37*
X162672373Y-142715291D02*
X162679501Y-142750801D01*
X162692999Y-142777374D01*
X162714205Y-142798263D01*
X162727724Y-142807355D01*
X162733921Y-142810821D01*
X162741085Y-142813739D01*
X162750551Y-142816156D01*
X162763656Y-142818119D01*
X162781738Y-142819676D01*
X162806133Y-142820873D01*
X162838178Y-142821758D01*
X162879209Y-142822379D01*
X162930564Y-142822781D01*
X162993580Y-142823014D01*
X163069592Y-142823123D01*
X163159939Y-142823156D01*
X163175091Y-142823157D01*
X163596589Y-142823187D01*
X163623131Y-142805301D01*
X163645264Y-142786106D01*
X163663754Y-142763213D01*
X163665098Y-142761002D01*
X163676399Y-142731084D01*
X163682776Y-142692205D01*
X163683858Y-142650609D01*
X163679277Y-142612544D01*
X163674813Y-142596968D01*
X163652634Y-142558650D01*
X163619024Y-142529676D01*
X163576353Y-142511545D01*
X163530668Y-142505731D01*
X163494879Y-142509465D01*
X163468525Y-142522550D01*
X163447578Y-142547584D01*
X163437753Y-142565635D01*
X163426493Y-142589168D01*
X163418748Y-142606449D01*
X163416375Y-142613019D01*
X163423704Y-142614733D01*
X163443263Y-142616044D01*
X163471406Y-142616747D01*
X163483843Y-142616812D01*
X163527410Y-142618979D01*
X163557276Y-142626030D01*
X163575091Y-142638790D01*
X163582500Y-142658083D01*
X163582940Y-142666421D01*
X163581058Y-142683970D01*
X163574448Y-142697293D01*
X163561259Y-142706945D01*
X163539641Y-142713485D01*
X163507744Y-142717469D01*
X163463717Y-142719455D01*
X163405710Y-142719999D01*
X163404990Y-142720000D01*
X163273500Y-142720000D01*
X163273500Y-142664954D01*
X163271420Y-142620892D01*
X163264268Y-142587818D01*
X163250670Y-142561284D01*
X163236095Y-142543708D01*
X163222709Y-142532202D01*
X163205773Y-142523144D01*
X163183474Y-142516307D01*
X163153996Y-142511460D01*
X163115526Y-142508376D01*
X163066248Y-142506825D01*
X163004349Y-142506578D01*
X162970108Y-142506910D01*
X162970108Y-142616812D01*
X163032882Y-142616950D01*
X163081570Y-142617731D01*
X163117961Y-142619704D01*
X163143844Y-142623420D01*
X163161008Y-142629427D01*
X163171240Y-142638275D01*
X163176332Y-142650513D01*
X163178070Y-142666693D01*
X163178250Y-142680762D01*
X163178250Y-142720000D01*
X162995165Y-142720000D01*
X162931530Y-142719780D01*
X162881843Y-142718967D01*
X162844179Y-142717328D01*
X162816616Y-142714631D01*
X162797228Y-142710645D01*
X162784094Y-142705135D01*
X162775289Y-142697872D01*
X162771574Y-142693014D01*
X162765717Y-142671494D01*
X162771175Y-142647435D01*
X162781375Y-142632687D01*
X162787480Y-142627467D01*
X162795383Y-142623533D01*
X162807234Y-142620705D01*
X162825181Y-142618802D01*
X162851377Y-142617643D01*
X162887969Y-142617046D01*
X162937109Y-142616832D01*
X162970108Y-142616812D01*
X162970108Y-142506910D01*
X162946239Y-142507142D01*
X162886717Y-142508049D01*
X162840865Y-142509072D01*
X162806480Y-142510407D01*
X162781357Y-142512250D01*
X162763292Y-142514795D01*
X162750080Y-142518238D01*
X162739518Y-142522774D01*
X162733776Y-142525960D01*
X162705666Y-142546103D01*
X162686817Y-142569723D01*
X162675716Y-142600196D01*
X162670849Y-142640897D01*
X162670279Y-142667595D01*
X162672373Y-142715291D01*
G36*
X162678309Y-136284041D02*
X162678956Y-136317404D01*
X162680590Y-136345020D01*
X162682920Y-136362843D01*
X162684262Y-136366827D01*
X162688527Y-136372333D01*
X162694205Y-136377036D01*
X162702497Y-136380999D01*
X162714606Y-136384284D01*
X162731732Y-136386956D01*
X162755076Y-136389077D01*
X162785841Y-136390711D01*
X162825228Y-136391920D01*
X162874438Y-136392768D01*
X162934672Y-136393319D01*
X163007132Y-136393634D01*
X163093020Y-136393777D01*
X163193537Y-136393812D01*
X163670375Y-136393812D01*
X163670375Y-136347775D01*
X163668818Y-136321076D01*
X163664801Y-136300337D01*
X163660850Y-136292212D01*
X163654578Y-136290002D01*
X163639909Y-136288128D01*
X163615912Y-136286568D01*
X163581655Y-136285302D01*
X163536207Y-136284311D01*
X163478638Y-136283574D01*
X163408015Y-136283071D01*
X163323408Y-136282782D01*
X163223885Y-136282687D01*
X162790178Y-136282687D01*
X162779751Y-136260931D01*
X162762701Y-136239267D01*
X162734203Y-136223778D01*
X162703984Y-136215402D01*
X162678187Y-136209988D01*
X162678309Y-136284041D01*
X162678309Y-136284041D01*
G37*
X162678309Y-136284041D02*
X162678956Y-136317404D01*
X162680590Y-136345020D01*
X162682920Y-136362843D01*
X162684262Y-136366827D01*
X162688527Y-136372333D01*
X162694205Y-136377036D01*
X162702497Y-136380999D01*
X162714606Y-136384284D01*
X162731732Y-136386956D01*
X162755076Y-136389077D01*
X162785841Y-136390711D01*
X162825228Y-136391920D01*
X162874438Y-136392768D01*
X162934672Y-136393319D01*
X163007132Y-136393634D01*
X163093020Y-136393777D01*
X163193537Y-136393812D01*
X163670375Y-136393812D01*
X163670375Y-136347775D01*
X163668818Y-136321076D01*
X163664801Y-136300337D01*
X163660850Y-136292212D01*
X163654578Y-136290002D01*
X163639909Y-136288128D01*
X163615912Y-136286568D01*
X163581655Y-136285302D01*
X163536207Y-136284311D01*
X163478638Y-136283574D01*
X163408015Y-136283071D01*
X163323408Y-136282782D01*
X163223885Y-136282687D01*
X162790178Y-136282687D01*
X162779751Y-136260931D01*
X162762701Y-136239267D01*
X162734203Y-136223778D01*
X162703984Y-136215402D01*
X162678187Y-136209988D01*
X162678309Y-136284041D01*
G36*
X162678309Y-138622786D02*
X162678934Y-138656770D01*
X162680514Y-138685036D01*
X162682774Y-138703631D01*
X162684262Y-138708389D01*
X162688527Y-138713896D01*
X162694205Y-138718598D01*
X162702497Y-138722561D01*
X162714606Y-138725847D01*
X162731732Y-138728519D01*
X162755076Y-138730640D01*
X162785841Y-138732274D01*
X162825228Y-138733483D01*
X162874438Y-138734331D01*
X162934672Y-138734881D01*
X163007132Y-138735196D01*
X163093020Y-138735340D01*
X163193537Y-138735374D01*
X163197571Y-138735375D01*
X163670375Y-138735375D01*
X163670375Y-138689337D01*
X163668818Y-138662638D01*
X163664801Y-138641900D01*
X163660850Y-138633775D01*
X163654582Y-138631567D01*
X163639920Y-138629694D01*
X163615933Y-138628135D01*
X163581692Y-138626869D01*
X163536266Y-138625878D01*
X163478724Y-138625141D01*
X163408136Y-138624637D01*
X163323570Y-138624346D01*
X163224098Y-138624250D01*
X162788486Y-138624250D01*
X162780369Y-138600966D01*
X162772709Y-138586466D01*
X162759011Y-138575540D01*
X162735147Y-138565254D01*
X162725220Y-138561799D01*
X162678187Y-138545915D01*
X162678309Y-138622786D01*
X162678309Y-138622786D01*
G37*
X162678309Y-138622786D02*
X162678934Y-138656770D01*
X162680514Y-138685036D01*
X162682774Y-138703631D01*
X162684262Y-138708389D01*
X162688527Y-138713896D01*
X162694205Y-138718598D01*
X162702497Y-138722561D01*
X162714606Y-138725847D01*
X162731732Y-138728519D01*
X162755076Y-138730640D01*
X162785841Y-138732274D01*
X162825228Y-138733483D01*
X162874438Y-138734331D01*
X162934672Y-138734881D01*
X163007132Y-138735196D01*
X163093020Y-138735340D01*
X163193537Y-138735374D01*
X163197571Y-138735375D01*
X163670375Y-138735375D01*
X163670375Y-138689337D01*
X163668818Y-138662638D01*
X163664801Y-138641900D01*
X163660850Y-138633775D01*
X163654582Y-138631567D01*
X163639920Y-138629694D01*
X163615933Y-138628135D01*
X163581692Y-138626869D01*
X163536266Y-138625878D01*
X163478724Y-138625141D01*
X163408136Y-138624637D01*
X163323570Y-138624346D01*
X163224098Y-138624250D01*
X162788486Y-138624250D01*
X162780369Y-138600966D01*
X162772709Y-138586466D01*
X162759011Y-138575540D01*
X162735147Y-138565254D01*
X162725220Y-138561799D01*
X162678187Y-138545915D01*
X162678309Y-138622786D01*
G36*
X162678306Y-141090657D02*
X162678639Y-141138000D01*
X162679154Y-141177474D01*
X162679815Y-141206905D01*
X162680589Y-141224124D01*
X162681168Y-141227750D01*
X162689439Y-141224802D01*
X162707820Y-141217165D01*
X162726809Y-141208915D01*
X162822714Y-141171772D01*
X162932286Y-141138711D01*
X163053758Y-141110085D01*
X163185365Y-141086248D01*
X163325343Y-141067555D01*
X163471925Y-141054359D01*
X163509640Y-141051946D01*
X163670375Y-141042496D01*
X163670375Y-140996496D01*
X163669179Y-140968137D01*
X163664923Y-140951659D01*
X163656601Y-140943199D01*
X163656484Y-140943137D01*
X163643239Y-140940810D01*
X163616771Y-140939861D01*
X163579659Y-140940163D01*
X163534485Y-140941589D01*
X163483829Y-140944012D01*
X163430270Y-140947305D01*
X163376389Y-140951341D01*
X163324766Y-140955992D01*
X163277981Y-140961133D01*
X163269685Y-140962176D01*
X163115782Y-140986780D01*
X162961691Y-141021296D01*
X162804153Y-141066292D01*
X162798169Y-141066289D01*
X162794065Y-141060094D01*
X162791292Y-141045121D01*
X162789299Y-141018783D01*
X162787998Y-140990305D01*
X162785896Y-140950138D01*
X162782081Y-140922266D01*
X162774559Y-140903110D01*
X162761338Y-140889090D01*
X162740426Y-140876630D01*
X162719011Y-140866394D01*
X162678187Y-140847480D01*
X162678187Y-141037615D01*
X162678306Y-141090657D01*
X162678306Y-141090657D01*
G37*
X162678306Y-141090657D02*
X162678639Y-141138000D01*
X162679154Y-141177474D01*
X162679815Y-141206905D01*
X162680589Y-141224124D01*
X162681168Y-141227750D01*
X162689439Y-141224802D01*
X162707820Y-141217165D01*
X162726809Y-141208915D01*
X162822714Y-141171772D01*
X162932286Y-141138711D01*
X163053758Y-141110085D01*
X163185365Y-141086248D01*
X163325343Y-141067555D01*
X163471925Y-141054359D01*
X163509640Y-141051946D01*
X163670375Y-141042496D01*
X163670375Y-140996496D01*
X163669179Y-140968137D01*
X163664923Y-140951659D01*
X163656601Y-140943199D01*
X163656484Y-140943137D01*
X163643239Y-140940810D01*
X163616771Y-140939861D01*
X163579659Y-140940163D01*
X163534485Y-140941589D01*
X163483829Y-140944012D01*
X163430270Y-140947305D01*
X163376389Y-140951341D01*
X163324766Y-140955992D01*
X163277981Y-140961133D01*
X163269685Y-140962176D01*
X163115782Y-140986780D01*
X162961691Y-141021296D01*
X162804153Y-141066292D01*
X162798169Y-141066289D01*
X162794065Y-141060094D01*
X162791292Y-141045121D01*
X162789299Y-141018783D01*
X162787998Y-140990305D01*
X162785896Y-140950138D01*
X162782081Y-140922266D01*
X162774559Y-140903110D01*
X162761338Y-140889090D01*
X162740426Y-140876630D01*
X162719011Y-140866394D01*
X162678187Y-140847480D01*
X162678187Y-141037615D01*
X162678306Y-141090657D01*
G36*
X162678469Y-141835275D02*
X162679754Y-141859272D01*
X162682696Y-141874184D01*
X162687952Y-141883404D01*
X162695828Y-141890081D01*
X162701003Y-141892671D01*
X162709352Y-141894879D01*
X162722066Y-141896734D01*
X162740335Y-141898265D01*
X162765352Y-141899502D01*
X162798308Y-141900476D01*
X162840394Y-141901215D01*
X162892802Y-141901749D01*
X162956723Y-141902109D01*
X163033348Y-141902323D01*
X163123869Y-141902421D01*
X163191922Y-141902437D01*
X163670375Y-141902437D01*
X163670375Y-141855091D01*
X163669402Y-141827025D01*
X163665709Y-141810538D01*
X163658128Y-141801410D01*
X163655021Y-141799529D01*
X163643028Y-141797476D01*
X163615424Y-141795708D01*
X163572469Y-141794232D01*
X163514424Y-141793051D01*
X163441552Y-141792170D01*
X163354112Y-141791595D01*
X163252366Y-141791331D01*
X163214294Y-141791312D01*
X162788919Y-141791312D01*
X162782005Y-141773126D01*
X162772244Y-141755403D01*
X162764342Y-141746735D01*
X162751158Y-141740163D01*
X162729393Y-141732057D01*
X162705877Y-141724678D01*
X162687444Y-141720288D01*
X162683219Y-141719875D01*
X162681101Y-141727250D01*
X162679423Y-141747129D01*
X162678400Y-141776142D01*
X162678187Y-141798799D01*
X162678469Y-141835275D01*
X162678469Y-141835275D01*
G37*
X162678469Y-141835275D02*
X162679754Y-141859272D01*
X162682696Y-141874184D01*
X162687952Y-141883404D01*
X162695828Y-141890081D01*
X162701003Y-141892671D01*
X162709352Y-141894879D01*
X162722066Y-141896734D01*
X162740335Y-141898265D01*
X162765352Y-141899502D01*
X162798308Y-141900476D01*
X162840394Y-141901215D01*
X162892802Y-141901749D01*
X162956723Y-141902109D01*
X163033348Y-141902323D01*
X163123869Y-141902421D01*
X163191922Y-141902437D01*
X163670375Y-141902437D01*
X163670375Y-141855091D01*
X163669402Y-141827025D01*
X163665709Y-141810538D01*
X163658128Y-141801410D01*
X163655021Y-141799529D01*
X163643028Y-141797476D01*
X163615424Y-141795708D01*
X163572469Y-141794232D01*
X163514424Y-141793051D01*
X163441552Y-141792170D01*
X163354112Y-141791595D01*
X163252366Y-141791331D01*
X163214294Y-141791312D01*
X162788919Y-141791312D01*
X162782005Y-141773126D01*
X162772244Y-141755403D01*
X162764342Y-141746735D01*
X162751158Y-141740163D01*
X162729393Y-141732057D01*
X162705877Y-141724678D01*
X162687444Y-141720288D01*
X162683219Y-141719875D01*
X162681101Y-141727250D01*
X162679423Y-141747129D01*
X162678400Y-141776142D01*
X162678187Y-141798799D01*
X162678469Y-141835275D01*
M02*
