G04 #@! TF.FileFunction,Legend,Bot*
%FSLAX46Y46*%
G04 Gerber Fmt 4.6, Leading zero omitted, Abs format (unit mm)*
G04 Created by KiCad (PCBNEW 4.0.5) date Saturday, July 08, 2017 'AMt' 10:08:50 AM*
%MOMM*%
%LPD*%
G01*
G04 APERTURE LIST*
%ADD10C,0.100000*%
%ADD11C,0.010000*%
G04 APERTURE END LIST*
D10*
D11*
G36*
X183504734Y-147218247D02*
X183547938Y-147217092D01*
X183579333Y-147214058D01*
X183597085Y-147209337D01*
X183598687Y-147208325D01*
X183614921Y-147190963D01*
X183625418Y-147170493D01*
X183629330Y-147150992D01*
X183625810Y-147136536D01*
X183614724Y-147131187D01*
X183599934Y-147136712D01*
X183595129Y-147143093D01*
X183584532Y-147152249D01*
X183571019Y-147155000D01*
X183554794Y-147150478D01*
X183548942Y-147137140D01*
X183546419Y-147128080D01*
X183539747Y-147122518D01*
X183525519Y-147119382D01*
X183500326Y-147117597D01*
X183484890Y-147116962D01*
X183423375Y-147114644D01*
X183423375Y-147218500D01*
X183504734Y-147218247D01*
X183504734Y-147218247D01*
G37*
X183504734Y-147218247D02*
X183547938Y-147217092D01*
X183579333Y-147214058D01*
X183597085Y-147209337D01*
X183598687Y-147208325D01*
X183614921Y-147190963D01*
X183625418Y-147170493D01*
X183629330Y-147150992D01*
X183625810Y-147136536D01*
X183614724Y-147131187D01*
X183599934Y-147136712D01*
X183595129Y-147143093D01*
X183584532Y-147152249D01*
X183571019Y-147155000D01*
X183554794Y-147150478D01*
X183548942Y-147137140D01*
X183546419Y-147128080D01*
X183539747Y-147122518D01*
X183525519Y-147119382D01*
X183500326Y-147117597D01*
X183484890Y-147116962D01*
X183423375Y-147114644D01*
X183423375Y-147218500D01*
X183504734Y-147218247D01*
G36*
X183494844Y-150409375D02*
X183544463Y-150407276D01*
X183580725Y-150400565D01*
X183605634Y-150388622D01*
X183621198Y-150370824D01*
X183621577Y-150370127D01*
X183629305Y-150347877D01*
X183627811Y-150330601D01*
X183617653Y-150322296D01*
X183614846Y-150322062D01*
X183597309Y-150327827D01*
X183590062Y-150333968D01*
X183575452Y-150344221D01*
X183560622Y-150344915D01*
X183551290Y-150336483D01*
X183550375Y-150330971D01*
X183545803Y-150313928D01*
X183530893Y-150303720D01*
X183503854Y-150299579D01*
X183477646Y-150299837D01*
X183427343Y-150302218D01*
X183424996Y-150355796D01*
X183422649Y-150409375D01*
X183494844Y-150409375D01*
X183494844Y-150409375D01*
G37*
X183494844Y-150409375D02*
X183544463Y-150407276D01*
X183580725Y-150400565D01*
X183605634Y-150388622D01*
X183621198Y-150370824D01*
X183621577Y-150370127D01*
X183629305Y-150347877D01*
X183627811Y-150330601D01*
X183617653Y-150322296D01*
X183614846Y-150322062D01*
X183597309Y-150327827D01*
X183590062Y-150333968D01*
X183575452Y-150344221D01*
X183560622Y-150344915D01*
X183551290Y-150336483D01*
X183550375Y-150330971D01*
X183545803Y-150313928D01*
X183530893Y-150303720D01*
X183503854Y-150299579D01*
X183477646Y-150299837D01*
X183427343Y-150302218D01*
X183424996Y-150355796D01*
X183422649Y-150409375D01*
X183494844Y-150409375D01*
G36*
X182565330Y-137580670D02*
X182565956Y-137593448D01*
X182566125Y-137601696D01*
X182566125Y-137637937D01*
X183439971Y-137637937D01*
X183459454Y-137657420D01*
X183475819Y-137682904D01*
X183476600Y-137709934D01*
X183463767Y-137734292D01*
X183448597Y-137753031D01*
X182566125Y-137757389D01*
X182566125Y-137860187D01*
X183484527Y-137860187D01*
X183511068Y-137842301D01*
X183537519Y-137819900D01*
X183555279Y-137792602D01*
X183565865Y-137756975D01*
X183570796Y-137709590D01*
X183570910Y-137707107D01*
X183571337Y-137672983D01*
X183569863Y-137641933D01*
X183566799Y-137619778D01*
X183566061Y-137617047D01*
X183555608Y-137597203D01*
X183537638Y-137574518D01*
X183526555Y-137563469D01*
X183494766Y-137534750D01*
X183038662Y-137534750D01*
X182939933Y-137534689D01*
X182855903Y-137534616D01*
X182785394Y-137534697D01*
X182727232Y-137535099D01*
X182680240Y-137535989D01*
X182643242Y-137537534D01*
X182615064Y-137539900D01*
X182594527Y-137543254D01*
X182580458Y-137547762D01*
X182571679Y-137553591D01*
X182567016Y-137560908D01*
X182565291Y-137569879D01*
X182565330Y-137580670D01*
X182565330Y-137580670D01*
G37*
X182565330Y-137580670D02*
X182565956Y-137593448D01*
X182566125Y-137601696D01*
X182566125Y-137637937D01*
X183439971Y-137637937D01*
X183459454Y-137657420D01*
X183475819Y-137682904D01*
X183476600Y-137709934D01*
X183463767Y-137734292D01*
X183448597Y-137753031D01*
X182566125Y-137757389D01*
X182566125Y-137860187D01*
X183484527Y-137860187D01*
X183511068Y-137842301D01*
X183537519Y-137819900D01*
X183555279Y-137792602D01*
X183565865Y-137756975D01*
X183570796Y-137709590D01*
X183570910Y-137707107D01*
X183571337Y-137672983D01*
X183569863Y-137641933D01*
X183566799Y-137619778D01*
X183566061Y-137617047D01*
X183555608Y-137597203D01*
X183537638Y-137574518D01*
X183526555Y-137563469D01*
X183494766Y-137534750D01*
X183038662Y-137534750D01*
X182939933Y-137534689D01*
X182855903Y-137534616D01*
X182785394Y-137534697D01*
X182727232Y-137535099D01*
X182680240Y-137535989D01*
X182643242Y-137537534D01*
X182615064Y-137539900D01*
X182594527Y-137543254D01*
X182580458Y-137547762D01*
X182571679Y-137553591D01*
X182567016Y-137560908D01*
X182565291Y-137569879D01*
X182565330Y-137580670D01*
G36*
X182560756Y-138517551D02*
X182566038Y-138537342D01*
X182575643Y-138557818D01*
X182575883Y-138558268D01*
X182603384Y-138593751D01*
X182641029Y-138617703D01*
X182687157Y-138629207D01*
X182705906Y-138630125D01*
X182743271Y-138627780D01*
X182769403Y-138619016D01*
X182788478Y-138601239D01*
X182804669Y-138571856D01*
X182806544Y-138567595D01*
X182825857Y-138522968D01*
X182754793Y-138519000D01*
X182719909Y-138516602D01*
X182697108Y-138513452D01*
X182682598Y-138508543D01*
X182672590Y-138500869D01*
X182668399Y-138496065D01*
X182657792Y-138472327D01*
X182662745Y-138447708D01*
X182674475Y-138431687D01*
X182684378Y-138425798D01*
X182702275Y-138422176D01*
X182730948Y-138420464D01*
X182764131Y-138420235D01*
X182786300Y-138420411D01*
X182805383Y-138421117D01*
X182823131Y-138423046D01*
X182841293Y-138426888D01*
X182861621Y-138433336D01*
X182885865Y-138443081D01*
X182915773Y-138456816D01*
X182953098Y-138475230D01*
X182999588Y-138499017D01*
X183056994Y-138528868D01*
X183112873Y-138558059D01*
X183154060Y-138578664D01*
X183194194Y-138597120D01*
X183229425Y-138611764D01*
X183255905Y-138620937D01*
X183262144Y-138622496D01*
X183287896Y-138625906D01*
X183324237Y-138628208D01*
X183365903Y-138629162D01*
X183399454Y-138628795D01*
X183441404Y-138627251D01*
X183470805Y-138625019D01*
X183490981Y-138621555D01*
X183505257Y-138616316D01*
X183515599Y-138609790D01*
X183540052Y-138589162D01*
X183556232Y-138568140D01*
X183565920Y-138542570D01*
X183570895Y-138508291D01*
X183572529Y-138476765D01*
X183573239Y-138440994D01*
X183572125Y-138416423D01*
X183568409Y-138398410D01*
X183561311Y-138382313D01*
X183554795Y-138371135D01*
X183535524Y-138345356D01*
X183512507Y-138327391D01*
X183482745Y-138316068D01*
X183443239Y-138310216D01*
X183394829Y-138308656D01*
X183351377Y-138309569D01*
X183321928Y-138312448D01*
X183304708Y-138317500D01*
X183301471Y-138319626D01*
X183291335Y-138332499D01*
X183278875Y-138353937D01*
X183267040Y-138378068D01*
X183258774Y-138399018D01*
X183256687Y-138408884D01*
X183264083Y-138411707D01*
X183284112Y-138413999D01*
X183313532Y-138415491D01*
X183342015Y-138415929D01*
X183390041Y-138417045D01*
X183424748Y-138420754D01*
X183448586Y-138427828D01*
X183464007Y-138439036D01*
X183473463Y-138455149D01*
X183474344Y-138457537D01*
X183477628Y-138475022D01*
X183471059Y-138489892D01*
X183463170Y-138499041D01*
X183453042Y-138508536D01*
X183441817Y-138514430D01*
X183425603Y-138517571D01*
X183400504Y-138518809D01*
X183371659Y-138519000D01*
X183333887Y-138517729D01*
X183297283Y-138514348D01*
X183268202Y-138509504D01*
X183261652Y-138507790D01*
X183243366Y-138500667D01*
X183213894Y-138487277D01*
X183175986Y-138468955D01*
X183132390Y-138447036D01*
X183085857Y-138422857D01*
X183075566Y-138417403D01*
X183015988Y-138386004D01*
X182967821Y-138361493D01*
X182928660Y-138342934D01*
X182896101Y-138329392D01*
X182867741Y-138319934D01*
X182841175Y-138313623D01*
X182814000Y-138309525D01*
X182792771Y-138307426D01*
X182726997Y-138305313D01*
X182673384Y-138311536D01*
X182630296Y-138326580D01*
X182596097Y-138350929D01*
X182578761Y-138370748D01*
X182569553Y-138387054D01*
X182563790Y-138408515D01*
X182560519Y-138439474D01*
X182559589Y-138458060D01*
X182558904Y-138492955D01*
X182560756Y-138517551D01*
X182560756Y-138517551D01*
G37*
X182560756Y-138517551D02*
X182566038Y-138537342D01*
X182575643Y-138557818D01*
X182575883Y-138558268D01*
X182603384Y-138593751D01*
X182641029Y-138617703D01*
X182687157Y-138629207D01*
X182705906Y-138630125D01*
X182743271Y-138627780D01*
X182769403Y-138619016D01*
X182788478Y-138601239D01*
X182804669Y-138571856D01*
X182806544Y-138567595D01*
X182825857Y-138522968D01*
X182754793Y-138519000D01*
X182719909Y-138516602D01*
X182697108Y-138513452D01*
X182682598Y-138508543D01*
X182672590Y-138500869D01*
X182668399Y-138496065D01*
X182657792Y-138472327D01*
X182662745Y-138447708D01*
X182674475Y-138431687D01*
X182684378Y-138425798D01*
X182702275Y-138422176D01*
X182730948Y-138420464D01*
X182764131Y-138420235D01*
X182786300Y-138420411D01*
X182805383Y-138421117D01*
X182823131Y-138423046D01*
X182841293Y-138426888D01*
X182861621Y-138433336D01*
X182885865Y-138443081D01*
X182915773Y-138456816D01*
X182953098Y-138475230D01*
X182999588Y-138499017D01*
X183056994Y-138528868D01*
X183112873Y-138558059D01*
X183154060Y-138578664D01*
X183194194Y-138597120D01*
X183229425Y-138611764D01*
X183255905Y-138620937D01*
X183262144Y-138622496D01*
X183287896Y-138625906D01*
X183324237Y-138628208D01*
X183365903Y-138629162D01*
X183399454Y-138628795D01*
X183441404Y-138627251D01*
X183470805Y-138625019D01*
X183490981Y-138621555D01*
X183505257Y-138616316D01*
X183515599Y-138609790D01*
X183540052Y-138589162D01*
X183556232Y-138568140D01*
X183565920Y-138542570D01*
X183570895Y-138508291D01*
X183572529Y-138476765D01*
X183573239Y-138440994D01*
X183572125Y-138416423D01*
X183568409Y-138398410D01*
X183561311Y-138382313D01*
X183554795Y-138371135D01*
X183535524Y-138345356D01*
X183512507Y-138327391D01*
X183482745Y-138316068D01*
X183443239Y-138310216D01*
X183394829Y-138308656D01*
X183351377Y-138309569D01*
X183321928Y-138312448D01*
X183304708Y-138317500D01*
X183301471Y-138319626D01*
X183291335Y-138332499D01*
X183278875Y-138353937D01*
X183267040Y-138378068D01*
X183258774Y-138399018D01*
X183256687Y-138408884D01*
X183264083Y-138411707D01*
X183284112Y-138413999D01*
X183313532Y-138415491D01*
X183342015Y-138415929D01*
X183390041Y-138417045D01*
X183424748Y-138420754D01*
X183448586Y-138427828D01*
X183464007Y-138439036D01*
X183473463Y-138455149D01*
X183474344Y-138457537D01*
X183477628Y-138475022D01*
X183471059Y-138489892D01*
X183463170Y-138499041D01*
X183453042Y-138508536D01*
X183441817Y-138514430D01*
X183425603Y-138517571D01*
X183400504Y-138518809D01*
X183371659Y-138519000D01*
X183333887Y-138517729D01*
X183297283Y-138514348D01*
X183268202Y-138509504D01*
X183261652Y-138507790D01*
X183243366Y-138500667D01*
X183213894Y-138487277D01*
X183175986Y-138468955D01*
X183132390Y-138447036D01*
X183085857Y-138422857D01*
X183075566Y-138417403D01*
X183015988Y-138386004D01*
X182967821Y-138361493D01*
X182928660Y-138342934D01*
X182896101Y-138329392D01*
X182867741Y-138319934D01*
X182841175Y-138313623D01*
X182814000Y-138309525D01*
X182792771Y-138307426D01*
X182726997Y-138305313D01*
X182673384Y-138311536D01*
X182630296Y-138326580D01*
X182596097Y-138350929D01*
X182578761Y-138370748D01*
X182569553Y-138387054D01*
X182563790Y-138408515D01*
X182560519Y-138439474D01*
X182559589Y-138458060D01*
X182558904Y-138492955D01*
X182560756Y-138517551D01*
G36*
X182562380Y-145200126D02*
X182563564Y-145226298D01*
X182566472Y-145244308D01*
X182571869Y-145258013D01*
X182580519Y-145271269D01*
X182585030Y-145277268D01*
X182593594Y-145288451D01*
X182601724Y-145297925D01*
X182610739Y-145305824D01*
X182621954Y-145312283D01*
X182636688Y-145317436D01*
X182656256Y-145321418D01*
X182681977Y-145324363D01*
X182715167Y-145326406D01*
X182757143Y-145327682D01*
X182809222Y-145328325D01*
X182872722Y-145328469D01*
X182948959Y-145328249D01*
X183039250Y-145327799D01*
X183077753Y-145327595D01*
X183169651Y-145327095D01*
X183247009Y-145326607D01*
X183311161Y-145326073D01*
X183363441Y-145325438D01*
X183405183Y-145324644D01*
X183437722Y-145323636D01*
X183462391Y-145322356D01*
X183480526Y-145320748D01*
X183493460Y-145318756D01*
X183502527Y-145316323D01*
X183509063Y-145313392D01*
X183514401Y-145309907D01*
X183515574Y-145309040D01*
X183538883Y-145289668D01*
X183554684Y-145270188D01*
X183564541Y-145246754D01*
X183570014Y-145215520D01*
X183572666Y-145172643D01*
X183572819Y-145168084D01*
X183573707Y-145130545D01*
X183573094Y-145104884D01*
X183570396Y-145087128D01*
X183565030Y-145073307D01*
X183556944Y-145060229D01*
X183538784Y-145037830D01*
X183518587Y-145018525D01*
X183516058Y-145016573D01*
X183510845Y-145012952D01*
X183504914Y-145009900D01*
X183496948Y-145007369D01*
X183485632Y-145005308D01*
X183469651Y-145003670D01*
X183447689Y-145002407D01*
X183418430Y-145001470D01*
X183380559Y-145000810D01*
X183332761Y-145000378D01*
X183273720Y-145000127D01*
X183202120Y-145000007D01*
X183116646Y-144999971D01*
X183066187Y-144999968D01*
X182972945Y-144999982D01*
X182894264Y-145000056D01*
X182828829Y-145000238D01*
X182775326Y-145000575D01*
X182732442Y-145001115D01*
X182698861Y-145001907D01*
X182686339Y-145002440D01*
X182686339Y-145107125D01*
X183066763Y-145107125D01*
X183154331Y-145107143D01*
X183227404Y-145107237D01*
X183287362Y-145107461D01*
X183335585Y-145107870D01*
X183373452Y-145108520D01*
X183402344Y-145109466D01*
X183423641Y-145110763D01*
X183438723Y-145112467D01*
X183448969Y-145114632D01*
X183455760Y-145117314D01*
X183460475Y-145120569D01*
X183463062Y-145123000D01*
X183475011Y-145143023D01*
X183478937Y-145162687D01*
X183473555Y-145185994D01*
X183463062Y-145202375D01*
X183458954Y-145206028D01*
X183453661Y-145209073D01*
X183445802Y-145211566D01*
X183434000Y-145213561D01*
X183416872Y-145215114D01*
X183393040Y-145216281D01*
X183361123Y-145217115D01*
X183319741Y-145217673D01*
X183267515Y-145218011D01*
X183203065Y-145218182D01*
X183125010Y-145218243D01*
X183066763Y-145218250D01*
X182686339Y-145218250D01*
X182669888Y-145197335D01*
X182655930Y-145173109D01*
X182656312Y-145151070D01*
X182669888Y-145128039D01*
X182686339Y-145107125D01*
X182686339Y-145002440D01*
X182673270Y-145002998D01*
X182654355Y-145004436D01*
X182640800Y-145006269D01*
X182631292Y-145008545D01*
X182624517Y-145011311D01*
X182619161Y-145014616D01*
X182616806Y-145016334D01*
X182593933Y-145035103D01*
X182578430Y-145053526D01*
X182568908Y-145075303D01*
X182563980Y-145104129D01*
X182562258Y-145143702D01*
X182562156Y-145161937D01*
X182562380Y-145200126D01*
X182562380Y-145200126D01*
G37*
X182562380Y-145200126D02*
X182563564Y-145226298D01*
X182566472Y-145244308D01*
X182571869Y-145258013D01*
X182580519Y-145271269D01*
X182585030Y-145277268D01*
X182593594Y-145288451D01*
X182601724Y-145297925D01*
X182610739Y-145305824D01*
X182621954Y-145312283D01*
X182636688Y-145317436D01*
X182656256Y-145321418D01*
X182681977Y-145324363D01*
X182715167Y-145326406D01*
X182757143Y-145327682D01*
X182809222Y-145328325D01*
X182872722Y-145328469D01*
X182948959Y-145328249D01*
X183039250Y-145327799D01*
X183077753Y-145327595D01*
X183169651Y-145327095D01*
X183247009Y-145326607D01*
X183311161Y-145326073D01*
X183363441Y-145325438D01*
X183405183Y-145324644D01*
X183437722Y-145323636D01*
X183462391Y-145322356D01*
X183480526Y-145320748D01*
X183493460Y-145318756D01*
X183502527Y-145316323D01*
X183509063Y-145313392D01*
X183514401Y-145309907D01*
X183515574Y-145309040D01*
X183538883Y-145289668D01*
X183554684Y-145270188D01*
X183564541Y-145246754D01*
X183570014Y-145215520D01*
X183572666Y-145172643D01*
X183572819Y-145168084D01*
X183573707Y-145130545D01*
X183573094Y-145104884D01*
X183570396Y-145087128D01*
X183565030Y-145073307D01*
X183556944Y-145060229D01*
X183538784Y-145037830D01*
X183518587Y-145018525D01*
X183516058Y-145016573D01*
X183510845Y-145012952D01*
X183504914Y-145009900D01*
X183496948Y-145007369D01*
X183485632Y-145005308D01*
X183469651Y-145003670D01*
X183447689Y-145002407D01*
X183418430Y-145001470D01*
X183380559Y-145000810D01*
X183332761Y-145000378D01*
X183273720Y-145000127D01*
X183202120Y-145000007D01*
X183116646Y-144999971D01*
X183066187Y-144999968D01*
X182972945Y-144999982D01*
X182894264Y-145000056D01*
X182828829Y-145000238D01*
X182775326Y-145000575D01*
X182732442Y-145001115D01*
X182698861Y-145001907D01*
X182686339Y-145002440D01*
X182686339Y-145107125D01*
X183066763Y-145107125D01*
X183154331Y-145107143D01*
X183227404Y-145107237D01*
X183287362Y-145107461D01*
X183335585Y-145107870D01*
X183373452Y-145108520D01*
X183402344Y-145109466D01*
X183423641Y-145110763D01*
X183438723Y-145112467D01*
X183448969Y-145114632D01*
X183455760Y-145117314D01*
X183460475Y-145120569D01*
X183463062Y-145123000D01*
X183475011Y-145143023D01*
X183478937Y-145162687D01*
X183473555Y-145185994D01*
X183463062Y-145202375D01*
X183458954Y-145206028D01*
X183453661Y-145209073D01*
X183445802Y-145211566D01*
X183434000Y-145213561D01*
X183416872Y-145215114D01*
X183393040Y-145216281D01*
X183361123Y-145217115D01*
X183319741Y-145217673D01*
X183267515Y-145218011D01*
X183203065Y-145218182D01*
X183125010Y-145218243D01*
X183066763Y-145218250D01*
X182686339Y-145218250D01*
X182669888Y-145197335D01*
X182655930Y-145173109D01*
X182656312Y-145151070D01*
X182669888Y-145128039D01*
X182686339Y-145107125D01*
X182686339Y-145002440D01*
X182673270Y-145002998D01*
X182654355Y-145004436D01*
X182640800Y-145006269D01*
X182631292Y-145008545D01*
X182624517Y-145011311D01*
X182619161Y-145014616D01*
X182616806Y-145016334D01*
X182593933Y-145035103D01*
X182578430Y-145053526D01*
X182568908Y-145075303D01*
X182563980Y-145104129D01*
X182562258Y-145143702D01*
X182562156Y-145161937D01*
X182562380Y-145200126D01*
G36*
X183432868Y-138083736D02*
X183436886Y-138104474D01*
X183440837Y-138112600D01*
X183454066Y-138117785D01*
X183479422Y-138121126D01*
X183508306Y-138122125D01*
X183566250Y-138122125D01*
X183566250Y-138076087D01*
X183564693Y-138049388D01*
X183560676Y-138028650D01*
X183556725Y-138020525D01*
X183543495Y-138015339D01*
X183518139Y-138011998D01*
X183489256Y-138011000D01*
X183431312Y-138011000D01*
X183431312Y-138057037D01*
X183432868Y-138083736D01*
X183432868Y-138083736D01*
G37*
X183432868Y-138083736D02*
X183436886Y-138104474D01*
X183440837Y-138112600D01*
X183454066Y-138117785D01*
X183479422Y-138121126D01*
X183508306Y-138122125D01*
X183566250Y-138122125D01*
X183566250Y-138076087D01*
X183564693Y-138049388D01*
X183560676Y-138028650D01*
X183556725Y-138020525D01*
X183543495Y-138015339D01*
X183518139Y-138011998D01*
X183489256Y-138011000D01*
X183431312Y-138011000D01*
X183431312Y-138057037D01*
X183432868Y-138083736D01*
G36*
X183435281Y-138856343D02*
X183500765Y-138858649D01*
X183566250Y-138860954D01*
X183566250Y-138817544D01*
X183563295Y-138782662D01*
X183554455Y-138762372D01*
X183553776Y-138761660D01*
X183539885Y-138754081D01*
X183515447Y-138750112D01*
X183485945Y-138749187D01*
X183430587Y-138749187D01*
X183435281Y-138856343D01*
X183435281Y-138856343D01*
G37*
X183435281Y-138856343D02*
X183500765Y-138858649D01*
X183566250Y-138860954D01*
X183566250Y-138817544D01*
X183563295Y-138782662D01*
X183554455Y-138762372D01*
X183553776Y-138761660D01*
X183539885Y-138754081D01*
X183515447Y-138750112D01*
X183485945Y-138749187D01*
X183430587Y-138749187D01*
X183435281Y-138856343D01*
G36*
X182566169Y-139699703D02*
X182566851Y-139739631D01*
X182568668Y-139776433D01*
X182571329Y-139805634D01*
X182574029Y-139821102D01*
X182588287Y-139849945D01*
X182612418Y-139878213D01*
X182641206Y-139900400D01*
X182655938Y-139907575D01*
X182674349Y-139911226D01*
X182705416Y-139913885D01*
X182745952Y-139915583D01*
X182792769Y-139916347D01*
X182842682Y-139916207D01*
X182892503Y-139915190D01*
X182939046Y-139913325D01*
X182979123Y-139910641D01*
X183009548Y-139907167D01*
X183023395Y-139904280D01*
X183064750Y-139885850D01*
X183094414Y-139858058D01*
X183113024Y-139819911D01*
X183121221Y-139770416D01*
X183121750Y-139751349D01*
X183121750Y-139709625D01*
X183566250Y-139709625D01*
X183566250Y-139663322D01*
X183565406Y-139637478D01*
X183563224Y-139618484D01*
X183560958Y-139611729D01*
X183552295Y-139610797D01*
X183529122Y-139609918D01*
X183492805Y-139609105D01*
X183444709Y-139608374D01*
X183386199Y-139607738D01*
X183318640Y-139607212D01*
X183243397Y-139606811D01*
X183161837Y-139606548D01*
X183075323Y-139606439D01*
X183060895Y-139606437D01*
X182669312Y-139606437D01*
X182669312Y-139709625D01*
X183018562Y-139709625D01*
X183018562Y-139744767D01*
X183016464Y-139769910D01*
X183008313Y-139786395D01*
X182997648Y-139796361D01*
X182988822Y-139802424D01*
X182978419Y-139806789D01*
X182963839Y-139809732D01*
X182942482Y-139811528D01*
X182911745Y-139812453D01*
X182869029Y-139812784D01*
X182842506Y-139812812D01*
X182793399Y-139812737D01*
X182757607Y-139812297D01*
X182732567Y-139811167D01*
X182715719Y-139809022D01*
X182704503Y-139805538D01*
X182696356Y-139800389D01*
X182688795Y-139793329D01*
X182673886Y-139771473D01*
X182669318Y-139743091D01*
X182669312Y-139741735D01*
X182669312Y-139709625D01*
X182669312Y-139606437D01*
X182566125Y-139606437D01*
X182566169Y-139699703D01*
X182566169Y-139699703D01*
G37*
X182566169Y-139699703D02*
X182566851Y-139739631D01*
X182568668Y-139776433D01*
X182571329Y-139805634D01*
X182574029Y-139821102D01*
X182588287Y-139849945D01*
X182612418Y-139878213D01*
X182641206Y-139900400D01*
X182655938Y-139907575D01*
X182674349Y-139911226D01*
X182705416Y-139913885D01*
X182745952Y-139915583D01*
X182792769Y-139916347D01*
X182842682Y-139916207D01*
X182892503Y-139915190D01*
X182939046Y-139913325D01*
X182979123Y-139910641D01*
X183009548Y-139907167D01*
X183023395Y-139904280D01*
X183064750Y-139885850D01*
X183094414Y-139858058D01*
X183113024Y-139819911D01*
X183121221Y-139770416D01*
X183121750Y-139751349D01*
X183121750Y-139709625D01*
X183566250Y-139709625D01*
X183566250Y-139663322D01*
X183565406Y-139637478D01*
X183563224Y-139618484D01*
X183560958Y-139611729D01*
X183552295Y-139610797D01*
X183529122Y-139609918D01*
X183492805Y-139609105D01*
X183444709Y-139608374D01*
X183386199Y-139607738D01*
X183318640Y-139607212D01*
X183243397Y-139606811D01*
X183161837Y-139606548D01*
X183075323Y-139606439D01*
X183060895Y-139606437D01*
X182669312Y-139606437D01*
X182669312Y-139709625D01*
X183018562Y-139709625D01*
X183018562Y-139744767D01*
X183016464Y-139769910D01*
X183008313Y-139786395D01*
X182997648Y-139796361D01*
X182988822Y-139802424D01*
X182978419Y-139806789D01*
X182963839Y-139809732D01*
X182942482Y-139811528D01*
X182911745Y-139812453D01*
X182869029Y-139812784D01*
X182842506Y-139812812D01*
X182793399Y-139812737D01*
X182757607Y-139812297D01*
X182732567Y-139811167D01*
X182715719Y-139809022D01*
X182704503Y-139805538D01*
X182696356Y-139800389D01*
X182688795Y-139793329D01*
X182673886Y-139771473D01*
X182669318Y-139743091D01*
X182669312Y-139741735D01*
X182669312Y-139709625D01*
X182669312Y-139606437D01*
X182566125Y-139606437D01*
X182566169Y-139699703D01*
G36*
X182574237Y-140450453D02*
X182587132Y-140468900D01*
X182592350Y-140472055D01*
X182602228Y-140474210D01*
X182626131Y-140478479D01*
X182662388Y-140484602D01*
X182709327Y-140492318D01*
X182765276Y-140501367D01*
X182828565Y-140511489D01*
X182897521Y-140522424D01*
X182970474Y-140533911D01*
X183045751Y-140545691D01*
X183121682Y-140557502D01*
X183196595Y-140569085D01*
X183268817Y-140580179D01*
X183336679Y-140590524D01*
X183398509Y-140599860D01*
X183452634Y-140607926D01*
X183497384Y-140614463D01*
X183531087Y-140619210D01*
X183552072Y-140621907D01*
X183558148Y-140622437D01*
X183562760Y-140615335D01*
X183565555Y-140597147D01*
X183566605Y-140572549D01*
X183565981Y-140546217D01*
X183563754Y-140522827D01*
X183559996Y-140507055D01*
X183556328Y-140503039D01*
X183546518Y-140501961D01*
X183522701Y-140499028D01*
X183486607Y-140494460D01*
X183439968Y-140488482D01*
X183384514Y-140481314D01*
X183321977Y-140473180D01*
X183254087Y-140464301D01*
X183229773Y-140461109D01*
X182913140Y-140419516D01*
X183233742Y-140377929D01*
X183303334Y-140368924D01*
X183368015Y-140360598D01*
X183426093Y-140353166D01*
X183475875Y-140346841D01*
X183515668Y-140341839D01*
X183543782Y-140338374D01*
X183558523Y-140336661D01*
X183560296Y-140336514D01*
X183563141Y-140329312D01*
X183565246Y-140310103D01*
X183566223Y-140282751D01*
X183566250Y-140277156D01*
X183565952Y-140246851D01*
X183564396Y-140229117D01*
X183560580Y-140220651D01*
X183553507Y-140218153D01*
X183548390Y-140218110D01*
X183537524Y-140219365D01*
X183512375Y-140222812D01*
X183474354Y-140228245D01*
X183424871Y-140235456D01*
X183365336Y-140244235D01*
X183297160Y-140254376D01*
X183221751Y-140265670D01*
X183140521Y-140277910D01*
X183054880Y-140290886D01*
X183050312Y-140291580D01*
X182570093Y-140364565D01*
X182567461Y-140387598D01*
X182567288Y-140422022D01*
X182574237Y-140450453D01*
X182574237Y-140450453D01*
G37*
X182574237Y-140450453D02*
X182587132Y-140468900D01*
X182592350Y-140472055D01*
X182602228Y-140474210D01*
X182626131Y-140478479D01*
X182662388Y-140484602D01*
X182709327Y-140492318D01*
X182765276Y-140501367D01*
X182828565Y-140511489D01*
X182897521Y-140522424D01*
X182970474Y-140533911D01*
X183045751Y-140545691D01*
X183121682Y-140557502D01*
X183196595Y-140569085D01*
X183268817Y-140580179D01*
X183336679Y-140590524D01*
X183398509Y-140599860D01*
X183452634Y-140607926D01*
X183497384Y-140614463D01*
X183531087Y-140619210D01*
X183552072Y-140621907D01*
X183558148Y-140622437D01*
X183562760Y-140615335D01*
X183565555Y-140597147D01*
X183566605Y-140572549D01*
X183565981Y-140546217D01*
X183563754Y-140522827D01*
X183559996Y-140507055D01*
X183556328Y-140503039D01*
X183546518Y-140501961D01*
X183522701Y-140499028D01*
X183486607Y-140494460D01*
X183439968Y-140488482D01*
X183384514Y-140481314D01*
X183321977Y-140473180D01*
X183254087Y-140464301D01*
X183229773Y-140461109D01*
X182913140Y-140419516D01*
X183233742Y-140377929D01*
X183303334Y-140368924D01*
X183368015Y-140360598D01*
X183426093Y-140353166D01*
X183475875Y-140346841D01*
X183515668Y-140341839D01*
X183543782Y-140338374D01*
X183558523Y-140336661D01*
X183560296Y-140336514D01*
X183563141Y-140329312D01*
X183565246Y-140310103D01*
X183566223Y-140282751D01*
X183566250Y-140277156D01*
X183565952Y-140246851D01*
X183564396Y-140229117D01*
X183560580Y-140220651D01*
X183553507Y-140218153D01*
X183548390Y-140218110D01*
X183537524Y-140219365D01*
X183512375Y-140222812D01*
X183474354Y-140228245D01*
X183424871Y-140235456D01*
X183365336Y-140244235D01*
X183297160Y-140254376D01*
X183221751Y-140265670D01*
X183140521Y-140277910D01*
X183054880Y-140290886D01*
X183050312Y-140291580D01*
X182570093Y-140364565D01*
X182567461Y-140387598D01*
X182567288Y-140422022D01*
X182574237Y-140450453D01*
G36*
X182566076Y-141192067D02*
X182566674Y-141239197D01*
X182567718Y-141281265D01*
X182569207Y-141315759D01*
X182571141Y-141340167D01*
X182573521Y-141351976D01*
X182574326Y-141352687D01*
X182589971Y-141348412D01*
X182612628Y-141337671D01*
X182636919Y-141323589D01*
X182657467Y-141309290D01*
X182668893Y-141297900D01*
X182669027Y-141297657D01*
X182673384Y-141281789D01*
X182676365Y-141256151D01*
X182677250Y-141231765D01*
X182678708Y-141202751D01*
X182682563Y-141180806D01*
X182686775Y-141171712D01*
X182693027Y-141169513D01*
X182707659Y-141167646D01*
X182731599Y-141166090D01*
X182765775Y-141164827D01*
X182811113Y-141163835D01*
X182868541Y-141163095D01*
X182938986Y-141162587D01*
X183023376Y-141162291D01*
X183122639Y-141162188D01*
X183131275Y-141162187D01*
X183566250Y-141162187D01*
X183566250Y-141114841D01*
X183565277Y-141086775D01*
X183561584Y-141070288D01*
X183554003Y-141061160D01*
X183550896Y-141059279D01*
X183538917Y-141057233D01*
X183511318Y-141055470D01*
X183468355Y-141053997D01*
X183410281Y-141052817D01*
X183337349Y-141051935D01*
X183249815Y-141051356D01*
X183147930Y-141051084D01*
X183106396Y-141051062D01*
X182677250Y-141051062D01*
X182677250Y-140916125D01*
X182629904Y-140916125D01*
X182601838Y-140917097D01*
X182585350Y-140920790D01*
X182576222Y-140928371D01*
X182574341Y-140931478D01*
X182571827Y-140943692D01*
X182569756Y-140968431D01*
X182568131Y-141003182D01*
X182566950Y-141045434D01*
X182566213Y-141092674D01*
X182565922Y-141142389D01*
X182566076Y-141192067D01*
X182566076Y-141192067D01*
G37*
X182566076Y-141192067D02*
X182566674Y-141239197D01*
X182567718Y-141281265D01*
X182569207Y-141315759D01*
X182571141Y-141340167D01*
X182573521Y-141351976D01*
X182574326Y-141352687D01*
X182589971Y-141348412D01*
X182612628Y-141337671D01*
X182636919Y-141323589D01*
X182657467Y-141309290D01*
X182668893Y-141297900D01*
X182669027Y-141297657D01*
X182673384Y-141281789D01*
X182676365Y-141256151D01*
X182677250Y-141231765D01*
X182678708Y-141202751D01*
X182682563Y-141180806D01*
X182686775Y-141171712D01*
X182693027Y-141169513D01*
X182707659Y-141167646D01*
X182731599Y-141166090D01*
X182765775Y-141164827D01*
X182811113Y-141163835D01*
X182868541Y-141163095D01*
X182938986Y-141162587D01*
X183023376Y-141162291D01*
X183122639Y-141162188D01*
X183131275Y-141162187D01*
X183566250Y-141162187D01*
X183566250Y-141114841D01*
X183565277Y-141086775D01*
X183561584Y-141070288D01*
X183554003Y-141061160D01*
X183550896Y-141059279D01*
X183538917Y-141057233D01*
X183511318Y-141055470D01*
X183468355Y-141053997D01*
X183410281Y-141052817D01*
X183337349Y-141051935D01*
X183249815Y-141051356D01*
X183147930Y-141051084D01*
X183106396Y-141051062D01*
X182677250Y-141051062D01*
X182677250Y-140916125D01*
X182629904Y-140916125D01*
X182601838Y-140917097D01*
X182585350Y-140920790D01*
X182576222Y-140928371D01*
X182574341Y-140931478D01*
X182571827Y-140943692D01*
X182569756Y-140968431D01*
X182568131Y-141003182D01*
X182566950Y-141045434D01*
X182566213Y-141092674D01*
X182565922Y-141142389D01*
X182566076Y-141192067D01*
G36*
X182566589Y-141961030D02*
X182567962Y-142003044D01*
X182570212Y-142030419D01*
X182573307Y-142042624D01*
X182574326Y-142043250D01*
X182587664Y-142039404D01*
X182608956Y-142029764D01*
X182632838Y-142017173D01*
X182653945Y-142004473D01*
X182666911Y-141994509D01*
X182667463Y-141993883D01*
X182672040Y-141981121D01*
X182675981Y-141957171D01*
X182678565Y-141926722D01*
X182678871Y-141919842D01*
X182681218Y-141856718D01*
X182834015Y-141854562D01*
X182986812Y-141852407D01*
X182986812Y-141928519D01*
X182986999Y-141965635D01*
X182989059Y-141988625D01*
X182995243Y-141999230D01*
X183007801Y-141999197D01*
X183028984Y-141990267D01*
X183051758Y-141978844D01*
X183073226Y-141966645D01*
X183086083Y-141953805D01*
X183093142Y-141935538D01*
X183097212Y-141907060D01*
X183097853Y-141900375D01*
X183101906Y-141856718D01*
X183278290Y-141854583D01*
X183454675Y-141852447D01*
X183456884Y-141959753D01*
X183459093Y-142067058D01*
X183507507Y-142044150D01*
X183532960Y-142030552D01*
X183552314Y-142017328D01*
X183561085Y-142007784D01*
X183562853Y-141995508D01*
X183564360Y-141970413D01*
X183565494Y-141935553D01*
X183566141Y-141893983D01*
X183566250Y-141867975D01*
X183566250Y-141741625D01*
X183078660Y-141741625D01*
X182977569Y-141741659D01*
X182891182Y-141741782D01*
X182818327Y-141742023D01*
X182757835Y-141742410D01*
X182708533Y-141742974D01*
X182669251Y-141743742D01*
X182638818Y-141744746D01*
X182616062Y-141746013D01*
X182599814Y-141747573D01*
X182588901Y-141749455D01*
X182582153Y-141751689D01*
X182578598Y-141754098D01*
X182573955Y-141761131D01*
X182570589Y-141773059D01*
X182568312Y-141792154D01*
X182566934Y-141820688D01*
X182566270Y-141860933D01*
X182566124Y-141904910D01*
X182566589Y-141961030D01*
X182566589Y-141961030D01*
G37*
X182566589Y-141961030D02*
X182567962Y-142003044D01*
X182570212Y-142030419D01*
X182573307Y-142042624D01*
X182574326Y-142043250D01*
X182587664Y-142039404D01*
X182608956Y-142029764D01*
X182632838Y-142017173D01*
X182653945Y-142004473D01*
X182666911Y-141994509D01*
X182667463Y-141993883D01*
X182672040Y-141981121D01*
X182675981Y-141957171D01*
X182678565Y-141926722D01*
X182678871Y-141919842D01*
X182681218Y-141856718D01*
X182834015Y-141854562D01*
X182986812Y-141852407D01*
X182986812Y-141928519D01*
X182986999Y-141965635D01*
X182989059Y-141988625D01*
X182995243Y-141999230D01*
X183007801Y-141999197D01*
X183028984Y-141990267D01*
X183051758Y-141978844D01*
X183073226Y-141966645D01*
X183086083Y-141953805D01*
X183093142Y-141935538D01*
X183097212Y-141907060D01*
X183097853Y-141900375D01*
X183101906Y-141856718D01*
X183278290Y-141854583D01*
X183454675Y-141852447D01*
X183456884Y-141959753D01*
X183459093Y-142067058D01*
X183507507Y-142044150D01*
X183532960Y-142030552D01*
X183552314Y-142017328D01*
X183561085Y-142007784D01*
X183562853Y-141995508D01*
X183564360Y-141970413D01*
X183565494Y-141935553D01*
X183566141Y-141893983D01*
X183566250Y-141867975D01*
X183566250Y-141741625D01*
X183078660Y-141741625D01*
X182977569Y-141741659D01*
X182891182Y-141741782D01*
X182818327Y-141742023D01*
X182757835Y-141742410D01*
X182708533Y-141742974D01*
X182669251Y-141743742D01*
X182638818Y-141744746D01*
X182616062Y-141746013D01*
X182599814Y-141747573D01*
X182588901Y-141749455D01*
X182582153Y-141751689D01*
X182578598Y-141754098D01*
X182573955Y-141761131D01*
X182570589Y-141773059D01*
X182568312Y-141792154D01*
X182566934Y-141820688D01*
X182566270Y-141860933D01*
X182566124Y-141904910D01*
X182566589Y-141961030D01*
G36*
X182569572Y-142469958D02*
X182579648Y-142500380D01*
X182593021Y-142515509D01*
X182604867Y-142519823D01*
X182630175Y-142526740D01*
X182666838Y-142535764D01*
X182712749Y-142546397D01*
X182765801Y-142558141D01*
X182823886Y-142570497D01*
X182839968Y-142573835D01*
X183070156Y-142621352D01*
X182818140Y-142622020D01*
X182566125Y-142622687D01*
X182566125Y-142733812D01*
X183568215Y-142733812D01*
X183564562Y-142689753D01*
X183560465Y-142663018D01*
X183553877Y-142641768D01*
X183549049Y-142633834D01*
X183538358Y-142629030D01*
X183513923Y-142621376D01*
X183477522Y-142611339D01*
X183430934Y-142599387D01*
X183375941Y-142585987D01*
X183314320Y-142571605D01*
X183295735Y-142567378D01*
X183054281Y-142512780D01*
X183310265Y-142512171D01*
X183566250Y-142511562D01*
X183566250Y-142400437D01*
X182566125Y-142400437D01*
X182566124Y-142427226D01*
X182569572Y-142469958D01*
X182569572Y-142469958D01*
G37*
X182569572Y-142469958D02*
X182579648Y-142500380D01*
X182593021Y-142515509D01*
X182604867Y-142519823D01*
X182630175Y-142526740D01*
X182666838Y-142535764D01*
X182712749Y-142546397D01*
X182765801Y-142558141D01*
X182823886Y-142570497D01*
X182839968Y-142573835D01*
X183070156Y-142621352D01*
X182818140Y-142622020D01*
X182566125Y-142622687D01*
X182566125Y-142733812D01*
X183568215Y-142733812D01*
X183564562Y-142689753D01*
X183560465Y-142663018D01*
X183553877Y-142641768D01*
X183549049Y-142633834D01*
X183538358Y-142629030D01*
X183513923Y-142621376D01*
X183477522Y-142611339D01*
X183430934Y-142599387D01*
X183375941Y-142585987D01*
X183314320Y-142571605D01*
X183295735Y-142567378D01*
X183054281Y-142512780D01*
X183310265Y-142512171D01*
X183566250Y-142511562D01*
X183566250Y-142400437D01*
X182566125Y-142400437D01*
X182566124Y-142427226D01*
X182569572Y-142469958D01*
G36*
X182566437Y-143344747D02*
X182567371Y-143401886D01*
X182568923Y-143443508D01*
X182571088Y-143469504D01*
X182573862Y-143479762D01*
X182574326Y-143479937D01*
X182587786Y-143476083D01*
X182609057Y-143466442D01*
X182632756Y-143453895D01*
X182653497Y-143441322D01*
X182665898Y-143431604D01*
X182666766Y-143430479D01*
X182670312Y-143418166D01*
X182673857Y-143394579D01*
X182676748Y-143364307D01*
X182677250Y-143356906D01*
X182681218Y-143293406D01*
X183566250Y-143289304D01*
X183566250Y-143243333D01*
X183564691Y-143216652D01*
X183560669Y-143195932D01*
X183556725Y-143187837D01*
X183550472Y-143185638D01*
X183535840Y-143183771D01*
X183511900Y-143182215D01*
X183477724Y-143180952D01*
X183432386Y-143179960D01*
X183374958Y-143179220D01*
X183304513Y-143178712D01*
X183220123Y-143178416D01*
X183120860Y-143178313D01*
X183112225Y-143178312D01*
X182677250Y-143178312D01*
X182677250Y-143035437D01*
X182634823Y-143035437D01*
X182615254Y-143035557D01*
X182599805Y-143037034D01*
X182587988Y-143041545D01*
X182579317Y-143050768D01*
X182573306Y-143066379D01*
X182569469Y-143090057D01*
X182567317Y-143123476D01*
X182566366Y-143168316D01*
X182566127Y-143226253D01*
X182566124Y-143272203D01*
X182566437Y-143344747D01*
X182566437Y-143344747D01*
G37*
X182566437Y-143344747D02*
X182567371Y-143401886D01*
X182568923Y-143443508D01*
X182571088Y-143469504D01*
X182573862Y-143479762D01*
X182574326Y-143479937D01*
X182587786Y-143476083D01*
X182609057Y-143466442D01*
X182632756Y-143453895D01*
X182653497Y-143441322D01*
X182665898Y-143431604D01*
X182666766Y-143430479D01*
X182670312Y-143418166D01*
X182673857Y-143394579D01*
X182676748Y-143364307D01*
X182677250Y-143356906D01*
X182681218Y-143293406D01*
X183566250Y-143289304D01*
X183566250Y-143243333D01*
X183564691Y-143216652D01*
X183560669Y-143195932D01*
X183556725Y-143187837D01*
X183550472Y-143185638D01*
X183535840Y-143183771D01*
X183511900Y-143182215D01*
X183477724Y-143180952D01*
X183432386Y-143179960D01*
X183374958Y-143179220D01*
X183304513Y-143178712D01*
X183220123Y-143178416D01*
X183120860Y-143178313D01*
X183112225Y-143178312D01*
X182677250Y-143178312D01*
X182677250Y-143035437D01*
X182634823Y-143035437D01*
X182615254Y-143035557D01*
X182599805Y-143037034D01*
X182587988Y-143041545D01*
X182579317Y-143050768D01*
X182573306Y-143066379D01*
X182569469Y-143090057D01*
X182567317Y-143123476D01*
X182566366Y-143168316D01*
X182566127Y-143226253D01*
X182566124Y-143272203D01*
X182566437Y-143344747D01*
G36*
X182569108Y-144382140D02*
X182576385Y-144409764D01*
X182577335Y-144412152D01*
X182580142Y-144419360D01*
X182582893Y-144425342D01*
X182587060Y-144430521D01*
X182594115Y-144435318D01*
X182605530Y-144440153D01*
X182622779Y-144445450D01*
X182647333Y-144451629D01*
X182680665Y-144459112D01*
X182724247Y-144468320D01*
X182779552Y-144479675D01*
X182848051Y-144493599D01*
X182895531Y-144503246D01*
X183086031Y-144541991D01*
X182826078Y-144542777D01*
X182566125Y-144543562D01*
X182566125Y-144654687D01*
X183566250Y-144654687D01*
X183566250Y-144616766D01*
X183561586Y-144579731D01*
X183546902Y-144554112D01*
X183521162Y-144538235D01*
X183516616Y-144536694D01*
X183502116Y-144532864D01*
X183474437Y-144526205D01*
X183435916Y-144517256D01*
X183388889Y-144506552D01*
X183335691Y-144494630D01*
X183280848Y-144482508D01*
X183070853Y-144436406D01*
X183318551Y-144434308D01*
X183566250Y-144432211D01*
X183566250Y-144321312D01*
X182566125Y-144321312D01*
X182566124Y-144353317D01*
X182569108Y-144382140D01*
X182569108Y-144382140D01*
G37*
X182569108Y-144382140D02*
X182576385Y-144409764D01*
X182577335Y-144412152D01*
X182580142Y-144419360D01*
X182582893Y-144425342D01*
X182587060Y-144430521D01*
X182594115Y-144435318D01*
X182605530Y-144440153D01*
X182622779Y-144445450D01*
X182647333Y-144451629D01*
X182680665Y-144459112D01*
X182724247Y-144468320D01*
X182779552Y-144479675D01*
X182848051Y-144493599D01*
X182895531Y-144503246D01*
X183086031Y-144541991D01*
X182826078Y-144542777D01*
X182566125Y-144543562D01*
X182566125Y-144654687D01*
X183566250Y-144654687D01*
X183566250Y-144616766D01*
X183561586Y-144579731D01*
X183546902Y-144554112D01*
X183521162Y-144538235D01*
X183516616Y-144536694D01*
X183502116Y-144532864D01*
X183474437Y-144526205D01*
X183435916Y-144517256D01*
X183388889Y-144506552D01*
X183335691Y-144494630D01*
X183280848Y-144482508D01*
X183070853Y-144436406D01*
X183318551Y-144434308D01*
X183566250Y-144432211D01*
X183566250Y-144321312D01*
X182566125Y-144321312D01*
X182566124Y-144353317D01*
X182569108Y-144382140D01*
G36*
X183431892Y-145534432D02*
X183435557Y-145551945D01*
X183445192Y-145561835D01*
X183463683Y-145566280D01*
X183493916Y-145567456D01*
X183511336Y-145567500D01*
X183566250Y-145567500D01*
X183566250Y-145521462D01*
X183564693Y-145494763D01*
X183560676Y-145474025D01*
X183556725Y-145465900D01*
X183543495Y-145460714D01*
X183518139Y-145457373D01*
X183489256Y-145456375D01*
X183431312Y-145456375D01*
X183431312Y-145507119D01*
X183431892Y-145534432D01*
X183431892Y-145534432D01*
G37*
X183431892Y-145534432D02*
X183435557Y-145551945D01*
X183445192Y-145561835D01*
X183463683Y-145566280D01*
X183493916Y-145567456D01*
X183511336Y-145567500D01*
X183566250Y-145567500D01*
X183566250Y-145521462D01*
X183564693Y-145494763D01*
X183560676Y-145474025D01*
X183556725Y-145465900D01*
X183543495Y-145460714D01*
X183518139Y-145457373D01*
X183489256Y-145456375D01*
X183431312Y-145456375D01*
X183431312Y-145507119D01*
X183431892Y-145534432D01*
G36*
X182552373Y-148047229D02*
X182559501Y-148082738D01*
X182572999Y-148109312D01*
X182594205Y-148130201D01*
X182607724Y-148139292D01*
X182617037Y-148144331D01*
X182627754Y-148148171D01*
X182642042Y-148150973D01*
X182662070Y-148152899D01*
X182690008Y-148154110D01*
X182728022Y-148154766D01*
X182778282Y-148155029D01*
X182820125Y-148155065D01*
X182880256Y-148154956D01*
X182926647Y-148154529D01*
X182961429Y-148153638D01*
X182986735Y-148152136D01*
X183004699Y-148149875D01*
X183017453Y-148146710D01*
X183027130Y-148142492D01*
X183030468Y-148140568D01*
X183047430Y-148131393D01*
X183059626Y-148130884D01*
X183075591Y-148139039D01*
X183078093Y-148140556D01*
X183087145Y-148145203D01*
X183098467Y-148148748D01*
X183114186Y-148151337D01*
X183136429Y-148153117D01*
X183167323Y-148154233D01*
X183208994Y-148154833D01*
X183263568Y-148155062D01*
X183289248Y-148155083D01*
X183348665Y-148155039D01*
X183394374Y-148154759D01*
X183428539Y-148154060D01*
X183453328Y-148152763D01*
X183470906Y-148150687D01*
X183483439Y-148147650D01*
X183493093Y-148143473D01*
X183502035Y-148137974D01*
X183503131Y-148137238D01*
X183533046Y-148110305D01*
X183552135Y-148075893D01*
X183561722Y-148031267D01*
X183563038Y-148013592D01*
X183563077Y-147980755D01*
X183560616Y-147949562D01*
X183557158Y-147930819D01*
X183539622Y-147895990D01*
X183510483Y-147868001D01*
X183473072Y-147848307D01*
X183430720Y-147838365D01*
X183386758Y-147839629D01*
X183362594Y-147845803D01*
X183344729Y-147856657D01*
X183328415Y-147877752D01*
X183317753Y-147897573D01*
X183306493Y-147921105D01*
X183298748Y-147938386D01*
X183296375Y-147944957D01*
X183303704Y-147946671D01*
X183323263Y-147947982D01*
X183351406Y-147948684D01*
X183363843Y-147948750D01*
X183407410Y-147950917D01*
X183437276Y-147957968D01*
X183455091Y-147970727D01*
X183462500Y-147990021D01*
X183462940Y-147998359D01*
X183461102Y-148015792D01*
X183454625Y-148029054D01*
X183441668Y-148038690D01*
X183420387Y-148045250D01*
X183388940Y-148049278D01*
X183345485Y-148051324D01*
X183288178Y-148051934D01*
X183282538Y-148051937D01*
X183229932Y-148051751D01*
X183190754Y-148050749D01*
X183162562Y-148048264D01*
X183142910Y-148043630D01*
X183129354Y-148036181D01*
X183119448Y-148025251D01*
X183110749Y-148010173D01*
X183107796Y-148004312D01*
X183098732Y-147988363D01*
X183088505Y-147979755D01*
X183071939Y-147975822D01*
X183049280Y-147974179D01*
X183004592Y-147971827D01*
X182999354Y-147999747D01*
X182994949Y-148017341D01*
X182987831Y-148030490D01*
X182975873Y-148039832D01*
X182956948Y-148046007D01*
X182928929Y-148049655D01*
X182889690Y-148051416D01*
X182837102Y-148051928D01*
X182825774Y-148051937D01*
X182767231Y-148051423D01*
X182722697Y-148049516D01*
X182690329Y-148045667D01*
X182668282Y-148039329D01*
X182654714Y-148029952D01*
X182647782Y-148016989D01*
X182645640Y-147999892D01*
X182645621Y-147998359D01*
X182649817Y-147976616D01*
X182663848Y-147961691D01*
X182689362Y-147952760D01*
X182728007Y-147948998D01*
X182744718Y-147948750D01*
X182775209Y-147948294D01*
X182798527Y-147947078D01*
X182811030Y-147945328D01*
X182812187Y-147944554D01*
X182808872Y-147935841D01*
X182800204Y-147917158D01*
X182788781Y-147893993D01*
X182773057Y-147866110D01*
X182757429Y-147849305D01*
X182737209Y-147840831D01*
X182707712Y-147837940D01*
X182692822Y-147837733D01*
X182651953Y-147843921D01*
X182612501Y-147860848D01*
X182580067Y-147885703D01*
X182568173Y-147900314D01*
X182559314Y-147915934D01*
X182553915Y-147933079D01*
X182551177Y-147956177D01*
X182550301Y-147989654D01*
X182550279Y-147999533D01*
X182552373Y-148047229D01*
X182552373Y-148047229D01*
G37*
X182552373Y-148047229D02*
X182559501Y-148082738D01*
X182572999Y-148109312D01*
X182594205Y-148130201D01*
X182607724Y-148139292D01*
X182617037Y-148144331D01*
X182627754Y-148148171D01*
X182642042Y-148150973D01*
X182662070Y-148152899D01*
X182690008Y-148154110D01*
X182728022Y-148154766D01*
X182778282Y-148155029D01*
X182820125Y-148155065D01*
X182880256Y-148154956D01*
X182926647Y-148154529D01*
X182961429Y-148153638D01*
X182986735Y-148152136D01*
X183004699Y-148149875D01*
X183017453Y-148146710D01*
X183027130Y-148142492D01*
X183030468Y-148140568D01*
X183047430Y-148131393D01*
X183059626Y-148130884D01*
X183075591Y-148139039D01*
X183078093Y-148140556D01*
X183087145Y-148145203D01*
X183098467Y-148148748D01*
X183114186Y-148151337D01*
X183136429Y-148153117D01*
X183167323Y-148154233D01*
X183208994Y-148154833D01*
X183263568Y-148155062D01*
X183289248Y-148155083D01*
X183348665Y-148155039D01*
X183394374Y-148154759D01*
X183428539Y-148154060D01*
X183453328Y-148152763D01*
X183470906Y-148150687D01*
X183483439Y-148147650D01*
X183493093Y-148143473D01*
X183502035Y-148137974D01*
X183503131Y-148137238D01*
X183533046Y-148110305D01*
X183552135Y-148075893D01*
X183561722Y-148031267D01*
X183563038Y-148013592D01*
X183563077Y-147980755D01*
X183560616Y-147949562D01*
X183557158Y-147930819D01*
X183539622Y-147895990D01*
X183510483Y-147868001D01*
X183473072Y-147848307D01*
X183430720Y-147838365D01*
X183386758Y-147839629D01*
X183362594Y-147845803D01*
X183344729Y-147856657D01*
X183328415Y-147877752D01*
X183317753Y-147897573D01*
X183306493Y-147921105D01*
X183298748Y-147938386D01*
X183296375Y-147944957D01*
X183303704Y-147946671D01*
X183323263Y-147947982D01*
X183351406Y-147948684D01*
X183363843Y-147948750D01*
X183407410Y-147950917D01*
X183437276Y-147957968D01*
X183455091Y-147970727D01*
X183462500Y-147990021D01*
X183462940Y-147998359D01*
X183461102Y-148015792D01*
X183454625Y-148029054D01*
X183441668Y-148038690D01*
X183420387Y-148045250D01*
X183388940Y-148049278D01*
X183345485Y-148051324D01*
X183288178Y-148051934D01*
X183282538Y-148051937D01*
X183229932Y-148051751D01*
X183190754Y-148050749D01*
X183162562Y-148048264D01*
X183142910Y-148043630D01*
X183129354Y-148036181D01*
X183119448Y-148025251D01*
X183110749Y-148010173D01*
X183107796Y-148004312D01*
X183098732Y-147988363D01*
X183088505Y-147979755D01*
X183071939Y-147975822D01*
X183049280Y-147974179D01*
X183004592Y-147971827D01*
X182999354Y-147999747D01*
X182994949Y-148017341D01*
X182987831Y-148030490D01*
X182975873Y-148039832D01*
X182956948Y-148046007D01*
X182928929Y-148049655D01*
X182889690Y-148051416D01*
X182837102Y-148051928D01*
X182825774Y-148051937D01*
X182767231Y-148051423D01*
X182722697Y-148049516D01*
X182690329Y-148045667D01*
X182668282Y-148039329D01*
X182654714Y-148029952D01*
X182647782Y-148016989D01*
X182645640Y-147999892D01*
X182645621Y-147998359D01*
X182649817Y-147976616D01*
X182663848Y-147961691D01*
X182689362Y-147952760D01*
X182728007Y-147948998D01*
X182744718Y-147948750D01*
X182775209Y-147948294D01*
X182798527Y-147947078D01*
X182811030Y-147945328D01*
X182812187Y-147944554D01*
X182808872Y-147935841D01*
X182800204Y-147917158D01*
X182788781Y-147893993D01*
X182773057Y-147866110D01*
X182757429Y-147849305D01*
X182737209Y-147840831D01*
X182707712Y-147837940D01*
X182692822Y-147837733D01*
X182651953Y-147843921D01*
X182612501Y-147860848D01*
X182580067Y-147885703D01*
X182568173Y-147900314D01*
X182559314Y-147915934D01*
X182553915Y-147933079D01*
X182551177Y-147956177D01*
X182550301Y-147989654D01*
X182550279Y-147999533D01*
X182552373Y-148047229D01*
G36*
X182552390Y-149695637D02*
X182559702Y-149731928D01*
X182573525Y-149758789D01*
X182595196Y-149779207D01*
X182614631Y-149790699D01*
X182621963Y-149794187D01*
X182630032Y-149797110D01*
X182640198Y-149799512D01*
X182653818Y-149801432D01*
X182672252Y-149802912D01*
X182696858Y-149803993D01*
X182728994Y-149804717D01*
X182770018Y-149805125D01*
X182821290Y-149805257D01*
X182884167Y-149805156D01*
X182960008Y-149804862D01*
X183050171Y-149804417D01*
X183064285Y-149804343D01*
X183482906Y-149802156D01*
X183508822Y-149783671D01*
X183529459Y-149765029D01*
X183545684Y-149743863D01*
X183547037Y-149741403D01*
X183554758Y-149717780D01*
X183560289Y-149684401D01*
X183563147Y-149647293D01*
X183562848Y-149612482D01*
X183559372Y-149587677D01*
X183541730Y-149547126D01*
X183512236Y-149516964D01*
X183491648Y-149504889D01*
X183483629Y-149501244D01*
X183474991Y-149498187D01*
X183464338Y-149495668D01*
X183450276Y-149493635D01*
X183431409Y-149492036D01*
X183406341Y-149490818D01*
X183373676Y-149489931D01*
X183332020Y-149489321D01*
X183279975Y-149488937D01*
X183216148Y-149488728D01*
X183139142Y-149488641D01*
X183057406Y-149488626D01*
X183057406Y-149599750D01*
X183145202Y-149599791D01*
X183218486Y-149599948D01*
X183278619Y-149600265D01*
X183326964Y-149600787D01*
X183364882Y-149601562D01*
X183393737Y-149602634D01*
X183414891Y-149604049D01*
X183429705Y-149605853D01*
X183439542Y-149608092D01*
X183445764Y-149610811D01*
X183448546Y-149612886D01*
X183460840Y-149633598D01*
X183461213Y-149658441D01*
X183449926Y-149680484D01*
X183446160Y-149683828D01*
X183440542Y-149686617D01*
X183431706Y-149688901D01*
X183418287Y-149690729D01*
X183398922Y-149692152D01*
X183372246Y-149693220D01*
X183336894Y-149693984D01*
X183291502Y-149694493D01*
X183234705Y-149694798D01*
X183165138Y-149694950D01*
X183081438Y-149694998D01*
X183055660Y-149695000D01*
X182964532Y-149694995D01*
X182888005Y-149694882D01*
X182824805Y-149694509D01*
X182773658Y-149693727D01*
X182733289Y-149692385D01*
X182702425Y-149690332D01*
X182679791Y-149687419D01*
X182664114Y-149683495D01*
X182654119Y-149678409D01*
X182648533Y-149672011D01*
X182646081Y-149664151D01*
X182645489Y-149654679D01*
X182645500Y-149646594D01*
X182645667Y-149636209D01*
X182647016Y-149627485D01*
X182650821Y-149620277D01*
X182658353Y-149614440D01*
X182670884Y-149609830D01*
X182689686Y-149606302D01*
X182716033Y-149603711D01*
X182751195Y-149601913D01*
X182796446Y-149600763D01*
X182853057Y-149600115D01*
X182922302Y-149599827D01*
X183005451Y-149599752D01*
X183057406Y-149599750D01*
X183057406Y-149488626D01*
X183054281Y-149488625D01*
X182963653Y-149488647D01*
X182887509Y-149488749D01*
X182824457Y-149488980D01*
X182773107Y-149489391D01*
X182732067Y-149490032D01*
X182699947Y-149490953D01*
X182675354Y-149492205D01*
X182656898Y-149493837D01*
X182643188Y-149495901D01*
X182632833Y-149498445D01*
X182624440Y-149501521D01*
X182618240Y-149504382D01*
X182589092Y-149522048D01*
X182569206Y-149543640D01*
X182557109Y-149572245D01*
X182551328Y-149610950D01*
X182550250Y-149646929D01*
X182552390Y-149695637D01*
X182552390Y-149695637D01*
G37*
X182552390Y-149695637D02*
X182559702Y-149731928D01*
X182573525Y-149758789D01*
X182595196Y-149779207D01*
X182614631Y-149790699D01*
X182621963Y-149794187D01*
X182630032Y-149797110D01*
X182640198Y-149799512D01*
X182653818Y-149801432D01*
X182672252Y-149802912D01*
X182696858Y-149803993D01*
X182728994Y-149804717D01*
X182770018Y-149805125D01*
X182821290Y-149805257D01*
X182884167Y-149805156D01*
X182960008Y-149804862D01*
X183050171Y-149804417D01*
X183064285Y-149804343D01*
X183482906Y-149802156D01*
X183508822Y-149783671D01*
X183529459Y-149765029D01*
X183545684Y-149743863D01*
X183547037Y-149741403D01*
X183554758Y-149717780D01*
X183560289Y-149684401D01*
X183563147Y-149647293D01*
X183562848Y-149612482D01*
X183559372Y-149587677D01*
X183541730Y-149547126D01*
X183512236Y-149516964D01*
X183491648Y-149504889D01*
X183483629Y-149501244D01*
X183474991Y-149498187D01*
X183464338Y-149495668D01*
X183450276Y-149493635D01*
X183431409Y-149492036D01*
X183406341Y-149490818D01*
X183373676Y-149489931D01*
X183332020Y-149489321D01*
X183279975Y-149488937D01*
X183216148Y-149488728D01*
X183139142Y-149488641D01*
X183057406Y-149488626D01*
X183057406Y-149599750D01*
X183145202Y-149599791D01*
X183218486Y-149599948D01*
X183278619Y-149600265D01*
X183326964Y-149600787D01*
X183364882Y-149601562D01*
X183393737Y-149602634D01*
X183414891Y-149604049D01*
X183429705Y-149605853D01*
X183439542Y-149608092D01*
X183445764Y-149610811D01*
X183448546Y-149612886D01*
X183460840Y-149633598D01*
X183461213Y-149658441D01*
X183449926Y-149680484D01*
X183446160Y-149683828D01*
X183440542Y-149686617D01*
X183431706Y-149688901D01*
X183418287Y-149690729D01*
X183398922Y-149692152D01*
X183372246Y-149693220D01*
X183336894Y-149693984D01*
X183291502Y-149694493D01*
X183234705Y-149694798D01*
X183165138Y-149694950D01*
X183081438Y-149694998D01*
X183055660Y-149695000D01*
X182964532Y-149694995D01*
X182888005Y-149694882D01*
X182824805Y-149694509D01*
X182773658Y-149693727D01*
X182733289Y-149692385D01*
X182702425Y-149690332D01*
X182679791Y-149687419D01*
X182664114Y-149683495D01*
X182654119Y-149678409D01*
X182648533Y-149672011D01*
X182646081Y-149664151D01*
X182645489Y-149654679D01*
X182645500Y-149646594D01*
X182645667Y-149636209D01*
X182647016Y-149627485D01*
X182650821Y-149620277D01*
X182658353Y-149614440D01*
X182670884Y-149609830D01*
X182689686Y-149606302D01*
X182716033Y-149603711D01*
X182751195Y-149601913D01*
X182796446Y-149600763D01*
X182853057Y-149600115D01*
X182922302Y-149599827D01*
X183005451Y-149599752D01*
X183057406Y-149599750D01*
X183057406Y-149488626D01*
X183054281Y-149488625D01*
X182963653Y-149488647D01*
X182887509Y-149488749D01*
X182824457Y-149488980D01*
X182773107Y-149489391D01*
X182732067Y-149490032D01*
X182699947Y-149490953D01*
X182675354Y-149492205D01*
X182656898Y-149493837D01*
X182643188Y-149495901D01*
X182632833Y-149498445D01*
X182624440Y-149501521D01*
X182618240Y-149504382D01*
X182589092Y-149522048D01*
X182569206Y-149543640D01*
X182557109Y-149572245D01*
X182551328Y-149610950D01*
X182550250Y-149646929D01*
X182552390Y-149695637D01*
G36*
X182552373Y-152865291D02*
X182559501Y-152900801D01*
X182572999Y-152927374D01*
X182594205Y-152948263D01*
X182607724Y-152957355D01*
X182613921Y-152960821D01*
X182621085Y-152963739D01*
X182630551Y-152966156D01*
X182643656Y-152968119D01*
X182661738Y-152969676D01*
X182686133Y-152970873D01*
X182718178Y-152971758D01*
X182759209Y-152972379D01*
X182810564Y-152972781D01*
X182873580Y-152973014D01*
X182949592Y-152973123D01*
X183039939Y-152973156D01*
X183055091Y-152973157D01*
X183476589Y-152973187D01*
X183503131Y-152955301D01*
X183525264Y-152936106D01*
X183543754Y-152913213D01*
X183545098Y-152911002D01*
X183556399Y-152881084D01*
X183562776Y-152842205D01*
X183563858Y-152800609D01*
X183559277Y-152762544D01*
X183554813Y-152746968D01*
X183532634Y-152708650D01*
X183499024Y-152679676D01*
X183456353Y-152661545D01*
X183410668Y-152655731D01*
X183374879Y-152659465D01*
X183348525Y-152672550D01*
X183327578Y-152697584D01*
X183317753Y-152715635D01*
X183306493Y-152739168D01*
X183298748Y-152756449D01*
X183296375Y-152763019D01*
X183303704Y-152764733D01*
X183323263Y-152766044D01*
X183351406Y-152766747D01*
X183363843Y-152766812D01*
X183407410Y-152768979D01*
X183437276Y-152776030D01*
X183455091Y-152788790D01*
X183462500Y-152808083D01*
X183462940Y-152816421D01*
X183461058Y-152833970D01*
X183454448Y-152847293D01*
X183441259Y-152856945D01*
X183419641Y-152863485D01*
X183387744Y-152867469D01*
X183343717Y-152869455D01*
X183285710Y-152869999D01*
X183284990Y-152870000D01*
X183153500Y-152870000D01*
X183153500Y-152814954D01*
X183151420Y-152770892D01*
X183144268Y-152737818D01*
X183130670Y-152711284D01*
X183116095Y-152693708D01*
X183102709Y-152682202D01*
X183085773Y-152673144D01*
X183063474Y-152666307D01*
X183033996Y-152661460D01*
X182995526Y-152658376D01*
X182946248Y-152656825D01*
X182884349Y-152656578D01*
X182850108Y-152656910D01*
X182850108Y-152766812D01*
X182912882Y-152766950D01*
X182961570Y-152767731D01*
X182997961Y-152769704D01*
X183023844Y-152773420D01*
X183041008Y-152779427D01*
X183051240Y-152788275D01*
X183056332Y-152800513D01*
X183058070Y-152816693D01*
X183058250Y-152830762D01*
X183058250Y-152870000D01*
X182875165Y-152870000D01*
X182811530Y-152869780D01*
X182761843Y-152868967D01*
X182724179Y-152867328D01*
X182696616Y-152864631D01*
X182677228Y-152860645D01*
X182664094Y-152855135D01*
X182655289Y-152847872D01*
X182651574Y-152843014D01*
X182645717Y-152821494D01*
X182651175Y-152797435D01*
X182661375Y-152782687D01*
X182667480Y-152777467D01*
X182675383Y-152773533D01*
X182687234Y-152770705D01*
X182705181Y-152768802D01*
X182731377Y-152767643D01*
X182767969Y-152767046D01*
X182817109Y-152766832D01*
X182850108Y-152766812D01*
X182850108Y-152656910D01*
X182826239Y-152657142D01*
X182766717Y-152658049D01*
X182720865Y-152659072D01*
X182686480Y-152660407D01*
X182661357Y-152662250D01*
X182643292Y-152664795D01*
X182630080Y-152668238D01*
X182619518Y-152672774D01*
X182613776Y-152675960D01*
X182585666Y-152696103D01*
X182566817Y-152719723D01*
X182555716Y-152750196D01*
X182550849Y-152790897D01*
X182550279Y-152817595D01*
X182552373Y-152865291D01*
X182552373Y-152865291D01*
G37*
X182552373Y-152865291D02*
X182559501Y-152900801D01*
X182572999Y-152927374D01*
X182594205Y-152948263D01*
X182607724Y-152957355D01*
X182613921Y-152960821D01*
X182621085Y-152963739D01*
X182630551Y-152966156D01*
X182643656Y-152968119D01*
X182661738Y-152969676D01*
X182686133Y-152970873D01*
X182718178Y-152971758D01*
X182759209Y-152972379D01*
X182810564Y-152972781D01*
X182873580Y-152973014D01*
X182949592Y-152973123D01*
X183039939Y-152973156D01*
X183055091Y-152973157D01*
X183476589Y-152973187D01*
X183503131Y-152955301D01*
X183525264Y-152936106D01*
X183543754Y-152913213D01*
X183545098Y-152911002D01*
X183556399Y-152881084D01*
X183562776Y-152842205D01*
X183563858Y-152800609D01*
X183559277Y-152762544D01*
X183554813Y-152746968D01*
X183532634Y-152708650D01*
X183499024Y-152679676D01*
X183456353Y-152661545D01*
X183410668Y-152655731D01*
X183374879Y-152659465D01*
X183348525Y-152672550D01*
X183327578Y-152697584D01*
X183317753Y-152715635D01*
X183306493Y-152739168D01*
X183298748Y-152756449D01*
X183296375Y-152763019D01*
X183303704Y-152764733D01*
X183323263Y-152766044D01*
X183351406Y-152766747D01*
X183363843Y-152766812D01*
X183407410Y-152768979D01*
X183437276Y-152776030D01*
X183455091Y-152788790D01*
X183462500Y-152808083D01*
X183462940Y-152816421D01*
X183461058Y-152833970D01*
X183454448Y-152847293D01*
X183441259Y-152856945D01*
X183419641Y-152863485D01*
X183387744Y-152867469D01*
X183343717Y-152869455D01*
X183285710Y-152869999D01*
X183284990Y-152870000D01*
X183153500Y-152870000D01*
X183153500Y-152814954D01*
X183151420Y-152770892D01*
X183144268Y-152737818D01*
X183130670Y-152711284D01*
X183116095Y-152693708D01*
X183102709Y-152682202D01*
X183085773Y-152673144D01*
X183063474Y-152666307D01*
X183033996Y-152661460D01*
X182995526Y-152658376D01*
X182946248Y-152656825D01*
X182884349Y-152656578D01*
X182850108Y-152656910D01*
X182850108Y-152766812D01*
X182912882Y-152766950D01*
X182961570Y-152767731D01*
X182997961Y-152769704D01*
X183023844Y-152773420D01*
X183041008Y-152779427D01*
X183051240Y-152788275D01*
X183056332Y-152800513D01*
X183058070Y-152816693D01*
X183058250Y-152830762D01*
X183058250Y-152870000D01*
X182875165Y-152870000D01*
X182811530Y-152869780D01*
X182761843Y-152868967D01*
X182724179Y-152867328D01*
X182696616Y-152864631D01*
X182677228Y-152860645D01*
X182664094Y-152855135D01*
X182655289Y-152847872D01*
X182651574Y-152843014D01*
X182645717Y-152821494D01*
X182651175Y-152797435D01*
X182661375Y-152782687D01*
X182667480Y-152777467D01*
X182675383Y-152773533D01*
X182687234Y-152770705D01*
X182705181Y-152768802D01*
X182731377Y-152767643D01*
X182767969Y-152767046D01*
X182817109Y-152766832D01*
X182850108Y-152766812D01*
X182850108Y-152656910D01*
X182826239Y-152657142D01*
X182766717Y-152658049D01*
X182720865Y-152659072D01*
X182686480Y-152660407D01*
X182661357Y-152662250D01*
X182643292Y-152664795D01*
X182630080Y-152668238D01*
X182619518Y-152672774D01*
X182613776Y-152675960D01*
X182585666Y-152696103D01*
X182566817Y-152719723D01*
X182555716Y-152750196D01*
X182550849Y-152790897D01*
X182550279Y-152817595D01*
X182552373Y-152865291D01*
G36*
X182558309Y-146434041D02*
X182558956Y-146467404D01*
X182560590Y-146495020D01*
X182562920Y-146512843D01*
X182564262Y-146516827D01*
X182568527Y-146522333D01*
X182574205Y-146527036D01*
X182582497Y-146530999D01*
X182594606Y-146534284D01*
X182611732Y-146536956D01*
X182635076Y-146539077D01*
X182665841Y-146540711D01*
X182705228Y-146541920D01*
X182754438Y-146542768D01*
X182814672Y-146543319D01*
X182887132Y-146543634D01*
X182973020Y-146543777D01*
X183073537Y-146543812D01*
X183550375Y-146543812D01*
X183550375Y-146497775D01*
X183548818Y-146471076D01*
X183544801Y-146450337D01*
X183540850Y-146442212D01*
X183534578Y-146440002D01*
X183519909Y-146438128D01*
X183495912Y-146436568D01*
X183461655Y-146435302D01*
X183416207Y-146434311D01*
X183358638Y-146433574D01*
X183288015Y-146433071D01*
X183203408Y-146432782D01*
X183103885Y-146432687D01*
X182670178Y-146432687D01*
X182659751Y-146410931D01*
X182642701Y-146389267D01*
X182614203Y-146373778D01*
X182583984Y-146365402D01*
X182558187Y-146359988D01*
X182558309Y-146434041D01*
X182558309Y-146434041D01*
G37*
X182558309Y-146434041D02*
X182558956Y-146467404D01*
X182560590Y-146495020D01*
X182562920Y-146512843D01*
X182564262Y-146516827D01*
X182568527Y-146522333D01*
X182574205Y-146527036D01*
X182582497Y-146530999D01*
X182594606Y-146534284D01*
X182611732Y-146536956D01*
X182635076Y-146539077D01*
X182665841Y-146540711D01*
X182705228Y-146541920D01*
X182754438Y-146542768D01*
X182814672Y-146543319D01*
X182887132Y-146543634D01*
X182973020Y-146543777D01*
X183073537Y-146543812D01*
X183550375Y-146543812D01*
X183550375Y-146497775D01*
X183548818Y-146471076D01*
X183544801Y-146450337D01*
X183540850Y-146442212D01*
X183534578Y-146440002D01*
X183519909Y-146438128D01*
X183495912Y-146436568D01*
X183461655Y-146435302D01*
X183416207Y-146434311D01*
X183358638Y-146433574D01*
X183288015Y-146433071D01*
X183203408Y-146432782D01*
X183103885Y-146432687D01*
X182670178Y-146432687D01*
X182659751Y-146410931D01*
X182642701Y-146389267D01*
X182614203Y-146373778D01*
X182583984Y-146365402D01*
X182558187Y-146359988D01*
X182558309Y-146434041D01*
G36*
X182558309Y-148772786D02*
X182558934Y-148806770D01*
X182560514Y-148835036D01*
X182562774Y-148853631D01*
X182564262Y-148858389D01*
X182568527Y-148863896D01*
X182574205Y-148868598D01*
X182582497Y-148872561D01*
X182594606Y-148875847D01*
X182611732Y-148878519D01*
X182635076Y-148880640D01*
X182665841Y-148882274D01*
X182705228Y-148883483D01*
X182754438Y-148884331D01*
X182814672Y-148884881D01*
X182887132Y-148885196D01*
X182973020Y-148885340D01*
X183073537Y-148885374D01*
X183077571Y-148885375D01*
X183550375Y-148885375D01*
X183550375Y-148839337D01*
X183548818Y-148812638D01*
X183544801Y-148791900D01*
X183540850Y-148783775D01*
X183534582Y-148781567D01*
X183519920Y-148779694D01*
X183495933Y-148778135D01*
X183461692Y-148776869D01*
X183416266Y-148775878D01*
X183358724Y-148775141D01*
X183288136Y-148774637D01*
X183203570Y-148774346D01*
X183104098Y-148774250D01*
X182668486Y-148774250D01*
X182660369Y-148750966D01*
X182652709Y-148736466D01*
X182639011Y-148725540D01*
X182615147Y-148715254D01*
X182605220Y-148711799D01*
X182558187Y-148695915D01*
X182558309Y-148772786D01*
X182558309Y-148772786D01*
G37*
X182558309Y-148772786D02*
X182558934Y-148806770D01*
X182560514Y-148835036D01*
X182562774Y-148853631D01*
X182564262Y-148858389D01*
X182568527Y-148863896D01*
X182574205Y-148868598D01*
X182582497Y-148872561D01*
X182594606Y-148875847D01*
X182611732Y-148878519D01*
X182635076Y-148880640D01*
X182665841Y-148882274D01*
X182705228Y-148883483D01*
X182754438Y-148884331D01*
X182814672Y-148884881D01*
X182887132Y-148885196D01*
X182973020Y-148885340D01*
X183073537Y-148885374D01*
X183077571Y-148885375D01*
X183550375Y-148885375D01*
X183550375Y-148839337D01*
X183548818Y-148812638D01*
X183544801Y-148791900D01*
X183540850Y-148783775D01*
X183534582Y-148781567D01*
X183519920Y-148779694D01*
X183495933Y-148778135D01*
X183461692Y-148776869D01*
X183416266Y-148775878D01*
X183358724Y-148775141D01*
X183288136Y-148774637D01*
X183203570Y-148774346D01*
X183104098Y-148774250D01*
X182668486Y-148774250D01*
X182660369Y-148750966D01*
X182652709Y-148736466D01*
X182639011Y-148725540D01*
X182615147Y-148715254D01*
X182605220Y-148711799D01*
X182558187Y-148695915D01*
X182558309Y-148772786D01*
G36*
X182558306Y-151240657D02*
X182558639Y-151288000D01*
X182559154Y-151327474D01*
X182559815Y-151356905D01*
X182560589Y-151374124D01*
X182561168Y-151377750D01*
X182569439Y-151374802D01*
X182587820Y-151367165D01*
X182606809Y-151358915D01*
X182702714Y-151321772D01*
X182812286Y-151288711D01*
X182933758Y-151260085D01*
X183065365Y-151236248D01*
X183205343Y-151217555D01*
X183351925Y-151204359D01*
X183389640Y-151201946D01*
X183550375Y-151192496D01*
X183550375Y-151146496D01*
X183549179Y-151118137D01*
X183544923Y-151101659D01*
X183536601Y-151093199D01*
X183536484Y-151093137D01*
X183523239Y-151090810D01*
X183496771Y-151089861D01*
X183459659Y-151090163D01*
X183414485Y-151091589D01*
X183363829Y-151094012D01*
X183310270Y-151097305D01*
X183256389Y-151101341D01*
X183204766Y-151105992D01*
X183157981Y-151111133D01*
X183149685Y-151112176D01*
X182995782Y-151136780D01*
X182841691Y-151171296D01*
X182684153Y-151216292D01*
X182678169Y-151216289D01*
X182674065Y-151210094D01*
X182671292Y-151195121D01*
X182669299Y-151168783D01*
X182667998Y-151140305D01*
X182665896Y-151100138D01*
X182662081Y-151072266D01*
X182654559Y-151053110D01*
X182641338Y-151039090D01*
X182620426Y-151026630D01*
X182599011Y-151016394D01*
X182558187Y-150997480D01*
X182558187Y-151187615D01*
X182558306Y-151240657D01*
X182558306Y-151240657D01*
G37*
X182558306Y-151240657D02*
X182558639Y-151288000D01*
X182559154Y-151327474D01*
X182559815Y-151356905D01*
X182560589Y-151374124D01*
X182561168Y-151377750D01*
X182569439Y-151374802D01*
X182587820Y-151367165D01*
X182606809Y-151358915D01*
X182702714Y-151321772D01*
X182812286Y-151288711D01*
X182933758Y-151260085D01*
X183065365Y-151236248D01*
X183205343Y-151217555D01*
X183351925Y-151204359D01*
X183389640Y-151201946D01*
X183550375Y-151192496D01*
X183550375Y-151146496D01*
X183549179Y-151118137D01*
X183544923Y-151101659D01*
X183536601Y-151093199D01*
X183536484Y-151093137D01*
X183523239Y-151090810D01*
X183496771Y-151089861D01*
X183459659Y-151090163D01*
X183414485Y-151091589D01*
X183363829Y-151094012D01*
X183310270Y-151097305D01*
X183256389Y-151101341D01*
X183204766Y-151105992D01*
X183157981Y-151111133D01*
X183149685Y-151112176D01*
X182995782Y-151136780D01*
X182841691Y-151171296D01*
X182684153Y-151216292D01*
X182678169Y-151216289D01*
X182674065Y-151210094D01*
X182671292Y-151195121D01*
X182669299Y-151168783D01*
X182667998Y-151140305D01*
X182665896Y-151100138D01*
X182662081Y-151072266D01*
X182654559Y-151053110D01*
X182641338Y-151039090D01*
X182620426Y-151026630D01*
X182599011Y-151016394D01*
X182558187Y-150997480D01*
X182558187Y-151187615D01*
X182558306Y-151240657D01*
G36*
X182558469Y-151985275D02*
X182559754Y-152009272D01*
X182562696Y-152024184D01*
X182567952Y-152033404D01*
X182575828Y-152040081D01*
X182581003Y-152042671D01*
X182589352Y-152044879D01*
X182602066Y-152046734D01*
X182620335Y-152048265D01*
X182645352Y-152049502D01*
X182678308Y-152050476D01*
X182720394Y-152051215D01*
X182772802Y-152051749D01*
X182836723Y-152052109D01*
X182913348Y-152052323D01*
X183003869Y-152052421D01*
X183071922Y-152052437D01*
X183550375Y-152052437D01*
X183550375Y-152005091D01*
X183549402Y-151977025D01*
X183545709Y-151960538D01*
X183538128Y-151951410D01*
X183535021Y-151949529D01*
X183523028Y-151947476D01*
X183495424Y-151945708D01*
X183452469Y-151944232D01*
X183394424Y-151943051D01*
X183321552Y-151942170D01*
X183234112Y-151941595D01*
X183132366Y-151941331D01*
X183094294Y-151941312D01*
X182668919Y-151941312D01*
X182662005Y-151923126D01*
X182652244Y-151905403D01*
X182644342Y-151896735D01*
X182631158Y-151890163D01*
X182609393Y-151882057D01*
X182585877Y-151874678D01*
X182567444Y-151870288D01*
X182563219Y-151869875D01*
X182561101Y-151877250D01*
X182559423Y-151897129D01*
X182558400Y-151926142D01*
X182558187Y-151948799D01*
X182558469Y-151985275D01*
X182558469Y-151985275D01*
G37*
X182558469Y-151985275D02*
X182559754Y-152009272D01*
X182562696Y-152024184D01*
X182567952Y-152033404D01*
X182575828Y-152040081D01*
X182581003Y-152042671D01*
X182589352Y-152044879D01*
X182602066Y-152046734D01*
X182620335Y-152048265D01*
X182645352Y-152049502D01*
X182678308Y-152050476D01*
X182720394Y-152051215D01*
X182772802Y-152051749D01*
X182836723Y-152052109D01*
X182913348Y-152052323D01*
X183003869Y-152052421D01*
X183071922Y-152052437D01*
X183550375Y-152052437D01*
X183550375Y-152005091D01*
X183549402Y-151977025D01*
X183545709Y-151960538D01*
X183538128Y-151951410D01*
X183535021Y-151949529D01*
X183523028Y-151947476D01*
X183495424Y-151945708D01*
X183452469Y-151944232D01*
X183394424Y-151943051D01*
X183321552Y-151942170D01*
X183234112Y-151941595D01*
X183132366Y-151941331D01*
X183094294Y-151941312D01*
X182668919Y-151941312D01*
X182662005Y-151923126D01*
X182652244Y-151905403D01*
X182644342Y-151896735D01*
X182631158Y-151890163D01*
X182609393Y-151882057D01*
X182585877Y-151874678D01*
X182567444Y-151870288D01*
X182563219Y-151869875D01*
X182561101Y-151877250D01*
X182559423Y-151897129D01*
X182558400Y-151926142D01*
X182558187Y-151948799D01*
X182558469Y-151985275D01*
M02*
